<?xml version="1.0" encoding="UTF-8"?><svg xmlns="http://www.w3.org/2000/svg" viewBox="0 0 4413 800"><defs><style>.cls-1,.cls-2,.cls-3,.cls-4,.cls-5,.cls-6,.cls-7,.cls-8,.cls-9,.cls-10,.cls-11,.cls-12,.cls-13,.cls-14,.cls-15,.cls-16,.cls-17{stroke-miterlimit:10;}.cls-1,.cls-2,.cls-3,.cls-4,.cls-5,.cls-6,.cls-7,.cls-8,.cls-9,.cls-10,.cls-11,.cls-12,.cls-14,.cls-15,.cls-16,.cls-17{stroke:#000;}.cls-1,.cls-7,.cls-14,.cls-15{stroke-width:.75px;}.cls-18{opacity:.11;}.cls-18,.cls-19{fill:#29abe2;}.cls-2{stroke-width:.15px;}.cls-2,.cls-20,.cls-4,.cls-5,.cls-6,.cls-8,.cls-13,.cls-14,.cls-15{fill:#fff;}.cls-4,.cls-16{stroke-width:.25px;}.cls-5{stroke-linecap:round;}.cls-6,.cls-17{stroke-width:.5px;}.cls-7,.cls-11,.cls-12,.cls-16,.cls-17{fill:none;}.cls-9{fill:#666;}.cls-10{fill:#f2f2f2;}.cls-19{opacity:.19;}.cls-12{stroke-width:.6px;}.cls-13{stroke:#1d1d1b;stroke-width:.1px;}.cls-15{opacity:.3;}.cls-21{fill:#f09429;opacity:.54;}.cls-22{fill:#4f79bc;opacity:.41;}.cls-23{fill:#006429;opacity:.39;}.cls-24{fill:#006837;opacity:.65;}</style></defs><g id="Lager_1"><path class="cls-11" d="M-56,612.28c104.11,4.61,208.61,9.22,312.5,1.97,46.88-3.27,93.86-8.96,140.77-6.04,33.75,2.1,67,8.64,100.83,9.63,61.42,1.8,121.31-14.67,182.38-20.32,99.05-9.15,199.7,10.3,298.58-.04,48.46-5.06,96.05-17.25,144.89-16.86,49.74,.39,98.14,13.83,147.82,15.99,82.03,3.57,162.04-23.65,244.18-23.89,28.48-.08,51.04-3.04,79.82,3.04,52.32,11.05,106.48,16.18,160.47,15.19,68.58-1.26,136.71-12.3,205.27-10.51,37.36,.98,74.49,5.77,111.86,6.36,37.6,.59,75.09-3.08,112.65-4.56,79.31-3.12,158.48,3.53,237.46,8.53,39.92,2.53,79.91,4.68,119.97,4.93,19.97,.13,39.95-.21,59.89-1.2,17.3-.86,34.57,1.76,51.82,.11,4.23-.4,8.42-1.07,12.62-1.66,39.58-5.62,76.55-.58,116.12-1.29l76.79-1.37c142.01-2.53,284.12-5.07,425.69-14.54,48.18-3.22,96.37-7.25,144.7-7.03,47.96,.22,95.73,4.63,143.63,6.66,84.44,3.57,169.06-.28,253.48-4.14-4.97,.7-9.94,1.39-14.9,2.09,209.03-13.39,417.12-16.15,626.73-11.99l-7.53-1.36"/><path class="cls-11" d="M-44.07,619.84c-11.96-1.69-24.71,1.42-33.88,8.27-16.05,11.98-19.13,32.13-21.12,50.38-1.2,10.95-2.24,22.63,3.72,32.35,13.23,21.57,32.61,17.76,33.41,42.16,345.32-31.58,693.26-41.71,1040.26-30.29,249.46,8.21,498.49,27.54,748.12,28.2,113.68,.3,227.37-3.28,340.72-10.72,169.17-11.11,338.35-30.84,507.82-23.86,90.64,3.73,180.72,15.09,271.4,18.05,110.61,3.61,221.18-5.31,331.59-12.11,454.5-27.98,910.81-20.06,1366.36-12.12,21.23-72.38-53.02-153.21-139.34-151.69"/><g><path class="cls-8" d="M2962.6,605.46l23.89,24.58,70.24-5.54c-9.53,12.95-34.75,43.23-76.17,51.69-9,1.84-17.43,2.37-25.03,2.18l-154.52,1.63v-46.37c3.9-.05,7.8-.1,11.7-.14,1.15-.01,30.9-.38,31.16-.38h.12c1.11-.01,34.63-.42,35.91-.44-3.08-13.06-6.17-26.12-9.25-39.17l91.95,2.72v9.25Z"/><path class="cls-8" d="M2965.17,631.85l-54.96-.07c-1.58,.04-3.08-.7-3.98-1.96l-8.31-13.03c-1.9-2.68,.88-7.19,4.24-7.25l47.62,.05c1.85-.03,3.61,.76,4.78,2.14l12.74,15.09c1.62,1.93,.46,4.95-2.12,5.02Z"/><path class="cls-8" d="M3061,611.69c-1.55,.07-3.11,.14-4.68,.22-17.19,.92-35.02,2.94-53.33,6.38-.74,.14-2.72,.27-5.23,1.02-5.94,1.76-10.22,5.21-13.06,8.12"/><line class="cls-8" x1="3048.36" y1="625.16" x2="3059.98" y2="611.69"/><line class="cls-8" x1="3033.66" y1="626.41" x2="3045.71" y2="612.71"/><line class="cls-8" x1="3024.49" y1="627.04" x2="3035.18" y2="613.57"/><line class="cls-8" x1="3015.86" y1="627.72" x2="3025.31" y2="614.75"/><line class="cls-8" x1="3003.97" y1="628.66" x2="3012.99" y2="616.78"/><line class="cls-8" x1="2994.6" y1="629.4" x2="3002.21" y2="618.25"/><polyline class="cls-11" points="2813.24 633.48 2817.25 630.22 2842.02 630.22 2844.53 633.1"/></g></g><g id="Bull_boat"><g><path class="cls-8" d="M774.76,576.59c.14,5.64,.85,24.78,13,34.14,3.75,2.89,7.47,4.27,11.01,5.29,19.56,5.59,37.28,3.14,57.27-.88,9.37-1.88,14.12-2.87,17.62-5.29,14.9-10.28,13.38-28.54,13.22-35.46"/><path class="cls-11" d="M812.56,555.05c2.31,11.05,2.04,22.62-.78,33.55"/><path class="cls-11" d="M841.29,554.46c-1.62,12.13-2.16,24.41-1.61,36.64"/><path class="cls-11" d="M857.08,555.79c-.86,1.92-1.49,3.93-2.13,5.94-2.92,9.19-5.87,18.68-4.96,28.27"/><path class="cls-11" d="M826.42,553.06l-3.63,11.33c-1.77,5.53-3.56,11.29-2.7,17.02,.42,2.78,1.45,5.44,2.48,8.07"/><path class="cls-11" d="M778.92,565.95c2.77,3.79,4.26,8.49,4.18,13.19"/><path class="cls-11" d="M794.31,558.51c3.74,6.34,1.5,15.26,6.21,20.92,2.41,2.9,6.15,4.27,9.75,5.39,2.58,.8,5.19,1.53,7.84,2.07,5.68,1.17,11.5,1.51,17.3,1.67,8.11,.22,16.7-.02,23.57-4.35,2.56-1.61,4.76-3.73,6.94-5.83,.62-.6,1.24-1.2,1.72-1.91,1.55-2.31,1.32-5.32,1.5-8.1,.21-3.23,1.05-6.41,2.47-9.31"/><path class="cls-11" d="M791.74,583.45c1.89-1.04,3.82-2.05,5.84-2.81,1.9-.71,3.88-1.21,5.86-1.66,9.93-2.25,20.1-3.38,30.28-3.37,3.23,0,6.47,.13,9.62,.82,3.06,.68,5.97,1.88,8.87,3.09l14.22,5.9"/><ellipse class="cls-11" cx="829.94" cy="571.8" rx="56.94" ry="19.66"/><ellipse class="cls-11" cx="829.35" cy="571.71" rx="55.92" ry="20.12"/><polygon class="cls-8" points="816.03 588.76 776.14 553.53 777.78 551.74 818.16 588.48 816.03 588.76"/></g><path class="cls-11" d="M897,630.72c29.61,6.53,60.35,6.37,89.9-.48,14.37-3.33,28.72-8.25,43.38-7.52,17.9,.89,34.76,10.14,52.59,12.06,16.09,1.73,32.14-2.56,48.18-4.8,60.54-8.48,123.37,12.05,182.3-5.82"/><path class="cls-11" d="M917.18,705.61c24.7-7.53,49.74-15.11,74.94-13.1,23.24,1.85,46.1,11.83,69.36,10.68,24.12-1.19,48.17-14.33,71.89-7.9,11.41,3.09,22.24,10.64,33.82,11.57,14,1.12,27.37-7.49,40.96-12.48,24.7-9.07,51.42-5.99,74.84,8.61"/><path class="cls-11" d="M713,682.18c19.74-20.57,48.2-.41,73.39-.63,22.73-.2,43.51-17.84,66.16-20.3,27.51-2.99,54.11,16.66,81.68,14.86,14.61-.95,28.57-7.88,42.89-11.83s30.27-4.51,42.49,6.06"/><path class="cls-11" d="M2732.6,694c29.34-20.75,69.43-5.74,105.35-6.62,16.36-.4,32.56-4.3,48.91-3.63,15.26,.63,30.04,5.23,45.11,7.69,33.62,5.48,67.96,.24,101.62-5"/><path class="cls-11" d="M2555.91,624.02c13.2-6.66,29.48-6.88,42.86-.58,3.94,1.86,7.64,4.24,11.73,5.72,5.72,2.06,11.95,2.26,18.02,1.89,30.29-1.85,62.89-16.57,89.22-1.48,7.45,4.27,13.59,10.66,21.33,14.38,18.97,9.11,42.75,.26,61.95,8.87"/><path class="cls-11" d="M2540.21,682.73c34.53,14.52,73.95-6.96,111.11-2.25,11.65,1.48,23.09,5.55,34.82,4.87,13.67-.8,26.04-7.93,39.04-12.26,22.75-7.57,47.35-6.46,71.29-5.27"/><path class="cls-11" d="M2201.47,684.79c14.36-16.64,40.99-8.72,62.85-11.03,11.65-1.23,22.73-5.77,34.36-7.2,14.14-1.75,28.38,1.15,42.54,2.67,71.86,7.75,144.69-19.78,216-8"/><ellipse class="cls-18" cx="1233.5" cy="691" rx="67" ry="15.5"/><ellipse class="cls-19" cx="2614" cy="631.5" rx="67" ry="15.5"/><g><path class="cls-17" d="M1895.43,479.9c-.36,1.9-.98,3.76-1.82,5.51-.24,.5-.53,1.03-1.02,1.3-.44,.25-.97,.26-1.47,.27l-33.51,.33c-1.92,.02-3.89,.04-5.7,.69-4.38,1.57-6.84,6.78-5.97,11.36,.53,2.8,2.1,5.47,1.79,8.31-.22,2.01-1.45,3.89-3.21,4.9-.53,.3-1.11,.53-1.56,.95-1.15,1.05-1.07,2.85-.95,4.41,.37,4.87,.25,9.79-.36,14.64,.48,.16,1.06-.11,1.24-.57-.07,.72,.39,1.46,1.06,1.71-.25,.59-.32,1.25-.21,1.88,1.62,.87,3.88,.21,4.79-1.38-.64-.87-1.89-1.06-2.6-1.87-.52-.59-.67-1.42-.78-2.2-.54-3.74-.78-7.53-.72-11.31,0-.34,.02-.69,.2-.98,.16-.26,.44-.42,.71-.57,2.51-1.39,5.18-2.49,7.61-4.02s4.67-3.55,5.77-6.2c.89-2.14,.97-4.52,1.04-6.85"/><path class="cls-17" d="M1904.49,487.65c-.9,1.41-.16,3.29-.47,4.94-.2,1.03-.8,1.92-1.39,2.78l-5.82,8.49c-.61,.9-1.23,1.8-1.99,2.57-1.3,1.32-3.01,2.24-4.83,2.6"/><path class="cls-17" d="M1859.12,504.98c3.88-.08,7.77,.63,11.37,2.08l-.92,.78c1.07,.02,2.15-.19,3.13-.61,.02,.22-.09,.45-.28,.56l6.61-.59c.53-.05,1.07-.1,1.57-.28,1.72-.65,2.42-2.66,2.91-4.43"/><path class="cls-17" d="M1862.29,508.89c-1.32,3.78-4.93,6.17-8.16,8.52-.64,.46-1.33,1.04-1.35,1.83-.02,.57,.32,1.07,.65,1.53l4.4,6.21c1.1,1.56,2.24,3.15,3.81,4.23,.72,.49,1.62,1.39,1.04,2.04-.11,.12-.26,.2-.42,.27-1.99,.86-4.59-.82-4.62-2.99l-.63,.96c-2.07-4.95-5.21-9.45-9.15-13.09,.98-.89,1.66-2.11,1.9-3.41"/><path class="cls-17" d="M1881.57,509.36c-.74,7.28-1.9,14.51-3.45,21.66,.26-.58,.71-1.07,1.27-1.36l.03,3.18c0,.44,.02,.91,.26,1.27,.71,1.05,2.4,.33,3.58,.8-.23-.49,.11-1.16,.64-1.27-1.6-1.28-2.44-3.34-2.59-5.39s.32-4.09,.93-6.04c.71-2.25,1.62-4.44,2.71-6.53"/><path class="cls-17" d="M1897.1,484.65c-.39,.96-.83,1.9-1.32,2.82,.33-.13,.7,.18,.79,.53s0,.71-.04,1.07c-.19,1.7,1.01,3.44,2.66,3.87s3.55-.51,4.2-2.09"/><path class="cls-17" d="M1858.82,507.51c7.06,3.42,15.42,4.02,22.9,1.66"/><path class="cls-17" d="M1899.14,473.3c-.93-.53-1.7-1.54-1.53-2.6,.09-.56,.44-1.05,.7-1.56,.62-1.2,.8-2.63,.49-3.94-.1-.45-.27-.9-.61-1.22-.14,2.1-.45,4.39-1.96,5.86-.07,.07-.15,.13-.24,.13-.07,0-.14-.05-.2-.09l-5.39-4.09c-.47-.36-.98-.77-1.11-1.35-.12-.55,.14-1.13,.55-1.52s.94-.62,1.47-.81c.93-.33,1.91-.57,2.74-1.11s1.5-1.47,1.38-2.45c-1.09,.03-2,.8-2.88,1.45s-2.01,1.22-3.03,.82c-.16-.06-.31-.15-.41-.29-.08-.11-.11-.24-.13-.37-.16-1.01,.41-1.98,.95-2.85l1.27-2.03c.17-.27,.34-.56,.36-.88s-.2-.67-.52-.69c-.21-.01-.4,.11-.56,.24-1.1,.87-1.79,2.15-2.36,3.44-.39,.88-.74,1.83-.65,2.79,.06,.67,.27,1.57-.34,1.86-.45,.21-1,.07-1.4-.23s-.67-.73-.91-1.17c-.6-1.08-1.06-2.22-1.39-3.41-.07-.24-.19-.53-.44-.52-.41,1.3-.06,2.71,.42,3.98,.39,1.02,.87,2.02,1.52,2.9,.51,.69,1.13,1.31,1.79,1.86,.63,.52,1.3,.99,2,1.4,.52,.31,1.07,.58,1.57,.92,.54,.37,1.02,.81,1.5,1.25,.69,.64,1.38,1.29,2.07,1.94,1.22,1.17,2.69,2.36,2.87,4.04-.98,.27-1.72-.82-2.47-1.51-1.38-1.25-3.64-1.33-4.77-2.82-.04,1.76-.07,3.58,.56,5.22s2.08,3.1,3.84,3.19c.3,.02,.6,0,.87,.12,.54,.26,.63,.97,.76,1.56,.42,1.98,1.9,3.45,3.52,4.55,.83,.56,1.73,1.09,2.64,1.51,.99,.45,2.12,1.03,3.22,.62,.33-.12,.63-.33,.9-.55,1.08-.86,1.29-1.78,.85-3.04-.5-1.44,.26-2.85,.49-4.3,.07-.45,.09-.92,.31-1.32,.37-.69,1.2-.97,1.79-1.48,1.27-1.09,1.35-3.03,2.29-4.41,.09-.13,.19-.27,.16-.43-.07-.31-.52-.25-.81-.12l-2.83,1.26c-.89,.4-1.79,.8-2.51,1.45,.07-1.38,1.06-2.48,1.87-3.6l.86-1.19c.18-.25,.36-.5,.58-.72,.32-.33,.71-.6,1.08-.87,.97-.7,1.89-1.47,2.8-2.24,1.6-1.34,3.25-2.74,4.22-4.59,.83-1.59,1.12-3.43,1.03-5.22-.02-.34-.05-.69-.25-.97s-.6-.44-.88-.26c-.17,.1-.26,.3-.32,.48-.19,.61-.13,1.27-.16,1.91-.05,1.17-.4,2.32-1,3.32-.11,.18-.26,.38-.48,.4-.32,.02-.49-.36-.55-.67-.34-1.7,.02-3.47-.25-5.18-.04-.23-.13-.51-.36-.56-.32-.07-.51,.35-.56,.68-.21,1.36-.28,2.75-.2,4.13,.06,1.07,.21,2.15,.01,3.21s-.83,2.11-1.85,2.45c-.73-3.05-1.45-5.92-2.28-8.94-.08-.28-.16-.57-.35-.79-.15-.17-.37-.29-.6-.32,.26,2.26,.7,4.5,1.33,6.68,.3,1.05,.65,2.17,.36,3.22-.06,.2-.13,.4-.23,.58-.11,.21-.25,.41-.4,.6l-3.26,4.53c-.05,.07-.12,.15-.21,.14-.06-.01-.1-.06-.13-.1l-.89-1.12c-.37-.47-.75-.96-.89-1.54-.25-1.09,.41-2.23,.18-3.32-.04-.18-.12-.37-.28-.44-.29-.13-.58,.19-.72,.47-.78,1.55-.75,3.48,.07,5.01,.23,.43,.52,.83,.71,1.28,.36,.88,.29,1.93-.2,2.75"/><path class="cls-17" d="M1898.51,477.38c.21,.08,.44-.11,.67-.11,.26,0,.45,.25,.56,.49,.22,.52,.29,1.17,.77,1.46"/><path class="cls-17" d="M1904.5,479.33c-.07-.48,.1-.99,.46-1.32"/><path class="cls-17" d="M1899.23,482.1c.21-.03,.4,.14,.54,.3,.88,1.01,1.44,2.3,1.58,3.63-.06-1.12,.67-2.2,1.68-2.69s2.24-.41,3.25,.06"/><path class="cls-7" d="M1896.88,474.79c.34-.67,1.12-.99,1.85-1.2,1.25-.35,2.74-.47,3.72,.38,.28-.3,.74-.38,1.14-.29s.75,.33,1.07,.59c1.2,1,2.05,2.42,2.35,3.95"/><path class="cls-17" d="M1894.56,477.14c-.51-.57-.61-1.38-.95-2.06-.71-1.44-2.33-2.15-3.82-2.74,.4,.35,.7,.83,.83,1.35,.04,.14,.06,.29,.14,.42,.19,.3,.64,.42,.71,.76,.03,.15-.03,.31-.03,.47,.02,.31,.29,.53,.45,.79s.12,.72-.19,.74c.61-.03,1.54,.99,2.11,1.22,.5,.21,1.01,.11,1.53,.07-.08-.45-.49-.7-.77-1.02Z"/><path class="cls-17" d="M1881.24,506.93l4.98,9.42c.6,1.14,1.21,2.28,1.69,3.48,1.71,4.28,1.76,9.02,2.76,13.51-.11-.37,.25-.78,.65-.78s.73,.34,.82,.72c.14,.54-.13,1.11-.08,1.67,.11,1.13,1.46,1.69,2.59,1.68,.53,0,1.09-.1,1.5-.42s.65-.94,.4-1.41c-1.1-.08-2.01-.95-2.52-1.93s-.71-2.09-1.01-3.15c-.84-2.93-2.53-5.69-2.47-8.73,.02-.79,.15-1.57,.19-2.35,.12-2.24-.5-4.45-.77-6.68s-.11-4.69,1.33-6.41"/><path class="cls-17" d="M1848.1,490.56c-1.72,0-3.06,1.41-4.19,2.7l-1.49,1.71c-.18,.2-.36,.42-.45,.67-.07,.21-.07,.44-.06,.66l.07,6.16c.69-2.1,3.04-3.24,3.97-5.24,.6-1.3,.53-2.79,.45-4.22-1.13,.92-1.92,2.23-2.2,3.66-.09-.34-.29-.64-.57-.86,.1,.42,.19,.86,.03,1.26s-.68,.67-1.03,.42c.11,1.07-.1,2.17-.59,3.12"/><path class="cls-17" d="M1897.8,478.45c.12-.01,.23-.03,.35-.02,.25,.02,.48,.16,.68,.3,.52,.37,.97,.87,1.12,1.49-.24-.15-.51-.26-.8-.31-.43-.08-.93-.05-1.2-.38-.07-.08-.12-.18-.17-.27-.17-.27-.54-.42-.66-.69,.18-.1,.47-.09,.69-.12Z"/><path class="cls-7" d="M1905.59,480.63c.36-.5-.02-.96,.26-1.42,.16-.26,.65-.69,.98-.65,.12,.01,.24,.07,.29,.18,.03,.08,.02,.17,.01,.26-.02,.27,.03,.53,.13,.78-.27-.21-.56-.23-.89-.18-.11,.02-.47,.19-.58,.11"/><path d="M1902.09,485.09c.13,.28,.51,.31,.81,.3s.69,.04,.79,.34c.06,.17-.02,.37-.16,.5s-.31,.19-.49,.25c-.34,.1-.7,.16-1.06,.18,1.19,.1,2.38,.11,3.57,.03,.12,0,.25-.03,.32-.12,.08-.11,.01-.26,0-.4-.01-.36,.36-.6,.58-.89,.38-.51,.18-1.34-.38-1.64-.31,.43-.78,.73-1.3,.82-.34,.06-3.21-.51-2.7,.64Z"/></g><g><path class="cls-12" d="M1611.53,492.99c2.91,2.46,7.04,3.03,10.82,2.5s7.33-2.05,10.91-3.35c14.73-5.37,31.27-7.36,46.08-2.2,4.56,1.59,8.97,3.84,13.77,4.38,6.43,.72,12.73-1.72,18.93-3.55,14.95-4.43,31.54-5.41,45.81,.89,2.93,1.29,5.74,2.88,8.81,3.78,3.07,.9,6.54,1.03,9.33-.53"/><path class="cls-12" d="M1652.48,439.08l-4.37-4.37c-.29-.29-.62-.6-1.03-.66-.28-.04-.57,.06-.82,.19-1.24,.65-1.77,2.11-2.21,3.44l-2.25,6.89,4.1-6.38c.3-.47,.73-1.01,1.29-.94,.32,.04,.58,.28,.81,.51l4.93,4.85"/><path class="cls-12" d="M1652.15,450.42c-1.36-1.63-2.8-3.32-4.78-4.08-.52-.2-1.1-.33-1.64-.21-.96,.22-1.57,1.12-2.09,1.96-2.03,3.27-4.13,6.85-3.75,10.67,1.43-2.7,3.08-5.28,4.93-7.71,.46-.61,.95-1.22,1.62-1.59s1.55-.44,2.15,.02c.44,.34,.65,.88,.9,1.37,.61,1.23,1.54,2.29,2.67,3.07"/><path class="cls-12" d="M1652.14,459.02c-.89-.81-1.81-1.64-2.91-2.13s-2.45-.61-3.49,0c-.54,.32-.96,.8-1.37,1.28l-1.91,2.22c-.67,.78-1.34,1.56-1.81,2.47-.85,1.65-.98,3.57-.99,5.43,1.51-2.87,3.59-5.44,6.08-7.51,.37-.31,.76-.62,1.23-.75,1.14-.32,2.26,.46,3.19,1.19l2.09,1.66"/><path class="cls-12" d="M1653.17,473.33c-1.36-1.1-2.82-2.08-4.36-2.93-.85-.47-1.88-.91-2.76-.49-.4,.19-.71,.55-.99,.89-.57,.67-1.14,1.35-1.71,2.02-.73,.86-1.48,1.77-1.74,2.86-.15,.62-.14,1.27-.12,1.91l.16,6.56c.69-4.24,3.03-8.18,6.43-10.8,1.94,1.79,3.63,3.86,5.01,6.12"/><path class="cls-12" d="M1653.67,426.21l-2.88-.49c-.36-.06-.75-.11-1.06,.08-.27,.17-.4,.48-.5,.78-.62,1.95-.41,4.05-.2,6.09,.33-.68,.48-1.42,.73-2.13s.6-1.42,1.21-1.86,1.52-.53,2.09-.03"/><path class="cls-12" d="M1653.23,433.56c1.29-.04,2.42-.82,3.55-1.46s2.49-1.16,3.69-.65c1.15,.49,1.74,1.79,1.94,3.02,.36,2.22-.2,4.48-.52,6.71-.27,1.91-.37,3.84-.29,5.77-1.53-3.9-.65-8.51-2.58-12.23-.26-.5-.62-1.01-1.17-1.12-.61-.13-1.19,.29-1.65,.7-.74,.67-1.41,1.41-2.01,2.21"/><path class="cls-12" d="M1655.04,464.09c.57-.59,1.55-.65,2.29-.29s1.27,1.05,1.63,1.79c.9,1.84,.91,3.98,.76,6.02s-.42,4.12-.01,6.12c-1.01-1.72-1.72-3.6-2.1-5.56-.2-1.02-.31-2.07-.69-3.04s-1.08-1.88-2.07-2.21"/><path class="cls-12" d="M1654.53,448.17c.18-1.14,.85-2.14,1.53-3.07,.83-1.14,1.71-2.28,2.89-3.06s2.7-1.16,4.02-.66c1.74,.67,2.61,2.58,3.23,4.34,.63,1.8,1.19,3.63,1.68,5.48,.09-1.8,.09-3.6,0-5.39-.06-1.14-.16-2.31-.68-3.33-.51-.99-1.37-1.75-2.3-2.36-1.12-.74-2.42-1.3-3.75-1.22-1.67,.1-3.13,1.18-4.3,2.37-1.06,1.07-1.99,2.27-2.78,3.56"/><path class="cls-12" d="M1654.32,455.04l.78-1.19c.8-1.22,1.63-2.47,2.82-3.31s2.86-1.17,4.12-.44c1.23,.72,1.74,2.19,2.16,3.55l2.49,7.99c-2.2-1.57-3.77-3.99-4.31-6.64-.2-1-.47-2.27-1.47-2.47-.64-.12-1.24,.29-1.75,.69-1.71,1.35-3.3,2.85-4.76,4.47"/><path class="cls-12" d="M1654.32,477.68c.4-.78,.81-1.57,1.43-2.17s1.53-1,2.38-.81c.48,.11,.91,.4,1.27,.73,1.35,1.26,1.86,3.16,2.1,4.99s.27,3.7,.88,5.44c-1.05-2.07-2.3-4.04-3.72-5.87-.24-.3-.49-.61-.85-.76-.46-.18-.98-.05-1.42,.17-.68,.34-1.25,.9-1.6,1.58"/><path class="cls-12" d="M1652.74,428.63l-.2,32.06c-.06,9-.12,18.04-1.3,26.96"/><path class="cls-12" d="M1655.64,486.19c-1.63-5.74-1.15-11.83-.99-17.8,.18-6.68-.05-13.36-.23-20.04s-.8-13.13,.61-19.44c.64-2.87,1.6-5.65,2.56-8.42-2.15,1.39-3.71,3.66-4.23,6.16"/><path class="cls-12" d="M1727.25,440.59l-4.37-4.37c-.29-.29-.62-.6-1.03-.66-.28-.04-.57,.06-.82,.19-1.24,.65-1.77,2.11-2.21,3.44l-2.25,6.89,4.1-6.38c.3-.47,.73-1.01,1.29-.94,.32,.04,.58,.28,.81,.51l4.93,4.85"/><path class="cls-12" d="M1726.91,451.93c-1.36-1.63-2.8-3.32-4.78-4.08-.52-.2-1.1-.33-1.64-.21-.96,.22-1.57,1.12-2.09,1.96-2.03,3.27-4.13,6.85-3.75,10.67,1.43-2.7,3.08-5.28,4.93-7.71,.46-.61,.95-1.22,1.62-1.59s1.55-.44,2.15,.02c.44,.34,.65,.88,.9,1.37,.61,1.23,1.54,2.29,2.67,3.07"/><path class="cls-12" d="M1726.9,460.53c-.89-.81-1.81-1.64-2.91-2.13s-2.45-.61-3.49,0c-.54,.32-.96,.8-1.37,1.28l-1.91,2.22c-.67,.78-1.34,1.56-1.81,2.47-.85,1.65-.98,3.57-.99,5.43,1.51-2.87,3.59-5.44,6.08-7.51,.37-.31,.76-.62,1.23-.75,1.14-.32,2.26,.46,3.19,1.19l2.09,1.66"/><path class="cls-12" d="M1727.94,474.84c-1.36-1.1-2.82-2.08-4.36-2.93-.85-.47-1.88-.91-2.76-.49-.4,.19-.71,.55-.99,.89-.57,.67-1.14,1.35-1.71,2.02-.73,.86-1.48,1.77-1.74,2.86-.15,.62-.14,1.27-.12,1.91l.16,6.56c.69-4.24,3.03-8.18,6.43-10.8,1.94,1.79,3.63,3.86,5.01,6.12"/><path class="cls-12" d="M1728.43,427.72l-2.88-.49c-.36-.06-.75-.11-1.06,.08-.27,.17-.4,.48-.5,.78-.62,1.95-.41,4.05-.2,6.09,.33-.68,.48-1.42,.73-2.13s.6-1.42,1.21-1.86,1.52-.53,2.09-.03"/><path class="cls-12" d="M1728,435.07c1.29-.04,2.42-.82,3.55-1.46s2.49-1.16,3.69-.65c1.15,.49,1.74,1.79,1.94,3.02,.36,2.22-.2,4.48-.52,6.71-.27,1.91-.37,3.84-.29,5.77-1.53-3.9-.65-8.51-2.58-12.23-.26-.5-.62-1.01-1.17-1.12-.61-.13-1.19,.29-1.65,.7-.74,.67-1.41,1.41-2.01,2.21"/><path class="cls-12" d="M1729.81,465.59c.57-.59,1.55-.65,2.29-.29s1.27,1.05,1.63,1.79c.9,1.84,.91,3.98,.76,6.02s-.42,4.12-.01,6.12c-1.01-1.72-1.72-3.6-2.1-5.56-.2-1.02-.31-2.07-.69-3.04s-1.08-1.88-2.07-2.21"/><path class="cls-12" d="M1729.29,449.68c.18-1.14,.85-2.14,1.53-3.07,.83-1.14,1.71-2.28,2.89-3.06s2.7-1.16,4.02-.66c1.74,.67,2.61,2.58,3.23,4.34,.63,1.8,1.19,3.63,1.68,5.48,.09-1.8,.09-3.6,0-5.39-.06-1.14-.16-2.31-.68-3.33-.51-.99-1.37-1.75-2.3-2.36-1.12-.74-2.42-1.3-3.75-1.22-1.67,.1-3.13,1.18-4.3,2.37-1.06,1.07-1.99,2.27-2.78,3.56"/><path class="cls-12" d="M1729.08,456.55l.78-1.19c.8-1.22,1.63-2.47,2.82-3.31s2.86-1.17,4.12-.44c1.23,.72,1.74,2.19,2.16,3.55l2.49,7.99c-2.2-1.57-3.77-3.99-4.31-6.64-.2-1-.47-2.27-1.47-2.47-.64-.12-1.24,.29-1.75,.69-1.71,1.35-3.3,2.85-4.76,4.47"/><path class="cls-12" d="M1729.09,479.18c.4-.78,.81-1.57,1.43-2.17s1.53-1,2.38-.81c.48,.11,.91,.4,1.27,.73,1.35,1.26,1.86,3.16,2.1,4.99s.27,3.7,.88,5.44c-1.05-2.07-2.3-4.04-3.72-5.87-.24-.3-.49-.61-.85-.76-.46-.18-.98-.05-1.42,.17-.68,.34-1.25,.9-1.6,1.58"/><path class="cls-12" d="M1727.5,430.14l-.2,32.06c-.06,9-.12,18.04-1.3,26.96"/><path class="cls-12" d="M1730.41,487.69c-1.63-5.74-1.15-11.83-.99-17.8,.18-6.68-.05-13.36-.23-20.04-.18-6.41-.8-13.13,.61-19.44,.64-2.87,1.6-5.65,2.56-8.42-2.15,1.39-3.71,3.66-4.23,6.16"/><path class="cls-12" d="M1693.09,453.55l-3.67-3.67c-.25-.25-.52-.51-.87-.55-.24-.03-.48,.05-.69,.16-1.04,.55-1.49,1.77-1.86,2.89l-1.89,5.78,3.44-5.36c.26-.4,.61-.85,1.08-.79,.27,.03,.49,.24,.68,.43l4.14,4.07"/><path class="cls-12" d="M1692.8,463.08c-1.14-1.37-2.35-2.79-4.02-3.43-.44-.17-.92-.28-1.38-.17-.81,.18-1.32,.94-1.76,1.65-1.7,2.74-3.47,5.75-3.15,8.96,1.2-2.27,2.58-4.44,4.14-6.48,.39-.51,.8-1.02,1.36-1.33s1.3-.37,1.81,.02c.37,.28,.55,.74,.75,1.15,.51,1.03,1.29,1.93,2.24,2.58"/><path class="cls-12" d="M1692.8,470.3c-.75-.68-1.52-1.38-2.44-1.79s-2.05-.51-2.93,0c-.45,.27-.8,.67-1.15,1.07l-1.6,1.86c-.56,.65-1.13,1.31-1.52,2.08-.72,1.38-.82,3-.83,4.56,1.27-2.41,3.02-4.57,5.11-6.31,.31-.26,.64-.52,1.03-.63,.95-.27,1.9,.38,2.68,1l1.76,1.4"/><path class="cls-12" d="M1693.66,482.32c-1.15-.92-2.37-1.75-3.66-2.46-.71-.4-1.58-.76-2.32-.41-.34,.16-.59,.46-.84,.75-.48,.57-.96,1.13-1.43,1.7-.61,.72-1.24,1.48-1.46,2.4-.13,.52-.11,1.06-.1,1.6l.13,5.51c.58-3.56,2.55-6.87,5.4-9.07,1.63,1.51,3.05,3.24,4.21,5.14"/><path class="cls-12" d="M1694.08,442.74l-2.42-.41c-.3-.05-.63-.1-.89,.07-.22,.14-.34,.41-.42,.66-.52,1.64-.35,3.4-.16,5.11,.27-.57,.41-1.19,.61-1.79s.5-1.19,1.02-1.56,1.28-.44,1.75-.02"/><path class="cls-12" d="M1693.72,448.92c1.09-.03,2.04-.69,2.98-1.22s2.1-.97,3.1-.55c.97,.41,1.46,1.5,1.63,2.54,.3,1.87-.17,3.76-.43,5.64-.23,1.6-.31,3.23-.24,4.85-1.29-3.27-.55-7.15-2.17-10.27-.22-.42-.52-.85-.98-.94-.51-.11-1,.24-1.39,.59-.62,.56-1.19,1.18-1.69,1.85"/><path class="cls-12" d="M1695.24,474.55c.48-.5,1.3-.55,1.93-.25s1.07,.88,1.37,1.51c.76,1.55,.76,3.34,.64,5.06s-.35,3.46-.01,5.14c-.85-1.44-1.45-3.03-1.76-4.67-.17-.86-.26-1.74-.58-2.56s-.9-1.58-1.74-1.85"/><path class="cls-12" d="M1694.8,461.18c.15-.96,.72-1.8,1.29-2.58,.7-.96,1.44-1.92,2.42-2.57s2.27-.97,3.38-.55c1.46,.56,2.19,2.17,2.71,3.65,.53,1.52,1,3.05,1.41,4.61,.08-1.51,.08-3.02,0-4.53-.05-.96-.13-1.94-.57-2.8-.43-.83-1.15-1.47-1.93-1.98-.94-.62-2.03-1.09-3.15-1.03-1.41,.08-2.63,.99-3.62,1.99-.89,.9-1.68,1.91-2.33,2.99"/><path class="cls-12" d="M1694.63,466.96l.65-1c.67-1.02,1.37-2.08,2.37-2.78s2.4-.98,3.46-.37c1.03,.6,1.46,1.84,1.82,2.98l2.09,6.71c-1.85-1.32-3.17-3.35-3.62-5.58-.17-.84-.4-1.91-1.24-2.07-.53-.1-1.04,.24-1.47,.58-1.44,1.14-2.78,2.4-4,3.76"/><path class="cls-12" d="M1694.63,485.97c.33-.65,.68-1.32,1.2-1.83s1.28-.84,2-.68c.4,.09,.76,.33,1.06,.62,1.13,1.06,1.57,2.66,1.77,4.19s.22,3.11,.74,4.57c-.88-1.74-1.93-3.39-3.13-4.93-.2-.25-.41-.52-.71-.64-.38-.15-.82-.04-1.19,.14-.57,.29-1.05,.76-1.34,1.32"/><path class="cls-12" d="M1693.3,444.77l-.17,26.93c-.05,7.56-.1,15.15-1.09,22.65"/><path class="cls-12" d="M1695.74,493.12c-1.37-4.82-.97-9.94-.83-14.95,.15-5.61-.04-11.22-.2-16.83s-.67-11.03,.51-16.33c.54-2.41,1.34-4.74,2.15-7.07-1.81,1.17-3.12,3.07-3.55,5.18"/></g></g><g id="skog"><g><path class="cls-8" d="M2149.84,384.37c6.91-.08,8.64,2.71,14.82,1.85,1.61-.22,5.4-.8,8.8-3.71,.79-.68,6.16-5.26,5.09-10.65-.73-3.67-4.22-6.61-6.95-7.87-1.25-.58-2.85-1.04-2.78-1.39,.07-.37,1.91,.01,4.17-.46,.95-.2,4.37-.92,5.56-3.24,1.28-2.5-.25-6.42-2.78-8.34-4.35-3.29-11.3-.35-11.58-1.39-.1-.37,.69-.98,5.09-3.24,6.29-3.23,8.27-3.8,9.26-6.02,.54-1.2,.91-3.16,0-4.17-1.66-1.84-7.69-.6-10.65,2.78-.72,.83-1.47,2.02-1.85,1.85-.43-.18,.25-1.74,0-3.71-.24-1.91-1.41-4.52-3.24-5.09-1.9-.59-2.93,1.48-6.48,2.78-3.99,1.46-9.08,1.18-9.73-.46-.56-1.43,2.02-4.51,4.63-4.63,2.02-.1,2.76,1.63,4.63,2.32,5.68,2.07,15.47-7.88,14.36-9.73-1.17-1.95-14.59,4.93-15.75,2.78-.6-1.12,2.36-4.2,2.78-4.63,2.18-2.23,3.92-2.58,4.17-4.17,.14-.91-.32-1.45-1.39-3.24-2.47-4.14-3.99-6.68-3.24-8.34,.79-1.75,5.65,.28,3.71-2.32-1.39-1.85-3.71,0-7.41-1.85-.18-.09-4-2.04-3.71-3.71,.32-1.78,7.87-4.63,4.17-5.56-.81-.2-4.05,2.77-8.34,0-1.84-1.19-1.6-1.77-5.56-6.02-3.32-3.57-4.99-5.35-6.02-5.56-5.33-1.06-8.9,9.82-15.28,9.26-4.05-.35-6.47-5.05-7.87-4.17-1.52,.96,1.34,6.51-.46,7.87-1.9,1.43-6.02-2.32-6.95-.93-3.82,5.73,7.04,5.37,6.02,11.12-.43,2.43-2.66,4.3-4.63,5.09-5.48,2.2-6.48-.93-8.34-.46-15.96,3.99,5.74,16.05,3.24,18.53-1.28,1.27-5.22-2.02-8.34,0-1.47,.95-2.46,2.89-2.32,4.63,.19,2.37,2.37,3.28,7.41,7.41,6.72,5.5,7.3,7.53,7.41,8.8,.12,1.38-.14,3.99-1.85,5.09-2.67,1.72-6.2-1.94-15.75-3.71-2.52-.47-4.57-.64-6.48,.46-1.36,.78-3.29,2.58-3.24,4.63,.1,3.9,7.42,8.7,14.36,9.26,2.15,.17,4.79-.02,6.95,1.85,.42,.36,2.17,1.97,1.85,3.71-.37,2.04-3.37,2.99-4.17,3.24-5.42,1.71-8.26-1.91-16.21-1.39-3.67,.24-4.9,1.13-5.56,1.85-1.6,1.76-1.96,4.85-.93,6.95,2.26,4.58,11.75,5.61,18.99,3.71,7.08-1.86,9.11-5.78,15.28-5.56,4.12,.15,8.13,1.23,8.34,2.78,.16,1.22-2.09,2.07-1.85,3.71,.19,1.34,1.87,2.11,2.32,2.32,2.54,1.17,5.21,.33,6.48,0,6.38-1.64,7.89,1.89,16.67,1.39,6.43-.37,5.45-2.25,11.12-2.32Z"/><polygon class="cls-11" points="2132.01 411 2125.98 411 2127.84 294.75 2127.84 294.75 2132.01 411"/></g><g><path class="cls-8" d="M2047.96,375.36c9.22-.11,11.52,3.62,19.77,2.47,2.14-.3,7.21-1.07,11.74-4.94,1.06-.9,8.22-7.02,6.8-14.21-.97-4.9-5.64-8.82-9.27-10.5-1.67-.77-3.8-1.39-3.71-1.85,.09-.49,2.55,.01,5.56-.62,1.27-.27,5.83-1.23,7.41-4.32,1.7-3.33-.33-8.57-3.71-11.12-5.81-4.39-15.07-.46-15.45-1.85-.13-.49,.92-1.31,6.8-4.32,8.39-4.3,11.03-5.07,12.36-8.03,.72-1.6,1.22-4.22,0-5.56-2.22-2.45-10.26-.8-14.21,3.71-.97,1.11-1.96,2.69-2.47,2.47-.57-.24,.33-2.33,0-4.94-.33-2.55-1.88-6.03-4.32-6.8-2.53-.79-3.91,1.98-8.65,3.71-5.33,1.94-12.11,1.57-12.97-.62-.75-1.91,2.69-6.01,6.18-6.18,2.69-.13,3.69,2.18,6.18,3.09,7.58,2.77,20.64-10.51,19.15-12.97-1.57-2.6-19.47,6.58-21.01,3.71-.8-1.49,3.14-5.6,3.71-6.18,2.9-2.98,5.22-3.44,5.56-5.56,.19-1.21-.42-1.93-1.85-4.32-3.29-5.52-5.32-8.92-4.32-11.12,1.05-2.34,7.54,.37,4.94-3.09-1.85-2.47-4.95,0-9.89-2.47-.24-.12-5.34-2.72-4.94-4.94,.43-2.38,10.5-6.18,5.56-7.41-1.08-.27-5.4,3.69-11.12,0-2.45-1.58-2.13-2.36-7.41-8.03-4.44-4.76-6.65-7.14-8.03-7.41-7.11-1.41-11.87,13.09-20.39,12.36-5.4-.47-8.64-6.74-10.5-5.56-2.03,1.28,1.79,8.68-.62,10.5-2.53,1.91-8.03-3.09-9.27-1.24-5.09,7.64,9.39,7.17,8.03,14.83-.57,3.24-3.55,5.74-6.18,6.8-7.31,2.93-8.65-1.24-11.12-.62-21.28,5.32,7.66,21.41,4.32,24.71-1.71,1.7-6.96-2.7-11.12,0-1.97,1.27-3.28,3.85-3.09,6.18,.26,3.16,3.16,4.37,9.89,9.89,8.96,7.34,9.74,10.04,9.89,11.74,.16,1.84-.19,5.33-2.47,6.8-3.56,2.29-8.27-2.59-21.01-4.94-3.36-.62-6.1-.85-8.65,.62-1.82,1.05-4.4,3.45-4.32,6.18,.13,5.21,9.9,11.61,19.15,12.36,2.87,.23,6.4-.02,9.27,2.47,.56,.48,2.89,2.63,2.47,4.94-.49,2.72-4.5,3.99-5.56,4.32-7.23,2.28-11.02-2.54-21.62-1.85-4.9,.32-6.54,1.51-7.41,2.47-2.14,2.35-2.62,6.47-1.24,9.27,3.02,6.11,15.68,7.48,25.33,4.94,9.44-2.49,12.15-7.71,20.39-7.41,5.5,.2,10.85,1.63,11.12,3.71,.21,1.62-2.78,2.76-2.47,4.94,.25,1.78,2.49,2.81,3.09,3.09,3.39,1.56,6.95,.44,8.65,0,8.51-2.19,10.52,2.52,22.24,1.85,8.58-.49,7.27-3,14.83-3.09Z"/><polygon class="cls-11" points="2024.17 410.89 2016.14 410.89 2018.61 255.81 2018.61 255.81 2024.17 410.89"/></g><polyline class="cls-11" points=".08 400.84 172.2 192.07 257.61 286.7 421.86 84.45 641.45 262 694.51 203.9 751.83 249.93 775.65 215.2 955.4 408.46"/><line class="cls-11" x1="-.5" y1="402.5" x2="4412.5" y2="418.5"/><circle class="cls-22" cx="3594" cy="164" r="33"/><path class="cls-8" d="M3688.72,285.16c3.52-5.83-.46-15.17,5.05-19.18,2.22-1.61,5.26-1.61,7.62-3.01,5.38-3.18,5.26-12.13,10.93-14.77,1.99-.93,4.45-.89,6.14-2.29,1.5-1.25,2.01-3.29,2.77-5.09,2.21-5.21,7.39-9.04,13.02-9.64,3.42-.36,7.15,.33,10.12-1.4,1.83-1.07,3.1-2.94,4.95-3.96,1.84-1.02,4.03-1.1,6.13-1.16,7.05-.19,14.1-.39,21.15-.58,14.59-.4,31.54,.27,40.3,11.95,1.32,1.76,2.43,4,1.79,6.11-.37,1.23-1.27,2.21-2.15,3.15l-3.55,3.79c-5.67,6.05-12.57,12.61-20.83,11.89-2.48-.21-5.24-1.03-7.26,.43-2.21,1.6-2.08,4.89-3.3,7.33-2.42,4.88-9.59,5.46-12.63,9.99-2.33,3.48-1.49,8.06-1.32,12.24s-1.15,9.3-5.2,10.35c4.56,3.58,3.38,11.3-.82,15.28-4.2,3.99-10.23,5.23-15.92,6.3l-23.84,4.5c-15.49,2.92-28.24,3.04-39.58-8.44-3.2-3.24-11.71-13.56-11.05-18.37,1.34-9.77,13.17-8.28,17.47-15.41Z"/><path class="cls-8" d="M3837.78,327.35c1.52-.76,3.26-1.45,3.8-3.32,.65-2.27-1.81-4.35-1.79-6.71,.01-1.58,1.12-2.9,1.99-4.21,2.36-3.55,1.04-8.39,3.63-12.23,2.37-3.52,6.29-6.12,10.6-6.27,2.82-.1,4.88,.16,6.84-1.78,1.72-1.71,1.01-4.65,4.09-5.49,.57-.16,1.17-.18,1.73-.35,3.22-.98,5.81-5.53,9.17-7.16,5-2.42,10.37-4.26,15.71-5.77,7.92-2.24,18.18-2.76,22.6,4.18,2.11,3.31,2.21,7.46,2.25,11.39l.25,24.48c.08,7.49,.03,15.46-3.99,21.79-6.56,10.36-20.64,12.2-32.88,13.01-12.87,.85-29.12,4.71-41.72,1.48-8.09-2.07-15.1-12.1-4.03-16.89-1.89-4.06-.25-5.16,1.75-6.16Z"/><path class="cls-8" d="M3914.55,498.2c-5.69-20.49-11.08-45.18-14.36-73.45-3.28-28.27-3.71-53.63-2.87-74.98h-66.07c2.24,20.03,3.32,47.55-1.44,79.57-4.21,28.33-11.73,51.62-18.67,68.86h103.42Z"/><ellipse class="cls-21" cx="280" cy="327" rx="46" ry="43"/><g><path class="cls-8" d="M572.11,459.2c14.85-.17,18.56,5.83,31.85,3.98,3.45-.48,11.61-1.73,18.91-7.96,1.7-1.46,13.24-11.31,10.95-22.89-1.56-7.89-9.08-14.2-14.93-16.92-2.69-1.25-6.11-2.25-5.97-2.99,.15-.79,4.11,.02,8.96-1,2.05-.43,9.39-1.98,11.94-6.97,2.74-5.37-.54-13.8-5.97-17.91-9.35-7.07-24.28-.75-24.88-2.99-.21-.78,1.47-2.11,10.95-6.97,13.52-6.93,17.77-8.17,19.9-12.94,1.15-2.58,1.96-6.79,0-8.96-3.58-3.95-16.53-1.3-22.89,5.97-1.56,1.78-3.15,4.34-3.98,3.98-.92-.39,.54-3.75,0-7.96-.52-4.11-3.03-9.71-6.97-10.95-4.07-1.28-6.29,3.18-13.93,5.97-8.58,3.13-19.51,2.53-20.9-1-1.21-3.07,4.34-9.69,9.95-9.95,4.34-.21,5.94,3.51,9.95,4.98,12.22,4.46,33.24-16.93,30.85-20.9-2.52-4.19-31.36,10.6-33.84,5.97-1.29-2.4,5.06-9.02,5.97-9.95,4.68-4.79,8.42-5.54,8.96-8.96,.31-1.95-.68-3.11-2.99-6.97-5.3-8.9-8.56-14.36-6.97-17.91,1.7-3.77,12.14,.6,7.96-4.98-2.99-3.98-7.98,0-15.92-3.98-.39-.2-8.6-4.38-7.96-7.96,.69-3.83,16.92-9.95,8.96-11.94-1.75-.44-8.7,5.95-17.91,0-3.95-2.55-3.43-3.8-11.94-12.94-7.14-7.67-10.72-11.5-12.94-11.94-11.45-2.28-19.12,21.09-32.84,19.9-8.69-.75-13.91-10.85-16.92-8.96-3.27,2.06,2.88,13.99-1,16.92-4.08,3.08-12.94-4.98-14.93-1.99-8.21,12.31,15.12,11.54,12.94,23.88-.92,5.22-5.72,9.25-9.95,10.95-11.77,4.72-13.93-1.99-17.91-1-34.28,8.57,12.34,34.49,6.97,39.81-2.76,2.73-11.21-4.35-17.91,0-3.17,2.05-5.28,6.2-4.98,9.95,.42,5.09,5.09,7.04,15.92,15.92,14.43,11.83,15.69,16.18,15.92,18.91,.25,2.97-.31,8.58-3.98,10.95-5.73,3.69-13.32-4.17-33.84-7.96-5.41-1-9.83-1.37-13.93,1-2.93,1.68-7.08,5.55-6.97,9.95,.22,8.39,15.94,18.69,30.85,19.9,4.63,.38,10.3-.03,14.93,3.98,.9,.78,4.65,4.24,3.98,7.96-.79,4.39-7.24,6.42-8.96,6.97-11.65,3.68-17.76-4.1-34.83-2.99-7.89,.51-10.53,2.43-11.94,3.98-3.45,3.78-4.22,10.42-1.99,14.93,4.86,9.84,25.26,12.06,40.8,7.96,15.21-4.01,19.58-12.43,32.84-11.94,8.85,.32,17.47,2.63,17.91,5.97,.34,2.61-4.48,4.44-3.98,7.96,.41,2.87,4.02,4.53,4.98,4.98,5.46,2.52,11.2,.7,13.93,0,13.71-3.53,16.95,4.06,35.83,2.99,13.82-.79,11.7-4.83,23.88-4.98Z"/><polygon class="cls-11" points="533.8 516.42 520.86 516.42 524.84 266.63 524.84 266.63 533.8 516.42"/></g><g><path class="cls-8" d="M438.5,379.14c9.57-.11,11.95,3.76,20.51,2.56,2.22-.31,7.48-1.11,12.18-5.13,1.1-.94,8.53-7.28,7.05-14.74-1.01-5.08-5.85-9.15-9.61-10.9-1.73-.8-3.94-1.45-3.85-1.92,.1-.51,2.65,.02,5.77-.64,1.32-.28,6.05-1.27,7.69-4.49,1.77-3.46-.35-8.89-3.85-11.54-6.02-4.56-15.63-.48-16.02-1.92-.14-.51,.95-1.36,7.05-4.49,8.71-4.46,11.44-5.26,12.82-8.33,.74-1.66,1.26-4.37,0-5.77-2.3-2.55-10.65-.83-14.74,3.85-1,1.15-2.03,2.79-2.56,2.56-.59-.25,.35-2.41,0-5.13-.34-2.65-1.95-6.26-4.49-7.05-2.62-.82-4.05,2.05-8.97,3.85-5.53,2.02-12.57,1.63-13.46-.64-.78-1.98,2.79-6.24,6.41-6.41,2.79-.13,3.83,2.26,6.41,3.2,7.87,2.87,21.41-10.9,19.87-13.46-1.62-2.7-20.2,6.82-21.79,3.85-.83-1.55,3.26-5.81,3.85-6.41,3.01-3.09,5.42-3.57,5.77-5.77,.2-1.25-.44-2-1.92-4.49-3.42-5.73-5.52-9.25-4.49-11.54,1.09-2.43,7.82,.38,5.13-3.2-1.92-2.56-5.14,0-10.25-2.56-.25-.13-5.54-2.82-5.13-5.13,.44-2.47,10.9-6.41,5.77-7.69-1.12-.28-5.6,3.83-11.54,0-2.55-1.64-2.21-2.45-7.69-8.33-4.6-4.94-6.9-7.41-8.33-7.69-7.37-1.47-12.31,13.58-21.15,12.82-5.6-.48-8.96-6.99-10.9-5.77-2.1,1.32,1.85,9.01-.64,10.9-2.63,1.98-8.33-3.2-9.61-1.28-5.29,7.93,9.74,7.43,8.33,15.38-.59,3.36-3.68,5.96-6.41,7.05-7.58,3.04-8.97-1.28-11.54-.64-22.08,5.52,7.95,22.21,4.49,25.64-1.78,1.76-7.22-2.8-11.54,0-2.04,1.32-3.4,3.99-3.2,6.41,.27,3.27,3.28,4.54,10.25,10.25,9.29,7.62,10.1,10.42,10.25,12.18,.16,1.91-.2,5.52-2.56,7.05-3.69,2.38-8.58-2.69-21.79-5.13-3.48-.64-6.33-.88-8.97,.64-1.89,1.09-4.56,3.58-4.49,6.41,.14,5.4,10.27,12.04,19.87,12.82,2.98,.24,6.63-.02,9.61,2.56,.58,.5,3,2.73,2.56,5.13-.51,2.83-4.66,4.14-5.77,4.49-7.5,2.37-11.44-2.64-22.43-1.92-5.08,.33-6.78,1.57-7.69,2.56-2.22,2.44-2.72,6.71-1.28,9.61,3.13,6.34,16.27,7.76,26.28,5.13,9.8-2.58,12.61-8,21.15-7.69,5.7,.21,11.25,1.7,11.54,3.85,.22,1.68-2.89,2.86-2.56,5.13,.26,1.85,2.59,2.92,3.2,3.2,3.52,1.62,7.21,.45,8.97,0,8.83-2.27,10.91,2.62,23.07,1.92,8.9-.51,7.54-3.11,15.38-3.2Z"/><polygon class="cls-11" points="413.82 416 405.49 416 408.06 255.13 408.06 255.13 413.82 416"/></g><g><polygon class="cls-8" points="2791.99 435.65 2745.32 400.65 2698.89 439.15 2702.16 439.15 2711.49 435.41 2713.36 436.81 2747.89 408.35 2784.29 435.41 2786.15 434.01 2791.75 438.21 2795.02 438.21 2791.99 435.65"/><polyline class="cls-11" points="2707.29 441.95 2706.82 467.61 2702.52 467.61 2702.52 477.38 2702.52 478.42 2778.22 479.28 2792.15 479.28 2792.15 467.96 2790.35 468.08 2789.89 440.08"/><polygon class="cls-8" points="2743.69 419.08 2743.69 432.71 2752.76 432.71 2752.76 415.58 2741.63 415.58 2741.82 417.21 2743.69 417.21 2743.69 419.08"/><polygon class="cls-8" points="2714.29 448.01 2714.29 449.69 2716.16 449.88 2716.16 451.83 2720.36 451.83 2720.36 478.62 2778.22 479.28 2778.22 451.98 2780.09 451.75 2780.09 449.69 2781.02 448.01 2714.29 448.01"/><polygon class="cls-8" points="2760.9 412.33 2789.89 389.21 2850.09 430.75 2840.97 430.75 2792.15 395.82 2766.14 416.26 2760.9 412.33"/><polyline class="cls-11" points="2850.09 430.75 2884.86 430.75 2885.08 433.55 2875.67 439.15 2875.28 480.21 2865.35 480.21 2865.95 441.95"/><path class="cls-11" d="M2865.95,441.95c-1.77-.76-4.5-1.69-7.93-1.87-.49-.03-1.24-.03-2.33,0-4.67,.14-8.76,1.12-12.13,2.33v36.87h-9.8v-37.33c-5.37-.67-11.65-1.11-18.67-.93-7.04,.17-13.32,.92-18.67,1.87v34.83l-4.27,.13v-37.76h4.94l-5.11-4.43-5.37-4.9h69.86"/><rect class="cls-11" x="2845.89" y="453.61" width="9.94" height="21.09"/><line class="cls-11" x1="2846.82" y1="463.88" x2="2846.82" y2="465.05"/><rect class="cls-8" x="2696.01" y="473.37" width="16.62" height="9.23" rx="3.5" ry="3.5" transform="translate(-26.98 191.93) rotate(-4.04)"/><rect class="cls-8" x="2793.15" y="466.68" width="12.6" height="12.6" rx="6.3" ry="6.3"/><line class="cls-8" x1="2778.22" y1="479.28" x2="2675.32" y2="524.08"/><line class="cls-8" x1="2720.36" y1="478.62" x2="2657.82" y2="492.34"/></g><g><polygon class="cls-8" points="3227.15 448.76 3180.48 413.76 3134.05 452.26 3137.32 452.26 3146.65 448.53 3148.51 449.93 3183.05 421.46 3219.45 448.53 3221.31 447.13 3226.91 451.33 3230.18 451.33 3227.15 448.76"/><polyline class="cls-11" points="3142.45 455.06 3141.98 480.73 3137.68 480.73 3137.68 490.49 3137.68 491.54 3213.38 492.39 3227.31 492.39 3227.31 481.08 3225.51 481.19 3225.05 453.19"/><polygon class="cls-8" points="3178.85 432.19 3178.85 445.82 3187.92 445.82 3187.92 428.7 3176.79 428.7 3176.98 430.33 3178.85 430.33 3178.85 432.19"/><polygon class="cls-8" points="3149.45 461.13 3149.45 462.81 3151.31 462.99 3151.31 464.95 3155.52 464.95 3155.52 491.74 3213.38 492.39 3213.38 465.09 3215.25 464.86 3215.25 462.81 3216.18 461.13 3149.45 461.13"/><polygon class="cls-8" points="3196.06 425.44 3225.05 402.33 3285.24 443.86 3276.13 443.86 3227.31 408.94 3201.29 429.37 3196.06 425.44"/><polyline class="cls-11" points="3285.24 443.86 3320.02 443.86 3320.24 446.66 3310.83 452.26 3310.44 493.33 3300.51 493.33 3301.11 455.06"/><path class="cls-11" d="M3301.11,455.06c-1.77-.76-4.5-1.69-7.93-1.87-.49-.03-1.24-.03-2.33,0-4.67,.14-8.76,1.12-12.13,2.33v36.87h-9.8v-37.33c-5.37-.67-11.65-1.11-18.67-.93-7.04,.17-13.32,.92-18.67,1.87v34.83l-4.27,.13v-37.76h4.94l-5.11-4.43-5.37-4.9h69.86"/><rect class="cls-11" x="3281.04" y="466.73" width="9.94" height="21.09"/><line class="cls-11" x1="3281.98" y1="476.99" x2="3281.98" y2="478.16"/><rect class="cls-8" x="3131.25" y="485.86" width="12.6" height="7" rx="3.5" ry="3.5" transform="translate(-26.7 222.52) rotate(-4.04)"/><rect class="cls-8" x="3228.31" y="479.79" width="12.6" height="12.6" rx="6.3" ry="6.3"/><line class="cls-8" x1="3213.38" y1="492.39" x2="3110.48" y2="537.19"/><line class="cls-8" x1="3155.52" y1="491.74" x2="3111.24" y2="505.46"/></g><path class="cls-11" d="M1471.8,227.17c4.95-4.05,13.62-1.77,15.94,4.19,3.94-6.05,14.11-6.44,18.5-.71"/><path class="cls-11" d="M1487.21,200.22c7.95-7.46,22.25-6.44,29.06,2.08,5.4-10.15,22.03-11.39,28.87-2.15"/><g><rect class="cls-11" x="3434.04" y="457.66" width="18.05" height="120.43"/><rect class="cls-11" x="3472.27" y="457.66" width="18.05" height="120.43"/><rect class="cls-8" x="3422.09" y="490.78" width="21.24" height="141.69"/><rect class="cls-15" x="3485.67" y="490.78" width="21.24" height="141.69"/><rect class="cls-8" x="3395.54" y="539.64" width="27.88" height="190.18"/><rect class="cls-8" x="3501.13" y="539.36" width="27.88" height="190.18"/><polygon class="cls-8" points="3480.5 442.9 3443.33 442.9 3376.95 557.07 3534.93 557.07 3480.5 442.9"/><polygon class="cls-11" points="3376.95 557.07 3395.54 477.69 3515.07 477.69 3534.93 557.07 3376.95 557.07"/><polyline class="cls-11" points="3443.33 443.56 3443.33 419 3395.54 477.69 3411.47 496 3415.45 453.52 3427.4 469.45 3428.73 438.91 3436.69 453.52 3443.33 419 3479.17 419 3480.5 442.9"/><polygon class="cls-11" points="3515.07 477.69 3480.5 421.66 3484.48 450.86 3492.45 442.9 3495.11 472.1 3505.73 465.47 3508.38 497.33 3515.07 477.69"/><line class="cls-11" x1="3428.06" y1="436.91" x2="3490.46" y2="436.91"/><line class="cls-11" x1="3422.75" y1="443.49" x2="3494.92" y2="443.49"/><line class="cls-11" x1="3416.7" y1="451.09" x2="3498.42" y2="451.41"/><line class="cls-11" x1="3412.13" y1="457.66" x2="3502.41" y2="457.66"/><line class="cls-11" x1="3404.17" y1="466.18" x2="3507.85" y2="466.18"/><line class="cls-11" x1="3395.54" y1="477.69" x2="3394.21" y2="526.53"/><line class="cls-11" x1="3515.07" y1="477.69" x2="3520.36" y2="526.51"/><line class="cls-11" x1="3433.37" y1="430.95" x2="3486.48" y2="430.95"/><line class="cls-11" x1="3441.34" y1="422.17" x2="3481.17" y2="422.17"/><line class="cls-11" x1="3437.36" y1="426.53" x2="3483.82" y2="426.53"/><polygon class="cls-8" points="3562.81 805.33 3347.74 805.33 3375.62 558.4 3533.61 558.4 3562.81 805.33"/><rect class="cls-14" x="3459.26" y="573" width="3.98" height="31.86"/><rect class="cls-14" x="3458.6" y="619.47" width="3.98" height="41.16"/><rect class="cls-14" x="3457.27" y="675.22" width="6.64" height="53.1"/><rect class="cls-14" x="3456.61" y="742.93" width="7.97" height="63.72"/><polygon class="cls-6" points="3462.38 553.7 3458.79 553.7 3459.69 528.58 3461.49 528.58 3462.38 553.7"/><polygon class="cls-6" points="3462.1 518.44 3459.26 518.44 3459.97 501.97 3461.39 501.97 3462.1 518.44"/><polygon class="cls-4" points="3462.01 493.25 3459.17 493.25 3459.88 479.41 3461.3 479.41 3462.01 493.25"/><polygon class="cls-4" points="3461.71 473.22 3459.47 473.22 3460.03 462.3 3461.15 462.3 3461.71 473.22"/><polygon class="cls-4" points="3461.23 457.85 3459.9 457.85 3460.23 451.38 3460.9 451.38 3461.23 457.85"/><polygon class="cls-2" points="3460.85 449.3 3459.92 449.3 3460.16 444.89 3460.62 444.89 3460.85 449.3"/></g><g><polygon class="cls-8" points="3003.92 448.84 2943.86 403.79 2884.1 453.34 2888.3 453.34 2900.31 448.54 2902.72 450.34 2947.16 413.7 2994.01 448.54 2996.41 446.74 3003.62 452.14 3007.82 452.14 3003.92 448.84"/><polyline class="cls-11" points="2894.91 456.95 2894.31 489.98 2888.77 489.98 2888.77 502.55 2888.77 503.9 2986.2 505 3004.13 505 3004.13 490.43 3001.82 490.58 3001.22 454.54"/><polygon class="cls-8" points="2941.76 427.52 2941.76 445.06 2953.43 445.06 2953.43 423.02 2939.11 423.02 2939.35 425.11 2941.76 425.11 2941.76 427.52"/><polygon class="cls-8" points="2903.92 464.76 2903.92 466.92 2906.32 467.16 2906.32 469.67 2911.73 469.67 2911.73 504.16 2986.2 505 2986.2 469.86 2988.6 469.56 2988.6 466.92 2989.81 464.76 2903.92 464.76"/><polygon class="cls-8" points="2963.91 418.83 3001.22 389.08 3078.7 442.53 3066.96 442.53 3004.13 397.58 2970.65 423.88 2963.91 418.83"/><polyline class="cls-11" points="3078.7 442.53 3123.46 442.53 3123.74 446.14 3111.63 453.34 3111.13 506.2 3098.35 506.2 3099.12 456.95"/><path class="cls-11" d="M3099.12,456.95c-2.27-.98-5.79-2.17-10.21-2.4-.63-.03-1.6-.04-3,0-6.01,.18-11.27,1.45-15.62,3v47.45h-12.61v-48.05c-6.91-.87-15-1.42-24.02-1.2-9.07,.22-17.15,1.19-24.02,2.4v44.83l-5.49,.17v-48.6h6.36l-6.58-5.71-6.91-6.31h89.92"/><rect class="cls-11" x="3073.29" y="471.96" width="12.8" height="27.14"/><line class="cls-11" x1="3074.49" y1="485.18" x2="3074.49" y2="486.68"/><rect class="cls-8" x="2880.49" y="496.59" width="16.22" height="9.01" rx="4.5" ry="4.5" transform="translate(-28.15 204.99) rotate(-4.04)"/><rect class="cls-8" x="3005.42" y="488.78" width="16.22" height="16.22" rx="7.71" ry="7.71"/><line class="cls-8" x1="2986.2" y1="505" x2="2853.77" y2="562.66"/><line class="cls-8" x1="2911.73" y1="504.16" x2="2831.24" y2="521.81"/></g><g><line class="cls-5" x1="4047.79" y1="154" x2="4079.26" y2="134.34"/><line class="cls-5" x1="4066.91" y1="160.33" x2="4087.19" y2="148.72"/><line class="cls-5" x1="4097.95" y1="214.45" x2="4118.28" y2="201.33"/><line class="cls-5" x1="4094.42" y1="234.4" x2="4126.61" y2="214.45"/><g><path class="cls-8" d="M4089.6,193.4l57.52-34.45c4.44-2.91,5.68-8.92,2.77-13.36h0c-2.91-4.44-8.92-5.68-13.36-2.77l-58.19,36.91c-4.44,2.91-19.79,15.66-16.88,20.1h0c2.91,4.44,23.7-3.52,28.14-6.43Z"/><path class="cls-8" d="M4112.8,159.92h0c-2.19,2.19-12.97,9.94-15.16,7.75l-18.38-33.33c-2.19-2.19-2.19-5.77,0-7.96h0c2.19-2.19,5.77-2.19,7.96,0l30.52,30.84c2.19,2.19-2.75,.51-4.94,2.7Z"/><path class="cls-8" d="M4119.53,171.32h0c-2.95,.94-14.7,7.21-13.66,10.47l22.42,35.3c1.05,3.26,4.31,5.16,7.26,4.21h0c2.95-.94,4.5-4.39,3.46-7.65l-14.87-45.64c-1.05-3.26-1.66,2.37-4.61,3.31Z"/><path class="cls-8" d="M4076.33,216.71h0c-3.76,0-6.83-3.07-6.83-6.83v-10.05c0-3.76,3.07-2.41,6.83-2.41h0c3.76,0,10.85-6.17,10.85-2.41l-4.02,14.87c-1.61,4.42-3.07,6.83-6.83,6.83Z"/><path class="cls-8" d="M4054.52,179.11h0c-1.67,3.36-.18,7.54,3.32,9.27l7.64,5.82c3.49,1.73,5.31-2.83,6.98-6.2h0c1.67-3.36,10.18-4.13,6.69-5.86l-14.98-5.9c-.17-.07-.35-.12-.52-.17-4.7-1.13-7.48-.27-9.12,3.03Z"/><path class="cls-8" d="M4089.78,193.16l57.52-34.45c4.44-2.91,5.68-8.92,2.77-13.36h0c-2.91-4.44-8.92-5.68-13.36-2.77l-58.19,36.91c-4.44,2.91-19.79,15.66-16.88,20.1h0c2.91,4.44,23.7-3.52,28.14-6.43Z"/></g><line class="cls-8" x1="4132.73" y1="148.32" x2="4122.81" y2="154.91"/><line class="cls-8" x1="4091.33" y1="175.6" x2="4118.28" y2="158.37"/><line class="cls-8" x1="4091.33" y1="134.34" x2="4108.85" y2="151.62"/></g><path class="cls-11" d="M324.29,428.14c12.82-.15,16.01,5.03,27.48,3.44,2.98-.42,10.02-1.49,16.32-6.87,1.47-1.26,11.42-9.76,9.45-19.75-1.35-6.81-7.83-12.25-12.88-14.6-2.32-1.08-5.28-1.94-5.15-2.58,.13-.68,3.55,.02,7.73-.86,1.77-.37,8.11-1.71,10.31-6.01,2.37-4.63-.46-11.91-5.15-15.46-8.07-6.1-20.95-.64-21.47-2.58-.18-.68,1.27-1.82,9.45-6.01,11.67-5.98,15.33-7.05,17.18-11.16,1-2.23,1.69-5.86,0-7.73-3.09-3.41-14.27-1.12-19.75,5.15-1.34,1.54-2.72,3.74-3.44,3.44-.79-.34,.46-3.23,0-6.87-.45-3.55-2.61-8.38-6.01-9.45-3.51-1.1-5.43,2.75-12.02,5.15-7.4,2.7-16.84,2.18-18.03-.86-1.04-2.65,3.74-8.36,8.59-8.59,3.74-.18,5.13,3.03,8.59,4.29,10.54,3.84,28.68-14.61,26.62-18.03-2.18-3.61-27.06,9.14-29.2,5.15-1.11-2.07,4.37-7.79,5.15-8.59,4.04-4.14,7.26-4.78,7.73-7.73,.27-1.68-.59-2.68-2.58-6.01-4.58-7.68-7.39-12.39-6.01-15.46,1.46-3.25,10.48,.52,6.87-4.29-2.58-3.44-6.88,0-13.74-3.44-.34-.17-7.42-3.78-6.87-6.87,.59-3.31,14.6-8.59,7.73-10.31-1.51-.38-7.51,5.13-15.46,0-3.41-2.2-2.96-3.28-10.31-11.16-6.16-6.62-9.25-9.92-11.16-10.31-9.88-1.96-16.5,18.2-28.34,17.18-7.5-.65-12-9.36-14.6-7.73-2.82,1.77,2.48,12.07-.86,14.6-3.52,2.66-11.16-4.29-12.88-1.72-7.08,10.62,13.05,9.96,11.16,20.61-.8,4.51-4.93,7.98-8.59,9.45-10.16,4.07-12.02-1.72-15.46-.86-29.58,7.4,10.65,29.76,6.01,34.35-2.38,2.36-9.67-3.75-15.46,0-2.73,1.77-4.56,5.35-4.29,8.59,.36,4.39,4.39,6.08,13.74,13.74,12.45,10.21,13.54,13.96,13.74,16.32,.22,2.56-.26,7.4-3.44,9.45-4.94,3.19-11.5-3.6-29.2-6.87-4.67-.86-8.48-1.18-12.02,.86-2.53,1.45-6.11,4.79-6.01,8.59,.19,7.24,13.76,16.13,26.62,17.18,3.99,.32,8.89-.03,12.88,3.44,.78,.67,4.01,3.66,3.44,6.87-.68,3.79-6.25,5.54-7.73,6.01-10.05,3.17-15.32-3.53-30.06-2.58-6.81,.44-9.09,2.1-10.31,3.44-2.97,3.26-3.64,8.99-1.72,12.88,4.19,8.49,21.79,10.4,35.21,6.87,13.13-3.46,16.89-10.72,28.34-10.31,7.64,.28,15.08,2.27,15.46,5.15,.3,2.26-3.87,3.83-3.44,6.87,.35,2.48,3.47,3.91,4.29,4.29,4.71,2.17,9.66,.61,12.02,0,11.83-3.05,14.62,3.51,30.92,2.58,11.92-.68,10.1-4.17,20.61-4.29Z"/><polygon class="cls-11" points="291.23 477.52 280.06 477.52 283.5 261.98 283.5 261.98 291.23 477.52"/><g><path class="cls-8" d="M224.73,503.52c12.82-.15,16.01,5.03,27.48,3.44,2.98-.42,10.02-1.49,16.32-6.87,1.47-1.26,11.42-9.76,9.45-19.75-1.35-6.81-7.83-12.25-12.88-14.6-2.32-1.08-5.28-1.94-5.15-2.58,.13-.68,3.55,.02,7.73-.86,1.77-.37,8.11-1.71,10.31-6.01,2.37-4.63-.46-11.91-5.15-15.46-8.07-6.1-20.95-.64-21.47-2.58-.18-.68,1.27-1.82,9.45-6.01,11.67-5.98,15.33-7.05,17.18-11.16,1-2.23,1.69-5.86,0-7.73-3.09-3.41-14.27-1.12-19.75,5.15-1.34,1.54-2.72,3.74-3.44,3.44-.79-.34,.46-3.23,0-6.87-.45-3.55-2.61-8.38-6.01-9.45-3.51-1.1-5.43,2.75-12.02,5.15-7.4,2.7-16.84,2.18-18.03-.86-1.04-2.65,3.74-8.36,8.59-8.59,3.74-.18,5.13,3.03,8.59,4.29,10.54,3.84,28.68-14.61,26.62-18.03-2.18-3.61-27.06,9.14-29.2,5.15-1.11-2.07,4.37-7.79,5.15-8.59,4.04-4.14,7.26-4.78,7.73-7.73,.27-1.68-.59-2.68-2.58-6.01-4.58-7.68-7.39-12.39-6.01-15.46,1.46-3.25,10.48,.52,6.87-4.29-2.58-3.44-6.88,0-13.74-3.44-.34-.17-7.42-3.78-6.87-6.87,.59-3.31,14.6-8.59,7.73-10.31-1.51-.38-7.51,5.13-15.46,0-3.41-2.2-2.96-3.28-10.31-11.16-6.16-6.62-9.25-9.92-11.16-10.31-9.88-1.96-16.5,18.2-28.34,17.18-7.5-.65-12-9.36-14.6-7.73-2.82,1.77,2.48,12.07-.86,14.6-3.52,2.66-11.16-4.29-12.88-1.72-7.08,10.62,13.05,9.96,11.16,20.61-.8,4.51-4.93,7.98-8.59,9.45-10.16,4.07-12.02-1.72-15.46-.86-29.58,7.4,10.65,29.76,6.01,34.35-2.38,2.36-9.67-3.75-15.46,0-2.73,1.77-4.56,5.35-4.29,8.59,.36,4.39,4.39,6.08,13.74,13.74,12.45,10.21,13.54,13.96,13.74,16.32,.22,2.56-.26,7.4-3.44,9.45-4.94,3.19-11.5-3.6-29.2-6.87-4.67-.86-8.48-1.18-12.02,.86-2.53,1.45-6.11,4.79-6.01,8.59,.19,7.24,13.76,16.13,26.62,17.18,3.99,.32,8.89-.03,12.88,3.44,.78,.67,4.01,3.66,3.44,6.87-.68,3.79-6.25,5.54-7.73,6.01-10.05,3.17-15.32-3.53-30.06-2.58-6.81,.44-9.09,2.1-10.31,3.44-2.97,3.26-3.64,8.99-1.72,12.88,4.19,8.49,21.79,10.4,35.21,6.87,13.13-3.46,16.89-10.72,28.34-10.31,7.64,.28,15.08,2.27,15.46,5.15,.3,2.26-3.87,3.83-3.44,6.87,.35,2.48,3.47,3.91,4.29,4.29,4.71,2.17,9.66,.61,12.02,0,11.83-3.05,14.62,3.51,30.92,2.58,11.92-.68,10.1-4.17,20.61-4.29Z"/><polygon class="cls-11" points="191.67 552.9 180.51 552.9 183.94 337.35 183.94 337.35 191.67 552.9"/></g><g><path class="cls-8" d="M430.05,528.19c14.63-.17,18.28,5.75,31.37,3.92,3.4-.47,11.44-1.7,18.63-7.84,1.68-1.43,13.04-11.14,10.78-22.55-1.54-7.78-8.94-13.99-14.71-16.67-2.65-1.23-6.02-2.21-5.88-2.94,.15-.78,4.05,.02,8.82-.98,2.02-.43,9.25-1.95,11.76-6.86,2.7-5.29-.53-13.6-5.88-17.65-9.21-6.97-23.91-.74-24.51-2.94-.21-.77,1.45-2.08,10.78-6.86,13.32-6.83,17.51-8.05,19.61-12.74,1.14-2.54,1.93-6.69,0-8.82-3.52-3.9-16.29-1.28-22.55,5.88-1.53,1.75-3.11,4.27-3.92,3.92-.9-.39,.53-3.69,0-7.84-.52-4.05-2.98-9.57-6.86-10.78-4.01-1.26-6.2,3.13-13.73,5.88-8.45,3.09-19.22,2.49-20.59-.98-1.19-3.03,4.27-9.54,9.8-9.8,4.27-.2,5.85,3.46,9.8,4.9,12.03,4.39,32.75-16.68,30.39-20.59-2.48-4.12-30.89,10.44-33.33,5.88-1.27-2.36,4.99-8.89,5.88-9.8,4.61-4.72,8.29-5.46,8.82-8.82,.3-1.92-.67-3.06-2.94-6.86-5.22-8.76-8.44-14.15-6.86-17.65,1.67-3.71,11.96,.59,7.84-4.9-2.94-3.92-7.86,0-15.69-3.92-.39-.19-8.47-4.32-7.84-7.84,.68-3.77,16.67-9.8,8.82-11.76-1.72-.43-8.57,5.86-17.65,0-3.9-2.51-3.38-3.74-11.76-12.74-7.04-7.55-10.56-11.33-12.74-11.76-11.28-2.24-18.83,20.78-32.35,19.61-8.57-.74-13.7-10.69-16.67-8.82-3.22,2.03,2.84,13.78-.98,16.67-4.02,3.04-12.74-4.9-14.71-1.96-8.08,12.13,14.9,11.37,12.74,23.53-.91,5.14-5.63,9.11-9.8,10.78-11.6,4.65-13.73-1.96-17.65-.98-33.77,8.44,12.16,33.97,6.86,39.22-2.72,2.69-11.04-4.28-17.65,0-3.12,2.02-5.2,6.11-4.9,9.8,.41,5.01,5.01,6.94,15.69,15.69,14.22,11.65,15.46,15.93,15.69,18.63,.25,2.92-.3,8.45-3.92,10.78-5.64,3.64-13.13-4.11-33.33-7.84-5.33-.99-9.68-1.35-13.73,.98-2.89,1.66-6.97,5.47-6.86,9.8,.21,8.27,15.7,18.42,30.39,19.61,4.56,.37,10.15-.03,14.71,3.92,.89,.77,4.58,4.18,3.92,7.84-.78,4.32-7.13,6.33-8.82,6.86-11.48,3.62-17.49-4.03-34.31-2.94-7.78,.51-10.37,2.39-11.76,3.92-3.4,3.73-4.15,10.27-1.96,14.71,4.79,9.69,24.88,11.88,40.2,7.84,14.99-3.95,19.29-12.24,32.35-11.76,8.72,.32,17.21,2.59,17.65,5.88,.34,2.58-4.41,4.37-3.92,7.84,.4,2.83,3.96,4.47,4.9,4.9,5.38,2.48,11.03,.69,13.73,0,13.5-3.48,16.69,4,35.29,2.94,13.61-.78,11.53-4.76,23.53-4.9Z"/><polygon class="cls-11" points="392.3 584.56 379.56 584.56 383.48 338.49 383.48 338.49 392.3 584.56"/></g><circle class="cls-23" cx="502.5" cy="401.5" r="49.5"/><line class="cls-11" x1="1114" y1="147.5" x2="1159.57" y2="147.5"/><path class="cls-11" d="M1158.54,147.5c-1.43-7.95,1.49-14.71,6.21-16.57,.92-.36,3.04-.99,6.21,0"/><path class="cls-11" d="M1199.96,124.71c-1.44-1.49-5.77-5.56-12.43-6.21-2.06-.2-6.3-.62-10.36,2.07-5.19,3.45-6.08,9.33-6.21,10.36"/><path class="cls-11" d="M1210.99,136.11c1.43-5.25-1.49-9.73-6.21-10.96-.92-.24-3.04-.65-6.21,0"/><path class="cls-11" d="M1219.99,147.48c1.14-5.44-1.18-10.07-4.94-11.35-.73-.25-2.42-.68-4.94,0"/><line class="cls-11" x1="1219.64" y1="146.21" x2="1230" y2="146.21"/><line class="cls-11" x1="1390" y1="217.01" x2="1318.8" y2="217.01"/><path class="cls-11" d="M1320.42,217.01c2.24-9.52-2.33-17.63-9.71-19.86-1.43-.43-4.75-1.18-9.71,0"/><path class="cls-11" d="M1254.7,189.7c2.25-1.79,9.02-6.66,19.42-7.45,3.21-.24,9.84-.75,16.18,2.48,8.1,4.13,9.49,11.19,9.71,12.41"/><path class="cls-11" d="M1238.42,203.35c-2.03-6.67,2.11-12.35,8.79-13.91,1.3-.3,4.3-.83,8.79,0"/><path class="cls-11" d="M1224.38,216.98c-1.69-6.52,1.75-12.07,7.31-13.6,1.08-.3,3.58-.81,7.31,0"/><line class="cls-11" x1="1223.96" y1="216.46" x2="1207.77" y2="216.46"/><g><line class="cls-11" x1="3380" y1="181.63" x2="3484.32" y2="181.63"/><path class="cls-11" d="M3481.95,181.63c-3.28-14.76,3.41-27.32,14.23-30.77,2.1-.67,6.97-1.83,14.23,0"/><path class="cls-11" d="M3576.78,139.33c-3.3-2.77-13.22-10.32-28.45-11.54-4.71-.38-14.42-1.16-23.71,3.85-11.87,6.4-13.91,17.33-14.23,19.23"/><path class="cls-11" d="M3602.1,160.48c2.97-10.33-3.09-19.13-12.88-21.55-1.9-.47-6.31-1.28-12.88,0"/><path class="cls-11" d="M3622.66,181.59c2.47-10.1-2.57-18.71-10.71-21.07-1.58-.46-5.24-1.25-10.71,0"/><line class="cls-11" x1="3623.29" y1="180.79" x2="3647" y2="180.79"/></g><path class="cls-8" d="M3878.04,331.05c5.31-6.51,16.42-8.09,18.57-16.22,.83-3.15,.04-6.79,1.85-9.51,2.73-4.11,9.45-3.38,12.68-7.11,1.18-1.36,1.74-3.17,2.95-4.5,5.19-5.69,18.95-3.5,25.98-5.98,1.75-.62,3.46-1.37,5.28-1.74,1.93-.39,3.91-.33,5.87-.26,3.06,.1,6.15,.2,9.08,1.1,1.49,.46,2.91,1.11,4.42,1.51,2.47,.65,5.06,.59,7.6,.87s5.18,.97,6.97,2.79c7.13,7.25-9.96,13.72-14.48,16.15,3.25,6.42-.15,15.31-6.86,17.92-1.84,.72-3.97,1.09-5.24,2.59-2.37,2.79-.2,6.97-.15,10.63,.07,5.27-4.36,9.32-7.87,13.25-3.51,3.94-6.38,10.02-3.17,14.2l-51.33,5.75c-7.63,.85-19.67-.86-17.79-11.31,.53-2.93,3.71-3.53,4.34-5.56,.58-1.86-1.24-5.96-1.55-7.91-.91-5.77-1.05-11.88,2.85-16.66Z"/><path class="cls-8" d="M3957,498.42c-5.67-19.15-11.04-42.24-14.31-68.67-3.27-26.43-3.69-50.14-2.86-70.1h-65.81c2.23,18.73,3.31,44.46-1.43,74.39-4.2,26.49-11.68,48.26-18.6,64.38h103Z"/><circle class="cls-24" cx="2709" cy="479" r="5"/><circle class="cls-24" cx="2893" cy="504" r="5"/><g><g><path class="cls-7" d="M1689.14,624.58c-3-.16-6.01-.11-9,.21-2.1,.22-4.18,.57-6.26,.92l-12.93,2.18c-.74,.12-1.54,.29-2,.87-.66,.84,.22,1.12,.35,1.71,.17,.73,.23,1.54,.22,2.45-.02,2.02,.16,4.04,.43,6.05,.51,3.83,1.33,7.6,1.71,11.45,.23,2.26,.48,4.55,1.37,6.63,1.33,3.12,3.97,5.49,6.7,7.5,14.23,10.45,32.44,13.57,49.99,15.48,20.18,2.19,40.48,3.17,60.78,2.95,18.77-.21,37.83-1.52,55.48-7.9,7.63-2.76,15.12-6.6,20.36-12.8,9.79-11.58,9.58-28.47,7.48-43.49-8.8-.24-17.62,.09-26.38,1,2.57,11.05-6.75,21.68-16.42,25.34-7.56,2.85-16.4,3.05-24.38,3.62-9.08,.65-18.17,1.04-27.27,1.17-16.92,.23-33.76-.34-50.67-.35-11,0-22.15-.6-28.29-10.84-1.78-2.97-5.37-11.59-1.24-14.08"/><ellipse class="cls-1" cx="1759.97" cy="642.24" rx="61.65" ry="3.58"/><path class="cls-7" d="M1688.88,624.39c-.44,7.2,5.89,14.11,13.11,14.3,3.05,.08,6.01-.87,8.99-1.49,6-1.24,12.19-1.15,18.32-1.05,30.06,.48,60.12,.96,90.18,1.43,2.68,.04,5.51,.05,7.83-1.29,1.77-1.02,3.05-2.73,4.13-4.47,2.3-3.7,3.97-7.79,4.92-12.05"/></g><path class="cls-11" d="M1588.17,666.72c6.66,.9,13-3.85,19.7-3.46,4.53,.26,8.56,2.83,12.83,4.38,4.6,1.68,9.63,2.2,14.48,1.49,9.64-1.41,18.65-7.53,28.31-6.3"/><path class="cls-11" d="M1604.89,680.13c10.05-3.71,20.82-7.48,31.26-5.05,4.14,.97,8.04,2.88,12.23,3.58,8.05,1.33,16.04-1.96,23.99-3.83s17.54-1.8,22.81,4.43"/><path class="cls-9" d="M1731.52,626.34c-.15,.25-.31,.52-.3,.81,.01,.3,.2,.55,.36,.8,.94,1.4,1.39,3.12,1.27,4.8,.66-.28,.86-1.11,1-1.82,.54-2.8,1.43-5.53,2.64-8.11,.39-.83,.81-1.65,1.04-2.53,.2-.78,.23-1.59,.27-2.39l.43-9.6-2.06,2.31c-.25,.27-.5,.56-.64,.9-.21,.48-.18,1.02-.19,1.55-.04,1.4-.45,2.8-1.16,4.01-.95,1.62-.73,2.62-.96,4.38s-.81,3.41-1.69,4.91Z"/><path class="cls-10" d="M1749.84,588.44c-.46,1.57-1.03,7.81-.99,9.44,.03,1.42-.07,4.65,.99,5.59,1.28,1.14-.55-.67,1.11-1.11,.16-.53,4.33-1.24,4.48-1.77,.03-.11,.06-.22,.03-.33-.06-.2-.3-.27-.49-.37-.77-.39-.78-1.7-.02-2.1,.2-.1,.42-.15,.59-.29,.16-.13,.25-.32,.34-.51,.36-.77,.72-1.68,.32-2.43-.15-.29-.4-.52-.57-.79-.36-.56-.39-1.26-.53-1.9-.23-1.07-1.49-3.73-2.83-3.41s-2.11-1.18-2.45-.03Z"/><path class="cls-8" d="M1750.09,632.24c2.64,4.37,7.05,7.5,9.43,12.02-4.55,.63-9.15,.9-13.75,.83-.93-.01-1.88-.04-2.78,.2-1.53,.41-3.15-.64-4.49,.21-2.36,1.5-5.23,.37-8,0-1.47-.2-2.77,3.03-3.07,1.58-.27-1.29,.66-2.49,1.34-3.62,1.76-2.92,2.23-6.72,4.85-8.92"/><path class="cls-10" d="M1740.58,638.77l.51-3.89c.02-.28-2.96-1.28-3.26-1.4-1.64-.66-3.42-.57-4.73-1.92-.02,1.1-.39,2.37,.47,3.15,.68,.61,1.92,.59,2.72,1.01,1.55,.83,2.92,1.94,4.28,3.05Z"/><path class="cls-10" d="M1747.03,632.36c.65,1.24,.18,3.13,.02,4.53,.75-1.29,2.63-2.8,3.97-3.47-.65-.69-1.11-2.82-1.18-3.77-.63,.98-1.67,2.45-2.78,2.78"/><path class="cls-10" d="M1740.93,643.4c1.74,.22,3.47,.54,5.17,.96-.18-4.26,1.06-13.3,.95-12.49-.22,1.27-6.63,2.09-6.65,1.94,.1,.71,.78,9.62,.53,9.59Z"/><rect class="cls-14" x="1735.93" y="581.19" width="2.53" height="124.64" transform="translate(2048.5 2469.72) rotate(-120)"/><path class="cls-14" d="M1733.76,601.12c-1.62,2.02-2.29,4.62-3.08,7.09-.96,3.02-2.17,5.96-3.6,8.78-.91,1.8-1.93,3.6-2.33,5.58-.68,3.41,.56,6.9,2.18,9.98,1.62,3.07,3.64,5.97,4.72,9.27,.53,1.62,.89,3.43,2.18,4.54,1.11,.96,2.82,1.16,4.12,.49s2.13-2.18,2-3.64c-.67,.81-2.12,0-2.23-1.04s.59-1.97,1.24-2.79c-1.82,.56-3.83-.49-4.97-2.02s-1.6-3.44-2.04-5.29l-1.81-7.66c-.1-.43-.2-.88-.14-1.32,.24-1.56,1.67-3.53,2.64-4.74,2.18-2.7,3.79-5.87,4.69-9.22,1.12,3.83,.34,7.96-.78,11.79-.88,3.01-1.97,5.97-2.51,9.07-.24,1.39-.75,2.56,.6,3.3,1.24,.69,3,.7,4.37,.65,3.21-.12,6.4-1.01,9.21-2.56,.5-.28,1.01-.59,1.33-1.06,.54-.8,.42-1.85,.33-2.81-.55-5.69,.41-11.53,2.75-16.75,.29-.64,.68-1.34,1.36-1.5,1.37-.32,3.11,1.47,4.27,2,1.74,.8,3.75,.13,5.32,1.1,1.76,1.1,3.17,2.18,5.28,2.6,.48,.09,.97,.16,1.45,.22,1.74,.22,3.4,.01,5.15,.05,1.29,.02,2.6,.23,3.72,.85,1.73,.96,2.4,3.36,3.54,4.87,.43,.57,.89,1.16,1.55,1.44,1.13,.48,3.81-.17,4.66-1.02,1.09-1.08,1.42-3.03,.46-4.29-1-1.31-4.19-2.51-5.74-3-1.99-.63-3.97-1.13-5.57-2.55-1.62-1.44-4.87-2.61-7.02-2.82-1.92-.18-4.02,.3-5.8-.69-.92-.51-1.6-1.35-2.41-2.03-1.32-1.11-2.98-1.91-4.39-2.95-1.34-.98-2.92-2.02-4.66-1.5-1.22,.36-2.1,1.43-3.26,1.97-1.68,.8-3.75,.37-5.32-.62-3.91-2.46-6.92-7.48-11.52-1.77Z"/><path class="cls-3" d="M1740.94,593.06c-.21-1.84-.16-3.87,1-5.31,.96-1.18,2.48-1.72,3.95-2.1,2.55-.65,5.59-.84,7.47,1,.47,.63-.31,1.52-1.08,1.59s-1.53-.3-2.31-.35c-1.52,4.66-1.71,9.75-.52,14.51,.19,.78,.4,1.68-.08,2.32-.55,.74-1.72,.67-2.51,.21s-1.37-1.23-2.12-1.77c-.86-.64-1.92-.97-2.74-1.66-1.77-1.46-.82-6.32-1.06-8.43Z"/><path class="cls-16" d="M1746.41,613.92c-.55,1.31-1.8,2.25-3.17,2.57s-2.82,.05-4.07-.57"/><path class="cls-16" d="M1744.3,619.73c.1,3.79-.09,7.59-.56,11.35"/><path class="cls-16" d="M1747,614.6c.68,1.12,1.71,2.02,2.91,2.55"/><g><path d="M1744.79,582.76c-4.14,3.11-6.14,7.73-4.96,8.83s5.85-1.4,9.24-5.31c2.03-2.34,4.89-7.82,4.86-9.61,0-.58-4.45,2.58-9.13,6.09Z"/><polygon class="cls-13" points="1751.8 579.3 1737 594.44 1737.21 594.64 1751.8 579.3 1751.8 579.3"/><polygon class="cls-20" points="1752.1 582.17 1749.81 583.62 1751.32 583.7 1752.1 582.17"/><polygon class="cls-20" points="1749.75 586.18 1746.31 587.68 1748.39 587.5 1749.75 586.18"/><polygon class="cls-20" points="1751.88 583.34 1749.02 584.47 1750.54 584.94 1751.88 583.34"/><polygon class="cls-20" points="1746.92 577.44 1750.15 575.36 1748.45 581.58 1746.92 577.44"/><polygon class="cls-20" points="1746.7 576.98 1748.96 575 1747.8 581.17 1746.7 576.98"/><polygon class="cls-20" points="1741.06 584.11 1743.26 583.68 1742.11 588.31 1741.06 584.11"/></g></g><path class="cls-8" d="M3767.74,311.78c-1.88,20.73-3.77,48.99-1.88,82.91,3.55,63.86,16.96,81.03,24.5,103.64,2.3,6.91-144.53,.73-141.33-3.77,.5-.7,.58-1.47,.75-1.65,12-12.75,22.11-63.23,25.63-90.69,4.97-38.72,1.97-71.43-1.88-94.22h94.78l-.56,3.77Z"/><g><path class="cls-11" d="M2496.08,353.49v142.73c0,1.06-.87,1.93-1.93,1.93h-8.25c-1.06,0-1.93-.87-1.93-1.93v-142.58"/><line class="cls-11" x1="2496.08" y1="353.03" x2="2496.08" y2="353.49"/><path class="cls-11" d="M2483.97,348.57v-8.21c0-1.06,.87-1.93,1.93-1.93h8.25c1.06,0,1.93,.87,1.93,1.93v8.4"/><line class="cls-11" x1="2495.52" y1="348.57" x2="2496.08" y2="348.57"/><line class="cls-11" x1="2478.39" y1="348.57" x2="2484.19" y2="348.57"/><line class="cls-11" x1="2460.48" y1="348.57" x2="2471.69" y2="348.57"/><polyline class="cls-11" points="2484.32 353.64 2445.38 353.64 2445.38 348.57 2453.68 348.57"/><line class="cls-11" x1="2484.46" y1="353.64" x2="2484.32" y2="353.64"/><line class="cls-11" x1="2495.9" y1="353.64" x2="2495.52" y2="353.64"/><polyline class="cls-11" points="2528.61 348.57 2536.65 348.57 2536.65 353.64 2495.9 353.64"/><line class="cls-11" x1="2510.56" y1="348.57" x2="2521.73" y2="348.57"/><line class="cls-11" x1="2496.08" y1="348.57" x2="2503.82" y2="348.57"/><path class="cls-11" d="M2374.39,322.82c7.22,7.83,27.42,36.7,52.55,46.71,5.39,2.15,15.01,1.62,20.56,0,11.42-3.34,22.76-11.8,27.42-16.68"/><path class="cls-11" d="M2436.05,321.86c6.6,7.93,25.07,37.15,48.04,47.28,4.93,2.17,13.72,1.64,18.8,0,9.48-3.06,18.88-10.4,23.73-15.42"/><path class="cls-11" d="M2471.34,348.52v-2.27c0-1.66,1.35-3.01,3.01-3.01h1.46c1.72,0,3.11,1.39,3.11,3.11v2.17"/><path class="cls-11" d="M2453.32,348.71v-2.27c0-1.66,1.35-3.01,3.01-3.01h1.46c1.72,0,3.11,1.39,3.11,3.11v2.17"/><path class="cls-11" d="M2521.39,348.52v-2.27c0-1.66,1.35-3.01,3.01-3.01h1.46c1.72,0,3.11,1.39,3.11,3.11v2.17"/><path class="cls-11" d="M2503.36,348.52v-2.27c0-1.66,1.35-3.01,3.01-3.01h1.46c1.72,0,3.11,1.39,3.11,3.11v2.17"/><path class="cls-11" d="M2472.91,353.03c5.12,4.58,19.44,21.44,37.27,27.29,3.83,1.26,10.64,.95,14.58,0,8.1-1.95,16.14-6.9,19.44-9.75"/><path class="cls-7" d="M2503.82,353.49c5.74,6.02,18.2,20.44,33.37,25.75,3.58,1.26,9.96,.95,13.65,0,7.58-1.95,15.11-6.9,18.2-9.75"/><path class="cls-11" d="M2401.22,321.67v180.77c0,1.34-1.1,2.44-2.44,2.44h-10.45c-1.34,0-2.44-1.1-2.44-2.44v-180.58"/><line class="cls-11" x1="2401.22" y1="321.09" x2="2401.22" y2="321.67"/><path class="cls-11" d="M2385.88,315.43v-10.4c0-1.34,1.1-2.44,2.44-2.44h10.45c1.34,0,2.44,1.1,2.44,2.44v10.64"/><line class="cls-11" x1="2400.5" y1="315.43" x2="2401.22" y2="315.43"/><line class="cls-11" x1="2378.81" y1="315.43" x2="2386.16" y2="315.43"/><line class="cls-11" x1="2356.13" y1="315.43" x2="2370.33" y2="315.43"/><polyline class="cls-11" points="2386.32 321.85 2337 321.85 2337 315.43 2347.51 315.43"/><line class="cls-11" x1="2386.5" y1="321.85" x2="2386.32" y2="321.85"/><line class="cls-11" x1="2400.99" y1="321.85" x2="2400.5" y2="321.85"/><polyline class="cls-11" points="2442.41 315.43 2452.6 315.43 2452.6 321.85 2400.99 321.85"/><line class="cls-11" x1="2419.56" y1="315.43" x2="2433.71" y2="315.43"/><line class="cls-11" x1="2401.22" y1="315.43" x2="2411.02" y2="315.43"/><path class="cls-11" d="M2369.89,315.37v-2.88c0-2.1,1.71-3.81,3.81-3.81h1.85c2.18,0,3.94,1.77,3.94,3.94v2.74"/><path class="cls-11" d="M2347.06,315.61v-2.88c0-2.1,1.71-3.81,3.81-3.81h1.85c2.18,0,3.94,1.77,3.94,3.94v2.74"/><path class="cls-11" d="M2433.27,315.37v-2.88c0-2.1,1.71-3.81,3.81-3.81h1.85c2.18,0,3.94,1.77,3.94,3.94v2.74"/><path class="cls-11" d="M2410.45,315.37v-2.88c0-2.1,1.71-3.81,3.81-3.81h1.85c2.18,0,3.94,1.77,3.94,3.94v2.74"/><path class="cls-11" d="M2348.75,321.89c8.07,8.13,30.64,38.08,58.73,48.47,6.03,2.23,16.77,1.68,22.98,0,12.77-3.46,25.43-12.25,30.64-17.31"/><path class="cls-11" d="M2415.86,321.57c7.97,11.06,25.22,37.57,46.51,47.53,5.03,2.35,14.04,1.91,19.27,.24,9.86-3.13,19.7-10.85,24.69-16.08"/><path class="cls-7" d="M2639.66,390.28v93.69c0,.7-.57,1.27-1.27,1.27h-5.42c-.7,0-1.27-.57-1.27-1.27v-93.59"/><line class="cls-7" x1="2639.66" y1="389.98" x2="2639.66" y2="390.28"/><path class="cls-7" d="M2631.71,387.05v-5.39c0-.7,.57-1.27,1.27-1.27h5.42c.7,0,1.27,.57,1.27,1.27v5.51"/><line class="cls-7" x1="2639.29" y1="387.05" x2="2639.66" y2="387.05"/><line class="cls-7" x1="2628.05" y1="387.05" x2="2631.86" y2="387.05"/><line class="cls-7" x1="2616.3" y1="387.05" x2="2623.65" y2="387.05"/><polyline class="cls-7" points="2631.94 390.38 2606.38 390.38 2606.38 387.05 2611.83 387.05"/><line class="cls-7" x1="2632.03" y1="390.38" x2="2631.94" y2="390.38"/><line class="cls-7" x1="2639.54" y1="390.38" x2="2639.29" y2="390.38"/><polyline class="cls-7" points="2661.01 387.05 2666.29 387.05 2666.29 390.38 2639.54 390.38"/><line class="cls-7" x1="2649.17" y1="387.05" x2="2656.5" y2="387.05"/><line class="cls-7" x1="2639.66" y1="387.05" x2="2644.74" y2="387.05"/><path class="cls-7" d="M2559.78,370.15c4.74,5.14,18,24.09,34.49,30.66,3.54,1.41,9.85,1.06,13.5,0,7.5-2.19,14.94-7.75,18-10.95"/><path class="cls-7" d="M2600.26,369.52c4.33,5.21,16.45,24.38,31.54,31.03,3.24,1.43,9.01,1.08,12.34,0,6.22-2.01,12.4-6.83,15.58-10.12"/><path class="cls-7" d="M2623.42,387.02v-1.49c0-1.09,.88-1.97,1.97-1.97h.96c1.13,0,2.04,.92,2.04,2.04v1.42"/><path class="cls-7" d="M2611.59,387.14v-1.49c0-1.09,.88-1.97,1.97-1.97h.96c1.13,0,2.04,.92,2.04,2.04v1.42"/><path class="cls-11" d="M2656.28,387.02v-1.49c0-1.09,.88-1.97,1.97-1.97h.96c1.13,0,2.04,.92,2.04,2.04v1.42"/><path class="cls-7" d="M2644.44,387.02v-1.49c0-1.09,.88-1.97,1.97-1.97h.96c1.13,0,2.04,.92,2.04,2.04v1.42"/><path class="cls-7" d="M2577.39,369.39v118.66c0,.88-.72,1.6-1.6,1.6h-6.86c-.88,0-1.6-.72-1.6-1.6v-118.54"/><line class="cls-7" x1="2577.39" y1="369.01" x2="2577.39" y2="369.39"/><path class="cls-7" d="M2567.32,365.3v-6.83c0-.88,.72-1.6,1.6-1.6h6.86c.88,0,1.6,.72,1.6,1.6v6.98"/><line class="cls-7" x1="2576.92" y1="365.3" x2="2577.39" y2="365.3"/><line class="cls-7" x1="2562.69" y1="365.3" x2="2567.51" y2="365.3"/><line class="cls-11" x1="2547.8" y1="365.3" x2="2557.11" y2="365.3"/><polyline class="cls-7" points="2567.61 369.52 2535.24 369.52 2535.24 365.3 2542.14 365.3"/><line class="cls-7" x1="2567.73" y1="369.52" x2="2567.61" y2="369.52"/><line class="cls-7" x1="2577.24" y1="369.52" x2="2576.92" y2="369.52"/><polyline class="cls-7" points="2604.44 365.3 2611.12 365.3 2611.12 369.52 2577.24 369.52"/><line class="cls-7" x1="2589.43" y1="365.3" x2="2598.72" y2="365.3"/><line class="cls-7" x1="2577.39" y1="365.3" x2="2583.83" y2="365.3"/><path class="cls-7" d="M2556.83,365.26v-1.89c0-1.38,1.12-2.5,2.5-2.5h1.22c1.43,0,2.59,1.16,2.59,2.59v1.8"/><path class="cls-11" d="M2541.84,365.42v-1.89c0-1.38,1.12-2.5,2.5-2.5h1.22c1.43,0,2.59,1.16,2.59,2.59v1.8"/><path class="cls-7" d="M2598.44,365.26v-1.89c0-1.38,1.12-2.5,2.5-2.5h1.22c1.43,0,2.59,1.16,2.59,2.59v1.8"/><path class="cls-7" d="M2583.45,365.26v-1.89c0-1.38,1.12-2.5,2.5-2.5h1.22c1.43,0,2.59,1.16,2.59,2.59v1.8"/><path class="cls-7" d="M2542.95,369.54c5.3,5.34,20.11,25,38.55,31.81,3.96,1.46,11.01,1.1,15.09,0,8.38-2.27,16.69-8.04,20.11-11.36"/><path class="cls-7" d="M2587,369.33c5.23,7.26,16.56,24.66,30.53,31.2,3.3,1.54,9.22,1.25,12.65,.16,7.06-2.24,14.1-8.07,17.01-11.44"/></g><g><polygon class="cls-17" points="4239.75 337.27 4236.11 379.14 4222.46 421 4245.21 406.44 4268.53 421 4255.61 379.14 4251.59 337.27 4239.75 337.27"/><path class="cls-17" d="M4217,351.83l22.5-11.71-22.5,11.71Z"/><line class="cls-17" x1="4238.49" y1="351.83" x2="4217" y2="351.83"/><polyline class="cls-17" points="4254.79 370.54 4276 370.54 4253.72 359.39"/><polyline class="cls-17" points="4236.4 379.78 4235.77 380.17 4260.23 395.06"/><polyline class="cls-17" points="4253.49 367.55 4253.86 367.76 4245.31 374.11"/><polyline class="cls-17" points="4251.13 337.73 4240.21 345.92 4251.87 351.83 4238.82 359.39 4239.47 359.76"/><line class="cls-17" x1="4230.2" y1="345.01" x2="4237.48" y2="351.38"/><polyline class="cls-17" points="4240.21 337.73 4251.87 345.98 4239.3 352.29 4253.86 359.57 4237.48 369.58 4255.22 380.05 4230.65 395.52 4245.21 406.44 4260.23 395.06"/><polyline class="cls-17" points="4228.25 364.52 4235.8 370.54 4217 370.54 4237.83 359.39 4253.86 367.76 4236.57 380.5 4260.63 395.39"/><polyline class="cls-17" points="4262.05 345.92 4253.08 352.74 4274.34 352.74 4251.87 340.13"/><line class="cls-17" x1="4262.05" y1="364.12" x2="4256.15" y2="370.54"/></g><g><polygon class="cls-17" points="4140.84 324 4136.7 371.54 4121.2 419.08 4147.04 402.55 4173.52 419.08 4158.85 371.54 4154.28 324 4140.84 324"/><path class="cls-17" d="M4115,340.54l25.56-13.29-25.56,13.29Z"/><line class="cls-17" x1="4139.4" y1="340.54" x2="4115" y2="340.54"/><polyline class="cls-17" points="4157.91 361.78 4182 361.78 4156.7 349.12"/><polyline class="cls-17" points="4137.03 372.27 4136.32 372.72 4164.09 389.63"/><polyline class="cls-17" points="4156.44 358.39 4156.86 358.62 4147.15 365.83"/><polyline class="cls-17" points="4153.76 324.52 4141.35 333.82 4154.6 340.54 4139.77 349.12 4140.51 349.53"/><line class="cls-17" x1="4129.99" y1="332.78" x2="4138.25" y2="340.02"/><polyline class="cls-17" points="4141.35 324.52 4154.6 333.89 4140.32 341.05 4156.86 349.32 4138.25 360.69 4158.41 372.57 4130.5 390.14 4147.04 402.55 4164.09 389.63"/><polyline class="cls-17" points="4127.78 354.94 4136.35 361.78 4115 361.78 4138.65 349.12 4156.86 358.62 4137.22 373.09 4164.55 390"/><polyline class="cls-17" points="4166.16 333.82 4155.97 341.57 4180.11 341.57 4154.6 327.24"/><line class="cls-17" x1="4166.16" y1="354.49" x2="4159.45" y2="361.78"/></g><g><polygon class="cls-17" points="4294.75 319 4290.35 369.67 4273.82 420.34 4301.36 402.72 4329.59 420.34 4313.95 369.67 4309.08 319 4294.75 319"/><path class="cls-17" d="M4267.21,336.62l27.24-14.17-27.24,14.17Z"/><line class="cls-17" x1="4293.22" y1="336.62" x2="4267.21" y2="336.62"/><polyline class="cls-17" points="4312.95 359.27 4338.63 359.27 4311.66 345.78"/><polyline class="cls-17" points="4290.69 370.45 4289.94 370.93 4319.54 388.95"/><polyline class="cls-17" points="4311.38 355.65 4311.83 355.9 4301.48 363.59"/><polyline class="cls-17" points="4308.52 319.55 4295.3 329.46 4309.42 336.62 4293.62 345.78 4294.41 346.22"/><line class="cls-17" x1="4283.19" y1="328.36" x2="4292" y2="336.07"/><polyline class="cls-17" points="4295.3 319.55 4309.42 329.54 4294.2 337.18 4311.83 345.99 4292 358.11 4313.48 370.77 4283.74 389.5 4301.36 402.72 4319.54 388.95"/><polyline class="cls-17" points="4280.83 351.98 4289.97 359.27 4267.21 359.27 4292.42 345.78 4311.83 355.9 4290.9 371.32 4320.02 389.35"/><polyline class="cls-17" points="4321.74 329.46 4310.88 337.73 4336.61 337.73 4309.42 322.46"/><line class="cls-17" x1="4321.74" y1="351.5" x2="4314.6" y2="359.27"/></g><g><polygon class="cls-17" points="4182.71 319 4177.33 380.83 4157.17 442.67 4190.77 421.16 4225.22 442.67 4206.13 380.83 4200.2 319 4182.71 319"/><path class="cls-17" d="M4149.1,340.51l33.24-17.29-33.24,17.29Z"/><line class="cls-17" x1="4180.84" y1="340.51" x2="4149.1" y2="340.51"/><polyline class="cls-17" points="4204.91 368.14 4236.24 368.14 4203.33 351.68"/><polyline class="cls-17" points="4177.75 381.78 4176.83 382.37 4212.95 404.36"/><polyline class="cls-17" points="4203 363.73 4203.54 364.03 4190.91 373.41"/><polyline class="cls-17" points="4199.51 319.67 4183.38 331.77 4200.6 340.51 4181.32 351.68 4182.28 352.21"/><line class="cls-17" x1="4168.59" y1="330.43" x2="4179.35" y2="339.84"/><polyline class="cls-17" points="4183.38 319.67 4200.6 331.86 4182.03 341.18 4203.54 351.93 4179.35 366.72 4205.56 382.18 4169.26 405.03 4190.77 421.16 4212.95 404.36"/><polyline class="cls-17" points="4165.72 359.25 4176.87 368.14 4149.1 368.14 4179.87 351.68 4203.54 364.03 4178 382.85 4213.54 404.84"/><polyline class="cls-17" points="4215.64 331.77 4202.39 341.85 4233.79 341.85 4200.6 323.22"/><line class="cls-17" x1="4215.64" y1="358.65" x2="4206.92" y2="368.14"/></g><polygon class="cls-20" points="1537 411 1400 410.68 1400 405 1533 406 1537 411"/><g><path class="cls-8" d="M1049.49,550.75v13.9c66.27,2.17,121.94,1.39,163.64,0,30.95-1.03,62.53-2.14,104.9-6.18,24.41-2.33,11.76-1.75,138.47-21.62,20.18-3.16,42.8-6.68,65.74-19.56,15.1-8.48,24.85-17.95,30.77-24.71l-1.4-60.74"/><path class="cls-8" d="M1526.43,444.19c-15.37-6.95-38.06-16.05-67.14-23.68-27.17-7.13-49.65-10.27-67.14-12.35-124.84-14.9-230.78-12.35-230.78-12.35-24.78,.6-16.63,.99-222.39,20.59-6.9,.66-21.08,2.01-39.16,6.18-35.54,8.2-61.62,21.62-78.32,31.92"/><g><path class="cls-8" d="M1235.29,382.81c.93-2.39,2.93-3.51-12.29-15.53-13.45-10.63-12.29-10.52-16.38-12.03-11.67-4.28-23.21-3.42-29.26-2.51-11,1.66-18.69,5.76-22.82,8.02-6.77,3.69-11.19,7.5-12.87,9.02-12.13,10.92-15.56,22.71-18.73,33.57-.73,2.49-.74,2.95-.59,3.51,2.39,8.7,35.45,7.72,84.26,6.01,20.76-.73,32.09-.73,33.94-6.01,2.4-6.85-3.54-18.07-7.61-21.55-2.93-2.51,1.76-1,2.34-2.51Z"/><path class="cls-11" d="M1213.05,373.79l-2.34-2.51c-8.34,1.32-14.51,.54-18.73-.5-4.22-1.04-11.17-3.5-16.97-2-.5,.13-1.97,.54-3.51,1,0,0-4.22,1.26-7.61,2.51-5.34,1.96-8.72,5.93-14.04,10.02-7.21,5.54-11.44,8.94-13.46,8.02-.77-.35-2.67-2,1.17-13.53"/><path class="cls-11" d="M1139.91,392.33c-1.08,1.17-1.31,2.74-.59,4.01,.66,1.15,2.09,2.05,3.51,2,1.46-.05,2.01-1.07,3.51-2,2.48-1.55,4.43-.91,8.19-1.5,3.55-.56,3.8-1.46,9.36-3.51,4.16-1.54,6.86-2.53,10.53-3.01,7.98-1.03,16.07,.99,18.14,1.5,.58,.14,1.29,.33,2.34,.5,1.22,.19,5.09,.71,9.95-.5,6.39-1.59,6.62-4.19,10.53-4.01,3.41,.16,5.53,2.24,6.44,1.5,1.05-.85-1.89-3.58-.59-5.51,1-1.48,4.32-2.28,6.44-1,1.32,.79,1.66,2.08,1.76,2.51"/><line class="cls-11" x1="1199.86" y1="390.57" x2="1202.64" y2="406.44"/><line class="cls-11" x1="1215.39" y1="385.82" x2="1217.73" y2="405.86"/><line class="cls-11" x1="1135.25" y1="386.86" x2="1133.47" y2="394.84"/><path class="cls-11" d="M1151.77,395.84c-.16,.5-2.5,14.03-2.5,14.03"/></g><g><path class="cls-8" d="M1102.42,387.01c.93-2.39,2.93-3.5-12.29-15.49-13.45-10.6-12.29-10.49-16.38-11.99-11.67-4.27-23.21-3.41-29.26-2.5-11,1.65-18.69,5.75-22.82,8-6.77,3.68-11.19,7.48-12.87,9-12.13,10.89-15.56,22.65-18.73,33.48-.73,2.49-.74,2.94-.59,3.5,2.39,8.68,35.45,7.7,84.26,6,20.76-.73,32.09-.73,33.94-6,2.4-6.83-3.54-18.02-7.61-21.49-2.93-2.5,1.76-1,2.34-2.5Z"/><path class="cls-11" d="M1080.18,379.27l-2.34-2.15c-8.34,1.13-14.51,.46-18.73-.43-4.22-.9-11.17-3.01-16.97-1.72-.5,.11-1.97,.46-3.51,.86,0,0-4.22,1.08-7.61,2.15-5.34,1.68-8.72,5.1-14.04,8.61-7.21,4.76-11.44,7.69-13.46,6.89-.77-.3-2.67-1.72,1.17-11.63"/><path class="cls-11" d="M1007.03,399.49c-1.08,1.01-1.31,2.35-.59,3.45,.66,.99,2.09,1.76,3.51,1.72,1.46-.04,2.01-.92,3.51-1.72,2.48-1.33,4.43-.78,8.19-1.29,3.55-.49,3.8-1.25,9.36-3.02,4.16-1.32,6.86-2.18,10.53-2.58,7.98-.89,16.07,.85,18.14,1.29,.58,.12,1.29,.29,2.34,.43,1.22,.17,5.09,.61,9.95-.43,6.39-1.36,6.62-3.6,10.53-3.45,3.41,.13,5.53,1.92,6.44,1.29,1.05-.73-1.89-3.07-.59-4.74,1-1.27,4.32-1.96,6.44-.86,1.32,.68,1.66,1.79,1.76,2.15"/><line class="cls-11" x1="1066.99" y1="397.98" x2="1069.77" y2="411.62"/><line class="cls-11" x1="1082.52" y1="393.89" x2="1084.86" y2="411.12"/><line class="cls-11" x1="1002.38" y1="394.79" x2="1000.6" y2="401.65"/><path class="cls-11" d="M1018.9,402.51c-.16,.43-2.5,12.06-2.5,12.06"/></g><g><path class="cls-8" d="M1522.97,439.66c1.11-2.46,3.49-3.6-14.67-15.95-16.06-10.91-14.67-10.8-19.57-12.34-13.93-4.4-27.72-3.51-34.94-2.57-13.13,1.7-22.32,5.92-27.25,8.23-8.08,3.79-13.36,7.7-15.37,9.26-14.48,11.21-18.58,23.31-22.36,34.46-.87,2.56-.88,3.03-.7,3.6,2.86,8.93,42.34,7.93,100.62,6.17,24.79-.75,38.31-.75,40.53-6.17,2.87-7.03-4.23-18.55-9.08-22.12-3.49-2.57,2.1-1.03,2.8-2.57Z"/><path class="cls-11" d="M1496.42,430.41l-2.8-2.57c-9.96,1.35-17.33,.55-22.36-.51-5.04-1.07-13.34-3.6-20.26-2.06-.59,.13-2.35,.55-4.19,1.03,0,0-5.04,1.3-9.08,2.57-6.37,2.01-10.41,6.08-16.77,10.29-8.61,5.69-13.67,9.18-16.07,8.23-.92-.36-3.19-2.06,1.4-13.89"/><path class="cls-11" d="M1409.07,449.44c-1.29,1.2-1.57,2.81-.7,4.11,.79,1.18,2.5,2.1,4.19,2.06,1.75-.05,2.41-1.1,4.19-2.06,2.96-1.59,5.29-.93,9.78-1.54,4.24-.58,4.54-1.49,11.18-3.6,4.97-1.58,8.2-2.6,12.58-3.09,9.53-1.06,19.19,1.01,21.66,1.54,.69,.15,1.54,.34,2.8,.51,1.45,.2,6.08,.72,11.88-.51,7.62-1.63,7.9-4.3,12.58-4.11,4.07,.16,6.6,2.3,7.69,1.54,1.26-.87-2.26-3.67-.7-5.66,1.19-1.51,5.16-2.34,7.69-1.03,1.57,.81,1.99,2.13,2.1,2.57"/><line class="cls-11" x1="1480.67" y1="447.63" x2="1483.99" y2="463.92"/><line class="cls-11" x1="1499.21" y1="442.75" x2="1502.01" y2="463.32"/><line class="cls-11" x1="1403.51" y1="443.82" x2="1401.39" y2="452.01"/><path class="cls-11" d="M1423.24,453.04c-.19,.51-2.99,14.4-2.99,14.4"/></g><g><g><path class="cls-8" d="M1295.81,482.22c-1.6-3.42-5.07-5.06,20.1-21.12,20.01-12.77,18.36-12.77,24.13-14.21,15.57-3.89,29.83-1.4,36.88,.37,12.16,3.05,20.2,8.3,24.36,11.08,6.61,4.4,10.79,8.66,12.35,10.33,10.84,11.51,13.78,23.35,16.44,34.08,.6,2.44,.62,2.89,.49,3.45-2,8.85-32.57,10.97-90.52,14.65-31.07,1.97-73.95-3.24-53.43-3.63,14.62-.28,18.73-23.38,13.18-31.44-3.04-4.42-2.97-1.4-3.97-3.54Z"/><path class="cls-8" d="M1330.89,470.4l3.37-3.16c11.58,2.1,19.73,1.41,25.1,.33,5.24-1.05,13.55-3.59,20.21-1.52,.56,.17,2.2,.72,3.92,1.33,0,0,4.6,1.62,8.2,3.15,5.53,2.34,8.94,6.76,14.19,11.23,6.84,5.83,10.73,9.3,12.55,8.3,.69-.38,2.38-2.11-1.05-13.98"/><path class="cls-8" d="M1415.24,492.21c.99,1.19,1.2,2.8,.53,4.15-.6,1.23-1.92,2.23-3.24,2.24-1.37,.02-1.89-1.04-3.3-1.96-2.37-1.55-4.26-.79-7.97-1.29-3.58-.48-3.83-1.45-9.59-3.56-4.44-1.62-7.38-2.69-11.46-3.16-9.19-1.06-19.01,1.52-21.6,2.21-.73,.19-1.63,.45-2.98,.68-1.56,.28-6.64,1.04-13.19-.33-8.96-1.87-9.29-5.26-15-4.98-5.1,.26-8.33,3.1-9.73,2.12-1.64-1.14,2.91-4.85,.9-7.46-1.54-2.01-6.76-3.15-10.16-1.43-2.14,1.09-2.71,2.88-2.86,3.47"/><line class="cls-8" x1="1349.19" y1="491.98" x2="1345.47" y2="512.16"/><line class="cls-8" x1="1327.46" y1="486.22" x2="1323.97" y2="513"/><line class="cls-8" x1="1419.45" y1="486.46" x2="1421.03" y2="494.6"/><path class="cls-8" d="M1404.01,496.33c.16,.53,2.43,14.91,2.43,14.91"/></g><path class="cls-11" d="M1344.98,445.32l.6-.36"/><path class="cls-11" d="M1365.92,445.77c-18.89-4.75-40.28-.63-57.47,6.6-23.7,9.96-42.17,25.81-51.27,44.02-1.98,3.96-3.54,8.2-2.4,12.31,1.14,4.12,5.67,8.04,11.65,8.48,2.62,.19,5.27-.27,7.89-.06,7.42,.59,8.78,1.32,15.66-.72"/><path class="cls-11" d="M1297.92,482.89c-7.38,.09-14.92,.17-21.94-1.44-2.74-.63-5.63-1.51-8.38-.92"/><path class="cls-11" d="M1279.91,482.33c-4.42,5.37-8.65,10.89-10.86,16.88-2.2,5.99-2.23,12.56,1.57,18.15"/></g><g><path class="cls-8" d="M987.32,423.66c1.11-2.9,3.48-4.26-14.6-18.86-15.98-12.91-14.6-12.78-19.47-14.6-13.87-5.2-27.59-4.15-34.77-3.04-13.07,2.01-22.21,7-27.12,9.74-8.04,4.48-13.3,9.11-15.3,10.95-14.41,13.26-18.49,27.57-22.25,40.77-.86,3.03-.88,3.58-.7,4.26,2.84,10.56,42.13,9.38,100.14,7.3,24.67-.88,38.13-.89,40.33-7.3,2.86-8.32-4.21-21.94-9.04-26.16-3.48-3.04,2.09-1.22,2.78-3.04Z"/><path class="cls-11" d="M960.9,412.71l-2.78-3.04c-9.91,1.6-17.24,.66-22.25-.61-5.02-1.27-13.28-4.25-20.17-2.43-.59,.16-2.34,.66-4.17,1.22,0,0-5.01,1.53-9.04,3.04-6.34,2.38-10.36,7.2-16.69,12.17-8.56,6.73-13.6,10.86-15.99,9.74-.91-.43-3.18-2.43,1.39-16.43"/><path class="cls-11" d="M873.97,435.22c-1.28,1.42-1.56,3.32-.7,4.87,.78,1.4,2.49,2.49,4.17,2.43,1.74-.06,2.39-1.3,4.17-2.43,2.95-1.88,5.27-1.1,9.74-1.83,4.22-.69,4.52-1.77,11.13-4.26,4.95-1.86,8.16-3.08,12.52-3.65,9.48-1.25,19.1,1.2,21.56,1.83,.69,.18,1.53,.41,2.78,.61,1.44,.23,6.05,.86,11.82-.61,7.59-1.93,7.87-5.09,12.52-4.87,4.05,.19,6.57,2.72,7.65,1.83,1.25-1.03-2.25-4.34-.7-6.69,1.18-1.79,5.13-2.77,7.65-1.22,1.56,.96,1.98,2.52,2.09,3.04"/><line class="cls-11" x1="945.22" y1="433.08" x2="948.53" y2="452.35"/><line class="cls-11" x1="963.68" y1="427.31" x2="966.46" y2="451.65"/><line class="cls-11" x1="868.43" y1="428.58" x2="866.32" y2="438.26"/><path class="cls-11" d="M888.07,439.48c-.19,.61-2.97,17.04-2.97,17.04"/></g><g><path class="cls-8" d="M1242.78,376.28c3.65-3.17,8.01-5.98,13.2-7.62s11.26-2,16.46-.39c5.18,1.61,12.29,4.86,14.47,8.67,2.18,3.82,6.21,7.75,8.54,11.52,5.97,9.67,7.58,21.8,0,28.29-7.34,6.28-17.8,4.67-28.46,7.33-1.13-1.28-8.83,.23-9.96-1.05"/><g><path class="cls-8" d="M1273.78,398.3c.39-2,1.23-2.93-5.17-12.97-5.65-8.88-5.17-8.79-6.89-10.04-4.91-3.58-9.76-2.85-12.3-2.09-4.62,1.38-7.86,4.81-9.59,6.69-2.84,3.08-4.7,6.26-5.41,7.53-5.1,9.12-6.54,18.96-7.87,28.03-.31,2.08-.31,2.46-.25,2.93,1.01,7.26,14.91,6.45,35.43,5.02,8.73-.61,13.49-.61,14.27-5.02,1.01-5.72-1.49-15.09-3.2-17.99-1.23-2.09,.74-.84,.98-2.09Z"/><path class="cls-11" d="M1264.43,390.77l-.98-2.09c-3.51,1.1-6.1,.45-7.87-.42-1.77-.87-4.7-2.93-7.13-1.67-.21,.11-.83,.45-1.48,.84,0,0-1.77,1.05-3.2,2.09-2.24,1.64-3.67,4.95-5.9,8.37-3.03,4.63-4.81,7.47-5.66,6.69-.32-.29-1.12-1.67,.49-11.3"/><path class="cls-11" d="M1233.68,406.25c-.45,.98-.55,2.28-.25,3.35,.28,.96,.88,1.71,1.48,1.67,.62-.04,.85-.89,1.48-1.67,1.04-1.29,1.86-.76,3.44-1.26,1.49-.47,1.6-1.22,3.94-2.93,1.75-1.28,2.89-2.11,4.43-2.51,3.35-.86,6.76,.82,7.63,1.26,.24,.12,.54,.28,.98,.42,.51,.16,2.14,.59,4.18-.42,2.68-1.32,2.78-3.5,4.43-3.35,1.43,.13,2.32,1.87,2.71,1.26,.44-.71-.8-2.99-.25-4.6,.42-1.23,1.82-1.9,2.71-.84,.55,.66,.7,1.74,.74,2.09"/><line class="cls-11" x1="1258.89" y1="404.78" x2="1260.06" y2="418.03"/><line class="cls-11" x1="1265.42" y1="400.81" x2="1266.4" y2="417.55"/><line class="cls-11" x1="1231.72" y1="401.68" x2="1230.98" y2="408.34"/><path class="cls-11" d="M1238.67,409.18c-.07,.42-1.05,11.72-1.05,11.72"/></g></g><g><path class="cls-8" d="M1398.68,405.85c.93-2.41,2.93-3.53-12.29-15.64-13.45-10.7-12.29-10.59-16.38-12.11-11.67-4.31-23.21-3.44-29.26-2.52-11,1.67-18.69,5.8-22.82,8.07-6.77,3.72-11.19,7.55-12.87,9.08-12.13,10.99-15.56,22.86-18.73,33.8-.73,2.51-.74,2.97-.59,3.53,2.39,8.76,35.45,7.77,84.26,6.05,20.76-.73,32.09-.73,33.94-6.05,2.4-6.9-3.54-18.19-7.61-21.69-2.93-2.52,1.76-1.01,2.34-2.52Z"/><path class="cls-11" d="M1376.45,396.77l-2.34-2.52c-8.34,1.33-14.51,.54-18.73-.5-4.22-1.05-11.17-3.53-16.97-2.02-.5,.13-1.97,.54-3.51,1.01,0,0-4.22,1.27-7.61,2.52-5.34,1.97-8.72,5.97-14.04,10.09-7.21,5.58-11.44,9-13.46,8.07-.77-.36-2.67-2.02,1.17-13.62"/><path class="cls-11" d="M1303.3,415.44c-1.08,1.18-1.31,2.75-.59,4.04,.66,1.16,2.09,2.06,3.51,2.02,1.46-.05,2.01-1.08,3.51-2.02,2.48-1.56,4.43-.91,8.19-1.51,3.55-.57,3.8-1.47,9.36-3.53,4.16-1.55,6.86-2.55,10.53-3.03,7.98-1.04,16.07,.99,18.14,1.51,.58,.15,1.29,.34,2.34,.5,1.22,.19,5.09,.71,9.95-.5,6.39-1.6,6.62-4.22,10.53-4.04,3.41,.16,5.53,2.25,6.44,1.51,1.05-.86-1.89-3.6-.59-5.55,1-1.49,4.32-2.29,6.44-1.01,1.32,.8,1.66,2.09,1.76,2.52"/><line class="cls-11" x1="1363.26" y1="413.66" x2="1366.04" y2="429.64"/><line class="cls-11" x1="1378.79" y1="408.88" x2="1381.13" y2="429.06"/><line class="cls-11" x1="1298.65" y1="409.93" x2="1296.87" y2="417.96"/><path class="cls-11" d="M1315.17,418.97c-.16,.5-2.5,14.13-2.5,14.13"/></g><path class="cls-20" d="M1472.77,477.24c-8.91,2.23-18.14,3.66-27.35,5.08-64.14,9.86-128.48,19.59-193.72,24.11-4.29,.3-9.61,1.2-10.54,4.3-.3,1.02-.02,2.07,.26,3.09,3.39,12.34,6.79,24.69,10.18,37.03,11.48,.05,22.6-2.65,33.63-4.99,32.05-6.8,65.2-10.79,98.53-11.88,6.67-.22,13.44-.33,19.81-1.81,5.07-1.18,9.7-3.19,14.43-4.98,35.24-13.29,79.26-15.24,107.35-35.78,6.99-5.11,12.78-11.45,14.32-18.61,1.01-4.67,.07-10.56-3.84-14.47-6.16-6.15-9.97-3.08-17.32,.66-14.29,7.27-29.21,14.1-45.74,18.25Z"/><g><path class="cls-11" d="M961.17,431.42l-.59-.45"/><g><g><path class="cls-8" d="M1008.66,476.5c2.18-3.75,6.1-5.36-18.58-25.25-19.63-15.81-17.86-15.7-23.83-17.73-16.1-5.48-31.67-3.66-39.44-2.16-13.41,2.59-22.7,7.96-27.53,10.8-7.66,4.51-12.7,9.02-14.6,10.79-13.15,12.24-17.9,25.4-22.2,37.32-.98,2.71-1.05,3.21-.99,3.86,.93,10.13,33.29,14.65,94.68,22.86,32.91,4.4,79.43,1.51,57.56-.36-15.57-1.33-16.82-27.71-9.79-36.41,3.85-4.77,3.37-1.38,4.73-3.72Z"/><path class="cls-8" d="M972.8,460.71l-3.17-3.8c-12.66,1.56-21.26,.21-26.86-1.38-5.45-1.55-13.99-5-21.38-3.13-.62,.16-2.45,.66-4.36,1.22,0,0-5.13,1.51-9.19,2.98-6.23,2.26-10.47,7.01-16.68,11.69-8.1,6.11-12.73,9.75-14.54,8.49-.68-.48-2.26-2.55,3.03-15.7"/><path class="cls-8" d="M879.74,479.44c-1.22,1.27-1.66,3.08-1.14,4.65,.48,1.42,1.75,2.65,3.15,2.76,1.46,.12,2.15-1.04,3.79-1.99,2.74-1.59,4.66-.6,8.68-.9,3.89-.3,4.29-1.37,10.72-3.34,4.96-1.52,8.25-2.52,12.67-2.77,9.96-.56,20.09,3.05,22.77,4,.76,.27,1.68,.62,3.09,.98,1.63,.42,6.95,1.64,14.14,.55,9.82-1.49,10.64-5.29,16.69-4.57,5.41,.64,8.48,4.08,10.11,3.08,1.9-1.17-2.44-5.68,.05-8.49,1.92-2.16,7.65-3.09,11.05-.9,2.13,1.38,2.5,3.44,2.58,4.12"/><line class="cls-8" x1="950.31" y1="483.79" x2="951.54" y2="506.83"/><line class="cls-8" x1="974.31" y1="478.81" x2="974.39" y2="509.28"/><line class="cls-8" x1="876.03" y1="472.65" x2="873.23" y2="481.74"/><path class="cls-8" d="M891.18,484.87c-.24,.59-4.63,16.66-4.63,16.66"/></g><path class="cls-11" d="M938.74,430.46c20.82-4.04,43.11,2.11,60.49,11.46,23.96,12.89,41.53,32.09,48.76,53.27,1.57,4.61,2.66,9.5,.89,14.07s-7.15,8.68-13.6,8.76c-2.82,.04-5.59-.67-8.42-.62-8,.14-9.56,.87-16.62-1.9"/><path class="cls-11" d="M1006.31,477.11c7.87,.62,15.92,1.23,23.62-.09,3.01-.52,6.22-1.32,9.08-.45"/><path class="cls-11" d="M1025.62,477.74c3.99,6.37,7.76,12.9,9.29,19.82,1.54,6.92,.67,14.34-4.16,20.38"/></g></g><path class="cls-20" d="M955.29,492.58c9.16,1.44,18.33,2.87,27.6,3.88,25.35,2.76,50.77,.7,76.39,.24,2.19,2.89-1.93,7.51-4.28,10.33-1.3,1.55-2.03,3.4-3.81,4.66-4.43,3.16-5.42,8.89-11.49,9.72-3.15,.43-8.37-.1-11.19,1.03-18.31,7.33-43.9,2.53-64.75,2.25-20.84-.27-41.77-1.99-62.47-.16-4.06-6.82-10.94-8.4-16.84-14.45-5.9-6.05-14.17-5.92-23.78-8.24-3.28-.79-4.39-12.65-4.22-15.18,.16-2.3,9.56-6.79,12.33-7.36,6.81-1.41,21.06,3.03,28.04,4.13l58.46,9.16Z"/><path class="cls-11" d="M792.13,426.69l-8.39,61.77c7.72,6.1,20.17,14.81,37.76,22.65,13.32,5.94,25.18,9.41,67.14,18.53,41.05,8.92,61.57,13.38,76.93,15.44,19.66,2.64,51,5.24,83.92,5.15l2.8-39.12c33.87,.54,69.85,.34,107.72-.9,48.37-1.58,99.81-4.85,153.83-10.43,50.96-5.26,98.6-12.01,142.66-19.56,0,0,27.79-6.13,68.53-25.74,14.06-6.77,24.98-13.13,26.57-22.65,1.01-6.07-17.34-25.82-19.58-26.77-67.29-28.4-102.1-33.98-102.1-33.98-83.22-13.33-170.49-16.9-186.02-17.5-101.2-3.9-165.25,.39-187.42,2.06-24.95,1.87-42.19,3.83-62.94,6.18-33.89,3.84-117.5,14.14-176.23,42.21-9.21,4.4-22.29,11.39-25.18,22.65-3.22,12.57,8.02,23.64,11.19,26.77,8.09,7.98,21.22,15.71,88.11,28.83,20.84,4.08,32.42,6.36,46.16,8.24,81.72,11.19,202.37,3.49,223.78,2.06v14.41"/><line class="cls-11" x1="1122.27" y1="442.98" x2="1181.69" y2="463.32"/><line class="cls-11" x1="1122.27" y1="465.26" x2="1181.69" y2="441.96"/><path class="cls-11" d="M1120.86,434.58c.89-1.47,.04-3.15-.18-4.75s.82-3.66,3-3.63c4.13,.04,1.81,5.83,5.24,7.53,.5-4.34,3.56-8.48,8.24-11.14-.03,3.31,.68,6.62,2.1,9.75l5.2-10.75c.39-.81,.98-1.75,2.13-1.89,.98-.12,1.87,.4,2.56,.92,3.28,2.45,5.51,5.65,6.31,9.05,.23-1.9,.49-3.86,1.72-5.54s3.72-3.01,6.28-2.73l.28,10.52c1.91-4.12,6.44-7.53,11.98-9.04l.28,10.08"/><path class="cls-20" d="M802.28,414.69c-7.72,7.71-.93,16.29-1.77,25.83s7.07,20.12,19.96,21.71c4.11,.51,8.6,.01,11.89-1.87,3.29-1.88,5.06-5.28,3.6-8.14-6.31,2.05-13.04,3.41-19.9,4,1.71-6.3,10.5-10.06,18.7-12.37,8.2-2.31,17.34-4.32,22.36-9.59,2.71-2.84,3.86-6.3,4.95-9.68,1.31-4.06,2.63-8.11,3.94-12.17,2.9-8.95,10.4-27.07-9.18-20.37-15.06,5.15-44.91,13.02-54.55,22.65Z"/></g><polygon class="cls-20" points="937 386 933 386 919 373.5 925 372.5 937 386"/><line class="cls-11" x1="2245.95" y1="200.93" x2="2174.75" y2="200.93"/><path class="cls-11" d="M2176.37,200.93c2.24-9.52-2.33-17.63-9.71-19.86-1.43-.43-4.75-1.18-9.71,0"/><path class="cls-11" d="M2110.65,173.62c2.25-1.79,9.02-6.66,19.42-7.45,3.21-.24,9.84-.75,16.18,2.48,8.1,4.13,9.49,11.19,9.71,12.41"/><path class="cls-11" d="M2094.37,187.27c-2.03-6.67,2.11-12.35,8.79-13.91,1.3-.3,4.3-.83,8.79,0"/><path class="cls-11" d="M2080.33,200.9c-1.69-6.52,1.75-12.07,7.31-13.6,1.08-.3,3.58-.81,7.31,0"/><line class="cls-11" x1="2079.9" y1="200.38" x2="2063.72" y2="200.38"/><path class="cls-11" d="M712.67,167.63c7.95-7.46,22.25-6.44,29.06,2.08,5.4-10.15,22.03-11.39,28.87-2.15"/><path class="cls-11" d="M2291.09,138.34c7.95-7.46,22.25-6.44,29.06,2.08,5.4-10.15,22.03-11.39,28.87-2.15"/><line class="cls-11" x1="3304.21" y1="251.84" x2="3233.02" y2="251.84"/><path class="cls-11" d="M3234.63,251.84c2.24-9.52-2.33-17.63-9.71-19.86-1.43-.43-4.75-1.18-9.71,0"/><path class="cls-11" d="M3168.91,224.54c2.25-1.79,9.02-6.66,19.42-7.45,3.21-.24,9.84-.75,16.18,2.48,8.1,4.13,9.49,11.19,9.71,12.41"/><path class="cls-11" d="M3152.63,238.19c-2.03-6.67,2.11-12.35,8.79-13.91,1.3-.3,4.3-.83,8.79,0"/><path class="cls-11" d="M3138.6,251.82c-1.69-6.52,1.75-12.07,7.31-13.6,1.08-.3,3.58-.81,7.31,0"/><line class="cls-11" x1="3138.17" y1="251.29" x2="3121.99" y2="251.29"/><g><g><path class="cls-7" d="M479.87,648.82c-3-.16-6.01-.11-9,.21-2.1,.22-4.18,.57-6.26,.92l-12.93,2.18c-.74,.12-1.54,.29-2,.87-.66,.84,.22,1.12,.35,1.71,.17,.73,.23,1.54,.22,2.45-.02,2.02,.16,4.04,.43,6.05,.51,3.83,1.33,7.6,1.71,11.45,.23,2.26,.48,4.55,1.37,6.63,1.33,3.12,3.97,5.49,6.7,7.5,14.23,10.45,32.44,13.57,49.99,15.48,20.18,2.19,40.48,3.17,60.78,2.95,18.77-.21,37.83-1.52,55.48-7.9,7.63-2.76,15.12-6.6,20.36-12.8,9.79-11.58,9.58-28.47,7.48-43.49-8.8-.24-17.62,.09-26.38,1,2.57,11.05-6.75,21.68-16.42,25.34-7.56,2.85-16.4,3.05-24.38,3.62-9.08,.65-18.17,1.04-27.27,1.17-16.92,.23-33.76-.34-50.67-.35-11,0-22.15-.6-28.29-10.84-1.78-2.97-5.37-11.59-1.24-14.08"/><ellipse class="cls-1" cx="550.7" cy="666.48" rx="61.65" ry="3.58"/><path class="cls-7" d="M479.62,648.63c-.44,7.2,5.89,14.11,13.11,14.3,3.05,.08,6.01-.87,8.99-1.49,6-1.24,12.19-1.15,18.32-1.05,30.06,.48,60.12,.96,90.18,1.43,2.68,.04,5.51,.05,7.83-1.29,1.77-1.02,3.05-2.73,4.13-4.47,2.3-3.7,3.97-7.79,4.92-12.05"/></g><path class="cls-11" d="M378.91,690.96c6.66,.9,13-3.85,19.7-3.46,4.53,.26,8.56,2.83,12.83,4.38,4.6,1.68,9.63,2.2,14.48,1.49,9.64-1.41,18.65-7.53,28.31-6.3"/><path class="cls-11" d="M395.62,704.37c10.05-3.71,20.82-7.48,31.26-5.05,4.14,.97,8.04,2.88,12.23,3.58,8.05,1.33,16.04-1.96,23.99-3.83s17.54-1.8,22.81,4.43"/><path class="cls-9" d="M522.26,650.57c-.15,.25-.31,.52-.3,.81,.01,.3,.2,.55,.36,.8,.94,1.4,1.39,3.12,1.27,4.8,.66-.28,.86-1.11,1-1.82,.54-2.8,1.43-5.53,2.64-8.11,.39-.83,.81-1.65,1.04-2.53,.2-.78,.23-1.59,.27-2.39l.43-9.6-2.06,2.31c-.25,.27-.5,.56-.64,.9-.21,.48-.18,1.02-.19,1.55-.04,1.4-.45,2.8-1.16,4.01-.95,1.62-.73,2.62-.96,4.38s-.81,3.41-1.69,4.91Z"/><path class="cls-10" d="M540.57,612.68c-.46,1.57-1.03,7.81-.99,9.44,.03,1.42-.07,4.65,.99,5.59,1.28,1.14-.55-.67,1.11-1.11,.16-.53,4.33-1.24,4.48-1.77,.03-.11,.06-.22,.03-.33-.06-.2-.3-.27-.49-.37-.77-.39-.78-1.7-.02-2.1,.2-.1,.42-.15,.59-.29,.16-.13,.25-.32,.34-.51,.36-.77,.72-1.68,.32-2.43-.15-.29-.4-.52-.57-.79-.36-.56-.39-1.26-.53-1.9-.23-1.07-1.49-3.73-2.83-3.41s-2.11-1.18-2.45-.03Z"/><path class="cls-8" d="M540.82,656.48c2.64,4.37,7.05,7.5,9.43,12.02-4.55,.63-9.15,.9-13.75,.83-.93-.01-1.88-.04-2.78,.2-1.53,.41-3.15-.64-4.49,.21-2.36,1.5-5.23,.37-8,0-1.47-.2-2.77,3.03-3.07,1.58-.27-1.29,.66-2.49,1.34-3.62,1.76-2.92,2.23-6.72,4.85-8.92"/><path class="cls-10" d="M531.31,663l.51-3.89c.02-.28-2.96-1.28-3.26-1.4-1.64-.66-3.42-.57-4.73-1.92-.02,1.1-.39,2.37,.47,3.15,.68,.61,1.92,.59,2.72,1.01,1.55,.83,2.92,1.94,4.28,3.05Z"/><path class="cls-10" d="M537.76,656.6c.65,1.24,.18,3.13,.02,4.53,.75-1.29,2.63-2.8,3.97-3.47-.65-.69-1.11-2.82-1.18-3.77-.63,.98-1.67,2.45-2.78,2.78"/><path class="cls-10" d="M531.67,667.64c1.74,.22,3.47,.54,5.17,.96-.18-4.26,1.06-13.3,.95-12.49-.22,1.27-6.63,2.09-6.65,1.94,.1,.71,.78,9.62,.53,9.59Z"/><rect class="cls-14" x="526.66" y="605.43" width="2.53" height="124.64" transform="translate(213.61 1458.83) rotate(-120)"/><path class="cls-14" d="M524.49,625.36c-1.62,2.02-2.29,4.62-3.08,7.09-.96,3.02-2.17,5.96-3.6,8.78-.91,1.8-1.93,3.6-2.33,5.58-.68,3.41,.56,6.9,2.18,9.98,1.62,3.07,3.64,5.97,4.72,9.27,.53,1.62,.89,3.43,2.18,4.54,1.11,.96,2.82,1.16,4.12,.49s2.13-2.18,2-3.64c-.67,.81-2.12,0-2.23-1.04s.59-1.97,1.24-2.79c-1.82,.56-3.83-.49-4.97-2.02s-1.6-3.44-2.04-5.29l-1.81-7.66c-.1-.43-.2-.88-.14-1.32,.24-1.56,1.67-3.53,2.64-4.74,2.18-2.7,3.79-5.87,4.69-9.22,1.12,3.83,.34,7.96-.78,11.79-.88,3.01-1.97,5.97-2.51,9.07-.24,1.39-.75,2.56,.6,3.3,1.24,.69,3,.7,4.37,.65,3.21-.12,6.4-1.01,9.21-2.56,.5-.28,1.01-.59,1.33-1.06,.54-.8,.42-1.85,.33-2.81-.55-5.69,.41-11.53,2.75-16.75,.29-.64,.68-1.34,1.36-1.5,1.37-.32,3.11,1.47,4.27,2,1.74,.8,3.75,.13,5.32,1.1,1.76,1.1,3.17,2.18,5.28,2.6,.48,.09,.97,.16,1.45,.22,1.74,.22,3.4,.01,5.15,.05,1.29,.02,2.6,.23,3.72,.85,1.73,.96,2.4,3.36,3.54,4.87,.43,.57,.89,1.16,1.55,1.44,1.13,.48,3.81-.17,4.66-1.02,1.09-1.08,1.42-3.03,.46-4.29-1-1.31-4.19-2.51-5.74-3-1.99-.63-3.97-1.13-5.57-2.55-1.62-1.44-4.87-2.61-7.02-2.82-1.92-.18-4.02,.3-5.8-.69-.92-.51-1.6-1.35-2.41-2.03-1.32-1.11-2.98-1.91-4.39-2.95-1.34-.98-2.92-2.02-4.66-1.5-1.22,.36-2.1,1.43-3.26,1.97-1.68,.8-3.75,.37-5.32-.62-3.91-2.46-6.92-7.48-11.52-1.77Z"/><path class="cls-3" d="M531.67,617.3c-.21-1.84-.16-3.87,1-5.31,.96-1.18,2.48-1.72,3.95-2.1,2.55-.65,5.59-.84,7.47,1,.47,.63-.31,1.52-1.08,1.59s-1.53-.3-2.31-.35c-1.52,4.66-1.71,9.75-.52,14.51,.19,.78,.4,1.68-.08,2.32-.55,.74-1.72,.67-2.51,.21s-1.37-1.23-2.12-1.77c-.86-.64-1.92-.97-2.74-1.66-1.77-1.46-.82-6.32-1.06-8.43Z"/><path class="cls-16" d="M537.14,638.16c-.55,1.31-1.8,2.25-3.17,2.57s-2.82,.05-4.07-.57"/><path class="cls-16" d="M535.03,643.97c.1,3.79-.09,7.59-.56,11.35"/><path class="cls-16" d="M537.74,638.84c.68,1.12,1.71,2.02,2.91,2.55"/><g><path d="M535.52,607c-4.14,3.11-6.14,7.73-4.96,8.83s5.85-1.4,9.24-5.31c2.03-2.34,4.89-7.82,4.86-9.61,0-.58-4.45,2.58-9.13,6.09Z"/><polygon class="cls-13" points="542.54 603.54 527.73 618.68 527.94 618.88 542.54 603.54 542.54 603.54"/><polygon class="cls-20" points="542.83 606.41 540.54 607.86 542.06 607.93 542.83 606.41"/><polygon class="cls-20" points="540.48 610.42 537.04 611.92 539.12 611.74 540.48 610.42"/><polygon class="cls-20" points="542.61 607.57 539.75 608.71 541.27 609.18 542.61 607.57"/><polygon class="cls-20" points="537.65 601.67 540.88 599.6 539.18 605.82 537.65 601.67"/><polygon class="cls-20" points="537.44 601.22 539.7 599.24 538.53 605.41 537.44 601.22"/><polygon class="cls-20" points="531.79 608.35 534 607.92 532.85 612.54 531.79 608.35"/></g></g></g><g id="pig"><path class="cls-14" d="M458.25,508.71c-2.33,.82-4.32,2.39-6.61,3.31-1.96,.78-4.07,1.07-6.16,1.35-4.4,.59-8.82,1.18-13.26,1.26-1.48,.03-3,0-4.41,.49-1.04,.36-1.97,.97-2.89,1.58-2.86,1.9-5.84,3.92-7.47,6.94-.96,1.78-1.4,3.8-1.81,5.78l-1.51,7.12c-.2,.95-.4,1.95-.17,2.89,.44,1.78,2.36,3.08,2.27,4.91,.4-1.16,.34-2.46-.14-3.58l1.32,1.35-.62-3.2,1.23,1c-.88-2.94-1.36-6.01-1.43-9.08-.03-1.62,.06-3.29,.71-4.78s1.96-2.77,3.56-3c-2.2,4.12-2.57,9.17-1.01,13.56,.58,1.64,1.43,3.44,.71,5.02-.27,.6-.74,1.08-1.13,1.6-2.81,3.77-1.5,9.07-.07,13.54l.6-.38c.84,1.63,2.65,2.72,4.49,2.68l-.7-1.09c.31,.48,.87,.79,1.45,.79,.24-1.04-.71-1.93-1.43-2.72-1.97-2.16-2.73-5.37-1.93-8.18,.1-.36,.24-.73,.5-1.01,.4-.42,1.02-.53,1.58-.69,1.48-.42,2.83-1.31,3.8-2.51-.56,1.45-1.06,3.28,0,4.42,.46,.5,1.13,.74,1.72,1.06,1.43,.78,2.53,2.13,3,3.68,.23,.75,.32,1.55,.66,2.25s1.07,1.31,1.85,1.19c1.32,1.03,3.13,1.39,4.74,.94l-5.29-5.75c-.56-.61-1.14-1.24-1.45-2.02-.9-2.22,.61-4.63,2.04-6.55,2.62,2.63,6.65,3.45,10.34,3.02,2.17-.25,4.26-.89,6.29-1.67,1-.38,1.98-.8,2.95-1.23,1.06-.46,1.55-.48,1.68,.83,.1,1.03,.4,2.05,.88,2.97,.32,.6,.71,1.17,.93,1.81,.2,.57,.26,1.18,.34,1.78,.29,2.3,.69,4.49,1.55,6.65,.18,.45,.51,.96,.99,.9,.05-.43-.02-.99-.12-1.41,.35,1.54,1.81,2.76,3.38,2.84,.52,.03,1.09-.78,.57-.82l1.77,.63c-.31-2.13-2.38-3.52-3.28-5.47-.9-1.95-.45-4.45,1.07-5.96-.16,3.16,.57,6.71,3.19,8.48,1.17,.79,2.7,1.17,4.1,.93,.04-1.31-1.21-2.42-1.93-3.34l-1.05-1.33c-.16-.21-.32-.41-.45-.64-.59-1.1-.61-2.64-.14-3.78s1.29-2.12,1.57-3.33c.25-1.11-.3-2.58,.3-3.56,.24-.4,.49-.81,.85-1.12s.83-.51,1.29-.41c.22,.05,.43,.16,.64,.25,1.56,.67,2.8-.32,4.31-.64,.87-.19,2.01-.31,2.9-.23,1.21,.11,2.42,.49,3.65,.31,.9-.13,1.75-.57,2.38-1.22,.11-.12,.22-.24,.36-.32,.16-.09,.35-.11,.54-.13,3.13-.29,6.3-.59,9.41-.07,.23,.04,.47,.08,.67-.03,.11-.06,.19-.15,.27-.24,.95-1.09,1.76-2.29,2.42-3.58,.3-.6,.75-1.13-.11-1.28-.74-.13-1.54-.12-2.29-.18-.71-.06-1.24-.25-1.98-.09,.39-.85,1.09-5.79-1.04-5.24,.5,1.01,.59,2.22,.23,3.29-.94-.94-2.05-1.72-3.25-2.29,0-1.1,.58-2.18,1.49-2.79-1.03-.04-2.09,.5-2.66,1.36-.36,.54-.42,.65-1.11,.43-.47-.14-.91-.38-1.28-.7-1.33-1.15-1.61-3.06-1.81-4.81-.15-1.35-.13-2.73-.65-3.99-.48-1.15-1.15-2.21-1.93-3.19s-1.7-1.91-2.65-2.76c-.48-.43-.97-.85-1.47-1.26-.2-.16-1.41-.93-1.42-1.15,.02,1.05,.28,2.47,0,3.45-.74-.31-1.11-1.59-1.58-2.21-.64-.83-1.42-1.55-2.31-2.11-.31-.19-.63-.37-.9-.62s-.46-.59-.45-.96c-.56,.47-1.04,1.03-1.42,1.65-.26,.43-.43,1.29-.89,1.56-.91,.53-2.42-.83-3.28-1.1-2.77-.89-5.82-1.1-8.6-.12Z"/><path class="cls-14" d="M606.06,467.32c-2.33,.82-4.32,2.39-6.61,3.31-1.96,.78-4.07,1.07-6.16,1.35-4.4,.59-8.82,1.18-13.26,1.26-1.48,.03-3,0-4.41,.49-1.04,.36-1.97,.97-2.89,1.58-2.86,1.9-5.84,3.92-7.47,6.94-.96,1.78-1.4,3.8-1.81,5.78l-1.51,7.12c-.2,.95-.4,1.95-.17,2.89,.44,1.78,2.36,3.08,2.27,4.91,.4-1.16,.34-2.46-.14-3.58l1.32,1.35-.62-3.2,1.23,1c-.88-2.94-1.36-6.01-1.43-9.08-.03-1.62,.06-3.29,.71-4.78s1.96-2.77,3.56-3c-2.2,4.12-2.57,9.17-1.01,13.56,.58,1.64,1.43,3.44,.71,5.02-.27,.6-.74,1.08-1.13,1.6-2.81,3.77-1.5,9.07-.07,13.54l.6-.38c.84,1.63,2.65,2.72,4.49,2.68l-.7-1.09c.31,.48,.87,.79,1.45,.79,.24-1.04-.71-1.93-1.43-2.72-1.97-2.16-2.73-5.37-1.93-8.18,.1-.36,.24-.73,.5-1.01,.4-.42,1.02-.53,1.58-.69,1.48-.42,2.83-1.31,3.8-2.51-.56,1.45-1.06,3.28,0,4.42,.46,.5,1.13,.74,1.72,1.06,1.43,.78,2.53,2.13,3,3.68,.23,.75,.32,1.55,.66,2.25s1.07,1.31,1.85,1.19c1.32,1.03,3.13,1.39,4.74,.94l-5.29-5.75c-.56-.61-1.14-1.24-1.45-2.02-.9-2.22,.61-4.63,2.04-6.55,2.62,2.63,6.65,3.45,10.34,3.02,2.17-.25,4.26-.89,6.29-1.67,1-.38,1.98-.8,2.95-1.23,1.06-.46,1.55-.48,1.68,.83,.1,1.03,.4,2.05,.88,2.97,.32,.6,.71,1.17,.93,1.81,.2,.57,.26,1.18,.34,1.78,.29,2.3,.69,4.49,1.55,6.65,.18,.45,.51,.96,.99,.9,.05-.43-.02-.99-.12-1.41,.35,1.54,1.81,2.76,3.38,2.84,.52,.03,1.09-.78,.57-.82l1.77,.63c-.31-2.13-2.38-3.52-3.28-5.47-.9-1.95-.45-4.45,1.07-5.96-.16,3.16,.57,6.71,3.19,8.48,1.17,.79,2.7,1.17,4.1,.93,.04-1.31-1.21-2.42-1.93-3.34l-1.05-1.33c-.16-.21-.32-.41-.45-.64-.59-1.1-.61-2.64-.14-3.78s1.29-2.12,1.57-3.33c.25-1.11-.3-2.58,.3-3.56,.24-.4,.49-.81,.85-1.12s.83-.51,1.29-.41c.22,.05,.43,.16,.64,.25,1.56,.67,2.8-.32,4.31-.64,.87-.19,2.01-.31,2.9-.23,1.21,.11,2.42,.49,3.65,.31,.9-.13,1.75-.57,2.38-1.22,.11-.12,.22-.24,.36-.32,.16-.09,.35-.11,.54-.13,3.13-.29,6.3-.59,9.41-.07,.23,.04,.47,.08,.67-.03,.11-.06,.19-.15,.27-.24,.95-1.09,1.76-2.29,2.42-3.58,.3-.6,.75-1.13-.11-1.28-.74-.13-1.54-.12-2.29-.18-.71-.06-1.24-.25-1.98-.09,.39-.85,1.09-5.79-1.04-5.24,.5,1.01,.59,2.22,.23,3.29-.94-.94-2.05-1.72-3.25-2.29,0-1.1,.58-2.18,1.49-2.79-1.03-.04-2.09,.5-2.66,1.36-.36,.54-.42,.65-1.11,.43-.47-.14-.91-.38-1.28-.7-1.33-1.15-1.61-3.06-1.81-4.81-.15-1.35-.13-2.73-.65-3.99-.48-1.15-1.15-2.21-1.93-3.19s-1.7-1.91-2.65-2.76c-.48-.43-.97-.85-1.47-1.26-.2-.16-1.41-.93-1.42-1.15,.02,1.05,.28,2.47,0,3.45-.74-.31-1.11-1.59-1.58-2.21-.64-.83-1.42-1.55-2.31-2.11-.31-.19-.63-.37-.9-.62s-.46-.59-.45-.96c-.56,.47-1.04,1.03-1.42,1.65-.26,.43-.43,1.29-.89,1.56-.91,.53-2.42-.83-3.28-1.1-2.77-.89-5.82-1.1-8.6-.12Z"/></g></svg>