<?xml version="1.0" encoding="utf-8"?>
<!-- Generator: Adobe Illustrator 26.3.1, SVG Export Plug-In . SVG Version: 6.00 Build 0)  -->
<svg version="1.1" id="Layer_1" xmlns="http://www.w3.org/2000/svg" xmlns:xlink="http://www.w3.org/1999/xlink" x="0px" y="0px"
	 viewBox="0 0 865 324" style="enable-background:new 0 0 865 324;" xml:space="preserve">
<style type="text/css">
	.st0{fill:#FFFFFF;stroke:#42578B;stroke-width:3;stroke-miterlimit:10;}
	.st1{fill:#42578B;}
	.st2{fill:#42578A;}
	.st3{fill:none;stroke:#42578B;stroke-width:3.5;stroke-linecap:round;stroke-miterlimit:10;}
	.st4{font-family:'GaramondPremrPro';}
	.st5{font-size:20px;}
</style>
<rect x="0.2" y="-0.3" class="st0" width="865" height="324"/>
<g>
	<rect x="86" y="73" class="st1" width="53.3" height="11.4"/>
	<rect x="51.7" y="99.6" class="st1" width="11.4" height="45.7"/>
	<path class="st1" d="M181.3,137.7H63.2v-30.5h110.1c4.4,0,8,3.6,8,8V137.7z"/>
	<rect x="154.6" y="137.7" class="st1" width="26.7" height="22.9"/>
	<rect x="147" y="160.6" class="st1" width="41.9" height="11.4"/>
	<rect x="105.1" y="84.4" class="st1" width="11.4" height="15.2"/>
	<rect x="89.8" y="95.8" class="st1" width="41.9" height="11.4"/>
	<path class="st1" d="M156.3,204.6c-2.5,8.3,1.7,17.7,9,22.4c2.2,1.4,4.8,2.5,7.4,2.2c2.8-0.3,5.3-2.3,6.9-4.7
		c4.4-6.5,2.8-15.5-0.5-22.6c-3.3-7.1-8.1-13.5-10.2-21.2C171.5,187.4,158.3,197.9,156.3,204.6z"/>
</g>
<g>
	<path class="st2" d="M572.2,94.5H561v-18c0-3,2.4-5.4,5.4-5.4l0,0c3.2,0,5.8,2.6,5.8,5.8V94.5z"/>
	<path class="st2" d="M599.3,94.5H588v-18c0-3,2.4-5.4,5.4-5.4l0,0c3.2,0,5.8,2.6,5.8,5.8V94.5z"/>
	<rect x="552.5" y="98.3" class="st1" width="54.2" height="14.9"/>
	<polygon class="st2" points="594.6,144 565.6,144 561,113.2 599.3,113.2 	"/>
	<polygon class="st2" points="585.2,159 575,159 573.1,147.8 587.1,147.8 	"/>
	<path class="st2" d="M580.4,178.6h-0.8c-0.5,0-0.9-0.4-0.9-0.9V159h2.8v18.5C581.5,178.1,581,178.6,580.4,178.6z"/>
	<path class="st3" d="M580.2,176.5c0.6,8.7,1.3,17.4,1.9,26.2c0.3,4.4,0.6,9-0.9,13.1c-1.6,4.3-5.1,7.8-9,10.3
		c-13.8,8.7-34,5.2-44-7.7c-6.7-8.6-8.8-19.9-9.5-30.8c-1.6-26,3.4-52.6-2.5-78c-0.6-2.4-1.4-5.1-3.6-6.4c-3-1.8-7.2,0.2-8.9,3.2
		c-1.8,3.1-1.8,6.8-1.7,10.3c0.6,33.7,2.1,67.4,4.5,101c0.2,2.9,0.4,5.8-0.6,8.5s-3.5,5.1-6.4,4.9c-4.6-0.2-6.5-5.9-7.2-10.5
		c-3.2-22.3-4.4-44.8-3.4-67.3"/>
</g>
<text transform="matrix(1 0 0 1 624.9058 155.2472)"><tspan x="0" y="0" class="st4 st5">And electricity generation </tspan><tspan x="0" y="24" class="st4 st5">for 3.7 million homes</tspan></text>
<text transform="matrix(1 0 0 1 224.3979 141.182)"><tspan x="0" y="0" class="st4 st5">The Catawba-Wateree River is </tspan><tspan x="0" y="24" class="st4 st5">used for drinking water for </tspan><tspan x="0" y="48" class="st4 st5">more than 2 million people</tspan></text>
</svg>
