<?xml version="1.0" encoding="UTF-8"?><svg id="Layer_2" xmlns="http://www.w3.org/2000/svg" xmlns:xlink="http://www.w3.org/1999/xlink" viewBox="0 0 965 376"><defs><style>.cls-1,.cls-2,.cls-3{fill:none;}.cls-4{letter-spacing:-.01em;}.cls-5{letter-spacing:-.08em;}.cls-6{clip-path:url(#clippath);}.cls-7{letter-spacing:0em;}.cls-8{letter-spacing:0em;}.cls-9{letter-spacing:0em;}.cls-10{letter-spacing:0em;}.cls-11{letter-spacing:.02em;}.cls-12{fill:#fff;}.cls-13{fill:#425786;}.cls-14{letter-spacing:0em;}.cls-15{letter-spacing:-.02em;}.cls-16{letter-spacing:0em;}.cls-17{letter-spacing:-.01em;}.cls-2{stroke-linecap:round;stroke-miterlimit:10;stroke-width:3.5px;}.cls-2,.cls-3{stroke:#425786;}.cls-18{letter-spacing:-.01em;}.cls-19{font-family:GaramondPremrPro, 'Garamond Premier Pro';font-size:20px;}.cls-19,.cls-20{isolation:isolate;}.cls-21{letter-spacing:0em;}.cls-22{letter-spacing:0em;}.cls-23{clip-path:url(#clippath-1);}.cls-24{letter-spacing:-.02em;}.cls-25{letter-spacing:0em;}.cls-26{letter-spacing:0em;}.cls-27{letter-spacing:0em;}.cls-28{letter-spacing:.02em;}.cls-29{letter-spacing:-.01em;}.cls-30{letter-spacing:0em;}.cls-31{letter-spacing:0em;}.cls-32{letter-spacing:0em;}.cls-33{letter-spacing:0em;}.cls-34{letter-spacing:0em;}.cls-35{letter-spacing:0em;}.cls-3{stroke-width:3px;}.cls-36{letter-spacing:-.13em;}.cls-37{letter-spacing:0em;}.cls-38{letter-spacing:.01em;}.cls-39{letter-spacing:0em;}.cls-40{letter-spacing:.01em;}.cls-41{letter-spacing:-.01em;}.cls-42{letter-spacing:0em;}</style><clipPath id="clippath"><rect class="cls-1" x="48.96" y="92.82" width="163.35" height="186.04"/></clipPath><clipPath id="clippath-1"><rect class="cls-1" x="526.79" y="94.33" width="135.55" height="182.93"/></clipPath></defs><g id="graph"><g id="Rectangle_1590"><rect class="cls-12" width="965" height="376"/><rect class="cls-3" x="1.5" y="1.5" width="962" height="373"/></g><g id="Group_399" transform="translate(48.955 92.824)"><rect id="Rectangle_1583" class="cls-13" x="89.79" y="92.82" width="63.53" height="13.61"/><rect id="Rectangle_1584" class="cls-13" x="48.96" y="124.59" width="13.61" height="54.45"/><g id="Group_398"><g class="cls-6"><g id="Group_397"><path id="Path_3122" class="cls-13" d="M203.24,169.96H62.57v-36.3H194.53c4.8,0,8.7,3.9,8.7,8.7v27.6Z"/><rect id="Rectangle_1585" class="cls-13" x="171.47" y="169.96" width="31.76" height="27.23"/><rect id="Rectangle_1586" class="cls-13" x="162.4" y="197.19" width="49.91" height="13.61"/><rect id="Rectangle_1587" class="cls-13" x="112.48" y="106.44" width="13.61" height="18.15"/><rect id="Rectangle_1588" class="cls-13" x="94.33" y="120.05" width="49.91" height="13.61"/><path id="Path_3123" class="cls-13" d="M173.47,249.56c-3.02,9.83,2.07,21.1,10.73,26.65,2.65,1.7,5.75,2.96,8.87,2.59,3.38-.41,6.3-2.72,8.2-5.54,5.26-7.8,3.35-18.43-.61-26.96-3.93-8.47-9.61-16.12-12.19-25.19,3.08,8.06-12.58,20.54-15,28.46"/></g></g></g></g><g id="_The_Catawba-Wateree_River_is_used_for_drinking_water_for_more_than_2_million_people" class="cls-20" transform="translate(239 119.844)"><text class="cls-19" transform="translate(239 159.84)"><tspan x="0" y="0">The </tspan><tspan class="cls-24" x="32.8" y="0">C</tspan><tspan class="cls-10" x="46.76" y="0">a</tspan><tspan class="cls-37" x="54.52" y="0">t</tspan><tspan class="cls-29" x="60.76" y="0">a</tspan><tspan class="cls-9" x="68.42" y="0">w</tspan><tspan class="cls-8" x="81.5" y="0">b</tspan><tspan class="cls-26" x="91.3" y="0">a</tspan><tspan class="cls-5" x="99.44" y="0">-</tspan><tspan class="cls-36" x="103.7" y="0">W</tspan><tspan class="cls-14" x="120.74" y="0">a</tspan><tspan class="cls-39" x="128.5" y="0">t</tspan><tspan class="cls-37" x="134.84" y="0">e</tspan><tspan class="cls-31" x="142.48" y="0">r</tspan><tspan class="cls-40" x="149.12" y="0">e</tspan><tspan x="157.22" y="0">e Ri</tspan><tspan class="cls-10" x="186.72" y="0">v</tspan><tspan class="cls-37" x="195" y="0">e</tspan><tspan x="202.64" y="0">r is </tspan></text><text class="cls-19" transform="translate(239 184.84)"><tspan class="cls-32" x="0" y="0">u</tspan><tspan x="9.82" y="0">s</tspan><tspan class="cls-38" x="16.24" y="0">e</tspan><tspan class="cls-16" x="24.34" y="0">d f</tspan><tspan class="cls-27" x="44.18" y="0">o</tspan><tspan x="53.74" y="0">r d</tspan><tspan class="cls-31" x="74.5" y="0">r</tspan><tspan class="cls-7" x="81.14" y="0">i</tspan><tspan class="cls-34" x="86.08" y="0">n</tspan><tspan class="cls-41" x="96.62" y="0">k</tspan><tspan class="cls-21" x="105.94" y="0">in</tspan><tspan x="121.18" y="0">g </tspan><tspan class="cls-37" x="133.48" y="0">w</tspan><tspan class="cls-10" x="146.36" y="0">a</tspan><tspan class="cls-42" x="154.12" y="0">t</tspan><tspan class="cls-4" x="160.46" y="0">e</tspan><tspan class="cls-9" x="168.1" y="0">r f</tspan><tspan class="cls-30" x="184.76" y="0">o</tspan><tspan x="194.32" y="0">r </tspan></text><text class="cls-19" transform="translate(239 209.84)"><tspan x="0" y="0">m</tspan><tspan class="cls-30" x="15.24" y="0">o</tspan><tspan class="cls-31" x="24.8" y="0">r</tspan><tspan x="31.44" y="0">e </tspan><tspan class="cls-18" x="43.26" y="0">th</tspan><tspan class="cls-16" x="59.48" y="0">an 2 </tspan><tspan class="cls-22" x="95.52" y="0">m</tspan><tspan x="110.88" y="0">i</tspan><tspan class="cls-22" x="115.94" y="0">ll</tspan><tspan x="125.94" y="0">i</tspan><tspan class="cls-27" x="131" y="0">o</tspan><tspan x="140.56" y="0">n </tspan><tspan class="cls-35" x="154.96" y="0">p</tspan><tspan class="cls-40" x="165.06" y="0">e</tspan><tspan class="cls-25" x="173.16" y="0">o</tspan><tspan class="cls-8" x="182.72" y="0">p</tspan><tspan x="192.72" y="0">le</tspan></text></g><g id="Group_396" transform="translate(1304.786 108.328)"><g class="cls-23"><g id="Group_395" transform="translate(-778 -14)"><path id="Path_3116" class="cls-13" d="M623.22,120.76h-12.69v-20.36c0-3.35,2.72-6.07,6.07-6.07h.07c3.62,0,6.55,2.93,6.55,6.55v19.88Z"/><path id="Path_3117" class="cls-13" d="M653.88,120.76h-12.69v-20.36c0-3.35,2.72-6.07,6.07-6.07h.07c3.62,0,6.55,2.93,6.55,6.55v19.88Z"/><rect id="Rectangle_1581" class="cls-13" x="601.02" y="124.99" width="61.32" height="16.92"/><path id="Path_3118" class="cls-13" d="M648.59,176.79h-32.77l-5.29-34.89h43.35l-5.29,34.89Z"/><path id="Path_3119" class="cls-13" d="M638.02,193.71h-11.63l-2.12-12.69h15.86l-2.11,12.69Z"/><path id="Path_3120" class="cls-13" d="M632.59,215.91h-1.01c-.53,0-.95-.43-.95-.95h0v-21.25h3.17v21c0,.66-.54,1.2-1.2,1.2"/><path id="Path_3121" class="cls-2" d="M632.36,213.56l2.16,29.61c.36,4.98,.71,10.14-1.02,14.83-1.81,4.92-5.76,8.81-10.2,11.61-15.64,9.84-38.45,5.86-49.82-8.7-7.6-9.73-9.96-22.53-10.74-34.86-1.87-29.46,3.88-59.55-2.87-88.28-.65-2.77-1.6-5.77-4.03-7.24-3.42-2.07-8.14,.18-10.12,3.65s-1.98,7.7-1.91,11.7c.65,38.12,2.35,76.2,5.09,114.25,.24,3.25,.46,6.61-.65,9.68s-3.95,5.75-7.21,5.59c-5.21-.25-7.4-6.68-8.15-11.85-3.66-25.21-4.95-50.7-3.87-76.14"/></g></g></g><g id="And_electricity_generation_for_3.7_million_homes" class="cls-20" transform="translate(700.618 162.791)"><text class="cls-19" transform="translate(700.62 177.79)"><tspan class="cls-33" x="0" y="0">A</tspan><tspan x="13.36" y="0">nd el</tspan><tspan class="cls-40" x="50.46" y="0">e</tspan><tspan x="58.56" y="0">c</tspan><tspan class="cls-15" x="66.4" y="0">t</tspan><tspan class="cls-31" x="72.48" y="0">r</tspan><tspan x="79.12" y="0">ici</tspan><tspan class="cls-28" x="97.08" y="0">t</tspan><tspan x="103.88" y="0">y </tspan><tspan class="cls-11" x="116.14" y="0">g</tspan><tspan class="cls-37" x="124.9" y="0">e</tspan><tspan x="132.54" y="0">n</tspan><tspan class="cls-37" x="142.96" y="0">e</tspan><tspan class="cls-27" x="150.6" y="0">r</tspan><tspan class="cls-10" x="157.32" y="0">a</tspan><tspan class="cls-17" x="165.08" y="0">t</tspan><tspan x="171.28" y="0">i</tspan><tspan class="cls-27" x="176.34" y="0">o</tspan><tspan x="185.9" y="0">n f</tspan><tspan class="cls-30" x="206.18" y="0">o</tspan><tspan x="215.74" y="0">r </tspan></text><text class="cls-19" transform="translate(700.62 202.79)"><tspan x="0" y="0">3.7 </tspan><tspan class="cls-22" x="27.52" y="0">m</tspan><tspan class="cls-9" x="42.88" y="0">i</tspan><tspan class="cls-34" x="47.94" y="0">ll</tspan><tspan x="57.94" y="0">i</tspan><tspan class="cls-27" x="63" y="0">o</tspan><tspan x="72.56" y="0">n h</tspan><tspan class="cls-30" x="97.22" y="0">o</tspan><tspan x="106.78" y="0">mes</tspan></text></g></g></svg>