<?xml version="1.0" encoding="utf-8"?>
<!-- Generator: Adobe Illustrator 26.3.1, SVG Export Plug-In . SVG Version: 6.00 Build 0)  -->
<svg version="1.1" id="Layer_1" xmlns="http://www.w3.org/2000/svg" xmlns:xlink="http://www.w3.org/1999/xlink" x="0px" y="0px"
	 viewBox="0 0 1920 1080" style="enable-background:new 0 0 1920 1080;" xml:space="preserve">
<style type="text/css">
	.st0{fill:#FFFFFF;stroke:#42578B;stroke-width:3;stroke-miterlimit:10;}
	.st1{fill:#42578B;}
	.st2{fill:#42578A;}
	.st3{fill:none;stroke:#42578B;stroke-width:3.5;stroke-linecap:round;stroke-miterlimit:10;}
	.st4{font-family:'GaramondPremrPro';}
	.st5{font-size:20px;}
</style>
<rect x="511" y="378.3" class="st0" width="865" height="324"/>
<g>
	<rect x="596.8" y="451.6" class="st1" width="53.3" height="11.4"/>
	<rect x="562.5" y="478.3" class="st1" width="11.4" height="45.7"/>
	<path class="st1" d="M692,516.4H573.9v-30.5H684c4.4,0,8,3.6,8,8V516.4z"/>
	<rect x="665.3" y="516.4" class="st1" width="26.7" height="22.9"/>
	<rect x="657.7" y="539.3" class="st1" width="41.9" height="11.4"/>
	<rect x="615.8" y="463.1" class="st1" width="11.4" height="15.2"/>
	<rect x="600.6" y="474.5" class="st1" width="41.9" height="11.4"/>
	<path class="st1" d="M667,583.2c-2.5,8.3,1.7,17.7,9,22.4c2.2,1.4,4.8,2.5,7.4,2.2c2.8-0.3,5.3-2.3,6.9-4.7
		c4.4-6.5,2.8-15.5-0.5-22.6c-3.3-7.1-8.1-13.5-10.2-21.2C682.2,566.1,669.1,576.6,667,583.2z"/>
</g>
<g>
	<path class="st2" d="M1082.9,473.2h-11.2v-18c0-3,2.4-5.4,5.4-5.4l0,0c3.2,0,5.8,2.6,5.8,5.8V473.2z"/>
	<path class="st2" d="M1110,473.2h-11.2v-18c0-3,2.4-5.4,5.4-5.4l0,0c3.2,0,5.8,2.6,5.8,5.8V473.2z"/>
	<rect x="1063.3" y="476.9" class="st1" width="54.2" height="14.9"/>
	<polygon class="st2" points="1105.3,522.7 1076.4,522.7 1071.7,491.9 1110,491.9 	"/>
	<polygon class="st2" points="1096,537.7 1085.7,537.7 1083.8,526.4 1097.9,526.4 	"/>
	<path class="st2" d="M1091.1,557.3h-0.8c-0.5,0-0.9-0.4-0.9-0.9v-18.7h2.8v18.5C1092.3,556.8,1091.7,557.3,1091.1,557.3z"/>
	<path class="st3" d="M1091,555.2c0.6,8.7,1.3,17.4,1.9,26.2c0.3,4.4,0.6,9-0.9,13.1c-1.6,4.3-5.1,7.8-9,10.3
		c-13.8,8.7-34,5.2-44-7.7c-6.7-8.6-8.8-19.9-9.5-30.8c-1.6-26,3.4-52.6-2.5-78c-0.6-2.4-1.4-5.1-3.6-6.4c-3-1.8-7.2,0.2-8.9,3.2
		c-1.8,3.1-1.8,6.8-1.7,10.3c0.6,33.7,2.1,67.4,4.5,101c0.2,2.9,0.4,5.8-0.6,8.5c-1,2.7-3.5,5.1-6.4,4.9c-4.6-0.2-6.5-5.9-7.2-10.5
		c-3.2-22.3-4.4-44.8-3.4-67.3"/>
</g>
<text transform="matrix(1 0 0 1 1135.6521 533.9165)"><tspan x="0" y="0" class="st4 st5">And electricity generation </tspan><tspan x="0" y="24" class="st4 st5">for 3.7 million homes</tspan></text>
<text transform="matrix(1 0 0 1 735.144 519.8513)"><tspan x="0" y="0" class="st4 st5">The Catawba-Wateree River is </tspan><tspan x="0" y="24" class="st4 st5">used for drinking water for </tspan><tspan x="0" y="48" class="st4 st5">more than 2 million people</tspan></text>
</svg>
