<?xml version="1.0" encoding="UTF-8"?><svg id="Layer_2" xmlns="http://www.w3.org/2000/svg" viewBox="0 0 868 327"><defs><style>.cls-1{letter-spacing:-.01em;}.cls-2{letter-spacing:-.08em;}.cls-3{letter-spacing:0em;}.cls-4{letter-spacing:.02em;}.cls-5{letter-spacing:0em;}.cls-6{fill:#425789;}.cls-7{letter-spacing:0em;}.cls-8{letter-spacing:0em;}.cls-9{letter-spacing:-.02em;}.cls-10{font-family:GaramondPremrPro, 'Garamond Premier Pro';font-size:20px;}.cls-11{letter-spacing:.01em;}.cls-12{letter-spacing:0em;}.cls-13{letter-spacing:-.01em;}.cls-14{fill:none;stroke-linecap:round;stroke-width:3.5px;}.cls-14,.cls-15{stroke:#425789;stroke-miterlimit:10;}.cls-16{letter-spacing:0em;}.cls-17{letter-spacing:.02em;}.cls-18{letter-spacing:0em;}.cls-19{letter-spacing:-.02em;}.cls-20{letter-spacing:-.01em;}.cls-21{letter-spacing:0em;}.cls-22{letter-spacing:0em;}.cls-23{letter-spacing:0em;}.cls-24{letter-spacing:0em;}.cls-25{letter-spacing:0em;}.cls-26{letter-spacing:0em;}.cls-27{letter-spacing:0em;}.cls-28{letter-spacing:-.14em;}.cls-29{letter-spacing:0em;}.cls-15{fill:#fff;stroke-width:3px;}.cls-30{letter-spacing:.01em;}.cls-31{letter-spacing:0em;}.cls-32{letter-spacing:-.01em;}</style></defs><g id="graph"><rect class="cls-15" x="1.5" y="1.5" width="865" height="324"/><g><rect class="cls-6" x="92.29" y="87.81" width="53.34" height="11.43"/><rect class="cls-6" x="58" y="114.47" width="11.43" height="45.72"/><path class="cls-6" d="M69.43,122.09h110.1c4.42,0,8,3.58,8,8v22.48H69.43v-30.48h0Z"/><rect class="cls-6" x="160.86" y="152.57" width="26.67" height="22.86"/><rect class="cls-6" x="153.24" y="175.43" width="41.91" height="11.43"/><rect class="cls-6" x="111.34" y="99.23" width="11.43" height="15.24"/><rect class="cls-6" x="96.1" y="110.66" width="41.91" height="11.43"/><path class="cls-6" d="M162.54,219.4c-2.53,8.26,1.74,17.72,9.01,22.38,2.22,1.42,4.83,2.49,7.45,2.17,2.84-.34,5.29-2.28,6.88-4.65,4.41-6.55,2.82-15.47-.51-22.63-3.3-7.11-8.07-13.53-10.23-21.15,2.58,6.76-10.56,17.24-12.6,23.89Z"/></g><g><path class="cls-6" d="M568.62,80h0c3.21,0,5.82,2.61,5.82,5.82v17.53h-11.21v-17.96c0-2.98,2.42-5.39,5.39-5.39Z"/><path class="cls-6" d="M595.71,80h0c3.21,0,5.82,2.61,5.82,5.82v17.53h-11.21v-17.96c0-2.98,2.42-5.39,5.39-5.39Z"/><rect class="cls-6" x="554.82" y="107.09" width="54.18" height="14.95"/><polygon class="cls-6" points="596.86 152.87 567.9 152.87 563.23 122.04 601.53 122.04 596.86 152.87"/><polygon class="cls-6" points="587.51 167.81 577.24 167.81 575.37 156.6 589.38 156.6 587.51 167.81"/><path class="cls-6" d="M580.97,167.81h2.8v18.48c0,.63-.51,1.14-1.14,1.14h-.76c-.5,0-.9-.4-.9-.9v-18.72h0Z"/><path class="cls-14" d="M582.51,185.35l1.91,26.16c.32,4.4,.62,8.96-.9,13.1-1.6,4.35-5.09,7.79-9.02,10.26-13.82,8.7-33.97,5.18-44.02-7.69-6.72-8.6-8.8-19.91-9.49-30.8-1.65-26.03,3.43-52.62-2.53-78.01-.57-2.44-1.42-5.1-3.57-6.4-3.03-1.83-7.19,.16-8.94,3.23-1.75,3.07-1.75,6.8-1.69,10.33,.58,33.69,2.07,67.36,4.5,100.96,.21,2.87,.41,5.84-.58,8.55-.98,2.71-3.5,5.08-6.37,4.94-4.61-.22-6.54-5.91-7.2-10.47-3.23-22.25-4.38-44.81-3.41-67.28"/></g><text class="cls-10" transform="translate(626.17 157.08)"><tspan class="cls-25" x="0" y="0">A</tspan><tspan x="13.36" y="0">nd el</tspan><tspan class="cls-30" x="50.46" y="0">e</tspan><tspan x="58.56" y="0">c</tspan><tspan class="cls-9" x="66.4" y="0">t</tspan><tspan class="cls-25" x="72.48" y="0">r</tspan><tspan x="79.12" y="0">ici</tspan><tspan class="cls-17" x="97.08" y="0">t</tspan><tspan class="cls-3" x="103.88" y="0">y </tspan><tspan class="cls-4" x="116.14" y="0">g</tspan><tspan class="cls-1" x="124.9" y="0">e</tspan><tspan x="132.54" y="0">n</tspan><tspan class="cls-29" x="142.96" y="0">e</tspan><tspan class="cls-22" x="150.6" y="0">r</tspan><tspan class="cls-7" x="157.32" y="0">a</tspan><tspan class="cls-13" x="165.08" y="0">t</tspan><tspan x="171.28" y="0">i</tspan><tspan class="cls-22" x="176.34" y="0">o</tspan><tspan x="185.9" y="0">n </tspan><tspan x="0" y="24">f</tspan><tspan class="cls-22" x="5.88" y="24">o</tspan><tspan x="15.44" y="24">r 3.7 </tspan><tspan class="cls-18" x="53.74" y="24">m</tspan><tspan x="69.1" y="24">i</tspan><tspan class="cls-18" x="74.16" y="24">ll</tspan><tspan x="84.16" y="24">i</tspan><tspan class="cls-22" x="89.22" y="24">o</tspan><tspan x="98.78" y="24">n h</tspan><tspan class="cls-21" x="123.44" y="24">o</tspan><tspan class="cls-12" x="133" y="24">mes</tspan></text><text class="cls-10" transform="translate(225.67 143.01)"><tspan x="0" y="0">The </tspan><tspan class="cls-19" x="32.8" y="0">C</tspan><tspan class="cls-7" x="46.76" y="0">a</tspan><tspan class="cls-29" x="54.52" y="0">t</tspan><tspan class="cls-20" x="60.76" y="0">a</tspan><tspan class="cls-12" x="68.42" y="0">w</tspan><tspan class="cls-5" x="81.5" y="0">b</tspan><tspan class="cls-11" x="91.3" y="0">a</tspan><tspan class="cls-2" x="99.44" y="0">-</tspan><tspan class="cls-28" x="103.7" y="0">W</tspan><tspan class="cls-7" x="120.74" y="0">a</tspan><tspan class="cls-31" x="128.5" y="0">t</tspan><tspan class="cls-1" x="134.84" y="0">e</tspan><tspan class="cls-25" x="142.48" y="0">r</tspan><tspan class="cls-30" x="149.12" y="0">e</tspan><tspan x="157.22" y="0">e Ri</tspan><tspan class="cls-7" x="186.72" y="0">v</tspan><tspan class="cls-29" x="195" y="0">e</tspan><tspan x="202.64" y="0">r is </tspan><tspan class="cls-23" x="0" y="24">u</tspan><tspan x="9.82" y="24">s</tspan><tspan class="cls-30" x="16.24" y="24">e</tspan><tspan x="24.34" y="24">d f</tspan><tspan class="cls-21" x="44.18" y="24">o</tspan><tspan x="53.74" y="24">r d</tspan><tspan class="cls-24" x="74.5" y="24">r</tspan><tspan class="cls-16" x="81.14" y="24">i</tspan><tspan class="cls-18" x="86.08" y="24">n</tspan><tspan class="cls-32" x="96.62" y="24">k</tspan><tspan class="cls-16" x="105.94" y="24">in</tspan><tspan x="121.18" y="24">g </tspan><tspan class="cls-1" x="133.48" y="24">w</tspan><tspan class="cls-8" x="146.36" y="24">a</tspan><tspan class="cls-31" x="154.12" y="24">t</tspan><tspan class="cls-1" x="160.46" y="24">e</tspan><tspan x="168.1" y="24">r f</tspan><tspan class="cls-22" x="184.76" y="24">o</tspan><tspan x="194.32" y="24">r </tspan><tspan x="0" y="48">m</tspan><tspan class="cls-22" x="15.24" y="48">o</tspan><tspan class="cls-24" x="24.8" y="48">r</tspan><tspan x="31.44" y="48">e </tspan><tspan class="cls-13" x="43.26" y="48">th</tspan><tspan x="59.48" y="48">an 2 </tspan><tspan class="cls-27" x="95.52" y="48">m</tspan><tspan class="cls-3" x="110.88" y="48">i</tspan><tspan class="cls-27" x="115.94" y="48">ll</tspan><tspan x="125.94" y="48">i</tspan><tspan class="cls-21" x="131" y="48">o</tspan><tspan x="140.56" y="48">n </tspan><tspan class="cls-26" x="154.96" y="48">p</tspan><tspan class="cls-30" x="165.06" y="48">e</tspan><tspan class="cls-22" x="173.16" y="48">o</tspan><tspan class="cls-5" x="182.72" y="48">p</tspan><tspan x="192.72" y="48">le</tspan></text></g></svg>