<?xml version="1.0" encoding="utf-8"?>
<!-- Generator: Adobe Illustrator 26.3.1, SVG Export Plug-In . SVG Version: 6.00 Build 0)  -->
<svg version="1.1" id="Layer_1" xmlns="http://www.w3.org/2000/svg" xmlns:xlink="http://www.w3.org/1999/xlink" x="0px" y="0px"
	 viewBox="0 0 1920 1080" style="enable-background:new 0 0 1920 1080;" xml:space="preserve">
<style type="text/css">
	.st0{clip-path:url(#SVGID_00000048502963351402801090000002677033354520891784_);fill:#FFFFFF;}
	
		.st1{clip-path:url(#SVGID_00000048502963351402801090000002677033354520891784_);fill:none;stroke:#1D1D1B;stroke-linecap:round;stroke-linejoin:round;}
	.st2{clip-path:url(#SVGID_00000048502963351402801090000002677033354520891784_);enable-background:new    ;}
	.st3{fill:#2A4F6F;}
	
		.st4{clip-path:url(#SVGID_00000048502963351402801090000002677033354520891784_);fill:#D8E5EB;stroke:#1D1D1B;stroke-linecap:round;stroke-linejoin:round;}
</style>
<g>
	<defs>
		<rect id="SVGID_1_" x="3" y="75.3" width="1920" height="946.5"/>
	</defs>
	<clipPath id="SVGID_00000127738245909270177490000007450929162585672323_">
		<use xlink:href="#SVGID_1_"  style="overflow:visible;"/>
	</clipPath>
	
		<rect id="Rectangle_1512_00000001643456524513811690000010657061363825451688_" x="-72.4" y="958.9" style="clip-path:url(#SVGID_00000127738245909270177490000007450929162585672323_);fill:#FFFFFF;" width="2012.4" height="108.8"/>
	
		<path id="Path_1178_00000029029214850352659780000009735204038108419493_" style="clip-path:url(#SVGID_00000127738245909270177490000007450929162585672323_);fill:none;stroke:#1D1D1B;stroke-linecap:round;stroke-linejoin:round;" d="
		M-22.7,349.5c65.1,10.4,135.8-5.3,189.8-26s100-46.9,160.4-62.7c98.4-25.7,219.9-19.4,324.2,0s197.5,50.5,297.3,74.9
		c64.1,15.6,133.1,28.7,204.6,28.1c104.5-0.8,197.8-29.9,291.7-52.5c99.7-24,208.1-41.5,319-40.9s224.7,21.1,296.3,62.7"/>
	
		<path id="Path_1179_00000031167716741235588970000016344076155403095445_" style="clip-path:url(#SVGID_00000127738245909270177490000007450929162585672323_);fill:none;stroke:#1D1D1B;stroke-linecap:round;stroke-linejoin:round;" d="
		M-46.5,363.1c55.8-4,115,6.6,168.2-2.6c29.2-5.1,52.9-15.6,76-25.7c82.2-36,178-72,288-70.9c92.6,1,174.2,28.2,252.7,52.4
		c88,27.2,180.3,52,280.4,65.5s209.4,15.2,306.2-3.3c51.5-9.8,98.1-25,147.3-37.3c60.9-15.3,125.7-26.2,190.4-37.1
		c53.4-9,107.7-18.1,164.1-19.2c56.4-1.2,116.1,6.7,154.5,27.1"/>
	
		<path id="Path_1180_00000123432194083430181010000014870840996649086861_" style="clip-path:url(#SVGID_00000127738245909270177490000007450929162585672323_);fill:none;stroke:#1D1D1B;stroke-linecap:round;stroke-linejoin:round;" d="
		M-29.5,328.4c63.8,7,130.3-6.7,182.1-26.3s93.4-45,142-66.4s108.5-39.6,173.9-39.7c78.1-0.2,145.7,24.8,209.1,47.1
		c97.5,34.4,201.7,65.6,316.9,82.1s243,17.3,351.7-7.7c129.2-29.7,226.9-93.7,368.2-103.6c101-7.1,208.4,19,258.5,62.7"/>
	
		<path id="Path_1181_00000006700399161392732690000004990191669196435638_" style="clip-path:url(#SVGID_00000127738245909270177490000007450929162585672323_);fill:none;stroke:#1D1D1B;stroke-linecap:round;stroke-linejoin:round;" d="
		M-32.4,383.6c82.1,6.9,166.6,13.8,248,5.1c52-5.6,100.5-17.3,151.8-24.3c84-11.5,172.7-9.9,259.7-8.2c36.5,0.7,73.3,1.4,108.5,6.1
		c45.7,6,86.8,18.3,130.5,27.2c118.9,24.2,252.4,22.5,380.8,17.9c49.4-1.7,99.2-3.9,146.3-11.3c41.9-6.6,80.7-17.2,121.3-25.4
		c144.8-29.4,314.6-27.4,456.4,5.3"/>
	<g style="clip-path:url(#SVGID_00000127738245909270177490000007450929162585672323_);enable-background:new    ;">
		<path class="st3" d="M590.9,341c0,8.2-7.8,20.5-17.6,26.2c-4.4,2.5-6.9,3.2-9.6,3.2c-3.7,0-7.3-2.4-7.3-8.2
			c0-2.6,2.1-9.4,4.2-15.9c2-6.6,8.9-26.4,10.5-31.3c1.1-3.2,0.1-3.8-1.9-5c-0.6-0.4-1.1-0.7-1.1-1.3c0-0.4,1.1-0.9,2.2-1.1
			c1-0.3,9.1-1.5,10-1.5c0.3,0,0.6,0.9,0.3,1.6c-2.2,4.3-12.2,31.8-14.7,39.3c-0.2,0.3,0.4,0.4,0.6,0c4.1-5.3,11.4-13.4,17.6-13.4
			C588.1,333.6,590.9,337,590.9,341z M567.4,350.2c-3.8,6.2-5.2,11.1-5.2,13.6c0,1.1,1.6,4.2,3.4,4.2c1.3,0,3.1-1,5.8-3.3
			c5.5-5.2,13.9-18,13.9-25.4c0-1.6-1.3-2.7-3-2.7C577,336.5,571.1,344.1,567.4,350.2z"/>
		<path class="st3" d="M623.5,338.9c0,2.7-2.5,6.2-6.7,8.6c-3.1,1.8-9.1,3.7-12.8,4.7c-0.6,0.2-1.2,0.7-1.4,1.3
			c-0.6,1.7-1.1,4.4-1.1,6.8c0,4.4,2.3,5.3,4.6,5.3c3,0,6.3-2,8.6-4.1c1-1,1.7-1.3,2.2-1.3c0.3,0,0.5,0.3,0.5,0.5
			c0,0.5-0.5,1.5-1,2.2c-2.2,2.5-8,7.3-14.4,7.3c-2.1,0-6.7-3.4-6.7-9.1c0-6.2,3.8-14.8,9.6-20.9c4.5-4.6,9.3-6.6,12.3-6.6
			C622.3,333.6,623.5,336.9,623.5,338.9z M604.2,349.3c-0.1,0.2-0.1,0.9,0.3,0.8c5.5-1.9,13.8-5.6,13.8-12.2c0-1.1-0.3-2.2-1.5-2.2
			C612.3,335.7,605.7,344.6,604.2,349.3z"/>
		<path class="st3" d="M650.6,334.2c0.4,0,0.7,0.9,0.7,1.1c0,0.5-1,1.9-2.1,1.9c-1.9,0-5.2,0.3-7.7,0.3c-0.3,0-0.5,0.3-0.7,0.7
			c-2.8,8.9-8.3,28.8-11.1,38.9c-2.5,8.5-6.4,10.5-8.6,12.3c-3.2,2.3-8.1,3.9-9.8,3.9c-4,0-6.2-1.8-6.1-3.9c0-1.1,2.5-4,3.8-4
			c0.3-0.1,1,0.2,1.4,0.6c1.7,2.2,3.6,3.4,5.7,3.4c2.4,0,5.2-1.4,7.8-11.6c2.8-10.4,7.5-27.8,11.1-39.5c0.1-0.2,0-0.7-0.5-0.7
			l-5.3,0.2c-0.6,0-0.9-0.5-0.9-0.9c0-1.1,1-2.1,1.7-2.1c1.6,0,4.5-0.1,5.8-0.1c0.3,0,0.5-0.4,0.6-0.6c2.9-8.4,8-20.2,14.6-24.6
			c3.5-2.5,6.2-3.2,8.6-3.2c4.5,0,6.6,2.8,6.5,5.5c-0.1,3.8-2.9,6-4.3,6c-0.4,0-0.7-0.3-0.7-0.9c0-0.4,0.1-1.3,0.1-1.8
			c0.1-3.2-1.3-6.2-3.7-6.2c-2.6,0-4.9,1.4-8.3,7.4c-2.3,4.1-5,11.7-6.6,17.4c-0.1,0.4,0.3,0.9,0.3,0.9L650.6,334.2z"/>
		<path class="st3" d="M676.9,343.4c0,11.7-8,21.5-15.2,25.2c-2.2,1.1-4.5,1.8-7.3,1.8c-3.3,0-7.6-3.4-7.6-9.4
			c0-5.3,3.7-16.4,11-22.8c2.9-2.5,6.6-4.6,10.8-4.6C674,333.6,676.9,339.2,676.9,343.4z M661.7,339.8c-4.1,4.7-8.7,15.5-8.7,24.3
			c0,2,1,3.9,3.3,3.9c1.4,0,3.3-0.9,5.8-3.9c3.8-4.6,9.2-16,9.2-23.9c0-2.5-0.9-4.2-3.2-4.2C665.9,335.9,663.9,337.1,661.7,339.8z"
			/>
		<path class="st3" d="M696.1,337.5c0,2.9-2.1,9.2-2.9,11.2c-0.5,1.6,0.4,1.3,1.6-0.6c2.1-3.6,4.6-7,6.9-9.6c2.5-3,5.2-5,7.6-5
			c2.6,0,3.3,2.1,3.3,3.6c0,3.4-3.1,6.6-4.1,6.6c-0.6,0-1-0.4-1-1.9c-0.1-1.8-0.9-3.2-1.7-3.2c-1,0-2.6,1-5.8,6
			c-3.3,5-10.8,20-12.2,22.8c-1.3,2.7-2.9,3.2-3.7,3.2c-0.7,0-1.7-0.5-2-1.2c-0.2-0.2-0.1-1.1,0-1.3c3.7-9.4,6.1-15.5,8.9-24.3
			c1-3.3,0.1-4.1-0.9-4.1c-1.4,0-3.2,1.3-4.9,3.4c-1,1.2-1.6,1.8-1.9,1.8c-0.5,0-0.7-1.5-0.3-2.5c1.8-5.1,5.8-8.6,9.4-8.6
			C694.9,333.6,696.1,335.7,696.1,337.5z"/>
		<path class="st3" d="M740.5,338.9c0,2.7-2.5,6.2-6.7,8.6c-3.1,1.8-9.1,3.7-12.8,4.7c-0.6,0.2-1.2,0.7-1.4,1.3
			c-0.6,1.7-1.1,4.4-1.1,6.8c0,4.4,2.3,5.3,4.6,5.3c3,0,6.3-2,8.6-4.1c1-1,1.7-1.3,2.2-1.3c0.3,0,0.5,0.3,0.5,0.5
			c0,0.5-0.5,1.5-1,2.2c-2.2,2.5-8,7.3-14.4,7.3c-2.1,0-6.7-3.4-6.7-9.1c0-6.2,3.8-14.8,9.6-20.9c4.5-4.6,9.3-6.6,12.3-6.6
			C739.2,333.6,740.5,336.9,740.5,338.9z M721.2,349.3c-0.1,0.2-0.1,0.9,0.3,0.8c5.5-1.9,13.8-5.6,13.8-12.2c0-1.1-0.3-2.2-1.5-2.2
			C729.3,335.7,722.6,344.6,721.2,349.3z"/>
		<path class="st3" d="M779.9,326.6c-0.3,1.1-1.8,6.2-2.1,7.2c-0.1,0.3,0.1,0.8,0.4,0.8c1.8,0,5.9,0.2,8.1,0.3
			c0.2,0,0.3,0.4,0.3,0.7c0.1,0.5-0.8,1.8-1.7,1.9c-1.3,0.1-6.5,0.4-8.1,0.4c-0.3,0-0.6,0.3-0.8,0.7c-1.2,2.8-5.9,15-8.4,22.2
			c-0.5,1.5-0.4,2.5,0.4,2.5c1.7,0,6.9-3.6,8.7-5.6c0.8-0.7,1.9-1.3,1.9-0.3c0,0.7-0.3,1.3-0.8,2.1c-3.5,4.9-12.2,10.9-16.3,10.9
			c-0.9,0-2.3-1.3-2.3-2c0-0.4,0.1-1.1,0.4-2.2c0.3-0.9,6.4-17.4,10.1-27.2c0.3-0.6,0.1-1.1-0.2-1.1c-1.2-0.1-3.4-0.2-4.6-0.3
			c-0.9-0.1-1.4-0.4-1.4-0.8c0-0.5,1.1-1.8,1.7-1.8c1.7-0.2,4.7-0.3,5.3-0.3c0.4,0,0.9-0.6,1-0.8c1.3-2.6,2.6-5.1,3.6-6.7
			c1.1-1.8,2.3-2.5,4.1-2.5C780.2,324.7,780.3,325.1,779.9,326.6z"/>
		<path class="st3" d="M813,363.8c-2,2.2-4,3.6-5.7,4.7c-2,1.3-3.3,2.1-4.4,2.1c-1.3,0-2.7-0.6-3.2-1.1c-0.7-0.7-0.8-1.1-0.8-1.6
			c0-0.5,1.6-2.8,2.2-3.2c0.3-0.2,0.3-0.3,0.5-0.2c1.4,0.5,2.9,1.7,4.7,1.7c0.6,0,1.1-0.3,1.7-1.3c2.6-3.7,7.6-19.2,7.6-24.4
			c0-2.3-1-3.5-2.5-3.5c-3.1,0-6.6,3.9-13.5,12.8c-2.5,3.5-9.1,14.6-11.1,18.7c-0.6,1.1-2.1,1.8-2.4,1.8c-1.4,0-2.5-1.7-2.3-2.7
			c6-18.6,12-38.2,16.3-52.4c0.7-2.1,0.8-3.3-2.4-4c-1.4-0.4-1.8-1.1-1.8-1.4c0-0.4,0.7-0.8,1.6-1.1c2.6-0.7,9.3-2.6,10.7-2.6
			c0.3,0,0.8,1.1,0.6,1.8c-4.3,13.6-13.3,40.1-13.7,41.7c-0.3,0.9,0.3,1,0.7,0.5c3.7-4.7,8.6-10.3,12.3-13.1
			c3.9-2.9,5.9-3.5,8.6-3.5c4.3,0,5.6,4.1,5.6,5.8C822.2,348.2,816.4,360,813,363.8z"/>
		<path class="st3" d="M855.5,338.9c0,2.7-2.5,6.2-6.7,8.6c-3.1,1.8-9.1,3.7-12.8,4.7c-0.6,0.2-1.2,0.7-1.4,1.3
			c-0.6,1.7-1.1,4.4-1.1,6.8c0,4.4,2.3,5.3,4.6,5.3c3,0,6.3-2,8.6-4.1c1-1,1.7-1.3,2.2-1.3c0.3,0,0.5,0.3,0.5,0.5
			c0,0.5-0.5,1.5-1,2.2c-2.2,2.5-8,7.3-14.4,7.3c-2.1,0-6.7-3.4-6.7-9.1c0-6.2,3.8-14.8,9.6-20.9c4.5-4.6,9.3-6.6,12.3-6.6
			C854.3,333.6,855.5,336.9,855.5,338.9z M836.2,349.3c-0.1,0.2-0.1,0.9,0.3,0.8c5.5-1.9,13.8-5.6,13.8-12.2c0-1.1-0.3-2.2-1.5-2.2
			C844.3,335.7,837.7,344.6,836.2,349.3z"/>
		<path class="st3" d="M892.6,335.7c0,0.8-0.5,2.1-0.9,3c-4.2,9.8-6.9,16.8-10,23.8c-0.2,0.4,0,1.5,1,1.5c1.3,0,5.9-3.5,8.1-5.9
			c0.9-1,1.6-1.7,2-1.7c0.2,0,0.4,0.2,0.4,0.5c0,0.8-0.6,2-1.6,3.2c-3.9,4.6-11.4,10.3-14.9,10.3c-1.3,0-2.6-1.3-2.6-2.2
			c0-0.4,0.1-0.8,0.4-1.6c3.1-7.8,6.7-16.3,10.8-25.9c0.3-0.8-0.3-1.4-0.7-1.2c-1.9,0.6-4.1,1.8-6.5,3.9c-0.4,0.4-1.1,0.3-1.1-0.3
			c0-0.6,0.5-1.5,1.1-2.2c1.7-2.1,9.3-7.4,12.3-7.4C891.3,333.6,892.6,334.9,892.6,335.7z M895.9,319.5c0,2.4-2.1,4.7-4,4.7
			c-0.4,0-0.9-0.1-1.3-0.3c-1-0.6-1.9-1.8-1.9-3.2c0-1.6,0.9-2.9,1.7-3.7c0.9-0.7,1.7-1.1,2.4-1.1
			C894.7,316,895.9,317.7,895.9,319.5z"/>
		<path class="st3" d="M935.5,338.6c0,1.5-0.3,2.7-1.2,5.2c-1.9,5.2-7.1,16.1-7.9,17.5c-0.8,1.6-0.7,2.4,0.3,2.4
			c1.7,0,5.2-2.8,7.9-5.3c0.7-0.6,1.7-0.8,1.7-0.2c0,0.9-0.6,1.8-1,2.5c-3.1,4.6-11.3,9.6-14.3,9.6c-0.8,0-1.8-0.4-2.8-1.5
			c-0.3-0.3-0.9-1.1,0.1-2.9c0.8-1.5,11.2-22.9,12.1-25.7c1-2.7,0.1-3.9-1.2-3.9c-2.1,0-5.3,2-9.9,7.5c-3.7,4.2-11.8,17.3-14.5,21.1
			c-2.4,3.7-3.5,5.3-4.5,5.3c-1.1,0-2.4-1.6-2.4-2.5c-0.2-1.3,2.4-6.5,2.7-7.3c2.4-5.5,6.6-13.9,9.2-20.6c0.5-1.1,0-1.4-0.8-1.4
			c-2.7,0-4.6,2-6.7,3.9c-0.4,0.4-0.8,0.9-1.1,0.9c-0.3,0-0.5-0.5-0.5-0.9c0-2.5,4-9.1,11.4-9.1c1.2,0,2.6,0.8,3.2,1.8
			c0.3,0.4,0.3,1.2-0.2,2.3c-0.6,1.4-4.5,10.9-5.3,12.7c-0.3,0.7,0.7,0.8,1,0.1c1.7-2.6,7.9-10,10.8-12.4c3.8-3.2,7.1-4.4,9.1-4.4
			C933.8,333.6,935.5,336.2,935.5,338.6z"/>
		<path class="st3" d="M961.9,326.6c-0.3,1.1-1.8,6.2-2.1,7.2c-0.1,0.3,0.1,0.8,0.4,0.8c1.8,0,5.9,0.2,8.1,0.3
			c0.2,0,0.3,0.4,0.3,0.7c0.1,0.5-0.8,1.8-1.7,1.9c-1.3,0.1-6.5,0.4-8.1,0.4c-0.3,0-0.6,0.3-0.8,0.7c-1.2,2.8-5.9,15-8.4,22.2
			c-0.5,1.5-0.4,2.5,0.4,2.5c1.7,0,6.9-3.6,8.7-5.6c0.8-0.7,1.9-1.3,1.9-0.3c0,0.7-0.3,1.3-0.8,2.1c-3.5,4.9-12.2,10.9-16.3,10.9
			c-0.9,0-2.3-1.3-2.3-2c0-0.4,0.1-1.1,0.4-2.2c0.3-0.9,6.4-17.4,10.1-27.2c0.3-0.6,0.1-1.1-0.2-1.1c-1.2-0.1-3.4-0.2-4.6-0.3
			c-0.9-0.1-1.4-0.4-1.4-0.8c0-0.5,1.1-1.8,1.7-1.8c1.7-0.2,4.7-0.3,5.3-0.3c0.4,0,0.9-0.6,1-0.8c1.3-2.6,2.6-5.1,3.6-6.7
			c1.1-1.8,2.3-2.5,4.1-2.5C962.3,324.7,962.4,325.1,961.9,326.6z"/>
		<path class="st3" d="M981.8,337.5c0,2.9-2.1,9.2-2.9,11.2c-0.5,1.6,0.4,1.3,1.6-0.6c2.1-3.6,4.6-7,6.9-9.6c2.5-3,5.2-5,7.6-5
			c2.6,0,3.3,2.1,3.3,3.6c0,3.4-3.1,6.6-4.1,6.6c-0.6,0-1-0.4-1-1.9c-0.1-1.8-0.9-3.2-1.7-3.2c-1,0-2.6,1-5.8,6
			c-3.3,5-10.8,20-12.2,22.8c-1.3,2.7-2.9,3.2-3.7,3.2c-0.7,0-1.7-0.5-2-1.2c-0.2-0.2-0.1-1.1,0-1.3c3.7-9.4,6.1-15.5,8.9-24.3
			c1-3.3,0.1-4.1-0.9-4.1c-1.4,0-3.2,1.3-4.9,3.4c-1,1.2-1.6,1.8-1.9,1.8c-0.5,0-0.7-1.5-0.3-2.5c1.8-5.1,5.8-8.6,9.4-8.6
			C980.6,333.6,981.8,335.7,981.8,337.5z"/>
		<path class="st3" d="M1016.5,335c0.1,0.3-0.1,1.3-0.3,1.7c-1.7,3.3-8.9,21.7-9.6,24.5c-0.6,2.4-0.3,3.4,0.9,3.4
			c3.5,0,12.1-9.6,16.6-17c3.1-4.9,5.2-9,6.6-11.6c0.7-1.2,1.7-2.4,2.5-2.4c0.8,0,2.5,1.1,2.5,2.1c0,0.7-0.4,2-1.1,3.6
			c-1.9,4.7-6.6,15.9-8.6,22.4c-0.4,1.2-0.1,1.8,0.7,1.8c1.2,0,4.8-2,8.6-6.1c0.7-0.7,1.7-0.9,1.7-0.3c0,0.5-0.3,1.1-0.7,1.9
			c-2.4,4.8-11.2,11.4-14.8,11.4c-1,0-2.3-1.5-2.3-2.4c0-0.4,0.2-0.9,0.3-1.5c0.4-1.3,3.9-10.2,4.5-11.8c0.6-1.8-0.1-1.7-1.1-0.4
			c-4.6,5.6-11.9,11.5-16.2,14.3c-1.9,1.2-3.9,1.8-5,1.8c-1,0-1.9-0.5-2.4-1.1c-0.5-0.6-1-1.8-0.3-3.8c1-2.9,7.7-19.5,9.8-24.1
			c0.4-0.9,0.2-1.2-0.3-1.2c-0.8,0-4.7,2.8-5.8,3.5c-0.9,0.6-1.8,0.6-1.9,0.1c0-0.4,0.3-1,0.6-1.4c1.1-2.2,9.3-8.9,13.5-8.9
			C1015.4,333.6,1016.2,334.3,1016.5,335z"/>
		<path class="st3" d="M1058.9,335.8c2.9-1.7,6-2.2,6.5-2.2c1.1,0,3.6,1,5.2,2.4c0.2,0.1,0.9,0,1-0.3c1-3.6,3.2-9.8,6.2-20.9
			c0.7-2.7,0.3-3.3-1.6-4.2c-1.7-0.7-2.4-1.2-2.4-1.6c0-0.3,0.9-1.1,1.4-1.1c1.7-0.5,8.1-1.8,10.1-1.8c0.5,0,0.5,1.5,0,3.6
			c-1.6,5.6-4.7,14.9-8.8,28c-2.6,8.8-5.5,18.1-7.1,23.7c-0.5,1.8,0,2.5,1,2.5c1.7,0,5.2-2.8,7.8-6.3c0.6-0.8,1-0.5,1,0.3
			c0,0.6-0.2,1.1-0.3,1.7c-1.7,4.9-8.7,11-12.9,11c-1.1,0-2.7-2.3-2.7-3.3c0-2.1,2.3-9,3.1-11.7c0.1-0.4-0.5-1-0.7-0.7
			c-6.3,9.5-13.7,15.6-19.8,15.6c-1.3,0-2.9-0.4-3.8-1.4c-0.9-1.1-1.2-2.4-1.2-4.7C1040.7,355.8,1049.3,341.2,1058.9,335.8z
			 M1048.4,366.5c2.6,0,9-4,14.1-10.8c3-4.2,4.9-8.4,6-11.7c0.9-2.4,1-4.6,0.5-6c-0.4-0.9-1.3-1.5-2.3-1.5c-1.4,0-4.5,0.9-9.4,6.3
			c-6.2,6.8-10.6,16.1-10.6,21.5C1046.8,365.6,1047.7,366.5,1048.4,366.5z"/>
		<path class="st3" d="M1112.6,338.9c0,2.7-2.5,6.2-6.7,8.6c-3.1,1.8-9.1,3.7-12.8,4.7c-0.6,0.2-1.2,0.7-1.4,1.3
			c-0.6,1.7-1.1,4.4-1.1,6.8c0,4.4,2.3,5.3,4.6,5.3c3,0,6.3-2,8.6-4.1c1-1,1.7-1.3,2.2-1.3c0.3,0,0.5,0.3,0.5,0.5
			c0,0.5-0.5,1.5-1,2.2c-2.2,2.5-8,7.3-14.4,7.3c-2.1,0-6.7-3.4-6.7-9.1c0-6.2,3.8-14.8,9.6-20.9c4.5-4.6,9.3-6.6,12.3-6.6
			C1111.3,333.6,1112.6,336.9,1112.6,338.9z M1093.3,349.3c-0.1,0.2-0.1,0.9,0.3,0.8c5.5-1.9,13.8-5.6,13.8-12.2
			c0-1.1-0.3-2.2-1.5-2.2C1101.4,335.7,1094.7,344.6,1093.3,349.3z"/>
		<path class="st3" d="M1129.5,337.5c0,2.9-2.1,9.2-2.9,11.2c-0.5,1.6,0.4,1.3,1.6-0.6c2.1-3.6,4.6-7,6.9-9.6c2.5-3,5.2-5,7.6-5
			c2.6,0,3.3,2.1,3.3,3.6c0,3.4-3.1,6.6-4.1,6.6c-0.6,0-1-0.4-1-1.9c-0.1-1.8-0.9-3.2-1.7-3.2c-1,0-2.6,1-5.8,6
			c-3.3,5-10.8,20-12.2,22.8c-1.3,2.7-2.9,3.2-3.7,3.2c-0.7,0-1.7-0.5-2-1.2c-0.2-0.2-0.1-1.1,0-1.3c3.7-9.4,6.1-15.5,8.9-24.3
			c1-3.3,0.1-4.1-0.9-4.1c-1.4,0-3.2,1.3-4.9,3.4c-1,1.2-1.6,1.8-1.9,1.8c-0.5,0-0.7-1.5-0.3-2.5c1.8-5.1,5.8-8.6,9.4-8.6
			C1128.3,333.6,1129.5,335.7,1129.5,337.5z"/>
		<path class="st3" d="M1166.4,335.2c0.4,0.4,0.9,1.1,0.9,1.9c0,1.1-1.7,3.1-2.3,3.5c-0.3,0.2-0.9,0-1.3-0.3
			c-2.1-1.2-3.2-2.9-5.5-2.9c-1,0-3.5,1.4-3.5,4.1c0,2.5,2,5.6,4.1,8.5c2.2,3.5,3.5,5.9,3.5,7.7c0,3-2,5.8-4.8,8.2
			c-3.5,3.1-8.2,4.3-10.1,4.3s-5.5-1.8-5.5-4.6c0-0.7,0.9-2.5,1.7-3.5c0.2-0.2,1-0.3,1.3,0c1.7,1.8,4.7,3.9,7.7,3.9
			c2.5,0,4.6-2,4.6-4.7c0-1.8-1.4-4.1-3.8-7.8c-2.4-3.6-3.3-6-3.3-8c0-3.6,2.3-6.2,4.8-8.5c2.9-2.5,5.8-3.4,7.6-3.4
			C1164.1,333.6,1165.8,334.5,1166.4,335.2z"/>
		<path class="st3" d="M1217.1,343.4c0,11.7-8,21.5-15.2,25.2c-2.2,1.1-4.5,1.8-7.3,1.8c-3.3,0-7.6-3.4-7.6-9.4
			c0-5.3,3.7-16.4,11-22.8c2.9-2.5,6.6-4.6,10.8-4.6C1214.3,333.6,1217.1,339.2,1217.1,343.4z M1201.9,339.8
			c-4.1,4.7-8.7,15.5-8.7,24.3c0,2,1,3.9,3.3,3.9c1.4,0,3.3-0.9,5.8-3.9c3.8-4.6,9.2-16,9.2-23.9c0-2.5-0.9-4.2-3.2-4.2
			C1206.2,335.9,1204.2,337.1,1201.9,339.8z"/>
		<path class="st3" d="M1247,334.2c0.4,0,0.7,0.9,0.7,1.1c0,0.5-1,1.9-2.1,1.9c-1.9,0-5.2,0.3-7.7,0.3c-0.3,0-0.5,0.3-0.7,0.7
			c-2.8,8.9-8.3,28.8-11.1,38.9c-2.5,8.5-6.4,10.5-8.6,12.3c-3.2,2.3-8.1,3.9-9.8,3.9c-4,0-6.2-1.8-6.1-3.9c0-1.1,2.5-4,3.8-4
			c0.3-0.1,1,0.2,1.4,0.6c1.7,2.2,3.6,3.4,5.7,3.4c2.4,0,5.2-1.4,7.8-11.6c2.8-10.4,7.5-27.8,11.1-39.5c0.1-0.2,0-0.7-0.5-0.7
			l-5.3,0.2c-0.6,0-0.9-0.5-0.9-0.9c0-1.1,1-2.1,1.7-2.1c1.6,0,4.5-0.1,5.8-0.1c0.3,0,0.5-0.4,0.6-0.6c2.9-8.4,8-20.2,14.6-24.6
			c3.5-2.5,6.2-3.2,8.6-3.2c4.5,0,6.6,2.8,6.5,5.5c-0.1,3.8-2.9,6-4.3,6c-0.4,0-0.7-0.3-0.7-0.9c0-0.4,0.1-1.3,0.1-1.8
			c0.1-3.2-1.3-6.2-3.7-6.2c-2.6,0-4.9,1.4-8.3,7.4c-2.3,4.1-5,11.7-6.6,17.4c-0.1,0.4,0.3,0.9,0.3,0.9L1247,334.2z"/>
		<path class="st3" d="M1282.1,326.6c-0.3,1.1-1.8,6.2-2.1,7.2c-0.1,0.3,0.1,0.8,0.4,0.8c1.8,0,5.9,0.2,8.1,0.3
			c0.2,0,0.3,0.4,0.3,0.7c0.1,0.5-0.8,1.8-1.7,1.9c-1.3,0.1-6.5,0.4-8.1,0.4c-0.3,0-0.6,0.3-0.8,0.7c-1.2,2.8-5.9,15-8.4,22.2
			c-0.5,1.5-0.4,2.5,0.4,2.5c1.7,0,6.9-3.6,8.7-5.6c0.8-0.7,1.9-1.3,1.9-0.3c0,0.7-0.3,1.3-0.8,2.1c-3.5,4.9-12.2,10.9-16.3,10.9
			c-0.9,0-2.3-1.3-2.3-2c0-0.4,0.1-1.1,0.4-2.2c0.3-0.9,6.4-17.4,10.1-27.2c0.3-0.6,0.1-1.1-0.2-1.1c-1.2-0.1-3.4-0.2-4.6-0.3
			c-0.9-0.1-1.4-0.4-1.4-0.8c0-0.5,1.1-1.8,1.7-1.8c1.7-0.2,4.7-0.3,5.3-0.3c0.4,0,0.9-0.6,1-0.8c1.3-2.6,2.6-5.1,3.6-6.7
			c1.1-1.8,2.3-2.5,4.1-2.5C1282.4,324.7,1282.5,325.1,1282.1,326.6z"/>
		<path class="st3" d="M1315.2,363.8c-2,2.2-4,3.6-5.7,4.7c-2,1.3-3.3,2.1-4.4,2.1c-1.3,0-2.7-0.6-3.2-1.1c-0.7-0.7-0.8-1.1-0.8-1.6
			c0-0.5,1.6-2.8,2.2-3.2c0.3-0.2,0.3-0.3,0.5-0.2c1.4,0.5,2.9,1.7,4.7,1.7c0.6,0,1.1-0.3,1.7-1.3c2.6-3.7,7.6-19.2,7.6-24.4
			c0-2.3-1-3.5-2.5-3.5c-3.1,0-6.6,3.9-13.5,12.8c-2.5,3.5-9.1,14.6-11.1,18.7c-0.6,1.1-2.1,1.8-2.4,1.8c-1.4,0-2.5-1.7-2.3-2.7
			c6-18.6,12-38.2,16.3-52.4c0.7-2.1,0.8-3.3-2.4-4c-1.4-0.4-1.8-1.1-1.8-1.4c0-0.4,0.7-0.8,1.6-1.1c2.6-0.7,9.3-2.6,10.7-2.6
			c0.3,0,0.8,1.1,0.6,1.8c-4.3,13.6-13.3,40.1-13.7,41.7c-0.3,0.9,0.3,1,0.7,0.5c3.7-4.7,8.6-10.3,12.3-13.1
			c3.9-2.9,5.9-3.5,8.6-3.5c4.3,0,5.6,4.1,5.6,5.8C1324.4,348.2,1318.6,360,1315.2,363.8z"/>
		<path class="st3" d="M1357.7,338.9c0,2.7-2.5,6.2-6.7,8.6c-3.1,1.8-9.1,3.7-12.8,4.7c-0.6,0.2-1.2,0.7-1.4,1.3
			c-0.6,1.7-1.1,4.4-1.1,6.8c0,4.4,2.3,5.3,4.6,5.3c3,0,6.3-2,8.6-4.1c1-1,1.7-1.3,2.2-1.3c0.3,0,0.5,0.3,0.5,0.5
			c0,0.5-0.5,1.5-1,2.2c-2.2,2.5-8,7.3-14.4,7.3c-2.1,0-6.7-3.4-6.7-9.1c0-6.2,3.8-14.8,9.6-20.9c4.5-4.6,9.3-6.6,12.3-6.6
			C1356.5,333.6,1357.7,336.9,1357.7,338.9z M1338.4,349.3c-0.1,0.2-0.1,0.9,0.3,0.8c5.5-1.9,13.8-5.6,13.8-12.2
			c0-1.1-0.3-2.2-1.5-2.2C1346.5,335.7,1339.9,344.6,1338.4,349.3z"/>
	</g>
	
		<path id="Path_1182_00000135662186437123814570000008823292954268344727_" style="clip-path:url(#SVGID_00000127738245909270177490000007450929162585672323_);fill:none;stroke:#1D1D1B;stroke-linecap:round;stroke-linejoin:round;" d="
		M-27.3,403.6c72.3-6.5,145.5,12.7,218.5,8.7c64.4-3.5,122.8-24.8,187.4-23"/>
	
		<path id="Path_1183_00000144335115635715875430000013740182679338479506_" style="clip-path:url(#SVGID_00000127738245909270177490000007450929162585672323_);fill:none;stroke:#1D1D1B;stroke-linecap:round;stroke-linejoin:round;" d="
		M-38.1,434.7L72,431.4c17.9-0.5,36-1.1,53.8,0c21.2,1.2,41.6,4.5,62.4,6.9c27.1,3,54.9,4.3,82.6,5.5"/>
	
		<path id="Path_1184_00000015318468263877469200000008193941825148221861_" style="clip-path:url(#SVGID_00000127738245909270177490000007450929162585672323_);fill:none;stroke:#1D1D1B;stroke-linecap:round;stroke-linejoin:round;" d="
		M-29.7,463.1c32.5-2.6,65-5.1,97.9-5.5c40.5-0.4,80.7,2.5,120.8,5.4"/>
	
		<path id="Path_1185_00000127037200089175078750000006626452818418391959_" style="clip-path:url(#SVGID_00000127738245909270177490000007450929162585672323_);fill:#D8E5EB;stroke:#1D1D1B;stroke-linecap:round;stroke-linejoin:round;" d="
		M1948.3,373c-68.5,15.6-149,22.8-220.2,10.2c-34.9-6.2-65.6-16.7-98.9-24.6c-92.3-22-205-22.8-298.6-2.1
		c-88.4,19.6-157.3,56.3-246.8,74.6c-83.8,17.1-179.9,16.3-267.5,4.5s-167.9-33.7-243.5-58.2c-50.4-16.3-103.2-34.5-163.8-35.3
		c-63-0.7-120.3,17.9-164.9,39.5s-81.9,46.9-132,65.5c-56.5,21-127.9,32.3-199.1,31.6c-12.4,0-29.8,3.5-42.3,3.5"/>
	
		<path id="Path_1186_00000094585134293850233650000014552348804035154605_" style="clip-path:url(#SVGID_00000127738245909270177490000007450929162585672323_);fill:#D8E5EB;stroke:#1D1D1B;stroke-linecap:round;stroke-linejoin:round;" d="
		M-125.9,497.8c71,6,144.4-5.9,205-24.8c60.6-18.8,110.9-44.2,162.9-68.2c52.4-24.3,117.6-49.2,189.6-44.1
		c46.5,3.3,84.7,18.5,123.2,31.5c144.9,48.6,328.3,69.9,503.4,58.5c29.9-1.9,59.6-4.8,87.6-10.2c95.6-18.3,162.9-64,262.3-76.8
		c172.2-22.2,339.3,63.5,515.4,50"/>
	
		<path id="Path_1187_00000141439417201962728560000013936180281784774026_" style="clip-path:url(#SVGID_00000127738245909270177490000007450929162585672323_);fill:none;stroke:#1D1D1B;stroke-linecap:round;stroke-linejoin:round;" d="
		M-137.5,516c58.7,2.9,120.3,5.5,174.6-5.8c44.1-9.1,78.5-26.5,114.3-42.1c96.9-42.1,228.3-75,352.5-57.4
		c64.7,9.2,118.8,30.9,180.4,44.4c52.2,11.4,109,16.8,165.7,20.2c64.6,3.9,130.4,5.5,194.4-0.2c83.5-7.4,160.3-26.5,239.3-41.6
		s165.4-26.4,248.1-17c39.9,4.5,76.9,13.7,115.6,20.3c107.9,18.6,225.4,17.6,339.6,13.9"/>
	
		<path id="Path_1188_00000082356688109927682800000000994107787427432842_" style="clip-path:url(#SVGID_00000127738245909270177490000007450929162585672323_);fill:none;stroke:#1D1D1B;stroke-linecap:round;stroke-linejoin:round;" d="
		M-39.3,547.3c90.4,8.6,181.5-10.1,264.7-29.5c83.2-19.4,170.8-40.4,262.5-36.5c45.7,1.9,89.7,10,135.5,11.1
		c89.4,2.2,182.3-22,265.3-5.5"/>
	
		<path id="Path_1189_00000132086216069264285960000016172737982273174658_" style="clip-path:url(#SVGID_00000127738245909270177490000007450929162585672323_);fill:none;stroke:#1D1D1B;stroke-linecap:round;stroke-linejoin:round;" d="
		M1255.7,483.7c77.4-0.3,145.7-23.6,219.3-35.3c91.8-14.6,195.2-10.7,281.4,10.7c22.9,5.7,44.8,12.6,69.2,16.2
		c34,5.1,70.4,3.7,105.9,2.2"/>
	
		<path id="Path_1190_00000158029593587882041850000002877570301842281137_" style="clip-path:url(#SVGID_00000127738245909270177490000007450929162585672323_);fill:none;stroke:#1D1D1B;stroke-linecap:round;stroke-linejoin:round;" d="
		M286.4,532.2c74.9-20.9,161.6-31.3,247.5-29.8c48.1,0.8,96.3,5.3,144.2,2.9c55.1-2.8,109.4-14.7,164.1-10.3"/>
	
		<path id="Path_1191_00000041273487304136527160000006979148696165842308_" style="clip-path:url(#SVGID_00000127738245909270177490000007450929162585672323_);fill:none;stroke:#1D1D1B;stroke-linecap:round;stroke-linejoin:round;" d="
		M1292.4,494.1c92.8,9,184.3-16.4,278.6-20.4c42.6-1.8,85.3,0.8,127.7,3.4l139.1,8.6"/>
	
		<path id="Path_1192_00000158725438788003756310000015618452212109037201_" style="clip-path:url(#SVGID_00000127738245909270177490000007450929162585672323_);fill:none;stroke:#1D1D1B;stroke-linecap:round;stroke-linejoin:round;" d="
		M331.2,553.2c125.2-32.9,279.5-37.6,412-12.5"/>
	
		<path id="Path_1193_00000024698106184280349870000004347069157719445894_" style="clip-path:url(#SVGID_00000127738245909270177490000007450929162585672323_);fill:none;stroke:#1D1D1B;stroke-linecap:round;stroke-linejoin:round;" d="
		M1331.8,541.3c43.4-0.5,85.2-7.8,126.6-14.3c107.4-16.9,224.1-29.1,332-12.9"/>
	
		<path id="Path_1194_00000147197473691356827400000002994469565248484742_" style="clip-path:url(#SVGID_00000127738245909270177490000007450929162585672323_);fill:none;stroke:#1D1D1B;stroke-linecap:round;stroke-linejoin:round;" d="
		M-15.3,286.4c17-3.7,32.9,5.7,49.9,9.3c8.6,1.8,18.2,2.1,27.6,2.3c35.7,0.5,71.5-1.7,106.9-6.5"/>
	
		<path id="Path_1195_00000181064834623940778200000013524247000429641878_" style="clip-path:url(#SVGID_00000127738245909270177490000007450929162585672323_);fill:none;stroke:#1D1D1B;stroke-linecap:round;stroke-linejoin:round;" d="
		M717.2,256c135-19.8,276.2,19.7,417.1,19.2c127.3-0.4,257.1-33.4,377-12.4"/>
	
		<path id="Path_1196_00000127030557528683377480000014103066646943301044_" style="clip-path:url(#SVGID_00000127738245909270177490000007450929162585672323_);fill:none;stroke:#1D1D1B;stroke-linecap:round;stroke-linejoin:round;" d="
		M804.8,282.6c124.9-16.8,252,29.7,381,24.4c90.5-3.7,176.7-32.8,265.5-23.5"/>
	
		<path id="Path_1197_00000060019279738556454000000012258051187258049468_" style="clip-path:url(#SVGID_00000127738245909270177490000007450929162585672323_);fill:none;stroke:#1D1D1B;stroke-linecap:round;stroke-linejoin:round;" d="
		M645.9,228c232.3-25.5,477.1,14.9,711.5-5.5c66.5-5.8,131.4-16.5,198.8-19c125.3-4.7,252.8,19.1,375.3,5.4"/>
	
		<path id="Path_1198_00000103967585059461518190000003415966272946161040_" style="clip-path:url(#SVGID_00000127738245909270177490000007450929162585672323_);fill:none;stroke:#1D1D1B;stroke-linecap:round;stroke-linejoin:round;" d="
		M-8.9,266.1c15.1-1.4,30.2-2.7,44.8-5.1c11-1.8,21.6-4.2,32.9-5.4c11.9-1.1,23.9-1.5,35.9-1.2l146.1,0.2"/>
	
		<path id="Path_1199_00000042009211212969567170000016103768035675799693_" style="clip-path:url(#SVGID_00000127738245909270177490000007450929162585672323_);fill:none;stroke:#1D1D1B;stroke-linecap:round;stroke-linejoin:round;" d="
		M-22.4,223.7c75.9-2.1,153.3-4,226.8,5.7c30.8,4.1,63.6,10.2,93.6,4.8"/>
	
		<path id="Path_1200_00000112614473082309897510000010439868113766663819_" style="clip-path:url(#SVGID_00000127738245909270177490000007450929162585672323_);fill:none;stroke:#1D1D1B;stroke-linecap:round;stroke-linejoin:round;" d="
		M-22.1,190.1c157,19.1,311.6-32,471.9-42.5c90.8-6,182.8,1.3,273.3,8.2c272.2,20.8,551,38.9,821.8,14.2
		c65.7-6,130.6-14.5,197.1-17.2c83.2-3.4,168.1,2.3,249.9-5.9"/>
	
		<path id="Path_1201_00000093138938328989461390000000733345461295972282_" style="clip-path:url(#SVGID_00000127738245909270177490000007450929162585672323_);fill:none;stroke:#1D1D1B;stroke-linecap:round;stroke-linejoin:round;" d="
		M-15.2,208.5c63.7-0.3,127.7-0.8,190.7-5.4c22.5-1.6,45.5-3.8,67.9-1.7c12.1,1.2,23.6,3.6,35.4,5.3c27.2,3.9,54.9,4.2,82.2,1"/>
	
		<path id="Path_1202_00000047761045328355653760000013127058977083441573_" style="clip-path:url(#SVGID_00000127738245909270177490000007450929162585672323_);fill:none;stroke:#1D1D1B;stroke-linecap:round;stroke-linejoin:round;" d="
		M561.6,202.8C682.3,206.1,801,182,921.5,186c52.1,1.8,102.9,8.8,154.4,13.2c310.4,26.7,632.3-40.7,940.9-9.4"/>
	
		<path id="Path_1203_00000150087118888062659350000009728124301310378881_" style="clip-path:url(#SVGID_00000127738245909270177490000007450929162585672323_);fill:#D8E5EB;stroke:#1D1D1B;stroke-linecap:round;stroke-linejoin:round;" d="
		M2081.5,456c-82.7-6.9-169.9-0.2-244.3,18.9c-95.3,24.5-177.1,69.6-284.7,69.9c-75,0.2-141.5-21.9-205.5-41.2
		c-83.6-25.1-175.7-47.2-273.6-47.4c-63.6-0.1-126,9-184.4,21.4c-56.3,11.7-111.7,27.2-165.9,46.5c-46,16.5-90.9,35.8-146.5,41.8
		c-118.1,12.8-223.6-38-341.9-50.4c-99.5-10.4-209.5,9.4-271.9,48.9c-13.3,73.1-10,147.2-23.3,220.3c-0.8,4.3-6.5,8.4-1.3,11.8
		c6.6,4.4,11.4,310.3,22.5,310.3c637.4,0.3,1343.9,20.3,1981.3,20.6c140.9,0.1-98.8-313.7,42.1-314.9c63.7-0.5-98.3-83.8-38.3-94.5
		c-6.6-44.9,41.8-43.7,0-83.7c-27.4-26.2,1-35.5-13.8-64.1c-11-21.3-4.2-35.2-2.4-57.1c1.4-17,25.5-4.8,1.4-17
		c-10.7-5.4,29.2-20.5,14.7-23C1889.7,463.4,2136.2,444.4,2081.5,456z"/>
	
		<path id="Path_1204_00000130636378262248891610000017180022665586263682_" style="clip-path:url(#SVGID_00000127738245909270177490000007450929162585672323_);fill:none;stroke:#1D1D1B;stroke-linecap:round;stroke-linejoin:round;" d="
		M-49.3,570.1c72-1.5,130.9-29.4,201.3-36.9c126.3-13.5,243.2,40.1,372.2,44c168.9,5,303-74.3,470.6-85.5
		c112-7.5,221.5,16.4,326.5,37s223.1,38.2,329,18.6c33.9-6.2,64.6-16,98.6-22.2c72-13,151.6-8.6,227.8-4"/>
	
		<path id="Path_1205_00000183243748901408058840000017049209820378267544_" style="clip-path:url(#SVGID_00000127738245909270177490000007450929162585672323_);fill:none;stroke:#1D1D1B;stroke-linecap:round;stroke-linejoin:round;" d="
		M-72.9,613.4l220.3-52.3c24.3-5.8,49.4-11.6,76.3-12.2c50.8-1.1,94,16.5,137.9,29.1c97.5,27.9,220.5,33,326.1,13.6
		c74.2-13.6,137.7-38.1,205.5-58.3c67.8-20.2,145.6-36.7,224.1-31.5c52.2,3.5,99.6,16.2,147.2,27.3c71.7,16.5,144.2,29.4,217.1,38.7
		c76.9,9.9,161.5,15.7,233.6-0.7c29.8-6.8,56-17.1,86.3-23.3c51-10.5,108.6-8.5,163.7-6.3"/>
	
		<path id="Path_1206_00000049197317170155418110000000374673002867290299_" style="clip-path:url(#SVGID_00000127738245909270177490000007450929162585672323_);fill:none;stroke:#1D1D1B;stroke-linecap:round;stroke-linejoin:round;" d="
		M-59.5,660.8c48.8,2.1,67.7-2.8,107.8-16.6c61.1-21,96.4-62.5,169.8-68.7c59.5-5,113.2,16.1,168.3,28.2
		c104.8,22.9,227.5,13.3,335.3-5.9s209-47.4,319.6-62.3c30.7-4.1,62.3-7.2,94.1-6.8c54.9,0.6,107,11.1,157.9,21.2
		c155,30.9,326.9,60.2,485.8,34.5c51.6-8.3,101.3-22.4,155.6-21.9"/>
	
		<path id="Path_1207_00000102528904804262807410000002019722617679898265_" style="clip-path:url(#SVGID_00000127738245909270177490000007450929162585672323_);fill:none;stroke:#1D1D1B;stroke-linecap:round;stroke-linejoin:round;" d="
		M-44.4,677.8c50.9,2.5,102-0.6,152.2-9.3c20.7-3.7,40.7-8.4,61.9-11.4c37.3-5.4,77-5.8,116.1-6.1l189.9-1.4"/>
	
		<path id="Path_1208_00000115499314351935644630000000799659118238579359_" style="clip-path:url(#SVGID_00000127738245909270177490000007450929162585672323_);fill:none;stroke:#1D1D1B;stroke-linecap:round;stroke-linejoin:round;" d="
		M855.7,598.6c88.1-21,180.5-42.4,278.3-41.1c51.8,0.7,102.3,7.9,151.6,15.7c55.4,8.8,110.2,18.6,164.3,29.3
		c48.7,9.7,97,20.1,148.2,25.8c113.3,12.7,231.8,1.4,347.6,5.9"/>
	
		<path id="Path_1209_00000075862095673712331030000013999828120345094799_" style="clip-path:url(#SVGID_00000127738245909270177490000007450929162585672323_);fill:none;stroke:#1D1D1B;stroke-linecap:round;stroke-linejoin:round;" d="
		M1354.5,672.2c90.8-5.6,181.9,7.6,273.3,8c42.7,0.2,85.2-2.5,127.6-5.1c59.6-3.7,119.7-7.5,176.6-16.9"/>
	
		<path id="Path_1210_00000057827738960885441580000008073113531487549585_" style="clip-path:url(#SVGID_00000127738245909270177490000007450929162585672323_);fill:none;stroke:#1D1D1B;stroke-linecap:round;stroke-linejoin:round;" d="
		M1428.4,696.4c89-9,177.9,11.2,266.4,21.5c77.3,9,157.5,10.5,237,9.5"/>
	
		<path id="Path_1211_00000176009101158082142450000016036467486551164573_" style="clip-path:url(#SVGID_00000127738245909270177490000007450929162585672323_);fill:none;stroke:#1D1D1B;stroke-linecap:round;stroke-linejoin:round;" d="
		M1626.3,745.1c88.9-2.3,179.3-4.4,265.8,5.9c19,2.3,37.7,5.1,56.3,8"/>
	
		<path id="Path_1212_00000134942812161096474450000008939785604377019833_" style="clip-path:url(#SVGID_00000127738245909270177490000007450929162585672323_);fill:none;stroke:#1D1D1B;stroke-linecap:round;stroke-linejoin:round;" d="
		M1148.2,617.1c61.8-2.2,124.8-4.3,185.1,2.8c58.7,6.9,112.4,22.3,171.5,28.5c38.7,4.1,78.5,4.1,118.1,3.9
		c114.4-0.3,228.9-1.5,343.3-3.4"/>
	
		<path id="Path_1213_00000138545706640347655070000007510699681452067744_" style="clip-path:url(#SVGID_00000127738245909270177490000007450929162585672323_);fill:none;stroke:#1D1D1B;stroke-linecap:round;stroke-linejoin:round;" d="
		M-43.9,719c17.8-8.1,43-8.8,66.2-8.8c54.4,0,108.9,2.4,162.7,6.9"/>
	<g style="clip-path:url(#SVGID_00000127738245909270177490000007450929162585672323_);enable-background:new    ;">
		<path class="st3" d="M262,477.2c5.5,0.8,12.9,3.6,16.1,4c1.1,0,3.2,1.5,3.2,6.4c0,4.5,1.1,13.8,1.5,18.4c0.2,4.5-1.5,7-3.2,7
			c-1.1,0-2.3-2.3-3.4-5.5c-1.9-7.4-5.9-13.8-8.7-15.9c-11.6-8.7-22.4-11-33.8-11c-34,0-55.8,28.2-55.8,60.2c0,14.2,2.7,25.7,7.4,35
			c11.8,24.4,36.4,33.9,53.5,33.9c4,0,14.4-0.6,23-5.7c9.3-4.9,14.6-11.7,19.7-20.6c2.7-4.5,3.6-5.5,4.4-5.5c2.1,0,2.3,4.7,1.9,7
			c-0.6,5.3-5.5,16.5-8.5,21.4c-0.8,1.9-4.4,4.5-6.6,5.5c-3.4,1.5-20.5,5.9-38.5,5.9c-29.8,0-51.6-14.8-60-24.8
			c-8-9.3-17.8-24.6-17.8-48.8s14.4-43.5,23.3-50.9c18.2-14.8,37.8-19.5,57.3-19.5C244.5,473.8,254,475.3,262,477.2z"/>
		<path class="st3" d="M377.6,479.3c1.7,5.7,5.3,15.3,9.3,26.3c11,31,26.8,72.9,30.4,81.6c7,17.4,10.4,19.1,19.9,21.4
			c3.4,1.1,5.1,2.1,5.1,3.6c0,1.5-1.5,2.8-6.8,2.8c-7,0-17.3-1.1-26.6-1.1c-6.8,0-9.7,0.4-15,0.4c-5.3,0-6.6-1.5-6.6-2.5
			c0-1.1,1.3-2.8,5.1-3.4c10.1-2.1,9.3-6.4,8.5-10.8c-1.7-8.7-7-22.7-11.8-36.3c-0.2-0.8-1.1-2.1-7.2-2.1c-11.6,0-30.2,0.2-34.7,0.8
			c-0.8,0-1.9,1.1-2.3,1.7c-5.5,13.8-11,31.8-11,37.1c0,2.5,0.8,6.1,10.4,9.1c3.6,1.1,5.7,2.3,5.7,3.8c0,2.1-3.2,2.8-5.9,2.8
			c-3.6,0-8.9-0.6-16.7-0.6s-18.8,1.1-22,1.1c-3.8,0-4.9-0.8-4.9-2.1c0-1.3,1.5-3.2,4.7-4.2c10.6-3.6,13.3-4.2,19.4-18
			c4.9-10.8,29-74.9,37.8-96.5c1.3-3,1.5-4.2,1.9-5.5c0.2-0.6,0.6-1.9,1.5-3.6c1.3-2.1,3.6-6.1,5.1-8.5c1.5-1.7,2.3-2.8,3.4-2.8
			C375.1,473.8,376,474.6,377.6,479.3z M384.4,548c-3.6-10.8-14.6-42.6-16.5-45.6c-0.6-1.3-1.1-1.5-1.7,0
			c-3.8,10.2-14.8,39.9-16.5,46.4c-0.2,0.8,0.2,1.5,1.1,1.5c8.5-0.2,26,0,33-0.6C384,549.7,384.6,548.6,384.4,548z"/>
		<path class="st3" d="M540.6,477.2c7.6-0.4,11.4-1.7,14.4-3.8c1.5-0.8,2.1-1.3,3-1.3c1.1,0,1.9,1.9,0.8,4.9
			c-2.1,6.6-3.4,13.4-4.7,24.4c-0.2,1.9-1.9,4-3.6,4c-1.5,0-2.3-1.5-3-6.8c-1.3-11-4-12.1-17.1-12.7c-3.6-0.2-27.1-0.2-29.6,0.4
			c-1.1,0.2-1.9,2.3-1.9,2.8c0,10,0,33.5,0,52c0,24.6,0,44.7,0.8,52.6c1.1,9.5,2.1,12.1,15.2,15.1c2.7,0.6,5.7,2.3,5.7,3.8
			c0,2.3-3.8,2.5-5.9,2.5c-1.7,0-14.8-1.1-24.1-1.1c-10.6,0-21.3,1.5-24.1,1.5c-4.2,0-6.3-1.3-6.3-2.5c0-1.5,2.1-3.2,4-3.6
			c14.8-3.4,15.2-7,15.9-22.9c0.4-12.5,1.5-55.8,1.5-72.1c0-12.1,0-16.1,0-25.2c0-1.7-1.1-2.8-1.7-2.8c-4.2-0.6-22.8-1.1-26.2-1.1
			c-8,0-12.5,1.3-15.6,4.9c-0.8,0.6-3.4,4-7,11c-1.9,4.5-3.2,4.2-4,4.2c-1.3,0-2.1-2.8-2.1-4.9c0-4,4-15.7,4-28.2
			c0-1.3,1.9-3.4,3.2-3.4c1.1,0,1.1,1.5,3.4,3.4c0.6,0.6,4,3.8,7.2,4c5.5,0.6,22.4,1.3,49.5,1.3C503.2,477.6,532,477.4,540.6,477.2z
			"/>
		<path class="st3" d="M617.6,479.3c1.7,5.7,5.3,15.3,9.3,26.3c11,31,26.8,72.9,30.4,81.6c7,17.4,10.4,19.1,19.9,21.4
			c3.4,1.1,5.1,2.1,5.1,3.6c0,1.5-1.5,2.8-6.8,2.8c-7,0-17.3-1.1-26.6-1.1c-6.8,0-9.7,0.4-15,0.4c-5.3,0-6.6-1.5-6.6-2.5
			c0-1.1,1.3-2.8,5.1-3.4c10.1-2.1,9.3-6.4,8.5-10.8c-1.7-8.7-7-22.7-11.8-36.3c-0.2-0.8-1.1-2.1-7.2-2.1c-11.6,0-30.2,0.2-34.7,0.8
			c-0.8,0-1.9,1.1-2.3,1.7c-5.5,13.8-11,31.8-11,37.1c0,2.5,0.8,6.1,10.4,9.1c3.6,1.1,5.7,2.3,5.7,3.8c0,2.1-3.2,2.8-5.9,2.8
			c-3.6,0-8.9-0.6-16.7-0.6c-7.8,0-18.8,1.1-22,1.1c-3.8,0-4.9-0.8-4.9-2.1c0-1.3,1.5-3.2,4.7-4.2c10.6-3.6,13.3-4.2,19.4-18
			c4.9-10.8,29-74.9,37.8-96.5c1.3-3,1.5-4.2,1.9-5.5c0.2-0.6,0.6-1.9,1.5-3.6c1.3-2.1,3.6-6.1,5.1-8.5c1.5-1.7,2.3-2.8,3.4-2.8
			C615,473.8,615.9,474.6,617.6,479.3z M624.3,548c-3.6-10.8-14.6-42.6-16.5-45.6c-0.6-1.3-1.1-1.5-1.7,0
			c-3.8,10.2-14.8,39.9-16.5,46.4c-0.2,0.8,0.2,1.5,1.1,1.5c8.5-0.2,26,0,33-0.6C623.9,549.7,624.5,548.6,624.3,548z"/>
		<path class="st3" d="M663.2,477c9.3,0,14,0.6,22.6,0.6c4.9,0,15.9-0.6,17.8-0.6c4,0,5.3,1.1,5.3,2.5c0,1.5-1.3,2.8-5.7,4
			c-7.2,1.9-7.8,4.9-6.6,8.5c4.2,10.4,27.1,64.5,41.4,95.4c0.2,0.6,1.3,0.8,1.7,0.2c1.7-2.8,11.2-21.8,18.2-37.5
			c0.2-0.4,0.4-1.9-0.2-3c-8-19.3-17.8-41.1-20.3-46.6c-6.1-12.9-7.4-14.6-15.6-17c-3.8-1.1-5.3-2.5-5.3-3.8c0-1.7,3-2.3,6.1-2.3
			c2.7,0,10.6,0.2,17.3,0.2c9.7,0,18-0.6,20.1-0.6c2.7,0,5.3,0.8,5.3,2.3c0,1.9-1.7,3.4-5.1,4c-9.1,1.7-9.5,3.4-6.6,10.2
			c1.9,4.9,7.4,17.4,15.2,34.8c0.2,0.6,1.3,0.4,1.7,0c5.1-10.4,9.1-19.3,13.3-29.1c5.3-11.7,2.1-14.2-6.6-16.3
			c-2.5-0.6-4.4-2.3-4.4-3.2c0-1.5,1.3-2.5,6.1-2.5c3.8,0,7.8,0.4,14.8,0.4c6.3,0,13.7-0.4,17.3-0.4c2.7,0,4.7,0.6,4.7,2.1
			c0,2.1-1.7,3-5.9,4c-7.6,1.9-10.6,4.7-16.5,15.3c-2.1,3.6-7.8,13.6-20.1,37.7c-0.2,0.6,0.2,3.2,0.6,3.6
			c7.6,18,17.1,38.8,21.1,46.2c0.4,1.3,1.3,1.9,2.3,0c9.1-19.5,26.2-58.1,38.7-86.5c4-9.8,3-13.8-6.8-16.5c-2.7-0.8-4.9-2.1-4.9-3.4
			c0-1.9,1.9-2.5,5.5-2.5c4.9,0,10.4,0.4,14.4,0.4c6.3,0,13.5-0.6,20.1-0.6c3.6,0,5.5,0.8,5.5,2.3c0,1.7-1.5,3-5.3,3.8
			c-8.2,1.7-12.3,4.7-18.2,16.1c-2.5,5.1-16.5,31.2-30.4,62.8c-14.4,32.9-15.6,35.8-21.3,50c-0.8,2.1-3,5.3-4.9,5.3
			c-1.1,0-2.7-0.8-3.8-4.5c-3.2-11.7-15-36.3-22.6-54.1c-0.4-0.6-1.3-1.1-1.7-0.4c-6.6,13.8-19,38.8-24.5,54.9
			c-0.8,2.3-3.6,4.9-4.9,4.9c-1.7,0-2.5-0.8-3.8-4c-2.1-5.9-4.9-14.2-13.1-33.7c-7.8-19.1-27.7-65.3-35.3-80.2
			c-5.5-10.2-6.1-14.8-16.9-17.2c-2.5-0.4-5.5-1.9-5.5-3.8C657.7,478.2,659.8,477,663.2,477z"/>
		<path class="st3" d="M953,537c-0.6,0.2-0.2,1.5,0.4,1.7c10.4,4.7,26,14.4,26,35c0,15.1-6.8,24.8-16.9,31.6
			c-10.1,7.2-27.3,9.8-37.8,9.8c-5.9,0-26.2-0.8-35.9-0.8c-4.9,0-9.9,0.2-13.5,0.2c-3.2,0-6.1-0.8-6.1-2.8c0-1.7,3-3,5.3-3.4
			c15-2.8,15-5.5,15.9-12.9c0.6-4.5,1.7-27.4,1.7-69.6c0-18.2-0.6-30.3-1.3-33.5c-1.1-4.7-1.7-7-13.3-8.5c-2.7-0.4-5.5-1.7-5.5-3.4
			c0-1.7,2.7-2.8,5.7-2.8h14.2c6.8,0,24.9-1.5,33.6-1.5c12.5,0,23.5,2.1,29.8,6.2c10.4,6.4,15,17.2,15,26.7
			C970.2,525.5,960.4,532.9,953,537z M942,548.2c-5.7-3-14.6-4-22.4-4c-4.9,0-8.9,1.1-9.3,1.5c-0.4,0.6-1.1,1.5-1.5,6.1
			c-0.6,7.6-0.2,35.2,0.8,42.6c0.2,1.5,1.3,5.1,3.4,7c4.4,4.9,11.6,7.2,14.4,7.2c17.8,0,32.1-12.5,32.1-32.9
			C959.6,563,952.2,553.3,942,548.2z M921.5,482.7c-1.3,0-6.8,0.8-9.1,1.7c-0.4,0.2-2.3,2.5-2.5,3.4c-0.4,3.4-1.3,12.9-1.3,47.1
			c0,1.1,0.4,2.8,2.3,2.8c9.3,0,24.5-1.9,29.8-5.3c6.8-4.5,11.6-12.9,11.6-21.8C952.4,493.3,941.2,482.7,921.5,482.7z"/>
		<path class="st3" d="M1064.6,479.3c1.7,5.7,5.3,15.3,9.3,26.3c11,31,26.8,72.9,30.4,81.6c7,17.4,10.4,19.1,19.9,21.4
			c3.4,1.1,5.1,2.1,5.1,3.6c0,1.5-1.5,2.8-6.8,2.8c-7,0-17.3-1.1-26.6-1.1c-6.8,0-9.7,0.4-15,0.4c-5.3,0-6.6-1.5-6.6-2.5
			c0-1.1,1.3-2.8,5.1-3.4c10.1-2.1,9.3-6.4,8.5-10.8c-1.7-8.7-7-22.7-11.8-36.3c-0.2-0.8-1.1-2.1-7.2-2.1c-11.6,0-30.2,0.2-34.7,0.8
			c-0.8,0-1.9,1.1-2.3,1.7c-5.5,13.8-11,31.8-11,37.1c0,2.5,0.8,6.1,10.4,9.1c3.6,1.1,5.7,2.3,5.7,3.8c0,2.1-3.2,2.8-5.9,2.8
			c-3.6,0-8.9-0.6-16.7-0.6c-7.8,0-18.8,1.1-22,1.1c-3.8,0-4.9-0.8-4.9-2.1c0-1.3,1.5-3.2,4.7-4.2c10.6-3.6,13.3-4.2,19.4-18
			c4.9-10.8,29-74.9,37.8-96.5c1.3-3,1.5-4.2,1.9-5.5c0.2-0.6,0.6-1.9,1.5-3.6c1.3-2.1,3.6-6.1,5.1-8.5c1.5-1.7,2.3-2.8,3.4-2.8
			C1062.1,473.8,1063,474.6,1064.6,479.3z M1071.4,548c-3.6-10.8-14.6-42.6-16.5-45.6c-0.6-1.3-1.1-1.5-1.7,0
			c-3.8,10.2-14.8,39.9-16.5,46.4c-0.2,0.8,0.2,1.5,1.1,1.5c8.5-0.2,26,0,33-0.6C1071,549.7,1071.6,548.6,1071.4,548z"/>
		<path class="st3" d="M1261.4,541.6c-1.1,0.6-5.1,2.5-6.6,3.6c-0.6,0.4-1.3,2.3-0.8,3.2c2.1,5.1,19.9,33.7,32.8,48.1
			c5.7,6.8,11.4,10.6,20.7,12.5c1.7,0.4,3.4,2.1,3.4,3c0,1.3-1.7,2.1-3,2.8c-2.5,1.1-7.2,1.5-11.6,1.5c-9.9,0-22-5.9-28.1-13.8
			c-7.4-10.2-18.2-26.5-26.6-39.9c-3-4.5-7.2-9.8-8.5-10.6c-0.8-0.8-8.7-2.8-15-2.8c-1.5,0-2.5,1.9-2.5,2.5
			c-0.2,3.6,0.2,30.5,0.8,42.8c0.4,8.9,2.7,11.9,12.7,14.2c3.6,1.1,5.1,2.5,5.1,3.6c0,2.1-4,2.8-5.1,2.8c-8.9,0-12.9-1.3-27.3-1.3
			c-3.8,0-14.8,0.8-17.1,0.8c-2.7,0-5.5-0.8-5.5-3c0-1.7,1.9-2.1,4.7-3.2c9.3-3,13.1-4.2,13.7-12.3c0.4-6.6,1.3-29.1,1.3-41.8
			c0-32.7-0.4-52-1.3-60.2c-0.8-7.8-2.7-8.3-12.3-10.6c-3.2-0.8-5.1-1.9-5.1-3.6c0-1.5,1.1-2.5,5.7-2.5c6.6,0,7.4,0,11.8,0
			c7.8,0,22.8-1.1,34.2-1.1c14.6,0,26,1.9,34.5,8.9c7,5.7,12,16.3,12,26.5C1278.6,523.4,1271.8,535.3,1261.4,541.6z M1250.2,491.2
			c-5.1-4.9-14.2-8.1-20.9-8.1c-1.1,0-7.8,0.4-10.1,1.5c-1.1,0.4-2.5,3.6-2.5,4.5c-0.6,7.4-1.3,48.3-0.6,52c0.4,1.7,2.1,3.2,3.4,3.2
			c12.3,0,23.5-3.6,26.4-5.5c5.7-3.6,14-12.9,14-26.3C1259.7,507.3,1256.4,497.3,1250.2,491.2z"/>
		<path class="st3" d="M1333.5,498.4c-0.6-9.8-0.6-12.9-12.5-15.1c-4.7-0.8-5.9-2.3-5.9-3.8c0-1.7,2.3-2.5,5.3-2.5
			c5.5,0,16.1,0.6,23,0.6c10.4,0,15.2-0.6,22.6-0.6c3.4,0,5.3,0.8,5.3,2.5c0,1.7-2.1,3-5.5,3.6c-12.3,2.5-12,7.8-12.9,13.6
			c-1.1,7-1.3,20.8-1.3,62.3c0,11.7,0.2,24.8,0.6,31.6c0.6,11.5,1.7,15.5,15.4,18.2c3.8,0.6,5.5,2.1,5.5,3.6c0,1.7-3.2,2.8-5.7,2.8
			c-10.8,0-25.8-1.3-31.5-1.3c-6.3,0-8.2,0.4-16.1,0.4c-4,0-5.5-1.5-5.5-3c0-1.5,2.1-2.8,6.3-3.6c10.6-2.3,11.4-5.5,12.3-15.5
			c0.6-7.4,1.1-29.5,1.1-47.5C1334.1,531.7,1333.9,505.4,1333.5,498.4z"/>
		<path class="st3" d="M1387.8,476.5c4.2,0,11.8,1.1,22.2,1.1c7.4,0,16.1-0.4,20.9-0.4c2.7,0,5.1,1.1,5.1,2.5s-1.1,3.2-5.1,3.8
			c-11.2,2.1-10.8,6.8-9.9,10.2c3.6,11,26.4,70.4,34,88.6c0.4,0.4,1.5,1.7,2.1,0.2c1.7-4.5,24.7-58.9,34.2-81.9
			c5.1-11.9-0.6-14.4-9.7-17.2c-3-0.8-4.7-2.5-4.7-3.8c0-1.5,2.7-2.5,6.1-2.5c4.9,0,9.7,0.4,16.9,0.4c6.1,0,14.6-0.8,19-0.8
			c3,0,6.1,0.8,6.1,2.8c0,1.7-2.5,3-5.5,3.6c-9.3,2.3-14,7.4-18.4,16.8c-9.7,21.2-15,30.3-27.9,62.3c-12.3,29.9-15,35.2-19.9,51.3
			c-0.8,2.3-2.3,4.7-4.4,4.7c-1.3,0-3-1.5-3.4-3.8c-1.3-6.1-4.9-19.1-11-34.6c-7.2-19.3-27.3-70.6-30.4-78.2
			c-4.2-10.6-8.7-15.9-18-18.7c-2.5-0.8-4.9-1.7-4.9-3.6C1381.5,477.6,1384.7,476.5,1387.8,476.5z"/>
		<path class="st3" d="M1600.3,477.6c7,0,16.3-0.2,19.4-0.6c0.6-0.2,1.7,1.3,1.9,2.3c0,9.8,0.4,15.9,0.4,20.1c0,3-1.3,5.5-3.2,5.5
			s-3-3-3.4-5.1c-2.7-11.2-7.4-13.4-14.2-14.4c-5.5-0.8-20.7-1.3-30-0.8c-0.4,0-2.7,1.1-3.2,5.9c-0.4,5.3-1.1,45.2-0.6,48.3
			c0.2,0.8,0.4,2.1,1.5,2.1h13.7c19.9,0,20.7-0.8,24.5-10.6c1.3-3.2,2.5-4.5,3.8-4.5c1.5,0,1.9,3,1.7,4.7
			c-0.4,5.9-0.6,10.2-0.6,15.3c0,5.7,0.4,8.7,0.6,12.9c0.2,3.8-0.8,6.1-2.3,6.1c-1.5,0-3-2.3-3.6-4.7c-3-9.8-3.8-10.4-16.7-11
			c-6.8-0.4-15.2-0.4-20.9-0.4c-0.8,0-1.9,1.5-1.9,1.9c-0.8,4.5-0.6,24.2-0.6,33.3c0,6.1,0.8,14.2,2.1,17.6c0.8,2.5,2.5,4.2,4,4.7
			c3.6,0.6,10.8,1.5,19.2,1.5c2.5,0,15.4-0.2,20.1-1.5c6.8-1.7,12.5-5.7,17.5-15.7c2.3-4.7,3.6-5.9,4.9-5.9c1.5,0,2.1,3.4,1.7,5.7
			c-0.2,1.7-6.1,20.8-7.6,22.7c-0.6,0.8-2.5,2.5-3.6,2.5c-2.3,0-34.2-1.7-68.7-1.7c-11.2,0-15.9,1.1-23.9,1.1c-4,0-6.3-0.4-6.3-2.8
			c0-1.5,2.5-2.5,5.9-3.4c10.6-2.5,14.6-4,15.4-15.5c0.6-8.9,1.7-33.9,1.7-60.2c0-25.2,0.2-29.7-0.2-35.8c-0.4-9.3-2.5-11.9-11.8-14
			c-4.4-1.1-6.1-1.9-6.1-3.6c0-1.9,3-3,5.9-3c9.9,0,18.2,0.8,32.3,0.8H1600.3z"/>
		<path class="st3" d="M1731.7,541.6c-1.1,0.6-5.1,2.5-6.6,3.6c-0.6,0.4-1.3,2.3-0.8,3.2c2.1,5.1,19.9,33.7,32.8,48.1
			c5.7,6.8,11.4,10.6,20.7,12.5c1.7,0.4,3.4,2.1,3.4,3c0,1.3-1.7,2.1-3,2.8c-2.5,1.1-7.2,1.5-11.6,1.5c-9.9,0-22-5.9-28.1-13.8
			c-7.4-10.2-18.2-26.5-26.6-39.9c-3-4.5-7.2-9.8-8.5-10.6c-0.8-0.8-8.7-2.8-15-2.8c-1.5,0-2.5,1.9-2.5,2.5
			c-0.2,3.6,0.2,30.5,0.8,42.8c0.4,8.9,2.7,11.9,12.7,14.2c3.6,1.1,5.1,2.5,5.1,3.6c0,2.1-4,2.8-5.1,2.8c-8.9,0-12.9-1.3-27.3-1.3
			c-3.8,0-14.8,0.8-17.1,0.8c-2.7,0-5.5-0.8-5.5-3c0-1.7,1.9-2.1,4.7-3.2c9.3-3,13.1-4.2,13.7-12.3c0.4-6.6,1.3-29.1,1.3-41.8
			c0-32.7-0.4-52-1.3-60.2c-0.8-7.8-2.7-8.3-12.3-10.6c-3.2-0.8-5.1-1.9-5.1-3.6c0-1.5,1.1-2.5,5.7-2.5c6.6,0,7.4,0,11.8,0
			c7.8,0,22.8-1.1,34.2-1.1c14.6,0,26,1.9,34.5,8.9c7,5.7,12,16.3,12,26.5C1748.9,523.4,1742.1,535.3,1731.7,541.6z M1720.5,491.2
			c-5.1-4.9-14.2-8.1-20.9-8.1c-1.1,0-7.8,0.4-10.1,1.5c-1.1,0.4-2.5,3.6-2.5,4.5c-0.6,7.4-1.3,48.3-0.6,52c0.4,1.7,2.1,3.2,3.4,3.2
			c12.3,0,23.5-3.6,26.4-5.5c5.7-3.6,14-12.9,14-26.3C1730.1,507.3,1726.7,497.3,1720.5,491.2z"/>
	</g>
	
		<path id="Path_1214_00000182498810188442452220000011496565368505659812_" style="clip-path:url(#SVGID_00000127738245909270177490000007450929162585672323_);fill:#D8E5EB;stroke:#1D1D1B;stroke-linecap:round;stroke-linejoin:round;" d="
		M-12.2,768.2c22.2-31.7,11.3-4.9,72.6-19.5l394-93.8c59-14.1,118.3-28.2,181.1-37.5c73.7-11,150.8-15.3,227.6-17.7
		c97.8-3.1,198.2-3.2,291.2,12c69,11.3,131.2,30.5,193.1,49.3c190.6,57.9,395.1,114.3,618.9,118.6"/>
	
		<path id="Path_1215_00000114045320767848413440000008628014385027212468_" style="clip-path:url(#SVGID_00000127738245909270177490000007450929162585672323_);fill:#D8E5EB;stroke:#1D1D1B;stroke-linecap:round;stroke-linejoin:round;" d="
		M-28.8,800.4c104.9-1.1,178.4-33.8,266.1-62.1c186-60,399.1-104.5,621.5-107.5c72.2-1,144.2,2.5,215.9,6.9
		c57.7,3.6,115.8,7.9,170.3,18c43.3,8,83.5,19.5,123.1,31.2c100.5,29.8,198.9,61.8,306.1,85.4c107.2,23.5,225.3,38.3,341.9,31.5"/>
	
		<path id="Path_1216_00000040538024123414746030000003492187680816491404_" style="clip-path:url(#SVGID_00000127738245909270177490000007450929162585672323_);fill:#D8E5EB;stroke:#1D1D1B;stroke-linecap:round;stroke-linejoin:round;" d="
		M-12.6,838.3C70,847,118.9,837.6,194,818.5c75.1-19.1,138.9-47.4,196.2-78c25.5-13.6,50.2-27.8,80.5-38.8
		c60.9-22,138.4-28.8,212.8-35c125.5-10.5,253.6-20.9,379.3-11.4c180.3,13.6,336.4,66.6,489.2,115.6c152.8,49,319,96.9,501.3,98.2"
		/>
	
		<path id="Path_1217_00000049179607332886305380000006983984747177184164_" style="clip-path:url(#SVGID_00000127738245909270177490000007450929162585672323_);fill:#D8E5EB;stroke:#1D1D1B;stroke-linecap:round;stroke-linejoin:round;" d="
		M0.6,854.9c59.3,3.2,120.1,6.3,177.9-0.9c125.8-15.6,206.4-74.5,312.7-111.1c112.4-38.8,259.6-52.1,392.7-35.5
		c54.1,6.7,105.3,18,155.2,30.4c182.5,45.2,350.2,104.7,538.7,143.5c138,28.4,285.8,45.3,435.2,49.7"/>
	
		<path id="Path_1218_00000016052678429204674870000016873584453111149742_" style="clip-path:url(#SVGID_00000127738245909270177490000007450929162585672323_);fill:#D8E5EB;stroke:#1D1D1B;stroke-linecap:round;stroke-linejoin:round;" d="
		M1973.8,949.4c-189.9,13.9-392.6,21-565.8-19.7c-153.7-36.1-263.5-105.2-400.7-154.8c-29.5-10.7-60.4-20.5-94.2-27.3
		c-64.7-13.1-136.2-14.8-206.1-16.3c-54.6-1.2-111.6-2.1-161.2,9.2c-31.2,7.1-57.3,18.6-83,29.8c-48.3,21-97.3,41.7-146.9,61.9
		c-40.9,16.7-83,33.4-132,43.5C126,887.7,62,890-0.7,892.2"/>
</g>
</svg>
