<?xml version="1.0" encoding="utf-8"?>
<!-- Generator: Adobe Illustrator 26.3.1, SVG Export Plug-In . SVG Version: 6.00 Build 0)  -->
<svg version="1.1" id="Lager_1" xmlns="http://www.w3.org/2000/svg" xmlns:xlink="http://www.w3.org/1999/xlink" x="0px" y="0px"
	 viewBox="0 0 1921.3 1071.1" style="enable-background:new 0 0 1921.3 1071.1;" xml:space="preserve">
<style type="text/css">
	.st0{fill:#FFFFFF;stroke:#000000;stroke-miterlimit:10;}
	.st1{opacity:0.52;fill:#425787;stroke:#000000;stroke-miterlimit:10;}
	.st2{opacity:0.5;}
	.st3{fill:#96B4CA;stroke:#000000;stroke-miterlimit:10;}
	.st4{fill:none;stroke:#1D1D1B;stroke-linecap:round;stroke-linejoin:round;stroke-miterlimit:10;}
	.st5{fill:#989F8B;stroke:#000000;stroke-miterlimit:10;}
	.st6{fill:#96B8C1;stroke:#000000;stroke-miterlimit:10;}
	.st7{fill:#D6EEFD;stroke:#000000;stroke-miterlimit:10;}
	.st8{fill:none;stroke:#000000;stroke-linecap:round;stroke-linejoin:round;stroke-miterlimit:10;}
	.st9{fill:none;stroke:#000000;stroke-miterlimit:10;}
	.st10{fill:#FFFFFF;stroke:#1D1D1B;stroke-linecap:round;stroke-linejoin:round;stroke-miterlimit:10;}
	.st11{enable-background:new    ;}
	.st12{opacity:0.69;fill:#96B4CA;enable-background:new    ;}
	.st13{opacity:0.55;fill:#96B4CA;enable-background:new    ;}
	.st14{opacity:0.54;fill:#96B4CA;enable-background:new    ;}
	.st15{opacity:0.5;fill:#96B4CA;enable-background:new    ;}
	.st16{fill:#FFFFFF;stroke:#1D1D1B;stroke-miterlimit:10;}
	.st17{font-family:'MonumentExtended-Regular';}
	.st18{font-size:65px;}
</style>
<rect x="-6948.4" y="-910" class="st0" width="1939.3" height="1114.4"/>
<g id="nlArRg.tif">
	
		<image style="overflow:visible;enable-background:new    ;" width="74" height="149" id="Layer_0" xlink:href="E22D3A39034A65B2.png"  transform="matrix(2.4672 0 0 1.6821 -4853.8052 -2272.7092)">
	</image>
</g>
<g id="eEKCQR.tif">
	
		<image style="overflow:visible;enable-background:new    ;" width="126" height="92" id="Layer_0_00000110453647371088967860000003000617141734308029_" xlink:href="E22D3A39034A65B0.png"  transform="matrix(0.5 0 0 0.5 -4793.8052 -2465.8931)">
	</image>
</g>
<path class="st1" d="M-5080.9-2007.6c-76.4,11.9-155.7,3.7-233.4,8.6c-62.2,3.9-122.8,16.2-184.1,24.8
	c-253,35.7-513.4,9.5-767.6-20.6c-84.6-10-170.5-20.5-255.3-11.9c-149.7,15.2-294.1,89.1-440.7,61.5l7.4,197.5l1926.1-0.5v-261.7
	L-5080.9-2007.6z"/>
<g class="st2">
	<path class="st3" d="M-5037.2-1597v-231.9l-47.7-6.2c-46.8-55.8-147.1-89.1-241.4-80c-131.9,12.6-223.1,94.4-343.9,132.3
		c-101.5,31.9-221,30.9-328.5,9.8c-107.6-21.1-204.9-60.9-296-104.8c-59.3-28.5-122.4-60.4-195.3-60.2
		c-61,0.2-116.9,23.3-162.4,50.7c-45.5,27.4-84.3,59.8-132.7,84.8c-48.4,25-110.5,42.5-170.1,33.5l-10.6,196.5
		c11.5,0,27.4-4.5,38.9-4.5c65.5,0.9,131.2-13.5,183.2-40.3c46-23.8,80.4-56.1,121.5-83.7c41.1-27.6,93.8-51.4,151.8-50.4
		c55.8,0.9,104.4,24.2,150.7,45c69.5,31.3,143.5,59.4,224.1,74.3c80.6,15,169,16,246.2-5.8c82.4-23.3,145.8-70.2,227.2-95.2
		c86.1-26.4,189.9-25.4,274.8,2.7c30.6,10.1,58.9,23.6,91,31.4c65.4,16,147.5,74.6,210.6,54.7"/>
	<path class="st4" d="M-6948.8-1742c60.8,13.3,126.9-6.8,177.3-33.2c50.4-26.4,93.4-59.9,149.9-80c92-32.8,205.4-24.7,302.8,0
		s184.5,64.5,277.7,95.6c59.8,19.9,124.3,36.6,191.1,35.9c97.6-1,184.7-38.2,272.4-67c93.1-30.6,194.4-53,298-52.2
		c103.6,0.7,209.9,26.9,276.8,80.1"/>
	<path class="st4" d="M-6971.1-1724.5c52.2-5.1,107.4,8.4,157.1-3.4c27.2-6.5,49.4-19.9,71-32.8c76.8-45.9,166.3-91.9,269-90.5
		c86.5,1.2,162.7,36,236,66.9c82.2,34.7,168.4,66.4,261.9,83.7c93.5,17.3,195.6,19.4,286-4.2c48.2-12.5,91.6-31.9,137.6-47.7
		c56.8-19.5,117.4-33.4,177.8-47.3c49.9-11.5,100.6-23.1,153.2-24.5c52.6-1.5,108.5,8.6,144.3,34.6"/>
	<path class="st4" d="M-6957.9-1698.4c76.7,8.8,155.6,17.6,231.7,6.5c48.6-7.1,93.8-22.1,141.8-31c78.4-14.6,161.3-12.6,242.6-10.4
		c34,0.9,68.4,1.8,101.4,7.8c42.7,7.7,81,23.4,121.9,34.8c111.1,30.9,235.7,28.7,355.6,22.9c46.1-2.2,92.7-4.9,136.7-14.4
		c39.1-8.4,75.3-21.9,113.3-32.4c135.2-37.5,293.8-35,426.3,6.7"/>
	<path class="st4" d="M-6953.1-1672.9c67.5-8.3,135.9,16.2,204.1,11.1c60.1-4.5,114.7-31.6,175.1-29.4"/>
	<path class="st4" d="M-6963.2-1633.2c34.3-1.4,68.5-2.8,102.8-4.1c16.7-0.7,33.6-1.3,50.2,0c19.8,1.5,38.9,5.8,58.3,8.8
		c25.3,3.8,51.3,5.5,77.1,7.1"/>
	<path class="st4" d="M-6955.4-1597c30.3-3.3,60.8-6.5,91.4-7c37.8-0.6,75.4,3.1,112.8,6.8"/>
</g>
<path class="st4" d="M-6955.8-1829.9c15.8-4.7,30.7,7.3,46.6,11.8c8.1,2.3,17,2.7,25.8,2.9c33.7,0.6,67.4-2.3,99.9-8.4"/>
<path class="st4" d="M-6271.5-1868.8c126.1-25.3,258,25.1,389.6,24.5c118.9-0.6,240.1-42.6,352.1-15.8"/>
<path class="st4" d="M-6189.7-1834.7c116.6-21.5,235.4,38,355.9,31.2c84.5-4.8,165.1-41.9,248-30"/>
<path class="st4" d="M-6338.2-1904.5c217-32.5,445.7,19,664.5-7.1c62.1-7.4,122.8-21,185.7-24.2c117.1-5.9,236.1,24.4,350.6,6.9"/>
<path class="st4" d="M-6948.4-1855.9c15.6-1.7,31.2-3.5,46.3-6.5c11.4-2.3,22.3-5.3,34-6.9c12.1-1.6,24.7-1.6,37.1-1.6
	c50.4,0.1,100.7,0.2,151.1,0.2"/>
<path class="st4" d="M-6962.3-1909.9c78.5-2.6,158.6-5.2,234.5,7.3c31.9,5.2,65.8,13,96.8,6.2"/>
<path class="st4" d="M-6954.9-1929.4c65.9-0.4,132-1.1,197.2-6.9c23.3-2.1,47.1-4.9,70.2-2.1c12.5,1.5,24.4,4.5,36.6,6.7
	c27.5,4.9,57.1,5.4,85,1.3"/>
<path class="st4" d="M-6443.8-1936.6c114.9,4.2,228-26.6,342.8-21.4c49.7,2.2,98,11.2,147,16.8c295.7,34.1,602.3-52,896.3-12"/>
<g class="st2">
	<g>
		<path class="st5" d="M-5086.5-1693.4c-160.7,17.2-313.2-92.2-470.4-63.9c-90.8,16.3-152.1,74.6-239.4,98
			c-25.5,6.8-52.7,10.5-80,13c-159.8,14.6-327.2-12.6-459.4-74.7c-35.2-16.5-70.1-36-112.5-40.2c-65.8-6.5-125.2,25.2-173.1,56.3
			c-47.4,30.7-93.4,63.1-148.6,87.1c-55.3,24-122.2,39.3-187.1,31.6l-35.6,87.3l2011.3-21.2v-183.2L-5086.5-1693.4z"/>
	</g>
	<path class="st4" d="M-6967.8-1562.8c54.8,3.6,112.3,7,163.1-7.3c41.2-11.7,73.3-33.8,106.8-53.7c90.5-53.7,213.3-95.7,329.2-73.2
		c60.5,11.7,111,39.5,168.5,56.7c48.7,14.6,101.8,21.4,154.7,25.8c60.3,5,121.8,7,181.6-0.2c78-9.4,149.7-33.8,223.5-53.1
		c73.8-19.3,154.5-33.7,231.7-21.7c37.3,5.8,71.9,17.4,108,26c100.8,23.8,210.6,22.5,317.2,17.7"/>
	<path class="st4" d="M-6958.5-1522.8c84.4,11,169.5-12.9,247.3-37.6s159.5-51.5,245.2-46.6c42.7,2.5,83.8,12.8,126.6,14.2
		c83.5,2.8,170.3-28,247.8-7"/>
	<path class="st4" d="M-5748.9-1604.1c72.3-0.4,136.1-30.1,204.9-45.1c85.8-18.7,182.4-13.7,262.8,13.6c21.4,7.2,41.8,16,64.7,20.7
		c31.8,6.5,65.8,4.7,98.9,2.8"/>
	<path class="st4" d="M-6654.3-1542.1c69.9-26.6,150.9-40,231.2-38.1c45,1,89.9,6.8,134.7,3.6c51.5-3.6,102.1-18.8,153.2-13.2"/>
	<path class="st4" d="M-5714.7-1590.8c86.7,11.4,172.2-21,260.2-26.1c39.8-2.3,79.7,1,119.3,4.4c43.3,3.7,86.6,7.3,130,11"/>
	<path class="st4" d="M-6612.5-1515.4c116.9-42,261.1-48,384.8-16"/>
	<path class="st4" d="M-5677.9-1530.5c40.6-0.7,79.6-10,118.2-18.3c100.4-21.6,209.4-37.2,310.1-16.5"/>
</g>
<g class="st2">
	<g>
		<path class="st6" d="M-4871.7-1660.1c-83.1-8.8-170.7-0.2-245.4,24.2c-95.8,31.3-178,88.8-286.1,89.2
			c-75.4,0.3-142.2-28-206.5-52.6c-83.9-32.1-176.5-60.2-274.9-60.5c-63.9-0.2-126.6,11.6-185.3,27.3
			c-58.9,15.8-114.9,35.7-166.7,59.3c-46.2,21.1-91.3,45.7-147.2,53.4c-118.7,16.3-224.7-48.5-343.5-64.4
			c-100-13.3-210.5,12-273.2,62.5c-13.3,93.3-10.1,187.8-23.4,281.2c-0.8,5.4-6.5,10.7-1.3,15c6.6,5.6,2.1,160.8,13.2,160.8
			c640.5,0.3,1359.5,54.9,1999.9,55.3c141.6,0.1-99.1-194.1,42.5-195.6c64-0.7-98.7-107-38.5-120.6c-6.7-57.3,42-55.7,0-106.8
			c-27.5-33.5,1-45.4-13.9-81.9c-11-27.2-4.2-44.9-2.4-72.9c1.4-21.7,25.6-6.1,1.4-21.7c-10.7-6.9,29.4-26.1,14.8-29.3
			C-5064.5-1650.7-4816.7-1674.9-4871.7-1660.1z"/>
	</g>
	<path class="st4" d="M-7012.6-1514.5c72.3-1.9,131.5-37.5,202.2-47.1c126.9-17.3,244.3,51.2,374,56.1
		c169.7,6.4,304.4-94.9,472.9-109.2c112.6-9.5,222.5,21,328.1,47.2c105.6,26.2,224.2,48.7,330.6,23.8c34-8,65-20.5,99-28.3
		c72.4-16.6,152.3-10.9,228.9-5"/>
	<path class="st4" d="M-7036.4-1459.2c73.8-22.2,147.6-44.5,221.4-66.7c24.4-7.3,49.6-14.8,76.7-15.5c51-1.3,94.4,21,138.6,37.1
		c97.9,35.6,221.5,42.2,327.7,17.4c74.6-17.4,138.4-48.7,206.5-74.5c68.1-25.8,146.3-46.8,225.1-40.2
		c52.4,4.4,100.1,20.7,147.9,34.8c70.1,20.7,143.2,37.2,218.2,49.4c77.3,12.6,162.2,20.1,234.7-0.9c30-8.7,56.3-21.8,86.8-29.8
		c51.3-13.4,109.1-10.8,164.5-8.1"/>
	<path class="st4" d="M-7022.9-1398.8c49,2.7,68-3.5,108.3-21.2c61.4-26.8,96.8-79.8,170.6-87.7c59.8-6.4,113.7,20.6,169.1,36
		c105.3,29.2,228.6,17,336.9-7.5c108.3-24.5,210-60.6,321.1-79.5c30.8-5.2,62.6-9.2,94.5-8.7c55.1,0.7,107.5,14.1,158.6,27.1
		c155.7,39.5,328.5,76.8,488.1,44c51.8-10.7,101.8-28.7,156.4-28"/>
	<path class="st4" d="M-7007.7-1377c49.8,3.2,100.7-0.9,147.5-11.9c20.1-4.7,39.4-10.7,59.9-14.6c36.2-6.9,74.6-7.4,112.4-7.8
		c61.3-0.6,122.7-1.2,184-1.8"/>
	<path class="st4" d="M-6103.3-1478.1c88.5-26.8,181.4-54.2,279.7-52.4c52.1,0.9,102.8,10,152.3,20.1
		c55.7,11.3,110.8,23.8,165.1,37.5c48.9,12.3,97.5,25.7,148.9,33c113.8,16.2,232.9,1.8,349.3,7.5"/>
	<path class="st4" d="M-5602.1-1384.2c91.2-7.1,182.8,9.8,274.6,10.2c42.9,0.2,85.6-3.2,128.2-6.5c59.9-4.7,120.2-9.6,177.4-21.6"/>
	<path class="st4" d="M-5527.9-1353.3c89.4-11.5,178.8,14.2,267.6,27.4c77.7,11.5,158.3,13.3,238.1,12.2"/>
	<path class="st4" d="M-5334.8-1291.1c89.3-2.9,180.1-5.7,267,7.5c19.1,2.9,37.8,6.5,56.6,10.2"/>
	<path class="st4" d="M-5809.4-1454.6c62.1-2.8,125.4-5.5,185.9,3.6c59,8.8,113,28.4,172.3,36.3c38.8,5.2,78.9,5.2,118.6,5
		c115-0.4,230-1.9,344.9-4.4"/>
	<path class="st4" d="M-7007.2-1324.4c16.4-8.5,39.5-9.3,60.9-9.3c50.1,0,100.2,2.5,149.7,7.3"/>
</g>
<text transform="matrix(1 0 0 1 -6599.2705 -1561.5778)" class="st17 st18">Before the intruders of </text>
<text transform="matrix(1 0 0 1 -6484.5127 -1478.5778)" class="st17 st18">The Catawba River</text>
<path class="st7" d="M-4948.2-1258.8c-115.3,8.9-232.1-10.5-338.1-41.2s-203.3-72.6-302.7-111.6c-39.1-15.4-78.9-30.4-121.7-40.8
	c-53.9-13.2-111.3-18.8-168.4-23.5c-70.8-5.8-142.1-10.2-213.5-9c-219.9,3.8-430.7,62-614.6,140.5c-86.8,37-159.5,79.8-263.2,81.2
	l-105.6,110.7l25.2,118.8l2102.7,23.8V-1258.8L-4948.2-1258.8z"/>
<path class="st8" d="M-6956.6-1220.1c80.4,11.1,127.9-0.9,200.9-25.3c73-24.4,135.1-60.6,190.8-99.6c24.8-17.4,48.8-35.5,78.3-49.5
	c59.2-28.1,134.5-36.8,206.9-44.7c122-13.3,246.5-26.7,368.8-14.6c175.3,17.4,327.1,85,475.6,147.5s310.1,123.7,487.4,125.3"/>
<path class="st8" d="M-6943.7-1198.9c57.7,4,116.8,8,173-1.1c122.4-19.9,200.7-95,304-141.8c109.3-49.5,252.4-66.5,381.8-45.4
	c52.6,8.6,102.4,23,150.9,38.8c177.5,57.6,340.5,133.6,523.7,183.2c134.2,36.3,277.9,57.8,423.1,63.5"/>
<path class="st8" d="M-5025.2-1078.2c-184.6,17.7-381.7,26.8-550.1-25.2c-149.4-46.1-256.2-134.2-389.6-197.6
	c-28.6-13.6-58.8-26.1-91.6-34.9c-62.9-16.8-132.4-18.9-200.4-20.8c-53.1-1.5-108.5-2.7-156.7,11.7c-30.3,9.1-55.7,23.7-80.7,38
	c-47,26.8-94.6,53.2-142.8,79c-39.8,21.3-80.7,42.6-128.3,55.6c-56.3,15.3-118.5,18.3-179.4,21"/>
<path class="st8" d="M-7038.1-1186.5c22.7-40.5,11.6-6.3,74.2-24.9c134.2-39.9,268.5-79.9,402.8-119.8c60.3-18,121-36,185.1-47.9
	c75.3-14,154.1-19.5,232.7-22.6c100-4,202.6-4.1,297.7,15.3c70.5,14.4,134.1,39,197.4,63c194.9,73.8,403.9,145.9,632.7,151.4"/>
<path class="st9" d="M-4972.6-871.2h-51.6l-52.3,2.3c-76.4,11.9-155.7,3.7-233.4,8.6c-62.2,3.9-122.8,16.2-184.1,24.8
	c-253,35.7-513.4,9.5-767.6-20.6c-84.6-10-170.5-20.5-255.3-11.9c-149.7,15.2-294.1,89.1-440.7,61.5"/>
<g>
	<path class="st9" d="M-6922.5-438.2c65.5,1,131.2-13.5,183.2-40.3c46-23.8,80.4-56.1,121.4-83.7c41.1-27.6,93.8-51.4,151.8-50.4
		c55.8,0.9,104.4,24.2,150.7,45c69.5,31.3,143.5,59.4,224.1,74.3c80.6,15,169,16,246.2-5.8c82.4-23.3,145.8-70.2,227.2-95.2
		c86.1-26.4,189.9-25.4,274.8,2.7c30.6,10.1,58.9,23.6,91,31.4c65.4,16,147.5,74.6,210.6,54.7"/>
	<path class="st9" d="M-5032.8-690.2l-47.7-6.2c-46.8-55.8-147.1-89.1-241.4-80c-131.9,12.6-223.1,94.4-343.9,132.3
		c-101.5,31.9-220.9,30.9-328.5,9.8c-107.5-21.1-204.9-60.9-296-104.8c-59.3-28.5-122.4-60.4-195.3-60.2
		c-61,0.2-116.9,23.3-162.4,50.7c-45.5,27.4-84.3,59.8-132.7,84.8c-48.4,25-110.5,42.5-170.1,33.5"/>
	<path class="st4" d="M-6944.4-603.2c60.8,13.3,126.9-6.8,177.3-33.2c50.4-26.4,93.4-59.9,149.9-80c91.9-32.8,205.4-24.7,302.8,0
		c97.4,24.7,184.5,64.5,277.7,95.6c59.8,20,124.3,36.6,191.1,35.9c97.6-1,184.7-38.2,272.4-67c93.1-30.6,194.4-53,298-52.2
		c103.6,0.7,209.9,26.9,276.8,80.1"/>
	<path class="st4" d="M-6966.6-585.8c52.1-5.1,107.4,8.5,157.1-3.4c27.2-6.5,49.4-19.9,71-32.8c76.8-45.9,166.3-92,269-90.5
		c86.5,1.2,162.7,36,236,66.9c82.2,34.7,168.4,66.4,261.9,83.7c93.5,17.3,195.6,19.4,286-4.2c48.1-12.5,91.6-31.9,137.6-47.7
		c56.9-19.5,117.4-33.4,177.8-47.3c49.9-11.5,100.6-23.1,153.2-24.5c52.6-1.5,108.5,8.6,144.3,34.6"/>
	<path class="st4" d="M-6953.5-559.7c76.7,8.8,155.6,17.6,231.6,6.5c48.6-7.1,93.8-22.1,141.8-31c78.4-14.6,161.3-12.6,242.6-10.4
		c34,0.9,68.4,1.8,101.4,7.8c42.7,7.7,81,23.4,121.9,34.8c111.1,30.9,235.7,28.7,355.6,22.9c46.1-2.2,92.6-4.9,136.7-14.4
		c39.1-8.4,75.3-21.9,113.3-32.4c135.2-37.5,293.8-35,426.3,6.7"/>
	<path class="st4" d="M-6948.7-534.2c67.5-8.3,135.9,16.2,204.1,11.1c60.1-4.5,114.7-31.6,175.1-29.4"/>
	<path class="st4" d="M-6958.8-494.5c34.3-1.4,68.5-2.8,102.8-4.1c16.7-0.7,33.6-1.4,50.2,0c19.8,1.5,38.8,5.8,58.3,8.8
		c25.3,3.9,51.3,5.5,77.1,7.1"/>
	<path class="st4" d="M-6951-458.3c30.3-3.3,60.8-6.5,91.4-7c37.8-0.6,75.4,3.1,112.8,6.8"/>
</g>
<path class="st4" d="M-6951.3-691.2c15.8-4.7,30.7,7.3,46.6,11.8c8.1,2.3,17,2.7,25.8,2.9c33.7,0.6,67.4-2.3,99.9-8.4"/>
<path class="st4" d="M-6267.1-730c129.9-25.3,265.6,25.1,401.2,24.5c122.4-0.6,247.3-42.6,362.6-15.8"/>
<path class="st4" d="M-6185.3-696c122.5-21.5,247.2,38,373.7,31.2c88.7-4.8,173.3-41.9,260.4-30"/>
<path class="st4" d="M-6333.7-765.8c239-32.5,490.9,19,732-7c68.4-7.4,135.2-21,204.5-24.2c128.9-5.9,260.1,24.4,386.1,6.9"/>
<path class="st4" d="M-6944-717.1c15.6-1.7,31.2-3.5,46.3-6.5c11.4-2.3,22.3-5.4,34-6.9c12.1-1.6,24.7-1.6,37.1-1.6
	c50.4,0.1,100.7,0.2,151.1,0.2"/>
<path class="st4" d="M-6957.9-771.2c78.5-2.6,158.6-5.2,234.5,7.3c31.9,5.2,65.8,13,96.8,6.2"/>
<path class="st4" d="M-6950.4-790.6c65.9-0.4,132-1.1,197.2-6.9c23.3-2.1,47.1-4.8,70.2-2.1c12.5,1.5,24.4,4.5,36.6,6.7
	c27.5,4.9,57.1,5.4,85,1.3"/>
<path class="st4" d="M-6439.4-797.9c118.1,4.2,234.3-26.6,352.3-21.4c51,2.2,100.7,11.2,151.1,16.8c303.9,34.1,619-52,921.2-12"/>
<g>
	<path class="st0" d="M-4976.8-381.3v-183.2l-105.3,9.8c-160.7,17.2-313.2-92.2-470.4-63.9c-90.8,16.4-152.1,74.6-239.4,98
		c-25.5,6.8-52.7,10.5-80,13c-159.8,14.6-327.2-12.6-459.4-74.7c-35.2-16.5-70-36-112.5-40.2c-65.8-6.5-125.2,25.2-173,56.3
		c-47.4,30.7-93.4,63.1-148.6,87.1c-55.3,24-122.2,39.3-187.1,31.6"/>
</g>
<path class="st10" d="M-6963.3-424.1c54.8,3.6,112.3,7,163.1-7.3c41.2-11.7,73.3-33.8,106.8-53.7c90.5-53.7,213.3-95.7,329.2-73.2
	c60.5,11.7,111,39.5,168.5,56.7c48.7,14.6,101.8,21.4,154.7,25.8c60.3,5,121.8,7,181.6-0.2c78-9.4,149.7-33.9,223.5-53.1
	c73.8-19.3,154.5-33.7,231.7-21.7c37.3,5.8,71.9,17.4,108,26c100.8,23.8,210.6,22.5,317.2,17.7"/>
<path class="st10" d="M-6954.1-384.1c84.4,11,169.5-12.9,247.3-37.6s159.5-51.5,245.2-46.6c42.7,2.5,83.8,12.8,126.6,14.2
	c83.5,2.8,170.3-28,247.8-7"/>
<path class="st10" d="M-5744.5-465.3c72.3-0.4,136.1-30.1,204.9-45.1c85.8-18.7,182.3-13.7,262.8,13.6c21.4,7.2,41.8,16,64.7,20.7
	c31.8,6.5,65.8,4.7,98.9,2.8"/>
<path class="st10" d="M-6649.9-403.4c69.9-26.6,150.9-40,231.2-38.1c45,1,89.9,6.8,134.7,3.6c51.5-3.6,102.1-18.8,153.2-13.2"/>
<path class="st4" d="M-5710.3-452c86.7,11.4,172.2-21,260.2-26.1c39.8-2.3,79.7,1,119.3,4.4c43.3,3.6,86.6,7.3,130,11"/>
<path class="st10" d="M-6608-376.6c116.9-42,261.1-48,384.8-16"/>
<path class="st4" d="M-5673.5-391.8c40.6-0.7,79.6-10,118.2-18.3c100.4-21.6,209.4-37.2,310.1-16.5"/>
<path class="st4" d="M-7008.2-375.8c72.3-1.9,131.5-37.5,202.2-47.1c126.9-17.3,244.3,51.2,374,56.1
	c169.7,6.4,304.4-94.9,472.9-109.2c112.6-9.5,222.5,21,328.1,47.2s224.2,48.7,330.6,23.8c34-8,65-20.5,99-28.3
	c72.4-16.6,152.3-11,228.9-5"/>
<path class="st4" d="M-7031.9-320.5c73.8-22.2,147.6-44.5,221.4-66.7c24.4-7.3,49.6-14.8,76.7-15.5c51-1.3,94.4,21,138.6,37.1
	c97.9,35.6,221.5,42.2,327.7,17.4c74.6-17.4,138.4-48.7,206.5-74.5c68.1-25.8,146.3-46.9,225.1-40.2c52.4,4.4,100.1,20.7,147.9,34.8
	c70.1,20.6,143.2,37.2,218.2,49.4c77.3,12.6,162.2,20.1,234.7-0.9c30-8.7,56.3-21.8,86.8-29.8c51.3-13.4,109.1-10.8,164.5-8.1"/>
<path class="st4" d="M-7018.5-260c49,2.7,68-3.5,108.3-21.2c61.4-26.8,96.8-79.8,170.6-87.7c59.8-6.4,113.7,20.6,169.1,36
	c105.3,29.2,228.6,17,336.9-7.5s210-60.6,321.1-79.5c30.8-5.2,62.6-9.1,94.5-8.7c55.1,0.7,107.5,14.1,158.6,27.1
	c155.7,39.5,328.5,76.8,488.1,44c51.8-10.7,101.8-28.7,156.4-28"/>
<path class="st10" d="M-7003.3-238.3c49.8,3.2,100.7-0.9,147.5-11.9c20.1-4.7,39.4-10.7,59.9-14.6c36.2-6.9,74.6-7.4,112.4-7.8
	c61.3-0.6,122.7-1.2,184-1.8"/>
<path class="st10" d="M-6098.9-339.4c88.5-26.8,181.4-54.2,279.7-52.4c52.1,0.9,102.8,10,152.3,20.1
	c55.7,11.3,110.8,23.8,165.1,37.5c48.9,12.3,97.5,25.7,148.9,33c113.8,16.2,232.9,1.8,349.3,7.5"/>
<path class="st10" d="M-5597.7-245.5c91.2-7.1,182.8,9.8,274.6,10.2c42.9,0.2,85.6-3.2,128.2-6.5c59.9-4.7,120.2-9.5,177.4-21.6"/>
<path class="st10" d="M-5523.5-214.5c89.4-11.5,178.8,14.2,267.6,27.4c77.7,11.5,158.3,13.3,238.1,12.2"/>
<path class="st10" d="M-5330.3-152.4c89.3-2.9,180.1-5.7,267,7.5c19.1,2.9,37.8,6.5,56.6,10.2"/>
<path class="st10" d="M-5805-315.8c62.1-2.8,125.4-5.5,185.9,3.6c59,8.8,113,28.4,172.3,36.3c38.8,5.2,78.9,5.2,118.6,5
	c115-0.4,230-1.9,344.9-4.4"/>
<path class="st10" d="M-7002.8-185.7c16.4-8.5,39.6-9.3,60.9-9.3c50.1,0,100.2,2.5,149.7,7.3"/>
<g class="st11">
	<path class="st0" d="M-6508.1-447.1c1.1,1.8,1.7,3.9,1.7,6.4c0,4-1.2,7.2-3.7,9.5c-2.4,2.3-6.2,3.4-11.3,3.4h-40.2v-45.7h39.8
		c4.9,0,8.4,1.1,10.6,3.2c2.2,2.2,3.2,4.9,3.2,8.3c0,2.2-0.4,4.1-1.3,5.9c-0.9,1.8-2.1,3.3-3.8,4.6
		C-6510.8-450.3-6509.2-448.9-6508.1-447.1z M-6553.1-466.4v12h28.6c2,0,3.5-0.1,4.5-0.3c1-0.2,1.8-0.7,2.5-1.6
		c0.6-0.8,0.9-2.2,0.9-4.1c0-1.9-0.3-3.3-0.9-4.2c-0.6-0.9-1.5-1.4-2.5-1.6c-1-0.2-2.5-0.3-4.5-0.3H-6553.1z M-6523.1-435
		c2,0,3.4-0.1,4.5-0.3c1-0.2,1.8-0.7,2.5-1.7c0.6-0.9,0.9-2.3,0.9-4.3c0-2-0.3-3.4-0.9-4.3c-0.6-0.9-1.5-1.5-2.5-1.7
		c-1-0.2-2.5-0.3-4.5-0.3h-30v12.5H-6523.1z"/>
	<path class="st0" d="M-6461.8-435.4c2.5-1.2,4.3-2.8,5.4-5h8.8c-1.2,4.4-3.9,7.8-8.3,10.2c-4.4,2.4-9.9,3.6-16.7,3.6
		c-8.1,0-14.6-1.7-19.5-5.1c-4.9-3.4-7.3-8.4-7.3-15.1c0-4.5,1.1-8.2,3.4-11.2c2.3-3,5.4-5.3,9.3-6.8c3.9-1.5,8.4-2.2,13.4-2.2
		c8.1,0,14.5,1.7,19.2,5.2c4.7,3.5,7.1,9.2,7.1,17.1h-43.6c0.4,3.9,2.2,6.7,5.2,8.5c3,1.8,7.3,2.7,12.8,2.7
		C-6467.9-433.6-6464.3-434.2-6461.8-435.4z M-6490-451.3h33.7c-0.8-3-2.7-5.2-5.5-6.6c-2.8-1.4-6.7-2.1-11.5-2.1
		C-6482.7-460.1-6488.3-457.2-6490-451.3z"/>
	<path class="st0" d="M-6419.6-473c-1.3,0.5-2.3,1.2-2.8,2.3c-0.5,1.1-0.8,2.7-0.8,4.9h17.6v7.1h-17.6v30.8h-8.1v-30.8h-11.4v-7.1
		h11.4v-0.9c0-9.3,4.7-13.9,14.2-13.9c2.3,0,4.2,0,5.6,0.1c1.5,0.1,3.4,0.2,5.9,0.6v6.6c-3-0.2-5.7-0.3-7.9-0.3
		C-6416.2-473.6-6418.2-473.4-6419.6-473z"/>
	<path class="st0" d="M-6393.3-431.7c-4.8-3.4-7.2-8.5-7.2-15.1s2.4-11.7,7.2-15.1c4.8-3.4,11.3-5.2,19.5-5.2
		c8.1,0,14.6,1.7,19.4,5.2s7.2,8.5,7.2,15.1s-2.4,11.7-7.2,15.1c-4.8,3.4-11.3,5.1-19.4,5.1C-6382-426.5-6388.5-428.2-6393.3-431.7z
		 M-6360.6-436.9c3-2.2,4.5-5.4,4.5-9.8c0-4.4-1.5-7.7-4.5-9.8c-3-2.2-7.5-3.3-13.3-3.3c-5.9,0-10.4,1.1-13.4,3.3
		c-3,2.2-4.6,5.5-4.6,9.8c0,4.4,1.5,7.6,4.6,9.8c3,2.2,7.5,3.2,13.4,3.2C-6368-433.7-6363.6-434.8-6360.6-436.9z"/>
	<path class="st0" d="M-6300.9-465.6v7.3c-3.5-0.9-6.8-1.4-10.1-1.4c-3,0-5.9,0.5-8.8,1.6c-2.9,1.1-6.2,3.1-10,6v24.2h-8.1v-37.9
		h8.1v6.8c3-3,6-5.1,8.9-6.3c3-1.2,6.2-1.8,9.7-1.8C-6307.6-467-6304.2-466.5-6300.9-465.6z"/>
	<path class="st0" d="M-6257.7-435.4c2.5-1.2,4.3-2.8,5.4-5h8.8c-1.2,4.4-3.9,7.8-8.3,10.2c-4.4,2.4-9.9,3.6-16.7,3.6
		c-8.1,0-14.6-1.7-19.5-5.1c-4.9-3.4-7.3-8.4-7.3-15.1c0-4.5,1.1-8.2,3.4-11.2c2.3-3,5.4-5.3,9.3-6.8c3.9-1.5,8.4-2.2,13.4-2.2
		c8.1,0,14.5,1.7,19.2,5.2c4.7,3.5,7.1,9.2,7.1,17.1h-43.5c0.4,3.9,2.2,6.7,5.2,8.5c3,1.8,7.3,2.7,12.8,2.7
		C-6263.8-433.6-6260.2-434.2-6257.7-435.4z M-6285.9-451.3h33.7c-0.8-3-2.7-5.2-5.5-6.6c-2.8-1.4-6.7-2.1-11.5-2.1
		C-6278.6-460.1-6284.2-457.2-6285.9-451.3z"/>
	<path class="st0" d="M-6168.5-458.6h-19.3v14.6c0,2.9,0.2,5.1,0.7,6.5c0.5,1.4,1.4,2.4,2.7,3c1.3,0.6,3.3,0.8,6,0.8
		c2.6,0,6-0.3,9.9-0.8v7c-4.6,0.7-8.5,1-11.8,1c-4.1,0-7.2-0.5-9.5-1.5c-2.2-1-3.8-2.7-4.8-5.1c-1-2.4-1.4-5.8-1.4-10.2v-15.3h-11.3
		v-7.1h11.3v-8.8l8.1-2.7v11.6h19.3V-458.6z"/>
	<path class="st0" d="M-6110.6-462.2c3.8,3.2,5.8,8.4,5.8,15.5v18.9h-8.1v-17.1c0-5.1-1.2-8.8-3.6-11.2c-2.4-2.4-6.6-3.6-12.4-3.6
		c-6.2,0-11.1,1.4-14.8,4.3s-5.6,7-5.6,12.5v15.1h-8.1v-52h8.1v22.6c2.5-3.2,5.5-5.6,9.2-7.3c3.7-1.6,8.1-2.5,13.3-2.5
		C-6119.8-467-6114.4-465.4-6110.6-462.2z"/>
	<path class="st0" d="M-6058.5-435.4c2.5-1.2,4.3-2.8,5.4-5h8.8c-1.2,4.4-3.9,7.8-8.3,10.2c-4.4,2.4-9.9,3.6-16.7,3.6
		c-8.1,0-14.6-1.7-19.5-5.1c-4.9-3.4-7.3-8.4-7.3-15.1c0-4.5,1.1-8.2,3.4-11.2c2.3-3,5.4-5.3,9.3-6.8c3.9-1.5,8.4-2.2,13.4-2.2
		c8.1,0,14.5,1.7,19.2,5.2c4.7,3.5,7.1,9.2,7.1,17.1h-43.5c0.4,3.9,2.2,6.7,5.2,8.5c3,1.8,7.3,2.7,12.8,2.7
		C-6064.6-433.6-6061-434.2-6058.5-435.4z M-6086.7-451.3h33.7c-0.8-3-2.7-5.2-5.5-6.6c-2.8-1.4-6.7-2.1-11.5-2.1
		C-6079.3-460.1-6084.9-457.2-6086.7-451.3z"/>
	<path class="st0" d="M-6007.3-470.7v-9.1h8.1v9.1H-6007.3z M-6007.3-427.8v-37.9h8.1v37.9H-6007.3z"/>
	<path class="st0" d="M-5941-462.2c3.8,3.2,5.8,8.4,5.8,15.5v18.9h-8.1v-17.1c0-5.1-1.2-8.8-3.6-11.2c-2.4-2.4-6.6-3.6-12.4-3.6
		c-6.2,0-11.1,1.4-14.8,4.3s-5.6,7-5.6,12.5v15.1h-8.1v-37.9h8.1v8.4c2.5-3.2,5.5-5.6,9.2-7.3c3.7-1.6,8.1-2.5,13.3-2.5
		C-5950.3-467-5944.9-465.4-5941-462.2z"/>
	<path class="st0" d="M-5890.3-458.6h-19.3v14.6c0,2.9,0.2,5.1,0.7,6.5c0.5,1.4,1.4,2.4,2.7,3c1.3,0.6,3.3,0.8,6,0.8
		c2.6,0,6-0.3,9.9-0.8v7c-4.6,0.7-8.5,1-11.8,1c-4.1,0-7.2-0.5-9.5-1.5c-2.2-1-3.8-2.7-4.8-5.1c-1-2.4-1.4-5.8-1.4-10.2v-15.3h-11.3
		v-7.1h11.3v-8.8l8.1-2.7v11.6h19.3V-458.6z"/>
	<path class="st0" d="M-5842.8-465.6v7.3c-3.5-0.9-6.8-1.4-10.1-1.4c-3,0-5.9,0.5-8.8,1.6c-2.9,1.1-6.2,3.1-10,6v24.2h-8.1v-37.9
		h8.1v6.8c3-3,6-5.1,8.9-6.3c3-1.2,6.2-1.8,9.7-1.8C-5849.4-467-5846-466.5-5842.8-465.6z"/>
	<path class="st0" d="M-5788.3-465.7h8.1v37.8h-8.1v-8.4c-2.5,3.2-5.5,5.6-9.2,7.3c-3.7,1.7-8.1,2.5-13.3,2.5
		c-7,0-12.4-1.6-16.2-4.8c-3.8-3.2-5.8-8.4-5.9-15.5v-18.9h8.1v17.1c0,5,1.2,8.8,3.6,11.2c2.4,2.4,6.6,3.6,12.5,3.6
		c6.1,0,11-1.4,14.8-4.3c3.7-2.9,5.6-7,5.6-12.5V-465.7z"/>
	<path class="st0" d="M-5726.4-479.8h8.1v52h-8.1v-6.6c-2,2.6-4.6,4.5-8.1,5.9c-3.4,1.3-7.5,2-12.3,2c-4.6,0-8.8-0.7-12.4-2.2
		c-3.6-1.5-6.5-3.8-8.6-6.8c-2.1-3-3.2-6.8-3.2-11.2c0-4.5,1-8.2,3.2-11.2c2.1-3,5-5.3,8.6-6.8c3.6-1.5,7.8-2.2,12.4-2.2
		c4.8,0,8.9,0.7,12.3,2c3.4,1.3,6.1,3.3,8.1,5.8V-479.8z M-5731.1-437.2c3.2-2.3,4.8-5.5,4.8-9.5s-1.6-7.2-4.8-9.5
		c-3.2-2.3-7.6-3.5-13.4-3.5c-5.7,0-10.1,1.1-13.1,3.4c-3,2.3-4.5,5.5-4.5,9.6c0,4.1,1.5,7.3,4.5,9.6c3,2.3,7.4,3.4,13.1,3.4
		C-5738.8-433.7-5734.3-434.9-5731.1-437.2z"/>
	<path class="st0" d="M-5671.3-435.4c2.5-1.2,4.3-2.8,5.4-5h8.8c-1.2,4.4-3.9,7.8-8.3,10.2c-4.4,2.4-9.9,3.6-16.7,3.6
		c-8.1,0-14.6-1.7-19.5-5.1c-4.9-3.4-7.3-8.4-7.3-15.1c0-4.5,1.1-8.2,3.4-11.2c2.3-3,5.4-5.3,9.3-6.8c3.9-1.5,8.4-2.2,13.4-2.2
		c8.1,0,14.5,1.7,19.2,5.2c4.7,3.5,7.1,9.2,7.1,17.1h-43.5c0.4,3.9,2.2,6.7,5.2,8.5c3,1.8,7.3,2.7,12.8,2.7
		C-5677.5-433.6-5673.9-434.2-5671.3-435.4z M-5699.6-451.3h33.7c-0.8-3-2.7-5.2-5.5-6.6c-2.8-1.4-6.7-2.1-11.5-2.1
		C-5692.2-460.1-5697.8-457.2-5699.6-451.3z"/>
	<path class="st0" d="M-5610.3-465.6v7.3c-3.5-0.9-6.8-1.4-10.1-1.4c-3,0-5.9,0.5-8.8,1.6c-2.9,1.1-6.2,3.1-10,6v24.2h-8.1v-37.9
		h8.1v6.8c3-3,6-5.1,8.9-6.3c3-1.2,6.2-1.8,9.7-1.8C-5616.9-467-5613.5-466.5-5610.3-465.6z"/>
	<path class="st0" d="M-5595.9-440.7c0.2,1.8,1,3.2,2.2,4.2c1.3,1,3.3,1.8,6,2.3c2.7,0.5,6.4,0.7,11.1,0.7c4.5,0,7.9-0.2,10.2-0.6
		c2.3-0.4,3.8-0.9,4.6-1.7s1.2-1.8,1.2-3.2c0-1.2-0.4-2.1-1.2-2.7c-0.8-0.6-2.4-1-4.7-1.4c-2.3-0.3-6.3-0.7-11.9-1.1
		c-6.2-0.4-10.9-1-14.2-1.6c-3.3-0.6-5.9-1.7-7.6-3.1c-1.8-1.5-2.7-3.6-2.7-6.4c0-4.4,2.2-7.5,6.6-9.2c4.4-1.8,10.4-2.7,18.1-2.7
		c7.8,0,13.8,0.9,18.1,2.6c4.3,1.7,6.7,5,7.1,9.7h-8.8c-0.2-1.5-0.9-2.6-2-3.4c-1.2-0.8-3-1.3-5.4-1.6c-2.4-0.3-5.7-0.5-9.9-0.5
		c-5.5,0-9.4,0.4-11.6,1.2s-3.3,1.9-3.3,3.4c0,1,0.4,1.8,1.2,2.3c0.8,0.5,2.4,1,4.7,1.3c2.3,0.4,6.1,0.8,11.2,1.2l2.9,0.3
		c5.5,0.5,9.8,1,12.6,1.5c2.9,0.5,5.2,1.6,6.9,3.1c1.8,1.5,2.6,3.8,2.6,6.8c0,4.8-2,8.1-6,9.9c-4,1.8-10.1,2.8-18.1,2.8
		c-5.7,0-10.6-0.4-14.7-1.1s-7.4-2.1-10-4.2c-2.6-2.1-4-5-4.1-8.8H-5595.9z"/>
	<path class="st0" d="M-5508.8-431.7c-4.8-3.4-7.2-8.5-7.2-15.1s2.4-11.7,7.2-15.1s11.3-5.2,19.5-5.2c8.1,0,14.6,1.7,19.4,5.2
		c4.8,3.4,7.2,8.5,7.2,15.1s-2.4,11.7-7.2,15.1c-4.8,3.4-11.3,5.1-19.4,5.1C-5497.5-426.5-5504-428.2-5508.8-431.7z M-5476-436.9
		c3-2.2,4.5-5.4,4.5-9.8c0-4.4-1.5-7.7-4.5-9.8c-3-2.2-7.5-3.3-13.3-3.3c-5.9,0-10.4,1.1-13.4,3.3c-3,2.2-4.5,5.5-4.5,9.8
		c0,4.4,1.5,7.6,4.5,9.8c3,2.2,7.5,3.2,13.4,3.2C-5483.5-433.7-5479.1-434.8-5476-436.9z"/>
	<path class="st0" d="M-5435.3-473c-1.3,0.5-2.3,1.2-2.8,2.3c-0.5,1.1-0.8,2.7-0.8,4.9h17.5v7.1h-17.5v30.8h-8.1v-30.8h-11.4v-7.1
		h11.4v-0.9c0-9.3,4.7-13.9,14.2-13.9c2.3,0,4.2,0,5.6,0.1c1.5,0.1,3.4,0.2,5.9,0.6v6.6c-3-0.2-5.7-0.3-7.9-0.3
		C-5431.9-473.6-5433.9-473.4-5435.3-473z"/>
</g>
<g class="st11">
	<path class="st0" d="M-6378.5-384.1v7.4h-23.8v38.3h-8.3v-38.3h-23.9v-7.4H-6378.5z"/>
	<path class="st0" d="M-6323.6-372.7c3.8,3.2,5.8,8.4,5.9,15.5v18.9h-8.1v-17.1c0-5.1-1.2-8.8-3.6-11.2c-2.4-2.4-6.6-3.6-12.4-3.6
		c-6.2,0-11.1,1.4-14.8,4.3c-3.7,2.9-5.6,7-5.6,12.5v15.1h-8.1v-52h8.1v22.6c2.5-3.2,5.5-5.6,9.2-7.3c3.7-1.6,8.1-2.5,13.3-2.5
		C-6332.8-377.6-6327.4-376-6323.6-372.7z"/>
	<path class="st0" d="M-6271.5-345.9c2.5-1.2,4.3-2.8,5.4-5h8.8c-1.2,4.4-3.9,7.8-8.3,10.2c-4.4,2.4-9.9,3.6-16.7,3.6
		c-8.1,0-14.6-1.7-19.5-5.1c-4.9-3.4-7.3-8.4-7.3-15.1c0-4.5,1.1-8.2,3.4-11.2c2.3-3,5.4-5.3,9.3-6.8c3.9-1.5,8.4-2.2,13.4-2.2
		c8.1,0,14.5,1.7,19.2,5.2c4.7,3.5,7.1,9.2,7.1,17.1h-43.6c0.4,3.9,2.2,6.7,5.2,8.5c3,1.8,7.3,2.7,12.8,2.7
		C-6277.6-344.1-6274-344.7-6271.5-345.9z M-6299.7-361.9h33.7c-0.8-3-2.7-5.2-5.5-6.6c-2.8-1.4-6.7-2.1-11.5-2.1
		C-6292.3-370.6-6297.9-367.7-6299.7-361.9z"/>
	<path class="st0" d="M-6213.5-379c4.9-4.2,12.2-6.4,21.9-6.4c5.6,0,10.4,0.8,14.4,2.3c4,1.6,7.1,3.7,9.3,6.3c2.2,2.7,3.5,5.7,4,9.1
		h-9c-0.6-3.3-2.5-5.9-5.7-7.7c-3.2-1.8-7.5-2.7-13-2.7c-13.6,0-20.3,5.6-20.3,16.7c0,5.7,1.8,9.9,5.3,12.7
		c3.5,2.7,8.5,4.1,15.1,4.1c5.4,0,9.7-0.9,12.9-2.8c3.2-1.9,5.1-4.4,5.8-7.7h9c-0.5,3.4-1.8,6.5-4,9.2c-2.2,2.7-5.3,4.8-9.3,6.4
		c-4,1.6-8.8,2.3-14.4,2.3c-9.7,0-17-2.1-21.9-6.4c-4.9-4.3-7.4-10.2-7.4-17.8C-6220.9-368.8-6218.5-374.7-6213.5-379z"/>
	<path class="st0" d="M-6117.4-375.7c3.6,1.3,6.2,3.3,8.1,6.2c1.8,2.9,2.8,6.8,2.8,11.7v19.4h-8.1v-4.7c-4.5,1.9-8.7,3.3-12.7,4.4
		c-4,1-8.3,1.6-12.9,1.6c-6,0-10.5-1.1-13.5-3.2c-3-2.1-4.5-5.4-4.5-9.8c0-4.6,2.1-8,6.4-10.1c4.2-2.1,9.8-3.2,16.6-3.2
		c6.7,0,13.5,1,20.6,3.1c-0.1-4-1.9-6.7-5.5-8.1c-3.6-1.4-7.5-2-11.7-2c-3.1,0-6.2,0.2-9.5,0.7c-3.2,0.5-6.8,1.3-10.8,2.6l-3-6.4
		c4.2-1.3,8.2-2.3,12-2.9c3.8-0.7,7.8-1,12-1C-6125.5-377.6-6121-376.9-6117.4-375.7z M-6127-345.7c4.3-1.1,8.4-2.3,12.3-3.8v-4.1
		c-3.1-0.9-6.3-1.6-9.5-2.2c-3.2-0.5-6.8-0.8-10.6-0.8c-4.6,0-8.3,0.5-10.9,1.6c-2.6,1-3.9,2.7-3.9,4.9c0,2.3,1,3.9,2.9,4.7
		c1.9,0.8,4.9,1.2,8.8,1.2C-6134.8-344.1-6131.2-344.7-6127-345.7z"/>
	<path class="st0" d="M-6063-369.2h-19.3v14.6c0,2.9,0.2,5.1,0.7,6.5c0.5,1.4,1.4,2.4,2.7,3c1.3,0.6,3.3,0.8,6,0.8
		c2.6,0,6-0.3,9.9-0.8v7c-4.6,0.7-8.5,1-11.8,1c-4.1,0-7.2-0.5-9.5-1.5c-2.2-1-3.8-2.7-4.8-5.1c-1-2.4-1.4-5.8-1.4-10.2v-15.3h-11.3
		v-7.1h11.3v-8.8l8.1-2.7v11.6h19.3V-369.2z"/>
	<path class="st0" d="M-6013.5-375.7c3.6,1.3,6.2,3.3,8.1,6.2c1.8,2.9,2.8,6.8,2.8,11.7v19.4h-8.1v-4.7c-4.5,1.9-8.7,3.3-12.7,4.4
		c-4,1-8.3,1.6-12.9,1.6c-6,0-10.5-1.1-13.5-3.2c-3-2.1-4.5-5.4-4.5-9.8c0-4.6,2.1-8,6.4-10.1c4.2-2.1,9.8-3.2,16.6-3.2
		c6.7,0,13.5,1,20.6,3.1c-0.1-4-1.9-6.7-5.5-8.1c-3.6-1.4-7.5-2-11.7-2c-3.1,0-6.2,0.2-9.5,0.7c-3.2,0.5-6.8,1.3-10.8,2.6l-3-6.4
		c4.2-1.3,8.2-2.3,12-2.9c3.8-0.7,7.8-1,12-1C-6021.6-377.6-6017.1-376.9-6013.5-375.7z M-6023-345.7c4.3-1.1,8.4-2.3,12.3-3.8v-4.1
		c-3.1-0.9-6.3-1.6-9.5-2.2c-3.2-0.5-6.8-0.8-10.6-0.8c-4.6,0-8.3,0.5-10.9,1.6c-2.6,1-3.9,2.7-3.9,4.9c0,2.3,1,3.9,2.9,4.7
		s4.9,1.2,8.8,1.2C-6030.9-344.1-6027.3-344.7-6023-345.7z"/>
	<path class="st0" d="M-5934.3-343.9l14.6-32.4h8.7l-17.1,37.9h-12.4l-14.6-30.2l-14.6,30.2h-12.4l-17.1-37.9h8.6l14.7,32.4
		l15.5-32.4h10.3L-5934.3-343.9z"/>
	<path class="st0" d="M-5863.2-375.3c3.6,1.5,6.5,3.8,8.6,6.8c2.1,3,3.2,6.8,3.2,11.2c0,4.4-1.1,8.1-3.2,11.2c-2.1,3-5,5.3-8.6,6.8
		c-3.6,1.5-7.8,2.2-12.4,2.2c-4.8,0-8.9-0.7-12.3-2c-3.4-1.4-6.1-3.3-8.1-5.8v6.6h-8.1v-52h8.1v20.7c2-2.6,4.6-4.5,8.1-5.9
		c3.4-1.4,7.5-2,12.3-2C-5870.9-377.6-5866.8-376.8-5863.2-375.3z M-5864.7-347.7c3-2.3,4.5-5.5,4.5-9.6c0-4.1-1.5-7.3-4.5-9.6
		s-7.4-3.4-13-3.4c-5.8,0-10.2,1.2-13.4,3.5c-3.2,2.3-4.8,5.5-4.8,9.5s1.6,7.2,4.8,9.5c3.2,2.3,7.7,3.5,13.4,3.5
		C-5872-344.3-5867.7-345.4-5864.7-347.7z"/>
	<path class="st0" d="M-5803.8-375.7c3.6,1.3,6.2,3.3,8.1,6.2c1.8,2.9,2.8,6.8,2.8,11.7v19.4h-8.1v-4.7c-4.5,1.9-8.7,3.3-12.7,4.4
		c-4,1-8.3,1.6-12.9,1.6c-6,0-10.5-1.1-13.5-3.2c-3-2.1-4.5-5.4-4.5-9.8c0-4.6,2.1-8,6.4-10.1c4.2-2.1,9.8-3.2,16.6-3.2
		c6.7,0,13.5,1,20.6,3.1c-0.1-4-1.9-6.7-5.5-8.1c-3.6-1.4-7.5-2-11.7-2c-3.1,0-6.2,0.2-9.5,0.7c-3.2,0.5-6.8,1.3-10.8,2.6l-3-6.4
		c4.2-1.3,8.2-2.3,12-2.9c3.8-0.7,7.8-1,12-1C-5811.9-377.6-5807.4-376.9-5803.8-375.7z M-5813.3-345.7c4.3-1.1,8.4-2.3,12.3-3.8
		v-4.1c-3.1-0.9-6.3-1.6-9.5-2.2c-3.2-0.5-6.8-0.8-10.6-0.8c-4.6,0-8.3,0.5-10.9,1.6c-2.6,1-3.9,2.7-3.9,4.9c0,2.3,1,3.9,2.9,4.7
		s4.9,1.2,8.8,1.2C-5821.2-344.1-5817.6-344.7-5813.3-345.7z"/>
	<path class="st0" d="M-5707-355.6c1.2,1.4,1.8,3.3,1.8,5.7v11.6h-8.3v-9.6c0-1.6-0.2-2.8-0.5-3.6c-0.3-0.8-1-1.4-1.9-1.7
		c-0.9-0.3-2.2-0.5-4-0.5h-28.3v15.4h-8.3v-45.7h34.1c5.6,0,9.9,1.1,13,3.3c3.1,2.2,4.6,5.7,4.6,10.4c0,5.9-2.5,9.9-7.5,12
		C-5709.9-358-5708.1-357.1-5707-355.6z M-5748.1-376.7v15.7h23.7c2.2,0,4-0.1,5.5-0.4c1.5-0.3,2.7-1,3.8-2.1
		c1.1-1.1,1.6-2.9,1.6-5.4c0-2.4-0.5-4.1-1.6-5.3c-1.1-1.1-2.4-1.9-3.8-2.1c-1.5-0.3-3.3-0.4-5.5-0.4H-5748.1z"/>
	<path class="st0" d="M-5694.5-381.3v-9.1h8.1v9.1H-5694.5z M-5694.5-338.4v-37.9h8.1v37.9H-5694.5z"/>
	<path class="st0" d="M-5651.7-343.4l18.5-32.9h9.1l-21.5,37.9h-12.5l-21.4-37.9h9.1L-5651.7-343.4z"/>
	<path class="st0" d="M-5583.6-345.9c2.5-1.2,4.3-2.8,5.4-5h8.8c-1.2,4.4-3.9,7.8-8.3,10.2c-4.4,2.4-9.9,3.6-16.7,3.6
		c-8.1,0-14.6-1.7-19.5-5.1c-4.9-3.4-7.3-8.4-7.3-15.1c0-4.5,1.1-8.2,3.4-11.2c2.3-3,5.4-5.3,9.3-6.8c3.9-1.5,8.4-2.2,13.4-2.2
		c8.1,0,14.5,1.7,19.2,5.2c4.7,3.5,7.1,9.2,7.1,17.1h-43.5c0.4,3.9,2.2,6.7,5.2,8.5c3,1.8,7.3,2.7,12.8,2.7
		C-5589.8-344.1-5586.2-344.7-5583.6-345.9z M-5611.9-361.9h33.7c-0.8-3-2.7-5.2-5.5-6.6c-2.8-1.4-6.7-2.1-11.5-2.1
		C-5604.5-370.6-5610.1-367.7-5611.9-361.9z"/>
	<path class="st0" d="M-5522.6-376.1v7.3c-3.5-0.9-6.8-1.4-10.1-1.4c-3,0-5.9,0.5-8.8,1.6c-2.9,1.1-6.2,3.1-10,6v24.2h-8.1v-37.9
		h8.1v6.8c3-3,6-5.1,8.9-6.3c3-1.2,6.2-1.8,9.7-1.8C-5529.2-377.6-5525.8-377.1-5522.6-376.1z"/>
</g>
<path class="st8" d="M-6966-101.9c80.4,11.1,127.9-0.9,200.9-25.3s135.1-60.5,190.8-99.6c24.8-17.4,48.8-35.5,78.3-49.5
	c59.2-28.1,134.5-36.8,206.9-44.7c122-13.3,246.5-26.7,368.8-14.6c175.3,17.4,327.1,85,475.6,147.5s310.1,123.7,487.4,125.3"/>
<path class="st8" d="M-6939.3-60.1c57.7,4,116.8,8,173-1.1c122.4-19.9,200.7-95,304-141.8c109.3-49.5,252.4-66.5,381.8-45.4
	c52.6,8.6,102.4,23,150.9,38.8c177.5,57.6,340.5,133.6,523.7,183.2C-5271.7,9.8-5128,31.4-4982.8,37"/>
<path class="st8" d="M-5020.8,60.5c-184.6,17.7-381.7,26.8-550.1-25.2c-149.4-46.1-256.2-134.2-389.6-197.6
	c-28.6-13.6-58.8-26.1-91.6-34.9c-62.9-16.8-132.4-18.9-200.4-20.8c-53.1-1.5-108.5-2.7-156.7,11.7c-30.3,9.1-55.7,23.7-80.7,38
	c-47,26.8-94.6,53.2-142.8,79c-39.8,21.3-80.7,42.6-128.3,55.6c-56.3,15.3-118.5,18.3-179.4,21"/>
<path class="st8" d="M-7033.6-47.7c22.7-40.5,11.5-6.3,74.2-24.9c134.2-39.9,268.5-79.9,402.8-119.8c60.3-18,121-36,185.1-47.9
	c75.3-14,154.1-19.5,232.7-22.6c100-4,202.6-4.1,297.7,15.3c70.5,14.4,134.1,39,197.4,63c194.9,73.8,403.9,145.9,632.7,151.4"/>
<path class="st12" d="M-4395.3-41c33.8,5.7,68.3,6.4,102.6,7.1c38.6,0.7,77.4,2.9,116,2c-30.6-23.5-55.1-33.9-93.9-40.1
	c-67.3-10.8-133.6-27.5-197.9-49.9c-89.2-30.9-174.2-72.5-260.7-110.2c-8.2-3.6-17.3-7.2-25.8-4.4c29.2,30.8,63.4,53.4,100.9,72.7
	c40.3,20.8,75.7,49.3,115.7,70.6C-4493.4-69.3-4445.8-49.6-4395.3-41z"/>
<rect x="-1483.9" y="-3005" class="st0" width="1939.3" height="1114.4"/>
<path class="st9" d="M-2221-1298.3h-51.6l-52.3,2.3c-76.4,11.9-155.7,3.7-233.4,8.6c-62.2,3.9-122.8,16.2-184.2,24.8
	c-253,35.7-513.4,9.5-767.6-20.6c-84.6-10-170.5-20.5-255.3-11.9c-149.7,15.2-294.1,89.1-440.7,61.5"/>
<g>
	<path class="st9" d="M-4170.9-865.3c65.5,1,131.2-13.5,183.2-40.3c46-23.8,80.4-56.1,121.4-83.7c41.1-27.6,93.8-51.4,151.8-50.4
		c55.8,0.9,104.4,24.2,150.7,45c69.5,31.3,143.5,59.4,224.1,74.3c80.6,15,169,16,246.2-5.8c82.4-23.3,145.8-70.2,227.2-95.2
		c86.1-26.4,189.9-25.4,274.8,2.7c30.6,10.1,58.9,23.6,91,31.4c65.4,16,147.5,74.6,210.6,54.7"/>
	<path class="st9" d="M-2281.2-1117.3l-47.7-6.2c-46.8-55.8-147.1-89.1-241.4-80c-131.9,12.6-223.2,94.4-343.9,132.3
		c-101.5,31.9-220.9,30.9-328.5,9.8c-107.6-21.1-204.9-60.9-296-104.8c-59.3-28.5-122.4-60.4-195.3-60.2
		c-61,0.2-116.9,23.3-162.4,50.7s-84.3,59.8-132.7,84.8c-48.4,25-110.5,42.5-170.1,33.5"/>
	<path class="st4" d="M-4192.8-1030.4c60.8,13.3,126.9-6.8,177.3-33.2c50.4-26.4,93.4-59.9,149.9-80c91.9-32.8,205.4-24.7,302.8,0
		c97.4,24.7,184.5,64.5,277.7,95.6c59.8,20,124.3,36.6,191.1,35.9c97.6-1,184.7-38.2,272.4-67c93.1-30.6,194.4-53,298-52.2
		c103.6,0.7,209.9,26.9,276.8,80.1"/>
	<path class="st4" d="M-4215-1013c52.2-5.1,107.4,8.5,157.1-3.4c27.2-6.5,49.4-19.9,71-32.8c76.8-45.9,166.3-92,269-90.5
		c86.5,1.2,162.7,36,236,66.9c82.2,34.7,168.4,66.4,261.9,83.7c93.5,17.3,195.6,19.4,286-4.2c48.1-12.5,91.6-31.9,137.6-47.7
		c56.9-19.5,117.4-33.4,177.8-47.3c49.9-11.5,100.6-23.1,153.2-24.5c52.7-1.5,108.5,8.6,144.3,34.6"/>
	<path class="st4" d="M-4201.9-986.9c76.7,8.8,155.6,17.6,231.6,6.5c48.6-7.1,93.8-22.1,141.8-31c78.4-14.6,161.3-12.6,242.6-10.4
		c34.1,0.9,68.4,1.8,101.4,7.8c42.7,7.7,81,23.4,121.8,34.8c111.1,30.9,235.7,28.7,355.7,22.9c46.1-2.2,92.6-4.9,136.7-14.4
		c39.1-8.4,75.3-21.9,113.3-32.4c135.2-37.5,293.8-35,426.3,6.7"/>
	<path class="st4" d="M-4197.1-961.3c67.5-8.3,135.9,16.2,204.1,11.1c60.1-4.5,114.7-31.6,175.1-29.4"/>
	<path class="st4" d="M-4207.2-921.6c34.3-1.4,68.6-2.8,102.8-4.1c16.7-0.7,33.6-1.4,50.2,0c19.8,1.5,38.9,5.8,58.3,8.8
		c25.3,3.8,51.3,5.5,77.1,7.1"/>
	<path class="st4" d="M-4199.4-885.4c30.3-3.3,60.8-6.5,91.4-7c37.8-0.6,75.4,3.1,112.8,6.8"/>
</g>
<path class="st4" d="M-4199.7-1118.4c19-4.7,36.8,7.3,55.8,11.9c9.7,2.3,20.4,2.7,30.9,2.9c40.3,0.5,80.8-2.3,119.7-8.4"/>
<path class="st4" d="M-3515.5-1157.2c129.9-25.3,265.6,25.1,401.2,24.5c122.4-0.6,247.3-42.6,362.6-15.8"/>
<path class="st4" d="M-3433.7-1123.1c122.5-21.5,247.2,38,373.7,31.2c88.7-4.8,173.3-41.9,260.4-30"/>
<path class="st4" d="M-3582.1-1192.9c239-32.5,490.9,19,732-7c68.4-7.4,135.2-21,204.5-24.2c128.9-5.9,260.1,24.4,386.1,6.9"/>
<path class="st4" d="M-4192.4-1144.3c15.6-1.7,31.2-3.5,46.3-6.5c11.4-2.3,22.3-5.3,34-6.9c12.1-1.6,24.7-1.6,37.1-1.6
	c50.4,0.1,100.7,0.2,151.1,0.2"/>
<path class="st4" d="M-4206.3-1198.3c78.5-2.6,158.6-5.2,234.5,7.3c31.9,5.2,65.8,13,96.8,6.2"/>
<path class="st4" d="M-4198.8-1217.8c65.9-0.4,132-1.1,197.2-6.9c23.3-2.1,47.1-4.8,70.2-2.1c12.5,1.5,24.4,4.5,36.7,6.7
	c27.5,4.9,57.1,5.4,85,1.3"/>
<path class="st4" d="M-3687.8-1225.1c118.1,4.2,234.3-26.6,352.3-21.4c51,2.2,100.7,11.2,151.1,16.8c303.9,34.1,619-52,921.2-12"/>
<g>
	<path class="st0" d="M-2225.2-808.5v-183.2l-105.3,9.8c-160.7,17.2-313.2-92.2-470.4-63.9c-90.8,16.3-152.1,74.6-239.4,98
		c-25.5,6.8-52.7,10.5-80,13c-159.8,14.6-327.2-12.6-459.4-74.7c-35.2-16.5-70-36-112.5-40.2c-65.8-6.5-125.2,25.2-173.1,56.3
		c-47.4,30.7-93.3,63.1-148.6,87.1c-55.3,24-122.2,39.3-187.1,31.6"/>
</g>
<path class="st10" d="M-4211.7-851.2c54.8,3.6,112.3,7,163.1-7.3c41.2-11.7,73.3-33.8,106.8-53.7c90.5-53.7,213.3-95.7,329.2-73.2
	c60.5,11.7,111,39.5,168.5,56.7c48.7,14.6,101.8,21.4,154.7,25.8c60.3,5,121.8,7,181.6-0.2c77.9-9.4,149.7-33.8,223.5-53.1
	c73.8-19.3,154.5-33.7,231.7-21.7c37.3,5.8,71.9,17.4,107.9,26c100.8,23.8,210.6,22.5,317.2,17.7"/>
<path class="st10" d="M-4202.5-811.2c84.4,11,169.5-12.9,247.3-37.6s159.5-51.5,245.2-46.6c42.7,2.5,83.8,12.8,126.6,14.2
	c83.5,2.8,170.3-28,247.8-7"/>
<path class="st10" d="M-2992.9-892.5c72.3-0.4,136.1-30.1,204.9-45.1c85.8-18.7,182.3-13.7,262.8,13.6c21.4,7.2,41.8,16,64.7,20.7
	c31.8,6.5,65.8,4.7,98.9,2.8"/>
<path class="st10" d="M-3898.3-830.6c69.9-26.6,150.9-40,231.2-38.1c45,1,89.9,6.8,134.7,3.6c51.5-3.6,102.1-18.8,153.2-13.2"/>
<path class="st4" d="M-2958.7-879.2c86.7,11.4,172.2-21,260.2-26.1c39.8-2.3,79.7,1,119.3,4.4c43.3,3.7,86.6,7.3,130,11"/>
<path class="st10" d="M-3856.4-803.8c116.9-42,261.1-48,384.8-16"/>
<path class="st4" d="M-2921.9-818.9c40.6-0.7,79.6-10,118.2-18.3c100.4-21.6,209.4-37.2,310.1-16.5"/>
<g>
	<path class="st0" d="M-2213.5-493.4c64-0.7-98.7-107-38.5-120.6c-6.7-57.3,42-55.7,0-106.8c-27.6-33.5,1-45.4-13.9-81.9
		c-11-27.2-4.2-44.9-2.4-72.9c1.4-21.7,25.6-6.1,1.4-21.7c-10.7-6.9,29.4-26.1,14.8-29.3c-56.4-12.4,191.3-36.6,136.4-21.8
		c-83.1-8.9-170.7-0.2-245.4,24.2c-95.8,31.3-178,88.8-286.1,89.2c-75.4,0.3-142.2-28-206.5-52.6c-83.9-32.1-176.5-60.2-274.9-60.5
		c-63.9-0.2-126.6,11.6-185.3,27.3c-58.9,15.8-114.9,35.7-166.7,59.3c-46.2,21.1-91.3,45.7-147.2,53.4
		c-118.6,16.3-224.7-48.5-343.5-64.4c-100-13.3-210.5,12-273.2,62.5c-13.3,93.3-10.1,187.8-23.4,281.2c-0.8,5.4-6.5,10.7-1.3,15"/>
</g>
<path class="st4" d="M-4256.6-802.9c72.3-1.9,131.5-37.5,202.2-47.1c126.9-17.3,244.3,51.2,374,56.1
	c169.7,6.4,304.4-94.9,472.9-109.2c112.6-9.5,222.5,21,328.1,47.2c105.6,26.2,224.2,48.7,330.6,23.8c34-8,65-20.5,99.1-28.3
	c72.4-16.6,152.3-11,228.8-5"/>
<path class="st4" d="M-4280.3-747.6c73.8-22.2,147.6-44.5,221.4-66.7c24.4-7.3,49.7-14.8,76.7-15.5c51-1.3,94.4,21,138.6,37.1
	c97.9,35.6,221.6,42.2,327.7,17.4c74.6-17.4,138.4-48.7,206.5-74.5s146.3-46.9,225.1-40.2c52.4,4.4,100.1,20.7,147.9,34.8
	c70.1,20.7,143.2,37.2,218.2,49.4c77.3,12.6,162.2,20.1,234.7-0.9c30-8.7,56.3-21.8,86.8-29.8c51.3-13.4,109.1-10.8,164.5-8.1"/>
<path class="st4" d="M-4266.9-687.2c49,2.7,68-3.5,108.3-21.2c61.4-26.8,96.8-79.8,170.6-87.7c59.8-6.4,113.7,20.6,169.1,36
	c105.3,29.2,228.6,17,336.9-7.5c108.3-24.5,210-60.6,321.1-79.5c30.8-5.2,62.6-9.2,94.5-8.7c55.1,0.7,107.5,14.1,158.6,27.1
	c155.7,39.5,328.5,76.8,488.1,44c51.8-10.7,101.8-28.7,156.4-28"/>
<path class="st10" d="M-4251.7-665.5c49.8,3.2,100.7-0.9,147.5-11.9c20.1-4.7,39.4-10.7,59.9-14.6c36.2-6.9,74.6-7.4,112.4-7.8
	c61.3-0.6,122.7-1.2,184-1.8"/>
<path class="st10" d="M-3347.3-766.5c88.5-26.8,181.4-54.2,279.7-52.4c52.1,0.9,102.8,10,152.3,20.1
	c55.7,11.3,110.8,23.8,165.1,37.5c48.9,12.3,97.5,25.7,148.9,33c113.8,16.2,232.9,1.8,349.3,7.5"/>
<path class="st10" d="M-2846.1-672.6c91.2-7.1,182.8,9.8,274.6,10.2c42.9,0.2,85.6-3.2,128.2-6.5c59.9-4.7,120.2-9.5,177.4-21.6"/>
<path class="st10" d="M-2771.9-641.7c89.4-11.5,178.8,14.2,267.6,27.4c77.7,11.5,158.3,13.3,238.1,12.2"/>
<path class="st10" d="M-2578.7-579.5c89.3-2.9,180.1-5.7,267,7.5c19.1,2.9,37.8,6.5,56.6,10.2"/>
<path class="st10" d="M-3053.4-743c62.1-2.8,125.4-5.5,185.9,3.6c59,8.8,113,28.4,172.3,36.3c38.8,5.2,78.9,5.2,118.6,5
	c115-0.4,230-1.9,344.9-4.4"/>
<path class="st10" d="M-4251.2-612.8c19.3-5.6,46.4-6.1,71.4-6.1c58.7,0,117.5,1.6,175.5,4.8"/>
<text transform="matrix(1 0 0 1 -3809.7832 -852.2814)" class="st17 st18">Before the intruders of </text>
<text transform="matrix(1 0 0 1 -3687.7825 -765.5161)" class="st17 st18">The Catawba River</text>
<path class="st0" d="M-2192.2-547.2L-2192.2-547.2c-115.3,8.9-232.1-10.5-338.1-41.2S-2733.7-661-2833-700
	c-39.1-15.4-78.9-30.4-121.7-40.8c-53.9-13.2-111.3-18.8-168.4-23.5c-70.8-5.8-142.1-10.2-213.5-9c-219.9,3.8-430.7,62-614.6,140.5
	c-86.8,37-159.5,79.8-263.2,81.2L-4320.1-441"/>
<path class="st8" d="M-4200.5-508.5c80.4,11.1,127.9-0.9,200.9-25.3s135.1-60.5,190.8-99.6c24.8-17.4,48.8-35.5,78.3-49.5
	c59.2-28.1,134.5-36.8,206.9-44.7c122-13.3,246.5-26.7,368.8-14.6c175.3,17.4,327.1,85,475.6,147.5
	c148.6,62.5,310.1,123.7,487.4,125.3"/>
<path class="st8" d="M-4187.7-487.3c57.7,4,116.8,8,173-1.1c122.4-19.9,200.7-95,304-141.8c109.3-49.5,252.4-66.5,381.8-45.4
	c52.6,8.6,102.4,23,150.9,38.8c177.5,57.6,340.5,133.6,523.7,183.2c134.2,36.3,277.9,57.8,423.1,63.5"/>
<path class="st8" d="M-2269.2-366.6c-184.6,17.7-381.7,26.8-550.1-25.2c-149.4-46.1-256.2-134.2-389.6-197.6
	c-28.6-13.6-58.8-26.1-91.6-34.9c-62.9-16.8-132.4-18.9-200.4-20.8c-53.1-1.5-108.5-2.7-156.7,11.7c-30.3,9.1-55.7,23.7-80.7,38
	c-47,26.8-94.6,53.2-142.8,79c-39.8,21.3-80.7,42.6-128.3,55.6c-56.3,15.3-118.5,18.3-179.4,21"/>
<path class="st8" d="M-4282-474.9c22.7-40.5,11.6-6.3,74.2-24.9c134.2-39.9,268.5-79.9,402.8-119.8c60.3-18,121-36,185.1-47.9
	c75.3-14,154.2-19.5,232.7-22.6c100-4,202.6-4.1,297.7,15.3c70.5,14.4,134.1,39,197.4,63c194.9,73.8,403.9,145.9,632.7,151.4"/>
<path class="st13" d="M-4007.9-895.5c54.8-14.2,101.9-49.7,149.6-81.4c53.3-35.4,120.5-70,185.8-58c29.6,5.5,55.3,23.6,81.5,38.9
	c47.7,27.8,99.9,47.1,153.7,56.9c-25.6-23.4-63.3-23.3-95.1-36c-30.1-12-54.7-35.5-83.7-49.9c-37.2-18.5-86.2-25.8-127.1-21.1
	c-40.5,4.7-74.6,28.5-109.1,49.3c-26.7,16.1-52.3,34.1-78.1,51.7C-3952.6-929.9-3982-902.2-4007.9-895.5z"/>
<path class="st14" d="M-2463.6-1190.9c19.7,5.4,38.6,13.6,57.3,21.8c11,4.8,22.1,9.6,32,16.4c4.2,2.9,8.4,6.1,12.2,9.5
	c2.1,1.9,8.7,11.6,10.7,12c-24.3-4.5-48.3-15.1-70.9-24.9c-6.7-2.9-13.1-6.5-19.6-9.7c-39.4-19.5-85.2-26-128.5-18.2
	c-8.7,1.6-17.3,4.1-26.1,5.6c-7.7,1.4-15.6-0.1-23.3,1.6c-4.7,1-9.1,3.2-13.8,4.5c-12,3.3-23.9,6.6-35.9,9.9
	c-9.2,2.5-18.5,5.1-27.5,8.3c-10.1,3.6-19.8,8.1-29.6,12.6c-10,4.6-19.9,9.5-30,13.8c-7.1,3-18.3,0.6-24.5,4.3
	c12.3-7.3,24.8-14.1,37.6-20.3c6.5-3.2,13-6.2,20-8.2c5-1.5,10.2-2.3,15.2-3.8c11.4-3.4,21.7-9.7,32.1-15.6
	c4.6-2.6,9.2-5.1,14.1-7.2c8.6-3.7,17.5-5,26.4-7.5c8.1-2.2,16.5-3.8,24.8-5.1c14-2.2,28-3.3,42.1-5
	C-2533.6-1200.4-2497.9-1200.2-2463.6-1190.9z"/>
<path class="st15" d="M-2785.1-452.6c78,24.2,160.4,33.2,242.4,35.2c-40.1-9.4-79.7-20.5-119.3-31.6c-28-7.9-56.1-15.7-84.1-23.6
	c-79.1-22.2-158.9-44.6-231.1-82.7c-21.4-11.3-43.1-24.3-67.5-26C-2973.6-524-2873.1-479.9-2785.1-452.6z"/>
<path class="st13" d="M-3441.5-763.6c61.1-5.6,122.5-7.1,183.8-5.2c30.6,1,61.3,2.8,91.8,5.5c12.9,1.1,25.2,2.6,38.2,3.6
	c6.7,0.5,13.4,1.2,20,2.5c5.4,1.1,12.6,5.3,17.8,5.4c-42.3-0.8-83.7-9.9-126.3-9.6c-31.1,0.2-62.3-1-93.5,0
	c-39.8,1.3-79.3,6-119.2,6.7c-10.8,0.2-21.5,1.1-32.2,1.5c-10.2,0.4-24.9-3.9-34.5-1C-3480.1-758.9-3458.7-762.1-3441.5-763.6z"/>
<path class="st9" d="M-76.8-1292.3h-51.6l-52.3,2.3c-76.4,11.9-155.7,3.7-233.4,8.6c-62.2,3.9-122.8,16.2-184.1,24.8
	c-253,35.7-513.4,9.5-767.6-20.6c-84.6-10-170.5-20.5-255.3-11.9c-149.7,15.2-294.1,89.1-440.7,61.5"/>
<g>
	<path class="st9" d="M-2026.8-859.3c65.5,1,131.2-13.5,183.2-40.3c46-23.8,80.4-56.1,121.4-83.7c41.1-27.6,93.8-51.4,151.8-50.4
		c55.8,0.9,104.3,24.2,150.7,45c69.5,31.3,143.5,59.3,224.1,74.3c80.6,15,169,16,246.2-5.8c82.4-23.3,145.8-70.2,227.2-95.2
		c86.1-26.4,189.8-25.4,274.8,2.7c30.6,10.1,58.9,23.6,91,31.4c65.4,16,147.5,74.6,210.6,54.7"/>
	<path class="st9" d="M-137.1-1111.3l-47.7-6.2c-46.8-55.8-147.1-89.1-241.4-80c-131.9,12.6-223.1,94.4-343.9,132.3
		c-101.5,31.9-220.9,30.9-328.5,9.8c-107.6-21.1-204.9-60.9-296-104.8c-59.3-28.5-122.4-60.4-195.3-60.2
		c-61,0.2-116.9,23.3-162.4,50.7c-45.5,27.4-84.3,59.8-132.7,84.8c-48.4,25-110.5,42.5-170.1,33.5"/>
	<path class="st4" d="M-2048.6-1024.4c60.8,13.3,126.9-6.8,177.3-33.2s93.4-59.9,149.9-80c92-32.8,205.4-24.7,302.8,0
		c97.4,24.7,184.5,64.5,277.7,95.6c59.8,20,124.3,36.6,191.1,35.9c97.6-1,184.7-38.2,272.4-67c93.1-30.6,194.4-53,298-52.2
		c103.6,0.7,209.9,26.9,276.8,80.1"/>
	<path class="st4" d="M-2070.9-1006.9c52.2-5.1,107.4,8.5,157.1-3.4c27.2-6.5,49.4-19.9,71-32.8c76.8-45.9,166.3-92,269-90.5
		c86.5,1.2,162.7,36,236,66.9c82.2,34.7,168.4,66.4,261.9,83.7c93.5,17.3,195.6,19.4,286-4.2c48.2-12.5,91.6-31.9,137.6-47.7
		c56.8-19.5,117.4-33.4,177.8-47.3c49.9-11.5,100.6-23.1,153.2-24.5s108.5,8.6,144.3,34.6"/>
	<path class="st4" d="M-2057.7-980.8c76.7,8.8,155.6,17.6,231.7,6.5c48.6-7.1,93.8-22.1,141.8-31c78.4-14.6,161.3-12.6,242.6-10.4
		c34,0.9,68.4,1.8,101.4,7.8c42.7,7.7,81,23.4,121.8,34.8c111.1,30.9,235.7,28.7,355.7,22.9c46.1-2.2,92.7-4.9,136.7-14.4
		c39.1-8.4,75.3-21.9,113.3-32.4c135.2-37.5,293.8-35,426.3,6.7"/>
	<path class="st4" d="M-2053-955.3c67.5-8.3,135.9,16.2,204.1,11.1c60.1-4.5,114.7-31.6,175.1-29.4"/>
	<path class="st4" d="M-2063-915.6c34.3-1.4,68.6-2.8,102.8-4.1c16.7-0.7,33.6-1.3,50.2,0c19.8,1.5,38.9,5.8,58.3,8.8
		c25.3,3.9,51.3,5.5,77.1,7.1"/>
	<path class="st4" d="M-2055.2-879.4c30.3-3.3,60.8-6.5,91.4-7c37.8-0.6,75.4,3.1,112.8,6.8"/>
</g>
<path class="st4" d="M-2055.6-1112.3c19-4.7,36.8,7.3,55.8,11.8c9.7,2.3,20.4,2.7,30.9,2.9c40.3,0.6,80.8-2.3,119.7-8.4"/>
<path class="st4" d="M-1371.4-1151.1c129.9-25.3,265.6,25.1,401.2,24.5c122.4-0.6,247.3-42.6,362.6-15.8"/>
<path class="st4" d="M-1289.6-1117.1c122.5-21.5,247.2,38,373.7,31.2c88.7-4.8,173.3-41.9,260.4-30"/>
<path class="st4" d="M-1438-1186.9c239-32.5,490.9,19,732-7.1c68.4-7.4,135.2-21,204.5-24.2c128.9-5.9,260.1,24.4,386.1,6.9"/>
<path class="st4" d="M-2048.3-1138.3c15.6-1.7,31.3-3.5,46.3-6.5c11.4-2.3,22.3-5.4,34-6.9c12.1-1.6,24.7-1.6,37.1-1.6
	c50.4,0.1,100.7,0.2,151.1,0.2"/>
<path class="st4" d="M-2062.2-1192.3c78.5-2.6,158.6-5.2,234.5,7.3c31.9,5.2,65.8,13,96.8,6.2"/>
<path class="st4" d="M-2054.7-1211.8c65.9-0.4,132-1.1,197.2-6.9c23.3-2.1,47.1-4.8,70.2-2.1c12.5,1.5,24.4,4.5,36.7,6.7
	c27.5,4.9,57.1,5.4,85,1.3"/>
<path class="st4" d="M-1543.7-1219c118.1,4.2,234.3-26.6,352.3-21.4c51,2.2,100.7,11.2,151.1,16.8c303.9,34.1,619-52,921.2-12"/>
<g>
	<path class="st0" d="M-81.1-802.5v-183.2l-105.3,9.8c-160.7,17.2-313.2-92.2-470.4-63.9c-90.8,16.4-152.2,74.6-239.4,98
		c-25.5,6.9-52.7,10.5-80,13c-159.8,14.6-327.2-12.6-459.4-74.7c-35.2-16.5-70-36-112.5-40.2c-65.8-6.5-125.2,25.2-173.1,56.3
		c-47.4,30.7-93.3,63.1-148.6,87.1c-55.3,24-122.2,39.3-187.1,31.6"/>
</g>
<path class="st10" d="M-2067.6-845.2c54.8,3.7,112.3,7,163.1-7.3c41.2-11.7,73.3-33.8,106.8-53.7c90.5-53.7,213.3-95.7,329.2-73.2
	c60.5,11.7,111,39.5,168.5,56.7c48.7,14.6,101.8,21.4,154.7,25.8c60.3,5,121.8,7,181.6-0.2c77.9-9.4,149.7-33.9,223.5-53.2
	c73.8-19.3,154.5-33.7,231.7-21.7c37.3,5.8,71.9,17.4,107.9,26c100.8,23.8,210.6,22.5,317.2,17.7"/>
<path class="st10" d="M-2058.4-805.2c84.4,11,169.5-12.9,247.3-37.6s159.5-51.5,245.2-46.6c42.7,2.5,83.8,12.8,126.6,14.2
	c83.5,2.8,170.3-28,247.8-7"/>
<path class="st10" d="M-848.8-886.5c72.3-0.4,136.1-30.1,204.9-45.1c85.8-18.7,182.3-13.7,262.8,13.6c21.4,7.2,41.8,16,64.7,20.7
	c31.8,6.5,65.8,4.7,98.9,2.8"/>
<path class="st10" d="M-1754.2-824.5c69.9-26.6,150.9-40,231.2-38.1c45,1,89.9,6.8,134.7,3.6c51.5-3.6,102.1-18.8,153.2-13.2"/>
<path class="st4" d="M-814.6-873.1c86.7,11.4,172.2-21,260.2-26.1c39.8-2.3,79.7,1,119.3,4.4c43.3,3.6,86.6,7.3,130,11"/>
<path class="st10" d="M-1712.3-797.8c116.9-42,261.1-48,384.8-16"/>
<path class="st4" d="M-777.8-812.9c40.6-0.7,79.6-10,118.2-18.3c100.3-21.6,209.4-37.2,310.1-16.5"/>
<g>
	<path class="st0" d="M-69.4-487.4c64-0.7-98.7-107-38.5-120.6c-6.7-57.3,42-55.7,0-106.8c-27.6-33.5,1-45.4-13.9-81.9
		c-11-27.2-4.2-44.9-2.4-72.9c1.4-21.7,25.6-6.1,1.4-21.7c-10.7-6.9,29.4-26.1,14.8-29.3c-56.4-12.4,191.3-36.6,136.3-21.8
		c-83.1-8.8-170.7-0.2-245.4,24.2c-95.8,31.3-178,88.8-286.1,89.2c-75.4,0.3-142.2-28-206.5-52.6c-83.9-32.1-176.5-60.2-274.9-60.5
		c-63.9-0.2-126.6,11.6-185.3,27.3c-58.9,15.8-114.9,35.7-166.7,59.3c-46.2,21.1-91.3,45.7-147.2,53.4
		c-118.6,16.3-224.7-48.5-343.5-64.4c-100-13.3-210.5,12-273.2,62.5c-13.3,93.3-10.1,187.8-23.4,281.2c-0.8,5.4-6.5,10.7-1.3,15"/>
</g>
<path class="st4" d="M-2112.5-796.9c72.3-1.9,131.5-37.5,202.2-47.1c126.9-17.3,244.3,51.2,374,56.1
	c169.7,6.4,304.4-94.9,472.9-109.2c112.6-9.5,222.5,21,328.1,47.2s224.2,48.7,330.6,23.8c34-8,65-20.5,99.1-28.3
	c72.4-16.6,152.3-11,228.8-5"/>
<path class="st4" d="M-2136.2-741.6c73.8-22.2,147.6-44.5,221.4-66.7c24.4-7.3,49.7-14.8,76.7-15.5c51-1.3,94.4,21,138.6,37.1
	c97.9,35.6,221.5,42.2,327.7,17.4c74.6-17.4,138.4-48.7,206.5-74.5c68.1-25.8,146.3-46.8,225.2-40.2c52.4,4.4,100.1,20.7,147.9,34.8
	c70.1,20.6,143.2,37.2,218.2,49.4c77.3,12.6,162.2,20.1,234.7-0.9c30-8.7,56.3-21.8,86.8-29.8c51.3-13.4,109.1-10.8,164.5-8.1"/>
<path class="st4" d="M-2122.8-681.2c49,2.7,68-3.5,108.3-21.2c61.4-26.8,96.8-79.8,170.6-87.7c59.8-6.4,113.7,20.6,169.1,36
	c105.3,29.2,228.6,17,336.9-7.5c108.3-24.5,210-60.6,321.1-79.5c30.8-5.2,62.6-9.1,94.5-8.7c55.1,0.7,107.5,14.1,158.6,27.1
	c155.7,39.5,328.5,76.8,488.1,44c51.8-10.7,101.8-28.7,156.4-28"/>
<path class="st10" d="M-2107.6-659.4c49.8,3.2,100.7-0.9,147.5-11.9c20.1-4.7,39.4-10.7,59.9-14.6c36.2-6.9,74.6-7.4,112.4-7.8
	c61.3-0.6,122.7-1.2,184-1.8"/>
<path class="st10" d="M-1203.1-760.5c88.5-26.8,181.4-54.2,279.7-52.4c52.1,0.9,102.8,10,152.3,20.1
	c55.7,11.3,110.8,23.8,165.1,37.5c48.9,12.3,97.5,25.7,148.9,33c113.8,16.2,232.9,1.8,349.3,7.5"/>
<path class="st10" d="M-702-666.6c91.2-7.1,182.8,9.8,274.6,10.2c42.9,0.2,85.6-3.2,128.2-6.5c59.9-4.7,120.2-9.5,177.4-21.6"/>
<path class="st10" d="M-627.7-635.7c89.4-11.5,178.8,14.2,267.6,27.4c77.7,11.5,158.3,13.3,238.1,12.2"/>
<path class="st10" d="M-434.6-573.5c89.3-2.9,180.1-5.7,267,7.5c19.1,2.9,37.8,6.5,56.6,10.2"/>
<path class="st10" d="M-909.3-737c62.1-2.8,125.4-5.5,185.9,3.6c59,8.8,113,28.4,172.3,36.3c38.8,5.2,78.9,5.2,118.6,5
	c115-0.4,230-1.9,344.9-4.4"/>
<path class="st10" d="M-2107.1-606.8c19.3-5.6,46.4-6.1,71.4-6.1c58.7,0,117.5,1.6,175.5,4.8"/>
<text transform="matrix(1 0 0 1 -1665.6674 -846.2548)" class="st0 st17 st18">Before the intruders of </text>
<text transform="matrix(1 0 0 1 -1543.6669 -759.4896)" class="st0 st17 st18">The Catawba River</text>
<path class="st0" d="M-48.1-541.2L-48.1-541.2c-115.3,8.9-232.1-10.5-338.1-41.2S-589.5-655-688.9-694
	c-39.1-15.4-78.9-30.4-121.7-40.8c-53.9-13.2-111.3-18.8-168.4-23.5c-70.8-5.8-142.1-10.2-213.5-9c-219.9,3.8-430.7,62-614.6,140.5
	c-86.8,37-159.5,79.8-263.2,81.2L-2176-434.9"/>
<path class="st8" d="M-2056.4-502.5c80.3,11.1,127.9-0.9,200.9-25.3c73-24.4,135.1-60.5,190.8-99.6c24.8-17.4,48.8-35.5,78.3-49.5
	c59.2-28.1,134.5-36.8,206.9-44.7c122-13.3,246.5-26.7,368.8-14.6c175.3,17.4,327.1,85,475.7,147.5s310.1,123.6,487.4,125.3"/>
<path class="st8" d="M-2043.6-481.3c57.7,4,116.8,8,173-1.1c122.4-19.9,200.7-95,304-141.8c109.3-49.5,252.4-66.5,381.8-45.4
	c52.6,8.6,102.4,23,150.9,38.8c177.5,57.6,340.5,133.6,523.7,183.2c134.2,36.3,277.9,57.8,423.1,63.5"/>
<path class="st8" d="M-125-360.6c-184.6,17.7-381.7,26.8-550.1-25.2c-149.4-46.1-256.2-134.2-389.6-197.6
	c-28.6-13.6-58.8-26.1-91.6-34.9c-62.9-16.8-132.4-18.9-200.4-20.8c-53.1-1.5-108.5-2.7-156.7,11.7c-30.3,9.1-55.7,23.7-80.7,38
	c-47,26.8-94.6,53.2-142.8,79c-39.8,21.3-80.7,42.6-128.3,55.6c-56.3,15.3-118.5,18.3-179.4,21"/>
<path class="st8" d="M-2137.9-468.9c22.7-40.5,11.6-6.3,74.2-24.9c134.2-39.9,268.5-79.9,402.8-119.8c60.3-18,121-36,185.1-47.9
	c75.3-14,154.2-19.5,232.7-22.6c100-4,202.6-4.1,297.7,15.3c70.5,14.4,134.1,39,197.4,63C-553.2-532-344.2-460-115.4-454.5"/>
<path class="st9" d="M1981.5-1292.3h-51.6l-52.3,2.3c-76.4,11.9-155.7,3.7-233.4,8.6c-62.2,3.9-122.8,16.2-184.2,24.8
	c-253,35.7-513.4,9.5-767.6-20.6c-84.6-10-170.5-20.5-255.3-11.9c-149.7,15.2-294.1,89.1-440.7,61.5"/>
<g>
	<path class="st9" d="M31.6-859.3c65.5,1,131.2-13.5,183.2-40.3c46-23.8,80.4-56.1,121.5-83.7s93.8-51.4,151.8-50.4
		c55.8,0.9,104.3,24.2,150.7,45c69.5,31.3,143.5,59.3,224.1,74.3c80.6,15,169,16,246.2-5.8c82.4-23.3,145.8-70.2,227.2-95.2
		c86.1-26.4,189.8-25.4,274.8,2.7c30.6,10.1,58.9,23.6,91,31.4c65.4,16,147.5,74.6,210.6,54.7"/>
	<path class="st9" d="M1921.3-1111.3l-47.7-6.2c-46.8-55.8-147.1-89.1-241.4-80c-131.9,12.6-223.2,94.4-343.9,132.3
		c-101.5,31.9-220.9,30.9-328.5,9.8c-107.6-21.1-204.9-60.9-296-104.8c-59.3-28.5-122.4-60.4-195.3-60.2
		c-61,0.2-116.9,23.3-162.4,50.7c-45.5,27.4-84.3,59.8-132.7,84.8c-48.4,25-110.5,42.5-170.1,33.5"/>
	<path class="st4" d="M9.7-1024.4c60.8,13.3,126.9-6.8,177.3-33.2s93.4-59.9,149.9-80c92-32.8,205.4-24.7,302.8,0
		c97.4,24.7,184.5,64.5,277.7,95.6c59.8,20,124.3,36.6,191.1,35.9c97.6-1,184.7-38.2,272.4-67c93.1-30.6,194.4-53,298-52.2
		c103.6,0.7,209.9,26.9,276.8,80.1"/>
	<path class="st4" d="M-12.6-1006.9c52.2-5.1,107.4,8.5,157.1-3.4c27.2-6.5,49.4-19.9,71-32.8c76.8-45.9,166.3-92,269-90.5
		c86.5,1.2,162.7,36,236,66.9c82.2,34.7,168.4,66.4,261.9,83.7c93.5,17.3,195.6,19.4,286-4.2c48.2-12.5,91.6-31.9,137.6-47.7
		c56.8-19.5,117.4-33.4,177.8-47.3c49.9-11.5,100.6-23.1,153.2-24.5s108.5,8.6,144.3,34.6"/>
	<path class="st4" d="M0.6-980.8c76.7,8.8,155.6,17.6,231.6,6.5c48.6-7.1,93.8-22.1,141.8-31c78.4-14.6,161.3-12.6,242.6-10.4
		c34,0.9,68.4,1.8,101.4,7.8c42.7,7.7,81,23.4,121.8,34.8c111.1,30.9,235.7,28.7,355.6,22.9c46.1-2.2,92.7-4.9,136.7-14.4
		c39.1-8.4,75.3-21.9,113.3-32.4c135.2-37.5,293.8-35,426.3,6.7"/>
	<path class="st4" d="M5.4-955.3c67.5-8.3,135.9,16.2,204.1,11.1c60.1-4.5,114.7-31.6,175.1-29.4"/>
	<path class="st4" d="M-4.7-915.6c34.3-1.4,68.6-2.8,102.8-4.1c16.7-0.7,33.6-1.3,50.3,0c19.8,1.5,38.9,5.8,58.3,8.8
		c25.3,3.9,51.3,5.5,77.1,7.1"/>
	<path class="st4" d="M3.1-879.4c30.3-3.3,60.8-6.5,91.4-7c37.8-0.6,75.4,3.1,112.8,6.8"/>
</g>
<path class="st4" d="M2.7-1112.3c19-4.7,36.8,7.3,55.8,11.8c9.7,2.3,20.4,2.7,30.9,2.9c40.3,0.6,80.8-2.3,119.7-8.4"/>
<path class="st4" d="M687-1151.1c129.9-25.3,265.6,25.1,401.2,24.5c122.4-0.6,247.3-42.6,362.6-15.8"/>
<path class="st4" d="M768.8-1117.1c122.5-21.5,247.2,38,373.7,31.2c88.7-4.8,173.3-41.9,260.4-30"/>
<path class="st4" d="M620.3-1186.9c239-32.5,490.9,19,732-7.1c68.4-7.4,135.2-21,204.5-24.2c128.9-5.9,260.1,24.4,386.1,6.9"/>
<path class="st4" d="M10.1-1138.3c15.6-1.7,31.3-3.5,46.3-6.5c11.3-2.3,22.3-5.4,34-6.9c12.1-1.6,24.7-1.6,37.1-1.6
	c50.4,0.1,100.7,0.2,151.1,0.2"/>
<path class="st4" d="M-3.8-1192.3c78.5-2.6,158.6-5.2,234.5,7.3c31.9,5.2,65.8,13,96.8,6.2"/>
<path class="st4" d="M3.6-1211.8c65.9-0.4,132-1.1,197.2-6.9c23.3-2.1,47.1-4.8,70.2-2.1c12.5,1.5,24.4,4.5,36.6,6.7
	c27.5,4.9,57.1,5.4,85,1.3"/>
<path class="st4" d="M514.7-1219c118.1,4.2,234.3-26.6,352.3-21.4c51,2.2,100.7,11.2,151.1,16.8c303.9,34.1,619-52,921.2-12"/>
<g>
	<path class="st0" d="M1977.3-802.5v-183.2l-105.3,9.8c-160.7,17.2-313.2-92.2-470.4-63.9c-90.8,16.4-152.2,74.6-239.4,98
		c-25.5,6.9-52.7,10.5-80,13C922.4-914,755-941.2,622.8-1003.3c-35.2-16.5-70-36-112.5-40.2c-65.8-6.5-125.2,25.2-173.1,56.3
		c-47.4,30.7-93.4,63.1-148.7,87.1c-55.3,24-122.2,39.3-187.1,31.6"/>
</g>
<path class="st10" d="M-9.3-845.2c54.8,3.7,112.3,7,163.1-7.3c41.2-11.7,73.3-33.8,106.8-53.7c90.5-53.7,213.3-95.7,329.2-73.2
	c60.5,11.7,111,39.5,168.5,56.7c48.7,14.6,101.8,21.4,154.7,25.8c60.3,5,121.8,7,181.6-0.2c77.9-9.4,149.7-33.9,223.5-53.2
	c73.8-19.3,154.5-33.7,231.7-21.7c37.3,5.8,71.9,17.4,107.9,26c100.8,23.8,210.6,22.5,317.2,17.7"/>
<path class="st10" d="M0-805.2c84.4,11,169.5-12.9,247.3-37.6s159.5-51.5,245.2-46.6c42.7,2.5,83.8,12.8,126.6,14.2
	c83.5,2.8,170.3-28,247.8-7"/>
<path class="st10" d="M1209.6-886.5c72.3-0.4,136.1-30.1,204.9-45.1c85.8-18.7,182.3-13.7,262.8,13.6c21.4,7.2,41.8,16,64.7,20.7
	c31.8,6.5,65.8,4.7,98.9,2.8"/>
<path class="st4" d="M1243.8-873.1c86.7,11.4,172.2-21,260.2-26.1c39.8-2.3,79.7,1,119.3,4.4c43.3,3.6,86.6,7.3,130,11"/>
<path class="st10" d="M346-797.8c116.9-42,261.1-48,384.8-16"/>
<path class="st4" d="M1280.6-812.9c40.6-0.7,79.6-10,118.2-18.3c100.3-21.6,209.4-37.2,310.1-16.5"/>
<g>
	<path class="st0" d="M1989-487.4c64-0.7-98.7-107-38.5-120.6c-6.7-57.3,42-55.7,0-106.8c-27.6-33.5,1-45.4-13.9-81.9
		c-11-27.2-4.2-44.9-2.4-72.9c1.4-21.7,25.6-6.1,1.4-21.7c-10.7-6.9,29.4-26.1,14.8-29.3c-56.4-12.4,191.3-36.6,136.3-21.8
		c-83.1-8.8-170.7-0.2-245.4,24.2c-95.8,31.3-178,88.8-286.1,89.2c-75.4,0.3-142.2-28-206.5-52.6c-83.9-32.1-176.5-60.2-274.9-60.5
		c-63.9-0.2-126.6,11.6-185.3,27.3c-58.9,15.8-114.9,35.7-166.7,59.3c-46.2,21.1-91.3,45.7-147.2,53.4
		c-118.6,16.3-224.7-48.5-343.5-64.4c-100-13.3-210.5,12-273.2,62.5C-55.2-710.7-52-616.2-65.3-522.9c-0.8,5.4-6.5,10.7-1.3,15"/>
</g>
<path class="st4" d="M-54.1-796.9c72.3-1.9,131.5-37.5,202.2-47.1c126.9-17.3,244.3,51.2,374,56.1C691.8-781.5,826.5-882.8,995-897
	c112.5-9.5,222.5,21,328.1,47.2s224.2,48.7,330.6,23.8c34-8,65-20.5,99.1-28.3c72.4-16.6,152.3-11,228.8-5"/>
<path class="st4" d="M-77.9-741.6c73.8-22.2,147.6-44.5,221.4-66.7c24.4-7.3,49.6-14.8,76.7-15.5c51-1.3,94.5,21,138.6,37.1
	c97.9,35.6,221.5,42.2,327.7,17.4c74.6-17.4,138.4-48.7,206.5-74.5c68.1-25.8,146.3-46.8,225.1-40.2c52.4,4.4,100.1,20.7,147.9,34.8
	c70.1,20.6,143.2,37.2,218.2,49.4c77.3,12.6,162.2,20.1,234.7-0.9c30-8.7,56.3-21.8,86.8-29.8c51.3-13.4,109.1-10.8,164.5-8.1"/>
<path class="st4" d="M-64.4-681.2c49,2.7,68-3.5,108.3-21.2c61.4-26.8,96.8-79.8,170.6-87.7c59.8-6.4,113.7,20.6,169.1,36
	c105.3,29.2,228.5,17,336.9-7.5s210-60.6,321.1-79.5c30.8-5.2,62.6-9.1,94.5-8.7c55.1,0.7,107.5,14.1,158.6,27.1
	c155.7,39.5,328.5,76.8,488.1,44c51.8-10.7,101.8-28.7,156.4-28"/>
<path class="st10" d="M-49.2-659.4c49.8,3.2,100.7-0.9,147.5-11.9c20.1-4.7,39.4-10.7,59.9-14.6c36.2-6.9,74.6-7.4,112.4-7.8
	c61.3-0.6,122.7-1.2,184-1.8"/>
<path class="st10" d="M855.2-760.5c88.5-26.8,181.4-54.2,279.7-52.4c52.1,0.9,102.8,10,152.3,20.1c55.7,11.3,110.8,23.8,165.1,37.5
	c48.9,12.3,97.5,25.7,148.9,33c113.8,16.2,232.9,1.8,349.3,7.5"/>
<path class="st10" d="M1356.4-666.6c91.2-7.1,182.8,9.8,274.7,10.2c42.9,0.2,85.6-3.2,128.2-6.5c59.9-4.7,120.2-9.5,177.4-21.6"/>
<path class="st10" d="M1430.6-635.7c89.4-11.5,178.8,14.2,267.6,27.4c77.7,11.5,158.3,13.3,238.1,12.2"/>
<path class="st10" d="M1623.8-573.5c89.3-2.9,180.1-5.7,267,7.5c19.1,2.9,37.8,6.5,56.6,10.2"/>
<path class="st10" d="M1149.1-737c62.1-2.8,125.4-5.5,185.9,3.6c59,8.8,113,28.4,172.3,36.3c38.8,5.2,78.9,5.2,118.6,5
	c115-0.4,230-1.9,344.9-4.4"/>
<path class="st10" d="M-48.7-606.8c19.3-5.6,46.4-6.1,71.4-6.1c58.7,0,117.5,1.6,175.5,4.8"/>
<text transform="matrix(1 0 0 1 392.6999 -846.2548)" class="st17 st18" style="fill:#96B4CA;stroke:#1D1D1B;stroke-miterlimit:10;">Before the intruders of </text>
<text transform="matrix(1 0 0 1 514.7003 -759.4896)" class="st17 st18" style="fill:#96B4CA;stroke:#1D1D1B;stroke-miterlimit:10;">The Catawba River</text>
<path class="st0" d="M2010.3-541.2L2010.3-541.2c-115.3,8.9-232.1-10.5-338.1-41.2S1468.8-655,1369.5-694
	c-39.1-15.4-78.9-30.4-121.7-40.8c-53.9-13.2-111.3-18.8-168.4-23.5c-70.8-5.8-142.1-10.2-213.5-9c-219.9,3.8-430.7,62-614.6,140.5
	C164.4-589.8,91.7-547-12-545.6l-105.6,110.6"/>
<path class="st8" d="M1.9-502.5c80.3,11.1,127.9-0.9,200.9-25.3c73-24.4,135.1-60.5,190.8-99.6c24.8-17.4,48.8-35.5,78.3-49.5
	c59.2-28.1,134.5-36.8,206.9-44.7c122-13.3,246.5-26.7,368.8-14.6c175.3,17.4,327.1,85,475.7,147.5s310.1,123.6,487.4,125.3"/>
<path class="st8" d="M14.8-481.3c57.7,4,116.8,8,173-1.1c122.4-19.9,200.7-95,304-141.8c109.3-49.5,252.4-66.5,381.8-45.4
	c52.6,8.6,102.4,23,150.9,38.8c177.5,57.6,340.5,133.6,523.7,183.2c134.2,36.3,277.9,57.8,423.1,63.5"/>
<path class="st8" d="M1933.3-360.6c-184.6,17.7-381.7,26.8-550.1-25.2C1233.8-431.9,1127-520,993.6-583.4
	c-28.6-13.6-58.8-26.1-91.6-34.9C839.1-635,769.5-637.1,701.6-639c-53.1-1.5-108.5-2.7-156.7,11.7c-30.3,9.1-55.7,23.7-80.7,38
	c-47,26.8-94.6,53.2-142.8,79c-39.8,21.3-80.7,42.6-128.3,55.6c-56.3,15.3-118.5,18.3-179.4,21"/>
<path class="st8" d="M-79.6-468.9c22.7-40.5,11.6-6.3,74.2-24.9c134.2-39.9,268.5-79.9,402.8-119.8c60.3-18,121-36,185.1-47.9
	c75.3-14,154.1-19.5,232.7-22.6c100-4,202.6-4.1,297.7,15.3c70.5,14.4,134.1,39,197.4,63C1505.2-532,1714.2-460,1943-454.5"/>
<path class="st4" d="M384.6-824.5c54.8-26.6,118.2-40,181.1-38.1c35.2,1,70.5,6.8,105.5,3.6c40.3-3.6,80-18.8,120-13.2"/>
<path class="st4" d="M1390.2-771.5c4.9,2.9,10.4,4.6,16,5"/>
<path class="st4" d="M1506.9-851.2c6.5,0.7,13.1,0.2,19.3-1.5"/>
<path class="st4" d="M1309.5-853.8c5.3,0.6,10.4,2.1,15.2,4.5"/>
<path class="st4" d="M1187-872c4.9-0.5,9.9,1,13.7,4"/>
<path class="st4" d="M1230.6-860.2c4.3,0.8,8.4,2.6,12.1,5.1"/>
<path class="st4" d="M1170.2-876.4c3.3,0.9,6.6,1.8,9.9,2.8"/>
<path class="st4" d="M971-868.8c3.9-0.9,7.7-2,11.5-3.4"/>
<path class="st4" d="M1048.8-807.6c3.7-0.7,7.4-1,11.2-1.1"/>
<path class="st4" d="M956-789.3c4.8-0.6,9.5-1.5,14.1-2.8"/>
<path class="st9" d="M1980.1,109.6h-51.6l-52.3,2.3c-76.4,11.9-155.7,3.7-233.4,8.6c-62.2,3.9-122.8,16.2-184.2,24.8
	c-253,35.7-513.4,9.5-767.6-20.6c-84.6-10-170.5-20.5-255.3-11.9C286,128,141.6,201.9-5,174.2"/>
<g>
	<path class="st9" d="M-1.4,542.6c65.5,1,162.9-13.6,214.8-40.4c46-23.8,80.4-56.1,121.4-83.7s93.8-51.4,151.8-50.4
		c55.8,0.9,104.3,24.2,150.7,45c69.5,31.3,143.5,59.4,224.1,74.3s169,16,246.2-5.8c82.4-23.3,145.8-70.2,227.2-95.2
		c86.1-26.4,189.8-25.4,274.8,2.7c30.6,10.1,58.9,23.6,91,31.4c65.4,16,147.5,74.6,210.6,54.7"/>
	<path class="st9" d="M1919.8,290.6L1919.8,290.6c-69.9-68.9-194.7-95.2-289.1-86.2c-131.9,12.6-223.2,94.4-343.9,132.3
		c-101.5,31.9-220.9,30.9-328.5,9.8s-204.9-60.9-296-104.8c-59.3-28.5-122.4-60.4-195.3-60.2c-61,0.2-116.9,23.3-162.4,50.7
		S220.4,292,172,317S61.4,359.5,1.9,350.5"/>
	<path class="st4" d="M-6.1,374.3c60.8,13.3,141.3-3.6,191.7-30s93.4-59.9,149.9-80c92-32.8,205.4-24.7,302.8,0
		s184.5,64.5,277.7,95.6c59.8,20,124.3,36.6,191.1,35.9c97.6-1,184.7-38.2,272.4-67c93.1-30.6,194.4-53,298-52.2
		c103.6,0.7,209.9,26.9,276.8,80.1"/>
	<path class="st4" d="M-14,394.9c52.2-5.1,107.4,8.5,157.1-3.4c27.2-6.5,49.4-19.9,71-32.8c76.8-45.9,166.3-91.9,269-90.5
		c86.5,1.2,162.7,36,236,66.9c82.2,34.7,168.4,66.4,261.9,83.7c93.5,17.3,195.6,19.4,286-4.2c48.2-12.5,91.6-31.9,137.6-47.7
		c56.8-19.5,117.4-33.4,177.8-47.3c49.9-11.5,100.7-27.9,153.2-24.5c48.4,3.1,160.3,59.1,196.2,85.1"/>
	<path class="st4" d="M-0.8,421c76.7,8.8,155.6,17.6,231.6,6.5c48.6-7.1,93.8-22.1,141.8-31c78.4-14.6,161.3-12.6,242.6-10.4
		c34,0.9,68.4,1.8,101.4,7.8c42.7,7.7,81,23.4,121.8,34.8c111.1,30.9,235.7,28.7,355.7,22.9c46.1-2.2,92.7-4.9,136.7-14.4
		c39.1-8.4,75.3-21.9,113.3-32.4c135.2-37.5,344.7-30.1,477.2,11.6"/>
	<path class="st4" d="M-1.4,446.6c67.5-8.3,135.9,16.2,204.1,11.1c60.1-4.5,114.7-31.6,175.1-29.4"/>
	<path class="st4" d="M-6.1,486.2c34.3-1.4,68.6-2.8,102.8-4.1c16.7-0.7,33.6-1.4,50.3,0c19.8,1.5,38.9,5.8,58.3,8.8
		c25.3,3.9,51.3,5.5,77.1,7.1"/>
	<path class="st4" d="M1.7,522.4c30.3-3.3,60.8-6.5,91.4-7c37.8-0.6,75.4,3.1,112.8,6.8"/>
</g>
<path class="st4" d="M-6.1,296.4c19-4.7,44.2,0.4,63.3,5c9.7,2.3,20.4,2.7,30.9,2.9c40.3,0.5,80.8-2.3,119.7-8.4"/>
<path class="st4" d="M685.6,250.7c131.3-25.3,268.6,25.1,405.7,24.5c123.8-0.6,250-42.6,366.6-15.8"/>
<path class="st4" d="M766.5,287.8c123.3-21.5,248.8,38,376.2,31.2c89.3-4.8,174.5-41.9,262.1-30"/>
<path class="st4" d="M608.3,216.3c239-32.5,490.9,19,732-7.1c68.4-7.4,135.2-21,204.5-24.2c128.9-5.9,260.1,24.4,386.1,6.9"/>
<path class="st4" d="M-5,268.2c15.6-1.7,45-8.1,60-11.1c11.4-2.3,22.3-5.4,34-6.9c12.1-1.6,24.7-1.6,37.1-1.6
	c50.4,0.1,100.7,0.2,151.1,0.2"/>
<path class="st4" d="M-10.7,209.5c78.5-2.6,158.6-5.2,234.5,7.3c31.9,5.2,65.8,13,96.8,6.1"/>
<path class="st4" d="M2.2,190.1c68.9-0.4,137.9-1.1,206.1-6.9c24.3-2.1,49.2-4.9,73.3-2.1c13.1,1.5,25.5,4.5,38.3,6.7
	c28.7,4.9,59.7,5.4,88.8,1.3"/>
<path class="st4" d="M495.9,182.8c119.5,4.2,237.2-26.6,356.6-21.4c51.7,2.2,101.9,11.2,152.9,16.8c307.6,34.1,626.6-52,932.4-12"/>
<g>
	<path class="st0" d="M1975.8,599.4V416.2l-105.3,9.8c-160.7,17.2-313.2-92.2-470.4-63.9c-90.8,16.4-152.2,74.6-239.4,98
		c-25.5,6.9-52.7,10.5-80,13c-159.8,14.6-327.2-12.6-459.4-74.7c-35.2-16.5-70-36-112.5-40.2c-65.8-6.5-125.2,25.2-173.1,56.3
		c-47.4,30.7-93.4,63.1-148.6,87.1c-55.3,24-122.2,39.3-187.1,31.6"/>
</g>
<path class="st10" d="M-10.7,556.6c54.8,3.7,112.3,7,163.1-7.3c41.2-11.7,73.3-33.8,106.8-53.7c90.5-53.7,213.3-95.7,329.2-73.2
	c60.5,11.7,111,39.5,168.5,56.7c48.7,14.6,101.8,21.4,154.7,25.8c60.3,5,121.8,7,181.6-0.2c77.9-9.4,149.7-33.9,223.5-53.1
	c73.8-19.3,154.5-33.7,231.7-21.7c37.3,5.8,71.9,17.4,107.9,26c100.8,23.8,210.6,22.5,317.2,17.7"/>
<path class="st10" d="M-1.4,596.6c84.4,11,169.5-12.9,247.3-37.6s159.5-51.5,245.2-46.6c42.7,2.5,83.8,12.8,126.6,14.2
	c83.5,2.8,170.3-28,247.8-7"/>
<path class="st10" d="M1208.1,515.4c72.3-0.4,136.1-30.1,204.9-45.1c85.8-18.7,182.3-13.7,262.8,13.6c21.4,7.2,41.8,16,64.7,20.7
	c31.8,6.5,65.8,4.7,98.9,2.8"/>
<path class="st4" d="M1242.4,528.7c86.7,11.4,172.2-21,260.2-26.1c39.8-2.3,79.7,1,119.3,4.4c43.3,3.6,86.6,7.3,130,11"/>
<path class="st10" d="M344.6,604.1c116.9-42,261.1-48,384.8-16"/>
<path class="st4" d="M1279.1,588.9c40.6-0.7,79.6-10,118.2-18.3c100.3-21.6,209.4-37.2,310.1-16.5"/>
<g>
	<path class="st0" d="M1987.6,914.4c64-0.7-98.7-107-38.5-120.6c-6.7-57.3,42-55.7,0-106.8c-27.6-33.5,1-45.4-13.9-81.9
		c-11-27.2-4.2-44.9-2.4-72.9c1.4-21.7,25.6-6.1,1.4-21.7c-10.7-6.9,29.4-26.1,14.8-29.3c-56.4-12.4,191.3-36.6,136.3-21.8
		c-83.1-8.9-170.7-0.2-245.4,24.2c-95.8,31.3-178,88.8-286.1,89.2c-75.4,0.3-142.2-28-206.5-52.6c-83.9-32.1-176.5-60.2-274.9-60.5
		c-63.9-0.2-126.6,11.6-185.3,27.3c-58.9,15.8-114.9,35.7-166.7,59.3c-46.2,21.1-91.3,45.7-147.2,53.4
		c-118.6,16.3-224.7-48.5-343.5-64.4c-100-13.3-210.5,12-273.2,62.5C-56.7,691.1-53.4,785.7-66.7,879c-0.8,5.4-6.5,10.7-1.3,15"/>
</g>
<path class="st4" d="M-55.5,604.9C16.8,603,76,567.5,146.7,557.8c126.9-17.3,244.3,51.2,374,56.1c169.7,6.4,304.4-94.9,472.9-109.2
	c112.6-9.5,222.5,21,328.1,47.2s224.2,48.7,330.6,23.8c34-8,65-20.5,99.1-28.3c72.4-16.6,152.3-11,228.8-5"/>
<path class="st4" d="M-79.3,660.2c73.8-22.2,147.6-44.5,221.4-66.7c24.4-7.3,49.6-14.8,76.7-15.5c51-1.3,94.4,21,138.6,37.1
	c97.9,35.6,221.5,42.2,327.7,17.4c74.6-17.4,138.4-48.7,206.5-74.5c68.1-25.8,146.3-46.9,225.1-40.2c52.4,4.4,100.1,20.7,147.9,34.8
	c70.1,20.6,143.2,37.2,218.2,49.4c77.3,12.6,162.2,20.1,234.7-0.9c30-8.7,56.3-21.8,86.8-29.8c51.3-13.4,109.1-10.8,164.5-8.1"/>
<path class="st4" d="M-65.8,720.7c49,2.7,68-3.5,108.3-21.2c61.4-26.8,96.8-79.8,170.6-87.7c59.8-6.4,113.7,20.6,169.1,36
	c105.3,29.2,228.5,17,336.9-7.5s210-60.6,321.1-79.5c30.8-5.2,62.6-9.1,94.5-8.7c55.1,0.7,107.5,14.1,158.6,27.1
	c155.7,39.5,328.5,76.8,488.1,44c51.8-10.7,101.8-28.7,156.4-28"/>
<path class="st10" d="M-50.6,742.4c49.8,3.2,100.7-0.9,147.5-11.9c20.1-4.7,39.4-10.7,59.9-14.6c36.2-6.9,74.6-7.4,112.4-7.8
	c61.3-0.6,122.7-1.2,184-1.8"/>
<path class="st10" d="M853.8,641.3c88.5-26.8,181.4-54.2,279.7-52.4c52.1,0.9,102.8,10,152.3,20.1c55.7,11.3,110.8,23.8,165.1,37.5
	c48.9,12.3,97.5,25.7,148.9,33c113.8,16.2,232.9,1.8,349.3,7.5"/>
<path class="st10" d="M1355,735.2c91.2-7.1,182.8,9.8,274.7,10.2c42.9,0.2,85.6-3.2,128.2-6.5c59.9-4.7,120.2-9.5,177.4-21.6"/>
<path class="st10" d="M1429.2,766.2c89.4-11.5,178.8,14.2,267.6,27.4c77.7,11.5,158.3,13.3,238.1,12.2"/>
<path class="st10" d="M1622.3,828.4c89.3-2.9,180.1-5.7,267,7.5c19.1,2.9,37.8,6.5,56.6,10.2"/>
<path class="st10" d="M1147.7,664.9c62.1-2.8,125.4-5.5,185.9,3.6c59,8.8,113,28.4,172.3,36.3c38.8,5.2,78.9,5.2,118.6,5
	c115-0.4,230-1.9,344.9-4.4"/>
<path class="st10" d="M-50.2,795c19.3-5.6,46.4-6.1,71.4-6.1c58.7,0,117.5,1.6,175.5,4.8"/>
<text transform="matrix(1 0 0 1 388.4005 555.5825)" class="st16 st17 st18">Before the intruders of </text>
<text transform="matrix(1 0 0 1 516.1227 642.3478)" class="st16 st17 st18">The Catawba River</text>
<path class="st0" d="M2008.8,860.7L2008.8,860.7c-115.3,8.9-232.1-10.5-338.1-41.2s-203.3-72.6-302.7-111.6
	c-39.1-15.4-78.9-30.4-121.7-40.8c-53.9-13.2-111.3-18.8-168.4-23.5c-70.8-5.8-142.1-10.2-213.5-9c-219.9,3.8-430.7,62-614.6,140.5
	c-86.8,37-159.5,79.8-263.2,81.2l-105.6,110.7"/>
<path class="st8" d="M0.5,899.4c80.3,11.1,127.9-0.9,200.9-25.3s135.1-60.5,190.8-99.6C417,757.2,441,739,470.5,725
	c59.2-28.1,134.5-36.8,206.9-44.7c122-13.3,246.5-26.7,368.8-14.6c175.3,17.4,327.1,85,475.7,147.5s310.1,123.7,487.4,125.3"/>
<path class="st8" d="M13.3,920.6c57.7,4,116.8,8,173-1.1c122.4-19.9,200.7-95,304-141.8c109.3-49.5,252.4-66.5,381.8-45.4
	c52.6,8.6,102.4,23,150.9,38.8c177.5,57.6,340.5,133.6,523.7,183.2c134.2,36.3,277.9,57.8,423.1,63.5"/>
<path class="st8" d="M1931.9,1041.3c-184.6,17.7-381.7,26.8-550.1-25.2c-149.4-46.1-256.2-134.2-389.6-197.6
	c-28.6-13.6-58.8-26.1-91.6-34.9c-62.9-16.8-132.4-18.9-200.4-20.8c-53.1-1.5-108.5-2.7-156.7,11.7c-30.3,9.1-55.7,23.7-80.7,38
	c-47,26.8-94.6,53.2-142.8,79c-39.8,21.3-80.7,42.6-128.3,55.6c-56.3,15.3-118.5,18.3-179.4,21"/>
<path class="st8" d="M-81,933c22.7-40.5,11.5-6.3,74.2-24.9c148.5,20.5,283.9-7.5,402.8-119.8c86.9-59.7,125.5-60.7,189.7-72.7
	c75.3-14,153.2-25,231.7-28.1c100-4,199,26.1,294.1,45.6c70.5,14.4,134.1,39,197.4,63c194.9,73.8,403.9,145.9,632.7,151.4"/>
<path class="st4" d="M390.3,573.7c50.5-26.6,101.8-36.3,159.8-34.4c32.5,1,65,6.8,97.3,3.6c37.2-3.6,73.8-18.8,110.7-13.2"/>
<path class="st4" d="M1388.7,630.3c4.9,2.9,10.4,4.6,16,5"/>
<path class="st4" d="M1505.5,550.6c6.5,0.7,13.1,0.2,19.3-1.5"/>
<path class="st4" d="M1308.3,548.7c5.7,1.7,11,2.3,15.7,3.9"/>
<path class="st4" d="M1185.6,529.8c4.2,1.6,6.7,2,11.7,3.2"/>
<path class="st4" d="M1230.4,542.6c4.1,1.7,6.4,2,11.2,3.1"/>
<path class="st4" d="M1169.9,526.3c3.3,0.9,5.4,1,8.7,1.9"/>
<path class="st4" d="M969.9,532.6c3.9-0.9,10-2,13.7-3.5"/>
<path class="st4" d="M1047.4,594.2c3.7-0.7,7.4-1,11.2-1.1"/>
<path class="st4" d="M954.6,612.8c4.7-0.8,9.4-1.9,13.9-3.5"/>
</svg>
