<svg xmlns="http://www.w3.org/2000/svg" xmlns:xlink="http://www.w3.org/1999/xlink" viewBox="0 0 1631 800"><defs><style>.cls-1,.cls-4{fill:none;}.cls-2{clip-path:url(#clip-path);}.cls-3{fill:#fff;}.cls-19,.cls-4{stroke:#1d1d1b;stroke-linecap:round;stroke-linejoin:round;}.cls-20,.cls-5,.cls-6{isolation:isolate;}.cls-6{font-size:74.41px;font-family:GaramondPremrPro-It, Garamond Premier Pro;font-style:italic;}.cls-20,.cls-6{fill:#2a4f6e;}.cls-7{letter-spacing:0.01em;}.cls-8{letter-spacing:-0.01em;}.cls-9{letter-spacing:0em;}.cls-10{letter-spacing:0em;}.cls-11{letter-spacing:-0.01em;}.cls-12{letter-spacing:-0.01em;}.cls-13{letter-spacing:-0.01em;}.cls-14{letter-spacing:0em;}.cls-15{letter-spacing:0.01em;}.cls-16{letter-spacing:-0.01em;}.cls-17{letter-spacing:0em;}.cls-18{letter-spacing:0em;}.cls-19{fill:#d9e6ec;}.cls-20{font-size:180.01px;font-family:GaramondPremrPro, Garamond Premier Pro;}.cls-21{letter-spacing:0.01em;}.cls-22{letter-spacing:-0.11em;}.cls-23{letter-spacing:-0.1em;}.cls-24{letter-spacing:-0.11em;}.cls-25{letter-spacing:-0.01em;}.cls-26{letter-spacing:0em;}.cls-27{letter-spacing:0.01em;}.cls-28{letter-spacing:0.01em;}.cls-29{letter-spacing:0em;}</style><clipPath id="clip-path"><rect class="cls-1" x="-0.5" y="1.5" width="1631" height="803.5"/></clipPath></defs><g id="båt"><g class="cls-2"><rect id="Rectangle_1512" data-name="Rectangle 1512" class="cls-3" x="-64.52" y="751.63" width="1709.45" height="92.41"/><path id="Path_1178" data-name="Path 1178" class="cls-4" d="M-22.3,234.29c55.28,8.84,115.4-4.5,161.24-22.08S223.87,172.4,275.23,159c83.63-21.79,186.84-16.44,275.38,0s167.76,42.89,252.56,63.56c54.42,13.27,113.08,24.34,173.82,23.89,88.75-.66,168-25.38,247.76-44.54,84.66-20.34,176.81-35.23,271-34.75s190.87,17.87,251.73,53.24"/><path id="Path_1179" data-name="Path 1179" class="cls-4" d="M-42.57,245.88c47.44-3.38,97.67,5.62,142.85-2.24,24.78-4.32,44.91-13.24,64.56-21.83,69.84-30.55,151.24-61.16,244.68-60.18,78.66.83,148,23.94,214.62,44.52,74.73,23.07,153.16,44.13,238.22,55.64s177.87,12.92,260.13-2.76c43.79-8.34,83.32-21.21,125.17-31.69,51.7-13,106.81-22.24,161.7-31.48,45.35-7.63,91.47-15.34,139.36-16.32s98.65,5.7,131.24,23"/><path id="Path_1180" data-name="Path 1180" class="cls-4" d="M-28.14,216.34c54.17,6,110.69-5.64,154.7-22.29s79.3-38.16,120.65-56.39S339.39,104,394.9,103.92c66.31-.14,123.75,21,177.66,40,82.85,29.17,171.36,55.65,269.17,69.68s206.45,14.68,298.77-6.52c109.79-25.2,192.79-79.57,312.75-88,85.83-6,177,16.09,219.58,53.24"/><path id="Path_1181" data-name="Path 1181" class="cls-4" d="M-30.59,263.23c69.74,5.86,141.55,11.7,210.69,4.3,44.18-4.73,85.34-14.69,128.92-20.63,71.33-9.72,146.68-8.36,220.63-6.94,31,.6,62.25,1.22,92.18,5.16,38.82,5.11,73.7,15.56,110.82,23.12,101,20.58,214.4,19.07,323.46,15.24,41.94-1.48,84.25-3.28,124.31-9.57,35.59-5.59,68.52-14.58,103.06-21.58,123-24.94,267.21-23.28,387.7,4.47"/><g id="before_the_intruders_of_the_" data-name="before the intruders of the " class="cls-5"><text class="cls-6" transform="translate(415.51 243.86)">b<tspan class="cls-7" x="34.08" y="0">e</tspan><tspan class="cls-8" x="60.19" y="0">f</tspan><tspan class="cls-9" x="78.2" y="0">o</tspan><tspan class="cls-10" x="107.74" y="0">r</tspan><tspan x="133.71" y="0">e </tspan><tspan class="cls-11" x="174.18" y="0">t</tspan><tspan class="cls-9" x="195.54" y="0">h</tspan><tspan x="231.7" y="0">e i</tspan><tspan class="cls-12" x="292.11" y="0">n</tspan><tspan class="cls-13" x="329.24" y="0">t</tspan><tspan class="cls-14" x="351.04" y="0">r</tspan><tspan x="377.68" y="0">u</tspan><tspan class="cls-14" x="414.43" y="0">d</tspan><tspan class="cls-15" x="450.59" y="0">e</tspan><tspan class="cls-16" x="476.86" y="0">r</tspan><tspan class="cls-17" x="502.68" y="0">s of </tspan><tspan class="cls-11" x="601.86" y="0">t</tspan><tspan class="cls-9" x="623.21" y="0">h</tspan><tspan class="cls-18" x="659.37" y="0">e</tspan></text></g><path id="Path_1182" data-name="Path 1182" class="cls-4" d="M-26.24,280.22c61.4-5.51,123.61,10.78,185.65,7.4,54.69-3,104.27-21,159.22-19.57"/><path id="Path_1183" data-name="Path 1183" class="cls-4" d="M-35.41,306.61l93.53-2.75c15.23-.45,30.55-.89,45.7,0,18,1,35.34,3.86,53,5.82,23,2.56,46.62,3.63,70.13,4.7"/><path id="Path_1184" data-name="Path 1184" class="cls-4" d="M-28.3,330.7c27.57-2.17,55.24-4.34,83.16-4.65,34.38-.37,68.59,2.09,102.62,4.55"/><path id="Path_1185" data-name="Path 1185" class="cls-19" d="M1701.09,254.24c-57.33,13.26-124.75,19.35-184.27,8.68-29.17-5.23-54.92-14.17-82.79-20.91-77.27-18.68-171.59-19.35-249.93-1.77-74,16.6-131.63,47.82-206.61,63.29C907.33,318,827,317.33,753.6,307.39S613,278.76,549.77,258C507.6,244.1,463.4,228.64,412.7,228c-52.76-.63-100.66,15.21-138,33.54s-68.58,39.84-110.45,55.65C117,335.06,57.15,344.69-2.41,344.06c-10.41,0-24.95,3-35.37,3"/><path id="Path_1186" data-name="Path 1186" class="cls-19" d="M-35,360.17c59,5.13,119.85-5,170.13-21s92.08-37.49,135.19-57.93c43.53-20.64,97.58-41.77,157.39-37.43,38.59,2.8,70.31,15.75,102.3,26.72,120.27,41.27,272.52,59.36,417.83,49.66,24.78-1.65,49.51-4.1,72.74-8.66,79.38-15.58,135.2-54.33,217.76-65.21,143-18.83,281.66,53.93,427.81,42.48"/><path id="Path_1187" data-name="Path 1187" class="cls-4" d="M-44.82,375.65c49.86,2.43,102.17,4.69,148.34-4.88C141,363,170.2,348.29,200.65,335.06c82.28-35.74,194-63.64,299.44-48.7,55,7.79,100.94,26.26,153.22,37.71,44.31,9.71,92.58,14.24,140.73,17.16,54.85,3.33,110.77,4.65,165.18-.13,70.89-6.25,136.16-22.52,203.28-35.35s140.54-22.4,210.72-14.45c33.9,3.84,65.36,11.6,98.18,17.26,91.68,15.83,191.5,15,288.45,11.77"/><path id="Path_1188" data-name="Path 1188" class="cls-4" d="M-36.4,402.25c76.79,7.31,154.16-8.58,224.87-25s145.09-34.27,223-31c38.8,1.64,76.22,8.5,115.11,9.45,75.93,1.87,154.84-18.64,225.33-4.62"/><path id="Path_1189" data-name="Path 1189" class="cls-4" d="M1063.67,348.21c65.76-.24,123.77-20,186.33-30,78-12.43,165.84-9.1,239,9.06,19.43,4.82,38,10.67,58.83,13.79,28.88,4.33,59.84,3.1,89.92,1.84"/><path id="Path_1190" data-name="Path 1190" class="cls-4" d="M240.26,389.4c63.6-17.7,137.25-26.57,210.28-25.32,40.9.7,81.8,4.5,122.51,2.42,46.83-2.38,92.89-12.48,139.36-8.76"/><path id="Path_1191" data-name="Path 1191" class="cls-4" d="M1094.81,357.07c78.83,7.61,156.59-14,236.63-17.33,36.16-1.53,72.5.7,108.51,2.92L1558.14,350"/><path id="Path_1192" data-name="Path 1192" class="cls-4" d="M278.32,407.2c106.33-27.92,237.45-31.9,350-10.62"/><path id="Path_1193" data-name="Path 1193" class="cls-4" d="M1128.25,397.14c36.9-.45,72.38-6.62,107.54-12.15,91.27-14.35,190.41-24.73,282-11"/><path id="Path_1194" data-name="Path 1194" class="cls-4" d="M-16.08,180.73c14.4-3.13,27.92,4.82,42.38,7.87,7.33,1.55,15.49,1.82,23.47,1.92A618.4,618.4,0,0,0,140.59,185"/><path id="Path_1195" data-name="Path 1195" class="cls-4" d="M606.23,154.91c114.71-16.85,234.62,16.7,354.33,16.29,108.12-.37,218.4-28.34,320.26-10.51"/><path id="Path_1196" data-name="Path 1196" class="cls-4" d="M680.61,177.53c106.06-14.3,214.09,25.25,323.68,20.75,76.84-3.16,150.11-27.87,225.53-20"/><path id="Path_1197" data-name="Path 1197" class="cls-4" d="M545.6,131.11c197.33-21.63,405.33,12.67,604.4-4.68,56.51-4.93,111.66-14,168.89-16.11,106.47-4,214.76,16.25,318.85,4.56"/><path id="Path_1198" data-name="Path 1198" class="cls-4" d="M-10.63,163.48c12.81-1.15,25.68-2.31,38-4.34,9.32-1.53,18.34-3.56,27.94-4.6a279.35,279.35,0,0,1,30.48-1.06l124.12.16"/><path id="Path_1199" data-name="Path 1199" class="cls-4" d="M-22,127.54c64.48-1.75,130.27-3.43,192.62,4.83,26.2,3.47,54,8.67,79.51,4.09"/><path id="Path_1200" data-name="Path 1200" class="cls-4" d="M-21.86,99C111.52,115.2,242.8,71.85,379,62.91c77.14-5.06,155.28,1.08,232.19,7,231.24,17.68,468,33.05,698.13,12.09,55.79-5.08,111-12.28,167.48-14.58,70.7-2.87,142.76,2,212.27-5"/><path id="Path_1201" data-name="Path 1201" class="cls-4" d="M-15.93,114.6c54.14-.26,108.47-.7,162-4.61,19.13-1.39,38.66-3.22,57.65-1.4,10.3,1,20.05,3,30.11,4.48a273.25,273.25,0,0,0,69.81.86"/><path id="Path_1202" data-name="Path 1202" class="cls-4" d="M474.06,109.76c102.45,2.8,203.34-17.7,305.71-14.26,44.29,1.49,87.39,7.44,131.12,11.2,263.66,22.66,537.15-34.56,799.3-8"/><path id="Path_1203" data-name="Path 1203" class="cls-19" d="M1765.18,324.73c-70.27-5.88-144.34-.14-207.51,16.08-81,20.81-150.48,59.07-241.85,59.34-63.73.19-120.19-18.62-174.56-35-71-21.34-149.26-40.06-232.45-40.22-54-.11-107,7.68-156.66,18.16a1077.41,1077.41,0,0,0-140.92,39.46c-39.08,14-77.23,30.41-124.46,35.51-100.32,10.82-190-32.29-290.4-42.81-84.54-8.87-178,8-231,41.54-11.27,62.06-8.52,124.93-19.79,187-.65,3.61-5.51,7.09-1.11,10,5.62,3.71,9.7,263.45,19.1,263.45,541.49.22,1141.58,17.25,1683.07,17.47,119.71,0-83.92-266.32,35.78-267.33,54.13-.46-83.47-71.15-32.56-80.21-5.65-38.11,35.53-37.08,0-71.06-23.29-22.28.84-30.17-11.72-54.45-9.33-18.06-3.54-29.89-2-48.51,1.19-14.44,21.63-4.06,1.19-14.44-9.06-4.6,24.83-17.37,12.53-19.5C1602.17,331,1811.63,314.9,1765.18,324.73Z"/><path id="Path_1204" data-name="Path 1204" class="cls-4" d="M-44.91,421.57c61.15-1.26,111.16-24.93,171-31.34,107.28-11.49,206.59,34.09,316.18,37.33C585.69,431.82,699.62,364.46,842,355c95.16-6.34,188.14,14,277.39,31.38s189.55,32.4,279.48,15.82c28.76-5.29,54.92-13.62,83.74-18.83,61.19-11.06,128.79-7.28,193.49-3.36"/><path id="Path_1205" data-name="Path 1205" class="cls-4" d="M-65,458.35,122.16,414c20.63-4.88,42-9.87,64.85-10.34,43.14-.89,79.86,14,117.19,24.66,82.79,23.67,187.31,28,277,11.57,63.06-11.57,117-32.37,174.55-49.53s123.66-31.16,190.36-26.73c44.34,2.95,84.6,13.75,125.07,23.14a1868.29,1868.29,0,0,0,184.46,32.86C1321,428,1392.84,433,1454.12,419c25.34-5.76,47.58-14.53,73.35-19.82,43.34-8.9,92.25-7.2,139.07-5.36"/><path id="Path_1206" data-name="Path 1206" class="cls-4" d="M-53.63,498.54c41.44,1.77,57.49-2.36,91.57-14.08,51.89-17.86,81.85-53.1,144.26-58.35,50.55-4.25,96.13,13.68,143,23.92,89,19.45,193.23,11.28,284.83-5s177.51-40.28,271.51-52.86c26.07-3.48,52.89-6.08,79.9-5.81,46.61.48,90.92,9.41,134.12,18,131.64,26.25,277.73,51.08,412.66,29.25,43.82-7.08,86.07-19.05,132.19-18.61"/><path id="Path_1207" data-name="Path 1207" class="cls-4" d="M-40.76,513A546.29,546.29,0,0,0,84,505.08c17-3.13,33.33-7.09,50.67-9.71,30.58-4.61,63.07-4.9,95.06-5.15L385.24,489"/><path id="Path_1208" data-name="Path 1208" class="cls-4" d="M723.88,445.77c74.83-17.8,153.36-36,236.45-34.86,44,.61,86.91,6.68,128.8,13.35q70.65,11.25,139.58,24.91c41.34,8.2,82.42,17.08,125.88,21.94,96.25,10.78,196.89,1.22,295.3,5"/><path id="Path_1209" data-name="Path 1209" class="cls-4" d="M1147.61,508.22c77.11-4.71,154.5,6.49,232.2,6.79,36.27.13,72.38-2.11,108.36-4.35,50.62-3.16,101.64-6.36,150-14.37"/><path id="Path_1210" data-name="Path 1210" class="cls-4" d="M1210.37,528.81c75.61-7.67,151.14,9.47,226.27,18.21,65.71,7.64,133.82,8.88,201.31,8.08"/><path id="Path_1211" data-name="Path 1211" class="cls-4" d="M1378.44,570.16c75.51-1.91,152.28-3.77,225.77,5,16.12,1.92,32,4.34,47.83,6.76"/><path id="Path_1212" data-name="Path 1212" class="cls-4" d="M972.34,461.44c52.51-1.83,106-3.63,157.21,2.39,49.9,5.86,95.5,18.91,145.68,24.17,32.84,3.45,66.72,3.45,100.3,3.36q145.83-.41,291.59-2.9"/><path id="Path_1213" data-name="Path 1213" class="cls-4" d="M-40.37,548c13.88-5.67,33.44-6.21,51.49-6.2,42.36,0,84.73,1.67,126.59,4.88"/><g id="CATAWBA_RIVER" data-name="CATAWBA RIVER" class="cls-5"><text class="cls-20" transform="translate(69.55 467.79)"><tspan class="cls-21">C</tspan><tspan class="cls-22" x="130.87" y="0">A</tspan><tspan class="cls-23" x="233.48" y="0">T</tspan><tspan class="cls-24" x="335.19" y="0">A</tspan><tspan class="cls-25" x="436.18" y="0">WB</tspan><tspan class="cls-26" x="715.92" y="0">A </tspan><tspan class="cls-21" x="873.43" y="0">R</tspan><tspan class="cls-27" x="988.82" y="0">I</tspan><tspan class="cls-28" x="1052.36" y="0">V</tspan><tspan class="cls-29" x="1171.89" y="0">E</tspan><tspan x="1273.96" y="0">R</tspan></text></g><path id="Path_1214" data-name="Path 1214" class="cls-19" d="M-40.37,589.72c18.84-26.9,9.6-4.19,61.68-16.59L356,493.46c50.13-11.93,100.52-23.92,153.82-31.87,62.59-9.34,128.09-12.95,193.36-15,83.11-2.65,168.35-2.76,247.39,10.16,58.59,9.57,111.45,25.92,164,41.86,161.94,49.12,335.65,97,525.76,100.67"/><path id="Path_1215" data-name="Path 1215" class="cls-19" d="M-54.51,617.1c89.1-1,151.54-28.7,226.06-52.74,158-51,339.05-88.73,527.92-91.23,61.29-.82,122.54,2.08,183.37,5.84,49,3,98.4,6.7,144.68,15.24,36.76,6.8,70.91,16.55,104.53,26.53,85.35,25.33,169,52.5,260,72.46s191.4,32.54,290.4,26.76"/><path id="Path_1216" data-name="Path 1216" class="cls-19" d="M-40.76,649.27c70.21,7.39,111.73-.6,175.52-16.81s118-40.28,166.7-66.22c21.68-11.55,42.64-23.63,68.41-32.93,51.71-18.67,117.53-24.46,180.78-29.73C657.24,494.7,766,485.8,872.9,493.89,1026,505.48,1158.66,550.41,1288.47,592s271,82.24,425.87,83.35"/><path id="Path_1217" data-name="Path 1217" class="cls-19" d="M-29.54,663.37c50.37,2.68,102,5.32,151.14-.76,106.9-13.22,175.33-63.21,265.61-94.33,95.5-32.91,220.52-44.21,333.58-30.16,45.93,5.71,89.48,15.31,131.81,25.77,155.07,38.34,297.49,88.89,457.59,121.85C1427.43,709.88,1553,724.21,1679.85,728"/><path id="Path_1218" data-name="Path 1218" class="cls-19" d="M1646.67,743.62c-161.32,11.8-333.48,17.86-480.63-16.73-130.56-30.68-223.83-89.28-340.43-131.43-25-9-51.33-17.38-80-23.21-54.92-11.14-115.69-12.55-175.05-13.81-46.37-1-94.79-1.79-136.93,7.79-26.5,6-48.64,15.77-70.52,25.28q-61.54,26.78-124.8,52.56c-34.76,14.18-70.53,28.32-112.13,37C77,691.24,22.61,693.19-30.62,695"/></g></g></svg>