<?xml version="1.0" encoding="utf-8"?>
<!-- Generator: Adobe Illustrator 26.3.1, SVG Export Plug-In . SVG Version: 6.00 Build 0)  -->
<svg version="1.1" id="Layer_1" xmlns="http://www.w3.org/2000/svg" xmlns:xlink="http://www.w3.org/1999/xlink" x="0px" y="0px"
	 viewBox="0 0 1631 800" style="enable-background:new 0 0 1631 800;" xml:space="preserve">
<style type="text/css">
	.st0{clip-path:url(#SVGID_00000137111548985228191100000010938957564304350359_);}
	.st1{fill:#FFFFFF;}
	.st2{fill:none;stroke:#1D1D1B;stroke-linecap:round;stroke-linejoin:round;}
	.st3{fill:#2A4F6E;}
	.st4{font-family:'GaramondPremrPro-It';}
	.st5{font-size:74.41px;}
	.st6{fill:#D9E6EC;stroke:#1D1D1B;stroke-linecap:round;stroke-linejoin:round;}
	.st7{font-family:'GaramondPremrPro';}
	.st8{font-size:180.01px;}
	.st9{letter-spacing:1;}
	.st10{letter-spacing:-19;}
	.st11{letter-spacing:-18;}
	.st12{letter-spacing:-1;}
</style>
<g id="båt">
	<g>
		<defs>
			<rect id="SVGID_1_" x="7.4" y="0.5" width="1631" height="803.5"/>
		</defs>
		<clipPath id="SVGID_00000012473955564585226680000000473532803233271988_">
			<use xlink:href="#SVGID_1_"  style="overflow:visible;"/>
		</clipPath>
		<g style="clip-path:url(#SVGID_00000012473955564585226680000000473532803233271988_);">
			<rect id="Rectangle_1512" x="-75.1" y="751.7" class="st1" width="1709.4" height="92.4"/>
			<path id="Path_1178" class="st2" d="M-32.9,234.3c55.3,8.8,115.4-4.5,161.2-22.1s84.9-39.8,136.3-53.2
				c83.6-21.8,186.8-16.4,275.4,0s167.8,42.9,252.6,63.6c54.4,13.3,113.1,24.3,173.8,23.9c88.8-0.7,168-25.4,247.8-44.5
				c84.7-20.3,176.8-35.2,271-34.8s190.9,17.9,251.7,53.2"/>
			<path id="Path_1179" class="st2" d="M-53.1,245.9c47.4-3.4,97.7,5.6,142.9-2.2c24.8-4.3,44.9-13.2,64.6-21.8
				c69.8-30.6,151.2-61.2,244.7-60.2c78.7,0.8,148,23.9,214.6,44.5c74.7,23.1,153.2,44.1,238.2,55.6c85.1,11.5,177.9,12.9,260.1-2.8
				c43.8-8.3,83.3-21.2,125.2-31.7c51.7-13,106.8-22.2,161.7-31.5c45.3-7.6,91.5-15.3,139.4-16.3s98.7,5.7,131.2,23"/>
			<path id="Path_1180" class="st2" d="M-38.7,216.4c54.2,6,110.7-5.6,154.7-22.3s79.3-38.2,120.6-56.4s92.2-33.7,147.7-33.7
				c66.3-0.1,123.8,21,177.7,40c82.8,29.2,171.4,55.7,269.2,69.7s206.4,14.7,298.8-6.5c109.8-25.2,192.8-79.6,312.8-88
				c85.8-6,177,16.1,219.6,53.2"/>
			<path id="Path_1181" class="st2" d="M-41.2,263.3c69.7,5.9,141.6,11.7,210.7,4.3c44.2-4.7,85.3-14.7,128.9-20.6
				c71.3-9.7,146.7-8.4,220.6-6.9c31,0.6,62.2,1.2,92.2,5.2c38.8,5.1,73.7,15.6,110.8,23.1c101,20.6,214.4,19.1,323.5,15.2
				c41.9-1.5,84.2-3.3,124.3-9.6c35.6-5.6,68.5-14.6,103.1-21.6c123-24.9,267.2-23.3,387.7,4.5"/>
			<g id="before_the_intruders_of_the_">
				<text transform="matrix(1 0 0 1 456.1243 250.9174)" class="st3 st4 st5">b</text>
				<text transform="matrix(1 0 0 1 490.2043 250.9174)" class="st3 st4 st5">e</text>
				<text transform="matrix(1 0 0 1 516.3143 250.9174)" class="st3 st4 st5">f</text>
				<text transform="matrix(1 0 0 1 534.3243 250.9174)" class="st3 st4 st5">o</text>
				<text transform="matrix(1 0 0 1 563.8643 250.9174)" class="st3 st4 st5">r</text>
				<text transform="matrix(1 0 0 1 589.8344 250.9174)" class="st3 st4 st5">e </text>
				<text transform="matrix(1 0 0 1 630.3043 250.9174)" class="st3 st4 st5">t</text>
				<text transform="matrix(1 0 0 1 651.6643 250.9174)" class="st3 st4 st5">h</text>
				<text transform="matrix(1 0 0 1 687.8243 250.9174)" class="st3 st4 st5">e i</text>
				<text transform="matrix(1 0 0 1 748.2343 250.9174)" class="st3 st4 st5">n</text>
				<text transform="matrix(1 0 0 1 785.3643 250.9174)" class="st3 st4 st5">t</text>
				<text transform="matrix(1 0 0 1 807.1643 250.9174)" class="st3 st4 st5">r</text>
				<text transform="matrix(1 0 0 1 833.8043 250.9174)" class="st3 st4 st5">u</text>
				<text transform="matrix(1 0 0 1 870.5543 250.9174)" class="st3 st4 st5">d</text>
				<text transform="matrix(1 0 0 1 906.7144 250.9174)" class="st3 st4 st5">e</text>
				<text transform="matrix(1 0 0 1 932.9843 250.9174)" class="st3 st4 st5">r</text>
				<text transform="matrix(1 0 0 1 958.8043 250.9174)" class="st3 st4 st5">s of </text>
				<text transform="matrix(1 0 0 1 1057.9844 250.9174)" class="st3 st4 st5">t</text>
				<text transform="matrix(1 0 0 1 1079.3344 250.9174)" class="st3 st4 st5">h</text>
				<text transform="matrix(1 0 0 1 1115.4944 250.9174)" class="st3 st4 st5">e</text>
			</g>
			<path id="Path_1182" class="st2" d="M-36.8,280.3c61.4-5.5,123.6,10.8,185.6,7.4c54.7-3,104.3-21,159.2-19.6"/>
			<path id="Path_1183" class="st2" d="M-46,306.7l93.5-2.8c15.2-0.5,30.6-0.9,45.7,0c18,1,35.3,3.9,53,5.8
				c23,2.6,46.6,3.6,70.1,4.7"/>
			<path id="Path_1184" class="st2" d="M-38.9,330.8c27.6-2.2,55.2-4.3,83.2-4.6c34.4-0.4,68.6,2.1,102.6,4.5"/>
			<path id="Path_1185" class="st6" d="M1641.4,254.3c-58.2,13.3-126.6,19.3-187,8.7c-29.6-5.2-55.7-14.2-84-20.9
				c-78.4-18.7-174.2-19.4-253.7-1.8c-75.1,16.6-133.6,47.8-209.7,63.3c-71.2,14.5-152.8,13.8-227.2,3.9S537.2,278.8,473,258.1
				c-42.8-13.9-87.7-29.4-139.1-30c-53.5-0.6-102.2,15.2-140.1,33.5s-69.6,39.8-112.1,55.6c-48,17.8-108.7,27.5-169.1,26.8
				c-10.6,0-25.3,3-35.9,3"/>
			<path id="Path_1186" class="st6" d="M-120.6,360.2c60.3,5.1,122.7-5,174.1-21s94.2-37.5,138.4-57.9
				c44.6-20.6,99.9-41.8,161.1-37.4c39.5,2.8,72,15.8,104.7,26.7c123.1,41.3,278.9,59.4,427.6,49.7c25.4-1.6,50.7-4.1,74.4-8.7
				c81.2-15.6,138.4-54.3,222.9-65.2c146.3-18.8,288.3,53.9,437.8,42.5"/>
			<path id="Path_1187" class="st2" d="M-130.4,375.7c49.9,2.4,102.2,4.7,148.3-4.9c37.5-7.8,66.7-22.5,97.1-35.7
				c82.3-35.7,194-63.6,299.4-48.7c55,7.8,100.9,26.3,153.2,37.7c44.3,9.7,92.6,14.2,140.7,17.2c54.8,3.3,110.8,4.6,165.2-0.1
				c70.9-6.2,136.2-22.5,203.3-35.4s140.5-22.4,210.7-14.5c33.9,3.8,65.4,11.6,98.2,17.3c91.7,15.8,191.5,15,288.5,11.8"/>
			<path id="Path_1188" class="st2" d="M-47,402.3c76.8,7.3,154.2-8.6,224.9-25s145.1-34.3,223-31c38.8,1.6,76.2,8.5,115.1,9.5
				c75.9,1.9,154.8-18.6,225.3-4.6"/>
			<path id="Path_1189" class="st2" d="M1053.1,348.3c65.8-0.2,123.8-20,186.3-30c78-12.4,165.8-9.1,239,9.1
				c19.4,4.8,38,10.7,58.8,13.8c28.9,4.3,59.8,3.1,89.9,1.8"/>
			<path id="Path_1190" class="st2" d="M229.7,389.5c63.6-17.7,137.2-26.6,210.3-25.3c40.9,0.7,81.8,4.5,122.5,2.4
				c46.8-2.4,92.9-12.5,139.4-8.8"/>
			<path id="Path_1191" class="st2" d="M1084.2,357.1c78.8,7.6,156.6-14,236.6-17.3c36.2-1.5,72.5,0.7,108.5,2.9l118.2,7.3"/>
			<path id="Path_1192" class="st2" d="M267.8,407.3c106.3-27.9,237.5-31.9,350-10.6"/>
			<path id="Path_1193" class="st2" d="M1117.7,397.2c36.9-0.5,72.4-6.6,107.5-12.1c91.3-14.4,190.4-24.7,282-11"/>
			<path id="Path_1194" class="st2" d="M-26.6,180.8c14.4-3.1,27.9,4.8,42.4,7.9c7.3,1.6,15.5,1.8,23.5,1.9
				c30.4,0.4,60.7-1.5,90.8-5.5"/>
			<path id="Path_1195" class="st2" d="M595.7,155c114.7-16.9,234.6,16.7,354.3,16.3c108.1-0.4,218.4-28.3,320.3-10.5"/>
			<path id="Path_1196" class="st2" d="M670,177.6c106.1-14.3,214.1,25.2,323.7,20.8c76.8-3.2,150.1-27.9,225.5-20"/>
			<path id="Path_1197" class="st2" d="M535,131.2c197.3-21.6,405.3,12.7,604.4-4.7c56.5-4.9,111.7-14,168.9-16.1
				c106.5-4,214.8,16.2,318.8,4.6"/>
			<path id="Path_1198" class="st2" d="M-21.2,163.5c12.8-1.1,25.7-2.3,38-4.3c9.3-1.5,18.3-3.6,27.9-4.6
				c10.1-0.9,20.3-1.3,30.5-1.1l124.1,0.2"/>
			<path id="Path_1199" class="st2" d="M-32.6,127.6c64.5-1.8,130.3-3.4,192.6,4.8c26.2,3.5,54,8.7,79.5,4.1"/>
			<path id="Path_1200" class="st2" d="M-32.4,99.1C101,115.3,232.2,71.9,368.4,63c77.1-5.1,155.3,1.1,232.2,7
				c231.2,17.7,468,33.1,698.1,12.1c55.8-5.1,111-12.3,167.5-14.6c70.7-2.9,142.8,2,212.3-5"/>
			<path id="Path_1201" class="st2" d="M-26.5,114.7c54.1-0.3,108.5-0.7,162-4.6c19.1-1.4,38.7-3.2,57.6-1.4c10.3,1,20.1,3,30.1,4.5
				c23.1,3.3,46.6,3.6,69.8,0.9"/>
			<path id="Path_1202" class="st2" d="M463.5,109.8c102.5,2.8,203.3-17.7,305.7-14.3c44.3,1.5,87.4,7.4,131.1,11.2
				c263.7,22.7,537.2-34.6,799.3-8"/>
			<path id="Path_1203" class="st6" d="M1754.6,324.8c-70.3-5.9-144.3-0.1-207.5,16.1c-81,20.8-150.5,59.1-241.8,59.3
				c-63.7,0.2-120.2-18.6-174.6-35c-71-21.3-149.3-40.1-232.5-40.2c-54-0.1-107,7.7-156.7,18.2c-47.8,9.9-94.9,23.1-140.9,39.5
				c-39.1,14-77.2,30.4-124.5,35.5c-100.3,10.8-190-32.3-290.4-42.8c-84.5-8.9-178,8-231,41.5c-11.3,62.1-8.5,124.9-19.8,187
				c-0.7,3.6-5.5,7.1-1.1,10c5.6,3.7,9.7,263.5,19.1,263.5c541.5,0.2,1141.6,17.2,1683.1,17.5c119.7,0-83.9-266.3,35.8-267.3
				c54.1-0.5-83.5-71.2-32.6-80.2c-5.7-38.1,35.5-37.1,0-71.1c-23.3-22.3,0.8-30.2-11.7-54.5c-9.3-18.1-3.5-29.9-2-48.5
				c1.2-14.4,21.6-4.1,1.2-14.4c-9.1-4.6,24.8-17.4,12.5-19.5C1591.6,331.1,1801.1,315,1754.6,324.8z"/>
			<path id="Path_1204" class="st2" d="M-55.5,421.6c61.2-1.3,111.2-24.9,171-31.3c107.3-11.5,206.6,34.1,316.2,37.3
				c143.4,4.3,257.4-63.1,399.7-72.6c95.2-6.3,188.1,14,277.4,31.4s189.6,32.4,279.5,15.8c28.8-5.3,54.9-13.6,83.7-18.8
				c61.2-11.1,128.8-7.3,193.5-3.4"/>
			<path id="Path_1205" class="st2" d="M-75.6,458.4l187.2-44.4c20.6-4.9,42-9.9,64.9-10.3c43.1-0.9,79.9,14,117.2,24.7
				c82.8,23.7,187.3,28,277,11.6c63.1-11.6,117-32.4,174.5-49.5s123.7-31.2,190.4-26.7c44.3,3,84.6,13.8,125.1,23.1
				c60.9,14,122.5,25,184.5,32.9c65.4,8.4,137.2,13.4,198.5-0.6c25.3-5.8,47.6-14.5,73.3-19.8c43.3-8.9,92.2-7.2,139.1-5.4"/>
			<path id="Path_1206" class="st2" d="M-64.2,498.6c41.4,1.8,57.5-2.4,91.6-14.1c51.9-17.9,81.8-53.1,144.3-58.4
				c50.6-4.2,96.1,13.7,143,23.9c89,19.5,193.2,11.3,284.8-5S777,404.8,871,392.2c26.1-3.5,52.9-6.1,79.9-5.8
				c46.6,0.5,90.9,9.4,134.1,18c131.6,26.2,277.7,51.1,412.7,29.2c43.8-7.1,86.1-19,132.2-18.6"/>
			<path id="Path_1207" class="st2" d="M-51.3,513.1c43.3,2.1,86.6-0.5,129.3-7.9c17.6-3.1,34.6-7.1,52.6-9.7
				c31.7-4.6,65.4-4.9,98.6-5.1l161.3-1.2"/>
			<path id="Path_1208" class="st2" d="M713.3,445.8c74.8-17.8,153.4-36,236.5-34.9c44,0.6,86.9,6.7,128.8,13.4
				c47.1,7.5,93.6,15.8,139.6,24.9c41.3,8.2,82.4,17.1,125.9,21.9c96.2,10.8,196.9,1.2,295.3,5"/>
			<path id="Path_1209" class="st2" d="M1137,508.3c77.1-4.7,154.5,6.5,232.2,6.8c36.3,0.1,72.4-2.1,108.4-4.3
				c50.6-3.2,101.6-6.4,150-14.4"/>
			<path id="Path_1210" class="st2" d="M1199.8,528.9c75.6-7.7,151.1,9.5,226.3,18.2c65.7,7.6,133.8,8.9,201.3,8.1"/>
			<path id="Path_1211" class="st2" d="M1367.9,570.2c75.5-1.9,152.3-3.8,225.8,5c16.1,1.9,32,4.3,47.8,6.8"/>
			<path id="Path_1212" class="st2" d="M961.8,461.5c52.5-1.8,106-3.6,157.2,2.4c49.9,5.9,95.5,18.9,145.7,24.2
				c32.8,3.5,66.7,3.5,100.3,3.4c97.2-0.3,194.4-1.2,291.6-2.9"/>
			<path id="Path_1213" class="st2" d="M-50.9,548.1c15.2-6.8,36.5-7.5,56.2-7.5c46.2,0,92.5,2,138.2,5.9"/>
			<g id="CATAWBA_RIVER">
				<text transform="matrix(1 0 0 1 110.3843 458.8475)" class="st3 st7 st8 st9">C</text>
				<text transform="matrix(1 0 0 1 241.2543 458.8475)" class="st3 st7 st8 st10">A</text>
				<text transform="matrix(1 0 0 1 343.8643 458.8475)" class="st3 st7 st8 st11">T</text>
				<text transform="matrix(1 0 0 1 445.5743 458.8475)" class="st3 st7 st8 st10">A</text>
				<text transform="matrix(1 0 0 1 546.5643 458.8475)" class="st3 st7 st8 st12">WB</text>
				<text transform="matrix(1 0 0 1 826.3043 458.8475)" class="st3 st7 st8">A </text>
				<text transform="matrix(1 0 0 1 983.8143 458.8475)" class="st3 st7 st8 st9">R</text>
				<text transform="matrix(1 0 0 1 1099.2043 458.8475)" class="st3 st7 st8 st9">I</text>
				<text transform="matrix(1 0 0 1 1162.7443 458.8475)" class="st3 st7 st8 st9">V</text>
				<text transform="matrix(1 0 0 1 1282.2743 458.8475)" class="st3 st7 st8">E</text>
				<text transform="matrix(1 0 0 1 1384.3442 458.8475)" class="st3 st7 st8">R</text>
			</g>
			<path id="Path_1214" class="st6" d="M-23.9,589.8c18.8-26.9,9.6-4.2,61.7-16.6l334.7-79.7c50.1-11.9,100.5-23.9,153.8-31.9
				c62.6-9.3,128.1-13,193.4-15c83.1-2.6,168.4-2.8,247.4,10.2c58.6,9.6,111.5,25.9,164,41.9c161.9,49.1,335.7,97,525.8,100.7"/>
			<path id="Path_1215" class="st6" d="M-38.1,617.2c89.1-1,151.5-28.7,226.1-52.7c158-51,339-88.7,527.9-91.2
				c61.3-0.8,122.5,2.1,183.4,5.8c49,3,98.4,6.7,144.7,15.2c36.8,6.8,70.9,16.5,104.5,26.5c85.3,25.3,169,52.5,260,72.5
				s191.4,32.5,290.4,26.8"/>
			<path id="Path_1216" class="st6" d="M-24.3,649.3c70.2,7.4,111.7-0.6,175.5-16.8s118-40.3,166.7-66.2
				c21.7-11.5,42.6-23.6,68.4-32.9c51.7-18.7,117.5-24.5,180.8-29.7c106.6-8.9,215.3-17.8,322.2-9.7
				c153.1,11.6,285.8,56.5,415.6,98.1s271,82.2,425.9,83.3"/>
			<path id="Path_1217" class="st6" d="M-13.1,663.4c50.4,2.7,102,5.3,151.1-0.8c106.9-13.2,175.3-63.2,265.6-94.3
				c95.5-32.9,220.5-44.2,333.6-30.2c45.9,5.7,89.5,15.3,131.8,25.8c155.1,38.3,297.5,88.9,457.6,121.8
				c117.2,24.1,242.8,38.5,369.7,42.3"/>
			<path id="Path_1218" class="st6" d="M1663.1,743.7c-161.3,11.8-333.5,17.9-480.6-16.7c-130.6-30.7-223.8-89.3-340.4-131.4
				c-25-9-51.3-17.4-80-23.2c-54.9-11.1-115.7-12.5-175-13.8c-46.4-1-94.8-1.8-136.9,7.8c-26.5,6-48.6,15.8-70.5,25.3
				c-41,17.9-82.6,35.4-124.8,52.6c-34.8,14.2-70.5,28.3-112.1,37C93.4,691.3,39,693.2-14.2,695.1"/>
		</g>
	</g>
</g>
</svg>
