<svg xmlns="http://www.w3.org/2000/svg" xmlns:xlink="http://www.w3.org/1999/xlink" viewBox="0 0 1631 800"><defs><style>.cls-1,.cls-3{fill:none;}.cls-2{clip-path:url(#clip-path);}.cls-19,.cls-3{stroke:#1d1d1b;stroke-linecap:round;stroke-linejoin:round;}.cls-20,.cls-4{isolation:isolate;stroke:#000;stroke-miterlimit:10;font-family:GaramondPremrPro-Med, Garamond Premier Pro;}.cls-4{font-size:80px;}.cls-19,.cls-20,.cls-4{fill:#fff;}.cls-5{letter-spacing:0.01em;}.cls-6{letter-spacing:0em;}.cls-7{letter-spacing:0.01em;}.cls-8{letter-spacing:0.01em;}.cls-9{letter-spacing:0em;}.cls-10{letter-spacing:0.01em;}.cls-11{letter-spacing:0.01em;}.cls-12{letter-spacing:0.01em;}.cls-13{letter-spacing:-0.03em;}.cls-14{letter-spacing:0.01em;}.cls-15{letter-spacing:0em;}.cls-16{letter-spacing:0.04em;}.cls-17{letter-spacing:0em;}.cls-18{letter-spacing:0.01em;}.cls-20{font-size:146.74px;}.cls-21{letter-spacing:0.01em;}.cls-22{letter-spacing:-0.11em;}.cls-23{letter-spacing:-0.1em;}.cls-24{letter-spacing:-0.11em;}.cls-25{letter-spacing:-0.01em;}.cls-26{letter-spacing:0.01em;}.cls-27{letter-spacing:0.01em;}.cls-28{letter-spacing:0em;}</style><clipPath id="clip-path"><rect class="cls-1" width="1631" height="803"/></clipPath></defs><g id="båt"><g class="cls-2"><path class="cls-3" d="M-33.33,257.37c58.06,9.26,121.22-4.71,169.37-23.13s89.22-41.72,143.17-55.74c87.84-22.84,196.26-17.23,289.27,0s176.22,44.94,265.3,66.6c57.17,13.9,118.78,25.51,182.59,25,93.22-.69,176.48-26.59,260.26-46.66,88.93-21.32,185.73-36.91,284.69-36.42s200.5,18.73,264.43,55.79"/><path class="cls-3" d="M-54.62,269.51C-4.8,266,48,275.41,95.43,267.17c26-4.52,47.18-13.87,67.82-22.87,73.36-32,158.87-64.09,257-63.06,82.63.86,155.45,25.09,225.45,46.64C724.21,252.06,806.6,274.13,896,286.19s186.84,13.53,273.25-2.9c46-8.74,87.53-22.22,131.49-33.21,54.3-13.57,112.19-23.3,169.86-33,47.63-8,96.08-16.07,146.38-17.1s103.63,6,137.87,24.09"/><path class="cls-3" d="M-39.47,238.57c56.9,6.27,116.27-5.92,162.5-23.36s83.31-40,126.74-59.09,96.83-35.23,155.15-35.35c69.65-.14,130,22,186.62,41.93,87,30.57,180,58.32,282.75,73s216.86,15.38,313.84-6.83c115.33-26.41,202.51-83.37,328.52-92.16,90.17-6.3,185.92,16.86,230.66,55.78"/><path class="cls-3" d="M-42,287.7c73.26,6.13,148.69,12.26,221.31,4.5,46.42-4.95,89.65-15.39,135.43-21.61,74.92-10.18,154.07-8.77,231.76-7.27,32.53.62,65.38,1.27,96.83,5.4C684.06,274.07,720.71,285,759.7,293c106.11,21.56,225.21,20,339.77,16,44.06-1.54,88.51-3.44,130.59-10,37.38-5.85,72-15.27,108.25-22.61,129.21-26.13,280.69-24.39,407.27,4.68"/><text class="cls-4" transform="translate(181.35 258.95)"><tspan class="cls-5">B</tspan><tspan class="cls-6" x="48.32" y="0">E</tspan><tspan class="cls-7" x="94.08" y="0">FO</tspan><tspan class="cls-8" x="200.41" y="0">R</tspan><tspan class="cls-9" x="252.01" y="0">E </tspan><tspan class="cls-10" x="313.29" y="0">T</tspan><tspan class="cls-11" x="367.93" y="0">H</tspan><tspan x="433.86" y="0">E </tspan><tspan class="cls-7" x="495.14" y="0">I</tspan><tspan class="cls-12" x="523.38" y="0">N</tspan><tspan class="cls-10" x="586.02" y="0">T</tspan><tspan class="cls-13" x="640.67" y="0">R</tspan><tspan class="cls-14" x="689.23" y="0">U</tspan><tspan class="cls-7" x="750.67" y="0">D</tspan><tspan class="cls-15" x="811.79" y="0">E</tspan><tspan class="cls-16" x="857.56" y="0">R</tspan><tspan class="cls-17" x="911.32" y="0">S </tspan><tspan class="cls-7" x="965.4" y="0">O</tspan><tspan x="1028.6" y="0">F </tspan><tspan class="cls-18" x="1086.93" y="0">T</tspan><tspan class="cls-7" x="1141.57" y="0">H</tspan><tspan x="1207.49" y="0">E </tspan></text><path class="cls-3" d="M-37.47,305.5c64.5-5.77,129.84,11.29,195,7.75,57.45-3.12,109.54-22,167.25-20.5"/><path class="cls-3" d="M-47.1,333.15l98.24-2.88c16-.47,32.1-.94,48,0,18.91,1.07,37.12,4,55.69,6.1,24.19,2.68,49,3.8,73.67,4.92"/><path class="cls-3" d="M-39.64,358.39c29-2.27,58-4.55,87.36-4.86,36.11-.4,72.05,2.18,107.79,4.76"/><path class="cls-19" d="M1777,278.28c-60.22,13.89-131,20.27-193.56,9.09-30.65-5.48-57.69-14.84-87-21.9-81.16-19.58-180.25-20.28-262.53-1.86-77.71,17.39-138.28,50.1-217,66.31C943.2,345.09,858.75,344.39,781.71,334S634,304,567.6,282.18c-44.31-14.52-90.73-30.72-144-31.36-55.41-.66-105.73,15.94-145,35.15s-72,41.75-116,58.31C113,363,50.13,373.05-12.43,372.39c-10.95,0-26.22,3.11-37.16,3.11"/><path class="cls-3" d="M-46.7,389.27c61.94,5.37,125.9-5.27,178.72-22s96.73-39.29,142-60.7c45.73-21.63,102.49-43.76,165.33-39.22,40.53,2.93,73.85,16.5,107.45,28,126.35,43.24,286.28,62.2,438.92,52,26-1.73,52-4.3,76.41-9.08,83.38-16.32,142-56.93,228.74-68.32,150.17-19.73,295.87,56.51,449.4,44.51"/><path class="cls-3" d="M-57,405.5c52.38,2.54,107.32,4.91,155.82-5.12,39.32-8.13,70.05-23.55,102-37.41,86.43-37.46,203.74-66.69,314.55-51,57.77,8.16,106,27.51,161,39.51,46.55,10.17,97.26,14.92,147.83,18,57.62,3.49,116.36,4.88,173.51-.14,74.47-6.53,143-23.59,213.54-37s147.63-23.47,221.35-15.14c35.61,4,68.65,12.15,103.13,18.09,96.31,16.58,201.17,15.7,303,12.33"/><path class="cls-3" d="M-48.15,433.36c80.67,7.67,161.94-9,236.22-26.22s152.41-35.91,234.28-32.48c40.75,1.71,80.06,8.9,120.91,9.91C623,386.52,705.92,365,780,379.72"/><path class="cls-3" d="M1107.42,376.74c69.08-.25,130-20.95,195.73-31.4,81.92-13,174.21-9.54,251.1,9.49,20.41,5.05,39.93,11.17,61.79,14.45,30.34,4.53,62.86,3.25,94.46,1.92"/><path class="cls-3" d="M242.47,419.91c66.81-18.56,144.17-27.85,220.89-26.54,43,.73,85.93,4.71,128.69,2.54,49.19-2.5,97.58-13.08,146.39-9.18"/><path class="cls-3" d="M1140.13,386c82.81,8,164.49-14.62,248.57-18.16,38-1.6,76.15.73,114,3.06l124.15,7.64"/><path class="cls-3" d="M282.45,438.56c111.69-29.26,249.43-33.43,367.6-11.13"/><path class="cls-3" d="M1175.25,428c38.77-.47,76-6.94,113-12.73,95.87-15,200-25.92,296.26-11.48"/><path class="cls-3" d="M-26.8,201.25c15.12-3.27,29.32,5.05,44.51,8.25,7.71,1.62,16.28,1.91,24.66,2a651.11,651.11,0,0,0,95.4-5.83"/><path class="cls-3" d="M626.9,174.2c120.5-17.66,246.45,17.5,372.2,17.07,113.58-.39,229.42-29.7,336.42-11"/><path class="cls-3" d="M705,197.9c111.41-15,224.88,26.46,340,21.74,80.72-3.31,157.69-29.2,236.91-20.94"/><path class="cls-3" d="M563.22,149.26C770.5,126.59,989,162.54,1198.1,144.35c59.37-5.16,117.29-14.65,177.41-16.88,111.84-4.14,225.6,17,334.94,4.78"/><path class="cls-3" d="M-21.07,183.18c13.46-1.21,27-2.42,39.94-4.55,9.8-1.6,19.27-3.73,29.36-4.82,10.46-1.13,21.29-1.13,32-1.11l130.4.17"/><path class="cls-3" d="M-33.06,145.52c67.74-1.83,136.84-3.59,202.34,5.06,27.51,3.64,56.75,9.09,83.52,4.29"/><path class="cls-3" d="M-32.87,115.6c140.1,17,278-28.44,421.06-37.79,81-5.31,163.13,1.13,243.91,7.29,242.91,18.53,491.64,34.63,733.35,12.67,58.6-5.32,116.54-12.87,175.93-15.28,74.27-3,150,2.06,223-5.26"/><path class="cls-3" d="M-26.64,132c56.87-.27,113.94-.74,170.2-4.83,20.1-1.46,40.62-3.38,60.56-1.47,10.82,1,21.06,3.17,31.63,4.69a286.94,286.94,0,0,0,73.33.9"/><path class="cls-3" d="M488.06,126.88c107.62,2.94,213.6-18.54,321.14-14.93,46.52,1.56,91.8,7.79,137.73,11.73,277,23.74,564.25-36.21,839.62-8.37"/><path class="cls-19" d="M1844.31,352.14c-73.8-6.17-151.61-.15-218,16.85-85.08,21.8-158.07,61.89-254,62.18-66.94.2-126.26-19.51-183.37-36.65-74.56-22.36-156.78-42-244.17-42.14-56.76-.11-112.4,8.05-164.56,19a1136,1136,0,0,0-148,41.34c-41,14.68-81.12,31.87-130.73,37.21C396,461.3,301.87,416.14,196.37,405.1c-88.8-9.29-187,8.33-242.63,43.53-11.83,65-8.94,130.92-20.78,195.94-.69,3.78-5.78,7.43-1.17,10.47,5.9,3.89,10.18,276,20.06,276.05,568.81.23,1199.17,18.07,1768,18.3,125.75.05-88.14-279.06,37.59-280.11,56.86-.48-87.68-74.55-34.21-84-5.93-39.93,37.32-38.85,0-74.45-24.47-23.34.88-31.62-12.3-57.06-9.81-18.92-3.73-31.32-2.11-50.83,1.25-15.12,22.72-4.25,1.25-15.12-9.52-4.83,26.08-18.21,13.16-20.44C1673.09,358.69,1893.12,341.83,1844.31,352.14Z"/><path class="cls-3" d="M-57.09,453.61c64.25-1.32,116.78-26.12,179.61-32.83,112.68-12,217,35.7,332.12,39.11,150.69,4.46,270.37-66.13,420-76.07,100-6.64,197.63,14.63,291.39,32.88s199.11,33.95,293.57,16.59c30.21-5.56,57.69-14.28,88-19.74,64.27-11.59,135.28-7.63,203.24-3.52"/><path class="cls-3" d="M-78.19,492.15l196.61-46.49c21.66-5.12,44.09-10.34,68.12-10.84,45.31-.93,83.88,14.66,123.09,25.84,87,24.8,196.76,29.38,291,12.12,66.24-12.12,122.89-33.92,183.36-51.89s129.89-32.65,200-28c46.57,3.09,88.87,14.41,131.38,24.24,62.23,14.39,127.19,25.94,193.76,34.44,68.65,8.76,144.1,14,208.47-.62,26.61-6,50-15.22,77-20.76,45.54-9.33,96.91-7.55,146.1-5.61"/><path class="cls-3" d="M-66.24,534.26c43.53,1.86,60.39-2.47,96.19-14.76,54.5-18.7,86-55.63,151.54-61.13,53.1-4.46,101,14.33,150.2,25.06,93.51,20.38,203,11.82,299.2-5.25S817.36,436,916.1,422.8c27.39-3.66,55.56-6.38,83.93-6.09,49,.5,95.51,9.86,140.89,18.88,138.28,27.51,291.74,53.53,433.48,30.66,46-7.43,90.41-20,138.86-19.5"/><path class="cls-3" d="M-52.73,549.41a575.3,575.3,0,0,0,131-8.29c17.84-3.28,35-7.43,53.23-10.17,32.13-4.84,66.26-5.14,99.86-5.4l163.4-1.27"/><path class="cls-3" d="M750.49,479c78.61-18.66,161.09-37.75,248.38-36.53,46.23.64,91.29,7,135.29,14q74.22,11.79,146.62,26.1c43.42,8.59,86.58,17.89,132.23,23,101.11,11.3,206.83,1.27,310.2,5.26"/><path class="cls-3" d="M1195.59,544.4c81-4.94,162.3,6.81,243.92,7.11,38.1.15,76-2.21,113.82-4.56,53.18-3.3,106.78-6.65,157.58-15.05"/><path class="cls-3" d="M1261.52,566c79.42-8,158.77,9.93,237.69,19.09,69,8,140.56,9.3,211.46,8.46"/><path class="cls-3" d="M1433,609.3c79.33-2,160-3.95,237.16,5.23,16.94,2,33.6,4.55,50.25,7.09"/><path class="cls-3" d="M1011.48,495.39c55.16-1.92,111.35-3.8,165.14,2.5,52.42,6.14,100.32,19.82,153,25.33,34.49,3.61,70.08,3.61,105.35,3.51q153.2-.42,306.3-3"/><path class="cls-3" d="M-52.32,586.07c14.59-5.94,35.13-6.5,54.09-6.49,44.5,0,89,1.74,133,5.11"/><text class="cls-20" transform="translate(245.56 499.8)"><tspan class="cls-21">C</tspan><tspan class="cls-22" x="106.53" y="0">A</tspan><tspan class="cls-23" x="190.18" y="0">T</tspan><tspan class="cls-24" x="274.26" y="0">A</tspan><tspan class="cls-25" x="356.73" y="0">WB</tspan><tspan x="586.09" y="0">A </tspan><tspan class="cls-26" x="714.34" y="0">R</tspan><tspan class="cls-27" x="808.99" y="0">I</tspan><tspan x="861.52" y="0">V</tspan><tspan class="cls-28" x="958.37" y="0">E</tspan><tspan x="1042.31" y="0">R</tspan></text><path class="cls-19" d="M-52.32,629.81c19.79-28.2,10.09-4.4,64.79-17.39L364,528.94c52.66-12.5,105.59-25.06,161.58-33.4,65.74-9.78,134.56-13.57,203.11-15.75C816,477,905.58,476.91,988.6,490.44c61.55,10,117.08,27.16,172.28,43.87C1331,585.77,1513.46,636,1713.17,639.78"/><path class="cls-19" d="M-67.17,658.49c93.59-1,159.19-30.07,237.46-55.26,166-53.41,356.15-93,554.56-95.6,64.38-.85,128.72,2.18,192.62,6.13,51.52,3.18,103.36,7,152,16,38.61,7.12,74.49,17.34,109.8,27.79,89.66,26.55,177.47,55,273.12,75.93s201.06,34.1,305.05,28"/><path class="cls-19" d="M-52.73,692.2c73.75,7.74,117.37-.63,184.37-17.62s124-42.2,175.12-69.38c22.77-12.11,44.79-24.76,71.86-34.5,54.32-19.57,123.45-25.63,189.9-31.16,112-9.3,226.26-18.63,338.5-10.15,160.85,12.14,300.18,59.23,436.54,102.81s284.64,86.17,447.36,87.33"/><path class="cls-19" d="M-40.94,707c52.91,2.81,107.15,5.58,158.77-.79,112.29-13.86,184.17-66.24,279-98.84C497.15,572.86,628.48,561,747.24,575.73c48.25,6,94,16,138.46,27,162.89,40.17,312.51,93.13,480.67,127.67,123.15,25.29,255,40.32,388.31,44.23"/><path class="cls-19" d="M1719.83,791.06c-169.45,12.37-350.3,18.72-504.88-17.53C1077.81,741.38,979.83,680,857.35,635.82c-26.28-9.48-53.92-18.22-84.07-24.32-57.7-11.68-121.53-13.15-183.89-14.48-48.7-1-99.57-1.87-143.83,8.17-27.84,6.31-51.1,16.52-74.08,26.49q-64.65,28.05-131.1,55.07c-36.52,14.86-74.08,29.67-117.79,38.73C71,736.18,13.84,738.21-42.08,740.12"/></g></g></svg>