<?xml version="1.0" encoding="utf-8"?>
<!-- Generator: Adobe Illustrator 26.3.1, SVG Export Plug-In . SVG Version: 6.00 Build 0)  -->
<svg version="1.1" xmlns="http://www.w3.org/2000/svg" xmlns:xlink="http://www.w3.org/1999/xlink" x="0px" y="0px"
	 viewBox="0 0 595.3 595.3" style="enable-background:new 0 0 595.3 595.3;" xml:space="preserve">
<style type="text/css">
	.st0{fill:none;stroke:#000000;stroke-miterlimit:10;}
	.st1{fill:#FFFFFF;}
	.st2{fill:#FFFFFF;stroke:#000000;stroke-width:2;stroke-miterlimit:10;}
	.st3{fill:#FFFFFF;stroke:#000000;stroke-width:8;stroke-miterlimit:10;}
	.st4{fill:#FFFFFF;stroke:#000000;stroke-width:7;stroke-miterlimit:10;}
	.st5{fill:#FFFFFF;stroke:#000000;stroke-width:5;stroke-miterlimit:10;}
	.st6{fill:#FFFFFF;stroke:#000000;stroke-width:6;stroke-miterlimit:10;}
	.st7{fill:#FFFFFF;stroke:#000000;stroke-width:3;stroke-miterlimit:10;}
	.st8{fill:#FFFFFF;stroke:#000000;stroke-miterlimit:10;}
	.st9{stroke:#000000;stroke-width:3;stroke-miterlimit:10;}
	.st10{fill:none;stroke:#000000;stroke-width:3;stroke-miterlimit:10;}
	.st11{fill:none;stroke:#FFFFFF;stroke-width:4;stroke-miterlimit:10;}
	.st12{stroke:#000000;stroke-width:2;stroke-miterlimit:10;}
	.st13{fill:none;stroke:#000000;stroke-width:15;stroke-linecap:round;stroke-linejoin:round;stroke-miterlimit:10;}
	.st14{fill:none;stroke:#000000;stroke-width:14;stroke-linecap:square;stroke-miterlimit:10;}
	.st15{stroke:#000000;stroke-width:8;stroke-linecap:square;stroke-miterlimit:10;}
	.st16{stroke:#000000;stroke-width:0.75;stroke-linecap:round;stroke-linejoin:round;stroke-miterlimit:10;}
	.st17{fill:#FFFFFF;stroke:#000000;stroke-width:0.75;stroke-linecap:round;stroke-linejoin:round;stroke-miterlimit:10;}
	.st18{fill:none;stroke:#000000;stroke-linecap:round;stroke-linejoin:round;stroke-miterlimit:10;}
	.st19{stroke:#000000;stroke-miterlimit:10;}
	.st20{fill:#FFFFFF;stroke:#000000;stroke-width:0.75;stroke-miterlimit:10;}
	.st21{fill:#FFFFFF;stroke:#000000;stroke-linecap:round;stroke-linejoin:round;stroke-miterlimit:10;}
</style>
<g id="Layer_1">
	<path class="st18" d="M-2.6,175c19.9,6.5,41.6-3.3,58.1-16.2s30.6-29.2,49.1-39c30.2-16,67.4-12.1,99.3,0s60.5,31.4,91.1,46.6
		c19.6,9.7,40.8,17.8,62.7,17.5c32-0.5,60.6-18.6,89.3-32.7c30.5-14.9,63.8-25.8,97.7-25.5c34,0.3,68.8,13.1,90.8,39"/>
	<path class="st18" d="M-9.9,183.5c17.1-2.5,35.2,4.1,51.5-1.6c8.9-3.2,16.2-9.7,23.3-16c25.2-22.4,54.5-44.8,88.2-44.1
		c28.4,0.6,53.4,17.6,77.4,32.6c26.9,16.9,55.2,32.4,85.9,40.8c30.7,8.4,64.1,9.5,93.8-2c15.8-6.1,30-15.6,45.1-23.2
		c18.6-9.5,38.5-16.3,58.3-23.1c16.4-5.6,33-11.2,50.3-12c17.3-0.7,35.6,4.2,47.3,16.9"/>
	<path class="st18" d="M-4.7,161.8c19.5,4.4,39.9-4.1,55.8-16.3c15.9-12.2,28.6-28,43.5-41.3s33.2-24.7,53.3-24.7
		c23.9-0.1,44.6,15.4,64.1,29.3c29.9,21.4,61.8,40.8,97.1,51.1s74.4,10.8,107.7-4.8c39.6-18.5,69.5-58.3,112.8-64.5
		c31-4.4,63.8,11.8,79.2,39"/>
	<path class="st18" d="M-5.5,196.2c25.1,4.3,51,8.6,76,3.2c15.9-3.5,30.8-10.8,46.5-15.1c25.7-7.1,52.9-6.1,79.6-5.1
		c11.2,0.4,22.4,0.9,33.2,3.8c14,3.7,26.6,11.4,40,17c36.4,15.1,77.3,14,116.6,11.2c15.1-1.1,30.4-2.4,44.8-7
		c12.8-4.1,24.7-10.7,37.2-15.8c44.4-18.3,96.4-17.1,139.8,3.3"/>
	<path class="st18" d="M-4,208.7c22.1-4,44.6,7.9,66.9,5.4c19.7-2.2,37.6-15.4,57.4-14.3"/>
	<path class="st18" d="M-7.3,228c11.2-0.7,22.5-1.3,33.7-2c5.5-0.3,11-0.7,16.5,0c6.5,0.7,12.7,2.8,19.1,4.3
		c8.3,1.9,16.8,2.7,25.3,3.4"/>
	<path class="st18" d="M-4.7,245.7c9.9-1.6,19.9-3.2,30-3.4c12.4-0.3,24.7,1.5,37,3.3"/>
	<path class="st21" d="M618.9,189.6c-20.7,9.7-45,14.2-66.4,6.4c-10.5-3.8-19.8-10.4-29.9-15.3c-27.9-13.7-61.9-14.2-90.1-1.3
		c-26.7,12.2-47.5,35.1-74.5,46.4c-25.3,10.6-54.3,10.1-80.7,2.8c-26.4-7.3-50.7-21-73.5-36.2c-15.2-10.2-31.1-21.5-49.4-21.9
		c-19-0.5-36.3,11.2-49.8,24.6c-13.5,13.4-24.7,29.2-39.8,40.8c-17,13.1-38.6,20.1-60.1,19.7c-3.8,0-9,2.2-12.8,2.2"/>
	<path class="st18" d="M-7.1,267.3c21.3,3.8,43.2-3.7,61.3-15.4c18.1-11.7,33.2-27.5,48.7-42.5c15.7-15.1,35.2-30.6,56.8-27.4
		c13.9,2.1,25.4,11.5,36.9,19.6c43.4,30.3,98.3,43.5,150.7,36.4c8.9-1.2,17.9-3,26.2-6.4c28.6-11.4,48.8-39.8,78.5-47.8
		c51.6-13.8,101.6,39.5,154.3,31.1"/>
	<path class="st18" d="M-10.7,278.6c18,1.8,36.8,3.4,53.5-3.6c13.5-5.7,24-16.5,35-26.2c29.7-26.2,69.9-46.7,108-35.7
		c19.8,5.7,36.4,19.2,55.3,27.6c16,7.1,33.4,10.4,50.7,12.6c19.8,2.4,39.9,3.4,59.6-0.1c25.6-4.6,49.1-16.5,73.3-25.9
		c24.2-9.4,50.7-16.4,76-10.6c12.2,2.8,23.6,8.5,35.4,12.7c33.1,11.6,69.1,11,104,8.6"/>
	<path class="st18" d="M-7.6,298.1c27.7,5.4,55.6-6.3,81.1-18.3s52.3-25.1,80.4-22.7c14,1.2,27.5,6.2,41.5,6.9
		c27.4,1.4,55.8-13.7,81.3-3.4"/>
	<path class="st18" d="M389,258.5c23.7-0.2,44.6-14.7,67.2-22c28.1-9.1,59.8-6.7,86.2,6.6c7,3.5,13.7,7.8,21.2,10.1
		c10.4,3.2,21.6,2.3,32.4,1.3"/>
	<path class="st18" d="M92.1,288.7c22.9-13,49.5-19.5,75.8-18.6c14.7,0.5,29.5,3.3,44.2,1.8c16.9-1.7,33.5-9.2,50.3-6.4"/>
	<path class="st18" d="M400.3,265c28.4,5.6,56.5-10.2,85.3-12.7c13-1.1,26.1,0.5,39.1,2.1c14.2,1.8,28.4,3.6,42.6,5.3"/>
	<path class="st18" d="M105.8,301.8c38.3-20.5,85.6-23.4,126.2-7.8"/>
	<path class="st18" d="M412.3,294.4c13.3-0.3,26.1-4.9,38.8-8.9c32.9-10.5,68.7-18.1,101.7-8"/>
	<path class="st21" d="M642,241.3c-25.3-4.3-52-0.1-74.8,11.8c-29.2,15.3-54.3,43.3-87.2,43.5c-23,0.1-43.3-13.7-62.9-25.6
		c-25.6-15.6-53.8-29.4-83.8-29.5c-19.5-0.1-38.6,5.6-56.5,13.3c-18,7.7-35,17.4-50.8,28.9C211.8,294,198,306,181,309.7
		c-36.2,7.9-68.5-23.7-104.7-31.4c-30.5-6.5-64.2,5.8-83.3,30.5c-4.1,45.5-3.1,91.6-7.1,137.1c-0.2,2.6-2,5.2-0.4,7.3
		c2,2.7,3.5,193.1,6.9,193.1c195.3,0.2,411.7,12.6,606.9,12.8c43.2,0-30.3-195.3,12.9-196c19.5-0.3-30.1-52.2-11.7-58.8
		c-2-27.9,12.8-27.2,0-52.1c-8.4-16.3,0.3-22.1-4.2-39.9c-3.4-13.2-1.3-21.9-0.7-35.6c0.4-10.6,7.8-3,0.4-10.6
		c-3.3-3.4,9-12.7,4.5-14.3C583.2,245.9,658.8,234.1,642,241.3z"/>
	<path class="st18" d="M-10.7,312.3c22.1-0.9,40.1-18.3,61.7-23c38.7-8.4,74.5,25,114,27.4c51.7,3.1,92.8-46.3,144.2-53.2
		c34.3-4.6,67.8,10.2,100,23s68.4,23.8,100.8,11.6c10.4-3.9,19.8-10,30.2-13.8c22.1-8.1,46.4-5.3,69.8-2.5"/>
	<path class="st18" d="M-18,339.3c22.5-10.8,45-21.7,67.5-32.5c7.4-3.6,15.1-7.2,23.4-7.6c15.6-0.7,28.8,10.3,42.3,18.1
		c29.9,17.4,67.5,20.6,99.9,8.5c22.7-8.5,42.2-23.7,62.9-36.3c20.8-12.6,44.6-22.8,68.6-19.6c16,2.2,30.5,10.1,45.1,17
		c21.4,10.1,43.7,18.1,66.5,24.1c23.6,6.1,49.5,9.8,71.6-0.4c9.1-4.2,17.2-10.7,26.4-14.5c15.6-6.5,33.3-5.3,50.2-3.9"/>
	<path class="st18" d="M-13.9,368.7c14.9,1.3,20.7-1.7,33-10.3c18.7-13.1,29.5-38.9,52-42.8c18.2-3.1,34.7,10,51.6,17.5
		c32.1,14.3,69.7,8.3,102.7-3.7s64-29.5,97.9-38.7c9.4-2.6,19.1-4.5,28.8-4.3c16.8,0.3,32.8,6.9,48.4,13.2
		c47.5,19.2,100.1,37.4,148.8,21.4c15.8-5.2,31-14,47.7-13.6"/>
	<path class="st18" d="M-9.2,379.3c15.2,1.6,30.7-0.4,45-5.8c6.1-2.3,12-5.2,18.3-7.1c11-3.4,22.7-3.6,34.3-3.8
		c18.7-0.3,37.4-0.6,56.1-0.9"/>
	<path class="st18" d="M266.5,330c27-13.1,55.3-26.4,85.3-25.6c15.9,0.4,31.3,4.9,46.4,9.8c17,5.5,33.8,11.6,50.3,18.3
		c14.9,6,29.7,12.5,45.4,16.1c34.7,7.9,71,0.9,106.5,3.7"/>
	<path class="st18" d="M419.3,375.8c27.8-3.5,55.7,4.8,83.7,5c13.1,0.1,26.1-1.5,39.1-3.2c18.3-2.3,36.7-4.7,54.1-10.5"/>
	<path class="st18" d="M441.9,390.9c27.3-5.6,54.5,6.9,81.6,13.4c23.7,5.6,48.3,6.5,72.6,5.9"/>
	<path class="st18" d="M500.8,421.2c27.2-1.4,54.9-2.8,81.4,3.7c5.8,1.4,11.5,3.2,17.2,5"/>
	<path class="st18" d="M356.1,341.5c18.9-1.3,38.2-2.7,56.7,1.8c18,4.3,34.4,13.9,52.5,17.7c11.8,2.5,24.1,2.5,36.2,2.5
		c35.1-0.2,70.1-0.9,105.1-2.1"/>
	<path class="st18" d="M-9.1,405c5-4.2,12.1-4.6,18.6-4.5c15.3,0,30.6,1.2,45.6,3.6"/>
	<path class="st21" d="M-9.1,435.6c6.8-19.7,3.5-3.1,22.2-12.2c40.2-19.5,80.5-38.9,120.7-58.4c18.1-8.8,36.2-17.5,55.5-23.4
		c22.6-6.8,46.2-9.5,69.7-11c30-1.9,60.7-2,89.2,7.5c21.1,7,40.2,19,59.1,30.7c58.4,36,121,71.1,189.6,73.8"/>
	<path class="st18" d="M-14.2,455.6c32.1-0.7,54.6-21,81.5-38.7c57-37.4,122.3-65.1,190.4-66.9c22.1-0.6,44.2,1.5,66.1,4.3
		c17.7,2.2,35.5,4.9,52.2,11.2c13.3,5,25.6,12.1,37.7,19.4c30.8,18.6,60.9,38.5,93.8,53.1s69,23.9,104.7,19.6"/>
	<path class="st18" d="M-9.2,479.2c25.3,5.4,40.3-0.4,63.3-12.3c23-11.9,42.6-29.5,60.1-48.5c7.8-8.5,15.4-17.3,24.7-24.1
		c18.6-13.7,42.4-17.9,65.2-21.8c38.4-6.5,77.7-13,116.2-7.1c55.2,8.5,103,41.4,149.9,71.9c46.8,30.5,97.7,60.3,153.6,61.1"/>
	<path class="st18" d="M-5.2,489.6c18.2,2,36.8,3.9,54.5-0.6c38.5-9.7,63.2-46.3,95.8-69.2c34.4-24.1,79.5-32.4,120.3-22.1
		c16.6,4.2,32.3,11.2,47.5,18.9c55.9,28.1,107.3,65.2,165,89.3c42.3,17.7,87.6,28.2,133.3,30.9"/>
	<path class="st18" d="M599.3,548.4c-58.2,8.7-120.3,13.1-173.3-12.3c-47.1-22.5-80.7-65.5-122.8-96.4c-9-6.6-18.5-12.7-28.9-17
		c-19.8-8.2-41.7-9.2-63.1-10.1c-16.7-0.7-34.2-1.3-49.4,5.7c-9.6,4.4-17.5,11.6-25.4,18.5c-14.8,13.1-29.8,25.9-45,38.5
		C78.9,485.8,66,496.2,51,502.5c-17.7,7.5-37.3,8.9-56.5,10.2"/>
	<path class="st18" d="M-0.3,135.7c5.2-2.3,10.1,3.5,15.3,5.8c2.6,1.1,5.6,1.3,8.5,1.4c11,0.3,22.1-1.1,32.7-4.1"/>
	<path class="st18" d="M224.1,116.8c41.4-12.4,84.6,12.2,127.8,11.9c39-0.3,78.8-20.8,115.5-7.7"/>
	<path class="st18" d="M250.9,133.4c38.2-10.5,77.2,18.5,116.7,15.2c27.7-2.3,54.1-20.4,81.3-14.6"/>
	<path class="st18" d="M202.2,99.3c71.2-15.9,146.2,9.3,217.9-3.4c20.4-3.6,40.3-10.3,60.9-11.8c38.4-2.9,77.4,11.9,115,3.3"/>
	<path class="st18" d="M1.7,123.1c4.6-0.8,9.3-1.7,13.7-3.2c3.4-1.1,6.6-2.6,10.1-3.4c3.6-0.8,7.3-0.8,11-0.8
		c14.9,0,29.8,0.1,44.8,0.1"/>
	<path class="st18" d="M-2.5,96.7c23.3-1.3,47-2.5,69.5,3.5c9.4,2.5,19.5,6.4,28.7,3"/>
	<path class="st18" d="M-2.4,75.8C45.7,87.7,93,55.9,142.1,49.3c27.8-3.7,56,0.8,83.7,5.1c83.4,13,168.8,24.2,251.7,8.9
		c20.1-3.7,40-9,60.4-10.7c25.5-2.1,51.5,1.4,76.5-3.7"/>
	<path class="st18" d="M-0.3,87.2c19.5-0.2,39.1-0.5,58.4-3.4c6.9-1,13.9-2.4,20.8-1c3.7,0.7,7.2,2.2,10.9,3.3
		c8.1,2.4,16.9,2.6,25.2,0.6"/>
	<path class="st18" d="M176.4,83.7c36.9,2.1,73.3-13,110.2-10.4c16,1.1,31.5,5.5,47.3,8.2c95.1,16.6,193.7-25.3,288.2-5.9"/>
</g>
<g id="Layer_2">
</g>
</svg>
