<svg xmlns="http://www.w3.org/2000/svg" viewBox="0 0 994 1292"><defs><style>.cls-1{fill:#f4f4f4;}.cls-2{fill:#003937;}.cls-3,.cls-4,.cls-5{isolation:isolate;}.cls-4{font-size:26px;font-family:Avenir-Medium, Avenir;font-weight:500;letter-spacing:0.15em;}.cls-5{font-size:20px;font-family:GaramondPremrPro, Garamond Premier Pro;}.cls-6{letter-spacing:0.01em;}.cls-7{letter-spacing:0.01em;}.cls-8{letter-spacing:0em;}.cls-9{letter-spacing:0.01em;}.cls-10{letter-spacing:0em;}.cls-11{letter-spacing:-0.01em;}.cls-12{letter-spacing:-0.01em;}.cls-13{letter-spacing:-0.01em;}.cls-14{letter-spacing:-0.01em;}.cls-15{letter-spacing:-0.01em;}.cls-16{letter-spacing:0.01em;}.cls-17{letter-spacing:0.01em;}.cls-18{letter-spacing:0em;}.cls-19{letter-spacing:0em;}.cls-20{letter-spacing:0.01em;}.cls-21{letter-spacing:0em;}.cls-22{letter-spacing:-0.01em;}.cls-23{letter-spacing:0.02em;}.cls-24{letter-spacing:0.01em;}.cls-25{letter-spacing:-0.01em;}.cls-26{letter-spacing:-0.01em;}.cls-27{letter-spacing:-0.02em;}.cls-28{letter-spacing:-0.01em;}.cls-29{letter-spacing:-0.01em;}.cls-30{letter-spacing:-0.02em;}</style></defs><g id="Lager_2" data-name="Lager 2"><g id="skog"><rect id="Rectangle_1580" data-name="Rectangle 1580" class="cls-1" width="994" height="1292"/><g id="Group_394" data-name="Group 394"><g id="Group_392" data-name="Group 392"><path id="Path_3006" data-name="Path 3006" class="cls-2" d="M167.55,111.9v2.79l-8.44,0V139h3.53l.69,25H161l-.45,1.41h18.61L178.8,164h-1.4V138.63h2.81V114.81l-7-.09-.1-2.82h1.78v-5.63h-1.45l-.09-1.4H168l-.44,1.4h-1.41v5.63Z"/><path id="Path_3007" data-name="Path 3007" class="cls-2" d="M206,111.89v2.78l-8.44,0v24.23H201l.69,25h-2.36l-.45,1.41h18.6l-.31-1.41H215.8V138.62h2.81V114.79l-7-.09-.09-2.81h1.77v-5.63h-1.45l-.1-1.41h-5.32l-.44,1.41h-1.41v5.63Z"/><path id="Path_3008" data-name="Path 3008" class="cls-2" d="M244.35,111.77v2.78l-8.44,0v24.24h3.53l.69,25h-2.36l-.45,1.4h18.6l-.31-1.4h-1.4V138.5H257V114.67l-7-.09-.09-2.81h1.77v-5.63h-1.45l-.1-1.41H244.8l-.45,1.41H243v5.63Z"/><path id="Path_3009" data-name="Path 3009" class="cls-2" d="M282.76,111.78v2.79l-8.44,0v24.23h3.53l.69,25h-2.37l-.45,1.41h18.61l-.32-1.41h-1.4V138.52h2.81V114.69l-7-.09-.09-2.81h1.77v-5.63h-1.45l-.1-1.41h-5.31l-.45,1.41h-1.41v5.63Z"/><path id="Path_3010" data-name="Path 3010" class="cls-2" d="M321.16,111.8v2.79l-8.44,0v24.23h3.53l.69,25h-2.37l-.45,1.41h18.61l-.32-1.41H331V138.53h2.81V114.71l-7-.09-.09-2.82h1.77v-5.62H327l-.1-1.41h-5.31l-.45,1.41h-1.41v5.62Z"/><path id="Path_3011" data-name="Path 3011" class="cls-2" d="M359.56,111.82v2.78l-8.44,0v24.24h3.53l.69,25H353l-.45,1.4h18.6l-.31-1.4h-1.41V138.55h2.81V114.73l-7-.09-.09-2.82h1.77v-5.63h-1.45l-.1-1.4H360l-.45,1.4h-1.41v5.63Z"/><path id="Path_3012" data-name="Path 3012" class="cls-2" d="M398,111.84v2.78l-8.45,0v24.23h3.54l.68,25h-2.36l-.45,1.41h18.61l-.32-1.41h-1.41V138.57h2.82V114.74l-7-.09-.09-2.81h1.78v-5.63h-1.46l-.09-1.41h-5.32l-.45,1.41h-1.41v5.63Z"/><path id="Path_3013" data-name="Path 3013" class="cls-2" d="M436.37,111.85v2.79l-8.44,0V138.9h3.53l.69,25h-2.37l-.45,1.41h18.61l-.32-1.41h-1.41V138.58H449V114.76l-7-.09-.09-2.82h1.78v-5.63h-1.46l-.09-1.4h-5.32l-.45,1.4H435v5.63Z"/><path id="Path_3014" data-name="Path 3014" class="cls-2" d="M474.77,111.87v2.78l-8.44,0v24.24h3.53l.69,25h-2.36l-.46,1.4h18.61l-.32-1.4h-1.4V138.6h2.81V114.77l-7-.09-.09-2.81h1.77v-5.63h-1.45l-.1-1.41h-5.32l-.44,1.41h-1.41v5.63Z"/><path id="Path_3015" data-name="Path 3015" class="cls-2" d="M513.17,111.75v2.79l-8.44,0V138.8h3.53l.69,25h-2.36l-.45,1.41h18.6l-.31-1.41H523V138.48h2.81V114.66l-7-.09-.09-2.82h1.78v-5.63H519l-.09-1.4h-5.32l-.45,1.4h-1.41v5.63Z"/><path id="Path_3016" data-name="Path 3016" class="cls-2" d="M552.78,111.5v2.78l-8.44,0v24.24h3.53l.69,25h-2.37l-.45,1.4h18.61l-.32-1.4h-1.4V138.23h2.81V114.4l-7-.09-.1-2.81h1.78v-5.63h-1.45l-.1-1.41h-5.32l-.45,1.41h-1.4v5.63Z"/><path id="Path_3017" data-name="Path 3017" class="cls-2" d="M591.18,111.48v2.79l-8.44,0v24.24h3.53l.69,25H584.6l-.45,1.41h18.6l-.31-1.41H601V138.21h2.81V114.39l-7-.1-.09-2.81h1.77v-5.63H597l-.09-1.4h-5.32l-.45,1.4h-1.41v5.63Z"/><path id="Path_3018" data-name="Path 3018" class="cls-2" d="M629.59,111.36v2.79l-8.45,0v24.23h3.54l.68,25H623l-.45,1.41h18.61l-.32-1.41h-1.41V138.1h2.82V114.27l-7-.09-.09-2.82h1.78v-5.63h-1.46l-.09-1.4H630l-.45,1.4h-1.41v5.63Z"/><path id="Path_3019" data-name="Path 3019" class="cls-2" d="M668,111.38v2.79l-8.44,0v24.24h3.53l.69,25h-2.36l-.45,1.4h18.6l-.31-1.4h-1.41V138.11h2.81V114.29l-7-.1-.09-2.81h1.77v-5.63h-1.45l-.09-1.4h-5.33l-.44,1.4h-1.41v5.63Z"/><path id="Path_3020" data-name="Path 3020" class="cls-2" d="M706.39,111.4v2.78l-8.44,0v24.23h3.53l.69,25h-2.36l-.45,1.41H718l-.31-1.41h-1.41V138.13h2.81V114.3l-7-.09-.09-2.81h1.77v-5.63h-1.45l-.09-1.41h-5.32l-.45,1.41H705v5.63Z"/><path id="Path_3021" data-name="Path 3021" class="cls-2" d="M744.79,111.41v2.79l-8.44,0v24.23h3.53l.69,25h-2.36l-.45,1.41h18.6l-.31-1.41h-1.41V138.15h2.81V114.32l-7-.09-.09-2.82h1.77v-5.62h-1.45l-.09-1.41h-5.32l-.45,1.41h-1.41v5.62Z"/><path id="Path_3022" data-name="Path 3022" class="cls-2" d="M783.19,111.43v2.79l-8.44,0v24.24h3.54l.68,25h-2.36l-.45,1.4h18.6l-.31-1.4H793V138.16h2.81V114.34l-7-.1-.09-2.81h1.78V105.8h-1.46l-.09-1.4h-5.32l-.45,1.4h-1.41v5.63Z"/><path id="Path_3023" data-name="Path 3023" class="cls-2" d="M821.6,111.45v2.78l-8.44,0v24.23h3.53l.69,25H815l-.45,1.41h18.61l-.32-1.41h-1.4V138.18h2.81V114.35l-7-.09-.1-2.81h1.78v-5.63h-1.45l-.1-1.41H822l-.45,1.41h-1.4v5.63Z"/><path id="Path_3024" data-name="Path 3024" class="cls-2" d="M860,111.47v2.78l-8.44,0v24.24h3.53l.69,25h-2.36l-.45,1.4h18.6l-.31-1.4h-1.41V138.2h2.81V114.37l-7-.09-.09-2.82h1.77v-5.62h-1.45l-.09-1.41h-5.32l-.45,1.41h-1.41v5.62Z"/><path id="Path_3025" data-name="Path 3025" class="cls-2" d="M898.41,111.35v2.78l-8.44,0v24.23h3.53l.69,25h-2.37l-.45,1.41H910l-.32-1.41h-1.4V138.08h2.81V114.25l-7-.09-.1-2.81h1.78v-5.63h-1.45l-.1-1.41h-5.32l-.45,1.41H897v5.63Z"/><path id="Path_3026" data-name="Path 3026" class="cls-2" d="M167.55,194.54v2.79l-8.44,0v24.24h3.53l.69,25H161l-.45,1.4h18.61l-.32-1.4h-1.4V221.27h2.81V197.44l-7-.09-.1-2.81h1.78v-5.63h-1.45l-.09-1.41H168l-.44,1.41h-1.41v5.63Z"/><path id="Path_3027" data-name="Path 3027" class="cls-2" d="M206.78,194.52v2.79l-8.44,0v24.23h3.53l.69,25h-2.37l-.45,1.4h18.61l-.32-1.4h-1.41V221.25h2.82V197.43l-7-.1-.09-2.81h1.78v-5.63h-1.46l-.09-1.4h-5.32l-.45,1.4h-1.4v5.63Z"/><path id="Path_3028" data-name="Path 3028" class="cls-2" d="M245.18,194.4v2.79l-8.44,0v24.23h3.53l.69,25H238.6l-.46,1.41h18.61l-.32-1.41H255V221.13h2.81V197.31l-7-.09-.09-2.82h1.77v-5.63H251l-.1-1.4h-5.32l-.44,1.4h-1.41v5.63Z"/><path id="Path_3029" data-name="Path 3029" class="cls-2" d="M283.58,194.42v2.79l-8.44,0v24.24h3.53l.69,25H277l-.45,1.41h18.6l-.31-1.41h-1.41V221.15h2.81V197.33l-7-.1-.09-2.81h1.77v-5.63h-1.45l-.09-1.4H284l-.45,1.4h-1.41v5.63Z"/><path id="Path_3030" data-name="Path 3030" class="cls-2" d="M322,194.44v2.78l-8.45,0v24.23h3.54l.68,25H315.4L315,247.9h18.61l-.32-1.41h-1.41V221.17h2.82V197.34l-7-.09-.09-2.81h1.78v-5.63h-1.46l-.09-1.41h-5.32l-.45,1.41h-1.41v5.63Z"/><path id="Path_3031" data-name="Path 3031" class="cls-2" d="M360.39,194.45v2.79l-8.44,0V221.5h3.53l.69,25h-2.36l-.45,1.41H372l-.31-1.41h-1.41V221.19h2.81V197.36l-7-.09-.09-2.82h1.77v-5.62h-1.45l-.09-1.41h-5.33l-.44,1.41H359v5.62Z"/><path id="Path_3032" data-name="Path 3032" class="cls-2" d="M398.79,194.47v2.78l-8.44,0v24.24h3.53l.69,25h-2.36l-.45,1.4h18.6l-.31-1.4h-1.41V221.2h2.81V197.37l-7-.09-.09-2.81h1.77v-5.63h-1.45l-.09-1.41h-5.33l-.44,1.41h-1.41v5.63Z"/><path id="Path_3033" data-name="Path 3033" class="cls-2" d="M437.19,194.49v2.78l-8.44,0v24.24h3.53l.69,25h-2.36l-.45,1.4h18.6l-.31-1.4H447V221.22h2.81V197.39l-7-.09-.09-2.81h1.77v-5.63h-1.45l-.09-1.41h-5.33l-.44,1.41h-1.41v5.63Z"/><path id="Path_3034" data-name="Path 3034" class="cls-2" d="M475.6,194.5v2.79l-8.45,0v24.23h3.54l.69,25H469l-.45,1.41h18.6l-.31-1.41h-1.41V221.23h2.81V197.41l-7-.09-.09-2.82h1.77v-5.63h-1.45l-.09-1.4H476l-.44,1.4h-1.41v5.63Z"/><path id="Path_3035" data-name="Path 3035" class="cls-2" d="M514,194.39v2.78l-8.44,0v24.23h3.53l.69,25h-2.37l-.45,1.41h18.61l-.32-1.41h-1.4V221.12h2.81V197.29l-7-.09-.09-2.81h1.78v-5.63h-1.46l-.09-1.41h-5.32l-.45,1.41h-1.4v5.63Z"/><path id="Path_3036" data-name="Path 3036" class="cls-2" d="M553.61,194.13v2.79l-8.44,0v24.23h3.53l.69,25H547l-.45,1.41h18.61l-.32-1.41h-1.41V220.87h2.82V197l-7-.09-.09-2.82h1.78V188.5h-1.46l-.09-1.4h-5.32l-.45,1.4h-1.4v5.63Z"/><path id="Path_3037" data-name="Path 3037" class="cls-2" d="M592,194.12v2.78l-8.44,0v24.24h3.53l.69,25h-2.37l-.45,1.41h18.61l-.32-1.41h-1.41V220.85h2.82V197l-7-.09-.09-2.81h1.78v-5.63h-1.46l-.09-1.41h-5.32l-.45,1.41h-1.4v5.63Z"/><path id="Path_3038" data-name="Path 3038" class="cls-2" d="M630.41,194v2.78l-8.44,0v24.24h3.53l.69,25h-2.37l-.45,1.4H642l-.32-1.4h-1.41V220.73h2.82V196.9l-7-.09-.09-2.81h1.78v-5.63h-1.46l-.09-1.41h-5.32l-.44,1.41H629V194Z"/><path id="Path_3039" data-name="Path 3039" class="cls-2" d="M668.81,194v2.79l-8.44,0v24.23h3.53l.69,25h-2.36l-.45,1.41h18.6l-.31-1.41h-1.41V220.75h2.81V196.92l-7-.09-.09-2.82h1.78v-5.62h-1.46l-.09-1.41h-5.32l-.45,1.41h-1.4V194Z"/><path id="Path_3040" data-name="Path 3040" class="cls-2" d="M707.21,194v2.79l-8.44,0v24.23h3.54l.68,25h-2.36l-.45,1.41h18.61l-.32-1.41h-1.41V220.77h2.82V196.94l-7-.09-.09-2.81h1.78v-5.63h-1.46L713,187h-5.32l-.45,1.41h-1.4V194Z"/><path id="Path_3041" data-name="Path 3041" class="cls-2" d="M745.62,194.05v2.78l-8.44,0V221.1h3.53l.69,25H739l-.45,1.4h18.61l-.32-1.4h-1.4V220.78h2.81V197l-7-.09-.1-2.81h1.78v-5.63h-1.45l-.1-1.41h-5.32l-.45,1.41h-1.4v5.63Z"/><path id="Path_3042" data-name="Path 3042" class="cls-2" d="M784,194.07v2.79l-8.44,0v24.24h3.53l.69,25h-2.36l-.45,1.4h18.6l-.31-1.4h-1.41V220.8h2.81V197l-7-.09-.09-2.82h1.78v-5.62h-1.46l-.09-1.41h-5.32l-.45,1.41h-1.41v5.62Z"/><path id="Path_3043" data-name="Path 3043" class="cls-2" d="M822.42,194.08v2.79l-8.44,0v24.23h3.53l.69,25h-2.36l-.45,1.41H834l-.31-1.41h-1.41V220.81h2.82V197l-7-.09-.09-2.82h1.78v-5.63h-1.46l-.09-1.4h-5.32l-.45,1.4H821v5.63Z"/><path id="Path_3044" data-name="Path 3044" class="cls-2" d="M860.83,194.1v2.78l-8.45,0v24.24h3.54l.69,25h-2.37l-.45,1.4H872.4l-.32-1.4h-1.41V220.83h2.82V197l-7-.09-.09-2.81h1.78v-5.63h-1.46l-.09-1.41h-5.32l-.45,1.41h-1.4v5.63Z"/><path id="Path_3045" data-name="Path 3045" class="cls-2" d="M899.23,194v2.79l-8.44,0V221h3.53l.69,25h-2.36l-.46,1.41H910.8l-.32-1.41h-1.4V220.71h2.81V196.89l-7-.1-.09-2.81h1.77v-5.63h-1.45L905,187h-5.32l-.44,1.4h-1.41V194Z"/><path id="Path_3046" data-name="Path 3046" class="cls-2" d="M167.55,272.54v2.79l-8.44,0v24.24h3.53l.69,25H161l-.45,1.4h18.61l-.32-1.4h-1.4V299.27h2.81V275.44l-7-.09-.1-2.81h1.78v-5.63h-1.45l-.09-1.41H168l-.44,1.41h-1.41v5.63Z"/><path id="Path_3047" data-name="Path 3047" class="cls-2" d="M206.78,272.52v2.79l-8.44,0v24.23h3.53l.69,25h-2.37l-.45,1.4h18.61l-.32-1.4h-1.41V299.25h2.82V275.43l-7-.1-.09-2.81h1.78v-5.63h-1.46l-.09-1.4h-5.32l-.45,1.4h-1.4v5.63Z"/><path id="Path_3048" data-name="Path 3048" class="cls-2" d="M245.18,272.4v2.79l-8.44,0v24.23h3.53l.69,25H238.6l-.46,1.41h18.61l-.32-1.41H255V299.13h2.81V275.31l-7-.09-.09-2.82h1.77v-5.63H251l-.1-1.4h-5.32l-.44,1.4h-1.41v5.63Z"/><path id="Path_3049" data-name="Path 3049" class="cls-2" d="M283.58,272.42v2.79l-8.44,0v24.24h3.53l.69,25H277l-.45,1.41h18.6l-.31-1.41h-1.41V299.15h2.81V275.33l-7-.1-.09-2.81h1.77v-5.63h-1.45l-.09-1.4H284l-.45,1.4h-1.41v5.63Z"/><path id="Path_3050" data-name="Path 3050" class="cls-2" d="M322,272.44v2.78l-8.45,0v24.23h3.54l.68,25H315.4L315,325.9h18.61l-.32-1.41h-1.41V299.17h2.82V275.34l-7-.09-.09-2.81h1.78v-5.63h-1.46l-.09-1.41h-5.32l-.45,1.41h-1.41v5.63Z"/><path id="Path_3051" data-name="Path 3051" class="cls-2" d="M360.39,272.45v2.79l-8.44,0V299.5h3.53l.69,25h-2.36l-.45,1.41H372l-.31-1.41h-1.41V299.19h2.81V275.36l-7-.09-.09-2.82h1.77v-5.62h-1.45l-.09-1.41h-5.33l-.44,1.41H359v5.62Z"/><path id="Path_3052" data-name="Path 3052" class="cls-2" d="M398.79,272.47v2.78l-8.44,0v24.24h3.53l.69,25h-2.36l-.45,1.4h18.6l-.31-1.4h-1.41V299.2h2.81V275.37l-7-.09-.09-2.81h1.77v-5.63h-1.45l-.09-1.41h-5.33l-.44,1.41h-1.41v5.63Z"/><path id="Path_3053" data-name="Path 3053" class="cls-2" d="M437.19,272.49v2.78l-8.44,0v24.24h3.53l.69,25h-2.36l-.45,1.4h18.6l-.31-1.4H447V299.22h2.81V275.39l-7-.09-.09-2.81h1.77v-5.63h-1.45l-.09-1.41h-5.33l-.44,1.41h-1.41v5.63Z"/><path id="Path_3054" data-name="Path 3054" class="cls-2" d="M475.6,272.5v2.79l-8.45,0v24.23h3.54l.69,25H469l-.45,1.41h18.6l-.31-1.41h-1.41V299.23h2.81V275.41l-7-.09-.09-2.82h1.77v-5.63h-1.45l-.09-1.4H476l-.44,1.4h-1.41v5.63Z"/><path id="Path_3055" data-name="Path 3055" class="cls-2" d="M514,272.39v2.78l-8.44,0v24.23h3.53l.69,25h-2.37l-.45,1.41h18.61l-.32-1.41h-1.4V299.12h2.81V275.29l-7-.09-.09-2.81h1.78v-5.63h-1.46l-.09-1.41h-5.32l-.45,1.41h-1.4v5.63Z"/><path id="Path_3056" data-name="Path 3056" class="cls-2" d="M553.61,272.13v2.79l-8.44,0v24.23h3.53l.69,25H547l-.45,1.41h18.61l-.32-1.41h-1.41V298.87h2.82V275l-7-.09-.09-2.82h1.78V266.5h-1.46l-.09-1.4h-5.32l-.45,1.4h-1.4v5.63Z"/><path id="Path_3057" data-name="Path 3057" class="cls-2" d="M592,272.12v2.78l-8.44,0v24.24h3.53l.69,25h-2.37l-.45,1.41h18.61l-.32-1.41h-1.41V298.85h2.82V275l-7-.09-.09-2.81h1.78v-5.63h-1.46l-.09-1.41h-5.32l-.45,1.41h-1.4v5.63Z"/><path id="Path_3058" data-name="Path 3058" class="cls-2" d="M630.41,272v2.78l-8.44,0v24.24h3.53l.69,25h-2.37l-.45,1.4H642l-.32-1.4h-1.41V298.73h2.82V274.9l-7-.09-.09-2.81h1.78v-5.63h-1.46l-.09-1.41h-5.32l-.44,1.41H629V272Z"/><path id="Path_3059" data-name="Path 3059" class="cls-2" d="M668.81,272v2.79l-8.44,0v24.23h3.53l.69,25h-2.36l-.45,1.41h18.6l-.31-1.41h-1.41V298.75h2.81V274.92l-7-.09-.09-2.82h1.78v-5.62h-1.46l-.09-1.41h-5.32l-.45,1.41h-1.4V272Z"/><path id="Path_3060" data-name="Path 3060" class="cls-2" d="M707.21,272v2.79l-8.44,0v24.23h3.54l.68,25h-2.36l-.45,1.41h18.61l-.32-1.41h-1.41V298.77h2.82V274.94l-7-.09-.09-2.81h1.78v-5.63h-1.46L713,265h-5.32l-.45,1.41h-1.4V272Z"/><path id="Path_3061" data-name="Path 3061" class="cls-2" d="M745.62,272.05v2.78l-8.44,0V299.1h3.53l.69,25H739l-.45,1.4h18.61l-.32-1.4h-1.4V298.78h2.81V275l-7-.09-.1-2.81h1.78v-5.63h-1.45l-.1-1.41h-5.32l-.45,1.41h-1.4v5.63Z"/><path id="Path_3062" data-name="Path 3062" class="cls-2" d="M784,272.07v2.79l-8.44,0v24.24h3.53l.69,25h-2.36l-.45,1.4h18.6l-.31-1.4h-1.41V298.8h2.81V275l-7-.09-.09-2.82h1.78v-5.62h-1.46l-.09-1.41h-5.32l-.45,1.41h-1.41v5.62Z"/><path id="Path_3063" data-name="Path 3063" class="cls-2" d="M822.42,272.08v2.79l-8.44,0v24.23h3.53l.69,25h-2.36l-.45,1.41H834l-.31-1.41h-1.41V298.81h2.82V275l-7-.09-.09-2.82h1.78v-5.63h-1.46l-.09-1.4h-5.32l-.45,1.4H821v5.63Z"/><path id="Path_3064" data-name="Path 3064" class="cls-2" d="M860.83,272.1v2.78l-8.45,0v24.24h3.54l.69,25h-2.37l-.45,1.4H872.4l-.32-1.4h-1.41V298.83h2.82V275l-7-.09-.09-2.81h1.78v-5.63h-1.46l-.09-1.41h-5.32l-.45,1.41h-1.4v5.63Z"/><path id="Path_3065" data-name="Path 3065" class="cls-2" d="M899.23,272v2.79l-8.44,0V299h3.53l.69,25h-2.36l-.46,1.41H910.8l-.32-1.41h-1.4V298.71h2.81V274.89l-7-.1-.09-2.81h1.77v-5.63h-1.45L905,265h-5.32l-.44,1.4h-1.41V272Z"/><path id="Path_3066" data-name="Path 3066" class="cls-2" d="M167.55,353v2.79l-8.44,0v24.23h3.53l.69,25H161l-.45,1.41h18.61l-.32-1.41h-1.4V379.76h2.81V355.94l-7-.09-.1-2.82h1.78v-5.62h-1.45l-.09-1.41H168l-.44,1.41h-1.41V353Z"/><path id="Path_3067" data-name="Path 3067" class="cls-2" d="M206.78,351.52v2.79l-8.44,0v24.23h3.53l.69,25h-2.37l-.45,1.4h18.61l-.32-1.4h-1.41V378.25h2.82V354.43l-7-.1-.09-2.81h1.78v-5.63h-1.46l-.09-1.4h-5.32l-.45,1.4h-1.4v5.63Z"/><path id="Path_3068" data-name="Path 3068" class="cls-2" d="M245.18,351.4v2.79l-8.44,0v24.23h3.53l.69,25H238.6l-.46,1.41h18.61l-.32-1.41H255V378.13h2.81V354.31l-7-.09-.09-2.82h1.77v-5.63H251l-.1-1.4h-5.32l-.44,1.4h-1.41v5.63Z"/><path id="Path_3069" data-name="Path 3069" class="cls-2" d="M283.58,351.42v2.79l-8.44,0v24.24h3.53l.69,25H277l-.45,1.41h18.6l-.31-1.41h-1.41V378.15h2.81V354.33l-7-.1-.09-2.81h1.77v-5.63h-1.45l-.09-1.4H284l-.45,1.4h-1.41v5.63Z"/><path id="Path_3070" data-name="Path 3070" class="cls-2" d="M322,351.44v2.78l-8.45,0v24.23h3.54l.68,25H315.4L315,404.9h18.61l-.32-1.41h-1.41V378.17h2.82V354.34l-7-.09-.09-2.81h1.78v-5.63h-1.46l-.09-1.41h-5.32l-.45,1.41h-1.41v5.63Z"/><path id="Path_3071" data-name="Path 3071" class="cls-2" d="M360.39,351.45v2.79l-8.44,0V378.5h3.53l.69,25h-2.36l-.45,1.41H372l-.31-1.41h-1.41V378.19h2.81V354.36l-7-.09-.09-2.82h1.77v-5.62h-1.45l-.09-1.41h-5.33l-.44,1.41H359v5.62Z"/><path id="Path_3072" data-name="Path 3072" class="cls-2" d="M398.79,351.47v2.78l-8.44,0v24.24h3.53l.69,25h-2.36l-.45,1.4h18.6l-.31-1.4h-1.41V378.2h2.81V354.37l-7-.09-.09-2.81h1.77v-5.63h-1.45l-.09-1.41h-5.33l-.44,1.41h-1.41v5.63Z"/><path id="Path_3073" data-name="Path 3073" class="cls-2" d="M437.19,351.49v2.78l-8.44,0v24.24h3.53l.69,25h-2.36l-.45,1.4h18.6l-.31-1.4H447V378.22h2.81V354.39l-7-.09-.09-2.81h1.77v-5.63h-1.45l-.09-1.41h-5.33l-.44,1.41h-1.41v5.63Z"/><path id="Path_3074" data-name="Path 3074" class="cls-2" d="M475.6,351.5v2.79l-8.45,0v24.23h3.54l.69,25H469l-.45,1.41h18.6l-.31-1.41h-1.41V378.23h2.81V354.41l-7-.09-.09-2.82h1.77v-5.63h-1.45l-.09-1.4H476l-.44,1.4h-1.41v5.63Z"/><path id="Path_3075" data-name="Path 3075" class="cls-2" d="M514,351.39v2.78l-8.44,0v24.23h3.53l.69,25h-2.37l-.45,1.41h18.61l-.32-1.41h-1.4V378.12h2.81V354.29l-7-.09-.09-2.81h1.78v-5.63h-1.46l-.09-1.41h-5.32l-.45,1.41h-1.4v5.63Z"/><path id="Path_3076" data-name="Path 3076" class="cls-2" d="M553.61,351.13v2.79l-8.44,0v24.23h3.53l.69,25H547l-.45,1.41h18.61l-.32-1.41h-1.41V377.87h2.82V354l-7-.09-.09-2.82h1.78V345.5h-1.46l-.09-1.4h-5.32l-.45,1.4h-1.4v5.63Z"/><path id="Path_3077" data-name="Path 3077" class="cls-2" d="M592,351.12v2.78l-8.44,0v24.24h3.53l.69,25h-2.37l-.45,1.41h18.61l-.32-1.41h-1.41V377.85h2.82V354l-7-.09-.09-2.81h1.78v-5.63h-1.46l-.09-1.41h-5.32l-.45,1.41h-1.4v5.63Z"/><path id="Path_3078" data-name="Path 3078" class="cls-2" d="M630.41,351v2.78l-8.44,0v24.24h3.53l.69,25h-2.37l-.45,1.4H642l-.32-1.4h-1.41V377.73h2.82V353.9l-7-.09-.09-2.81h1.78v-5.63h-1.46l-.09-1.41h-5.32l-.44,1.41H629V351Z"/><path id="Path_3079" data-name="Path 3079" class="cls-2" d="M668.81,351v2.79l-8.44,0v24.23h3.53l.69,25h-2.36l-.45,1.41h18.6l-.31-1.41h-1.41V377.75h2.81V353.92l-7-.09-.09-2.82h1.78v-5.62h-1.46l-.09-1.41h-5.32l-.45,1.41h-1.4V351Z"/><path id="Path_3080" data-name="Path 3080" class="cls-2" d="M707.21,351v2.79l-8.44,0v24.23h3.54l.68,25h-2.36l-.45,1.41h18.61l-.32-1.41h-1.41V377.77h2.82V353.94l-7-.09-.09-2.81h1.78v-5.63h-1.46L713,344h-5.32l-.45,1.41h-1.4V351Z"/><path id="Path_3081" data-name="Path 3081" class="cls-2" d="M745.62,351.05v2.78l-8.44,0V378.1h3.53l.69,25H739l-.45,1.4h18.61l-.32-1.4h-1.4V377.78h2.81V354l-7-.09-.1-2.81h1.78v-5.63h-1.45l-.1-1.41h-5.32l-.45,1.41h-1.4v5.63Z"/><path id="Path_3082" data-name="Path 3082" class="cls-2" d="M784,351.07v2.79l-8.44,0v24.24h3.53l.69,25h-2.36l-.45,1.4h18.6l-.31-1.4h-1.41V377.8h2.81V354l-7-.09-.09-2.82h1.78v-5.62h-1.46l-.09-1.41h-5.32l-.45,1.41h-1.41v5.62Z"/><path id="Path_3083" data-name="Path 3083" class="cls-2" d="M822.42,351.08v2.79l-8.44,0v24.23h3.53l.69,25h-2.36l-.45,1.41H834l-.31-1.41h-1.41V377.81h2.82V354l-7-.09-.09-2.82h1.78v-5.63h-1.46l-.09-1.4h-5.32l-.45,1.4H821v5.63Z"/><path id="Path_3084" data-name="Path 3084" class="cls-2" d="M860.83,351.1v2.78l-8.45,0v24.24h3.54l.69,25h-2.37l-.45,1.4H872.4l-.32-1.4h-1.41V377.83h2.82V354l-7-.09-.09-2.81h1.78v-5.63h-1.46l-.09-1.41h-5.32l-.45,1.41h-1.4v5.63Z"/><path id="Path_3085" data-name="Path 3085" class="cls-2" d="M899.23,351v2.79l-8.44,0V378h3.53l.69,25h-2.36l-.46,1.41H910.8l-.32-1.41h-1.4V377.71h2.81V353.89l-7-.1-.09-2.81h1.77v-5.63h-1.45L905,344h-5.32l-.44,1.4h-1.41V351Z"/><path id="Path_3086" data-name="Path 3086" class="cls-2" d="M167.55,570v2.79l-8.44,0v24.23h3.53l.69,25H161l-.45,1.41h18.61l-.32-1.41h-1.4V596.77h2.81V572.94l-7-.09-.1-2.81h1.78v-5.63h-1.45l-.09-1.41H168l-.44,1.41h-1.41V570Z"/><path id="Path_3087" data-name="Path 3087" class="cls-2" d="M206.3,569.36v2.79l-8.44,0v24.24h3.53l.69,25h-2.36l-.46,1.41h18.61l-.32-1.41h-1.4V596.09H219V572.27l-7-.09-.09-2.82h1.77v-5.63h-1.45l-.1-1.4h-5.32l-.44,1.4h-1.41v5.63Z"/><path id="Path_3088" data-name="Path 3088" class="cls-2" d="M244.71,569.24V572l-8.44,0v24.23h3.53l.69,25h-2.37l-.45,1.41h18.61L256,621.3h-1.41V596h2.82V572.15l-7-.09-.09-2.82H252v-5.62h-1.46l-.09-1.41h-5.32l-.45,1.41h-1.4v5.62Z"/><path id="Path_3089" data-name="Path 3089" class="cls-2" d="M283.11,569.26v2.79l-8.44,0v24.24h3.53l.69,25h-2.37l-.45,1.41h18.61l-.32-1.41H293V596h2.82V572.17l-7-.09-.09-2.82h1.78v-5.62H289l-.09-1.41h-5.32l-.45,1.41h-1.4v5.62Z"/><path id="Path_3090" data-name="Path 3090" class="cls-2" d="M321.51,569.28v2.78l-8.44,0v24.23h3.53l.69,25h-2.37l-.45,1.41h18.61l-.32-1.41h-1.41V596h2.82V572.18l-7-.09-.09-2.81h1.78v-5.63h-1.46l-.09-1.41H322l-.45,1.41h-1.4v5.63Z"/><path id="Path_3091" data-name="Path 3091" class="cls-2" d="M168,695l-.45,1.41h-1.41V702h1.41v2.79l-8.44,0v24.23h3.53l.69,25H161l-.45,1.41h11.14V695Z"/><path id="Path_3092" data-name="Path 3092" class="cls-2" d="M168,826l-.45,1.41h-1.41V833h1.41v2.79l-8.44,0v24.23h3.53l.69,25H161l-.45,1.41h11.14V826Z"/><path id="Path_3093" data-name="Path 3093" class="cls-2" d="M208.51,958.55l-.44,1.41h-1.41v5.63h1.41v2.78l-8.45,0v24.23h3.54l.68,25h-2.36l-.45,1.41h11.14v-60.5Z"/><path id="Path_3094" data-name="Path 3094" class="cls-2" d="M167.55,965v2.79l-8.44,0v24.23h3.53l.69,25H161l-.45,1.41h18.61l-.32-1.41h-1.4V991.77h2.81V967.94l-7-.09-.1-2.82h1.78v-5.62h-1.45l-.09-1.41H168l-.44,1.41h-1.41V965Z"/><path id="Path_3095" data-name="Path 3095" class="cls-2" d="M167.55,1096v2.79l-8.44,0v24.23h3.53l.69,25H161l-.45,1.41h18.61l-.32-1.41h-1.4v-25.32h2.81v-23.83l-7-.09-.1-2.82h1.78v-5.62h-1.45l-.09-1.41H168l-.44,1.41h-1.41V1096Z"/><path id="Path_3096" data-name="Path 3096" class="cls-2" d="M206.27,1095.51v2.79l-8.44,0v24.24h3.53l.69,25h-2.36l-.45,1.4h18.6l-.31-1.4h-1.41v-25.33h2.81v-23.82l-7-.1-.09-2.81h1.77v-5.63h-1.45l-.09-1.4h-5.33l-.44,1.4h-1.41v5.63Z"/><path id="Path_3097" data-name="Path 3097" class="cls-2" d="M244.67,1095.39v2.79l-8.44,0v24.23h3.53l.69,25h-2.36l-.45,1.41h18.6l-.31-1.41h-1.41v-25.33h2.82V1098.3l-7-.09-.09-2.82H252v-5.63h-1.46l-.09-1.4h-5.32l-.45,1.4h-1.41v5.63Z"/><path id="Path_3098" data-name="Path 3098" class="cls-2" d="M283.08,1095.41v2.78l-8.45,0v24.24h3.54l.68,25h-2.36l-.45,1.4h18.61l-.32-1.4h-1.41v-25.33h2.82v-23.82l-7-.1-.09-2.81h1.78v-5.63h-1.46l-.09-1.4h-5.32l-.45,1.4h-1.41v5.63Z"/><path id="Path_3099" data-name="Path 3099" class="cls-2" d="M321.48,1095.43v2.78l-8.44,0v24.23h3.53l.69,25h-2.37l-.45,1.41h18.61l-.32-1.41h-1.4v-25.32h2.81v-23.83l-7-.09-.1-2.81h1.78v-5.63h-1.45l-.1-1.41h-5.32l-.45,1.41h-1.4v5.63Z"/><path id="Path_3100" data-name="Path 3100" class="cls-2" d="M359.88,1095.44v2.79l-8.44,0v24.23H355l.69,25H353.3l-.45,1.41h18.6l-.31-1.41h-1.41v-25.33h2.81v-23.82l-7-.09-.09-2.82h1.77v-5.62h-1.45l-.09-1.41h-5.32l-.45,1.41h-1.41v5.62Z"/><path id="Path_3101" data-name="Path 3101" class="cls-2" d="M398.28,1095.46v2.79l-8.44,0v24.24h3.53l.69,25H391.7l-.45,1.4h18.6l-.31-1.4h-1.41v-25.33H411v-23.82l-7-.09-.09-2.82h1.78v-5.62h-1.46l-.09-1.41h-5.32l-.45,1.41h-1.41v5.62Z"/><path id="Path_3102" data-name="Path 3102" class="cls-2" d="M436.69,1095.48v2.78l-8.45,0v24.23h3.54l.69,25h-2.36l-.45,1.41h18.6l-.31-1.41h-1.41v-25.32h2.81v-23.83l-7-.09-.09-2.81H444v-5.63h-1.45l-.09-1.41h-5.33l-.44,1.41h-1.41v5.63Z"/><path id="Path_3103" data-name="Path 3103" class="cls-2" d="M475.09,1095.49v2.79l-8.44,0v24.23h3.53l.69,25h-2.36l-.45,1.41h18.6l-.31-1.41h-1.41v-25.33h2.81V1098.4l-7-.09-.09-2.82h1.77v-5.62H481l-.09-1.41h-5.33l-.44,1.41h-1.41v5.62Z"/><path id="Path_3104" data-name="Path 3104" class="cls-2" d="M513.49,1095.38v2.78l-8.44,0v24.23h3.53l.69,25h-2.36l-.45,1.41h18.6l-.31-1.41h-1.41v-25.32h2.81v-23.83l-7-.09-.09-2.81h1.77v-5.63h-1.45l-.09-1.41h-5.33l-.44,1.41h-1.41v5.63Z"/><path id="Path_3105" data-name="Path 3105" class="cls-2" d="M553.1,1095.12v2.79l-8.44,0v24.23h3.53l.69,25h-2.37l-.45,1.41h18.61l-.32-1.41H563v-25.33h2.81V1098l-7-.1-.1-2.81h1.78v-5.63H559l-.1-1.4h-5.32l-.45,1.4h-1.4v5.63Z"/><path id="Path_3106" data-name="Path 3106" class="cls-2" d="M591.5,1095.11v2.78l-8.44,0v24.23h3.53l.69,25h-2.36l-.45,1.41h18.6l-.31-1.41h-1.41v-25.32h2.81V1098l-7-.09-.09-2.81h1.77v-5.63h-1.45l-.09-1.41H592l-.45,1.41h-1.41v5.63Z"/><path id="Path_3107" data-name="Path 3107" class="cls-2" d="M629.91,1095v2.78l-8.44,0V1122H625l.69,25h-2.37l-.45,1.41h18.61l-.32-1.41h-1.41v-25.32h2.82v-23.83l-7-.09-.09-2.81h1.78v-5.63h-1.46l-.09-1.41h-5.32l-.45,1.41h-1.4V1095Z"/><path id="Path_3108" data-name="Path 3108" class="cls-2" d="M668.31,1095v2.79l-8.45,0v24.23h3.54l.69,25h-2.37l-.45,1.41h18.61l-.32-1.41h-1.41v-25.32H681v-23.83l-7-.09-.09-2.82h1.78v-5.62h-1.46l-.09-1.41h-5.32l-.45,1.41h-1.4V1095Z"/><path id="Path_3109" data-name="Path 3109" class="cls-2" d="M706.71,1095v2.79l-8.44,0v24.23h3.53l.69,25h-2.37l-.45,1.4h18.61l-.32-1.4h-1.4v-25.33h2.81v-23.82l-7-.1-.1-2.81H714v-5.63h-1.45l-.1-1.4h-5.32l-.45,1.4h-1.39V1095Z"/></g><g id="_1550" data-name=" 1550" class="cls-3"><text class="cls-4" transform="translate(62.11 86)">1550</text></g><g id="_1750" data-name=" 1750" class="cls-3"><text class="cls-4" transform="translate(62.11 557)">1750</text></g><g id="_1800" data-name=" 1800" class="cls-3"><text class="cls-4" transform="translate(62.11 689)">1800</text></g><g id="_1900" data-name=" 1900" class="cls-3"><text class="cls-4" transform="translate(62.11 821)">1900</text></g><g id="_1950" data-name=" 1950" class="cls-3"><text class="cls-4" transform="translate(62.11 951)">1950</text></g><g id="_2020" data-name=" 2020" class="cls-3"><text class="cls-4" transform="translate(62.11 1083)">2020</text></g><g id="Each_symbol_represents_200_people_which_belonged_to_the_Catawba_tribe." data-name="Each symbol represents 200 people which belonged to the Catawba tribe." class="cls-3"><text class="cls-5" transform="translate(62.11 1224.55)"><tspan class="cls-6">E</tspan><tspan x="11.4" y="0">ach </tspan><tspan class="cls-7" x="41.42" y="0">s</tspan><tspan class="cls-8" x="48.02" y="0">y</tspan><tspan x="56.22" y="0">m</tspan><tspan class="cls-9" x="71.46" y="0">b</tspan><tspan class="cls-10" x="81.36" y="0">o</tspan><tspan x="91.08" y="0">l </tspan><tspan class="cls-11" x="99.94" y="0">r</tspan><tspan class="cls-12" x="106.58" y="0">e</tspan><tspan class="cls-8" x="114.24" y="0">p</tspan><tspan class="cls-11" x="124.08" y="0">r</tspan><tspan x="130.72" y="0">es</tspan><tspan class="cls-13" x="144.98" y="0">e</tspan><tspan class="cls-14" x="152.62" y="0">n</tspan><tspan class="cls-15" x="162.78" y="0">t</tspan><tspan x="169.08" y="0">s 200 </tspan><tspan class="cls-16" x="212.62" y="0">p</tspan><tspan class="cls-17" x="222.72" y="0">e</tspan><tspan class="cls-8" x="230.82" y="0">o</tspan><tspan class="cls-10" x="240.38" y="0">p</tspan><tspan class="cls-18" x="250.38" y="0">le </tspan><tspan class="cls-19" x="267.07" y="0">w</tspan><tspan class="cls-20" x="280.05" y="0">h</tspan><tspan x="290.43" y="0">ich </tspan><tspan class="cls-9" x="317.57" y="0">b</tspan><tspan x="327.47" y="0">el</tspan><tspan class="cls-21" x="340.19" y="0">o</tspan><tspan class="cls-22" x="349.75" y="0">n</tspan><tspan class="cls-23" x="360.05" y="0">g</tspan><tspan class="cls-24" x="368.81" y="0">e</tspan><tspan x="376.91" y="0">d </tspan><tspan class="cls-25" x="390.87" y="0">t</tspan><tspan x="397.21" y="0">o </tspan><tspan class="cls-26" x="410.83" y="0">t</tspan><tspan class="cls-18" x="417.03" y="0">he </tspan><tspan class="cls-27" x="439.11" y="0">C</tspan><tspan class="cls-12" x="453.07" y="0">a</tspan><tspan class="cls-28" x="460.83" y="0">t</tspan><tspan class="cls-29" x="467.07" y="0">a</tspan><tspan class="cls-18" x="474.73" y="0">w</tspan><tspan class="cls-10" x="487.81" y="0">b</tspan><tspan x="497.61" y="0">a </tspan><tspan class="cls-30" x="509.53" y="0">t</tspan><tspan class="cls-11" x="515.61" y="0">r</tspan><tspan x="522.25" y="0">i</tspan><tspan class="cls-7" x="527.31" y="0">b</tspan><tspan x="537.21" y="0">e.</tspan></text></g><g id="Group_393" data-name="Group 393"><path id="Path_3110" data-name="Path 3110" class="cls-2" d="M167.55,439v2.79l-8.44,0v24.23h3.53l.69,25H161l-.45,1.41h18.61l-.32-1.41h-1.4V465.76h2.81V441.94l-7-.09-.1-2.82h1.78V433.4h-1.45l-.09-1.4H168l-.44,1.4h-1.41V439Z"/><path id="Path_3111" data-name="Path 3111" class="cls-2" d="M206.3,438.66v2.78l-8.44,0V465.7h3.53l.69,25h-2.36l-.46,1.41h18.61l-.32-1.41h-1.4V465.39H219V441.56l-7-.09-.09-2.81h1.77V433h-1.45l-.1-1.41h-5.32L206.3,433h-1.41v5.63Z"/><path id="Path_3112" data-name="Path 3112" class="cls-2" d="M244.71,438.54v2.79l-8.44,0v24.24h3.53l.69,25h-2.37l-.45,1.4h18.61l-.32-1.4h-1.41V465.27h2.82V441.44l-7-.09-.09-2.81H252v-5.63h-1.46l-.09-1.41h-5.32l-.45,1.41h-1.4v5.63Z"/><path id="Path_3113" data-name="Path 3113" class="cls-2" d="M283.11,438.56v2.78l-8.44,0V465.6h3.53l.69,25h-2.37l-.45,1.41h18.61l-.32-1.41H293V465.29h2.82V441.46l-7-.09-.09-2.81h1.78v-5.63H289l-.09-1.41h-5.32l-.45,1.41h-1.4v5.63Z"/><path id="Path_3114" data-name="Path 3114" class="cls-2" d="M321.51,438.57v2.79l-8.44,0v24.23h3.53l.69,25h-2.37l-.45,1.41h18.61l-.32-1.41h-1.41V465.3h2.82V441.48l-7-.09-.09-2.82h1.78v-5.63h-1.46l-.09-1.4H322l-.45,1.4h-1.4v5.63Z"/></g></g></g></g></svg>