<?xml version="1.0" encoding="utf-8"?>
<!-- Generator: Adobe Illustrator 26.3.1, SVG Export Plug-In . SVG Version: 6.00 Build 0)  -->
<svg version="1.1" id="Layer_1" xmlns="http://www.w3.org/2000/svg" xmlns:xlink="http://www.w3.org/1999/xlink" x="0px" y="0px"
	 viewBox="0 0 994 1292" style="enable-background:new 0 0 994 1292;" xml:space="preserve">
<style type="text/css">
	.st0{fill:#F3F3F3;stroke:#013937;stroke-width:3;stroke-miterlimit:10;}
	.st1{fill:none;stroke:#0800FD;stroke-miterlimit:10;}
	.st2{fill:#013937;}
	.st3{font-family:'Avenir-Medium';}
	.st4{font-size:26px;}
	.st5{letter-spacing:3;}
	.st6{font-family:'GaramondPremrPro';}
	.st7{font-size:20px;}
</style>
<rect id="Rectangle_1580" class="st0" width="994" height="1292"/>
<g id="Group_394" transform="translate(-149 -1654)">
	<g id="Group_392" transform="translate(-1198.393 -533.632)">
		<path id="Path_3005" class="st1" d="M2183.5,2773.3"/>
		<path id="Path_3006" class="st2" d="M1514.9,2299.5v2.8l-8.4,0v24.2h3.5l0.7,25h-2.4l-0.5,1.4h18.6l-0.3-1.4h-1.4v-25.3h2.8v-23.8
			l-7-0.1l-0.1-2.8h1.8v-5.6h-1.5l-0.1-1.4h-5.3l-0.4,1.4h-1.4v5.6H1514.9z"/>
		<path id="Path_3007" class="st2" d="M1553.3,2299.5v2.8l-8.4,0v24.2h3.5l0.7,25h-2.4l-0.5,1.4h18.6l-0.3-1.4h-1.4v-25.3h2.8v-23.8
			l-7-0.1l-0.1-2.8h1.8v-5.6h-1.5l-0.1-1.4h-5.3l-0.4,1.4h-1.4v5.6H1553.3z"/>
		<path id="Path_3008" class="st2" d="M1591.7,2299.4v2.8l-8.4,0v24.2h3.5l0.7,25h-2.4l-0.5,1.4h18.6l-0.3-1.4h-1.4v-25.3h2.8v-23.8
			l-7-0.1l-0.1-2.8h1.8v-5.6h-1.5l-0.1-1.4h-5.3l-0.4,1.4h-1.4v5.6L1591.7,2299.4z"/>
		<path id="Path_3009" class="st2" d="M1630.2,2299.4v2.8l-8.4,0v24.2h3.5l0.7,25h-2.4l-0.5,1.4h18.6l-0.3-1.4h-1.4v-25.3h2.8v-23.8
			l-7-0.1l-0.1-2.8h1.8v-5.6h-1.5l-0.1-1.4h-5.3l-0.4,1.4h-1.4v5.6L1630.2,2299.4z"/>
		<path id="Path_3010" class="st2" d="M1668.6,2299.4v2.8l-8.4,0v24.2h3.5l0.7,25h-2.4l-0.5,1.4h18.6l-0.3-1.4h-1.4v-25.3h2.8v-23.8
			l-7-0.1l-0.1-2.8h1.8v-5.6h-1.5l-0.1-1.4h-5.3l-0.4,1.4h-1.4v5.6L1668.6,2299.4z"/>
		<path id="Path_3011" class="st2" d="M1707,2299.5v2.8l-8.4,0v24.2h3.5l0.7,25h-2.4l-0.5,1.4h18.6l-0.3-1.4h-1.4v-25.3h2.8v-23.8
			l-7-0.1l-0.1-2.8h1.8v-5.6h-1.5l-0.1-1.4h-5.3l-0.4,1.4h-1.4v5.6L1707,2299.5z"/>
		<path id="Path_3012" class="st2" d="M1745.4,2299.5v2.8l-8.4,0v24.2h3.5l0.7,25h-2.4l-0.5,1.4h18.6l-0.3-1.4h-1.4v-25.3h2.8v-23.8
			l-7-0.1l-0.1-2.8h1.8v-5.6h-1.5l-0.1-1.4h-5.3l-0.4,1.4h-1.4v5.6H1745.4z"/>
		<path id="Path_3013" class="st2" d="M1783.8,2299.5v2.8l-8.4,0v24.2h3.5l0.7,25h-2.4l-0.5,1.4h18.6l-0.3-1.4h-1.4v-25.3h2.8v-23.8
			l-7-0.1l-0.1-2.8h1.8v-5.6h-1.5l-0.1-1.4h-5.3l-0.4,1.4h-1.4v5.6L1783.8,2299.5z"/>
		<path id="Path_3014" class="st2" d="M1822.2,2299.5v2.8l-8.4,0v24.2h3.5l0.7,25h-2.4l-0.5,1.4h18.6l-0.3-1.4h-1.4v-25.3h2.8v-23.8
			l-7-0.1l-0.1-2.8h1.8v-5.6h-1.5l-0.1-1.4h-5.3l-0.4,1.4h-1.4v5.6L1822.2,2299.5z"/>
		<path id="Path_3015" class="st2" d="M1860.6,2299.4v2.8l-8.4,0v24.2h3.5l0.7,25h-2.4l-0.5,1.4h18.6l-0.3-1.4h-1.4v-25.3h2.8v-23.8
			l-7-0.1l-0.1-2.8h1.8v-5.6h-1.5l-0.1-1.4h-5.3l-0.4,1.4h-1.4v5.6H1860.6z"/>
		<path id="Path_3016" class="st2" d="M1900.2,2299.1v2.8l-8.4,0v24.2h3.5l0.7,25h-2.4l-0.5,1.4h18.6l-0.3-1.4h-1.4v-25.3h2.8V2302
			l-7-0.1l-0.1-2.8h1.8v-5.6h-1.5l-0.1-1.4h-5.3l-0.4,1.4h-1.4v5.6H1900.2z"/>
		<path id="Path_3017" class="st2" d="M1938.6,2299.1v2.8l-8.4,0v24.2h3.5l0.7,25h-2.4l-0.5,1.4h18.6l-0.3-1.4h-1.4v-25.3h2.8V2302
			l-7-0.1l-0.1-2.8h1.8v-5.6h-1.5l-0.1-1.4h-5.3l-0.4,1.4h-1.4v5.6H1938.6z"/>
		<path id="Path_3018" class="st2" d="M1977,2299v2.8l-8.4,0v24.2h3.5l0.7,25h-2.4l-0.5,1.4h18.6l-0.3-1.4h-1.4v-25.3h2.8v-23.8
			l-7-0.1l-0.1-2.8h1.8v-5.6h-1.5l-0.1-1.4h-5.3l-0.4,1.4h-1.4v5.6L1977,2299z"/>
		<path id="Path_3019" class="st2" d="M2015.4,2299v2.8l-8.4,0v24.2h3.5l0.7,25h-2.4l-0.5,1.4h18.6l-0.3-1.4h-1.4v-25.3h2.8v-23.8
			l-7-0.1l-0.1-2.8h1.8v-5.6h-1.5l-0.1-1.4h-5.3l-0.4,1.4h-1.4v5.6L2015.4,2299z"/>
		<path id="Path_3020" class="st2" d="M2053.8,2299v2.8l-8.4,0v24.2h3.5l0.7,25h-2.4l-0.5,1.4h18.6l-0.3-1.4h-1.4v-25.3h2.8v-23.8
			l-7-0.1l-0.1-2.8h1.8v-5.6h-1.5l-0.1-1.4h-5.3l-0.4,1.4h-1.4v5.6L2053.8,2299z"/>
		<path id="Path_3021" class="st2" d="M2092.2,2299v2.8l-8.4,0v24.2h3.5l0.7,25h-2.4l-0.5,1.4h18.6l-0.3-1.4h-1.4v-25.3h2.8V2302
			l-7-0.1l-0.1-2.8h1.8v-5.6h-1.5l-0.1-1.4h-5.3l-0.4,1.4h-1.4v5.6L2092.2,2299z"/>
		<path id="Path_3022" class="st2" d="M2130.6,2299.1v2.8l-8.4,0v24.2h3.5l0.7,25h-2.4l-0.5,1.4h18.6l-0.3-1.4h-1.4v-25.3h2.8V2302
			l-7-0.1l-0.1-2.8h1.8v-5.6h-1.5l-0.1-1.4h-5.3l-0.4,1.4h-1.4v5.6H2130.6z"/>
		<path id="Path_3023" class="st2" d="M2169,2299.1v2.8l-8.4,0v24.2h3.5l0.7,25h-2.4l-0.5,1.4h18.6l-0.3-1.4h-1.4v-25.3h2.8V2302
			l-7-0.1l-0.1-2.8h1.8v-5.6h-1.5l-0.1-1.4h-5.3l-0.4,1.4h-1.4v5.6H2169z"/>
		<path id="Path_3024" class="st2" d="M2207.4,2299.1v2.8l-8.4,0v24.2h3.5l0.7,25h-2.4l-0.5,1.4h18.6l-0.3-1.4h-1.4v-25.3h2.8V2302
			l-7-0.1l-0.1-2.8h1.8v-5.6h-1.5l-0.1-1.4h-5.3l-0.4,1.4h-1.4v5.6L2207.4,2299.1z"/>
		<path id="Path_3025" class="st2" d="M2245.8,2299v2.8l-8.4,0v24.2h3.5l0.7,25h-2.4l-0.5,1.4h18.6l-0.3-1.4h-1.4v-25.3h2.8v-23.8
			l-7-0.1l-0.1-2.8h1.8v-5.6h-1.5l-0.1-1.4h-5.3l-0.4,1.4h-1.4v5.6L2245.8,2299z"/>
		<path id="Path_3026" class="st2" d="M1514.9,2382.2v2.8l-8.4,0v24.2h3.5l0.7,25h-2.4l-0.5,1.4h18.6l-0.3-1.4h-1.4v-25.3h2.8v-23.8
			l-7-0.1l-0.1-2.8h1.8v-5.6h-1.5l-0.1-1.4h-5.3l-0.4,1.4h-1.4v5.6L1514.9,2382.2z"/>
		<path id="Path_3027" class="st2" d="M1554.2,2382.2v2.8l-8.4,0v24.2h3.5l0.7,25h-2.4l-0.5,1.4h18.6l-0.3-1.4h-1.4v-25.3h2.8v-23.8
			l-7-0.1l-0.1-2.8h1.8v-5.6h-1.5l-0.1-1.4h-5.3l-0.4,1.4h-1.4v5.6L1554.2,2382.2z"/>
		<path id="Path_3028" class="st2" d="M1592.6,2382v2.8l-8.4,0v24.2h3.5l0.7,25h-2.4l-0.5,1.4h18.6l-0.3-1.4h-1.4v-25.3h2.8v-23.8
			l-7-0.1l-0.1-2.8h1.8v-5.6h-1.5l-0.1-1.4h-5.3l-0.4,1.4h-1.4v5.6H1592.6z"/>
		<path id="Path_3029" class="st2" d="M1631,2382.1v2.8l-8.4,0v24.2h3.5l0.7,25h-2.4l-0.5,1.4h18.6l-0.3-1.4h-1.4v-25.3h2.8V2385
			l-7-0.1l-0.1-2.8h1.8v-5.6h-1.5l-0.1-1.4h-5.3l-0.4,1.4h-1.4v5.6L1631,2382.1z"/>
		<path id="Path_3030" class="st2" d="M1669.4,2382.1v2.8l-8.4,0v24.2h3.5l0.7,25h-2.4l-0.5,1.4h18.6l-0.3-1.4h-1.4v-25.3h2.8V2385
			l-7-0.1l-0.1-2.8h1.8v-5.6h-1.5l-0.1-1.4h-5.3l-0.4,1.4h-1.4v5.6L1669.4,2382.1z"/>
		<path id="Path_3031" class="st2" d="M1707.8,2382.1v2.8l-8.4,0v24.2h3.5l0.7,25h-2.4l-0.5,1.4h18.6l-0.3-1.4h-1.4v-25.3h2.8V2385
			l-7-0.1l-0.1-2.8h1.8v-5.6h-1.5l-0.1-1.4h-5.3l-0.4,1.4h-1.4v5.6H1707.8z"/>
		<path id="Path_3032" class="st2" d="M1746.2,2382.1v2.8l-8.4,0v24.2h3.5l0.7,25h-2.4l-0.5,1.4h18.6l-0.3-1.4h-1.4v-25.3h2.8V2385
			l-7-0.1l-0.1-2.8h1.8v-5.6h-1.5l-0.1-1.4h-5.3l-0.4,1.4h-1.4v5.6H1746.2z"/>
		<path id="Path_3033" class="st2" d="M1784.6,2382.1v2.8l-8.4,0v24.2h3.5l0.7,25h-2.4l-0.5,1.4h18.6l-0.3-1.4h-1.4v-25.3h2.8V2385
			l-7-0.1l-0.1-2.8h1.8v-5.6h-1.5l-0.1-1.4h-5.3l-0.4,1.4h-1.4v5.6H1784.6z"/>
		<path id="Path_3034" class="st2" d="M1823,2382.1v2.8l-8.4,0v24.2h3.5l0.7,25h-2.4l-0.5,1.4h18.6l-0.3-1.4h-1.4v-25.3h2.8V2385
			l-7-0.1l-0.1-2.8h1.8v-5.6h-1.5l-0.1-1.4h-5.3l-0.4,1.4h-1.4v5.6L1823,2382.1z"/>
		<path id="Path_3035" class="st2" d="M1861.4,2382v2.8l-8.4,0v24.2h3.5l0.7,25h-2.4l-0.5,1.4h18.6l-0.3-1.4h-1.4v-25.3h2.8v-23.8
			l-7-0.1l-0.1-2.8h1.8v-5.6h-1.5l-0.1-1.4h-5.3l-0.4,1.4h-1.4v5.6H1861.4z"/>
		<path id="Path_3036" class="st2" d="M1901,2381.8v2.8l-8.4,0v24.2h3.5l0.7,25h-2.4l-0.5,1.4h18.6l-0.3-1.4h-1.4v-25.3h2.8v-23.8
			l-7-0.1l-0.1-2.8h1.8v-5.6h-1.5l-0.1-1.4h-5.3l-0.4,1.4h-1.4v5.6H1901z"/>
		<path id="Path_3037" class="st2" d="M1939.4,2381.7v2.8l-8.4,0v24.2h3.5l0.7,25h-2.4l-0.5,1.4h18.6l-0.3-1.4h-1.4v-25.3h2.8v-23.8
			l-7-0.1l-0.1-2.8h1.8v-5.6h-1.5l-0.1-1.4h-5.3l-0.4,1.4h-1.4v5.6H1939.4z"/>
		<path id="Path_3038" class="st2" d="M1977.8,2381.6v2.8l-8.4,0v24.2h3.5l0.7,25h-2.4l-0.5,1.4h18.6l-0.3-1.4h-1.4v-25.3h2.8v-23.8
			l-7-0.1l-0.1-2.8h1.8v-5.6h-1.5l-0.1-1.4h-5.3l-0.4,1.4h-1.4v5.6L1977.8,2381.6z"/>
		<path id="Path_3039" class="st2" d="M2016.2,2381.6v2.8l-8.4,0v24.2h3.5l0.7,25h-2.4l-0.5,1.4h18.6l-0.3-1.4h-1.4v-25.3h2.8v-23.8
			l-7-0.1l-0.1-2.8h1.8v-5.6h-1.5l-0.1-1.4h-5.3l-0.4,1.4h-1.4v5.6H2016.2z"/>
		<path id="Path_3040" class="st2" d="M2054.6,2381.7v2.8l-8.4,0v24.2h3.5l0.7,25h-2.4l-0.5,1.4h18.6l-0.3-1.4h-1.4v-25.3h2.8v-23.8
			l-7-0.1l-0.1-2.8h1.8v-5.6h-1.5l-0.1-1.4h-5.3l-0.4,1.4h-1.4v5.6L2054.6,2381.7z"/>
		<path id="Path_3041" class="st2" d="M2093,2381.7v2.8l-8.4,0v24.2h3.5l0.7,25h-2.4l-0.5,1.4h18.6l-0.3-1.4h-1.4v-25.3h2.8v-23.8
			l-7-0.1l-0.1-2.8h1.8v-5.6h-1.5l-0.1-1.4h-5.3l-0.4,1.4h-1.4v5.6L2093,2381.7z"/>
		<path id="Path_3042" class="st2" d="M2131.4,2381.7v2.8l-8.4,0v24.2h3.5l0.7,25h-2.4l-0.5,1.4h18.6l-0.3-1.4h-1.4v-25.3h2.8v-23.8
			l-7-0.1l-0.1-2.8h1.8v-5.6h-1.5l-0.1-1.4h-5.3l-0.4,1.4h-1.4v5.6L2131.4,2381.7z"/>
		<path id="Path_3043" class="st2" d="M2169.8,2381.7v2.8l-8.4,0v24.2h3.5l0.7,25h-2.4l-0.5,1.4h18.6l-0.3-1.4h-1.4v-25.3h2.8v-23.8
			l-7-0.1l-0.1-2.8h1.8v-5.6h-1.5l-0.1-1.4h-5.3l-0.4,1.4h-1.4v5.6L2169.8,2381.7z"/>
		<path id="Path_3044" class="st2" d="M2208.2,2381.7v2.8l-8.4,0v24.2h3.5l0.7,25h-2.4l-0.5,1.4h18.6l-0.3-1.4h-1.4v-25.3h2.8v-23.8
			l-7-0.1l-0.1-2.8h1.8v-5.6h-1.5l-0.1-1.4h-5.3l-0.4,1.4h-1.4v5.6H2208.2z"/>
		<path id="Path_3045" class="st2" d="M2246.6,2381.6v2.8l-8.4,0v24.2h3.5l0.7,25h-2.4l-0.5,1.4h18.6l-0.3-1.4h-1.4v-25.3h2.8v-23.8
			l-7-0.1l-0.1-2.8h1.8v-5.6h-1.5l-0.1-1.4h-5.3l-0.4,1.4h-1.4v5.6H2246.6z"/>
		<path id="Path_3046" class="st2" d="M1514.9,2460.2v2.8l-8.4,0v24.2h3.5l0.7,25h-2.4l-0.5,1.4h18.6l-0.3-1.4h-1.4v-25.3h2.8v-23.8
			l-7-0.1l-0.1-2.8h1.8v-5.6h-1.5l-0.1-1.4h-5.3l-0.4,1.4h-1.4v5.6L1514.9,2460.2z"/>
		<path id="Path_3047" class="st2" d="M1554.2,2460.2v2.8l-8.4,0v24.2h3.5l0.7,25h-2.4l-0.5,1.4h18.6l-0.3-1.4h-1.4v-25.3h2.8v-23.8
			l-7-0.1l-0.1-2.8h1.8v-5.6h-1.5l-0.1-1.4h-5.3l-0.4,1.4h-1.4v5.6L1554.2,2460.2z"/>
		<path id="Path_3048" class="st2" d="M1592.6,2460v2.8l-8.4,0v24.2h3.5l0.7,25h-2.4l-0.5,1.4h18.6l-0.3-1.4h-1.4v-25.3h2.8v-23.8
			l-7-0.1l-0.1-2.8h1.8v-5.6h-1.5l-0.1-1.4h-5.3l-0.4,1.4h-1.4v5.6H1592.6z"/>
		<path id="Path_3049" class="st2" d="M1631,2460.1v2.8l-8.4,0v24.2h3.5l0.7,25h-2.4l-0.5,1.4h18.6l-0.3-1.4h-1.4v-25.3h2.8V2463
			l-7-0.1l-0.1-2.8h1.8v-5.6h-1.5l-0.1-1.4h-5.3l-0.4,1.4h-1.4v5.6L1631,2460.1z"/>
		<path id="Path_3050" class="st2" d="M1669.4,2460.1v2.8l-8.4,0v24.2h3.5l0.7,25h-2.4l-0.5,1.4h18.6l-0.3-1.4h-1.4v-25.3h2.8V2463
			l-7-0.1l-0.1-2.8h1.8v-5.6h-1.5l-0.1-1.4h-5.3l-0.4,1.4h-1.4v5.6L1669.4,2460.1z"/>
		<path id="Path_3051" class="st2" d="M1707.8,2460.1v2.8l-8.4,0v24.2h3.5l0.7,25h-2.4l-0.5,1.4h18.6l-0.3-1.4h-1.4v-25.3h2.8V2463
			l-7-0.1l-0.1-2.8h1.8v-5.6h-1.5l-0.1-1.4h-5.3l-0.4,1.4h-1.4v5.6H1707.8z"/>
		<path id="Path_3052" class="st2" d="M1746.2,2460.1v2.8l-8.4,0v24.2h3.5l0.7,25h-2.4l-0.5,1.4h18.6l-0.3-1.4h-1.4v-25.3h2.8V2463
			l-7-0.1l-0.1-2.8h1.8v-5.6h-1.5l-0.1-1.4h-5.3l-0.4,1.4h-1.4v5.6H1746.2z"/>
		<path id="Path_3053" class="st2" d="M1784.6,2460.1v2.8l-8.4,0v24.2h3.5l0.7,25h-2.4l-0.5,1.4h18.6l-0.3-1.4h-1.4v-25.3h2.8V2463
			l-7-0.1l-0.1-2.8h1.8v-5.6h-1.5l-0.1-1.4h-5.3l-0.4,1.4h-1.4v5.6H1784.6z"/>
		<path id="Path_3054" class="st2" d="M1823,2460.1v2.8l-8.4,0v24.2h3.5l0.7,25h-2.4l-0.5,1.4h18.6l-0.3-1.4h-1.4v-25.3h2.8V2463
			l-7-0.1l-0.1-2.8h1.8v-5.6h-1.5l-0.1-1.4h-5.3l-0.4,1.4h-1.4v5.6L1823,2460.1z"/>
		<path id="Path_3055" class="st2" d="M1861.4,2460v2.8l-8.4,0v24.2h3.5l0.7,25h-2.4l-0.5,1.4h18.6l-0.3-1.4h-1.4v-25.3h2.8v-23.8
			l-7-0.1l-0.1-2.8h1.8v-5.6h-1.5l-0.1-1.4h-5.3l-0.4,1.4h-1.4v5.6H1861.4z"/>
		<path id="Path_3056" class="st2" d="M1901,2459.8v2.8l-8.4,0v24.2h3.5l0.7,25h-2.4l-0.5,1.4h18.6l-0.3-1.4h-1.4v-25.3h2.8v-23.8
			l-7-0.1l-0.1-2.8h1.8v-5.6h-1.5l-0.1-1.4h-5.3l-0.4,1.4h-1.4v5.6H1901z"/>
		<path id="Path_3057" class="st2" d="M1939.4,2459.7v2.8l-8.4,0v24.2h3.5l0.7,25h-2.4l-0.5,1.4h18.6l-0.3-1.4h-1.4v-25.3h2.8v-23.8
			l-7-0.1l-0.1-2.8h1.8v-5.6h-1.5l-0.1-1.4h-5.3l-0.4,1.4h-1.4v5.6H1939.4z"/>
		<path id="Path_3058" class="st2" d="M1977.8,2459.6v2.8l-8.4,0v24.2h3.5l0.7,25h-2.4l-0.5,1.4h18.6l-0.3-1.4h-1.4v-25.3h2.8v-23.8
			l-7-0.1l-0.1-2.8h1.8v-5.6h-1.5l-0.1-1.4h-5.3l-0.4,1.4h-1.4v5.6L1977.8,2459.6z"/>
		<path id="Path_3059" class="st2" d="M2016.2,2459.6v2.8l-8.4,0v24.2h3.5l0.7,25h-2.4l-0.5,1.4h18.6l-0.3-1.4h-1.4v-25.3h2.8v-23.8
			l-7-0.1l-0.1-2.8h1.8v-5.6h-1.5l-0.1-1.4h-5.3l-0.4,1.4h-1.4v5.6H2016.2z"/>
		<path id="Path_3060" class="st2" d="M2054.6,2459.7v2.8l-8.4,0v24.2h3.5l0.7,25h-2.4l-0.5,1.4h18.6l-0.3-1.4h-1.4v-25.3h2.8v-23.8
			l-7-0.1l-0.1-2.8h1.8v-5.6h-1.5l-0.1-1.4h-5.3l-0.4,1.4h-1.4v5.6L2054.6,2459.7z"/>
		<path id="Path_3061" class="st2" d="M2093,2459.7v2.8l-8.4,0v24.2h3.5l0.7,25h-2.4l-0.5,1.4h18.6l-0.3-1.4h-1.4v-25.3h2.8v-23.8
			l-7-0.1l-0.1-2.8h1.8v-5.6h-1.5l-0.1-1.4h-5.3l-0.4,1.4h-1.4v5.6L2093,2459.7z"/>
		<path id="Path_3062" class="st2" d="M2131.4,2459.7v2.8l-8.4,0v24.2h3.5l0.7,25h-2.4l-0.5,1.4h18.6l-0.3-1.4h-1.4v-25.3h2.8v-23.8
			l-7-0.1l-0.1-2.8h1.8v-5.6h-1.5l-0.1-1.4h-5.3l-0.4,1.4h-1.4v5.6L2131.4,2459.7z"/>
		<path id="Path_3063" class="st2" d="M2169.8,2459.7v2.8l-8.4,0v24.2h3.5l0.7,25h-2.4l-0.5,1.4h18.6l-0.3-1.4h-1.4v-25.3h2.8v-23.8
			l-7-0.1l-0.1-2.8h1.8v-5.6h-1.5l-0.1-1.4h-5.3l-0.4,1.4h-1.4v5.6L2169.8,2459.7z"/>
		<path id="Path_3064" class="st2" d="M2208.2,2459.7v2.8l-8.4,0v24.2h3.5l0.7,25h-2.4l-0.5,1.4h18.6l-0.3-1.4h-1.4v-25.3h2.8v-23.8
			l-7-0.1l-0.1-2.8h1.8v-5.6h-1.5l-0.1-1.4h-5.3l-0.4,1.4h-1.4v5.6H2208.2z"/>
		<path id="Path_3065" class="st2" d="M2246.6,2459.6v2.8l-8.4,0v24.2h3.5l0.7,25h-2.4l-0.5,1.4h18.6l-0.3-1.4h-1.4v-25.3h2.8v-23.8
			l-7-0.1l-0.1-2.8h1.8v-5.6h-1.5l-0.1-1.4h-5.3l-0.4,1.4h-1.4v5.6H2246.6z"/>
		<path id="Path_3066" class="st2" d="M1514.9,2540.7v2.8l-8.4,0v24.2h3.5l0.7,25h-2.4l-0.5,1.4h18.6l-0.3-1.4h-1.4v-25.3h2.8v-23.8
			l-7-0.1l-0.1-2.8h1.8v-5.6h-1.5l-0.1-1.4h-5.3l-0.4,1.4h-1.4v5.6L1514.9,2540.7z"/>
		<path id="Path_3067" class="st2" d="M1554.2,2539.2v2.8l-8.4,0v24.2h3.5l0.7,25h-2.4l-0.5,1.4h18.6l-0.3-1.4h-1.4v-25.3h2.8v-23.8
			l-7-0.1l-0.1-2.8h1.8v-5.6h-1.5l-0.1-1.4h-5.3l-0.4,1.4h-1.4v5.6L1554.2,2539.2z"/>
		<path id="Path_3068" class="st2" d="M1592.6,2539v2.8l-8.4,0v24.2h3.5l0.7,25h-2.4l-0.5,1.4h18.6l-0.3-1.4h-1.4v-25.3h2.8v-23.8
			l-7-0.1l-0.1-2.8h1.8v-5.6h-1.5l-0.1-1.4h-5.3l-0.4,1.4h-1.4v5.6H1592.6z"/>
		<path id="Path_3069" class="st2" d="M1631,2539.1v2.8l-8.4,0v24.2h3.5l0.7,25h-2.4l-0.5,1.4h18.6l-0.3-1.4h-1.4v-25.3h2.8V2542
			l-7-0.1l-0.1-2.8h1.8v-5.6h-1.5l-0.1-1.4h-5.3l-0.4,1.4h-1.4v5.6L1631,2539.1z"/>
		<path id="Path_3070" class="st2" d="M1669.4,2539.1v2.8l-8.4,0v24.2h3.5l0.7,25h-2.4l-0.5,1.4h18.6l-0.3-1.4h-1.4v-25.3h2.8V2542
			l-7-0.1l-0.1-2.8h1.8v-5.6h-1.5l-0.1-1.4h-5.3l-0.4,1.4h-1.4v5.6L1669.4,2539.1z"/>
		<path id="Path_3071" class="st2" d="M1707.8,2539.1v2.8l-8.4,0v24.2h3.5l0.7,25h-2.4l-0.5,1.4h18.6l-0.3-1.4h-1.4v-25.3h2.8V2542
			l-7-0.1l-0.1-2.8h1.8v-5.6h-1.5l-0.1-1.4h-5.3l-0.4,1.4h-1.4v5.6H1707.8z"/>
		<path id="Path_3072" class="st2" d="M1746.2,2539.1v2.8l-8.4,0v24.2h3.5l0.7,25h-2.4l-0.5,1.4h18.6l-0.3-1.4h-1.4v-25.3h2.8V2542
			l-7-0.1l-0.1-2.8h1.8v-5.6h-1.5l-0.1-1.4h-5.3l-0.4,1.4h-1.4v5.6H1746.2z"/>
		<path id="Path_3073" class="st2" d="M1784.6,2539.1v2.8l-8.4,0v24.2h3.5l0.7,25h-2.4l-0.5,1.4h18.6l-0.3-1.4h-1.4v-25.3h2.8V2542
			l-7-0.1l-0.1-2.8h1.8v-5.6h-1.5l-0.1-1.4h-5.3l-0.4,1.4h-1.4v5.6H1784.6z"/>
		<path id="Path_3074" class="st2" d="M1823,2539.1v2.8l-8.4,0v24.2h3.5l0.7,25h-2.4l-0.5,1.4h18.6l-0.3-1.4h-1.4v-25.3h2.8V2542
			l-7-0.1l-0.1-2.8h1.8v-5.6h-1.5l-0.1-1.4h-5.3l-0.4,1.4h-1.4v5.6L1823,2539.1z"/>
		<path id="Path_3075" class="st2" d="M1861.4,2539v2.8l-8.4,0v24.2h3.5l0.7,25h-2.4l-0.5,1.4h18.6l-0.3-1.4h-1.4v-25.3h2.8v-23.8
			l-7-0.1l-0.1-2.8h1.8v-5.6h-1.5l-0.1-1.4h-5.3l-0.4,1.4h-1.4v5.6H1861.4z"/>
		<path id="Path_3076" class="st2" d="M1901,2538.8v2.8l-8.4,0v24.2h3.5l0.7,25h-2.4l-0.5,1.4h18.6l-0.3-1.4h-1.4v-25.3h2.8v-23.8
			l-7-0.1l-0.1-2.8h1.8v-5.6h-1.5l-0.1-1.4h-5.3l-0.4,1.4h-1.4v5.6H1901z"/>
		<path id="Path_3077" class="st2" d="M1939.4,2538.7v2.8l-8.4,0v24.2h3.5l0.7,25h-2.4l-0.5,1.4h18.6l-0.3-1.4h-1.4v-25.3h2.8v-23.8
			l-7-0.1l-0.1-2.8h1.8v-5.6h-1.5l-0.1-1.4h-5.3l-0.4,1.4h-1.4v5.6H1939.4z"/>
		<path id="Path_3078" class="st2" d="M1977.8,2538.6v2.8l-8.4,0v24.2h3.5l0.7,25h-2.4l-0.5,1.4h18.6l-0.3-1.4h-1.4v-25.3h2.8v-23.8
			l-7-0.1l-0.1-2.8h1.8v-5.6h-1.5l-0.1-1.4h-5.3l-0.4,1.4h-1.4v5.6L1977.8,2538.6z"/>
		<path id="Path_3079" class="st2" d="M2016.2,2538.6v2.8l-8.4,0v24.2h3.5l0.7,25h-2.4l-0.5,1.4h18.6l-0.3-1.4h-1.4v-25.3h2.8v-23.8
			l-7-0.1l-0.1-2.8h1.8v-5.6h-1.5l-0.1-1.4h-5.3l-0.4,1.4h-1.4v5.6H2016.2z"/>
		<path id="Path_3080" class="st2" d="M2054.6,2538.7v2.8l-8.4,0v24.2h3.5l0.7,25h-2.4l-0.5,1.4h18.6l-0.3-1.4h-1.4v-25.3h2.8v-23.8
			l-7-0.1l-0.1-2.8h1.8v-5.6h-1.5l-0.1-1.4h-5.3l-0.4,1.4h-1.4v5.6L2054.6,2538.7z"/>
		<path id="Path_3081" class="st2" d="M2093,2538.7v2.8l-8.4,0v24.2h3.5l0.7,25h-2.4l-0.5,1.4h18.6l-0.3-1.4h-1.4v-25.3h2.8v-23.8
			l-7-0.1l-0.1-2.8h1.8v-5.6h-1.5l-0.1-1.4h-5.3l-0.4,1.4h-1.4v5.6L2093,2538.7z"/>
		<path id="Path_3082" class="st2" d="M2131.4,2538.7v2.8l-8.4,0v24.2h3.5l0.7,25h-2.4l-0.5,1.4h18.6l-0.3-1.4h-1.4v-25.3h2.8v-23.8
			l-7-0.1l-0.1-2.8h1.8v-5.6h-1.5l-0.1-1.4h-5.3l-0.4,1.4h-1.4v5.6L2131.4,2538.7z"/>
		<path id="Path_3083" class="st2" d="M2169.8,2538.7v2.8l-8.4,0v24.2h3.5l0.7,25h-2.4l-0.5,1.4h18.6l-0.3-1.4h-1.4v-25.3h2.8v-23.8
			l-7-0.1l-0.1-2.8h1.8v-5.6h-1.5l-0.1-1.4h-5.3l-0.4,1.4h-1.4v5.6L2169.8,2538.7z"/>
		<path id="Path_3084" class="st2" d="M2208.2,2538.7v2.8l-8.4,0v24.2h3.5l0.7,25h-2.4l-0.5,1.4h18.6l-0.3-1.4h-1.4v-25.3h2.8v-23.8
			l-7-0.1l-0.1-2.8h1.8v-5.6h-1.5l-0.1-1.4h-5.3l-0.4,1.4h-1.4v5.6H2208.2z"/>
		<path id="Path_3085" class="st2" d="M2246.6,2538.6v2.8l-8.4,0v24.2h3.5l0.7,25h-2.4l-0.5,1.4h18.6l-0.3-1.4h-1.4v-25.3h2.8v-23.8
			l-7-0.1l-0.1-2.8h1.8v-5.6h-1.5l-0.1-1.4h-5.3l-0.4,1.4h-1.4v5.6H2246.6z"/>
		<path id="Path_3086" class="st2" d="M1514.9,2757.7v2.8l-8.4,0v24.2h3.5l0.7,25h-2.4l-0.5,1.4h18.6l-0.3-1.4h-1.4v-25.3h2.8v-23.8
			l-7-0.1l-0.1-2.8h1.8v-5.6h-1.5l-0.1-1.4h-5.3l-0.4,1.4h-1.4v5.6L1514.9,2757.7z"/>
		<path id="Path_3087" class="st2" d="M1553.7,2757v2.8l-8.4,0v24.2h3.5l0.7,25h-2.4l-0.5,1.4h18.6l-0.3-1.4h-1.4v-25.3h2.8v-23.8
			l-7-0.1l-0.1-2.8h1.8v-5.6h-1.5l-0.1-1.4h-5.3l-0.4,1.4h-1.4v5.6L1553.7,2757z"/>
		<path id="Path_3088" class="st2" d="M1592.1,2756.9v2.8l-8.4,0v24.2h3.5l0.7,25h-2.4l-0.5,1.4h18.6l-0.3-1.4h-1.4v-25.3h2.8v-23.8
			l-7-0.1l-0.1-2.8h1.8v-5.6h-1.5l-0.1-1.4h-5.3l-0.4,1.4h-1.4v5.6H1592.1z"/>
		<path id="Path_3089" class="st2" d="M1630.5,2756.9v2.8l-8.4,0v24.2h3.5l0.7,25h-2.4l-0.5,1.4h18.6l-0.3-1.4h-1.4v-25.3h2.8v-23.8
			l-7-0.1l-0.1-2.8h1.8v-5.6h-1.5l-0.1-1.4h-5.3l-0.4,1.4h-1.4v5.6L1630.5,2756.9z"/>
		<path id="Path_3090" class="st2" d="M1668.9,2756.9v2.8l-8.4,0v24.2h3.5l0.7,25h-2.4l-0.5,1.4h18.6l-0.3-1.4h-1.4v-25.3h2.8v-23.8
			l-7-0.1l-0.1-2.8h1.8v-5.6h-1.5l-0.1-1.4h-5.3l-0.4,1.4h-1.4v5.6H1668.9z"/>
		<path id="Path_3091" class="st2" d="M1515.4,2882.6l-0.4,1.4h-1.4v5.6h1.4v2.8l-8.4,0v24.2h3.5l0.7,25h-2.4l-0.5,1.4h11.1v-60.5
			L1515.4,2882.6z"/>
		<path id="Path_3092" class="st2" d="M1515.4,3013.6l-0.4,1.4h-1.4v5.6h1.4v2.8l-8.4,0v24.2h3.5l0.7,25h-2.4l-0.5,1.4h11.1v-60.5
			L1515.4,3013.6z"/>
		<path id="Path_3093" class="st2" d="M1555.9,3146.2l-0.4,1.4h-1.4v5.6h1.4v2.8l-8.4,0v24.2h3.5l0.7,25h-2.4l-0.5,1.4h11.1v-60.5
			L1555.9,3146.2z"/>
		<path id="Path_3094" class="st2" d="M1514.9,3152.7v2.8l-8.4,0v24.2h3.5l0.7,25h-2.4l-0.5,1.4h18.6l-0.3-1.4h-1.4v-25.3h2.8v-23.8
			l-7-0.1l-0.1-2.8h1.8v-5.6h-1.5l-0.1-1.4h-5.3l-0.4,1.4h-1.4v5.6H1514.9z"/>
		<path id="Path_3095" class="st2" d="M1514.9,3283.7v2.8l-8.4,0v24.2h3.5l0.7,25h-2.4l-0.5,1.4h18.6l-0.3-1.4h-1.4v-25.3h2.8v-23.8
			l-7-0.1l-0.1-2.8h1.8v-5.6h-1.5l-0.1-1.4h-5.3l-0.4,1.4h-1.4v5.6H1514.9z"/>
		<path id="Path_3096" class="st2" d="M1553.7,3283.1v2.8l-8.4,0v24.2h3.5l0.7,25h-2.4l-0.5,1.4h18.6l-0.3-1.4h-1.4v-25.3h2.8V3286
			l-7-0.1l-0.1-2.8h1.8v-5.6h-1.5l-0.1-1.4h-5.3l-0.4,1.4h-1.4v5.6H1553.7z"/>
		<path id="Path_3097" class="st2" d="M1592.1,3283v2.8l-8.4,0v24.2h3.5l0.7,25h-2.4l-0.5,1.4h18.6l-0.3-1.4h-1.4v-25.3h2.8v-23.8
			l-7-0.1l-0.1-2.8h1.8v-5.6h-1.5l-0.1-1.4h-5.3l-0.4,1.4h-1.4v5.6L1592.1,3283z"/>
		<path id="Path_3098" class="st2" d="M1630.5,3283v2.8l-8.4,0v24.2h3.5l0.7,25h-2.4l-0.5,1.4h18.6l-0.3-1.4h-1.4v-25.3h2.8v-23.8
			l-7-0.1l-0.1-2.8h1.8v-5.6h-1.5l-0.1-1.4h-5.3l-0.4,1.4h-1.4v5.6L1630.5,3283z"/>
		<path id="Path_3099" class="st2" d="M1668.9,3283.1v2.8l-8.4,0v24.2h3.5l0.7,25h-2.4l-0.5,1.4h18.6l-0.3-1.4h-1.4v-25.3h2.8V3286
			l-7-0.1l-0.1-2.8h1.8v-5.6h-1.5l-0.1-1.4h-5.3l-0.4,1.4h-1.4v5.6H1668.9z"/>
		<path id="Path_3100" class="st2" d="M1707.3,3283.1v2.8l-8.4,0v24.2h3.5l0.7,25h-2.4l-0.5,1.4h18.6l-0.3-1.4h-1.4v-25.3h2.8V3286
			l-7-0.1l-0.1-2.8h1.8v-5.6h-1.5l-0.1-1.4h-5.3l-0.4,1.4h-1.4v5.6H1707.3z"/>
		<path id="Path_3101" class="st2" d="M1745.7,3283.1v2.8l-8.4,0v24.2h3.5l0.7,25h-2.4l-0.5,1.4h18.6l-0.3-1.4h-1.4v-25.3h2.8V3286
			l-7-0.1l-0.1-2.8h1.8v-5.6h-1.5l-0.1-1.4h-5.3l-0.4,1.4h-1.4v5.6L1745.7,3283.1z"/>
		<path id="Path_3102" class="st2" d="M1784.1,3283.1v2.8l-8.4,0v24.2h3.5l0.7,25h-2.4l-0.5,1.4h18.6l-0.3-1.4h-1.4v-25.3h2.8V3286
			l-7-0.1l-0.1-2.8h1.8v-5.6h-1.5l-0.1-1.4h-5.3l-0.4,1.4h-1.4v5.6H1784.1z"/>
		<path id="Path_3103" class="st2" d="M1822.5,3283.1v2.8l-8.4,0v24.2h3.5l0.7,25h-2.4l-0.5,1.4h18.6l-0.3-1.4h-1.4v-25.3h2.8V3286
			l-7-0.1l-0.1-2.8h1.8v-5.6h-1.5l-0.1-1.4h-5.3l-0.4,1.4h-1.4v5.6H1822.5z"/>
		<path id="Path_3104" class="st2" d="M1860.9,3283v2.8l-8.4,0v24.2h3.5l0.7,25h-2.4l-0.5,1.4h18.6l-0.3-1.4h-1.4v-25.3h2.8v-23.8
			l-7-0.1l-0.1-2.8h1.8v-5.6h-1.5l-0.1-1.4h-5.3l-0.4,1.4h-1.4v5.6L1860.9,3283z"/>
		<path id="Path_3105" class="st2" d="M1900.5,3282.8v2.8l-8.4,0v24.2h3.5l0.7,25h-2.4l-0.5,1.4h18.6l-0.3-1.4h-1.4v-25.3h2.8v-23.8
			l-7-0.1l-0.1-2.8h1.8v-5.6h-1.5l-0.1-1.4h-5.3l-0.4,1.4h-1.4v5.6L1900.5,3282.8z"/>
		<path id="Path_3106" class="st2" d="M1938.9,3282.7v2.8l-8.4,0v24.2h3.5l0.7,25h-2.4l-0.5,1.4h18.6l-0.3-1.4h-1.4v-25.3h2.8v-23.8
			l-7-0.1l-0.1-2.8h1.8v-5.6h-1.5l-0.1-1.4h-5.3l-0.4,1.4h-1.4v5.6L1938.9,3282.7z"/>
		<path id="Path_3107" class="st2" d="M1977.3,3282.6v2.8l-8.4,0v24.2h3.5l0.7,25h-2.4l-0.5,1.4h18.6l-0.3-1.4h-1.4v-25.3h2.8v-23.8
			l-7-0.1l-0.1-2.8h1.8v-5.6h-1.5l-0.1-1.4h-5.3l-0.4,1.4h-1.4v5.6H1977.3z"/>
		<path id="Path_3108" class="st2" d="M2015.7,3282.6v2.8l-8.4,0v24.2h3.5l0.7,25h-2.4l-0.5,1.4h18.6l-0.3-1.4h-1.4v-25.3h2.8v-23.8
			l-7-0.1l-0.1-2.8h1.8v-5.6h-1.5l-0.1-1.4h-5.3l-0.4,1.4h-1.4v5.6H2015.7z"/>
		<path id="Path_3109" class="st2" d="M2054.1,3282.7v2.8l-8.4,0v24.2h3.5l0.7,25h-2.4l-0.5,1.4h18.6l-0.3-1.4h-1.4v-25.3h2.8v-23.8
			l-7-0.1l-0.1-2.8h1.8v-5.6h-1.5l-0.1-1.4h-5.3l-0.4,1.4h-1.4v5.6L2054.1,3282.7z"/>
	</g>
	<text transform="matrix(1 0 0 1 211.1083 1740.0002)" class="st3 st4 st5">1550</text>
	<text transform="matrix(1 0 0 1 211.1083 2211)" class="st3 st4 st5">1750</text>
	<text transform="matrix(1 0 0 1 211.1083 2343)" class="st3 st4 st5">1800</text>
	<text transform="matrix(1 0 0 1 211.1083 2475)" class="st3 st4 st5">1900</text>
	<text transform="matrix(1 0 0 1 211.1083 2605)" class="st3 st4 st5">1950</text>
	<text transform="matrix(1 0 0 1 211.1083 2737)" class="st3 st4 st5">2020</text>
	<text transform="matrix(1 0 0 1 211.1083 2878.551)" class="st6 st7">Each symbol represents 200 people which belonged to the Catawba tribe.</text>
	<g id="Group_393" transform="translate(-1198.393 -576.337)">
		<path id="Path_3110" class="st2" d="M1514.9,2669.4v2.8l-8.4,0v24.2h3.5l0.7,25h-2.4l-0.5,1.4h18.6l-0.3-1.4h-1.4v-25.3h2.8v-23.8
			l-7-0.1l-0.1-2.8h1.8v-5.6h-1.5l-0.1-1.4h-5.3l-0.4,1.4h-1.4v5.6L1514.9,2669.4z"/>
		<path id="Path_3111" class="st2" d="M1553.7,2669v2.8l-8.4,0v24.2h3.5l0.7,25h-2.4l-0.5,1.4h18.6l-0.3-1.4h-1.4v-25.3h2.8v-23.8
			l-7-0.1l-0.1-2.8h1.8v-5.6h-1.5l-0.1-1.4h-5.3l-0.4,1.4h-1.4v5.6L1553.7,2669z"/>
		<path id="Path_3112" class="st2" d="M1592.1,2668.9v2.8l-8.4,0v24.2h3.5l0.7,25h-2.4l-0.5,1.4h18.6l-0.3-1.4h-1.4v-25.3h2.8v-23.8
			l-7-0.1l-0.1-2.8h1.8v-5.6h-1.5l-0.1-1.4h-5.3l-0.4,1.4h-1.4v5.6H1592.1z"/>
		<path id="Path_3113" class="st2" d="M1630.5,2668.9v2.8l-8.4,0v24.2h3.5l0.7,25h-2.4l-0.5,1.4h18.6l-0.3-1.4h-1.4v-25.3h2.8v-23.8
			l-7-0.1l-0.1-2.8h1.8v-5.6h-1.5l-0.1-1.4h-5.3l-0.4,1.4h-1.4v5.6L1630.5,2668.9z"/>
		<path id="Path_3114" class="st2" d="M1668.9,2668.9v2.8l-8.4,0v24.2h3.5l0.7,25h-2.4l-0.5,1.4h18.6l-0.3-1.4h-1.4v-25.3h2.8v-23.8
			l-7-0.1l-0.1-2.8h1.8v-5.6h-1.5l-0.1-1.4h-5.3l-0.4,1.4h-1.4v5.6H1668.9z"/>
	</g>
</g>
</svg>
