<?xml version="1.0" encoding="utf-8"?>
<!-- Generator: Adobe Illustrator 26.3.1, SVG Export Plug-In . SVG Version: 6.00 Build 0)  -->
<svg version="1.1" id="Layer_1" xmlns="http://www.w3.org/2000/svg" xmlns:xlink="http://www.w3.org/1999/xlink" x="0px" y="0px"
	 viewBox="0 0 595.3 595.3" style="enable-background:new 0 0 595.3 595.3;" xml:space="preserve">
<style type="text/css">
	.st0{fill:none;stroke:#020203;stroke-miterlimit:10;}
	.st1{fill:#82A4C0;}
	.st2{fill:#82A4C0;stroke:#020203;stroke-miterlimit:10;}
	.st3{enable-background:new    ;}
	.st4{fill:#020203;}
</style>
<g id="Group_391" transform="translate(0.502 1.131)">
	<g id="Bull_boat_00000137831925508667210050000003320286023436550309_" transform="translate(0)">
		<path id="Path_3003" class="st0" d="M407.8,137.3c17.5,0.8,31.8,13.9,41.8,28.1c4.7,6.8,8.9,13.9,13.2,21
			c3.7,5.8,8.1,8.1,11.8,13.1c4.7,6.2-2.4,5.8-5.4,9.5c-4.6,5.9-3.6,15.4-0.5,21.7c3.2,6.8,8.4,12.5,11.3,19.4
			c0.9,2,1.4,4.7-0.1,6.4c-1,1-2.5,1.3-3.9,1.4c-11.3,1.5-12.1-1.7-18.7-10c-4.3-5.3-12.1-5.8-18.9-5.9c-4-0.1-8.2,0.3-10.2,3.8
			c8.1,2.5,15.7,0.9,23.9,5.7c8,4.6,14.7,11.6,20.3,19c7.5,9.8,14.5,21.2,14.3,33.6c-0.1,12.4-10.1,25.4-22.5,24.3l8,3.1
			c-2.2,5,0.1,10.8,5.1,13c5,2.2,10.8-0.1,13-5.1c0.2-0.5,0.4-1.1,0.5-1.6c0.6-2.5,0.3-5.5,2.2-7.3c1.6-1.6,4.1-1.7,6.4-1.7
			c13.9,0.1,28,1.4,40.8,6.8c16.9,7.1,24.5,19.9,32.6,35.2c4.7,9,4.8,19.8,0.3,29c-4.3,8.5-12.4,14.9-15.4,23.9
			c-1.2,3.6-1.6,7.4-3.4,10.8c-1.9,3.6-26.9,14.5-28,8.2c1.4,7.5,1.4,15.3-0.1,22.8c0.8-4-21.1-2.7-22.9-2.7c-1.7,0-1.2,16.8-2,19
			c-2.4,5.7-10.1,10.9-16.3,10.9c0.5,0-2.7-4.4-3.3-4.8c-1.8-1.2-5.8-0.2-8-0.2c-0.2,14.2,4.3,14,17.7,17.2
			c12.2,3,24.6,5.1,37.2,6.1c2.9,7,4.1,14.5,3.3,22.1l-30.4,7.9c2.7,4.6-1.3,10.7-6.2,12.6c-5,1.9-10.4,1.3-15.7,1.6
			c-7.6,0.5-14.9,3.1-21.1,7.6c-2.9,2-5.8,4.6-9.4,4.8c-3.1,0.1-6-1.7-8.7-3.3c-19.4-11.5-42.6-15.2-64.5-10.1c1.9-2.7,0-6.9-3-8.4
			c-8.4-4.2-17.1,3-25.3-1.4c-3.8-2-6.6-5.3-9.5-8.4c-1.1-1.3-2.8-2.6-4.3-1.8c-1.5,5.1,1.8,11.6-2,15.2c-6.6,6-32.1,0.5-40.9,1.4
			c0,2.5,0.4,5,1.1,7.3c-12.5-0.4-24.8-3.4-36.1-8.9c-6-2.9-11.8-6.6-18.2-8.6c-13.9-4.4-29-0.8-43.2,2.8
			c-9.8,9.8-3.1,30.6-15.3,37.3c-11.3,6.2-27.4-6.2-32.4-15.7c-1.5-2.8-3-6.1-6-7c-8.6-2.4-15.2,10.6-25.7,3.2
			c-2-1.4-3.9-3.6-6.4-3.9c-8.1-1.3-8.6,14.3-16.6,16.3c-2.8,0.6-5.8-0.6-8.5,0.2c-8.2,2.4-4.8,18.2-13,20.4
			c-8.8,2.2-11.3-15-20.5-15.6c-5.4-0.3-9.2,7.1-14.4,5.7c-7.3-1.9,0.1-9.4,4.2-11.4c5.9-3,12.7-3.2,19-5.5
			c18.2-6.8,26-29.2,43.1-38.6c16.3-8.8,25.1-19.7,27.9-39.2c3.1,6.1,11.7,8.7,17.8,5.3c7.9-4.5,3.1-12.3,7.4-17.6
			c3.7-4.4,18.3-7.2,23.5-7c8,0.4,15.1,5.2,22.4,8.3c6.6,2.8,13.7,4.3,20.9,4.5c1.9,0.1,3.9-0.1,5.6-0.8c3.6-1.5,5.4-5.4,7.4-8.7
			c4-6.4,9.3-10.7,15.5-14.7c7.3-4.7,9.6-8.3,14-16.5c5.2-9.6,9-22.5,1.4-30.3c-4.1-4.2-10.7-5.5-14.5-9.9
			c-11.7-13.7,11.3-25.7,6.2-37.6c-0.9-2-3.4-2.6-5.2-4c-5.9-4.8,3.1-12.2,5-16.6c1.8-4.5,1.5-6.7,4.7-10.8
			c2.5-3.3,7.3-5.2,6.5-10.2c-1.1-6.7-7.9-8.9-4.5-15.3c1.2-2.3,16.6-10.1,17.5-6.7c-1.9-8,0.2-21.2-2.8-28.1
			c-2.2-4.7-8.9-5.4-11-11.8c-1.5-4.8,0-10.2,3.8-13.7c2.6-2.3,6.4-4,6.8-7.4c0.3-2.2-0.9-4.2-1.2-6.2c-0.8-6,5.7-10.6,7.4-16.4
			c0.9-2.8,0.5-5.7,1.1-8.5c0.5-2.8,2.3-5.8,5.2-6.2c1.2-0.2,2.4,0.1,3.4-0.4c0.8-0.5,1.4-1.3,1.7-2.2l9.9-19.4
			c1.4-2.7,2.4-6.6-0.2-8.1c-1.8-1.1-4.2,0.1-5.5,1.7s-2.2,3.7-3.7,5.2c-3,3.1-8,3.2-11.1,0.2c-2.4-2.3-3-5.7-1.7-8.6
			c0.8-1.8,2.2-3.6,1.5-5.4c-1.1-2.8-5.2-1.7-8.1-1.8c-4-0.3-7.1-3.6-7.3-7.5c0-1.7,0.5-3.6,0.4-5.3c-0.4-6.4-9.3-9.5-10-15.8
			c-0.1-2,0.2-4,1-5.9c2.3-7.2,4.8-14.9,10.8-19.6c1.5-1.2,3.3-2.2,4.5-3.7c2.2-2.5,2.6-6,4.3-8.7c3.1-5.1,9.6-6.7,15.3-8.4
			c14.3-4.4,27.4-12.1,38.1-22.5c4-3.9,7.6-8.1,12.5-10.8c3.8-2.2,8.1-3.2,12.5-3.1c2.2,0,4.5,0.4,6.6-0.4c3.3-1.4,4.8-5.5,4.5-9.2
			c-0.3-3.7-2.2-7-3.6-10.3c-0.5-1-0.6-2.2-0.5-3.2c0.3-1.1,1-1.9,1.7-2.7l15.8-16.4c0.6,7.3,4.8,14.7,11.7,17.3
			c1.7,0.6,3.6,1.1,4.7,2.5c1,1.3,1.6,2.9,1.8,4.5c2,10.2,3.3,20.6,2.7,31c-0.4,6-1.5,12.1-1.3,18.1
			C403.4,99.8,411.3,120.9,407.8,137.3z"/>
		<path id="Path_3004" class="st0" d="M150.8,300c2,1.9,11.4-0.2,13.7-0.4c7.2-0.6,14.9-13.8,21.3-11.7c1.7,0.5,5.2,6.8,2.9,6.9
			c-10.3,0.2-3.6,13.6-6.2,13.9c2.5-0.3,5.1,0.8,6.6,2.8c2.7,1.5-0.2,5.7-3.1,6.6c-2.9,1-7,2-6.8,5.2c0.2,4.1,7.3,3.8,9.3,7.3
			c2.2,4.1-3.7,7.4-7.2,10.4c-4.2,3.4-5.3,9.2-9,12.8c-4.2,4.1-12.1,6.9-17.5,8.8c-5.8,2-11.8,3.4-17.3,6.2c-5,2.5-9.3,5.8-14.1,8.4
			c-9.4,5-22.4,6.2-32.7,9.7c-1.4,0.4-2.3,0.9-2.8,2.2c3.1,1.9,7.3,2.4,10.6,4.6c3.1,2.2,5.3,6.1,4.2,9.8c-0.6,2.3-2.4,4-3,6.2
			c-0.9,3.1,0.9,6.4,2.8,8.9c1.6,2.2,3.7,4.3,6.2,5.2c4.6,1.5,17.2-4,22-5.8c8-2.9,16.9-8.4,25.4-4.2l-4,8.4l16.2,3.9
			c1.1,2.4-0.8,5.2-3.1,6.2c-2.4,1.1-5.1,0.9-7.6,0.5c0,4.6,5.7,7.2,10.3,6.9c4.6-0.3,9.5-1.9,13.9-0.4c8,2.7,9.5,13.5,15.6,19.4
			c5.7,5.5,14.7,5.7,22.3,3.8c7.6-2,14.5-6,22.2-8.2c4.7-1.4,9.9-2,14-4.8c7.6-5.2,9.2-15.8,8.6-25c0-2.3-0.4-4.5-1.4-6.6
			c-1.6-3-4.7-4.7-7.4-6.8c-10.4-8.3-13.2-24.8-6.1-36.1c1.2-1.8,2.5-3.6,2.9-5.7c1.1-6.6-6.7-9.5-5.7-16.7c1-6.6,3.8-12.7,8.2-17.7
			c3-3.4,7.3-4.8,7.4-10.2c0.1-5.8-7.3-9.7-3.9-16.2c0.8-1.2,1.7-2.4,2.8-3.2c8.9-7.8,18.9-8.2,16.3-22.2
			c-1.9-10.1-9.9-18.9-16.8-26c-2.2-2.2-4.3-4.4-7.2-5.3c-4-1.3-8.2,0.1-12.3,1.1c-10.6,2.6-20.8,1.9-30.2-4.3
			c-8-5.4-14.7-14.2-24.2-14.5c-4.1-0.1-8.5,1.7-10.4,5.4c-0.9,1.7-1.3,3.7-1.1,5.6c0.3,4,2.6,7.4,5.9,9.5
			c7.2,4.2,12.4,6.6,6.6,13.7c-4.6,5.7-14.4,10.6-21.2,12.1c-4,0.9-8.1,1.8-11.3,4.3C152,286.9,147.4,296.6,150.8,300z"/>
	</g>
	<g id="skog_00000003072996256260768550000005001968854912203139_" transform="translate(263.964 256.89)">
		<g id="Group_13_00000015329078696107377090000005922327459691506618_">
			<path id="Path_62_00000132806377734303786760000009537601370079506850_" class="st1" d="M195.3,232.8c0.5-0.5,0.1-0.9-0.4-1.1
				c1.5-0.3-0.5-0.9-1.3-0.5c-0.6,0.1-1.6-0.1-1.7-0.8c-0.9,1.3-0.9-0.6-1.8-1c-1.5-0.9-1.6,1.3-2.9,0.9c-1,1-2.4-0.3-3.4,0.9
				c-1.4,0.5,0.1,1.6-0.2,2.4c-1.3-1.5-1.6,0-1.3,1.4c0.3,2.5-1.5,1.9-0.5-0.2c-1.8,0.4-0.4-1.3-0.8-2.3c-0.1-0.5-0.5-0.9-1.1-0.9
				c0.5-0.6,1.4-0.6,2-0.1c0.2,0.1,0.3,0.3,0.4,0.5c0.6-0.2-0.6-3.1,1.7-1.9c-1.5-1.6,2.3,0.2,3.6-2.4c-1.8-1.9-3,0.9-4.1-0.8
				c0.3-0.2,1.8-0.5,0.6-1c-1.7,0.4-1.2-5.9-0.2-3.6c1.6-1.1,0.2-3.1-0.5-4.4c-1.1-2.2-0.8-5.4-3-6.8c-1.2-0.8-1.8,0.4-1.8,1.5
				c-0.1,0.5-0.6,1.3-1.2,1c0.9-1.3,0.6-3-0.5-4.1c-3.6,2.4-1.3-2.2-2.9-1.7c0.6-1.2,0.3-2.7-0.9-3.4c-0.1-0.1-0.3-0.1-0.4-0.2
				c-1.3,0-1.7-1-1.9-2c-1.7-1.3-2.2-3.7-3.7-5.1c-1-0.6-1.7-1.6-2-2.8c-1.1-0.5-2.9-0.9-2.8-2.3c0.4-3-3.2-6.4-2.9-9.3
				c1.1-1,1-1.9,0.3-3.1c-0.4-2.6,3.2-7-1.3-7.5c-1.7-0.8-2-3.4-3.9-3.7c-0.9,0.2-1.6-0.2-2-1c-4.6-6-4.8-12.3-12.9-14.8
				c-5.1-2.5,2.2-1.1,3,0.9c1.5,0.4,3.2,0.6,4.2,2c3.1,4.2,3.1,10.2,8.8,12.3c3.3,4.7,8.2,3.2,5.3,10.2c0.2,1.8,0.8,3.4-0.1,5.1
				c6.5,2.6,0,7.2,5.7,10.1c1.1,0.3,0.6-1.2,1.3-1.2c0.6,0.6,0.1,0.8-0.1,1.4c1,0,1.5,1.1,1.8,1.9c0.8-1,1.4,0.8,0.3,1.2l0.2,0.5
				c-1.2-0.1,0.9,1.9,0.3,3c0,1.8,2.9,2.3,3.9,3.7c1.8,1.6,1.4,3.9,1.4,5.8c1-0.1,1.9-1.3,2.5,0.2c1.5,1.5,0.1-0.9-0.1-1.7
				c-0.5-1.2-1.7-2.2-2-3.4c1.3-0.2,3.7-0.8,4.3,0.5c-1.5,1.9,1,1.7-0.2,4.1c3.3,2.9,4.4,7.6,6,11.6c0,1.1-0.9,1.7-1.4,2.4
				c0.5,3.6,5.1,3.6,7.4,5.4c1.1-0.1,1.5,1.2,2.7,0.9C198.7,229.3,200.5,232.7,195.3,232.8z"/>
			<path id="Path_63_00000168102270896978676390000005372282668897094017_" class="st1" d="M142.1,153.8c-18.3-7.8-1-9.3-7-17.5
				c-5.7,0.3-8-7.2-10.2-11.4c0.4-2.6,1.1-6-1.5-7.5c-1.2-0.3-2-1.3-2.3-2.5c-2.4-3-5.1,1.7-7.1,2.9c-5.5,0.8-13.4,7.2-17.3,0.4
				c-1.1-1.2-2.7-1.7-4.3-1.3c-9.5,4.4-5.8-2.4-12.6-4.3c0.1,1.8-1.5,0.6-2.5,0.5c1.4,2.7,0.3,1-0.5,2.8c-1.1-1.2-3,2.3-4,0.6
				c0.2-1.1-1.6-0.9-2.2-0.4c-0.5,0.3-0.6,1-0.4,1.4c0,0,0,0.1,0.1,0.1c-0.6,0.5-0.9,1.6-0.4,2.4c-0.4,0.5-2,0.2-2.6,0.2
				c2,2.3-3.3-0.8-5.9,1.3c-2.7,0.9-1-2.4,1-1.5c2.2,0.2,4.3-1,6.1-1.8c0.6-1.6-1.4-1.2-2.2-0.3l-0.6-0.6c-1.8,1.5-0.6-1.4-2.4-1.5
				c-1.7,0.1-2.4,2.5-4,3c-0.2-0.3-0.3-0.8-0.2-1.2c-1.1,0.9-1.9-1.2-3.1-0.1c-2.9-0.5-1-1.1,0.8-1.6c0.8,0.9,2.8,0.9,1.3-0.4
				c0.9,1,2.9,0.8,2.7-0.6c1,0.8,1.4-0.9,0.9-1.5c3.3,4.1,4.4-0.4,3.6,2.8c1.4,0,2.2,1,1.9-1c0.3,0.3,1,0.4,1.3,0l0,0
				c-0.3-0.8-1.2-0.9-0.3-1.6c0.2-1.1-1.5-0.3-1.9-0.9l0.6-0.6c-0.8-0.4-1.5-1.4-2,0c-1.1-1.1,1.1-1-0.9-1.7l-0.6,0.5
				c-0.2-0.8-0.9-1.2-1.6-1.1c-0.8,0.2-1.2,0.9-1.1,1.6c0,0,0,0,0,0.1c-0.3-0.4-0.3-1.1,0.1-1.5c0.1,0,0.1-0.1,0.2-0.1
				c-1.1-0.1-2.3-1.6-3.4-0.4c-0.8-1.1-1.8-1.8-3.1-2.2c1.3-1.6,2.5,0.4,4,0.8c-0.5-1.1,1-3.1-0.6-2.8c1-1.4-1.2-1.9-2.3-1.7
				c-0.5-0.2,0-1.3-0.5-1.7c-1.1,2-0.8-0.6-0.9-1.2l-1.5,0.2c0.1,2-1.1,1.3-1.1-0.2c-2.3,1.3-3-1.4-4.8,0.4c-0.2,0.4-0.8,1-1,0.5
				c0.6-1.2,3.3-3.9,3.6-1.3c1.6-3.8,1.5,1.3,5.3-0.5c0.8,1,2.2,1.2,3.2,0.4c-2.7-0.9-0.3-1.1-2.8-1.7c2.4-0.1,2.8,0,1-2.2
				c0.6,0.1,1.7,0.2,0.6-0.5c1,0.3,1.6-2.5,1.9-2.9c-1,0.4-2.7,0.9-0.9-0.4l-1.3-1.5l-1.4,0.9c1.1-1.3-1.4-1.5-2-2l-0.9,1
				c-1-1.5-1,1.4-0.6,2c-0.9,0.3-1.5,1.1-1.6,2c-0.3-0.4-1.1-0.5-1.5-0.2c-0.2,0.2-0.3,0.4-0.4,0.6c-2.9,0.3,1.4-1.7,2.2-2.8
				c0.9-1.1,1.2-4.2-1-2.5c0.1-0.6-0.2-1.4-0.8-1.7c0.6-0.2,2,0.3,1.6-0.8c-2-0.8-3.2-3.2-5.6-2.2c0.1-0.3,0.1-0.8-0.1-1.1
				c0.3-0.4,1.4-0.5,1.1,0.2c1-3.1,2,2.3,4.2,0.8c0.5-0.3,0.6-1,0.3-1.5c-0.1-0.1-0.1-0.2-0.2-0.2c1.7-1.1,4.1-2.2,0.9-3.1
				c2.2-2.3,2.2,2.4,3.2,1.3c1.7,0,1.1-2.8,2.4-3.3c-0.4-0.2,0.1-1.2-0.3-1.4c0.3-0.1,0.8-0.6,1.1-0.6c1.1,0.3-0.2,1.9,0.5,2.5
				c0.9,0.5,1.4-0.8,1.2-1.5c0.5,0.2,0.8,0.8,0.5,1.2c-0.1,0.2-0.2,0.3-0.3,0.4c1.2,0.3,2.4,1,3.3,1.7c-1.9-0.8-4-1.1-6-1
				c0.5,1.5-1.7,2,1.1,2.9c-2.2,0-4.1,0.9-5.6,2.3l0.8,0.3c-1.5,0-0.4,2.3-1,3l5.1,0.9l1.2,0.2c-0.2,1.9,4,3.2,5.2,4.3
				c-1.2-0.6-2.5,1.4-0.9,1.5c-2.2,0-0.8,1.6-2.6,1.6c0.3,0.4,0.3,1-0.1,1.3C58.8,98,58.8,98,58.7,98c1.1,3.4,1.2,1.3,3.9,0.9
				c-0.8,1.4-5.4,2.3-2.4,3.1c-0.4,0-0.8,0.3-0.8,0.8c0,0.4,0.3,0.8,0.8,0.8c0.3,0,0.6-0.2,0.8-0.5l-0.8,1.1
				c0.5,0.9,0.9,2.9,1.9,3.3c1.5,0.3,0.5-1.3,1.8-0.5c-1,1.5,0.9,2.4,1.5,0.5c-1.5-1.9,0.2-1.8,0.9,0.1c-0.5,0.3-0.8,1-0.4,1.5l0,0
				c0.4,0.8,1.4,0.9,1.5-0.1c0.3,0.3,1,0.3,1.3,0c0.3,3,3.1,0.6,0.9-0.8c1.6-0.3,0.5-1,1.6-1.9c-0.2,2,1.1,4.5-1.7,4.8
				c1.1,0.8,1,0.9,2,0.1c-1.1,1.9,0.5,3.7,2.5,4c1.1-0.8,0.3-2.4,1.8-1.3c0.8-1.3,0.3-2.9-0.9-3.8c1.8-1.7,0.4-4.8,2.3-1.1
				c-2,0,0.2,3,1.4,3c2-0.8,4.4,0.2,5.4,2.2c2.7,6.7,10.3-1.2,14,3.6c-0.1,2.6,3.9,2.6,5.7,2.4c1.7-0.9,3.4-1.5,5.4-1.7
				c1.2-1,3-1.1,4-2.2c1.4-0.8,3.2-0.6,4.4-2c2-1.6,4.3,0,5.5,1.8c2.8,1.6,3.4,4.6,2.9,7.8c0.1,4.1,2.9,7.9,5.9,10.6
				c1.1,1.5,3.1,0.4,4.2,1.8c3.4,3.9-2.4,7.9-1.9,11.7C136,150.7,139.9,151.1,142.1,153.8z"/>
			<path id="Path_64_00000115500478537572262350000001551778836012439457_" class="st1" d="M48,88.3c0.5-0.6,0.3-1.1-0.3-1
				c0.6-2.2-2.4-2.6-3.9-1.8l0.2-1.1c-1,0-1.8-0.8-1.9-1.7c1.3,0.4,2.5,1,3.6,1.5c1.2-2.4,2.3,2.7,3.9,0.8c0.5-2.6-0.3-1.4,2.4-3.6
				c-1.5-2.6-5.3-1.1-6-3.9c0-0.9,1-1.5,1.1-2.4c-0.4,0-0.8-0.3-0.8-0.8c0-0.1,0-0.2,0.1-0.3c-2.3,0.5-4.4-1.3-6.7-1.4
				c-1.9,0.3-2.9-1.1-3.9-2.5c-0.9-1-2.6-1.5-3.4-0.5c0.2-1.8-0.9-1.5-1.6-2.8c2.6-1.3-1.5-2.5-2.4-3.3c1.5,0.9,7.3,2,4.1,3.7
				c0.6,1.4,2.9,1,4.1,1.9c0.8,1.2,4.4,4.2,3.3,1.2c0.5,1.8,5.8,4,5.4,1.3c1.1,0.3,1.8,2.5,2.8,1.3c0.8,1-0.2,2.3-0.1,3.4
				c0.3,2.6,5.1,2.7,5.4,5.3c1.3-1,4.3-5,1.4-5.5l0.8-0.2c-1.6-6.8-7.3-11.6-12.2-14.9c0.5-2.5-2.3-4.6-1.7-6.7c-2.7-1-5-4.2-5.6-7
				c0.3-1.8-1.3-3.2-1.2-4.8c0.1-3.6,0.9-16.9-4.2-12.2c0-0.5-0.6-3-0.3-3.4c2.6-1.1,1.2-4.6,3-6.1c1.1,2,3.8,1.2,1.1-0.4
				c3-0.6,5.7-2.5,6.1-5.8c-1.1,0.5-2,1.3-2.9,2.3c-1-1.5-1.9,0.1-3.6-1c0.3,1.5-2.3,0.1-2.7,1c0.9,2.4-1.5,5.7-3.9,3.9
				c-0.9-1.4-3.8-2.8-2.2-4.2l-0.5-1.1c2.7,0.3,2.3-4,4.3-4.8c0.4-2-1.8-3-3-4.2c-1.9-1.8-2.9-4.7-4.4-6.9c-0.8-1.1-1.6-2.5-2.9-3
				c-0.8-0.3-3.2-0.3-1.7-1.7c0.4-0.3,1-0.5,1.6-0.5c0.3-0.1,0.8-0.1,1.1,0c0.4,0.1,0.8,0.3,1.1,0.5c0.8,0.5,3.2,1.8,3.3,2.8
				c0.1,0.6-1.7,2.3-1.8,1.8c0.6,1.4,2.7,1.7,3.2,3.1c-0.2,3.6,2.7,4,4.3,6.4c1,2.8-2.6,4.8-3.2,7.3c-1.3,4.6,4.6,6.6,4.1-0.2
				c0.8-1.7,7.6,0,3.4-2c-1.1-3.6,1.9,1.6,4.3,0l-1.1-1.6c1,0.5,2.5,1.5,2.5-0.2c-1.3,4,2.3-1.3,3.1,2.4c-0.1,1.4-3,1.6-2.7,3
				c1.9-0.2,4-0.4,5.9-0.8c0.6,2.2-2.5,1-3.4,1.1L42,19.1c-1.6-1.5-2.9,1.9-4.8,1.8c-2.4,1.7,2,0.2,1.8,2.5
				c-0.9-0.9-3.1-1.2-3.1,0.5c-2-1.7-3.2,1.7-2.2,3.4L32.5,27c-0.6-0.4-1,0.9-0.3,1.3c2,0.5,3.3,1.5,2.9,3.9
				c0,6.6-0.2,15.4,5.1,20.1c2.3,0.8,3.8,2.8,3.9,5.2c1.5,0.3-1.3,3.4,5,5.3c0.1-2.4-0.1-5.3,1.2-7.3c1.1,1.3-1.2,5-0.2,7.3l1.7-0.2
				c-0.4,0.6-1.7,0.6-1.9,1.4c-0.3,1.3,2.3,1.2,2.7,2.5c-2.9,0.2,1.2,1,2,3.8c3.2,2.7,0.3,2.7,1.8,5.2c0.5-0.8,0.2-3.8,1.9-2.7
				L57.1,74c0.5,0.5,0.4,1.4-0.1,1.9c-0.2,0.1-0.4,0.3-0.6,0.3c0.6,0.8,1.3,1,0.4,2.3c3.8,1.4-1.7-3.9,4.8,1.8
				c-1.3-0.2-4.4-0.9-5.8-1c1.1,1.6-1.7,1.7,1,3.1c-1.2-0.3-5.5,0.8-4.3,2.3c-0.8,0.4-1.6,0.9-1,1.9c-0.9,2.2,1.5,1.4,2.9,1.8
				c0.5,0.2,1.6,0,1.3-0.8c3.6,1.4,0.5,2.7-1.6,2.5c-0.6-0.3-0.8-0.6-1.4-0.5c-0.3,0.1-0.9,1.3-0.9,1c-1-1.2-0.3,1.3-0.6,2
				c-0.5-1.3-0.5-4.6-2.2-2.9C48.4,89.9,50.3,88.2,48,88.3z"/>
		</g>
	</g>
</g>
<ellipse id="Ellipse_45" class="st2" cx="281.8" cy="249.6" rx="6.1" ry="5.6"/>
<circle id="Ellipse_46" class="st2" cx="461.9" cy="486.9" r="6.1"/>
<g class="st3">
	<path class="st4" d="M126.8,211.7h2V225h7v1.9h-9V211.7z"/>
	<path class="st4" d="M142.4,211.7h2V227h-2V211.7z"/>
	<path class="st4" d="M150.5,211.7h2.4l4.5,12.4l0,0l4.6-12.4h2.3l-6,15.3h-1.9L150.5,211.7z"/>
	<path class="st4" d="M170.5,211.7h9.9v1.9h-7.8v4.5h7.2v1.9h-7.2v5h8.2v1.9h-10.2v-15.3H170.5z"/>
	<path class="st4" d="M187.9,211.7h5.4c1,0,1.8,0.1,2.4,0.4c0.6,0.2,1.2,0.6,1.5,1c0.3,0.3,0.6,0.9,0.8,1.4s0.2,1,0.2,1.5
		s-0.1,1-0.2,1.4c-0.2,0.4-0.4,0.9-0.8,1.2c-0.3,0.3-0.8,0.6-1.2,1c-0.4,0.2-1,0.4-1.6,0.4l4.3,7h-2.6l-3.9-6.8H190v6.8h-2
		L187.9,211.7L187.9,211.7z M190.1,218.3h2.7c0.4,0,0.8,0,1.2-0.1s0.8-0.2,1.1-0.3c0.3-0.2,0.5-0.4,0.8-0.8c0.2-0.3,0.3-0.8,0.3-1.3
		c0-0.5-0.1-1-0.3-1.3s-0.4-0.5-0.8-0.8c-0.3-0.2-0.6-0.3-1.1-0.3c-0.4-0.1-0.8-0.1-1.2-0.1h-2.7V218.3z"/>
	<path class="st4" d="M205.5,211.7h5.4c1,0,1.8,0.1,2.4,0.4c0.6,0.2,1.2,0.6,1.5,1s0.6,0.9,0.8,1.4c0.1,0.5,0.2,1,0.2,1.5
		s-0.1,1-0.2,1.5c-0.1,0.5-0.4,1-0.8,1.4c-0.3,0.4-0.9,0.8-1.5,1c-0.6,0.2-1.4,0.4-2.4,0.4h-3.3v6.8h-2V211.7z M207.5,218.3h2.7
		c0.4,0,0.8,0,1.2-0.1c0.4-0.1,0.8-0.2,1.1-0.3c0.3-0.2,0.5-0.4,0.8-0.8c0.2-0.3,0.3-0.8,0.3-1.3c0-0.5-0.1-1-0.3-1.3
		s-0.4-0.5-0.8-0.8c-0.3-0.2-0.6-0.3-1.1-0.3c-0.4-0.1-0.8-0.1-1.2-0.1h-2.7V218.3z"/>
	<path class="st4" d="M229.5,227.3c-1.2,0-2.3-0.2-3.2-0.6s-1.8-1-2.5-1.7c-0.6-0.8-1.3-1.6-1.6-2.6c-0.3-1-0.6-2-0.6-3.1
		c0-1.2,0.2-2.2,0.6-3.1c0.4-1,1-1.8,1.6-2.6s1.5-1.3,2.5-1.7c1-0.4,2-0.6,3.2-0.6c1.2,0,2.3,0.2,3.2,0.6s1.8,1,2.5,1.7
		c0.6,0.8,1.3,1.6,1.6,2.6c0.4,1,0.6,2,0.6,3.1c0,1.2-0.2,2.2-0.6,3.1c-0.4,1-1,1.8-1.6,2.6s-1.5,1.3-2.5,1.7
		C231.8,227.1,230.7,227.3,229.5,227.3z M229.5,225.4c0.9,0,1.7-0.2,2.4-0.5c0.8-0.3,1.3-0.8,1.8-1.3s0.9-1.2,1.2-1.9
		c0.3-0.8,0.4-1.5,0.4-2.4s-0.1-1.6-0.4-2.4c-0.3-0.8-0.6-1.4-1.2-1.9c-0.5-0.5-1.1-1-1.8-1.3c-0.8-0.3-1.5-0.5-2.4-0.5
		c-0.9,0-1.7,0.2-2.4,0.5c-0.8,0.3-1.3,0.8-1.8,1.3c-0.5,0.5-0.9,1.2-1.2,1.9c-0.3,0.8-0.4,1.5-0.4,2.4s0.1,1.6,0.4,2.4
		c0.3,0.8,0.6,1.4,1.2,1.9s1.1,1,1.8,1.3C227.9,225.2,228.6,225.4,229.5,225.4z"/>
	<path class="st4" d="M251.8,227.3c-1.2,0-2.3-0.2-3.2-0.6s-1.8-1-2.5-1.7c-0.6-0.8-1.3-1.6-1.6-2.6c-0.3-1-0.6-2-0.6-3.1
		c0-1.2,0.2-2.2,0.6-3.1c0.4-1,1-1.8,1.6-2.6c0.6-0.8,1.5-1.3,2.5-1.7c1-0.4,2-0.6,3.2-0.6c1.2,0,2.3,0.2,3.2,0.6
		c1,0.4,1.8,1,2.5,1.7c0.6,0.8,1.3,1.6,1.6,2.6c0.4,1,0.6,2,0.6,3.1c0,1.2-0.2,2.2-0.6,3.1c-0.4,1-1,1.8-1.6,2.6
		c-0.6,0.8-1.5,1.3-2.5,1.7S253,227.3,251.8,227.3z M251.8,225.4c0.9,0,1.7-0.2,2.4-0.5c0.8-0.3,1.3-0.8,1.8-1.3
		c0.5-0.5,0.9-1.2,1.2-1.9c0.3-0.8,0.4-1.5,0.4-2.4s-0.1-1.6-0.4-2.4c-0.3-0.8-0.6-1.4-1.2-1.9c-0.5-0.5-1.1-1-1.8-1.3
		c-0.8-0.3-1.5-0.5-2.4-0.5s-1.7,0.2-2.4,0.5c-0.8,0.3-1.3,0.8-1.8,1.3c-0.5,0.5-0.9,1.2-1.2,1.9s-0.4,1.5-0.4,2.4s0.1,1.6,0.4,2.4
		s0.6,1.4,1.2,1.9c0.5,0.5,1.1,1,1.8,1.3C250.1,225.2,250.9,225.4,251.8,225.4z"/>
	<path class="st4" d="M267,211.7h2V225h7v1.9h-9L267,211.7L267,211.7z"/>
</g>
<g class="st3">
	<path class="st4" d="M243.8,511.9h2v13.4h7v1.9h-9V511.9z"/>
	<path class="st4" d="M265.8,527.5c-1.2,0-2.3-0.2-3.2-0.6c-1-0.4-1.8-1-2.5-1.7c-0.6-0.8-1.3-1.6-1.6-2.6c-0.3-1-0.6-2-0.6-3.1
		c0-1.2,0.2-2.2,0.6-3.1c0.4-1,1-1.8,1.6-2.6c0.6-0.8,1.5-1.3,2.5-1.7c1-0.4,2-0.6,3.2-0.6c1.2,0,2.3,0.2,3.2,0.6
		c1,0.4,1.8,1,2.5,1.7c0.6,0.8,1.3,1.6,1.6,2.6c0.4,1,0.6,2,0.6,3.1c0,1.2-0.2,2.2-0.6,3.1c-0.4,1-1,1.8-1.6,2.6
		c-0.6,0.8-1.5,1.3-2.5,1.7C268.1,527.4,267,527.5,265.8,527.5z M265.8,525.6c0.9,0,1.7-0.2,2.4-0.5c0.8-0.3,1.3-0.8,1.8-1.3
		c0.5-0.5,0.9-1.2,1.2-1.9s0.4-1.5,0.4-2.4s-0.1-1.6-0.4-2.4c-0.3-0.8-0.6-1.4-1.2-1.9c-0.5-0.5-1.1-1-1.8-1.3
		c-0.8-0.3-1.5-0.5-2.4-0.5s-1.7,0.2-2.4,0.5c-0.8,0.3-1.3,0.8-1.8,1.3c-0.5,0.5-0.9,1.2-1.2,1.9c-0.3,0.8-0.4,1.5-0.4,2.4
		s0.1,1.6,0.4,2.4s0.6,1.4,1.2,1.9c0.5,0.5,1.1,1,1.8,1.3C264.1,525.5,264.9,525.6,265.8,525.6z"/>
	<path class="st4" d="M280.5,511.9h2.7l8.4,12.6l0,0v-12.6h2v15.3H291l-8.5-12.6l0,0v12.6h-2V511.9z"/>
	<path class="st4" d="M301,511.9h5.4c1.1,0,2,0.1,2.8,0.3c0.9,0.2,1.5,0.5,2.2,1c0.6,0.4,1.1,0.9,1.5,1.4c0.4,0.5,0.8,1.1,1,1.6
		c0.2,0.5,0.4,1.1,0.5,1.7c0.1,0.5,0.1,1.1,0.1,1.5c0,1-0.2,1.9-0.5,2.8c-0.3,0.9-0.9,1.7-1.6,2.5c-0.8,0.8-1.6,1.3-2.6,1.7
		c-1,0.4-2.3,0.6-3.7,0.6h-5v-15.2H301z M303.1,525.3h2.6c0.9,0,1.7-0.1,2.5-0.3c0.8-0.2,1.5-0.6,2-1.1c0.5-0.4,1.1-1.1,1.4-1.8
		c0.3-0.8,0.5-1.5,0.5-2.5c0-0.5-0.1-1.1-0.2-1.7s-0.4-1.3-0.9-1.8c-0.4-0.5-1.1-1.1-1.8-1.5c-0.8-0.4-1.8-0.6-3-0.6h-3.1
		L303.1,525.3L303.1,525.3z"/>
	<path class="st4" d="M328.1,527.5c-1.2,0-2.3-0.2-3.2-0.6c-1-0.4-1.8-1-2.5-1.7c-0.6-0.8-1.3-1.6-1.6-2.6c-0.4-1-0.6-2-0.6-3.1
		c0-1.2,0.2-2.2,0.6-3.1s1-1.8,1.6-2.6c0.6-0.8,1.5-1.3,2.5-1.7c1-0.4,2-0.6,3.2-0.6c1.2,0,2.3,0.2,3.2,0.6c1,0.4,1.8,1,2.5,1.7
		c0.6,0.8,1.3,1.6,1.6,2.6c0.4,1,0.6,2,0.6,3.1c0,1.2-0.2,2.2-0.6,3.1c-0.4,1-1,1.8-1.6,2.6c-0.6,0.8-1.5,1.3-2.5,1.7
		C330.3,527.4,329.3,527.5,328.1,527.5z M328.1,525.6c0.9,0,1.6-0.2,2.4-0.5c0.8-0.3,1.3-0.8,1.8-1.3c0.5-0.5,0.9-1.2,1.2-1.9
		c0.3-0.8,0.4-1.5,0.4-2.4s-0.1-1.6-0.4-2.4c-0.3-0.8-0.6-1.4-1.2-1.9c-0.5-0.5-1.1-1-1.8-1.3c-0.8-0.3-1.5-0.5-2.4-0.5
		s-1.7,0.2-2.4,0.5c-0.6,0.3-1.3,0.8-1.8,1.3c-0.5,0.5-0.9,1.2-1.2,1.9c-0.3,0.8-0.4,1.5-0.4,2.4s0.1,1.6,0.4,2.4s0.6,1.4,1.2,1.9
		c0.5,0.5,1.1,1,1.8,1.3C326.5,525.4,327.2,525.6,328.1,525.6z"/>
	<path class="st4" d="M342.7,511.9h2.7l8.4,12.6l0,0v-12.6h2v15.3h-2.6l-8.5-12.6l0,0v12.6h-2V511.9z"/>
	<path class="st4" d="M371.3,511.9h2.4l4.5,12.4l0,0l4.6-12.4h2.3l-6,15.3h-1.9L371.3,511.9z"/>
	<path class="st4" d="M390.7,511.9h2v15.3h-2V511.9z"/>
	<path class="st4" d="M411.1,515.2c-0.4-0.5-1-1-1.6-1.3c-0.6-0.3-1.3-0.4-2-0.4c-0.9,0-1.6,0.2-2.4,0.5c-0.8,0.3-1.3,0.8-1.8,1.3
		c-0.5,0.5-0.9,1.2-1.2,1.9c-0.3,0.8-0.4,1.6-0.4,2.5c0,0.8,0.1,1.6,0.4,2.3c0.2,0.8,0.6,1.4,1.1,1.9c0.5,0.5,1.1,1,1.8,1.3
		c0.8,0.3,1.5,0.4,2.4,0.4s1.6-0.2,2.3-0.5c0.6-0.3,1.2-0.9,1.7-1.5l1.7,1.3c-0.1,0.1-0.3,0.4-0.6,0.6c-0.3,0.3-0.6,0.5-1.2,0.9
		c-0.4,0.3-1.1,0.5-1.7,0.8c-0.6,0.2-1.4,0.3-2.4,0.3c-1.2,0-2.3-0.2-3.2-0.6c-1-0.4-1.8-1.1-2.5-1.8c-0.6-0.8-1.2-1.6-1.6-2.6
		c-0.3-1-0.5-1.9-0.5-2.9c0-1.2,0.2-2.3,0.5-3.2c0.4-1,1-1.8,1.6-2.6c0.6-0.8,1.5-1.3,2.5-1.7c1-0.4,2-0.6,3.2-0.6c1,0,2,0.2,3,0.5
		c1,0.4,1.7,1,2.4,1.8L411.1,515.2z"/>
	<path class="st4" d="M422.5,513.8h-5v-1.9h12v1.9h-5v13.4h-2V513.8z"/>
	<path class="st4" d="M442.5,527.5c-1.2,0-2.3-0.2-3.2-0.6c-1-0.4-1.8-1-2.5-1.7c-0.6-0.8-1.3-1.6-1.6-2.6c-0.4-1-0.6-2-0.6-3.1
		c0-1.2,0.2-2.2,0.6-3.1s1-1.8,1.6-2.6c0.6-0.8,1.5-1.3,2.5-1.7c1-0.4,2-0.6,3.2-0.6c1.2,0,2.3,0.2,3.2,0.6c1,0.4,1.8,1,2.5,1.7
		c0.6,0.8,1.3,1.6,1.6,2.6c0.4,1,0.6,2,0.6,3.1c0,1.2-0.2,2.2-0.6,3.1c-0.4,1-1,1.8-1.6,2.6c-0.6,0.8-1.5,1.3-2.5,1.7
		C444.7,527.4,443.7,527.5,442.5,527.5z M442.5,525.6c0.9,0,1.7-0.2,2.4-0.5c0.6-0.3,1.3-0.8,1.8-1.3c0.5-0.5,0.9-1.2,1.2-1.9
		c0.3-0.8,0.4-1.5,0.4-2.4s-0.1-1.6-0.4-2.4c-0.3-0.8-0.6-1.4-1.2-1.9c-0.5-0.5-1.1-1-1.8-1.3c-0.8-0.3-1.5-0.5-2.4-0.5
		c-0.9,0-1.7,0.2-2.4,0.5c-0.8,0.3-1.3,0.8-1.8,1.3c-0.5,0.5-0.9,1.2-1.2,1.9c-0.3,0.8-0.4,1.5-0.4,2.4s0.1,1.6,0.4,2.4
		s0.6,1.4,1.2,1.9c0.5,0.5,1.1,1,1.8,1.3C440.9,525.5,441.6,525.6,442.5,525.6z"/>
	<path class="st4" d="M457.1,511.9h5.4c1,0,1.8,0.1,2.4,0.4c0.6,0.2,1.2,0.6,1.5,1c0.3,0.3,0.6,0.9,0.8,1.4c0.1,0.5,0.2,1,0.2,1.5
		c0,0.5-0.1,1-0.2,1.4c-0.2,0.4-0.4,0.9-0.8,1.2c-0.3,0.3-0.8,0.6-1.2,1c-0.4,0.2-1,0.4-1.6,0.4l4.3,7h-2.6l-3.9-6.8h-2.3v6.8h-2
		V511.9z M459.3,518.6h2.7c0.4,0,0.8,0,1.2-0.1c0.4-0.1,0.8-0.2,1.1-0.3c0.3-0.1,0.5-0.4,0.8-0.8c0.2-0.3,0.3-0.8,0.3-1.3
		s-0.1-1-0.3-1.3c-0.2-0.3-0.4-0.5-0.8-0.8s-0.6-0.3-1.1-0.3c-0.4-0.1-0.8-0.1-1.2-0.1h-2.7V518.6z"/>
	<path class="st4" d="M474,511.9h2v15.3h-2V511.9z"/>
	<path class="st4" d="M488.6,511.9h1.8l6.6,15.3h-2.4l-1.5-3.8h-7.3l-1.5,3.8h-2.4L488.6,511.9z M492.2,521.6l-2.8-7l0,0l-2.9,7
		H492.2z"/>
</g>
</svg>
