<svg xmlns="http://www.w3.org/2000/svg" viewBox="0 0 610.15 393.3"><defs><style>.cls-1{fill:#dae7ed;stroke:#000;stroke-miterlimit:10;}</style></defs><g id="Lager_2" data-name="Lager 2"><g id="båt"><path class="cls-1" d="M326.27,166.39c-7.36-1.88-17.18-5.32-16.2-12.86.48-3.68,3.64-6.32,6.44-8.76a91.54,91.54,0,0,0,29.75-53c14.22,8,4.12,30.18,8.5,45.91,2.13,7.6,7.88,13.65,14,18.59,14.94,12,34.48,19.41,53.34,16.08s35.89-19.3,36.7-38.43c7.94,8.69,4.74,23.08-2.55,32.31s-17.73,15.45-25.71,24.09A60.07,60.07,0,0,0,462.69,290c9.24,1.88,20.39,2.48,25.22,10.58,5.31,8.91-1.07,20-7.25,28.35l-38.07,51.44c-2.71,3.66-5.53,7.42-9.49,9.66-4.79,2.7-10.56,2.81-16.07,2.81q-20.55,0-41.11-.72c-5.46-.2-11.19-.5-15.86-3.35s-7.48-7.67-10.17-12.33l-23.5-40.66c-5.49-9.51-11.09-21.14-6.08-30.91,5.15-10,18.22-12,29.18-14.63C419.56,273.5,376.67,179.31,326.27,166.39Z"/><path class="cls-1" d="M605.83,308.37c-4.08-5.83-10.88-9-16.86-12.84-23.81-15.39-36.06-44.75-36.32-73.1s10-55.84,23.12-81c-13.84-5.53-29.17,1.36-42.88,7.21s-30.69,10.41-42.56,1.38c-18-13.71-31.61-50.6-30.49-5.82.63,25.45-6.15,51.77-.07,76.9,4.05,16.75,14.14,32.47,13.08,49.67-1.1,17.78-15.75,33.79-33.36,36.46,12.73,2.8,20.68,15.49,25.14,27.74s7.18,25.66,15.68,35.55c14.91,17.37,41.24,17.52,64.1,16.28l47.07-2.56c-3.78-12.92,3.89-26.05,10.32-37.88S613.53,319.41,605.83,308.37Zm-98.76-68.84C507,251.22,505.17,264,496.62,272a115.63,115.63,0,0,0-13.87-57.12c-2.9-5.35-6.24-10.51-8.31-16.23C471,189,471.14,178,476,169,500.29,175,507.17,218,507.07,239.53Z"/><path class="cls-1" d="M60.05,179.24l-12.83-17.6a3.76,3.76,0,0,1,0-4.81A11.91,11.91,0,0,1,52,154.12c6-2.3,12.24-4.36,18.66-4.32s13.14,2.51,16.88,7.73c2.42,3.37,3.4,7.55,5.36,11.2,2.34,4.35,6,8,7.77,12.58,1.94,5.17,1.13,11.05-1,16.13s-5.53,9.54-8.88,13.93a5.56,5.56,0,0,1-2.59,2.22,5.15,5.15,0,0,1-2.92-.25,27.49,27.49,0,0,1-17.44-16.76C65.8,191.07,63.49,184,60.05,179.24Z"/><path class="cls-1" d="M51.14,77.65c-.49-8.92.18-19.36,7.48-24.5,6.56-4.61,16.08-2.61,22.19,2.58S90.34,68.55,93.21,76c11.06,28.74,23,69,17.64,100.15-5.22,30.09-19.35,55.15.77,84.42,12.29,17.88,33.09,27.57,52.89,36.43,7.07,3.17,14.34,6.38,22.07,6.78,11.43.58,22.18-5.05,32-11,8.54-5.16,17.89-12.57,17.29-22.53-.81-13.51-17.73-18.21-29.43-25-21-12.22-29-38-35.32-61.44l-21.26-78.92C147,94.44,144.15,83.69,145,72.85s6.06-22,15.72-27c5.89-3.05,12.76-3.53,19-5.75s12.45-7.32,12.3-14L100.91,16.1c-12.18-1.35-24.61-2.69-36.61-.19C29.13,23.22,7.94,63,11.15,98.8c1.39,15.57,6.84,31.41,18.29,42.05,10.34,9.61,45.35,20.22,44.29-2.1C73.35,130.84,60.42,119,57.28,111,53.16,100.49,51.75,88.82,51.14,77.65Z"/><path class="cls-1" d="M211.19,342.67l-17.48,32.89c-1.08,2-2.23,4.14-4.12,5.44a13.55,13.55,0,0,1-6.26,1.85,109.83,109.83,0,0,1-64.63-12.6,5.45,5.45,0,0,1-2.36-1.95,5.64,5.64,0,0,1-.46-2.8l.09-18.6C145.51,346.42,181.65,342,211.19,342.67Z"/><path class="cls-1" d="M51,191.84c-1.57,6.19-2,13,.8,18.74A29.94,29.94,0,0,0,59,219.42,79.19,79.19,0,0,0,81.82,234a40.36,40.36,0,0,1,4.49-26c.19-.34-27.16-29.32-29.76-31A58.9,58.9,0,0,0,51,191.84Z"/><path class="cls-1" d="M22.78,60.49c-5.42,16.81-.67,35.45,7.9,50.9,7.45,13.44,19.93,26.31,35.29,26,5.67-.12,11.52-2.05,16.89-.22,5.82,2,9.46,8.05,10.37,14.13s-.43,12.25-1.75,18.25c-6.37-9.12-19.94-7.32-31.06-7.53-26-.51-50.54-19.59-57.44-44.66A77.86,77.86,0,0,1,.55,94.26C1.22,72.09,9.08,49.88,24,33.47S61.12,7,83.26,8.41c12.4.8,24.6,5,37,3.93s23.63-7.48,35.69-10.49S183,.42,189.49,11c3.21,5.24,3.68,11.72,3.12,17.83-.15,1.59-.46,3.35-1.75,4.29a6,6,0,0,1-4,.63l-69.48-5.46c-11.61-.92-23.28-1.77-34.77-3.7-7.38-1.25-15.82-4.92-23.3-3.09C44,25.27,27.36,46.26,22.78,60.49Z"/><path class="cls-1" d="M226.91,321.72c.52,9.26-5.8,17.82-13.72,22.64s-17.25,6.63-26.36,8.35c-10.41,2-20.9,3.94-31.49,3.88-23.69-.13-48-11.85-59.45-32.57A57.55,57.55,0,0,1,95,271c16.25-2.95,32.06,5.92,46.34,14.23C168.28,300.87,196.77,313.68,226.91,321.72Z"/><path class="cls-1" d="M211,227.11c.27,3.75-.08,7.89-2.67,10.61-1.78,1.86-4.35,2.75-6.86,3.35-21.83,5.18-46.4-10.23-51.23-32.15-3.13-14.2,1.16-29-.19-43.49-2-21.3-16.05-40.82-14.35-62.15.73-9.22,7.58-19.91,16.6-17.88,5.13,1.16,8.43,6,11.22,10.46,8.24,13.2,16.71,29.53,9.8,43.47-.87,1.75-2,3.46-2.18,5.41-.29,2.92,1.52,5.57,3.07,8.06,7.37,11.83,5.49,26.71,8.06,40.07C194.94,185.76,210.22,217.3,211,227.11Z"/><path class="cls-1" d="M124.46,257.76c11.09,11.39,23.68,21.64,38.31,27.84s31.53,8.06,46.51,2.75c9.82-3.47,19.65-13.29,15.84-23-1.63-4.13-5.37-7-9-9.54a222.75,222.75,0,0,0-23.52-14.31,13.07,13.07,0,0,0,12.09-11.79c13.86,6.66,28,13.56,38.57,24.76s16.7,27.85,11.38,42.27c-4.15,11.28-14.69,19.36-26.13,23.05s-23.77,3.56-35.74,2.44c-24.5-2.29-49-8.72-69.63-22.21S86.3,265.37,82.21,241.11c-3.74-22.2,4.5-53.19,26-64.19,4.23,13,2.54,24.54.93,37.69C106.89,232.7,111.77,244.73,124.46,257.76Z"/><path class="cls-1" d="M372.45,216.16c-.75-1.87-2.63-3-4.39-4-15.41-8.52-32-17.33-40.45-32.75-7.33-13.33-7.32-29.29-10.47-44.17s-11.82-30.85-26.78-33.59c-15.17-2.78-29.24,9.65-36.2,23.42s-9.56,29.47-17.08,42.94c-12.11,21.67-38.3,32.55-61.37,36.82,17.55,5.58,25.55,25.42,31,43q12.35,40.17,22.37,81c4.61,18.77,3.19,50.53,25,56.31a112.74,112.74,0,0,0,81.75-9.76l15.12-99.83c2.68-17.76,5.84-36.56,17.65-50.08C370.9,222.82,373.77,219.48,372.45,216.16ZM296.39,218c-1.81,23.16-21.42,50.79-30.08,15-7.33-30.31-5.05-65.36.65-95.69,1.54-8.15,5-17.8,13.19-19.2,5.86-1,11.62,3.21,14.34,8.5s3.06,11.44,3.28,17.39A648.07,648.07,0,0,1,296.39,218Z"/><rect class="cls-1" x="11.19" y="380.36" width="598" height="12"/></g></g></svg>