<?xml version="1.0" encoding="utf-8"?>
<!-- Generator: Adobe Illustrator 26.3.1, SVG Export Plug-In . SVG Version: 6.00 Build 0)  -->
<svg version="1.1" id="Layer_1" xmlns="http://www.w3.org/2000/svg" xmlns:xlink="http://www.w3.org/1999/xlink" x="0px" y="0px"
	 viewBox="0 0 859.2 868" style="enable-background:new 0 0 859.2 868;" xml:space="preserve">
<style type="text/css">
	.st0{fill:#010202;}
	.st1{font-family:'GaramondPremrPro';}
	.st2{font-size:19px;}
	.st3{clip-path:url(#SVGID_00000008121702243859284520000015564280116379434650_);}
	.st4{fill:none;stroke:#010202;stroke-width:2;stroke-miterlimit:10;}
	.st5{fill:none;stroke:#010202;stroke-miterlimit:10;}
	.st6{fill:none;stroke:#010202;stroke-linecap:round;stroke-miterlimit:10;}
	.st7{fill:#020203;}
	.st8{font-family:'GaramondPremrPro-It';}
</style>
<text transform="matrix(1 0 0 1 330.8872 617.0936)" class="st0 st1 st2"> Since the beginning of man, navigation has </text>
<text transform="matrix(1 0 0 1 330.8872 650.5828)" class="st0 st1 st2">played an essential role in survival. The </text>
<text transform="matrix(1 0 0 1 330.8872 684.0711)" class="st0 st1 st2">Native Americans used unique techniques to </text>
<text transform="matrix(1 0 0 1 330.8872 717.5604)" class="st0 st1 st2">navigate. One of these were the special “trail </text>
<text transform="matrix(1 0 0 1 330.8872 751.0496)" class="st0 st1 st2">trees” that Native tribes used as road markers, </text>
<text transform="matrix(1 0 0 1 330.8872 784.5389)" class="st0 st1 st2">or to mark a place, river or spring. These trees </text>
<text transform="matrix(1 0 0 1 330.8872 818.0272)" class="st0 st1 st2">are bent in spectacular ways and researchers </text>
<text transform="matrix(1 0 0 1 330.8872 851.5164)" class="st0 st1 st2">believe that it is not caused by nature.</text>
<g id="Group_297">
	<g>
		<defs>
			<rect id="SVGID_1_" x="8.2" y="-14.4" width="851" height="849.5"/>
		</defs>
		<clipPath id="SVGID_00000065795785856914603010000018238265948559718298_">
			<use xlink:href="#SVGID_1_"  style="overflow:visible;"/>
		</clipPath>
		<g id="Group_296" style="clip-path:url(#SVGID_00000065795785856914603010000018238265948559718298_);">
			<path id="Path_2083" class="st4" d="M193.2,47.8c-9.8,121.5,4.5,181.2,0,303c-1.2,33.2-2.1,67.4,9.5,98.4
				c11.6,31,38.9,58.4,71.5,59.2c14,0.4,27.6-4,40.9-8.5c50.1-16.7,102-35.5,138.6-74.1c13-13.7,23.8-29.9,30.2-47.8
				c6.5-18.2,8.4-37.7,10.2-57c9.1-96.3,22-221.5,31.1-317.8"/>
			<path id="Path_2084" class="st4" d="M98.1,69.4c2.4,54.4-1.1,43.6,1.2,98c1.6,37.4,3.2,74.9-1.2,112.1
				c-3.3,28-10.1,55.4-13.6,83.4c-9,72.1,3.8,145.5-5.4,217.7c-0.7,5.3-1.5,10.8-4.7,15.3c-9.5,13.4-31.5,8.8-46.8,15.7
				c-16.8,7.6-22.3,31.6-10.3,45.2c11.4,12.9,35.6,20.1,32.4,36.6c38-10.5,75.9-21,113.9-31.4c28-7.7,56.3-15.5,82.3-28.2
				c26.8-13,50.6-30.9,77-44.6c39.3-20.4,83.2-30.9,126.6-41.2l146.1-34.8c35.1-8.4,78.3-14.5,102.1,11.6
				c22.5,24.7,13.1,62.3,5,94.2c-15.2,59.6-20.9,121.2-17,182.6"/>
			<path id="Path_2085" class="st4" d="M846.6,792.2c-24.4-97.4-29.7-198.6-15.9-298c2.5-18,4.3-39.8-10.7-51
				c-4.2-3.1-9.3-5-13.3-8.4c-13-10.8-5.9-35.3,11-38.2c8.5-9.3,4-24.5-5.1-33.2c-9.1-8.7-21.6-13.2-32.4-19.9
				c-8.8-5.5-17.2-12.6-27.7-13.9c-11.3-1.3-21.9,4.6-31.7,10c-50.4,27.6-105.1,46.4-161.7,55.8c-1.3-133.1,5.7-223.9,21.6-356.1"/>
			<path id="Path_2086" class="st0" d="M654.1,438.3c24.4-0.2,52.8,2.5,69.3,21.7c1,1.3,1.9,2.6,2.8,3.9
				C708.6,443.9,679.6,441.7,654.1,438.3"/>
			<path id="Path_2087" class="st0" d="M759.2,455.3c19.5,12.2,32,33.9,33.2,56.1c0,1.5,0.1,3,0,4.4c-0.4-2.5-1.1-6.1-1.7-8.7
				C786.2,487.3,775,469,759.2,455.3"/>
			<path id="Path_2088" class="st0" d="M693.5,468.1c16.5,11.4,27.2,29.8,30,49c2.7,18.9,7.7,38.2,5.4,57.4
				c0.1-4.8-0.1-9.6-0.8-14.4c-1-9.5-5.6-32.9-7.2-42.7C718.4,498.6,708.3,480.8,693.5,468.1"/>
			<path id="Path_2089" class="st0" d="M743.3,587.5c4.2,9.6,6.7,19.8,7.4,30.3C746.5,608.2,744,598,743.3,587.5"/>
			<path id="Path_2090" class="st0" d="M733.6,641.8c1.5,11.5-0.5,23.1-5.6,33.4C729.7,663.9,731.5,653.1,733.6,641.8"/>
			<path id="Path_2091" class="st0" d="M708.3,640.7c2.7,10.4,1.9,21.5-2.3,31.4C706.7,661.5,707.4,651.4,708.3,640.7"/>
			<path id="Path_2092" class="st0" d="M727.1,675.5c4.6,11.7,1.2,26.3-8.1,34.9C725.1,699.9,728,687.7,727.1,675.5"/>
			<path id="Path_2093" class="st0" d="M745.6,727.5c2.2,10,2.1,20.4-0.4,30.4C744.2,747.8,744.3,737.6,745.6,727.5"/>
			<path id="Path_2094" class="st0" d="M808.3,726.7c5.5,11.6,11.8,22.7,18.8,33.5C817.2,751.5,810.6,739.6,808.3,726.7"/>
			<path id="Path_2095" class="st0" d="M764.6,704.8c4.7,12.8,6,26.6,3.7,40.1C767,731.4,765.8,718.3,764.6,704.8"/>
			<path id="Path_2096" class="st0" d="M742.3,588.6c0.5,7,3.9,13.2,7.3,19.2c10.9,18.2,14.2,40.8,7.8,60.9
				c2.3-13.6,1.7-27.6-1.9-40.9C752.8,614.4,741.7,602.8,742.3,588.6"/>
			<path id="Path_2097" class="st0" d="M749.5,423.6c-2.1,9.8,9.4,13.8,14.6,20.4c2,2.5,2.9,5.4,4.1,8.2c3,8.1,4.9,17.2,6.8,25.6
				c0.6,2.9,1.3,5.7,2,8.6c-6.2-13.2-7.7-28.2-14.9-40.9C757.2,439.2,745.5,433.1,749.5,423.6"/>
			<path id="Path_2098" class="st0" d="M817.5,480.5c-12,14.7-20.5,31.9-24.3,50.2c-0.5,2.3-1.1,5.6-1.5,7.9
				C791.2,517,800.9,495.2,817.5,480.5"/>
			<path id="Path_2099" class="st0" d="M725.4,369c16.8-0.1,33.2,12.8,36.4,28.5C754.8,383.1,741.6,372.7,725.4,369"/>
			<path id="Path_2100" class="st0" d="M767.3,381.2c7.2,1.3,13,8.3,12.6,15.3C776.7,390.6,772.4,385.4,767.3,381.2"/>
			<path id="Path_2101" class="st0" d="M742.4,355.7c9.2-4.9,19,3.9,22.4,11.8C758.1,361.8,752,354.7,742.4,355.7"/>
			<path id="Path_2102" class="st0" d="M653,441.3c16-1,32.6-1.9,48,3.5c32,11.4,44,47.5,42.6,77.7c-1.2,31-10.3,61-9.6,92
				c-0.5,23.1,2.7,46.5-0.8,69.5c-1.3,7.7-4.3,15-7.2,22.2c-6.2,14.2-8.2,29.9-5.8,45.2c-3.1-15.2-1.2-31.2,4.6-45.7
				c2.8-7.3,5.7-14.4,6.8-22c3.1-22.9-0.4-46.1,0-69.2c-0.1-15.5,1.2-31,3.8-46.3c4.9-29.9,11.2-61.9-2.3-90.6
				C717.7,443.5,688.1,439.4,653,441.3"/>
			<path id="Path_2103" class="st0" d="M618.9,458.9c-37.3-4-67.8,6.5-99.9,23.4l-31.1,15.3l-0.7-2.3c44.6-4.6,88.8-19.8,134.1-15.9
				c-47.2-2-94.3,15.1-141,19.1c21.1-9.8,47.7-24.3,69.5-32.5C571.9,458,595.7,455.6,618.9,458.9"/>
			<path id="Path_2104" class="st0" d="M257.2,568.4c19.1-8.5,40.1-11.8,60.9-9.4C297.5,560.1,277.1,563.2,257.2,568.4"/>
			<path id="Path_2105" class="st0" d="M351,545.7c24.9-5,49.1-13.5,71.7-25.1c1.5-0.8,3-1.6,4.5-2.3
				C404.8,534.1,378.4,543.6,351,545.7"/>
			<path id="Path_2106" class="st0" d="M192.5,601.8c9.7-0.7,18.5-5.2,24.2-12.3c3-3.5,4.6-9,9.7-10.6c5-1.8,10.1-0.8,14.7,0.3
				c-4.8-0.2-9.8-0.4-13.9,1.4c-4.5,2-5.4,6.9-8.4,10.4C212.7,598.6,202.3,603.1,192.5,601.8"/>
			<path id="Path_2107" class="st0" d="M194.7,619.8c20.6,2.3,36.2-18.1,56.9-15.1C231.5,605.2,215.5,625.7,194.7,619.8"/>
			<path id="Path_2108" class="st0" d="M276.3,583.6c15.2-5.5,26.4-17.9,42.5-21.9c15.6-4.1,32.4-2.2,46.7-10.1
				c-3.2,2.4-6.8,4.2-10.7,5.5c-11.4,3.9-23.9,4-35.3,7C304.1,567.8,292,580,276.3,583.6"/>
			<path id="Path_2109" class="st0" d="M485.4,513.3c24.6,0.8,46.9-11.2,71.1-13.2c1.6-0.1,3.2-0.2,4.9-0.2
				c-1.6,0.3-3.2,0.6-4.8,0.9l-4.7,1.1C530.6,506.7,507.8,517.2,485.4,513.3"/>
			<path id="Path_2110" class="st0" d="M550,485.3c15.6,1.4,30.1-8.6,43.2-15.2c4.6-2.4,9.3-4.7,14.1-6.8
				C591.4,473.2,570.1,490.4,550,485.3"/>
			<path id="Path_2111" class="st0" d="M639.5,453.6c7,0.8,14,2,20.7,4.6c6.8,2.4,12.3,7.4,17.2,12.2c7.1,7.7,18.5,10.3,24.5,19.1
				c1.9,2.9,3.1,6.5,2.3,9.9c0.1-3.4-1.1-6.6-3.3-9.2c-6.6-8-18.2-10.3-25.3-18c-4.9-4.9-9.7-9.4-16.2-12.2
				C653.1,457,646.2,455.4,639.5,453.6"/>
			<path id="Path_2112" class="st0" d="M739.1,505.1c-2,20.2-2.9,40.4-1.9,60.6l0.4,8.7C732.6,551.5,733.1,527.7,739.1,505.1"/>
			<path id="Path_2113" class="st0" d="M765.4,522.5c3.5,11.4,5.1,23.6,3.5,35.4c-1.3,11.7-3.6,23.4-0.5,35
				c-1.2-2.7-2.1-5.6-2.7-8.6c-1.5-8.9-0.4-18,0.6-26.7C768,545.9,766.8,534.3,765.4,522.5"/>
			<path id="Path_2114" class="st0" d="M806,488.8c-12.1,23.6-9.8,51.6-9.3,77.1c-0.6-3.2-1-6.5-1.5-9.8
				C792.5,533.5,792.4,508.5,806,488.8"/>
			<path id="Path_2115" class="st0" d="M757,452.9c0.2,11.1,13.1,20.1,8.8,31.5C766.4,473.1,753.6,464.4,757,452.9"/>
			<path id="Path_2116" class="st0" d="M766.4,382.1c7,8.3-2.7,22-4.2,31l-1.3,6.7c-1.5-10.8-5.2-21.3-13.5-29.2
				c-2.1-2.1-4.4-4-6.9-5.7c11.2,5.3,19.3,15.6,21.6,27.8l-2.5,0c1-4.8,3.9-10.8,5.8-15.4C767.1,392.5,769.6,386.8,766.4,382.1"/>
			<path id="Path_2117" class="st0" d="M780.9,426.8c8.7,5.5,14.7,15.2,15.6,25.1C792.1,443,786.9,434.6,780.9,426.8"/>
			<path id="Path_2118" class="st0" d="M593.4,406.6c20.5-21,48.8-35,78.4-39.5c2-0.3,4-0.5,5.9-0.7c-3.3,0.8-8.2,2-11.5,2.9
				C639.6,376.6,614.8,389.3,593.4,406.6"/>
			<path id="Path_2119" class="st0" d="M435.9,466.3c10-4.8,19.4-9.4,29.4-14.4C457.2,459.7,446.9,464.8,435.9,466.3"/>
			<path id="Path_2120" class="st0" d="M556,442.7c12-5.7,25.6,3.5,37.8,2l11.3-1.3c-14.8,5.3-30.3,10.4-45.9,13l17.2-5.8
				c5.7-2,11.4-3.9,17.1-5.9l0.6,2.4C581,448.9,569,439,556,442.7"/>
			<path id="Path_2121" class="st0" d="M758,548.5c2.7,9.9,3.7,20.1,2.9,30.3C758.1,568.9,757.1,558.7,758,548.5"/>
			<path id="Path_2122" class="st0" d="M771.7,606c1.8,8.6,1.8,17.5,0,26.1C770,623.4,770,614.6,771.7,606"/>
			<path id="Path_2123" class="st0" d="M782.6,554.2c4.9,20.3,8.9,40.8,10,61.6c0.6,10.3-0.8,20.8-0.2,31.1
				c0.7,10.3,5.2,20,9.3,29.4c-2.6-4.5-5-9.2-7.2-14c-7-14.6-3.6-30.9-4.6-46.4C789.2,595.5,785.4,574.5,782.6,554.2"/>
			<path id="Path_2124" class="st0" d="M805.7,499.6c-0.8,15.3-1.5,30.2-2,45.6C800.6,530,801.3,514.4,805.7,499.6"/>
			<path id="Path_2125" class="st0" d="M700.7,488.1c11.4,17.3,17.9,37.3,18.7,58C715.1,526.3,708.8,506.8,700.7,488.1"/>
			<path id="Path_2126" class="st0" d="M632.6,488.6c16.6-0.4,33.6,7.7,43.2,20.6C663.4,498.7,648.5,491.7,632.6,488.6"/>
			<path id="Path_2127" class="st0" d="M165.4,596.1c10.1-1.3,20.4-1.4,30.6-0.4C185.9,598.1,175.5,598.3,165.4,596.1"/>
			<path id="Path_2128" class="st0" d="M193.6,581.1c10.3-1.2,20.4-3.1,30.4-5.7C215.1,581.3,204.1,583.3,193.6,581.1"/>
			<path id="Path_2129" class="st0" d="M141.6,485.5c1.8,5.3,1.8,11,0,16.3C139.8,496.5,139.8,490.8,141.6,485.5"/>
			<path id="Path_2130" class="st0" d="M137.1,519.1c1.8,6,1.8,12.4,0,18.5C135.3,531.6,135.3,525.2,137.1,519.1"/>
			<path id="Path_2131" class="st0" d="M163,429c-2.5,25.6-4.1,53.5-4.8,79.2C155.4,481.8,157,455,163,429"/>
			<path id="Path_2132" class="st0" d="M178.5,516.1c9,16.1,11.5,35.1,6.8,52.9C186.3,551.1,184,533.1,178.5,516.1"/>
			<path id="Path_2133" class="st0" d="M140.4,248.9c2.2,27.8,2.7,55.7,1.4,83.6C139.6,304.7,139.1,276.7,140.4,248.9"/>
			<path id="Path_2134" class="st0" d="M125.8,357.4c-0.3,26.4-6.4,52.5-12.6,78.1C115.8,409.8,122,383.1,125.8,357.4"/>
			<path id="Path_2135" class="st0" d="M176.8,110c1.2,18.4,1.4,36.9,0.6,55.4C174.6,147,174.4,128.4,176.8,110"/>
			<path id="Path_2136" class="st0" d="M147.3,199c1.8,13.7,1.8,27.6,0,41.2C145.5,226.5,145.5,212.6,147.3,199"/>
			<path id="Path_2137" class="st0" d="M517.2,199c1.8,13.3,1.8,26.8,0,40.2C515.4,225.8,515.4,212.3,517.2,199"/>
			<path id="Path_2138" class="st0" d="M516.1,270.6c1.8,11.9,1.8,23.9,0,35.8C514.3,294.5,514.3,282.5,516.1,270.6"/>
			<path id="Path_2139" class="st0" d="M507,332.5c1.4,14.8,0.9,29.8-1.3,44.5C504.3,362.1,504.8,347.2,507,332.5"/>
			<path id="Path_2140" class="st0" d="M528.8,352c0.5,26,0.2,53.3-1,79.2C525.4,404.9,525.7,378.3,528.8,352"/>
			<path id="Path_2141" class="st0" d="M473.4,442.4c7.7-7.8,13.2-17.4,16-27.9l2.1-8.3l0.3,8.6c1.4,8.5,8.9,15.4,9.7,24.3
				c0,3.2-1.7,5.9-3.2,8.6c-2.1,3.5-5.2,6.3-8.9,8.1c5.5-3.8,9.5-10.2,10-16.6c-1.2-6.5-5.8-12.1-8.5-18.3c-1-1.9-1.5-4-1.7-6.1
				l2.5,0.3C488.8,426,482.3,435.5,473.4,442.4"/>
			<path id="Path_2142" class="st0" d="M392.7,490.9c8.4-3,16.2-5.5,24.7-7.9C410.4,488.5,401.7,491.3,392.7,490.9"/>
			<path id="Path_2143" class="st0" d="M439.2,476c6.6-3.7,13-7.8,19.1-12.3C454.8,470.6,447.2,475.5,439.2,476"/>
			<path id="Path_2144" class="st0" d="M300,525.6c9-0.8,17.1-1.8,26-3.3C318.2,527.1,308.7,528.2,300,525.6"/>
			<path id="Path_2145" class="st0" d="M255.8,574c22.8-5.5,45.9-9.4,69.3-11.6C302.3,568,279.1,571.8,255.8,574"/>
			<path id="Path_2146" class="st0" d="M554.5,456.2c10.3-4.6,21.6-6.4,32.8-5.4C576.5,453.2,565.6,455,554.5,456.2"/>
			<path id="Path_2147" class="st0" d="M564.8,431.6c13.4-2.9,26.9-6.8,39.1-12.7c8.1-4.4,12.4-12.7,19.6-18.4
				c7.3-6,17.6-6,25.9-9.9c4.2-1.7,8-4.3,10.6-8.1c-2,4.1-5.9,7.1-10,9.2c-8,4.3-17.9,4.7-24.9,10.6c-6.9,5.8-11.5,14.3-19.9,18.7
				C592.3,426.6,578.7,430.3,564.8,431.6"/>
			<path id="Path_2148" class="st0" d="M632.7,438.5c17.1,3.1,32.9-13,49.8-5.8c5.1,2.1,9.8,5.8,15.6,4.9c-2.7,1.1-5.8,0.6-8.5-0.1
				c-5.3-1.8-10.1-4.4-15.8-4.2C660.1,433.3,646.6,443.4,632.7,438.5"/>
			<path id="Path_2149" class="st0" d="M723.1,418.2c6.2-2.5,14.2-1,18.9,3.8C735.8,420.4,729.5,419.2,723.1,418.2"/>
			<path id="Path_2150" class="st0" d="M785.5,371.8c0.5-0.9,1.9-1,2.8-0.6c2.9,1.3,3.8,4.6,4.5,7.1c1,3.4,1.2,7.1,0.6,10.6
				c-1.5-4.1-2.8-8.2-3.7-12.5C789.2,374.5,788.1,370.9,785.5,371.8"/>
			<path id="Path_2151" class="st0" d="M767.1,388.9c2.2,5.5,2.7,11.6,1.4,17.3C766.2,400.8,765.7,394.7,767.1,388.9"/>
			<path id="Path_2152" class="st0" d="M788.6,433.5c6.5,5.4,12.6,9.9,19.5,14.9C799.6,446.6,792.5,441.2,788.6,433.5"/>
			<path id="Path_2153" class="st0" d="M788,459.6c6.1,8.3,11.4,21.3,4,30.3C795.7,479.4,790.8,469.7,788,459.6"/>
			<path id="Path_2154" class="st0" d="M808.2,522.6c-8.2,13.7-12.5,29.4-12.3,45.4C792,552.3,796.8,534.4,808.2,522.6"/>
			<path id="Path_2155" class="st0" d="M783.8,710.2c2.5,15.2,4.3,30.1,5.6,45.5C784.6,741,782.7,725.5,783.8,710.2"/>
			<path id="Path_2156" class="st0" d="M809.6,756.8c-3.1-11.6-6.9-23.1-11.3-34.4C805.9,732.2,809.9,744.4,809.6,756.8"/>
			<path id="Path_2157" class="st0" d="M709.8,762.2c-2.9-12-2.3-25.4,5.4-35.6c2.1-3.5,4.1-6.9,4.6-11c1.1,8.3-5.7,15.3-7.7,22.8
				C709.8,746,710.2,754.1,709.8,762.2"/>
			<path id="Path_2158" class="st0" d="M667.6,762.3c-1-9.5,9.8-15.1,14.1-22.5c5.1-7.3,8.7-15.5,10.6-24.2c0,11.4-5,22.5-12.9,31
				C674.9,751.5,668.2,755.3,667.6,762.3"/>
			<path id="Path_2159" class="st0" d="M785.6,754.6c-5.9-9.4-8.7-20.3-8.3-31.4C780.4,733.8,783,743.9,785.6,754.6"/>
			<path id="Path_2160" class="st0" d="M756.7,648.3c3.6,14.8,2.8,30.3-2.3,44.6C755.9,678.1,756.7,663.2,756.7,648.3"/>
			<path id="Path_2161" class="st0" d="M784.1,635.3c2.3,15.5,2.2,31.2-0.4,46.7C782.7,666.4,782.8,650.8,784.1,635.3"/>
			<path id="Path_2162" class="st0" d="M121.4,204.8c1.2,17.5,1.4,35.4,1.2,53c0,3-0.3,7.6-0.1,10.5c0,5.3,4.6,9.5,5.6,14.6
				c0.3,1.8,0.4,3.5,0.3,5.3c-0.1-1.8-0.5-3.5-1-5.2c-1.8-5.1-6.5-9-6.9-14.6c-0.5-3.2-0.3-7.5-0.4-10.7
				C120,240.2,120.1,222.3,121.4,204.8"/>
			<path id="Path_2163" class="st0" d="M126.1,331.1c1.8,32.3,1.8,64.7,0,97C124.3,395.7,124.3,363.4,126.1,331.1"/>
			<path id="Path_2164" class="st0" d="M116.2,464.3c3.1,7.8,2,16.5-2.8,23.3l0.2-0.5c0.4,29.2-2.1,58.3-3.9,87.5
				c-1.2-25.3,1.2-61.9,2.1-87.5C116.4,480.4,118.6,472.4,116.2,464.3"/>
			<path id="Path_2165" class="st5" d="M90.8,610.6c-8.3,0.4-16.3,2.8-23.6,6.8"/>
			<path id="Path_2166" class="st0" d="M112.3,625.3c8.5-3.2,14.1-9.6,15.9-18.1C130.6,616.1,121.8,626,112.3,625.3"/>
			<path id="Path_2167" class="st0" d="M157.3,593.2c2,11.1,3.1,22.2,3.3,33.5c0.3,10.5,0.5,25.3-11.6,30.1c2.4-1.4,4.4-3.5,5.8-5.9
				c4.4-7.3,3.2-15.9,3.1-24.1C157.8,616.9,157.3,603,157.3,593.2"/>
			<path id="Path_2168" class="st0" d="M112.4,644.9c0.3,8.6-3.1,17.3-8,24.4c-3.6,4.2-9.1,6.1-14.4,7.2c6.1-3.2,12.3-6.3,14.9-12.8
				C107.8,657.5,110.9,651.5,112.4,644.9"/>
			<path id="Path_2169" class="st5" d="M50.9,632.2c7.8,5.8,14.4,13,19.5,21.3"/>
			<path id="Path_2170" class="st5" d="M69.9,667.7c3.4,0.8,6.9-0.3,9.2-2.9"/>
			<path id="Path_2171" class="st5" d="M80.7,644.7c5.7,0.8,11.5,0.6,17-0.8"/>
			<path id="Path_2172" class="st0" d="M127.6,628.2c12.7-1.5,24.5-7.1,33.7-15.9C155.2,623.4,140.7,630.3,127.6,628.2"/>
			<path id="Path_2173" class="st0" d="M177.4,615.4c16.6-2,35.8,2.2,49.7-8.8c-7.1,16.3-14.7,22.6-33.7,20.4
				c-4.2-0.5-8.4-0.7-12.6-0.5c18.8-2.5,32.4,4.2,41.9-16.8l1.9,1.5C210.4,619.6,193.1,615.3,177.4,615.4"/>
			<path id="Path_2174" class="st0" d="M173.1,596.8c10,0.2,20-1.7,29.3-5.4c6.9-2.7,13.2-7.5,20.7-9.3c2.5-0.6,5.2-0.6,7.7-0.2
				c-10.6,0.1-17.9,8.2-27.4,11.7C193.8,597.6,183.3,598.7,173.1,596.8"/>
			<path id="Path_2175" class="st0" d="M189.2,572.2c15.8-0.9,31.8,0.1,46-7.5C223,575.4,204.5,574.8,189.2,572.2"/>
			<path id="Path_2176" class="st0" d="M239.9,600.4c8.5-5.7,18.7-8.5,28.6-11.3c9.8-2.6,21.2-4.5,30.6,0.3
				c-10-2.8-20.1-0.4-29.9,2.1C260.5,593.9,248.2,596.9,239.9,600.4"/>
			<path id="Path_2177" class="st0" d="M332.6,585.3c7.3-4.5,15.6-7.3,24.2-8.2c8.4-1.4,17.2,1.6,25.1-2.2
				c-6.8,5.6-16.7,3.4-24.8,4.7C348.7,580.5,340.5,582.5,332.6,585.3"/>
			<path id="Path_2178" class="st0" d="M351,565c17.5-3.7,34.1-10.9,48.9-21.1C387.5,556.9,369.2,564.8,351,565"/>
			<path id="Path_2179" class="st0" d="M433.5,545c10.9-4.9,22.5-8.2,34.4-9.8C457,540.1,445.4,543.4,433.5,545"/>
			<path id="Path_2180" class="st0" d="M434.1,503.1c4.1-2.4,8.7-3.5,12.7-5.9c3.6-2.9,6.2-6.7,9.3-10.1c2.1-2.3,4.3-4.8,7.2-6.3
				c-5.4,5.8-8.4,13.4-15.1,18.2C444.1,501.4,438.9,502.1,434.1,503.1"/>
			<path id="Path_2181" class="st0" d="M404.1,496.4c1.7-1.7,3.7-1.7,5.4,0C407.8,498.1,405.8,498.1,404.1,496.4"/>
			<path id="Path_2182" class="st0" d="M490.3,471.3c1.7-1.7,3.7-1.7,5.4,0C494,473,492,473,490.3,471.3"/>
			<path id="Path_2183" class="st0" d="M483.4,494.2c1.2-1.7,2.7-1.7,3.8,0C486.1,495.9,484.6,495.9,483.4,494.2"/>
			<path id="Path_2184" class="st0" d="M522.6,458.9c12.8,0.4,15.9-15.4,27.6-18.1c6.7-2,13.8-1,20.1-4.2c-6.9,5.9-18,3.9-24.9,9.4
				C539,450.9,532.5,461.6,522.6,458.9"/>
			<path id="Path_2185" class="st0" d="M753.5,535.6c3.9,10,0.8,22.5-7.3,29.8C751.2,556.3,753.7,546,753.5,535.6"/>
			<path id="Path_2186" class="st0" d="M782.1,526c2.2,13.7,2,27.7-0.5,41.4C780.6,553.6,780.7,539.7,782.1,526"/>
			<path id="Path_2187" class="st0" d="M766,599.1c1.8,10,1.8,20.3,0,30.3C764.2,619.4,764.2,609.1,766,599.1"/>
			<path id="Path_2188" class="st0" d="M751.4,610.9c1.8,8.5,1.8,17.3,0,25.9C749.6,628.2,749.6,619.4,751.4,610.9"/>
			<path id="Path_2189" class="st0" d="M748.3,664.8c1.8,9.8,1.8,19.8,0,29.6C746.5,684.6,746.5,674.6,748.3,664.8"/>
			<path id="Path_2190" class="st0" d="M768.3,667.1c1.8,8,1.8,16.4,0,24.4C766.5,683.4,766.5,675.1,768.3,667.1"/>
			<path id="Path_2191" class="st0" d="M782.2,649.3c1.8,7.3,1.8,14.9,0,22.2C780.4,664.2,780.4,656.6,782.2,649.3"/>
			<path id="Path_2192" class="st0" d="M738.3,665.6c2.2,9.1,1.7,18.6-1.5,27.3C736.4,683.8,736.9,674.6,738.3,665.6"/>
			<path id="Path_2193" class="st0" d="M725.2,627.2c1.8,12.5,1.8,25.2,0,37.7C723.4,652.4,723.4,639.7,725.2,627.2"/>
			<path id="Path_2194" class="st0" d="M752.9,514.9c1.8,12.7,1.8,25.7,0,38.4C751.1,540.5,751.1,527.6,752.9,514.9"/>
			<path id="Path_2195" class="st0" d="M725.2,476.5c1.8,5,1.8,10.5,0,15.5C723.4,487,723.4,481.5,725.2,476.5"/>
			<path id="Path_2196" class="st0" d="M647.3,419.1c7,1.5,13.3,5.2,18.1,10.5C658.8,427.2,652.7,423.6,647.3,419.1"/>
			<path id="Path_2197" class="st0" d="M592.9,404.9c6.1-5.4,14-8.5,22.1-8.7C607.9,399.7,600.5,402.7,592.9,404.9"/>
			<path id="Path_2198" class="st0" d="M616.6,387.1c6.9-2.3,14.3-2.8,21.5-1.7C631.2,387.7,623.9,388.3,616.6,387.1"/>
			<path id="Path_2199" class="st0" d="M672.8,367.8c-6.7,0.4-13.3,1.2-19.8,2.6l-0.4-2.2c14.4-1.3,27.3,6,41,8.9
				c-13.8-0.3-26.9-7.3-40.7-6.7l-0.4-2.2C659.3,367.1,666.1,367,672.8,367.8"/>
			<path id="Path_2200" class="st0" d="M699,361.1c9.5-1.9,19.3-1.2,28.4,1.9C717.9,363.3,708.4,362.7,699,361.1"/>
			<path id="Path_2201" class="st0" d="M712.9,373.1c13.2-2.8,27-1.2,39.3,4.4C739.2,375.2,726.1,373.7,712.9,373.1"/>
			<path id="Path_2202" class="st0" d="M751.5,364.4c9.2,0.1,17.9,3.9,24.2,10.5C767.5,371.2,759.9,367.9,751.5,364.4"/>
			<path id="Path_2203" class="st0" d="M690.5,506.4c9.7,5.4,15.5,15.9,16.9,26.4c1.5,11-2.5,21.5,1.1,30.3c1.6,4.5,4.5,9.1,6,14.7
				c4.4,16.3-6.3,31.1-7.3,46.8c-1,9.9-0.1,20.7-3.3,31.6c-3.1,10.3-8.4,19.2-11.3,29.3c-5.9,19.5-6.4,40.5-7.6,61.3
				c-2-20.7-3.3-41.9,1.7-62.8c2.3-10.6,7.6-20.2,10-29.6c2.6-9.4,1.7-19.6,2.6-30.4c0.8-15.2,11.4-29.5,8.5-44.6
				c-1-4.5-3.6-9.2-5.2-14.5c-3.5-10.4,1.4-21.4,0.9-31.7C703.2,523.2,699,513,690.5,506.4"/>
			<path id="Path_2204" class="st0" d="M758.3,698c2.2,8.5,1.3,17.5-2.7,25.3C756,714.9,756.9,706.4,758.3,698"/>
			<path id="Path_2205" class="st0" d="M713.1,430c7.1-4.1,17.9-1.5,22.1,5.4C728.6,431.4,720.9,429.5,713.1,430"/>
			<path id="Path_2206" class="st0" d="M705.3,376.4c11-0.5,22.5,4.6,29.2,13C725.4,383.6,715.6,379.2,705.3,376.4"/>
			<path id="Path_2207" class="st0" d="M307.3,553.7c4.6-2.5,9.9-3.3,15-2.4C317.8,553.8,312.5,554.6,307.3,553.7"/>
			<path id="Path_2208" class="st0" d="M362.5,545.7c8.5-3.1,17.6-4.1,26.6-3C380.4,545,371.4,546,362.5,545.7"/>
			<path id="Path_2209" class="st0" d="M220.9,518.2c14.7,10.2,32,16.2,49.9,17.2C252.8,538,233.1,531.2,220.9,518.2"/>
			<path id="Path_2210" class="st0" d="M200.5,555.6c25.1-1.4,50.2-1.2,75.3,0.8C250.7,557.8,225.6,557.5,200.5,555.6"/>
			<path id="Path_2211" class="st5" d="M133,561.2c-0.8,8.8-2.8,17.4-5.8,25.7"/>
			<path id="Path_2212" class="st0" d="M149.1,541.2c1.6,4,1.4,8.5-0.6,12.4C146.9,549.6,147.1,545.1,149.1,541.2"/>
			<path id="Path_2213" class="st0" d="M161,523.3c2,8.1,2.3,16.5,0.8,24.8C159.7,540,159.4,531.6,161,523.3"/>
			<line id="Line_279" class="st5" x1="125.2" y1="495.8" x2="125.2" y2="512.3"/>
			<path id="Path_2214" class="st0" d="M133.2,413.3c1.2,19.1,1.6,38,1.3,57.1C131.3,451.5,130.8,432.3,133.2,413.3"/>
			<path id="Path_2215" class="st0" d="M151.8,366.5c1.8,7.2,1.8,14.8,0,22C150,381.3,150,373.8,151.8,366.5"/>
			<path id="Path_2216" class="st0" d="M169,378.9c1.4,11.6,1.6,23.4,0.4,35.1C167,402.4,166.9,390.5,169,378.9"/>
			<path id="Path_2217" class="st0" d="M182.8,461.5c0,7.3,3.4,13.3,9.7,17.3C184.4,478.5,178.6,468.2,182.8,461.5"/>
			<path id="Path_2218" class="st0" d="M178.2,493.8c2.7,11.5,11.2,20.3,22.9,23.9C188.5,518,176.9,505.8,178.2,493.8"/>
			<path id="Path_2219" class="st5" d="M73.7,632.2c7.5-1.9,15.2-2.7,22.9-2.2"/>
			<line id="Line_280" class="st5" x1="96.6" y1="596.2" x2="118.1" y2="596.2"/>
			<path id="Path_2220" class="st0" d="M155.5,563.9c3.9,7.3,3.6,20.4-6.6,22.3C156.6,581.1,155.3,572,155.5,563.9"/>
			<path id="Path_2221" class="st0" d="M332.6,505.3c11.4-4.8,23.3-7.9,35.5-9.3C356.7,500.7,344.8,503.8,332.6,505.3"/>
			<path id="Path_2222" class="st0" d="M550.4,184.3c1.1,7.5,0.8,15.2-0.8,22.7C547.7,199.5,547.9,191.6,550.4,184.3"/>
			<path id="Path_2223" class="st0" d="M545.3,244.8c1.8,8.9,1.8,18,0,26.8C543.5,262.8,543.5,253.6,545.3,244.8"/>
			<path id="Path_2224" class="st0" d="M544.6,303.9c1.8,10.2,1.8,20.7,0,31C542.8,324.7,542.8,314.2,544.6,303.9"/>
			<path id="Path_2225" class="st0" d="M494.4,340.4c2.1,7.4,2,15.3-0.3,22.7C492.8,355.6,492.9,347.9,494.4,340.4"/>
			<path id="Path_2226" class="st0" d="M526.7,298.4c1.8,6.1,1.8,12.5,0,18.6C524.9,310.9,524.9,304.5,526.7,298.4"/>
			<path id="Path_2227" class="st0" d="M561.2,410.3c7.7,0.3,14.1-2.4,19.2-8C578.9,410,568.1,414.5,561.2,410.3"/>
			<path id="Path_2228" class="st0" d="M578.4,392.6c10.7,0.8,17.8-7.9,25-14c7.7-6.6,16.2-11.9,25.5-16c9.3-4,19.2-6.7,29.3-8
				c10-1.5,20.3,0.5,29.9-3.1c-4.5,2.3-9.7,3-14.7,3.5c-25,1-49.5,9.5-68.7,25C597.3,385.8,589,394.6,578.4,392.6"/>
			<path id="Path_2229" class="st0" d="M804.8,462.1c1.8,4.2,1.8,8.9,0,13.1C803.1,471,803.1,466.3,804.8,462.1"/>
			<path id="Path_2230" class="st0" d="M599.8,491.7c9.6-1.9,19-4.5,28.2-7.8C620.2,490.4,609.9,493.3,599.8,491.7"/>
			<path id="Path_2231" class="st0" d="M183.7,197.4c1.8,13.5,1.8,27.1,0,40.6C181.9,224.5,181.9,210.9,183.7,197.4"/>
			<path id="Path_2232" class="st5" d="M126.2,190.2c1.3,15.2,0.8,30.4-1.2,45.5"/>
			<line id="Line_281" class="st5" x1="121.5" y1="314.5" x2="121.5" y2="369.4"/>
			<line id="Line_282" class="st5" x1="522.5" y1="111.4" x2="522.5" y2="147.2"/>
			<path id="Path_2233" class="st0" d="M524.9,209.3c0.9,14.5,1.3,29.1,1.2,43.7c-1.7,12.9-8.6,24-12.9,36
				c-1.4,3.6-2.8,7.3-3.3,11.1c-0.1-3.9,1-7.7,2.1-11.5c3.2-10.7,8.7-22.2,11.2-33c0.7-3.1,0.3-8.1,0.5-11.4
				C523.9,232.6,524.2,221,524.9,209.3"/>
			<line id="Line_283" class="st5" x1="539.9" y1="116.2" x2="539.9" y2="140"/>
			<path id="Path_2234" class="st5" d="M79.2,648.9c-8.1-11.3-18.3-21.1-29.9-28.7c5-0.4,32.1-19.7,34.5-24"/>
			<path id="Path_2235" class="st0" d="M779,646.6c1.8,11.9,1.8,24,0,35.8C777.2,670.6,777.2,658.5,779,646.6"/>
			<path id="Path_2236" class="st5" d="M723.9,737.4c1.3,14.4,0.9,28.8-1.2,43.1"/>
			<path id="Path_2237" class="st0" d="M791.6,704c-0.1,14.1,3.2,28.1,9.8,40.6C791.6,733.8,787.7,717.8,791.6,704"/>
			<path id="Path_2238" class="st0" d="M810.1,658.6c-1.2,37.4-4.2,79,20.7,110.6c-1.6-1.8-3.3-3.7-4.8-5.5
				C803.1,733.5,805.5,693.7,810.1,658.6"/>
			<path id="Path_2239" class="st6" d="M735.4,355.3c-0.8,6.9,3.3,13.5,8.1,18.7c13.7,14.6,35.4,22.1,55.7,19.1
				c4.6-0.7,9.7-2.3,11.7-6.3c3.1-5.9-2.4-12.6-7.7-16.8C793.4,362,738.8,324.6,735.4,355.3z"/>
			<path id="Path_2240" class="st0" d="M700.6,754.2c3.6,12.8,0.1,26-6.3,37.3c-5.8,11.5-13.8,21.8-23.6,30.2l-0.6-0.5
				c7.8-9.6,14-20.5,18.4-32.1c3.8-11.9,6.4-23.1,11.3-35L700.6,754.2"/>
			<path id="Path_2241" class="st4" d="M822.6,740.9c-5,21.9,6,46.2,26,57.7"/>
			<path id="Path_2242" class="st0" d="M727.3,749.6c13.5,28-13.6,55.6-32.2,74.7l-0.6-0.5c8.1-11.3,16.5-22.7,22.3-35.2
				c5-12.5,8.3-25.5,9.7-38.9L727.3,749.6"/>
			<path id="Path_2243" class="st0" d="M808.3,702.1c3.6,10.1,4,20.9,3.9,31.2c-0.5,17.6-3.8,35.6,5.9,51.4
				c6.7,11.1,17.3,19.7,22.7,31.9L840,817c-7.9-13.6-23.2-22.4-29.9-37c-8.9-19.4-6.6-41.9-3.9-62.3c0.5-5.1,1-10.1,1.4-15.4
				L808.3,702.1z"/>
			<path id="Path_2244" class="st0" d="M790.8,816.7c-12.2-22.9-14.9-49.6-10.2-74.7l6.4,0.3c-0.2,7.3-2,14-4.1,20.5
				c-4.1,12.8-10.2,25-13,38.1c-1.4,6.5-0.5,14.4-6.5,19l-0.5-0.6c2.5-2.2,3.5-5.5,3.8-8.7c0.3-10.2,2.1-20.3,5.3-29.9
				c3.7-12.5,8.8-25.4,8.5-38.4l6.4,0.3c-1.5,18.4-0.3,36.8,1.8,55.2c0.8,6.1,1.8,12.3,2.8,18.6L790.8,816.7z"/>
			<path id="Path_2245" class="st0" d="M754.4,755.4c0.6,4.9,0.1,11.3-0.4,16.2c-2,15.8-6.8,31.3-14.7,45.3
				c-3.5,6.2-7.4,12.3-11.6,18.1l-5.2-3.2C737.9,808.6,745.7,781.4,754.4,755.4 M754.2,756.1c-0.1,2.9-1,7-1.6,9.9
				c-5.7,23.8-12.3,47.6-25,69l-5.2-3.2c12.6-20.7,21.4-43.2,28.5-66l1.5-5C752.9,759.2,753.9,757.9,754.2,756.1"/>
			<path id="Path_2246" class="st6" d="M757.4,351.4c0.4,15.1,15.8,28.4,31.5,27.1c-5.1-11.5-16.4-20.3-29.2-22.7"/>
			<path id="Path_2247" class="st0" d="M767.9,751.2c3.9,13.2,2.3,26.6-1.3,39.6c-2.9,13-7,25.6-12.2,37.9l-0.7-0.2
				c2.9-12.8,5.2-25.6,6.8-38.6c0.9-13.2,2.1-25.9,6.7-38.6L767.9,751.2"/>
			<path id="Path_2248" class="st0" d="M802.3,749.8c2.8,12.8,4,24.6,7,37.2c3.6,12.3,9.8,23.8,18,33.6l-0.6,0.5
				c-15.1-13-26.5-32.1-28.7-51.6c-0.3-6.7,0.6-13.6,3.5-19.8L802.3,749.8z"/>
			<path id="Path_2249" class="st0" d="M834.2,738c2.7,13.8,1.1,27.3,3.6,40.8c1.7,6.5,4.6,12.7,8.7,18.1c4,5.7,8.8,11.1,12.8,17
				l-0.6,0.4c-9.9-10.4-22.4-19.8-26.9-33.9c-5.4-13.9-4.2-29,1.6-42.5L834.2,738"/>
			<path id="Path_2250" class="st0" d="M691.1,740.8c4,14.3,0.9,29.2-5.3,42.5c-5.6,13.4-13.6,25.7-23.5,36.4l-0.6-0.5
				c7.9-11.7,14-24.4,18.2-37.9c3.6-13.7,5.9-26.8,10.4-40.5L691.1,740.8"/>
			<path id="Path_2251" class="st6" d="M771.1,366.6c1.1,1.1,2.5,2,4,2.6c-1.3-1.3-2.7-2.3-4.3-3.1"/>
			<path id="Path_2252" class="st6" d="M762.5,376.8c3.8,2.7,8.1,4.7,12.3,6.7c4,1.9,8.2,3.8,12.7,4.2c2.4,0.3,4.8-0.1,6.9-1.2
				c2-1.2,3.6-3.4,3.3-5.6c-0.2-1.7-1.3-3.2-2.4-4.6c-3.2-4.1-6.7-8-10.4-11.7c-3.7-3.7-7.7-7.2-12.6-9.1c-2.5-0.9-5.2-1.6-7.8-2
				c-3-0.7-6.1-1.1-9.2-1c-1.9,0.1-7.5,0.8-7.6,3.3c0,0.8,1,1.8,1.4,2.5c0.6,1.3,0.9,2.7,1.5,4C753.2,368.1,757.3,373.1,762.5,376.8
				L762.5,376.8z"/>
			<path id="Path_2253" class="st0" d="M699.4,678.8c-0.4,11.5,0.4,23.1,2.3,34.4c1.4,8.5,4,17,4.6,25.7c0.2,2.9,0,5.9-0.4,8.7
				c0-2.9-0.3-5.8-0.8-8.6c-1.4-8.6-4.5-16.8-5.9-25.4C697.1,702.1,697.2,690.3,699.4,678.8"/>
			<path id="Path_2254" class="st5" d="M719.9,686.5c-0.9,29.6-0.3,59.2,1.9,88.7"/>
			<path id="Path_2255" class="st5" d="M745.9,708c-1.1,17.3,3.6,34.4,5.8,51.6c2.2,17.2,1.3,36-9.5,49.9"/>
			<path id="Path_2256" class="st5" d="M796.8,708.9c-1.3,14.5-1.2,29.3,1.9,43.5c3.1,14.3,9.4,28.1,19.5,39"/>
			<path id="Path_2257" class="st0" d="M808.5,690.2c5.4,16.6,10,33.3,14.5,50.1c4.4,16.7,8.4,33.8,18.2,48.5
				c-11.5-13.7-16.3-31.2-20.7-47.9C816.1,724.1,811.9,707.2,808.5,690.2"/>
			<line id="Line_284" class="st5" x1="766.6" y1="658.1" x2="766.6" y2="750.3"/>
			<path id="Path_2258" class="st0" d="M806.2,562.4c0.5,36.1-0.7,73.4,13.8,107.3c2,4.8,4.4,9.5,7,14.1
				C802.2,648.4,803,603.3,806.2,562.4"/>
			<path id="Path_2259" class="st0" d="M720.5,627.2c-2.8,25.5-5.6,51-7.4,76.6c-1.1,12.8-1.8,25.5-2.5,38.4
				c-0.9,12.5-2.3,26.7-12.1,36.1c8.9-10,9.6-23.6,10.1-36.2c0.3-12.8,1.1-25.6,1.9-38.5C712.6,678,715.6,652.5,720.5,627.2"/>
			<path id="Path_2260" class="st0" d="M106.3,298.9c8.2,23.9-4.3,48.3-9.3,71.6c-6.1,23.3-5.8,47.9-1.1,71.5
				c6.5,35.8,13.6,73.2,4.1,109.2c-3.1,12.1-8.4,23.4-15.7,33.5l-0.7-0.4c15.4-33.6,13.7-70.1,10.9-105.7c-2.4-24-3.7-48.4-4.8-72.6
				c-0.4-12.1-1-24.5,0.9-36.7c1.4-10.8,6.7-24.8,9.9-35.2c3.6-11.4,6.3-23,5-35.1L106.3,298.9z"/>
			<path id="Path_2261" class="st0" d="M494.7,372.5c-1.7,14.8-8.4,28.5-19.1,38.9C483.3,399.1,489.7,386.1,494.7,372.5"/>
			<path id="Path_2262" class="st0" d="M380.8,478.4c16.1-4.1,31.2-11.4,44.2-21.7C414.5,469.5,397.7,477.8,380.8,478.4"/>
			<path id="Path_2263" class="st5" d="M547.5,340.8c-2.4,20-1.6,40.2,2.3,59.9"/>
			<path id="Path_2264" class="st0" d="M553.2,221.3c1.8,11.2,1.8,22.6,0,33.8C551.4,243.9,551.4,232.5,553.2,221.3"/>
			<path id="Path_2265" class="st0" d="M521.5,163.6c2.5,10.4,3.3,21.2,2.2,31.8C521.2,185.1,520.4,174.3,521.5,163.6"/>
		</g>
	</g>
</g>
<text transform="matrix(1 0 0 1 237.2372 170.6147)" class="st7 st8 st2"> Having the knowledge of these </text>
<text transform="matrix(1 0 0 1 258.1083 201.9057)" class="st7 st8 st2">trail trees could mean the </text>
<text transform="matrix(1 0 0 1 227.6933 233.1963)" class="st7 st8 st2">difference between life and death, </text>
<text transform="matrix(1 0 0 1 244.163 264.4868)" class="st7 st8 st2">between eating and starving, </text>
<text transform="matrix(1 0 0 1 224.0536 295.7778)" class="st7 st8 st2">between crossing the river correctly </text>
<text transform="matrix(1 0 0 1 303.5316 327.0678)" class="st7 st8 st2">or incorrectly</text>
<text transform="matrix(1 0 0 1 284.2148 358.3589)" class="st7 st1 st2">- Dennis Downes</text>
</svg>
