<?xml version="1.0" encoding="utf-8"?>
<!-- Generator: Adobe Illustrator 26.3.1, SVG Export Plug-In . SVG Version: 6.00 Build 0)  -->
<svg version="1.1" id="Layer_1" xmlns="http://www.w3.org/2000/svg" xmlns:xlink="http://www.w3.org/1999/xlink" x="0px" y="0px"
	 viewBox="0 0 595.3 595.3" style="enable-background:new 0 0 595.3 595.3;" xml:space="preserve">
<style type="text/css">
	.st0{fill:#020203;}
	.st1{font-family:'GaramondPremrPro-It';}
	.st2{font-size:14.948px;}
	.st3{font-family:'GaramondPremrPro';}
	.st4{clip-path:url(#SVGID_00000125569817815080433500000001936015481256444590_);}
	.st5{fill:none;stroke:#020203;stroke-width:2;stroke-miterlimit:10;}
	.st6{fill:none;stroke:#020203;stroke-miterlimit:10;}
	.st7{fill:none;stroke:#020203;stroke-linecap:round;stroke-miterlimit:10;}
</style>
<text transform="matrix(1 0 0 1 153.1074 110.3056)" class="st0 st1 st2"> Having the knowledge of these </text>
<text transform="matrix(1 0 0 1 168.0625 132.727)" class="st0 st1 st2">trail trees could mean the </text>
<text transform="matrix(1 0 0 1 146.2695 155.1493)" class="st0 st1 st2">difference between life and death, </text>
<text transform="matrix(1 0 0 1 158.0703 177.5717)" class="st0 st1 st2">between eating and starving, </text>
<text transform="matrix(1 0 0 1 143.6602 199.9941)" class="st0 st1 st2">between crossing the river correctly </text>
<text transform="matrix(1 0 0 1 200.6123 222.415)" class="st0 st1 st2">or incorrectly</text>
<text transform="matrix(1 0 0 1 186.7705 244.8378)" class="st0 st3 st2">- Dennis Downes</text>
<g id="Group_297">
	<g>
		<defs>
			<rect id="SVGID_1_" x="5.7" y="8.4" width="579.5" height="578.4"/>
		</defs>
		<clipPath id="SVGID_00000167375955761118505460000010061524676944191891_">
			<use xlink:href="#SVGID_1_"  style="overflow:visible;"/>
		</clipPath>
		<g id="Group_296" style="clip-path:url(#SVGID_00000167375955761118505460000010061524676944191891_);">
			<path id="Path_2083" class="st5" d="M131.7,50.8c-6.7,82.7,3,123.4,0,206.3c-0.8,22.6-1.4,45.9,6.5,67s26.5,39.7,48.7,40.3
				c9.5,0.2,18.8-2.7,27.8-5.8c34.1-11.3,69.4-24.2,94.4-50.5c8.9-9.4,16.2-20.3,20.6-32.6c4.4-12.4,5.7-25.7,7-38.8
				c6.2-65.6,15-150.8,21.2-216.4"/>
			<path id="Path_2084" class="st5" d="M66.9,65.5c1.6,37-0.8,29.7,0.8,66.7c1.1,25.5,2.2,51-0.8,76.3c-2.3,19-6.9,37.8-9.3,56.8
				c-6.2,49.1,2.6,99.1-3.7,148.2c-0.5,3.6-1.1,7.4-3.2,10.4c-6.5,9.2-21.4,6-31.9,10.7c-11.4,5.2-15.2,21.5-7,30.8
				c7.7,8.8,24.2,13.7,22,25c25.9-7.1,51.7-14.3,77.6-21.4c19.1-5.3,38.3-10.6,56-19.2c18.2-8.9,34.5-21,52.4-30.4
				c26.8-13.9,56.7-21,86.2-28.1l99.5-23.7c23.9-5.7,53.3-9.9,69.5,7.9c15.3,16.8,8.9,42.4,3.4,64.1
				c-10.3,40.6-14.2,82.5-11.5,124.3"/>
			<path id="Path_2085" class="st5" d="M576.6,557.7c-16.6-66.3-20.3-135.2-10.8-202.9c1.7-12.3,2.9-27.1-7.3-34.7
				c-2.8-2.1-6.3-3.4-9-5.7c-8.9-7.3-4-24,7.5-26c5.8-6.3,2.7-16.7-3.5-22.6c-6.2-5.9-14.7-9-22.1-13.5c-6-3.7-11.7-8.6-18.8-9.4
				c-7.7-0.9-14.9,3.1-21.6,6.8c-34.3,18.8-71.5,31.6-110.1,38c-0.9-90.6,3.9-152.5,14.7-242.5"/>
			<path id="Path_2086" class="st0" d="M445.5,316.7c16.6-0.1,36,1.7,47.2,14.8c0.7,0.9,1.3,1.8,1.9,2.7
				C482.6,320.5,462.8,319,445.5,316.7"/>
			<path id="Path_2087" class="st0" d="M517,328.3c13.3,8.3,21.8,23.1,22.6,38.2c0,1,0,2,0,3c-0.3-1.7-0.7-4.2-1.1-5.9
				C535.5,350.1,527.8,337.6,517,328.3"/>
			<path id="Path_2088" class="st0" d="M472.3,337c11.2,7.8,18.5,20.3,20.4,33.4c1.8,12.9,5.3,26,3.7,39.1c0.1-3.3-0.1-6.5-0.5-9.8
				c-0.6-6.5-3.8-22.4-4.9-29.1C489.3,357.8,482.4,345.7,472.3,337"/>
			<path id="Path_2089" class="st0" d="M506.2,418.3c2.8,6.5,4.6,13.5,5,20.6C508.4,432.4,506.7,425.5,506.2,418.3"/>
			<path id="Path_2090" class="st0" d="M499.6,455.3c1,7.8-0.3,15.7-3.8,22.8C496.9,470.3,498.2,463,499.6,455.3"/>
			<path id="Path_2091" class="st0" d="M482.4,454.5c1.9,7.1,1.3,14.6-1.6,21.4C481.3,468.7,481.8,461.8,482.4,454.5"/>
			<path id="Path_2092" class="st0" d="M495.2,478.3c3.1,7.9,0.8,17.9-5.5,23.8C493.9,494.8,495.8,486.6,495.2,478.3"/>
			<path id="Path_2093" class="st0" d="M507.8,513.7c1.5,6.8,1.4,13.9-0.2,20.7C506.8,527.5,506.9,520.5,507.8,513.7"/>
			<path id="Path_2094" class="st0" d="M550.5,513.1c3.8,7.9,8,15.5,12.8,22.8C556.5,530,552,521.9,550.5,513.1"/>
			<path id="Path_2095" class="st0" d="M520.8,498.2c3.2,8.7,4.1,18.1,2.6,27.3C522.4,516.3,521.5,507.4,520.8,498.2"/>
			<path id="Path_2096" class="st0" d="M505.6,419.1c0.3,4.8,2.7,9,5,13.1c7.4,12.4,9.7,27.8,5.3,41.5c1.6-9.3,1.1-18.8-1.3-27.8
				C512.7,436.6,505.1,428.7,505.6,419.1"/>
			<path id="Path_2097" class="st0" d="M510.4,306.7c-1.5,6.7,6.4,9.4,10,13.9c1.4,1.7,2,3.7,2.8,5.6c2,5.5,3.3,11.7,4.6,17.4
				c0.4,2,0.9,3.9,1.4,5.8c-4.2-9-5.2-19.2-10.1-27.9C515.7,317.3,507.7,313.2,510.4,306.7"/>
			<path id="Path_2098" class="st0" d="M556.8,345.5c-8.1,10-13.9,21.7-16.6,34.2c-0.4,1.6-0.7,3.8-1,5.4
				C538.8,370.3,545.4,355.4,556.8,345.5"/>
			<path id="Path_2099" class="st0" d="M494,269.5c11.4,0,22.6,8.7,24.8,19.4C514,279.1,505,272.1,494,269.5"/>
			<path id="Path_2100" class="st0" d="M522.6,277.8c4.9,0.9,8.8,5.7,8.6,10.4C529,284.2,526,280.7,522.6,277.8"/>
			<path id="Path_2101" class="st0" d="M505.6,260.4c6.3-3.3,12.9,2.7,15.2,8C516.3,264.6,512.2,259.8,505.6,260.4"/>
			<path id="Path_2102" class="st0" d="M444.8,318.7c10.9-0.7,22.2-1.3,32.7,2.4c21.8,7.7,30,32.4,29,52.9
				c-0.8,21.1-7,41.5-6.5,62.7c-0.3,15.7,1.9,31.6-0.5,47.3c-0.9,5.3-2.9,10.2-4.9,15.1c-4.2,9.7-5.6,20.4-4,30.8
				c-2.1-10.3-0.8-21.2,3.1-31.1c1.9-4.9,3.9-9.8,4.6-15c2.1-15.6-0.3-31.4,0-47.1c0-10.6,0.8-21.1,2.6-31.5
				c3.4-20.4,7.6-42.1-1.6-61.7C488.8,320.3,468.6,317.4,444.8,318.7"/>
			<path id="Path_2103" class="st0" d="M421.5,330.7c-25.4-2.7-46.1,4.4-68,15.9l-21.2,10.4l-0.5-1.6c30.4-3.1,60.4-13.5,91.3-10.8
				c-32.2-1.4-64.2,10.2-96,13c14.4-6.7,32.5-16.5,47.3-22.1C389.5,330.2,405.7,328.5,421.5,330.7"/>
			<path id="Path_2104" class="st0" d="M175.2,405.3c13-5.8,27.3-8,41.5-6.4C202.7,399.6,188.8,401.8,175.2,405.3"/>
			<path id="Path_2105" class="st0" d="M239.1,389.8c17-3.4,33.4-9.2,48.9-17.1c1-0.5,2-1.1,3.1-1.6
				C275.7,382,257.8,388.4,239.1,389.8"/>
			<path id="Path_2106" class="st0" d="M131.2,428c6.6-0.5,12.6-3.6,16.5-8.4c2-2.4,3.1-6.1,6.6-7.2c3.4-1.2,6.8-0.5,10,0.2
				c-3.3-0.1-6.7-0.3-9.4,1c-3,1.4-3.7,4.7-5.7,7.1C144.9,425.8,137.9,428.9,131.2,428"/>
			<path id="Path_2107" class="st0" d="M132.7,440.3c14,1.6,24.6-12.3,38.8-10.3C157.8,430.4,146.8,444.3,132.7,440.3"/>
			<path id="Path_2108" class="st0" d="M188.2,415.6c10.4-3.7,18-12.2,29-14.9c10.6-2.8,22-1.5,31.8-6.9c-2.2,1.6-4.7,2.9-7.3,3.7
				c-7.7,2.6-16.3,2.7-24,4.8C207.1,404.9,198.9,413.2,188.2,415.6"/>
			<path id="Path_2109" class="st0" d="M330.6,367.8c16.7,0.5,31.9-7.6,48.4-9c1.1-0.1,2.2-0.1,3.3-0.1c-1.1,0.2-2.2,0.4-3.2,0.6
				l-3.2,0.7C361.4,363.3,345.9,370.5,330.6,367.8"/>
			<path id="Path_2110" class="st0" d="M374.6,348.7c10.6,1,20.5-5.8,29.4-10.4c3.1-1.6,6.3-3.2,9.6-4.6
				C402.8,340.5,388.3,352.2,374.6,348.7"/>
			<path id="Path_2111" class="st0" d="M435.5,327.1c4.8,0.6,9.6,1.3,14.1,3.1c4.6,1.6,8.4,5,11.7,8.3c4.8,5.2,12.6,7,16.7,13
				c1.3,2,2.1,4.4,1.6,6.7c0-2.3-0.8-4.5-2.3-6.2c-4.5-5.5-12.4-7-17.2-12.3c-3.3-3.3-6.6-6.4-11-8.3
				C444.8,329.5,440.1,328.4,435.5,327.1"/>
			<path id="Path_2112" class="st0" d="M503.4,362.2c-1.4,13.7-2,27.5-1.3,41.3l0.3,5.9C499,393.8,499.3,377.6,503.4,362.2"/>
			<path id="Path_2113" class="st0" d="M521.2,374.1c2.4,7.8,3.5,16,2.4,24.1c-0.9,8-2.5,15.9-0.3,23.9c-0.8-1.9-1.5-3.8-1.8-5.8
				c-1-6-0.2-12.2,0.4-18.2C523,390,522.3,382.1,521.2,374.1"/>
			<path id="Path_2114" class="st0" d="M548.9,351.1c-8.2,16.1-6.7,35.1-6.3,52.5c-0.4-2.2-0.7-4.4-1-6.7
				C539.7,381.5,539.6,364.5,548.9,351.1"/>
			<path id="Path_2115" class="st0" d="M515.6,326.7c0.2,7.6,8.9,13.7,6,21.5C521.9,340.4,513.2,334.5,515.6,326.7"/>
			<path id="Path_2116" class="st0" d="M522,278.5c4.8,5.6-1.9,15-2.9,21.1l-0.9,4.5c-1-7.4-3.5-14.5-9.2-19.9
				c-1.4-1.4-3-2.8-4.7-3.9c7.7,3.6,13.1,10.6,14.7,18.9l-1.7,0c0.7-3.3,2.7-7.4,3.9-10.5C522.5,285.5,524.1,281.7,522,278.5"/>
			<path id="Path_2117" class="st0" d="M531.8,308.9c5.9,3.8,10,10.3,10.6,17.1C539.5,319.9,535.9,314.2,531.8,308.9"/>
			<path id="Path_2118" class="st0" d="M404.1,295.2c14-14.3,33.2-23.8,53.4-26.9c1.3-0.2,2.7-0.3,4-0.5c-2.3,0.5-5.6,1.3-7.9,2
				C435.6,274.7,418.7,283.4,404.1,295.2"/>
			<path id="Path_2119" class="st0" d="M296.9,335.8c6.8-3.3,13.2-6.4,20-9.8C311.4,331.3,304.4,334.7,296.9,335.8"/>
			<path id="Path_2120" class="st0" d="M378.7,319.7c8.2-3.9,17.4,2.4,25.8,1.4l7.7-0.9c-10.1,3.6-20.6,7.1-31.3,8.9l11.7-3.9
				c3.9-1.3,7.8-2.6,11.7-4l0.4,1.6C395.7,323.9,387.5,317.2,378.7,319.7"/>
			<path id="Path_2121" class="st0" d="M516.2,391.7c1.9,6.7,2.5,13.7,1.9,20.7C516.3,405.7,515.6,398.7,516.2,391.7"/>
			<path id="Path_2122" class="st0" d="M525.6,430.9c1.2,5.8,1.2,11.9,0,17.7C524.4,442.8,524.4,436.7,525.6,430.9"/>
			<path id="Path_2123" class="st0" d="M533,395.6c3.4,13.8,6.1,27.8,6.8,41.9c0.4,7-0.5,14.2-0.1,21.2c0.5,7,3.6,13.6,6.4,20
				c-1.8-3.1-3.4-6.3-4.9-9.5c-4.7-10-2.4-21-3.1-31.6C537.5,423.8,534.9,409.4,533,395.6"/>
			<path id="Path_2124" class="st0" d="M548.7,358.5c-0.6,10.4-1,20.6-1.4,31C545.2,379.2,545.7,368.5,548.7,358.5"/>
			<path id="Path_2125" class="st0" d="M477.2,350.7c7.8,11.8,12.2,25.4,12.7,39.5C487,376.6,482.7,363.4,477.2,350.7"/>
			<path id="Path_2126" class="st0" d="M430.8,351c11.3-0.3,22.9,5.2,29.4,14C451.8,357.9,441.7,353,430.8,351"/>
			<path id="Path_2127" class="st0" d="M112.7,424.2c6.9-0.9,13.9-1,20.8-0.2C126.7,425.6,119.6,425.6,112.7,424.2"/>
			<path id="Path_2128" class="st0" d="M131.9,413.9c7-0.8,13.9-2.1,20.7-3.9C146.6,414.1,139.1,415.5,131.9,413.9"/>
			<path id="Path_2129" class="st0" d="M96.5,348.9c1.2,3.6,1.2,7.5,0,11.1C95.3,356.3,95.3,352.4,96.5,348.9"/>
			<path id="Path_2130" class="st0" d="M93.4,371.8c1.2,4.1,1.2,8.5,0,12.6C92.2,380.2,92.2,375.9,93.4,371.8"/>
			<path id="Path_2131" class="st0" d="M111.1,310.4c-1.7,17.5-2.8,36.4-3.2,53.9C105.9,346.3,107,328.1,111.1,310.4"/>
			<path id="Path_2132" class="st0" d="M121.6,369.7c6.1,11,7.8,23.9,4.6,36C127,393.5,125.4,381.3,121.6,369.7"/>
			<path id="Path_2133" class="st0" d="M95.7,187.7c1.5,18.9,1.9,37.9,1,56.9C95.1,225.7,94.8,206.7,95.7,187.7"/>
			<path id="Path_2134" class="st0" d="M85.7,261.6c-0.2,18-4.4,35.8-8.5,53.2C78.9,297.3,83.2,279.1,85.7,261.6"/>
			<path id="Path_2135" class="st0" d="M120.5,93.1c0.8,12.6,0.9,25.1,0.4,37.7C119,118.4,118.8,105.7,120.5,93.1"/>
			<path id="Path_2136" class="st0" d="M100.4,153.7c1.2,9.3,1.2,18.8,0,28.1C99.1,172.5,99.1,163.1,100.4,153.7"/>
			<path id="Path_2137" class="st0" d="M352.3,153.7c1.2,9.1,1.2,18.3,0,27.3C351,172,351,162.8,352.3,153.7"/>
			<path id="Path_2138" class="st0" d="M351.5,202.5c1.2,8.1,1.2,16.3,0,24.4C350.3,218.8,350.3,210.6,351.5,202.5"/>
			<path id="Path_2139" class="st0" d="M345.3,244.6c0.9,10.1,0.6,20.3-0.9,30.3C343.5,264.8,343.8,254.7,345.3,244.6"/>
			<path id="Path_2140" class="st0" d="M360.2,258c0.3,17.7,0.1,36.3-0.7,54C357.9,294,358.1,275.9,360.2,258"/>
			<path id="Path_2141" class="st0" d="M322.5,319.5c5.2-5.3,9-11.8,10.9-19l1.5-5.7l0.2,5.9c0.9,5.8,6.1,10.5,6.6,16.5
				c0,2.2-1.2,4-2.2,5.9c-1.4,2.4-3.5,4.3-6,5.5c3.7-2.6,6.5-6.9,6.8-11.3c-0.8-4.4-4-8.3-5.8-12.5c-0.7-1.3-1-2.7-1.2-4.2l1.7,0.2
				C332.9,308.3,328.5,314.8,322.5,319.5"/>
			<path id="Path_2142" class="st0" d="M267.5,352.5c5.7-2,11-3.7,16.8-5.4C279.6,350.9,273.6,352.8,267.5,352.5"/>
			<path id="Path_2143" class="st0" d="M299.2,342.4c4.5-2.5,8.8-5.3,13-8.4C309.8,338.7,304.6,342.1,299.2,342.4"/>
			<path id="Path_2144" class="st0" d="M204.4,376.1c6.1-0.5,11.6-1.2,17.7-2.2C216.7,377.2,210.3,378,204.4,376.1"/>
			<path id="Path_2145" class="st0" d="M174.3,409.1c15.5-3.8,31.3-6.4,47.2-7.9C205.9,405,190.1,407.7,174.3,409.1"/>
			<path id="Path_2146" class="st0" d="M377.7,328.9c7-3.1,14.7-4.4,22.3-3.7C392.6,326.9,385.2,328.1,377.7,328.9"/>
			<path id="Path_2147" class="st0" d="M384.7,312.2c9.1-2,18.3-4.7,26.6-8.7c5.5-3,8.5-8.6,13.3-12.6c5-4.1,12-4.1,17.7-6.8
				c2.8-1.2,5.5-3,7.2-5.5c-1.4,2.8-4,4.8-6.8,6.3c-5.5,3-12.2,3.2-17,7.2c-4.7,4-7.8,9.7-13.6,12.7
				C403.4,308.8,394.1,311.2,384.7,312.2"/>
			<path id="Path_2148" class="st0" d="M430.9,316.8c11.6,2.1,22.4-8.9,33.9-3.9c3.5,1.4,6.7,4,10.6,3.3c-1.8,0.7-3.9,0.4-5.8-0.1
				c-3.6-1.2-6.9-3-10.7-2.9C449.6,313.3,440.4,320.2,430.9,316.8"/>
			<path id="Path_2149" class="st0" d="M492.5,303c4.3-1.7,9.7-0.7,12.9,2.6C501.1,304.5,496.8,303.7,492.5,303"/>
			<path id="Path_2150" class="st0" d="M535,271.4c0.3-0.6,1.3-0.7,1.9-0.4c2,0.9,2.6,3.1,3,4.8c0.7,2.3,0.8,4.8,0.4,7.2
				c-1-2.8-1.9-5.6-2.5-8.5C537.5,273.3,536.8,270.8,535,271.4"/>
			<path id="Path_2151" class="st0" d="M522.4,283.1c1.5,3.7,1.8,7.9,0.9,11.8C521.8,291.1,521.5,287,522.4,283.1"/>
			<path id="Path_2152" class="st0" d="M537.1,313.4c4.4,3.6,8.6,6.8,13.3,10.1C544.6,322.4,539.7,318.7,537.1,313.4"/>
			<path id="Path_2153" class="st0" d="M536.6,331.2c4.2,5.6,7.8,14.5,2.7,20.6C541.9,344.7,538.5,338.1,536.6,331.2"/>
			<path id="Path_2154" class="st0" d="M550.4,374.1c-5.6,9.3-8.5,20-8.4,30.9C539.4,394.3,542.7,382.2,550.4,374.1"/>
			<path id="Path_2155" class="st0" d="M533.8,501.8c1.7,10.3,2.9,20.5,3.8,30.9C534.3,522.8,533,512.3,533.8,501.8"/>
			<path id="Path_2156" class="st0" d="M551.4,533.6c-2.1-7.9-4.7-15.7-7.7-23.4C548.9,516.9,551.6,525.1,551.4,533.6"/>
			<path id="Path_2157" class="st0" d="M483.4,537.3c-2-8.1-1.6-17.3,3.7-24.2c1.4-2.4,2.8-4.7,3.1-7.5c0.7,5.7-3.9,10.4-5.2,15.6
				C483.4,526.2,483.7,531.7,483.4,537.3"/>
			<path id="Path_2158" class="st0" d="M454.6,537.3c-0.7-6.5,6.6-10.3,9.6-15.3c3.5-5,5.9-10.6,7.2-16.5c0,7.7-3.4,15.3-8.8,21.1
				C459.7,530,455.1,532.6,454.6,537.3"/>
			<path id="Path_2159" class="st0" d="M535,532.1c-4-6.4-6-13.8-5.6-21.4C531.5,517.9,533.3,524.8,535,532.1"/>
			<path id="Path_2160" class="st0" d="M515.3,459.7c2.4,10.1,1.9,20.6-1.6,30.4C514.8,480,515.3,469.9,515.3,459.7"/>
			<path id="Path_2161" class="st0" d="M534,450.8c1.6,10.5,1.5,21.3-0.3,31.8C533,472.1,533.1,461.4,534,450.8"/>
			<path id="Path_2162" class="st0" d="M82.7,157.7c0.8,11.9,0.9,24.1,0.8,36.1c0,2.1-0.2,5.2,0,7.1c0,3.6,3.1,6.5,3.8,10
				c0.2,1.2,0.3,2.4,0.2,3.6c-0.1-1.2-0.3-2.4-0.7-3.5c-1.2-3.4-4.4-6.1-4.7-9.9c-0.3-2.2-0.2-5.1-0.3-7.3
				C81.8,181.8,81.9,169.6,82.7,157.7"/>
			<path id="Path_2163" class="st0" d="M85.9,243.7c1.2,22,1.2,44,0,66C84.7,287.7,84.7,265.7,85.9,243.7"/>
			<path id="Path_2164" class="st0" d="M79.2,334.4c2.1,5.3,1.4,11.3-1.9,15.9l0.1-0.3c0.3,19.9-1.5,39.7-2.7,59.6
				c-0.8-17.2,0.8-42.1,1.4-59.6C79.4,345.4,80.8,339.9,79.2,334.4"/>
			<path id="Path_2165" class="st6" d="M61.9,434c-5.6,0.3-11.1,1.9-16,4.6"/>
			<path id="Path_2166" class="st0" d="M76.6,444.1c5.8-2.2,9.6-6.5,10.8-12.3C89,437.8,83,444.6,76.6,444.1"/>
			<path id="Path_2167" class="st0" d="M107.2,422.2c1.3,7.5,2.1,15.1,2.2,22.8c0.2,7.1,0.3,17.2-7.9,20.5c1.7-1,3-2.4,4-4
				c3-5,2.2-10.8,2.1-16.4C107.5,438.3,107.2,428.8,107.2,422.2"/>
			<path id="Path_2168" class="st0" d="M76.6,457.4c0.2,5.8-2.1,11.8-5.4,16.6c-2.4,2.8-6.2,4.1-9.8,4.9c4.2-2.2,8.4-4.3,10.1-8.7
				C73.5,466,75.6,461.9,76.6,457.4"/>
			<path id="Path_2169" class="st6" d="M34.8,448.7c5.3,3.9,9.8,8.9,13.3,14.5"/>
			<path id="Path_2170" class="st6" d="M47.7,472.9c2.3,0.5,4.7-0.2,6.3-2"/>
			<path id="Path_2171" class="st6" d="M55,457.3c3.9,0.6,7.8,0.4,11.6-0.5"/>
			<path id="Path_2172" class="st0" d="M87,446c8.6-1,16.7-4.8,23-10.8C105.7,442.8,95.9,447.4,87,446"/>
			<path id="Path_2173" class="st0" d="M120.9,437.3c11.3-1.4,24.4,1.5,33.8-6c-4.8,11.1-10,15.4-22.9,13.9
				c-2.9-0.3-5.7-0.5-8.6-0.4c12.8-1.7,22.1,2.9,28.6-11.5l1.3,1.1C143.4,440.2,131.5,437.2,120.9,437.3"/>
			<path id="Path_2174" class="st0" d="M117.9,424.6c6.8,0.1,13.6-1.1,19.9-3.7c4.7-1.8,9-5.1,14.1-6.3c1.7-0.4,3.5-0.4,5.2-0.1
				c-7.2,0.1-12.2,5.6-18.6,8C132.1,425.2,124.9,425.9,117.9,424.6"/>
			<path id="Path_2175" class="st0" d="M128.9,407.9c10.7-0.6,21.6,0.1,31.3-5.1C152,410.1,139.3,409.7,128.9,407.9"/>
			<path id="Path_2176" class="st0" d="M163.5,427.1c5.8-3.9,12.7-5.8,19.5-7.7c6.7-1.8,14.4-3.1,20.8,0.2
				c-6.8-1.9-13.7-0.3-20.4,1.5C177.5,422.7,169.1,424.7,163.5,427.1"/>
			<path id="Path_2177" class="st0" d="M226.6,416.8c5-3.1,10.6-5,16.5-5.6c5.7-0.9,11.7,1.1,17.1-1.5c-4.6,3.8-11.4,2.3-16.9,3.2
				C237.6,413.6,232,414.9,226.6,416.8"/>
			<path id="Path_2178" class="st0" d="M239.1,403c11.9-2.5,23.2-7.4,33.3-14.3C264,397.4,251.5,402.8,239.1,403"/>
			<path id="Path_2179" class="st0" d="M295.3,389.4c7.4-3.3,15.3-5.6,23.4-6.7C311.3,386.1,303.4,388.3,295.3,389.4"/>
			<path id="Path_2180" class="st0" d="M295.7,360.8c2.8-1.6,5.9-2.4,8.7-4c2.4-2,4.2-4.6,6.3-6.9c1.4-1.6,2.9-3.3,4.9-4.3
				c-3.6,4-5.7,9.1-10.2,12.4C302.5,359.7,299,360.1,295.7,360.8"/>
			<path id="Path_2181" class="st0" d="M275.2,356.3c1.2-1.2,2.5-1.2,3.7,0C277.8,357.4,276.4,357.4,275.2,356.3"/>
			<path id="Path_2182" class="st0" d="M334,339.2c1.2-1.2,2.5-1.2,3.7,0C336.5,340.3,335.1,340.3,334,339.2"/>
			<path id="Path_2183" class="st0" d="M329.3,354.8c0.8-1.1,1.8-1.2,2.6,0C331.1,355.9,330.1,355.9,329.3,354.8"/>
			<path id="Path_2184" class="st0" d="M355.9,330.7c8.7,0.3,10.9-10.5,18.8-12.3c4.5-1.3,9.4-0.7,13.7-2.9c-4.7,4-12.3,2.6-17,6.4
				C367.1,325.3,362.7,332.6,355.9,330.7"/>
			<path id="Path_2185" class="st0" d="M513.2,383c2.7,6.8,0.6,15.3-5,20.3C511.6,397.1,513.3,390.1,513.2,383"/>
			<path id="Path_2186" class="st0" d="M532.7,376.4c1.5,9.3,1.4,18.9-0.3,28.2C531.6,395.2,531.7,385.8,532.7,376.4"/>
			<path id="Path_2187" class="st0" d="M521.7,426.2c1.2,6.8,1.2,13.8,0,20.6C520.5,440,520.5,433,521.7,426.2"/>
			<path id="Path_2188" class="st0" d="M511.7,434.3c1.2,5.8,1.2,11.8,0,17.6C510.5,446.1,510.5,440.1,511.7,434.3"/>
			<path id="Path_2189" class="st0" d="M509.6,471c1.2,6.7,1.2,13.5,0,20.1C508.4,484.5,508.4,477.6,509.6,471"/>
			<path id="Path_2190" class="st0" d="M523.3,472.5c1.2,5.5,1.2,11.1,0,16.6C522.1,483.6,522.1,478,523.3,472.5"/>
			<path id="Path_2191" class="st0" d="M532.7,460.4c1.2,5,1.2,10.1,0,15.1C531.5,470.6,531.5,465.4,532.7,460.4"/>
			<path id="Path_2192" class="st0" d="M502.8,471.5c1.5,6.2,1.1,12.6-1,18.6C501.5,483.9,501.9,477.6,502.8,471.5"/>
			<path id="Path_2193" class="st0" d="M493.9,445.3c1.2,8.5,1.2,17.1,0,25.7C492.7,462.5,492.7,453.8,493.9,445.3"/>
			<path id="Path_2194" class="st0" d="M512.8,368.9c1.2,8.7,1.2,17.5,0,26.2C511.6,386.3,511.6,377.5,512.8,368.9"/>
			<path id="Path_2195" class="st0" d="M493.9,342.7c1.2,3.4,1.2,7.1,0,10.6C492.7,349.8,492.7,346.1,493.9,342.7"/>
			<path id="Path_2196" class="st0" d="M440.9,303.6c4.8,1,9.1,3.5,12.3,7.1C448.7,309.2,444.5,306.7,440.9,303.6"/>
			<path id="Path_2197" class="st0" d="M403.8,294c4.2-3.7,9.5-5.8,15.1-5.9C414,290.5,409,292.4,403.8,294"/>
			<path id="Path_2198" class="st0" d="M420,281.9c4.7-1.5,9.8-1.9,14.7-1.1C429.9,282.3,424.9,282.7,420,281.9"/>
			<path id="Path_2199" class="st0" d="M458.2,268.7c-4.5,0.3-9,0.8-13.5,1.8l-0.3-1.5c9.8-0.9,18.6,4.1,27.9,6.1
				c-9.4-0.2-18.3-4.9-27.7-4.6l-0.3-1.5C449,268.3,453.7,268.2,458.2,268.7"/>
			<path id="Path_2200" class="st0" d="M476.1,264.2c6.5-1.3,13.1-0.8,19.4,1.3C489,265.7,482.5,265.2,476.1,264.2"/>
			<path id="Path_2201" class="st0" d="M485.5,272.3c9-1.9,18.4-0.8,26.7,3C503.4,273.8,494.5,272.7,485.5,272.3"/>
			<path id="Path_2202" class="st0" d="M511.8,266.4c6.2,0.1,12.2,2.6,16.5,7.1C522.7,271,517.5,268.8,511.8,266.4"/>
			<path id="Path_2203" class="st0" d="M470.3,363.1c6.6,3.7,10.5,10.8,11.5,18c1,7.5-1.7,14.7,0.7,20.6c1.1,3.1,3,6.2,4.1,10
				c3,11.1-4.3,21.2-5,31.9c-0.7,6.7-0.1,14.1-2.2,21.5c-2.1,7-5.7,13.1-7.7,19.9c-4,13.3-4.4,27.6-5.2,41.7
				c-1.4-14.1-2.3-28.5,1.2-42.7c1.6-7.2,5.2-13.7,6.8-20.2c1.8-6.4,1.2-13.4,1.8-20.7c0.6-10.4,7.8-20.1,5.8-30.4
				c-0.7-3.1-2.4-6.2-3.5-9.9c-2.4-7.1,1-14.6,0.6-21.6C478.9,374.5,476,367.6,470.3,363.1"/>
			<path id="Path_2204" class="st0" d="M516.4,493.6c1.5,5.8,0.9,11.9-1.8,17.2C514.9,505,515.5,499.3,516.4,493.6"/>
			<path id="Path_2205" class="st0" d="M485.7,311.1c4.8-2.8,12.2-1,15,3.7C496.2,312,491,310.7,485.7,311.1"/>
			<path id="Path_2206" class="st0" d="M480.3,274.5c7.5-0.4,15.3,3.1,19.9,8.9C494,279.5,487.3,276.5,480.3,274.5"/>
			<path id="Path_2207" class="st0" d="M209.4,395.3c3.1-1.7,6.7-2.3,10.2-1.6C216.5,395.3,212.9,395.9,209.4,395.3"/>
			<path id="Path_2208" class="st0" d="M246.9,389.8c5.8-2.1,12-2.8,18.1-2C259.1,389.4,253,390,246.9,389.8"/>
			<path id="Path_2209" class="st0" d="M150.5,371.1c10,7,21.8,11,34,11.7C172.2,384.6,158.8,380,150.5,371.1"/>
			<path id="Path_2210" class="st0" d="M136.6,396.6c17.1-1,34.2-0.8,51.3,0.6C170.8,398.1,153.7,397.9,136.6,396.6"/>
			<path id="Path_2211" class="st6" d="M90.7,400.4c-0.6,6-1.9,11.8-3.9,17.5"/>
			<path id="Path_2212" class="st0" d="M101.6,386.8c1.1,2.7,0.9,5.8-0.4,8.4C100.1,392.5,100.3,389.4,101.6,386.8"/>
			<path id="Path_2213" class="st0" d="M109.7,374.6c1.4,5.5,1.6,11.3,0.5,16.9C108.8,386,108.7,380.2,109.7,374.6"/>
			<line id="Line_279" class="st6" x1="85.4" y1="355.9" x2="85.4" y2="367.1"/>
			<path id="Path_2214" class="st0" d="M90.8,299.7c0.8,13,1.1,25.9,0.9,38.9C89.5,325.7,89.2,312.6,90.8,299.7"/>
			<path id="Path_2215" class="st0" d="M103.4,267.8c1.2,4.9,1.2,10.1,0,15C102.2,277.9,102.2,272.8,103.4,267.8"/>
			<path id="Path_2216" class="st0" d="M115.2,276.3c1,7.9,1.1,15.9,0.3,23.9C113.8,292.3,113.7,284.2,115.2,276.3"/>
			<path id="Path_2217" class="st0" d="M124.6,332.5c0,5,2.3,9,6.6,11.8C125.6,344.1,121.7,337.1,124.6,332.5"/>
			<path id="Path_2218" class="st0" d="M121.5,354.5c1.9,7.8,7.6,13.8,15.6,16.3C128.4,371,120.5,362.7,121.5,354.5"/>
			<path id="Path_2219" class="st6" d="M50.3,448.7c5.1-1.3,10.3-1.8,15.6-1.5"/>
			<line id="Line_280" class="st6" x1="65.8" y1="424.3" x2="80.5" y2="424.3"/>
			<path id="Path_2220" class="st0" d="M105.9,402.3c2.6,5,2.5,13.9-4.5,15.2C106.7,413.9,105.8,407.8,105.9,402.3"/>
			<path id="Path_2221" class="st0" d="M226.5,362.3c7.7-3.2,15.9-5.4,24.2-6.4C243,359.2,234.9,361.3,226.5,362.3"/>
			<path id="Path_2222" class="st0" d="M374.9,143.7c0.7,5.1,0.6,10.4-0.5,15.5C373,154.1,373.2,148.7,374.9,143.7"/>
			<path id="Path_2223" class="st0" d="M371.4,185c1.2,6,1.2,12.2,0,18.3C370.2,197.2,370.2,191,371.4,185"/>
			<path id="Path_2224" class="st0" d="M370.9,225.2c1.2,7,1.2,14.1,0,21.1C369.7,239.3,369.7,232.2,370.9,225.2"/>
			<path id="Path_2225" class="st0" d="M336.7,250.1c1.5,5.1,1.4,10.4-0.2,15.5C335.7,260.4,335.7,255.2,336.7,250.1"/>
			<path id="Path_2226" class="st0" d="M358.7,221.5c1.2,4.1,1.2,8.5,0,12.6C357.5,230,357.5,225.6,358.7,221.5"/>
			<path id="Path_2227" class="st0" d="M382.2,297.6c5.3,0.2,9.6-1.6,13.1-5.5C394.3,297.4,386.9,300.5,382.2,297.6"/>
			<path id="Path_2228" class="st0" d="M393.9,285.6c7.3,0.6,12.1-5.4,17-9.5c5.2-4.5,11.1-8.1,17.3-10.9c6.4-2.7,13.1-4.6,19.9-5.4
				c6.8-1,13.9,0.3,20.4-2.1c-3,1.6-6.6,2-10,2.4c-17,0.7-33.7,6.5-46.8,17C406.8,281,401.1,286.9,393.9,285.6"/>
			<path id="Path_2229" class="st0" d="M548.1,332.9c1.2,2.8,1.2,6.1,0,8.9C546.9,339,546.9,335.8,548.1,332.9"/>
			<path id="Path_2230" class="st0" d="M408.5,353.1c6.5-1.3,13-3.1,19.2-5.3C422.4,352.2,415.4,354.1,408.5,353.1"/>
			<path id="Path_2231" class="st0" d="M125.2,152.7c1.2,9.2,1.2,18.5,0,27.7C124,171.2,124,161.9,125.2,152.7"/>
			<path id="Path_2232" class="st6" d="M86,147.8c0.9,10.3,0.6,20.7-0.8,31"/>
			<line id="Line_281" class="st6" x1="82.8" y1="232.4" x2="82.8" y2="269.8"/>
			<line id="Line_282" class="st6" x1="355.8" y1="94.1" x2="355.8" y2="118.5"/>
			<path id="Path_2233" class="st0" d="M357.5,160.8c0.6,9.9,0.9,19.8,0.8,29.7c-1.1,8.8-5.8,16.4-8.8,24.5c-1,2.5-1.9,4.9-2.2,7.6
				c-0.1-2.7,0.7-5.3,1.4-7.8c2.2-7.3,5.9-15.1,7.6-22.5c0.5-2.1,0.2-5.5,0.3-7.7C356.8,176.7,357,168.7,357.5,160.8"/>
			<line id="Line_283" class="st6" x1="367.7" y1="97.4" x2="367.7" y2="113.6"/>
			<path id="Path_2234" class="st6" d="M54,460.1c-5.5-7.7-12.4-14.3-20.4-19.5c3.4-0.2,21.9-13.4,23.5-16.3"/>
			<path id="Path_2235" class="st0" d="M530.5,458.6c1.2,8.1,1.2,16.3,0,24.4C529.3,474.9,529.3,466.7,530.5,458.6"/>
			<path id="Path_2236" class="st6" d="M493,520.4c0.9,9.8,0.6,19.6-0.8,29.4"/>
			<path id="Path_2237" class="st0" d="M539.1,497.6c-0.1,9.6,2.2,19.1,6.7,27.7C539.1,517.9,536.5,507,539.1,497.6"/>
			<path id="Path_2238" class="st0" d="M551.7,466.7c-0.8,25.5-2.9,53.8,14.1,75.3c-1.1-1.2-2.2-2.5-3.3-3.8
				C547,517.7,548.6,490.6,551.7,466.7"/>
			<path id="Path_2239" class="st7" d="M500.8,260.2c-0.5,4.7,2.2,9.2,5.5,12.7c9.3,10,24.1,15,37.9,13c3.1-0.5,6.6-1.5,8-4.3
				c2.1-4-1.6-8.6-5.2-11.5C540.3,264.8,503.2,239.3,500.8,260.2z"/>
			<path id="Path_2240" class="st0" d="M477.2,531.9c2.4,8.7,0.1,17.7-4.3,25.4c-4,7.8-9.4,14.8-16.1,20.6l-0.4-0.3
				c5.3-6.6,9.5-13.9,12.5-21.8c2.6-8.1,4.3-15.8,7.7-23.8L477.2,531.9"/>
			<path id="Path_2241" class="st5" d="M560.2,522.8c-3.4,14.9,4.1,31.5,17.7,39.3"/>
			<path id="Path_2242" class="st0" d="M495.3,528.7c9.2,19.1-9.3,37.8-21.9,50.9l-0.4-0.3c5.5-7.7,11.2-15.5,15.2-24
				c3.4-8.5,5.6-17.4,6.6-26.5L495.3,528.7"/>
			<path id="Path_2243" class="st0" d="M550.5,496.4c2.5,6.9,2.7,14.2,2.6,21.2c-0.3,12-2.6,24.3,4,35c4.5,7.6,11.8,13.4,15.4,21.7
				l-0.5,0.2c-5.4-9.2-15.8-15.3-20.4-25.2c-6.1-13.2-4.5-28.5-2.7-42.4c0.4-3.5,0.7-6.9,0.9-10.5L550.5,496.4z"/>
			<path id="Path_2244" class="st0" d="M538.6,574.4c-8.3-15.6-10.1-33.8-6.9-50.9l4.4,0.2c-0.2,4.9-1.4,9.5-2.8,14
				c-2.8,8.7-6.9,17.1-8.8,26c-1,4.4-0.4,9.8-4.4,13l-0.3-0.4c1.7-1.5,2.4-3.8,2.6-6c0.2-6.9,1.5-13.8,3.6-20.4
				c2.5-8.5,6-17.3,5.8-26.1l4.4,0.2c-1,12.5-0.2,25.1,1.2,37.6c0.5,4.2,1.2,8.4,1.9,12.6L538.6,574.4z"/>
			<path id="Path_2245" class="st0" d="M513.8,532.6c0.4,3.3,0.1,7.7-0.3,11c-1.4,10.7-4.6,21.3-10,30.9c-2.4,4.2-5,8.3-7.9,12.3
				l-3.6-2.2C502.6,568.9,507.8,550.3,513.8,532.6 M513.7,533.1c-0.1,2-0.7,4.8-1.1,6.7c-3.9,16.2-8.4,32.4-17,47l-3.6-2.2
				c8.6-14.1,14.6-29.4,19.4-45l1-3.4C512.8,535.2,513.5,534.3,513.7,533.1"/>
			<path id="Path_2246" class="st7" d="M515.8,257.6c0.3,10.3,10.7,19.3,21.5,18.5c-3.5-7.8-11.2-13.8-19.9-15.4"/>
			<path id="Path_2247" class="st0" d="M523,529.8c2.6,9,1.6,18.1-0.9,27c-2,8.8-4.8,17.5-8.3,25.8l-0.5-0.1
				c2-8.7,3.5-17.5,4.6-26.3c0.6-9,1.4-17.6,4.6-26.3L523,529.8"/>
			<path id="Path_2248" class="st0" d="M546.4,528.8c1.9,8.7,2.8,16.8,4.8,25.3c2.5,8.4,6.6,16.2,12.3,22.9l-0.4,0.4
				c-10.3-8.9-18.1-21.8-19.5-35.2c-0.2-4.6,0.4-9.2,2.4-13.5L546.4,528.8z"/>
			<path id="Path_2249" class="st0" d="M568.1,520.8c1.8,9.4,0.8,18.6,2.4,27.8c1.1,4.5,3.2,8.6,5.9,12.3c2.7,3.9,6,7.5,8.7,11.6
				l-0.4,0.3c-6.8-7.1-15.3-13.5-18.3-23.1c-3.7-9.5-2.9-19.7,1.1-28.9L568.1,520.8"/>
			<path id="Path_2250" class="st0" d="M470.7,522.7c2.7,9.7,0.6,19.9-3.6,28.9c-3.8,9.1-9.2,17.5-16,24.8l-0.4-0.3
				c5.4-8,9.5-16.6,12.4-25.8c2.4-9.3,4-18.3,7.1-27.6L470.7,522.7"/>
			<path id="Path_2251" class="st7" d="M525.1,267.9c0.8,0.8,1.7,1.4,2.7,1.8c-0.9-0.9-1.9-1.6-2.9-2.1"/>
			<path id="Path_2252" class="st7" d="M519.3,274.9c2.6,1.9,5.5,3.2,8.4,4.6c2.7,1.3,5.6,2.6,8.6,2.9c1.6,0.2,3.3-0.1,4.7-0.8
				c1.4-0.8,2.4-2.3,2.3-3.8c-0.1-1.2-0.9-2.2-1.6-3.2c-2.2-2.8-4.6-5.5-7.1-8c-2.5-2.5-5.2-4.9-8.6-6.2c-1.7-0.6-3.5-1.1-5.3-1.4
				c-2-0.5-4.1-0.7-6.2-0.7c-1.3,0.1-5.1,0.5-5.2,2.3c0,0.5,0.7,1.2,0.9,1.7c0.4,0.9,0.6,1.8,1,2.7
				C513,268.9,515.8,272.3,519.3,274.9L519.3,274.9z"/>
			<path id="Path_2253" class="st0" d="M476.4,480.5c-0.3,7.9,0.2,15.7,1.5,23.5c1,5.8,2.7,11.6,3.1,17.5c0.1,2,0,4-0.3,6
				c0-2-0.2-3.9-0.6-5.9c-1-5.9-3.1-11.4-4-17.3C474.8,496.4,474.8,488.3,476.4,480.5"/>
			<path id="Path_2254" class="st6" d="M490.3,485.7c-0.6,20.2-0.2,40.3,1.3,60.4"/>
			<path id="Path_2255" class="st6" d="M508,500.3c-0.8,11.8,2.5,23.4,4,35.1s0.9,24.5-6.5,34"/>
			<path id="Path_2256" class="st6" d="M542.6,501c-0.9,9.9-0.8,19.9,1.3,29.6c2.1,9.7,6.4,19.1,13.3,26.6"/>
			<path id="Path_2257" class="st0" d="M550.6,488.3c3.7,11.3,6.8,22.7,9.9,34.1c3,11.4,5.7,23,12.4,33
				c-7.8-9.3-11.1-21.2-14.1-32.6C555.8,511.3,552.9,499.8,550.6,488.3"/>
			<line id="Line_284" class="st6" x1="522.1" y1="466.4" x2="522.1" y2="529.2"/>
			<path id="Path_2258" class="st0" d="M549,401.2c0.3,24.6-0.5,50,9.4,73.1c1.4,3.3,3,6.5,4.8,9.6
				C546.3,459.8,546.9,429.1,549,401.2"/>
			<path id="Path_2259" class="st0" d="M490.7,445.4c-1.9,17.4-3.8,34.7-5,52.1c-0.7,8.7-1.2,17.4-1.7,26.1
				c-0.6,8.5-1.6,18.2-8.2,24.6c6-6.8,6.5-16.1,6.9-24.6c0.2-8.7,0.7-17.5,1.3-26.2C485.3,480,487.4,462.6,490.7,445.4"/>
			<path id="Path_2260" class="st0" d="M72.5,221.8c5.6,16.3-2.9,32.9-6.3,48.8c-4.2,15.9-4,32.6-0.8,48.7
				c4.4,24.4,9.3,49.8,2.8,74.3c-2.1,8.2-5.7,16-10.7,22.8l-0.5-0.3c10.5-22.9,9.3-47.7,7.4-72c-1.7-16.4-2.5-33-3.3-49.4
				c-0.3-8.3-0.7-16.7,0.6-25c1-7.3,4.5-16.9,6.7-24c2.4-7.8,4.3-15.7,3.4-23.9L72.5,221.8z"/>
			<path id="Path_2261" class="st0" d="M336.9,271.9c-1.1,10.1-5.7,19.4-13,26.5C329.2,290,333.5,281.2,336.9,271.9"/>
			<path id="Path_2262" class="st0" d="M259.4,344c11-2.8,21.2-7.8,30.1-14.8C282.4,338,270.9,343.6,259.4,344"/>
			<path id="Path_2263" class="st6" d="M372.9,250.3c-1.6,13.6-1.1,27.4,1.6,40.8"/>
			<path id="Path_2264" class="st0" d="M376.8,169c1.2,7.6,1.2,15.4,0,23C375.6,184.4,375.6,176.6,376.8,169"/>
			<path id="Path_2265" class="st0" d="M355.2,129.7c1.7,7.1,2.2,14.4,1.5,21.7C355,144.3,354.5,137,355.2,129.7"/>
		</g>
	</g>
</g>
</svg>
