<?xml version="1.0" encoding="utf-8"?>
<!-- Generator: Adobe Illustrator 26.3.1, SVG Export Plug-In . SVG Version: 6.00 Build 0)  -->
<svg version="1.1" id="Layer_1" xmlns="http://www.w3.org/2000/svg" xmlns:xlink="http://www.w3.org/1999/xlink" x="0px" y="0px"
	 viewBox="0 0 909.9 924" style="enable-background:new 0 0 909.9 924;" xml:space="preserve">
<style type="text/css">
	.st0{fill:#010202;}
	.st1{font-family:'GaramondPremrPro-It';}
	.st2{font-size:24px;}
	.st3{font-family:'GaramondPremrPro';}
	.st4{clip-path:url(#SVGID_00000103948801539499217250000000191146092378541999_);}
	.st5{fill:none;stroke:#010202;stroke-width:2;stroke-miterlimit:10;}
	.st6{fill:none;stroke:#010202;stroke-miterlimit:10;}
	.st7{fill:none;stroke:#010202;stroke-linecap:round;stroke-miterlimit:10;}
</style>
<text transform="matrix(1 0 0 1 225.7882 134.7752)" class="st0 st1 st2"> Having the knowledge of these </text>
<text transform="matrix(1 0 0 1 248.1256 168.2644)" class="st0 st1 st2">trail trees could mean the </text>
<text transform="matrix(1 0 0 1 215.5739 201.7532)" class="st0 st1 st2">difference between life and death, </text>
<text transform="matrix(1 0 0 1 233.2003 235.242)" class="st0 st1 st2">between eating and starving, </text>
<text transform="matrix(1 0 0 1 211.6784 268.7312)" class="st0 st1 st2">between crossing the river correctly </text>
<text transform="matrix(1 0 0 1 296.7399 302.22)" class="st0 st1 st2">or incorrectly</text>
<text transform="matrix(1 0 0 1 276.0661 335.7088)" class="st0 st3 st2">- Dennis Downes</text>
<text transform="matrix(1 0 0 1 278.9806 680.6425)" class="st0 st3 st2"> Since the beginning of man, navigation has </text>
<text transform="matrix(1 0 0 1 278.9806 714.1317)" class="st0 st3 st2">played an essential role in survival. The </text>
<text transform="matrix(1 0 0 1 278.9806 747.62)" class="st0 st3 st2">Native Americans used unique techniques to </text>
<text transform="matrix(1 0 0 1 278.9806 781.1093)" class="st0 st3 st2">navigate. One of these were the special “trail </text>
<text transform="matrix(1 0 0 1 278.9806 814.5985)" class="st0 st3 st2">trees” that Native tribes used as road markers, </text>
<text transform="matrix(1 0 0 1 278.9806 848.0878)" class="st0 st3 st2">or to mark a place, river or spring. These trees </text>
<text transform="matrix(1 0 0 1 278.9806 881.576)" class="st0 st3 st2">are bent in spectacular ways and researchers </text>
<text transform="matrix(1 0 0 1 278.9806 915.0653)" class="st0 st3 st2">believe that it is not caused by nature.</text>
<g id="Group_297">
	<g>
		<defs>
			<rect id="SVGID_1_" x="5.8" y="-17.4" width="893.9" height="892.3"/>
		</defs>
		<clipPath id="SVGID_00000083784110705030980320000009474308855224854196_">
			<use xlink:href="#SVGID_1_"  style="overflow:visible;"/>
		</clipPath>
		<g id="Group_296" style="clip-path:url(#SVGID_00000083784110705030980320000009474308855224854196_);">
			<path id="Path_2083" class="st5" d="M200.1,48c-10.3,127.6,4.7,190.3,0,318.3c-1.3,34.8-2.2,70.8,10,103.4
				c12.2,32.6,40.9,61.3,75.1,62.2c14.7,0.4,29-4.2,42.9-8.9c52.7-17.5,107.1-37.3,145.6-77.9c13.7-14.4,25-31.4,31.8-50.2
				c6.9-19.1,8.8-39.6,10.8-59.9c9.6-101.1,23.1-232.6,32.7-333.8"/>
			<path id="Path_2084" class="st5" d="M100.1,70.7c2.5,57.1-1.2,45.8,1.3,103c1.7,39.3,3.4,78.7-1.3,117.8
				c-3.5,29.4-10.6,58.2-14.3,87.6c-9.5,75.8,3.9,152.9-5.7,228.6c-0.7,5.6-1.6,11.4-4.9,16.1c-10,14.1-33,9.3-49.2,16.5
				c-17.7,8-23.4,33.2-10.8,47.4c11.9,13.5,37.4,21.1,34,38.5c39.9-11,79.8-22,119.6-33c29.5-8.1,59.1-16.3,86.4-29.6
				c28.1-13.7,53.2-32.5,80.9-46.8c41.3-21.4,87.4-32.5,133-43.3l153.4-36.6c36.9-8.8,82.2-15.2,107.2,12.1
				c23.7,25.9,13.7,65.5,5.2,98.9c-15.9,62.6-21.9,127.3-17.8,191.8"/>
			<path id="Path_2085" class="st5" d="M886.4,830c-25.6-102.3-31.2-208.6-16.7-313c2.7-18.9,4.5-41.8-11.2-53.6
				c-4.4-3.3-9.7-5.3-13.9-8.8c-13.7-11.3-6.2-37.1,11.6-40.1c8.9-9.7,4.2-25.7-5.4-34.8c-9.6-9.1-22.7-13.9-34.1-20.9
				c-9.3-5.7-18.1-13.3-29-14.6c-11.8-1.4-23,4.8-33.3,10.5c-52.9,29-110.4,48.8-169.9,58.6c-1.4-139.8,6-235.2,22.7-374.1"/>
			<path id="Path_2086" class="st0" d="M684.2,458.2c25.6-0.2,55.5,2.6,72.8,22.8c1,1.4,2,2.8,3,4.1
				C741.5,464.1,710.9,461.7,684.2,458.2"/>
			<path id="Path_2087" class="st0" d="M794.6,476.1c20.4,12.9,33.6,35.7,34.9,59c0,1.6,0.1,3.1,0,4.7c-0.4-2.6-1.1-6.5-1.7-9.1
				C823,509.7,811.2,490.5,794.6,476.1"/>
			<path id="Path_2088" class="st0" d="M725.6,489.5c17.4,12,28.6,31.3,31.5,51.5c2.9,19.9,8.1,40.1,5.7,60.3
				c0.1-5-0.1-10.1-0.8-15.1c-1-10-5.9-34.6-7.6-44.8C751.8,521.5,741.2,502.9,725.6,489.5"/>
			<path id="Path_2089" class="st0" d="M777.9,615c4.4,10.1,7,20.8,7.8,31.8C781.3,636.7,778.7,625.9,777.9,615"/>
			<path id="Path_2090" class="st0" d="M767.7,672c1.5,12-0.5,24.2-5.9,35.1C763.6,695.2,765.5,683.8,767.7,672"/>
			<path id="Path_2091" class="st0" d="M741.1,670.8c2.9,11,2,22.6-2.4,33C739.4,692.6,740.2,682,741.1,670.8"/>
			<path id="Path_2092" class="st0" d="M760.9,707.4c4.8,12.2,1.2,27.6-8.6,36.7C758.8,733,761.8,720.2,760.9,707.4"/>
			<path id="Path_2093" class="st0" d="M780.3,762c2.3,10.5,2.2,21.5-0.4,32C778.8,783.4,778.9,772.6,780.3,762"/>
			<path id="Path_2094" class="st0" d="M846.2,761.1c5.8,12.1,12.4,23.9,19.7,35.2C855.5,787.1,848.6,774.7,846.2,761.1"/>
			<path id="Path_2095" class="st0" d="M800.3,738.1c4.9,13.5,6.3,28,3.9,42.1C802.8,766.1,801.5,752.3,800.3,738.1"/>
			<path id="Path_2096" class="st0" d="M776.9,616.1c0.5,7.4,4.1,13.8,7.7,20.2c11.5,19.1,14.9,42.8,8.1,64
				c2.5-14.3,1.8-28.9-2-42.9C787.8,643.2,776.2,631,776.9,616.1"/>
			<path id="Path_2097" class="st0" d="M784.4,442.8c-2.2,10.3,9.8,14.5,15.4,21.4c2.1,2.6,3.1,5.7,4.3,8.6
				c3.2,8.5,5.1,18.1,7.1,26.8c0.6,3,1.4,6,2.1,9c-6.5-13.8-8.1-29.6-15.6-43C792.5,459.1,780.2,452.7,784.4,442.8"/>
			<path id="Path_2098" class="st0" d="M855.9,502.6c-12.6,15.5-21.5,33.5-25.6,52.7c-0.5,2.4-1.2,5.9-1.6,8.3
				C828.2,540.9,838.4,517.9,855.9,502.6"/>
			<path id="Path_2099" class="st0" d="M759.1,385.4c17.6-0.1,34.8,13.4,38.3,30C789.9,400.2,776.1,389.3,759.1,385.4"/>
			<path id="Path_2100" class="st0" d="M803.1,398.2c7.5,1.4,13.6,8.7,13.2,16.1C813,408.1,808.5,402.6,803.1,398.2"/>
			<path id="Path_2101" class="st0" d="M776.9,371.4c9.7-5.1,19.9,4.1,23.5,12.4C793.4,377.9,787.1,370.3,776.9,371.4"/>
			<path id="Path_2102" class="st0" d="M683.1,461.3c16.8-1.1,34.3-2,50.5,3.6c33.6,11.9,46.2,49.9,44.7,81.6
				c-1.3,32.5-10.8,64-10.1,96.6c-0.5,24.3,2.9,48.8-0.8,73c-1.3,8.1-4.5,15.8-7.6,23.3c-6.5,14.9-8.6,31.4-6.1,47.5
				c-3.2-15.9-1.3-32.8,4.8-48c2.9-7.6,6-15.2,7.1-23.1c3.2-24.1-0.4-48.5,0-72.7c-0.1-16.3,1.3-32.6,4-48.6
				c5.2-31.4,11.7-65-2.4-95.1C751,463.7,719.9,459.3,683.1,461.3"/>
			<path id="Path_2103" class="st0" d="M647.3,479.8c-39.1-4.2-71.2,6.8-104.9,24.6l-32.7,16.1l-0.8-2.5
				c46.8-4.9,93.3-20.8,140.9-16.7c-49.6-2.1-99.1,15.8-148.1,20.1c22.2-10.3,50.1-25.5,73-34.1
				C597.9,478.9,622.8,476.3,647.3,479.8"/>
			<path id="Path_2104" class="st0" d="M267.3,594.9c20-9,42.1-12.4,64-9.8C309.6,586.1,288.2,589.4,267.3,594.9"/>
			<path id="Path_2105" class="st0" d="M365.8,571c26.2-5.3,51.6-14.2,75.4-26.3c1.6-0.8,3.1-1.7,4.8-2.4
				C422.3,558.9,394.6,568.8,365.8,571"/>
			<path id="Path_2106" class="st0" d="M199.3,629.9c10.1-0.8,19.4-5.5,25.4-12.9c3.1-3.7,4.8-9.4,10.2-11.2
				c5.2-1.9,10.6-0.8,15.4,0.4c-5-0.2-10.3-0.4-14.6,1.5c-4.7,2.1-5.7,7.2-8.9,10.9C220.5,626.5,209.7,631.3,199.3,629.9"/>
			<path id="Path_2107" class="st0" d="M201.7,648.9c21.7,2.4,38-19,59.8-15.9C240.3,633.6,223.4,655,201.7,648.9"/>
			<path id="Path_2108" class="st0" d="M287.4,610.8c16-5.8,27.8-18.8,44.7-23c16.4-4.3,34-2.3,49-10.7c-3.4,2.5-7.2,4.4-11.2,5.8
				c-12,4-25.1,4.2-37.1,7.4C316.5,594.3,303.8,607.1,287.4,610.8"/>
			<path id="Path_2109" class="st0" d="M507,537c25.8,0.8,49.3-11.8,74.7-13.9c1.7-0.1,3.4-0.2,5.1-0.2c-1.7,0.3-3.3,0.6-5,0.9
				l-5,1.1C554.5,530,530.5,541.1,507,537"/>
			<path id="Path_2110" class="st0" d="M574.9,507.6c16.4,1.5,31.6-9,45.4-16c4.9-2.5,9.8-4.9,14.8-7.2
				C618.4,494.9,596,513,574.9,507.6"/>
			<path id="Path_2111" class="st0" d="M668.8,474.3c7.4,0.9,14.7,2.1,21.8,4.8c7.1,2.5,12.9,7.8,18,12.8c7.5,8,19.5,10.8,25.7,20
				c2,3.1,3.2,6.8,2.4,10.4c0.1-3.5-1.2-7-3.5-9.6c-6.9-8.5-19.1-10.8-26.5-18.9c-5.1-5.1-10.2-9.9-17-12.9
				C683.2,477.9,675.9,476.2,668.8,474.3"/>
			<path id="Path_2112" class="st0" d="M773.5,528.3c-2.1,21.2-3.1,42.4-2,63.7l0.4,9.1C766.7,577.1,767.2,552.1,773.5,528.3"/>
			<path id="Path_2113" class="st0" d="M801.1,546.7c3.7,12,5.4,24.8,3.6,37.2c-1.3,12.3-3.8,24.6-0.5,36.8c-1.3-2.9-2.2-5.9-2.8-9
				c-1.6-9.3-0.4-18.9,0.6-28.1C803.8,571.2,802.6,559,801.1,546.7"/>
			<path id="Path_2114" class="st0" d="M843.8,511.2c-12.7,24.8-10.3,54.2-9.7,81c-0.6-3.4-1.1-6.8-1.6-10.3
				C829.6,558.2,829.5,531.9,843.8,511.2"/>
			<path id="Path_2115" class="st0" d="M792.3,473.5c0.3,11.7,13.8,21.1,9.3,33.1C802.1,494.8,788.7,485.6,792.3,473.5"/>
			<path id="Path_2116" class="st0" d="M802.2,399.2c7.4,8.7-2.9,23.1-4.5,32.6l-1.3,7c-1.5-11.3-5.5-22.4-14.1-30.7
				c-2.2-2.2-4.6-4.3-7.2-6c11.8,5.5,20.3,16.4,22.7,29.2l-2.7,0c1.1-5.1,4.1-11.4,6.1-16.1C802.9,410.1,805.5,404.1,802.2,399.2"/>
			<path id="Path_2117" class="st0" d="M817.4,446.1c9.1,5.8,15.4,15.9,16.4,26.4C829.2,463.2,823.7,454.3,817.4,446.1"/>
			<path id="Path_2118" class="st0" d="M620.4,424.9c21.6-22,51.2-36.7,82.4-41.5c2.1-0.3,4.2-0.5,6.2-0.8c-3.5,0.8-8.6,2.1-12.1,3
				C669,393.4,642.9,406.7,620.4,424.9"/>
			<path id="Path_2119" class="st0" d="M455,487.6c10.5-5.1,20.4-9.9,30.9-15.1C477.4,480.7,466.6,486,455,487.6"/>
			<path id="Path_2120" class="st0" d="M581.1,462.9c12.6-6,26.9,3.7,39.7,2.1l11.8-1.3c-15.6,5.5-31.9,11-48.2,13.7l18.1-6
				c6-2.1,12-4.1,18-6.2l0.6,2.5C607.4,469.3,594.8,458.9,581.1,462.9"/>
			<path id="Path_2121" class="st0" d="M793.3,573.9c2.9,10.4,3.9,21.2,3,31.9C793.5,595.4,792.4,584.6,793.3,573.9"/>
			<path id="Path_2122" class="st0" d="M807.8,634.3c1.9,9,1.9,18.3,0,27.4C805.9,652.7,805.9,643.3,807.8,634.3"/>
			<path id="Path_2123" class="st0" d="M819.2,580c5.2,21.3,9.4,42.8,10.5,64.7c0.6,10.8-0.8,21.9-0.2,32.6
				c0.7,10.8,5.5,21,9.8,30.9c-2.8-4.8-5.3-9.7-7.5-14.7c-7.3-15.4-3.7-32.5-4.8-48.7C826.2,623.4,822.2,601.2,819.2,580"/>
			<path id="Path_2124" class="st0" d="M843.4,522.6c-0.9,16.1-1.6,31.8-2.1,47.9C838.1,554.6,838.8,538.1,843.4,522.6"/>
			<path id="Path_2125" class="st0" d="M733.1,510.6c12,18.1,18.8,39.2,19.6,61C748.2,550.6,741.7,530.2,733.1,510.6"/>
			<path id="Path_2126" class="st0" d="M661.6,511c17.4-0.4,35.3,8.1,45.4,21.6C694,521.7,678.4,514.2,661.6,511"/>
			<path id="Path_2127" class="st0" d="M170.8,624c10.7-1.3,21.4-1.5,32.1-0.4C192.4,626.1,181.4,626.2,170.8,624"/>
			<path id="Path_2128" class="st0" d="M200.5,608.2c10.8-1.2,21.5-3.2,32-6C223.1,608.4,211.6,610.5,200.5,608.2"/>
			<path id="Path_2129" class="st0" d="M145.9,507.8c1.9,5.5,1.9,11.6,0,17.1C144,519.3,144,513.3,145.9,507.8"/>
			<path id="Path_2130" class="st0" d="M141.1,543.1c1.9,6.3,1.9,13.1,0,19.4C139.2,556.2,139.2,549.4,141.1,543.1"/>
			<path id="Path_2131" class="st0" d="M168.4,448.5c-2.6,26.9-4.3,56.2-5,83.2C160.3,503.9,162,475.7,168.4,448.5"/>
			<path id="Path_2132" class="st0" d="M184.6,539.9c9.5,16.9,12,36.8,7.1,55.6C192.8,576.7,190.4,557.8,184.6,539.9"/>
			<path id="Path_2133" class="st0" d="M144.6,259.2c2.4,29.2,2.9,58.5,1.5,87.8C143.7,317.8,143.2,288.5,144.6,259.2"/>
			<path id="Path_2134" class="st0" d="M129.2,373.2c-0.3,27.7-6.7,55.2-13.2,82.1C118.8,428.2,125.3,400.2,129.2,373.2"/>
			<path id="Path_2135" class="st0" d="M182.8,113.3c1.2,19.4,1.4,38.8,0.7,58.2C180.5,152.2,180.3,132.6,182.8,113.3"/>
			<path id="Path_2136" class="st0" d="M151.8,206.8c1.9,14.4,1.9,28.9,0,43.3C149.9,235.7,149.9,221.2,151.8,206.8"/>
			<path id="Path_2137" class="st0" d="M540.4,206.8c1.9,14,1.9,28.2,0,42.2C538.5,235,538.5,220.8,540.4,206.8"/>
			<path id="Path_2138" class="st0" d="M539.2,282c1.9,12.5,1.9,25.2,0,37.6C537.3,307.2,537.3,294.5,539.2,282"/>
			<path id="Path_2139" class="st0" d="M529.7,347c1.4,15.6,1,31.3-1.4,46.7C526.9,378.2,527.3,362.5,529.7,347"/>
			<path id="Path_2140" class="st0" d="M552.6,367.6c0.5,27.3,0.2,56-1,83.2C549,423.1,549.4,395.2,552.6,367.6"/>
			<path id="Path_2141" class="st0" d="M494.4,462.5c8.1-8.1,13.9-18.3,16.8-29.3l2.3-8.7l0.3,9.1c1.4,8.9,9.3,16.2,10.2,25.5
				c0,3.3-1.8,6.2-3.4,9c-2.2,3.7-5.4,6.6-9.3,8.5c5.8-4,10-10.7,10.5-17.5c-1.3-6.8-6.1-12.7-8.9-19.2c-1-2-1.6-4.2-1.8-6.4
				l2.6,0.3C510.6,445.2,503.8,455.3,494.4,462.5"/>
			<path id="Path_2142" class="st0" d="M409.7,513.4c8.8-3.1,17-5.8,26-8.3C428.3,511,419,513.9,409.7,513.4"/>
			<path id="Path_2143" class="st0" d="M458.5,497.8c6.9-3.9,13.6-8.2,20-12.9C474.9,492.1,466.8,497.3,458.5,497.8"/>
			<path id="Path_2144" class="st0" d="M312.2,549.9c9.4-0.8,17.9-1.9,27.3-3.5C331.3,551.4,321.4,552.7,312.2,549.9"/>
			<path id="Path_2145" class="st0" d="M265.8,600.8c23.9-5.8,48.2-9.9,72.7-12.2C314.6,594.4,290.3,598.5,265.8,600.8"/>
			<path id="Path_2146" class="st0" d="M579.6,477c10.8-4.8,22.7-6.7,34.5-5.6C602.7,473.8,591.2,475.7,579.6,477"/>
			<path id="Path_2147" class="st0" d="M590.4,451.2c14.1-3,28.2-7.2,41.1-13.4c8.5-4.7,13.1-13.3,20.5-19.4
				c7.7-6.3,18.5-6.3,27.3-10.4c4.4-1.8,8.4-4.6,11.1-8.5c-2.1,4.3-6.2,7.4-10.5,9.7c-8.4,4.6-18.8,5-26.2,11.2
				c-7.2,6.1-12.1,15-20.9,19.6C619.3,446,605,449.7,590.4,451.2"/>
			<path id="Path_2148" class="st0" d="M661.7,458.4c17.9,3.2,34.5-13.7,52.3-6.1c5.4,2.2,10.3,6.1,16.4,5.1
				c-2.8,1.1-6.1,0.7-8.9-0.1c-5.5-1.9-10.6-4.6-16.6-4.5C690.5,453,676.3,463.5,661.7,458.4"/>
			<path id="Path_2149" class="st0" d="M756.7,437.1c6.6-2.7,15-1,19.9,4C770,439.4,763.4,438.1,756.7,437.1"/>
			<path id="Path_2150" class="st0" d="M822.3,388.3c0.5-1,2-1.1,3-0.6c3,1.3,3.9,4.8,4.7,7.4c1,3.6,1.2,7.4,0.6,11.1
				c-1.6-4.3-2.9-8.7-3.9-13.1C826.2,391.2,825,387.4,822.3,388.3"/>
			<path id="Path_2151" class="st0" d="M802.9,406.3c2.3,5.8,2.8,12.1,1.4,18.2C802,418.8,801.5,412.4,802.9,406.3"/>
			<path id="Path_2152" class="st0" d="M825.5,453.1c6.9,5.6,13.2,10.4,20.5,15.6C837.1,467,829.5,461.2,825.5,453.1"/>
			<path id="Path_2153" class="st0" d="M824.8,480.6c6.4,8.7,12,22.3,4.2,31.8C832.9,501.3,827.7,491.2,824.8,480.6"/>
			<path id="Path_2154" class="st0" d="M846.1,546.7c-8.6,14.4-13.1,30.9-13,47.7C829,577.9,834.1,559.2,846.1,546.7"/>
			<path id="Path_2155" class="st0" d="M820.4,743.8c2.6,16,4.5,31.7,5.8,47.7C821.2,776.1,819.3,759.9,820.4,743.8"/>
			<path id="Path_2156" class="st0" d="M847.5,792.7c-3.3-12.2-7.3-24.3-11.9-36.1C843.7,766.9,847.9,779.7,847.5,792.7"/>
			<path id="Path_2157" class="st0" d="M742.7,798.5c-3.1-12.6-2.4-26.7,5.6-37.4c2.2-3.6,4.3-7.3,4.8-11.6c1.1,8.7-6,16.1-8.1,24
				C742.7,781.4,743.1,789.9,742.7,798.5"/>
			<path id="Path_2158" class="st0" d="M698.3,798.5c-1.1-10,10.3-15.8,14.8-23.6c5.3-7.7,9.1-16.3,11.2-25.4
				c0,11.9-5.3,23.7-13.5,32.5C706.1,787.2,699,791.2,698.3,798.5"/>
			<path id="Path_2159" class="st0" d="M822.3,790.4c-6.2-9.9-9.2-21.3-8.7-33C816.8,768.6,819.6,779.2,822.3,790.4"/>
			<path id="Path_2160" class="st0" d="M792,678.8c3.8,15.5,2.9,31.8-2.5,46.9C791.1,710.1,792,694.5,792,678.8"/>
			<path id="Path_2161" class="st0" d="M820.7,665.1c2.4,16.3,2.3,32.8-0.4,49.1C819.3,697.8,819.4,681.4,820.7,665.1"/>
			<path id="Path_2162" class="st0" d="M124.6,212.9c1.3,18.4,1.5,37.2,1.3,55.7c0,3.2-0.3,8-0.1,11c0,5.5,4.8,10,5.9,15.4
				c0.4,1.8,0.5,3.7,0.3,5.6c-0.1-1.8-0.5-3.7-1-5.4c-1.9-5.3-6.8-9.4-7.3-15.3c-0.5-3.4-0.3-7.9-0.4-11.2
				C123.2,250.1,123.3,231.3,124.6,212.9"/>
			<path id="Path_2163" class="st0" d="M129.6,345.6c1.9,33.9,1.9,67.9,0,101.9C127.7,413.5,127.7,379.5,129.6,345.6"/>
			<path id="Path_2164" class="st0" d="M119.2,485.5c3.2,8.1,2.1,17.4-3,24.5l0.2-0.5c0.4,30.7-2.2,61.3-4.1,91.9
				c-1.3-26.6,1.2-65,2.2-91.9C119.4,502.5,121.7,494,119.2,485.5"/>
			<path id="Path_2165" class="st6" d="M92.5,639.2c-8.7,0.5-17.2,2.9-24.7,7.2"/>
			<path id="Path_2166" class="st0" d="M115.1,654.6c8.9-3.3,14.8-10.1,16.7-19C134.3,644.9,125.1,655.4,115.1,654.6"/>
			<path id="Path_2167" class="st0" d="M162.3,620.9c2.1,11.6,3.2,23.4,3.5,35.2c0.4,11,0.5,26.6-12.1,31.6c2.6-1.5,4.7-3.7,6.1-6.2
				c4.6-7.7,3.3-16.7,3.3-25.4C162.8,645.8,162.3,631.2,162.3,620.9"/>
			<path id="Path_2168" class="st0" d="M115.2,675.2c0.3,9-3.2,18.2-8.4,25.7c-3.7,4.4-9.6,6.4-15.1,7.6c6.4-3.4,12.9-6.7,15.6-13.5
				C110.3,688.5,113.7,682.2,115.2,675.2"/>
			<path id="Path_2169" class="st6" d="M50.6,661.9c8.2,6.1,15.1,13.7,20.5,22.3"/>
			<path id="Path_2170" class="st6" d="M70.5,699.2c3.5,0.8,7.2-0.4,9.7-3"/>
			<path id="Path_2171" class="st6" d="M81.9,675c6,0.9,12,0.6,17.9-0.8"/>
			<path id="Path_2172" class="st0" d="M131.2,657.7c13.3-1.6,25.7-7.5,35.4-16.7C160.1,652.7,144.9,659.9,131.2,657.7"/>
			<path id="Path_2173" class="st0" d="M183.4,644.2c17.5-2.1,37.6,2.3,52.2-9.2c-7.5,17.1-15.4,23.7-35.4,21.4
				c-4.4-0.5-8.8-0.7-13.3-0.6c19.8-2.6,34.1,4.4,44.1-17.7l2,1.6C218.2,648.6,199.9,644.1,183.4,644.2"/>
			<path id="Path_2174" class="st0" d="M178.9,624.6c10.5,0.2,21-1.7,30.8-5.6c7.3-2.8,13.9-7.9,21.7-9.7c2.7-0.6,5.4-0.7,8.1-0.2
				c-11.2,0.1-18.8,8.6-28.7,12.3C200.7,625.6,189.6,626.7,178.9,624.6"/>
			<path id="Path_2175" class="st0" d="M195.9,598.8c16.6-0.9,33.4,0.1,48.3-7.9C231.4,602.2,211.9,601.6,195.9,598.8"/>
			<path id="Path_2176" class="st0" d="M249.2,628.5c9-6,19.6-9,30-11.9c10.3-2.7,22.3-4.8,32.1,0.3c-10.5-3-21.2-0.5-31.4,2.3
				C270.8,621.6,257.8,624.8,249.2,628.5"/>
			<path id="Path_2177" class="st0" d="M346.5,612.6c7.7-4.7,16.4-7.7,25.4-8.6c8.9-1.4,18.1,1.7,26.3-2.3c-7.1,5.9-17.5,3.5-26,4.9
				C363.5,607.6,354.8,609.6,346.5,612.6"/>
			<path id="Path_2178" class="st0" d="M365.8,591.3c18.4-3.9,35.9-11.4,51.4-22.1C404.2,582.7,384.9,591,365.8,591.3"/>
			<path id="Path_2179" class="st0" d="M452.5,570.3c11.5-5.1,23.6-8.6,36.1-10.3C477.1,565.2,465,568.6,452.5,570.3"/>
			<path id="Path_2180" class="st0" d="M453.2,526.3c4.3-2.5,9.2-3.7,13.4-6.2c3.7-3,6.5-7,9.8-10.6c2.2-2.4,4.5-5,7.6-6.6
				c-5.6,6.1-8.8,14.1-15.8,19.2C463.6,524.5,458.2,525.2,453.2,526.3"/>
			<path id="Path_2181" class="st0" d="M421.6,519.2c1.8-1.8,3.9-1.8,5.7,0C425.5,521,423.4,521,421.6,519.2"/>
			<path id="Path_2182" class="st0" d="M512.2,492.8c1.8-1.8,3.9-1.8,5.7,0C516.1,494.6,514,494.6,512.2,492.8"/>
			<path id="Path_2183" class="st0" d="M504.9,516.9c1.3-1.8,2.8-1.8,4,0C507.7,518.7,506.2,518.7,504.9,516.9"/>
			<path id="Path_2184" class="st0" d="M546.1,479.8c13.4,0.4,16.7-16.2,29-19c7-2.1,14.5-1.1,21.1-4.4c-7.3,6.2-19,4-26.2,9.9
				C563.3,471.4,556.5,482.6,546.1,479.8"/>
			<path id="Path_2185" class="st0" d="M788.6,560.4c4.1,10.5,0.9,23.7-7.7,31.3C786.2,582.1,788.8,571.3,788.6,560.4"/>
			<path id="Path_2186" class="st0" d="M818.7,550.3c2.3,14.4,2.1,29.1-0.5,43.5C817.1,579.3,817.2,564.7,818.7,550.3"/>
			<path id="Path_2187" class="st0" d="M801.8,627.1c1.9,10.5,1.9,21.3,0,31.8C799.9,648.4,799.9,637.6,801.8,627.1"/>
			<path id="Path_2188" class="st0" d="M786.4,639.5c1.9,9,1.9,18.2,0,27.2C784.5,657.7,784.5,648.5,786.4,639.5"/>
			<path id="Path_2189" class="st0" d="M783.2,696.2c1.9,10.3,1.9,20.8,0,31C781.3,717,781.3,706.4,783.2,696.2"/>
			<path id="Path_2190" class="st0" d="M804.2,698.5c1.9,8.4,1.9,17.2,0,25.6C802.3,715.7,802.3,706.9,804.2,698.5"/>
			<path id="Path_2191" class="st0" d="M818.8,679.9c1.9,7.6,1.9,15.6,0,23.3C816.9,695.5,816.9,687.5,818.8,679.9"/>
			<path id="Path_2192" class="st0" d="M772.6,696.9c2.3,9.5,1.8,19.5-1.6,28.7C770.7,716.1,771.2,706.4,772.6,696.9"/>
			<path id="Path_2193" class="st0" d="M758.9,656.6c1.9,13.1,1.9,26.5,0,39.6C757,683,757,669.7,758.9,656.6"/>
			<path id="Path_2194" class="st0" d="M788,538.6c1.9,13.4,1.9,27,0,40.4C786.1,565.6,786.1,552,788,538.6"/>
			<path id="Path_2195" class="st0" d="M758.9,498.3c1.9,5.3,1.9,11,0,16.3C757,509.3,757,503.5,758.9,498.3"/>
			<path id="Path_2196" class="st0" d="M677.1,438c7.3,1.6,14,5.4,19,11C689.1,446.5,682.7,442.8,677.1,438"/>
			<path id="Path_2197" class="st0" d="M619.9,423.2c6.4-5.7,14.7-8.9,23.2-9.2C635.6,417.7,627.9,420.8,619.9,423.2"/>
			<path id="Path_2198" class="st0" d="M644.9,404.5c7.3-2.4,15.1-3,22.6-1.7C660.2,405.1,652.4,405.7,644.9,404.5"/>
			<path id="Path_2199" class="st0" d="M703.9,384.2c-7,0.4-13.9,1.3-20.8,2.8l-0.4-2.3c15.1-1.3,28.7,6.3,43.1,9.3
				c-14.5-0.4-28.2-7.6-42.7-7l-0.4-2.3C689.7,383.5,696.8,383.3,703.9,384.2"/>
			<path id="Path_2200" class="st0" d="M731.4,377.1c10-2,20.3-1.3,29.9,2C751.3,379.5,741.3,378.8,731.4,377.1"/>
			<path id="Path_2201" class="st0" d="M746,389.7c13.9-2.9,28.3-1.3,41.2,4.6C773.6,391.9,759.8,390.4,746,389.7"/>
			<path id="Path_2202" class="st0" d="M786.5,380.6c9.6,0.1,18.8,4.1,25.5,11C803.3,387.7,795.3,384.3,786.5,380.6"/>
			<path id="Path_2203" class="st0" d="M722.4,529.7c10.2,5.7,16.2,16.7,17.8,27.8c1.6,11.5-2.6,22.6,1.1,31.8
				c1.7,4.8,4.7,9.6,6.3,15.5c4.6,17.2-6.6,32.7-7.7,49.2c-1.1,10.4-0.1,21.8-3.4,33.2c-3.3,10.8-8.8,20.1-11.9,30.8
				c-6.2,20.5-6.8,42.6-8,64.4c-2.1-21.7-3.5-44,1.8-65.9c2.4-11.1,8-21.2,10.6-31.1c2.7-9.8,1.8-20.6,2.8-32c0.9-16,12-31,8.9-46.9
				c-1.1-4.7-3.7-9.6-5.4-15.3c-3.7-10.9,1.5-22.5,1-33.3C735.8,547.4,731.3,536.7,722.4,529.7"/>
			<path id="Path_2204" class="st0" d="M793.6,731c2.3,8.9,1.3,18.4-2.8,26.6C791.3,748.7,792.2,739.8,793.6,731"/>
			<path id="Path_2205" class="st0" d="M746.2,449.5c7.5-4.3,18.8-1.6,23.2,5.7C762.5,450.9,754.4,448.9,746.2,449.5"/>
			<path id="Path_2206" class="st0" d="M737.9,393.1c11.6-0.6,23.6,4.8,30.6,13.7C759.1,400.8,748.8,396.2,737.9,393.1"/>
			<path id="Path_2207" class="st0" d="M320,579.4c4.8-2.6,10.4-3.5,15.8-2.5C330.9,579.5,325.3,580.4,320,579.4"/>
			<path id="Path_2208" class="st0" d="M377.9,571c8.9-3.3,18.5-4.3,27.9-3.1C396.7,570.3,387.3,571.3,377.9,571"/>
			<path id="Path_2209" class="st0" d="M229.1,542.1c15.5,10.8,33.6,17,52.4,18.1C262.6,562.9,242,555.8,229.1,542.1"/>
			<path id="Path_2210" class="st0" d="M207.7,581.4c26.3-1.5,52.8-1.2,79.1,0.9C260.5,583.7,234.1,583.4,207.7,581.4"/>
			<path id="Path_2211" class="st6" d="M136.8,587.3c-0.9,9.2-2.9,18.3-6,26.9"/>
			<path id="Path_2212" class="st0" d="M153.7,566.3c1.7,4.2,1.4,9-0.7,13C151.4,575.1,151.6,570.4,153.7,566.3"/>
			<path id="Path_2213" class="st0" d="M166.2,547.5c2.2,8.5,2.4,17.4,0.8,26C164.9,565,164.6,556.2,166.2,547.5"/>
			<line id="Line_279" class="st6" x1="128.7" y1="518.6" x2="128.7" y2="536"/>
			<path id="Path_2214" class="st0" d="M137,431.9c1.2,20,1.7,39.9,1.4,60C135,472.1,134.5,451.9,137,431.9"/>
			<path id="Path_2215" class="st0" d="M156.5,382.8c1.9,7.6,1.9,15.5,0,23.1C154.7,398.3,154.7,390.4,156.5,382.8"/>
			<path id="Path_2216" class="st0" d="M174.7,395.8c1.5,12.2,1.6,24.6,0.5,36.9C172.6,420.5,172.4,408,174.7,395.8"/>
			<path id="Path_2217" class="st0" d="M189.2,482.6c0,7.7,3.5,14,10.2,18.2C190.8,500.4,184.8,489.6,189.2,482.6"/>
			<path id="Path_2218" class="st0" d="M184.4,516.5c2.9,12,11.8,21.4,24.1,25.1C195.1,541.9,182.9,529.1,184.4,516.5"/>
			<path id="Path_2219" class="st6" d="M74.5,661.9c7.9-2,16-2.8,24-2.3"/>
			<line id="Line_280" class="st6" x1="98.6" y1="624.1" x2="121.1" y2="624.1"/>
			<path id="Path_2220" class="st0" d="M160.4,590.2c4.1,7.7,3.8,21.4-7,23.5C161.6,608.2,160.2,598.7,160.4,590.2"/>
			<path id="Path_2221" class="st0" d="M346.4,528.5c11.9-5,24.5-8.3,37.3-9.8C371.9,523.7,359.3,527,346.4,528.5"/>
			<path id="Path_2222" class="st0" d="M575.3,191.4c1.2,7.9,0.9,16-0.8,23.8C572.4,207.3,572.7,199.1,575.3,191.4"/>
			<path id="Path_2223" class="st0" d="M570,254.9c1.9,9.3,1.9,18.9,0,28.2C568.1,273.8,568.1,264.2,570,254.9"/>
			<path id="Path_2224" class="st0" d="M569.2,317.1c1.9,10.8,1.9,21.8,0,32.5C567.3,338.8,567.3,327.8,569.2,317.1"/>
			<path id="Path_2225" class="st0" d="M516.4,355.4c2.2,7.8,2.1,16.1-0.3,23.9C514.8,371.3,514.9,363.2,516.4,355.4"/>
			<path id="Path_2226" class="st0" d="M550.4,311.3c1.9,6.4,1.9,13.1,0,19.5C548.5,324.4,548.5,317.6,550.4,311.3"/>
			<path id="Path_2227" class="st0" d="M586.6,428.8c8.1,0.3,14.8-2.5,20.1-8.4C605.3,428.4,593.8,433.2,586.6,428.8"/>
			<path id="Path_2228" class="st0" d="M604.7,410.2c11.2,0.9,18.7-8.3,26.3-14.7c8-6.9,17-12.6,26.7-16.8
				c9.8-4.2,20.2-7.1,30.8-8.4c10.5-1.6,21.4,0.5,31.4-3.2c-4.7,2.5-10.2,3.2-15.4,3.6c-26.2,1-52,10-72.1,26.3
				C624.6,403,615.8,412.3,604.7,410.2"/>
			<path id="Path_2229" class="st0" d="M842.6,483.2c1.9,4.4,1.9,9.3,0,13.7C840.7,492.6,840.7,487.6,842.6,483.2"/>
			<path id="Path_2230" class="st0" d="M627.2,514.3c10.1-2,20-4.7,29.7-8.2C648.6,512.9,637.8,515.9,627.2,514.3"/>
			<path id="Path_2231" class="st0" d="M190.1,205.1c1.9,14.2,1.9,28.5,0,42.7C188.2,233.7,188.2,219.3,190.1,205.1"/>
			<path id="Path_2232" class="st6" d="M129.7,197.6c1.3,15.9,0.9,32-1.3,47.8"/>
			<line id="Line_281" class="st6" x1="124.7" y1="328.1" x2="124.7" y2="385.9"/>
			<line id="Line_282" class="st6" x1="545.9" y1="114.8" x2="545.9" y2="152.4"/>
			<path id="Path_2233" class="st0" d="M548.5,217.7c0.9,15.3,1.4,30.6,1.3,45.9c-1.8,13.5-9,25.2-13.6,37.8
				c-1.5,3.8-2.9,7.6-3.4,11.7c-0.1-4.1,1.1-8.1,2.2-12.1c3.3-11.2,9.1-23.3,11.7-34.7c0.8-3.3,0.4-8.5,0.5-12
				C547.4,242.1,547.7,229.9,548.5,217.7"/>
			<line id="Line_283" class="st6" x1="564.2" y1="119.8" x2="564.2" y2="144.9"/>
			<path id="Path_2234" class="st6" d="M80.4,679.5c-8.5-11.9-19.2-22.1-31.5-30.1c5.3-0.4,33.7-20.7,36.2-25.2"/>
			<path id="Path_2235" class="st0" d="M815.4,677c1.9,12.5,1.9,25.2,0,37.7C813.5,702.2,813.5,689.5,815.4,677"/>
			<path id="Path_2236" class="st6" d="M757.6,772.4c1.3,15.1,0.9,30.3-1.2,45.3"/>
			<path id="Path_2237" class="st0" d="M828.6,737.3c-0.1,14.9,3.4,29.5,10.3,42.7C828.6,768.6,824.6,751.8,828.6,737.3"/>
			<path id="Path_2238" class="st0" d="M848.1,689.6c-1.2,39.3-4.4,83,21.7,116.2c-1.7-1.9-3.4-3.9-5.1-5.8
				C840.8,768.3,843.3,726.4,848.1,689.6"/>
			<path id="Path_2239" class="st7" d="M769.6,371c-0.8,7.2,3.4,14.2,8.5,19.6c14.4,15.4,37.2,23.2,58.5,20
				c4.8-0.7,10.2-2.4,12.3-6.6c3.2-6.2-2.5-13.2-8.1-17.7C830.5,378,773.2,338.8,769.6,371z"/>
			<path id="Path_2240" class="st0" d="M733.1,790.1c3.8,13.4,0.2,27.3-6.6,39.1c-6.1,12.1-14.5,22.9-24.8,31.8l-0.6-0.5
				c8.2-10.1,14.7-21.5,19.3-33.7c4-12.5,6.7-24.3,11.8-36.7L733.1,790.1"/>
			<path id="Path_2241" class="st5" d="M861.2,776.1c-5.3,23,6.3,48.6,27.3,60.6"/>
			<path id="Path_2242" class="st0" d="M761,785.2c14.2,29.4-14.3,58.4-33.8,78.5l-0.6-0.5c8.5-11.9,17.3-23.9,23.4-37
				c5.2-13.1,8.7-26.8,10.2-40.9L761,785.2"/>
			<path id="Path_2243" class="st0" d="M846.2,735.4c3.8,10.6,4.2,22,4.1,32.8c-0.5,18.5-4,37.4,6.2,54c7,11.7,18.2,20.7,23.8,33.5
				l-0.7,0.3c-8.3-14.3-24.3-23.6-31.4-38.9c-9.4-20.4-7-44-4.1-65.5c0.6-5.3,1-10.6,1.4-16.2L846.2,735.4z"/>
			<path id="Path_2244" class="st0" d="M827.8,855.7c-12.8-24-15.6-52.1-10.7-78.5l6.7,0.4c-0.3,7.6-2.1,14.7-4.3,21.6
				c-4.3,13.5-10.7,26.3-13.6,40.1c-1.5,6.8-0.6,15.1-6.8,20l-0.5-0.6c2.6-2.4,3.6-5.8,4-9.2c0.4-10.7,2.2-21.3,5.6-31.4
				c3.9-13.1,9.2-26.7,8.9-40.3l6.7,0.4c-1.6,19.3-0.4,38.7,1.9,57.9c0.8,6.5,1.9,12.9,2.9,19.5L827.8,855.7z"/>
			<path id="Path_2245" class="st0" d="M789.5,791.3c0.7,5.1,0.2,11.8-0.5,17c-2.2,16.5-7.2,32.9-15.5,47.6
				c-3.7,6.5-7.8,12.9-12.1,19l-5.5-3.4C772.2,847.2,780.4,818.6,789.5,791.3 M789.4,792c-0.1,3-1,7.4-1.7,10.4
				c-6,25-12.9,50-26.2,72.5l-5.5-3.4c13.2-21.7,22.5-45.4,30-69.4l1.6-5.3C788,795.3,789.1,793.9,789.4,792"/>
			<path id="Path_2246" class="st7" d="M792.7,367c0.4,15.9,16.6,29.8,33.1,28.5c-5.4-12.1-17.3-21.3-30.7-23.8"/>
			<path id="Path_2247" class="st0" d="M803.8,786.9c4,13.9,2.4,28-1.4,41.6c-3.1,13.6-7.3,26.9-12.8,39.8l-0.8-0.2
				c3.1-13.4,5.4-26.9,7.1-40.6c1-13.9,2.2-27.2,7-40.6L803.8,786.9"/>
			<path id="Path_2248" class="st0" d="M839.9,785.4c2.9,13.5,4.2,25.9,7.3,39.1c3.8,12.9,10.3,25,18.9,35.3l-0.6,0.5
				c-15.9-13.7-27.8-33.7-30.1-54.2c-0.3-7.1,0.6-14.2,3.6-20.8L839.9,785.4z"/>
			<path id="Path_2249" class="st0" d="M873.4,773.1c2.8,14.5,1.2,28.6,3.8,42.9c1.8,6.9,4.9,13.3,9.1,19c4.2,6,9.3,11.6,13.4,17.9
				l-0.7,0.5c-10.4-10.9-23.5-20.8-28.2-35.6c-5.6-14.6-4.4-30.4,1.7-44.7L873.4,773.1"/>
			<path id="Path_2250" class="st0" d="M723.1,776c4.2,15,1,30.7-5.6,44.6c-5.9,14.1-14.2,27-24.7,38.2l-0.7-0.5
				c8.3-12.3,14.7-25.7,19.1-39.8c3.7-14.4,6.2-28.2,11-42.5L723.1,776"/>
			<path id="Path_2251" class="st7" d="M807.1,382.8c1.2,1.2,2.6,2.1,4.2,2.8c-1.3-1.3-2.9-2.4-4.5-3.3"/>
			<path id="Path_2252" class="st7" d="M798.1,393.6c4,2.9,8.5,5,12.9,7.1c4.2,2,8.6,4,13.3,4.4c2.5,0.3,5-0.1,7.3-1.2
				c2.2-1.2,3.7-3.5,3.5-5.9c-0.2-1.8-1.3-3.4-2.5-4.9c-3.4-4.3-7-8.4-10.9-12.3c-3.9-3.9-8.1-7.6-13.2-9.6c-2.7-1-5.4-1.7-8.2-2.1
				c-3.2-0.7-6.4-1.1-9.6-1.1c-2,0.1-7.9,0.8-8,3.5c0,0.8,1.1,1.9,1.4,2.7c0.6,1.4,1,2.9,1.6,4.2
				C788.3,384.5,792.6,389.7,798.1,393.6L798.1,393.6z"/>
			<path id="Path_2253" class="st0" d="M731.8,710.8c-0.4,12.1,0.4,24.2,2.4,36.2c1.5,8.9,4.2,17.9,4.8,27c0.2,3.1,0,6.1-0.5,9.2
				c0-3-0.3-6.1-0.9-9c-1.5-9-4.7-17.6-6.2-26.7C729.4,735.3,729.5,722.9,731.8,710.8"/>
			<path id="Path_2254" class="st6" d="M753.3,718.9c-0.9,31.1-0.3,62.2,2,93.2"/>
			<path id="Path_2255" class="st6" d="M780.6,741.5c-1.2,18.2,3.8,36.1,6.1,54.2c2.3,18.1,1.4,37.8-10,52.4"/>
			<path id="Path_2256" class="st6" d="M834.1,742.5c-1.3,15.3-1.3,30.7,2,45.7s9.9,29.5,20.5,41"/>
			<path id="Path_2257" class="st0" d="M846.4,722.8c5.7,17.4,10.5,35,15.2,52.6c4.6,17.6,8.9,35.5,19.1,50.9
				c-12.1-14.3-17.1-32.8-21.8-50.3C854.4,758.4,850,740.7,846.4,722.8"/>
			<line id="Line_284" class="st6" x1="802.4" y1="689.1" x2="802.4" y2="785.9"/>
			<path id="Path_2258" class="st0" d="M843.9,588.5c0.5,37.9-0.7,77.1,14.5,112.8c2.1,5.1,4.6,10,7.3,14.8
				C839.8,678.8,840.6,631.5,843.9,588.5"/>
			<path id="Path_2259" class="st0" d="M753.9,656.7c-2.9,26.8-5.9,53.6-7.8,80.4c-1.1,13.4-1.9,26.8-2.6,40.3
				c-0.9,13.2-2.4,28.1-12.7,37.9c9.3-10.5,10.1-24.8,10.6-38c0.3-13.5,1.1-26.9,2-40.4C745.6,710,748.8,683.2,753.9,656.7"/>
			<path id="Path_2260" class="st0" d="M108.8,311.8c8.6,25.1-4.5,50.8-9.7,75.2c-6.5,24.5-6.1,50.3-1.2,75.1
				c6.8,37.6,14.3,76.9,4.3,114.7c-3.2,12.7-8.8,24.6-16.5,35.2l-0.7-0.4c16.2-35.3,14.4-73.6,11.5-111c-2.6-25.2-3.9-50.9-5-76.3
				c-0.4-12.7-1-25.7,0.9-38.6c1.5-11.3,7-26.1,10.4-37c3.7-12,6.6-24.1,5.2-36.8L108.8,311.8z"/>
			<path id="Path_2261" class="st0" d="M516.7,389.1c-1.7,15.5-8.8,30-20.1,40.8C504.8,417,511.5,403.3,516.7,389.1"/>
			<path id="Path_2262" class="st0" d="M397.1,500.3c16.9-4.3,32.7-12,46.5-22.8C432.6,491,414.8,499.6,397.1,500.3"/>
			<path id="Path_2263" class="st6" d="M572.2,355.8c-2.5,21-1.7,42.2,2.4,62.9"/>
			<path id="Path_2264" class="st0" d="M578.2,230.3c1.9,11.8,1.9,23.8,0,35.5C576.3,254,576.3,242.1,578.2,230.3"/>
			<path id="Path_2265" class="st0" d="M544.9,169.7c2.7,10.9,3.5,22.2,2.4,33.4C544.6,192.2,543.8,180.9,544.9,169.7"/>
		</g>
	</g>
</g>
</svg>
