<?xml version="1.0" encoding="UTF-8"?><svg id="Layer_2" xmlns="http://www.w3.org/2000/svg" xmlns:xlink="http://www.w3.org/1999/xlink" viewBox="0 0 1631 804"><defs><style>.cls-1,.cls-2{fill:none;}.cls-3{fill:#d9e6ec;}.cls-3,.cls-2{stroke:#1d1d1b;stroke-linecap:round;stroke-linejoin:round;}.cls-4{clip-path:url(#clippath);}.cls-5{fill:#fff;}.cls-6{fill:#2a4f6e;}.cls-7{isolation:isolate;}</style><clipPath id="clippath"><rect class="cls-1" width="1631" height="804"/></clipPath></defs><g id="båt"><g class="cls-4"><rect id="Rectangle_1512" class="cls-5" x="-64.02" y="750.6" width="1709.45" height="92.47"/><path id="Path_1178" class="cls-2" d="M-21.8,232.93c55.28,8.84,115.4-4.5,161.24-22.1,45.84-17.59,84.93-39.84,136.29-53.23,83.63-21.81,186.84-16.45,275.38,0,88.54,16.45,167.76,42.91,252.55,63.6,54.43,13.28,113.08,24.36,173.82,23.9,88.75-.66,168.01-25.39,247.77-44.57,84.66-20.35,176.81-35.25,271.02-34.77,94.21,.47,190.87,17.88,251.73,53.28"/><path id="Path_1179" class="cls-2" d="M-42.07,244.53c47.43-3.38,97.67,5.63,142.85-2.24,24.78-4.32,44.91-13.24,64.56-21.84,69.84-30.56,151.24-61.2,244.68-60.22,78.66,.82,147.98,23.95,214.62,44.54,74.73,23.09,153.16,44.16,238.22,55.68,85.07,11.52,177.87,12.92,260.13-2.76,43.79-8.35,83.32-21.23,125.17-31.72,51.7-12.96,106.81-22.25,161.7-31.5,45.34-7.64,91.47-15.35,139.36-16.33,47.89-.98,98.65,5.71,131.24,23"/><path id="Path_1180" class="cls-2" d="M-27.64,214.98c54.17,5.99,110.7-5.65,154.7-22.31,44-16.66,79.31-38.19,120.65-56.43,41.35-18.24,92.18-33.64,147.69-33.76,66.3-.14,123.75,21.05,177.66,40.04,82.85,29.19,171.36,55.69,269.17,69.72,97.81,14.04,206.44,14.69,298.77-6.52,109.79-25.22,192.79-79.62,312.74-88.02,85.83-6.01,177,16.1,219.59,53.27"/><path id="Path_1181" class="cls-2" d="M-30.09,261.89c69.74,5.86,141.55,11.7,210.68,4.3,44.19-4.73,85.34-14.7,128.93-20.64,71.32-9.73,146.68-8.37,220.62-6.94,30.97,.6,62.25,1.22,92.19,5.16,38.81,5.11,73.7,15.57,110.82,23.14,101.01,20.59,214.4,19.07,323.46,15.24,41.94-1.47,84.26-3.28,124.32-9.57,35.59-5.59,68.52-14.58,103.06-21.59,123-24.96,267.21-23.3,387.7,4.47"/><g id="before_the_intruders_of_the_" class="cls-7" transform="translate(401.999 152.816)"><g class="cls-7"><path class="cls-6" d="M499.4,225.69c0,6.92-6.61,17.42-14.92,22.26-3.71,2.16-5.86,2.75-8.16,2.75-3.12,0-6.23-2.01-6.23-6.92,0-2.23,1.78-7.97,3.56-13.47,1.71-5.58,7.57-22.41,8.91-26.58,.96-2.68,.07-3.2-1.63-4.24-.52-.37-.96-.6-.96-1.12,0-.37,.96-.74,1.86-.97s7.72-1.27,8.46-1.27c.22,0,.52,.74,.22,1.34-1.86,3.65-10.39,27.02-12.47,33.35-.15,.22,.37,.3,.52,0,3.49-4.54,9.65-11.39,14.99-11.39,3.49,0,5.86,2.9,5.86,6.25Zm-19.96,7.82c-3.19,5.29-4.45,9.45-4.45,11.54,0,.89,1.34,3.57,2.89,3.57,1.11,0,2.6-.82,4.9-2.83,4.68-4.39,11.8-15.26,11.8-21.59,0-1.34-1.11-2.31-2.52-2.31-4.45,0-9.5,6.48-12.62,11.61Z"/><path class="cls-6" d="M527.08,223.98c0,2.31-2.15,5.29-5.71,7.3-2.67,1.49-7.72,3.13-10.84,4.02-.52,.15-1.04,.6-1.19,1.12-.52,1.41-.96,3.72-.96,5.81,0,3.72,1.93,4.47,3.93,4.47,2.52,0,5.34-1.71,7.27-3.5,.82-.82,1.41-1.12,1.86-1.12,.22,0,.45,.3,.45,.45,0,.45-.45,1.27-.89,1.86-1.86,2.16-6.75,6.18-12.25,6.18-1.78,0-5.71-2.9-5.71-7.74,0-5.29,3.19-12.58,8.16-17.79,3.86-3.95,7.87-5.58,10.46-5.58,4.38,0,5.42,2.83,5.42,4.54Zm-16.4,8.78c-.07,.15-.07,.75,.22,.67,4.68-1.64,11.73-4.76,11.73-10.35,0-.97-.3-1.86-1.26-1.86-3.79,0-9.43,7.52-10.69,11.54Z"/><path class="cls-6" d="M550.09,219.96c.37,0,.59,.74,.59,.97,0,.45-.82,1.64-1.78,1.64-1.63,0-4.38,.22-6.53,.22-.22,0-.45,.22-.59,.6-2.38,7.52-7.05,24.49-9.43,33.05-2.15,7.22-5.42,8.93-7.35,10.42-2.75,1.94-6.9,3.28-8.31,3.28-3.41,0-5.27-1.56-5.2-3.35,0-.97,2.15-3.42,3.19-3.42,.3-.08,.89,.15,1.19,.52,1.41,1.86,3.04,2.9,4.82,2.9,2,0,4.38-1.19,6.61-9.83,2.38-8.86,6.38-23.6,9.43-33.58,.07-.15,0-.6-.45-.6l-4.53,.15c-.52,0-.74-.45-.74-.74,0-.89,.82-1.79,1.41-1.79,1.34,0,3.86-.07,4.9-.07,.22,0,.45-.37,.52-.52,2.45-7.15,6.75-17.12,12.39-20.92,2.97-2.08,5.27-2.75,7.27-2.75,3.79,0,5.57,2.38,5.49,4.69-.07,3.2-2.45,5.06-3.64,5.06-.37,0-.59-.22-.59-.75,0-.37,.07-1.12,.07-1.56,.07-2.75-1.11-5.29-3.12-5.29-2.23,0-4.16,1.19-7.05,6.33-1.93,3.5-4.23,9.98-5.64,14.81-.07,.3,.22,.75,.3,.75l6.75-.22Z"/><path class="cls-6" d="M572.43,227.77c0,9.9-6.75,18.24-12.91,21.37-1.86,.89-3.79,1.56-6.16,1.56-2.82,0-6.46-2.9-6.46-7.97,0-4.54,3.12-13.92,9.35-19.36,2.45-2.16,5.64-3.95,9.2-3.95,4.53,0,6.98,4.76,6.98,8.34Zm-12.91-3.05c-3.49,4.02-7.42,13.18-7.42,20.62,0,1.71,.89,3.28,2.82,3.28,1.19,0,2.82-.74,4.9-3.35,3.19-3.95,7.79-13.62,7.79-20.32,0-2.08-.74-3.57-2.75-3.57-1.71,0-3.41,1.04-5.34,3.35Z"/><path class="cls-6" d="M588.76,222.78c0,2.46-1.78,7.82-2.45,9.53-.45,1.34,.37,1.12,1.34-.52,1.78-3.05,3.93-5.96,5.86-8.11,2.15-2.53,4.38-4.24,6.46-4.24,2.23,0,2.82,1.79,2.82,3.05,0,2.9-2.6,5.58-3.49,5.58-.52,0-.89-.37-.89-1.64-.07-1.49-.74-2.75-1.41-2.75-.89,0-2.23,.82-4.9,5.06-2.82,4.24-9.2,16.97-10.39,19.36-1.11,2.31-2.45,2.68-3.12,2.68-.59,0-1.41-.45-1.71-1.04-.15-.15-.07-.97,0-1.12,3.12-7.97,5.2-13.18,7.57-20.62,.82-2.83,.07-3.5-.74-3.5-1.19,0-2.75,1.12-4.16,2.9-.82,1.04-1.34,1.49-1.63,1.49-.45,0-.59-1.27-.3-2.16,1.56-4.32,4.9-7.3,8.02-7.3,2.08,0,3.12,1.79,3.12,3.35Z"/><path class="cls-6" d="M626.46,223.98c0,2.31-2.15,5.29-5.71,7.3-2.67,1.49-7.72,3.13-10.84,4.02-.52,.15-1.04,.6-1.19,1.12-.52,1.41-.96,3.72-.96,5.81,0,3.72,1.93,4.47,3.93,4.47,2.52,0,5.34-1.71,7.27-3.5,.82-.82,1.41-1.12,1.86-1.12,.22,0,.45,.3,.45,.45,0,.45-.45,1.27-.89,1.86-1.86,2.16-6.75,6.18-12.25,6.18-1.78,0-5.71-2.9-5.71-7.74,0-5.29,3.19-12.58,8.16-17.79,3.86-3.95,7.87-5.58,10.46-5.58,4.38,0,5.42,2.83,5.42,4.54Zm-16.4,8.78c-.07,.15-.07,.75,.22,.67,4.68-1.64,11.73-4.76,11.73-10.35,0-.97-.3-1.86-1.26-1.86-3.79,0-9.43,7.52-10.69,11.54Z"/><path class="cls-6" d="M659.93,213.48c-.22,.89-1.56,5.29-1.78,6.1-.07,.22,.07,.67,.37,.67,1.56,0,4.97,.15,6.9,.22,.15,0,.3,.3,.3,.59,.07,.45-.67,1.56-1.48,1.64-1.11,.07-5.49,.3-6.9,.3-.22,0-.52,.22-.67,.59-1.04,2.38-4.97,12.73-7.12,18.84-.45,1.27-.37,2.08,.37,2.08,1.48,0,5.86-3.05,7.42-4.76,.67-.6,1.63-1.12,1.63-.22,0,.59-.22,1.12-.67,1.79-2.97,4.17-10.39,9.23-13.88,9.23-.74,0-1.93-1.12-1.93-1.71,0-.37,.07-.97,.37-1.86,.3-.74,5.42-14.82,8.61-23.08,.22-.52,.07-.89-.15-.89-1.04-.08-2.89-.15-3.93-.22-.74-.07-1.19-.37-1.19-.67,0-.45,.96-1.49,1.48-1.56,1.48-.15,4.01-.22,4.53-.22,.37,0,.74-.52,.82-.67,1.11-2.23,2.23-4.32,3.04-5.66,.96-1.56,1.93-2.16,3.49-2.16,.67,0,.74,.37,.37,1.64Z"/><path class="cls-6" d="M688.06,245.12c-1.71,1.86-3.41,3.05-4.82,4.02-1.71,1.12-2.82,1.79-3.71,1.79-1.11,0-2.3-.52-2.75-.97-.59-.59-.67-.97-.67-1.34,0-.45,1.34-2.38,1.86-2.68,.22-.15,.22-.22,.45-.15,1.19,.45,2.45,1.42,4.01,1.42,.52,0,.96-.22,1.48-1.12,2.23-3.13,6.46-16.3,6.46-20.7,0-1.94-.82-2.98-2.15-2.98-2.6,0-5.64,3.28-11.43,10.87-2.15,2.98-7.72,12.43-9.43,15.86-.52,.89-1.78,1.56-2.08,1.56-1.19,0-2.15-1.42-1.93-2.31,5.12-15.78,10.17-32.46,13.8-44.52,.59-1.79,.67-2.83-2-3.42-1.19-.3-1.56-.97-1.56-1.19,0-.3,.59-.67,1.34-.89,2.23-.6,7.94-2.23,9.05-2.23,.3,0,.67,.97,.52,1.56-3.64,11.54-11.28,34.1-11.65,35.44-.22,.75,.3,.82,.59,.45,3.12-4.02,7.27-8.79,10.46-11.17,3.34-2.46,5.05-2.98,7.27-2.98,3.64,0,4.75,3.5,4.75,4.91,0,7.52-4.97,17.5-7.87,20.77Z"/><path class="cls-6" d="M724.21,223.98c0,2.31-2.15,5.29-5.71,7.3-2.67,1.49-7.72,3.13-10.84,4.02-.52,.15-1.04,.6-1.19,1.12-.52,1.41-.96,3.72-.96,5.81,0,3.72,1.93,4.47,3.93,4.47,2.52,0,5.34-1.71,7.27-3.5,.82-.82,1.41-1.12,1.86-1.12,.22,0,.45,.3,.45,.45,0,.45-.45,1.27-.89,1.86-1.86,2.16-6.75,6.18-12.25,6.18-1.78,0-5.71-2.9-5.71-7.74,0-5.29,3.19-12.58,8.16-17.79,3.86-3.95,7.87-5.58,10.46-5.58,4.38,0,5.42,2.83,5.42,4.54Zm-16.4,8.78c-.07,.15-.07,.75,.22,.67,4.68-1.64,11.73-4.76,11.73-10.35,0-.97-.3-1.86-1.26-1.86-3.79,0-9.43,7.52-10.69,11.54Z"/><path class="cls-6" d="M755.67,221.22c0,.67-.45,1.79-.74,2.53-3.56,8.34-5.86,14.29-8.46,20.25-.15,.37,0,1.27,.82,1.27,1.11,0,5.05-2.98,6.9-4.99,.74-.82,1.34-1.42,1.71-1.42,.15,0,.37,.15,.37,.45,0,.67-.52,1.71-1.34,2.68-3.34,3.87-9.65,8.71-12.69,8.71-1.11,0-2.23-1.12-2.23-1.86,0-.37,.07-.67,.37-1.34,2.67-6.63,5.71-13.85,9.2-21.96,.3-.67-.22-1.19-.59-1.04-1.63,.52-3.49,1.49-5.49,3.28-.37,.37-.96,.22-.96-.22,0-.52,.45-1.27,.96-1.86,1.48-1.79,7.87-6.25,10.46-6.25,.59,0,1.71,1.12,1.71,1.79Zm2.82-13.77c0,2.01-1.78,4.02-3.41,4.02-.37,0-.74-.07-1.11-.22-.89-.52-1.63-1.49-1.63-2.75,0-1.34,.74-2.46,1.48-3.13,.74-.6,1.48-.89,2-.89,1.63,0,2.67,1.49,2.67,2.98Z"/><path class="cls-6" d="M792.11,223.68c0,1.27-.22,2.31-1.04,4.39-1.63,4.39-6.01,13.7-6.68,14.89-.67,1.34-.59,2.01,.22,2.01,1.48,0,4.45-2.38,6.68-4.47,.59-.52,1.48-.67,1.48-.15,0,.75-.52,1.56-.89,2.16-2.6,3.95-9.57,8.19-12.17,8.19-.67,0-1.56-.3-2.38-1.27-.22-.22-.74-.89,.07-2.46,.67-1.27,9.5-19.43,10.24-21.81,.82-2.31,.07-3.28-1.04-3.28-1.78,0-4.53,1.71-8.39,6.4-3.12,3.57-10.02,14.67-12.32,17.94-2,3.13-2.97,4.54-3.79,4.54-.96,0-2.08-1.34-2.08-2.08-.15-1.12,2-5.51,2.3-6.18,2.08-4.69,5.64-11.84,7.79-17.5,.45-.89,0-1.19-.67-1.19-2.3,0-3.93,1.71-5.71,3.35-.37,.37-.67,.74-.96,.74-.22,0-.45-.45-.45-.74,0-2.08,3.41-7.74,9.65-7.74,1.04,0,2.23,.67,2.75,1.49,.22,.37,.22,1.04-.15,1.94-.52,1.19-3.86,9.23-4.53,10.79-.3,.6,.59,.67,.89,.07,1.48-2.23,6.68-8.49,9.2-10.57,3.19-2.75,6.01-3.72,7.72-3.72,2.82,0,4.23,2.23,4.23,4.24Z"/><path class="cls-6" d="M814.6,213.48c-.22,.89-1.56,5.29-1.78,6.1-.07,.22,.07,.67,.37,.67,1.56,0,4.97,.15,6.9,.22,.15,0,.3,.3,.3,.59,.07,.45-.67,1.56-1.48,1.64-1.11,.07-5.49,.3-6.9,.3-.22,0-.52,.22-.67,.59-1.04,2.38-4.97,12.73-7.12,18.84-.45,1.27-.37,2.08,.37,2.08,1.48,0,5.86-3.05,7.42-4.76,.67-.6,1.63-1.12,1.63-.22,0,.59-.22,1.12-.67,1.79-2.97,4.17-10.39,9.23-13.88,9.23-.74,0-1.93-1.12-1.93-1.71,0-.37,.07-.97,.37-1.86,.3-.74,5.42-14.82,8.61-23.08,.22-.52,.07-.89-.15-.89-1.04-.08-2.89-.15-3.93-.22-.74-.07-1.19-.37-1.19-.67,0-.45,.96-1.49,1.48-1.56,1.48-.15,4.01-.22,4.53-.22,.37,0,.74-.52,.82-.67,1.11-2.23,2.23-4.32,3.04-5.66,.96-1.56,1.93-2.16,3.49-2.16,.67,0,.74,.37,.37,1.64Z"/><path class="cls-6" d="M831.45,222.78c0,2.46-1.78,7.82-2.45,9.53-.45,1.34,.37,1.12,1.34-.52,1.78-3.05,3.93-5.96,5.86-8.11,2.15-2.53,4.38-4.24,6.46-4.24,2.23,0,2.82,1.79,2.82,3.05,0,2.9-2.6,5.58-3.49,5.58-.52,0-.89-.37-.89-1.64-.07-1.49-.74-2.75-1.41-2.75-.89,0-2.23,.82-4.9,5.06-2.82,4.24-9.2,16.97-10.39,19.36-1.11,2.31-2.45,2.68-3.12,2.68-.59,0-1.41-.45-1.71-1.04-.15-.15-.07-.97,0-1.12,3.12-7.97,5.2-13.18,7.57-20.62,.82-2.83,.07-3.5-.74-3.5-1.19,0-2.75,1.12-4.16,2.9-.82,1.04-1.34,1.49-1.63,1.49-.45,0-.59-1.27-.3-2.16,1.56-4.32,4.9-7.3,8.02-7.3,2.08,0,3.12,1.79,3.12,3.35Z"/><path class="cls-6" d="M860.92,220.62c.07,.22-.07,1.12-.22,1.42-1.48,2.83-7.57,18.46-8.16,20.77-.52,2.01-.22,2.9,.74,2.9,2.97,0,10.32-8.11,14.1-14.44,2.6-4.17,4.45-7.67,5.64-9.83,.59-1.04,1.48-2.01,2.15-2.01s2.15,.97,2.15,1.79c0,.6-.37,1.71-.96,3.05-1.63,4.02-5.57,13.55-7.35,19.06-.37,1.04-.07,1.49,.59,1.49,1.04,0,4.08-1.71,7.35-5.21,.59-.6,1.41-.75,1.41-.22,0,.45-.22,.89-.59,1.64-2.08,4.09-9.5,9.68-12.54,9.68-.82,0-1.93-1.27-1.93-2.01,0-.37,.15-.74,.3-1.27,.37-1.12,3.34-8.64,3.79-10.05,.52-1.56-.07-1.42-.96-.37-3.93,4.76-10.09,9.75-13.73,12.13-1.63,1.04-3.34,1.56-4.23,1.56s-1.63-.45-2-.89c-.45-.52-.89-1.56-.3-3.2,.89-2.46,6.53-16.53,8.31-20.47,.37-.74,.15-1.04-.22-1.04-.67,0-4.01,2.38-4.9,2.98-.74,.52-1.56,.52-1.63,.07,0-.37,.22-.82,.52-1.19,.96-1.86,7.94-7.52,11.43-7.52,.37,0,1.04,.6,1.26,1.19Z"/><path class="cls-6" d="M896.99,221.29c2.45-1.41,5.12-1.86,5.49-1.86,.96,0,3.04,.82,4.38,2.01,.15,.07,.74,0,.82-.22,.89-3.05,2.75-8.34,5.27-17.72,.59-2.31,.22-2.83-1.34-3.57-1.41-.6-2.08-1.04-2.08-1.34,0-.22,.74-.89,1.19-.97,1.41-.45,6.9-1.49,8.61-1.49,.45,0,.45,1.27,0,3.05-1.34,4.76-4.01,12.66-7.5,23.82-2.23,7.44-4.68,15.34-6.01,20.1-.45,1.49,0,2.16,.82,2.16,1.41,0,4.38-2.38,6.61-5.36,.52-.67,.89-.45,.89,.22,0,.52-.15,.97-.3,1.42-1.41,4.17-7.42,9.31-10.98,9.31-.96,0-2.3-1.94-2.3-2.83,0-1.79,1.93-7.67,2.67-9.98,.07-.3-.45-.82-.59-.6-5.34,8.04-11.65,13.25-16.85,13.25-1.11,0-2.45-.3-3.27-1.19-.74-.89-1.04-2.01-1.04-4.02,0-7.22,7.35-19.58,15.51-24.2Zm-8.91,26.06c2.23,0,7.64-3.42,11.95-9.16,2.52-3.57,4.16-7.15,5.12-9.9,.74-2.01,.89-3.87,.45-5.14-.37-.74-1.11-1.27-1.93-1.27-1.19,0-3.86,.74-8.02,5.36-5.27,5.81-8.98,13.7-8.98,18.24,0,1.12,.74,1.86,1.41,1.86Z"/><path class="cls-6" d="M942.56,223.98c0,2.31-2.15,5.29-5.71,7.3-2.67,1.49-7.72,3.13-10.84,4.02-.52,.15-1.04,.6-1.19,1.12-.52,1.41-.96,3.72-.96,5.81,0,3.72,1.93,4.47,3.93,4.47,2.52,0,5.34-1.71,7.27-3.5,.82-.82,1.41-1.12,1.86-1.12,.22,0,.45,.3,.45,.45,0,.45-.45,1.27-.89,1.86-1.86,2.16-6.75,6.18-12.25,6.18-1.78,0-5.71-2.9-5.71-7.74,0-5.29,3.19-12.58,8.16-17.79,3.86-3.95,7.87-5.58,10.46-5.58,4.38,0,5.42,2.83,5.42,4.54Zm-16.4,8.78c-.07,.15-.07,.75,.22,.67,4.68-1.64,11.73-4.76,11.73-10.35,0-.97-.3-1.86-1.26-1.86-3.79,0-9.43,7.52-10.69,11.54Z"/><path class="cls-6" d="M956.95,222.78c0,2.46-1.78,7.82-2.45,9.53-.45,1.34,.37,1.12,1.34-.52,1.78-3.05,3.93-5.96,5.86-8.11,2.15-2.53,4.38-4.24,6.46-4.24,2.23,0,2.82,1.79,2.82,3.05,0,2.9-2.6,5.58-3.49,5.58-.52,0-.89-.37-.89-1.64-.07-1.49-.74-2.75-1.41-2.75-.89,0-2.23,.82-4.9,5.06-2.82,4.24-9.2,16.97-10.39,19.36-1.11,2.31-2.45,2.68-3.12,2.68-.59,0-1.41-.45-1.71-1.04-.15-.15-.07-.97,0-1.12,3.12-7.97,5.2-13.18,7.57-20.62,.82-2.83,.07-3.5-.74-3.5-1.19,0-2.75,1.12-4.16,2.9-.82,1.04-1.34,1.49-1.63,1.49-.45,0-.59-1.27-.3-2.16,1.56-4.32,4.9-7.3,8.02-7.3,2.08,0,3.12,1.79,3.12,3.35Z"/><path class="cls-6" d="M988.27,220.77c.37,.37,.74,.97,.74,1.64,0,.89-1.41,2.61-1.93,2.98-.3,.15-.74,0-1.11-.22-1.78-1.04-2.75-2.46-4.68-2.46-.82,0-2.97,1.19-2.97,3.5,0,2.16,1.71,4.76,3.49,7.22,1.86,2.98,2.97,4.99,2.97,6.55,0,2.53-1.71,4.91-4.08,6.92-2.97,2.61-6.98,3.65-8.61,3.65s-4.68-1.56-4.68-3.95c0-.6,.74-2.16,1.41-2.98,.15-.15,.82-.3,1.11,0,1.48,1.49,4.01,3.35,6.53,3.35,2.15,0,3.93-1.71,3.93-4.02,0-1.56-1.19-3.5-3.27-6.62-2-3.05-2.82-5.14-2.82-6.78,0-3.05,1.93-5.29,4.08-7.22,2.45-2.08,4.9-2.9,6.46-2.9s2.89,.75,3.41,1.34Z"/><path class="cls-6" d="M1031.4,227.77c0,9.9-6.75,18.24-12.91,21.37-1.86,.89-3.79,1.56-6.16,1.56-2.82,0-6.46-2.9-6.46-7.97,0-4.54,3.12-13.92,9.35-19.36,2.45-2.16,5.64-3.95,9.2-3.95,4.53,0,6.98,4.76,6.98,8.34Zm-12.91-3.05c-3.49,4.02-7.42,13.18-7.42,20.62,0,1.71,.89,3.28,2.82,3.28,1.19,0,2.82-.74,4.9-3.35,3.19-3.95,7.79-13.62,7.79-20.32,0-2.08-.74-3.57-2.75-3.57-1.71,0-3.41,1.04-5.34,3.35Z"/><path class="cls-6" d="M1056.78,219.96c.37,0,.59,.74,.59,.97,0,.45-.82,1.64-1.78,1.64-1.63,0-4.38,.22-6.53,.22-.22,0-.45,.22-.59,.6-2.38,7.52-7.05,24.49-9.43,33.05-2.15,7.22-5.42,8.93-7.35,10.42-2.75,1.94-6.9,3.28-8.31,3.28-3.41,0-5.27-1.56-5.2-3.35,0-.97,2.15-3.42,3.19-3.42,.3-.08,.89,.15,1.19,.52,1.41,1.86,3.04,2.9,4.82,2.9,2,0,4.38-1.19,6.61-9.83,2.38-8.86,6.38-23.6,9.43-33.58,.07-.15,0-.6-.45-.6l-4.53,.15c-.52,0-.74-.45-.74-.74,0-.89,.82-1.79,1.41-1.79,1.34,0,3.86-.07,4.9-.07,.22,0,.45-.37,.52-.52,2.45-7.15,6.75-17.12,12.39-20.92,2.97-2.08,5.27-2.75,7.27-2.75,3.79,0,5.57,2.38,5.49,4.69-.07,3.2-2.45,5.06-3.64,5.06-.37,0-.59-.22-.59-.75,0-.37,.07-1.12,.07-1.56,.07-2.75-1.11-5.29-3.12-5.29-2.23,0-4.16,1.19-7.05,6.33-1.93,3.5-4.23,9.98-5.64,14.81-.07,.3,.22,.75,.3,.75l6.75-.22Z"/><path class="cls-6" d="M1086.54,213.48c-.22,.89-1.56,5.29-1.78,6.1-.07,.22,.07,.67,.37,.67,1.56,0,4.97,.15,6.9,.22,.15,0,.3,.3,.3,.59,.07,.45-.67,1.56-1.48,1.64-1.11,.07-5.49,.3-6.9,.3-.22,0-.52,.22-.67,.59-1.04,2.38-4.97,12.73-7.12,18.84-.45,1.27-.37,2.08,.37,2.08,1.48,0,5.86-3.05,7.42-4.76,.67-.6,1.63-1.12,1.63-.22,0,.59-.22,1.12-.67,1.79-2.97,4.17-10.39,9.23-13.88,9.23-.74,0-1.93-1.12-1.93-1.71,0-.37,.07-.97,.37-1.86,.3-.74,5.42-14.82,8.61-23.08,.22-.52,.07-.89-.15-.89-1.04-.08-2.89-.15-3.93-.22-.74-.07-1.19-.37-1.19-.67,0-.45,.96-1.49,1.48-1.56,1.48-.15,4.01-.22,4.53-.22,.37,0,.74-.52,.82-.67,1.11-2.23,2.23-4.32,3.04-5.66,.96-1.56,1.93-2.16,3.49-2.16,.67,0,.74,.37,.37,1.64Z"/><path class="cls-6" d="M1114.67,245.12c-1.71,1.86-3.41,3.05-4.82,4.02-1.71,1.12-2.82,1.79-3.71,1.79-1.11,0-2.3-.52-2.75-.97-.59-.59-.67-.97-.67-1.34,0-.45,1.34-2.38,1.86-2.68,.22-.15,.22-.22,.45-.15,1.19,.45,2.45,1.42,4.01,1.42,.52,0,.96-.22,1.48-1.12,2.23-3.13,6.46-16.3,6.46-20.7,0-1.94-.82-2.98-2.15-2.98-2.6,0-5.64,3.28-11.43,10.87-2.15,2.98-7.72,12.43-9.43,15.86-.52,.89-1.78,1.56-2.08,1.56-1.19,0-2.15-1.42-1.93-2.31,5.12-15.78,10.17-32.46,13.8-44.52,.59-1.79,.67-2.83-2-3.42-1.19-.3-1.56-.97-1.56-1.19,0-.3,.59-.67,1.34-.89,2.23-.6,7.94-2.23,9.05-2.23,.3,0,.67,.97,.52,1.56-3.64,11.54-11.28,34.1-11.65,35.44-.22,.75,.3,.82,.59,.45,3.12-4.02,7.27-8.79,10.46-11.17,3.34-2.46,5.05-2.98,7.27-2.98,3.64,0,4.75,3.5,4.75,4.91,0,7.52-4.97,17.5-7.87,20.77Z"/><path class="cls-6" d="M1150.81,223.98c0,2.31-2.15,5.29-5.71,7.3-2.67,1.49-7.72,3.13-10.84,4.02-.52,.15-1.04,.6-1.19,1.12-.52,1.41-.96,3.72-.96,5.81,0,3.72,1.93,4.47,3.93,4.47,2.52,0,5.34-1.71,7.27-3.5,.82-.82,1.41-1.12,1.86-1.12,.22,0,.45,.3,.45,.45,0,.45-.45,1.27-.89,1.86-1.86,2.16-6.75,6.18-12.25,6.18-1.78,0-5.71-2.9-5.71-7.74,0-5.29,3.19-12.58,8.16-17.79,3.86-3.95,7.87-5.58,10.46-5.58,4.38,0,5.42,2.83,5.42,4.54Zm-16.4,8.78c-.07,.15-.07,.75,.22,.67,4.68-1.64,11.73-4.76,11.73-10.35,0-.97-.3-1.86-1.26-1.86-3.79,0-9.43,7.52-10.69,11.54Z"/></g></g><path id="Path_1182" class="cls-2" d="M-25.74,278.9c61.4-5.52,123.61,10.78,185.65,7.4,54.69-2.98,104.28-21.03,159.22-19.57"/><path id="Path_1183" class="cls-2" d="M-34.91,305.3l93.52-2.75c15.23-.45,30.55-.9,45.71-.03,18,1.02,35.34,3.86,53.01,5.83,23.03,2.56,46.62,3.63,70.13,4.7"/><path id="Path_1184" class="cls-2" d="M-27.8,329.4c27.57-2.17,55.25-4.34,83.16-4.64,34.38-.37,68.59,2.09,102.62,4.55"/><path id="Path_1185" class="cls-3" d="M1652.5,252.9c-58.18,13.27-126.61,19.36-187.01,8.68-29.61-5.23-55.74-14.18-84.02-20.92-78.42-18.69-174.15-19.36-253.66-1.77-75.08,16.61-133.59,47.85-209.69,63.33-71.2,14.49-152.79,13.81-227.23,3.86s-142.67-28.65-206.87-49.45c-42.8-13.87-87.65-29.34-139.12-29.95-53.54-.63-102.15,15.22-140.08,33.56-37.93,18.34-69.6,39.87-112.1,55.68-47.97,17.84-108.66,27.48-169.11,26.85-10.57,0-25.33,2.97-35.9,2.97"/><path id="Path_1186" class="cls-3" d="M-109.52,358.89c60.34,5.13,122.65-5.04,174.12-21.03,51.46-15.99,94.24-37.52,138.36-57.97,44.55-20.65,99.86-41.79,161.08-37.45,39.49,2.8,71.95,15.76,104.69,26.74,123.09,41.29,278.91,59.4,427.63,49.69,25.36-1.66,50.67-4.11,74.45-8.67,81.24-15.58,138.37-54.36,222.86-65.24,146.31-18.84,288.26,53.96,437.84,42.5"/><path id="Path_1187" class="cls-2" d="M-119.32,374.39c49.86,2.43,102.17,4.69,148.33-4.89,37.44-7.77,66.69-22.49,97.14-35.73,82.28-35.77,193.95-63.69,299.43-48.73,55,7.79,100.94,26.27,153.22,37.73,44.31,9.72,92.59,14.25,140.73,17.17,54.85,3.33,110.77,4.65,165.18-.14,70.89-6.24,136.16-22.53,203.28-35.37,67.12-12.84,140.54-22.41,210.72-14.46,33.9,3.84,65.36,11.6,98.18,17.27,91.69,15.84,191.5,14.99,288.45,11.78"/><path id="Path_1188" class="cls-2" d="M-35.9,400.99c76.79,7.32,154.16-8.58,224.87-25.05,70.71-16.46,145.09-34.29,223.02-31.01,38.8,1.63,76.22,8.5,115.11,9.46,75.94,1.87,154.84-18.66,225.33-4.63"/><path id="Path_1189" class="cls-2" d="M1064.17,346.92c65.76-.24,123.77-20.01,186.33-29.99,77.99-12.44,165.84-9.11,239.04,9.06,19.43,4.82,38.02,10.67,58.83,13.8,28.88,4.34,59.84,3.11,89.92,1.84"/><path id="Path_1190" class="cls-2" d="M240.76,388.15c63.6-17.71,137.24-26.59,210.28-25.34,40.9,.7,81.8,4.5,122.51,2.42,46.83-2.39,92.89-12.49,139.36-8.77"/><path id="Path_1191" class="cls-2" d="M1095.31,355.79c78.83,7.61,156.59-13.97,236.63-17.35,36.16-1.53,72.49,.7,108.5,2.92l118.19,7.29"/><path id="Path_1192" class="cls-2" d="M278.82,405.96c106.33-27.94,237.45-31.92,349.95-10.63"/><path id="Path_1193" class="cls-2" d="M1128.75,395.89c36.91-.45,72.38-6.63,107.55-12.16,91.27-14.36,190.41-24.75,282.04-10.96"/><path id="Path_1194" class="cls-2" d="M-15.58,179.34c14.4-3.12,27.92,4.83,42.38,7.88,7.33,1.55,15.5,1.82,23.48,1.91,30.37,.38,60.72-1.48,90.82-5.56"/><path id="Path_1195" class="cls-2" d="M606.73,153.51c114.71-16.86,234.62,16.71,354.33,16.3,108.12-.37,218.4-28.36,320.26-10.51"/><path id="Path_1196" class="cls-2" d="M681.11,176.14c106.06-14.31,214.08,25.26,323.68,20.76,76.84-3.16,150.12-27.89,225.53-19.99"/><path id="Path_1197" class="cls-2" d="M546.1,129.69c197.33-21.65,405.32,12.67,604.39-4.69,56.52-4.93,111.66-13.99,168.9-16.12,106.47-3.96,214.76,16.27,318.85,4.56"/><path id="Path_1198" class="cls-2" d="M-10.13,162.08c12.81-1.15,25.67-2.31,38.02-4.34,9.32-1.53,18.34-3.56,27.94-4.61,10.13-.91,20.3-1.26,30.47-1.06l124.13,.16"/><path id="Path_1199" class="cls-2" d="M-21.54,126.12c64.48-1.75,130.27-3.43,192.62,4.84,26.19,3.47,54.03,8.67,79.51,4.09"/><path id="Path_1200" class="cls-2" d="M-21.36,97.54c133.37,16.22,264.66-27.15,400.84-36.09,77.14-5.06,155.29,1.08,232.19,6.96,231.25,17.69,468.03,33.07,698.14,12.1,55.78-5.08,110.94-12.29,167.47-14.59,70.7-2.87,142.76,1.96,212.27-5.02"/><path id="Path_1201" class="cls-2" d="M-15.43,113.17c54.14-.26,108.46-.71,162.02-4.61,19.14-1.4,38.67-3.23,57.66-1.41,10.3,.99,20.04,3.02,30.11,4.48,23.14,3.28,46.6,3.56,69.81,.86"/><path id="Path_1202" class="cls-2" d="M474.56,108.32c102.45,2.8,203.34-17.71,305.71-14.26,44.29,1.49,87.39,7.44,131.12,11.2,263.66,22.67,537.15-34.57,799.3-7.99"/><path id="Path_1203" class="cls-3" d="M1765.68,323.43c-70.26-5.88-144.34-.14-207.51,16.1-80.99,20.82-150.47,59.1-241.85,59.37-63.72,.19-120.19-18.63-174.56-34.99-70.98-21.35-149.25-40.09-232.44-40.25-54.03-.1-107,7.69-156.66,18.17-47.81,9.95-94.9,23.14-140.93,39.48-39.08,14.02-77.23,30.43-124.46,35.53-100.32,10.83-189.96-32.3-290.4-42.84-84.53-8.87-178.01,7.95-230.97,41.57-11.27,62.09-8.52,125.01-19.79,187.11-.65,3.61-5.51,7.09-1.11,10,5.61,3.71,9.7,263.61,19.09,263.61,541.49,.22,1141.58,17.26,1683.07,17.48,119.71,.05-83.92-266.49,35.78-267.5,54.13-.46-83.47-71.19-32.56-80.26-5.65-38.13,35.53-37.1,0-71.1-23.29-22.29,.84-30.2-11.72-54.49-9.34-18.07-3.55-29.91-2.01-48.54,1.2-14.45,21.63-4.06,1.2-14.45-9.07-4.61,24.82-17.38,12.53-19.51-47.72-8.26,161.74-24.35,115.28-14.51Z"/><path id="Path_1204" class="cls-2" d="M-44.41,420.33c61.16-1.27,111.17-24.95,170.98-31.36,107.28-11.5,206.58,34.1,316.18,37.35,143.45,4.26,257.38-63.15,399.79-72.64,95.16-6.34,188.13,13.97,277.39,31.4s189.55,32.42,279.47,15.84c28.76-5.3,54.92-13.63,83.74-18.84,61.19-11.07,128.79-7.29,193.49-3.36"/><path id="Path_1205" class="cls-2" d="M-64.5,457.14l187.16-44.4c20.62-4.89,41.98-9.88,64.85-10.35,43.14-.89,79.86,14,117.18,24.68,82.79,23.68,187.31,28.05,277.03,11.57,63.06-11.58,116.99-32.39,174.56-49.56,57.56-17.17,123.66-31.18,190.36-26.74,44.34,2.95,84.6,13.76,125.07,23.15,60.9,14.04,122.46,25.02,184.46,32.89,65.34,8.37,137.17,13.37,198.45-.59,25.34-5.76,47.58-14.54,73.35-19.83,43.35-8.91,92.26-7.21,139.08-5.36"/><path id="Path_1206" class="cls-2" d="M-53.13,497.35c41.44,1.77,57.49-2.36,91.57-14.1,51.88-17.86,81.85-53.13,144.26-58.38,50.55-4.26,96.13,13.69,142.99,23.93,89.02,19.46,193.23,11.29,284.83-5.01,91.6-16.3,177.52-40.31,271.51-52.89,26.07-3.48,52.89-6.09,79.9-5.81,46.61,.48,90.92,9.41,134.13,18.03,131.63,26.27,277.73,51.11,412.66,29.28,43.82-7.09,86.07-19.07,132.19-18.63"/><path id="Path_1207" class="cls-2" d="M-40.26,511.82c43.28,2.14,86.67-.52,129.32-7.93,17.61-3.13,34.57-7.09,52.54-9.71,31.72-4.62,65.41-4.91,98.59-5.16l161.31-1.21"/><path id="Path_1208" class="cls-2" d="M724.38,444.55c74.83-17.82,153.36-36.04,236.45-34.89,44.01,.61,86.91,6.69,128.8,13.36,47.1,7.5,93.62,15.81,139.58,24.93,41.34,8.2,82.42,17.08,125.88,21.96,96.25,10.79,196.89,1.21,295.31,5.02"/><path id="Path_1209" class="cls-2" d="M1148.11,507.04c77.11-4.72,154.5,6.5,232.2,6.79,36.27,.14,72.38-2.11,108.35-4.35,50.63-3.15,101.65-6.35,150.01-14.38"/><path id="Path_1210" class="cls-2" d="M1210.87,527.63c75.61-7.68,151.15,9.48,226.28,18.22,65.7,7.65,133.81,8.89,201.31,8.08"/><path id="Path_1211" class="cls-2" d="M1378.94,569.01c75.51-1.91,152.28-3.77,225.77,4.99,16.13,1.92,31.99,4.35,47.83,6.77"/><path id="Path_1212" class="cls-2" d="M972.84,460.23c52.51-1.83,106-3.63,157.21,2.39,49.91,5.86,95.51,18.93,145.69,24.19,32.84,3.45,66.72,3.45,100.3,3.36,97.22-.27,194.42-1.24,291.59-2.9"/><path id="Path_1213" class="cls-2" d="M-39.87,546.83c15.16-6.85,36.5-7.5,56.2-7.48,46.24,.04,92.48,2.01,138.17,5.89"/><g id="CATAWBA_RIVER" class="cls-7" transform="translate(112.999 339.411)"><g class="cls-7"><path class="cls-6" d="M220.03,341.39c4.67,.72,10.95,3.06,13.65,3.42,.9,0,2.69,1.26,2.69,5.4,0,3.78,.9,11.71,1.26,15.67,.18,3.78-1.26,5.94-2.69,5.94-.9,0-1.98-1.98-2.87-4.68-1.62-6.3-5.03-11.71-7.36-13.51-9.88-7.39-19.03-9.37-28.73-9.37-28.91,0-47.41,23.96-47.41,51.16,0,12.07,2.33,21.79,6.28,29.72,10.06,20.72,30.89,28.82,45.43,28.82,3.41,0,12.21-.54,19.57-4.86,7.9-4.14,12.39-9.91,16.7-17.47,2.33-3.78,3.05-4.68,3.77-4.68,1.8,0,1.98,3.96,1.62,5.94-.54,4.5-4.67,14.05-7.18,18.19-.72,1.62-3.77,3.78-5.57,4.68-2.87,1.26-17.42,5.04-32.68,5.04-25.32,0-43.81-12.61-51-21.08-6.82-7.93-15.08-20.89-15.08-41.43s12.21-36.93,19.75-43.23c15.44-12.61,32.14-16.57,48.66-16.57,6.28,0,14.37,1.26,21.19,2.88Z"/><path class="cls-6" d="M318.25,343.19c1.44,4.86,4.49,12.97,7.9,22.34,9.34,26.3,22.8,61.96,25.86,69.35,5.93,14.77,8.8,16.21,16.88,18.19,2.87,.9,4.31,1.8,4.31,3.06s-1.26,2.34-5.75,2.34c-5.93,0-14.72-.9-22.62-.9-5.75,0-8.26,.36-12.75,.36s-5.57-1.26-5.57-2.16,1.08-2.34,4.31-2.88c8.62-1.8,7.9-5.4,7.18-9.19-1.44-7.38-5.93-19.27-10.06-30.8-.18-.72-.9-1.8-6.1-1.8-9.88,0-25.68,.18-29.45,.72-.72,0-1.62,.9-1.98,1.44-4.67,11.71-9.34,27.02-9.34,31.52,0,2.16,.72,5.22,8.8,7.75,3.05,.9,4.85,1.98,4.85,3.24,0,1.8-2.69,2.34-5.03,2.34-3.05,0-7.54-.54-14.19-.54s-15.98,.9-18.67,.9c-3.23,0-4.13-.72-4.13-1.8s1.26-2.7,3.95-3.6c8.98-3.06,11.31-3.6,16.52-15.31,4.13-9.19,24.6-63.59,32.14-81.96,1.08-2.52,1.26-3.6,1.62-4.68,.18-.54,.54-1.62,1.26-3.06,1.08-1.8,3.05-5.22,4.31-7.21,1.26-1.44,1.98-2.34,2.87-2.34,.72,0,1.44,.72,2.87,4.68Zm5.75,58.36c-3.05-9.19-12.39-36.21-14.01-38.73-.54-1.08-.9-1.26-1.44,0-3.23,8.65-12.57,33.86-14.01,39.45-.18,.72,.18,1.26,.9,1.26,7.18-.18,22.09,0,28.01-.54,.18,0,.72-.9,.54-1.44Z"/><path class="cls-6" d="M456.7,341.39c6.46-.36,9.7-1.44,12.21-3.24,1.26-.72,1.8-1.08,2.51-1.08,.9,0,1.62,1.62,.72,4.14-1.8,5.58-2.87,11.35-3.95,20.71-.18,1.62-1.62,3.42-3.05,3.42-1.26,0-1.98-1.26-2.51-5.76-1.08-9.37-3.41-10.27-14.54-10.81-3.05-.18-22.98-.18-25.14,.36-.9,.18-1.62,1.98-1.62,2.34v44.13c0,20.9,0,38.01,.72,44.67,.9,8.11,1.8,10.27,12.93,12.79,2.33,.54,4.85,1.98,4.85,3.24,0,1.98-3.23,2.16-5.03,2.16-1.44,0-12.57-.9-20.47-.9-8.98,0-18.14,1.26-20.47,1.26-3.59,0-5.39-1.08-5.39-2.16,0-1.26,1.8-2.7,3.41-3.06,12.57-2.88,12.93-5.94,13.47-19.45,.36-10.63,1.26-47.37,1.26-61.24v-21.44c0-1.44-.9-2.34-1.44-2.34-3.59-.54-19.39-.9-22.27-.9-6.82,0-10.59,1.08-13.29,4.14-.72,.54-2.87,3.42-5.93,9.37-1.62,3.78-2.69,3.6-3.41,3.6-1.08,0-1.8-2.34-1.8-4.14,0-3.42,3.41-13.33,3.41-23.96,0-1.08,1.62-2.88,2.69-2.88,.9,0,.9,1.26,2.87,2.88,.54,.54,3.41,3.24,6.1,3.42,4.67,.54,19.03,1.08,42.02,1.08,9.34,0,33.76-.18,41.12-.36Z"/><path class="cls-6" d="M522.06,343.19c1.44,4.86,4.49,12.97,7.9,22.34,9.34,26.3,22.8,61.96,25.86,69.35,5.93,14.77,8.8,16.21,16.88,18.19,2.87,.9,4.31,1.8,4.31,3.06s-1.26,2.34-5.75,2.34c-5.93,0-14.72-.9-22.62-.9-5.75,0-8.26,.36-12.75,.36s-5.57-1.26-5.57-2.16,1.08-2.34,4.31-2.88c8.62-1.8,7.9-5.4,7.18-9.19-1.44-7.38-5.93-19.27-10.06-30.8-.18-.72-.9-1.8-6.1-1.8-9.88,0-25.68,.18-29.45,.72-.72,0-1.62,.9-1.98,1.44-4.67,11.71-9.34,27.02-9.34,31.52,0,2.16,.72,5.22,8.8,7.75,3.05,.9,4.85,1.98,4.85,3.24,0,1.8-2.69,2.34-5.03,2.34-3.05,0-7.54-.54-14.19-.54s-15.98,.9-18.67,.9c-3.23,0-4.13-.72-4.13-1.8s1.26-2.7,3.95-3.6c8.98-3.06,11.31-3.6,16.52-15.31,4.13-9.19,24.6-63.59,32.14-81.96,1.08-2.52,1.26-3.6,1.62-4.68,.18-.54,.54-1.62,1.26-3.06,1.08-1.8,3.05-5.22,4.31-7.21,1.26-1.44,1.98-2.34,2.87-2.34,.72,0,1.44,.72,2.87,4.68Zm5.75,58.36c-3.05-9.19-12.39-36.21-14.01-38.73-.54-1.08-.9-1.26-1.44,0-3.23,8.65-12.57,33.86-14.01,39.45-.18,.72,.18,1.26,.9,1.26,7.18-.18,22.09,0,28.01-.54,.18,0,.72-.9,.54-1.44Z"/><path class="cls-6" d="M560.85,341.21c7.9,0,11.85,.54,19.21,.54,4.13,0,13.47-.54,15.08-.54,3.41,0,4.49,.9,4.49,2.16s-1.08,2.34-4.85,3.42c-6.11,1.62-6.64,4.14-5.57,7.21,3.59,8.83,22.98,54.76,35.2,81.06,.18,.54,1.08,.72,1.44,.18,1.44-2.34,9.52-18.55,15.44-31.88,.18-.36,.36-1.62-.18-2.52-6.82-16.39-15.08-34.95-17.24-39.63-5.21-10.99-6.28-12.43-13.29-14.41-3.23-.9-4.49-2.16-4.49-3.24,0-1.44,2.51-1.98,5.21-1.98,2.33,0,8.98,.18,14.72,.18,8.26,0,15.26-.54,17.06-.54,2.33,0,4.49,.72,4.49,1.98,0,1.62-1.44,2.88-4.31,3.42-7.72,1.44-8.08,2.88-5.57,8.65,1.62,4.14,6.28,14.77,12.93,29.54,.18,.54,1.08,.36,1.44,0,4.31-8.83,7.72-16.39,11.31-24.68,4.49-9.91,1.8-12.07-5.57-13.87-2.15-.54-3.77-1.98-3.77-2.7,0-1.26,1.08-2.16,5.21-2.16,3.23,0,6.64,.36,12.57,.36,5.39,0,11.67-.36,14.72-.36,2.33,0,3.95,.54,3.95,1.8,0,1.8-1.44,2.52-5.03,3.42-6.46,1.62-8.98,3.96-14.01,12.97-1.8,3.06-6.64,11.53-17.06,32.06-.18,.54,.18,2.7,.54,3.06,6.46,15.31,14.54,32.96,17.96,39.27,.36,1.08,1.08,1.62,1.98,0,7.72-16.57,22.27-49.36,32.86-73.49,3.41-8.29,2.51-11.71-5.75-14.05-2.33-.72-4.13-1.8-4.13-2.88,0-1.62,1.62-2.16,4.67-2.16,4.13,0,8.8,.36,12.21,.36,5.39,0,11.49-.54,17.06-.54,3.05,0,4.67,.72,4.67,1.98,0,1.44-1.26,2.52-4.49,3.24-7,1.44-10.42,3.96-15.44,13.69-2.15,4.32-14.01,26.48-25.86,53.32-12.21,27.92-13.29,30.44-18.14,42.51-.72,1.8-2.51,4.5-4.13,4.5-.9,0-2.33-.72-3.23-3.78-2.69-9.91-12.75-30.8-19.21-45.93-.36-.54-1.08-.9-1.44-.36-5.57,11.71-16.16,32.96-20.83,46.65-.72,1.98-3.05,4.14-4.13,4.14-1.44,0-2.15-.72-3.23-3.42-1.8-5.04-4.13-12.07-11.13-28.64-6.64-16.21-23.52-55.48-29.99-68.09-4.67-8.65-5.21-12.61-14.37-14.59-2.15-.36-4.67-1.62-4.67-3.24,0-.9,1.8-1.98,4.67-1.98Z"/><path class="cls-6" d="M807.03,392.19c-.54,.18-.18,1.26,.36,1.44,8.8,3.96,22.09,12.25,22.09,29.72,0,12.79-5.75,21.08-14.37,26.84-8.62,6.12-23.16,8.29-32.14,8.29-5.03,0-22.27-.72-30.53-.72-4.13,0-8.44,.18-11.49,.18-2.69,0-5.21-.72-5.21-2.34,0-1.44,2.51-2.52,4.49-2.88,12.75-2.34,12.75-4.68,13.47-10.99,.54-3.78,1.44-23.24,1.44-59.08,0-15.49-.54-25.76-1.08-28.46-.9-3.96-1.44-5.94-11.31-7.21-2.33-.36-4.67-1.44-4.67-2.88s2.33-2.34,4.85-2.34h12.03c5.75,0,21.19-1.26,28.55-1.26,10.59,0,19.93,1.8,25.32,5.22,8.8,5.4,12.75,14.59,12.75,22.7,0,14.05-8.26,20.35-14.54,23.78Zm-9.34,9.55c-4.85-2.52-12.39-3.42-19.03-3.42-4.13,0-7.54,.9-7.9,1.26-.36,.54-.9,1.26-1.26,5.22-.54,6.49-.18,29.9,.72,36.21,.18,1.26,1.08,4.32,2.87,5.94,3.77,4.14,9.88,6.12,12.21,6.12,15.08,0,27.29-10.63,27.29-27.92,0-10.81-6.28-19.09-14.9-23.42Zm-17.42-55.66c-1.08,0-5.75,.72-7.72,1.44-.36,.18-1.98,2.16-2.15,2.88-.36,2.88-1.08,10.99-1.08,39.99,0,.9,.36,2.34,1.98,2.34,7.9,0,20.83-1.62,25.32-4.5,5.75-3.78,9.88-10.99,9.88-18.55,0-14.59-9.52-23.6-26.22-23.6Z"/><path class="cls-6" d="M901.84,343.19c1.44,4.86,4.49,12.97,7.9,22.34,9.34,26.3,22.8,61.96,25.86,69.35,5.93,14.77,8.8,16.21,16.88,18.19,2.87,.9,4.31,1.8,4.31,3.06s-1.26,2.34-5.75,2.34c-5.93,0-14.72-.9-22.62-.9-5.75,0-8.26,.36-12.75,.36s-5.57-1.26-5.57-2.16,1.08-2.34,4.31-2.88c8.62-1.8,7.9-5.4,7.18-9.19-1.44-7.38-5.93-19.27-10.06-30.8-.18-.72-.9-1.8-6.1-1.8-9.88,0-25.68,.18-29.45,.72-.72,0-1.62,.9-1.98,1.44-4.67,11.71-9.34,27.02-9.34,31.52,0,2.16,.72,5.22,8.8,7.75,3.05,.9,4.85,1.98,4.85,3.24,0,1.8-2.69,2.34-5.03,2.34-3.05,0-7.54-.54-14.19-.54s-15.98,.9-18.67,.9c-3.23,0-4.13-.72-4.13-1.8s1.26-2.7,3.95-3.6c8.98-3.06,11.31-3.6,16.52-15.31,4.13-9.19,24.6-63.59,32.14-81.96,1.08-2.52,1.26-3.6,1.62-4.68,.18-.54,.54-1.62,1.26-3.06,1.08-1.8,3.05-5.22,4.31-7.21,1.26-1.44,1.98-2.34,2.87-2.34,.72,0,1.44,.72,2.87,4.68Zm5.75,58.36c-3.05-9.19-12.39-36.21-14.01-38.73-.54-1.08-.9-1.26-1.44,0-3.23,8.65-12.57,33.86-14.01,39.45-.18,.72,.18,1.26,.9,1.26,7.18-.18,22.09,0,28.01-.54,.18,0,.72-.9,.54-1.44Z"/><path class="cls-6" d="M1069.01,396.15c-.9,.54-4.31,2.16-5.57,3.06-.54,.36-1.08,1.98-.72,2.7,1.8,4.32,16.88,28.64,27.83,40.89,4.85,5.76,9.7,9.01,17.6,10.63,1.44,.36,2.87,1.8,2.87,2.52,0,1.08-1.44,1.8-2.51,2.34-2.15,.9-6.11,1.26-9.88,1.26-8.44,0-18.67-5.04-23.88-11.71-6.28-8.65-15.44-22.52-22.63-33.87-2.51-3.78-6.1-8.29-7.18-9.01-.72-.72-7.36-2.34-12.75-2.34-1.26,0-2.15,1.62-2.15,2.16-.18,3.06,.18,25.94,.72,36.39,.36,7.57,2.33,10.09,10.77,12.07,3.05,.9,4.31,2.16,4.31,3.06,0,1.8-3.41,2.34-4.31,2.34-7.54,0-10.95-1.08-23.16-1.08-3.23,0-12.57,.72-14.54,.72-2.33,0-4.67-.72-4.67-2.52,0-1.44,1.62-1.8,3.95-2.7,7.9-2.52,11.13-3.6,11.67-10.45,.36-5.58,1.08-24.68,1.08-35.49,0-27.74-.36-44.13-1.08-51.16-.72-6.66-2.33-7.02-10.41-9.01-2.69-.72-4.31-1.62-4.31-3.06,0-1.26,.9-2.16,4.85-2.16h10.06c6.64,0,19.39-.9,29.09-.9,12.39,0,22.09,1.62,29.27,7.57,5.93,4.86,10.23,13.87,10.23,22.52,0,9.73-5.75,19.81-14.54,25.22Zm-9.52-42.87c-4.31-4.14-12.03-6.85-17.78-6.85-.9,0-6.64,.36-8.62,1.26-.9,.36-2.15,3.06-2.15,3.78-.54,6.3-1.08,41.07-.54,44.13,.36,1.44,1.8,2.7,2.87,2.7,10.42,0,19.93-3.06,22.45-4.68,4.85-3.06,11.85-10.99,11.85-22.34,0-4.32-2.87-12.79-8.08-18.01Z"/><path class="cls-6" d="M1130.24,359.4c-.54-8.29-.54-10.99-10.59-12.79-3.95-.72-5.03-1.98-5.03-3.24,0-1.44,1.98-2.16,4.49-2.16,4.67,0,13.65,.54,19.57,.54,8.8,0,12.93-.54,19.21-.54,2.87,0,4.49,.72,4.49,2.16s-1.8,2.52-4.67,3.06c-10.42,2.16-10.24,6.67-10.95,11.53-.9,5.94-1.08,17.65-1.08,52.96,0,9.91,.18,21.08,.54,26.84,.54,9.73,1.44,13.15,13.11,15.49,3.23,.54,4.67,1.8,4.67,3.06,0,1.44-2.69,2.34-4.85,2.34-9.16,0-21.91-1.08-26.76-1.08-5.39,0-7,.36-13.65,.36-3.41,0-4.67-1.26-4.67-2.52s1.8-2.34,5.39-3.06c8.98-1.98,9.7-4.68,10.41-13.15,.54-6.3,.9-25.04,.9-40.35,0-11.17-.18-33.5-.54-39.45Z"/><path class="cls-6" d="M1176.39,340.85c3.59,0,10.06,.9,18.85,.9,6.28,0,13.65-.36,17.78-.36,2.33,0,4.31,.9,4.31,2.16s-.9,2.7-4.31,3.24c-9.52,1.8-9.16,5.76-8.44,8.65,3.05,9.37,22.45,59.8,28.91,75.29,.36,.36,1.26,1.44,1.8,.18,1.44-3.78,21.01-50.08,29.09-69.53,4.31-10.09-.54-12.25-8.26-14.59-2.51-.72-3.95-2.16-3.95-3.24,0-1.26,2.33-2.16,5.21-2.16,4.13,0,8.26,.36,14.37,.36,5.21,0,12.39-.72,16.16-.72,2.51,0,5.21,.72,5.21,2.34,0,1.44-2.16,2.52-4.67,3.06-7.9,1.98-11.85,6.3-15.62,14.23-8.26,18.01-12.75,25.76-23.7,52.96-10.41,25.4-12.75,29.9-16.88,43.59-.72,1.98-1.98,3.96-3.77,3.96-1.08,0-2.51-1.26-2.87-3.24-1.08-5.22-4.13-16.21-9.34-29.36-6.1-16.39-23.16-59.98-25.86-66.47-3.59-9.01-7.36-13.51-15.26-15.85-2.16-.72-4.13-1.44-4.13-3.06,0-1.44,2.69-2.34,5.39-2.34Z"/><path class="cls-6" d="M1356.85,341.75c5.93,0,13.83-.18,16.52-.54,.54-.18,1.44,1.08,1.62,1.98,0,8.29,.36,13.51,.36,17.11,0,2.52-1.08,4.68-2.69,4.68s-2.51-2.52-2.87-4.32c-2.33-9.55-6.29-11.35-12.03-12.25-4.67-.72-17.6-1.08-25.5-.72-.36,0-2.33,.9-2.69,5.04-.36,4.5-.9,38.37-.54,41.07,.18,.72,.36,1.8,1.26,1.8h11.67c16.88,0,17.6-.72,20.83-9.01,1.08-2.7,2.15-3.78,3.23-3.78,1.26,0,1.62,2.52,1.44,3.96-.36,5.04-.54,8.65-.54,12.97,0,4.86,.36,7.38,.54,10.99,.18,3.24-.72,5.22-1.97,5.22s-2.51-1.98-3.05-3.96c-2.51-8.29-3.23-8.83-14.19-9.37-5.75-.36-12.93-.36-17.78-.36-.72,0-1.62,1.26-1.62,1.62-.72,3.78-.54,20.54-.54,28.28,0,5.22,.72,12.07,1.79,14.95,.72,2.16,2.16,3.6,3.41,3.96,3.05,.54,9.16,1.26,16.34,1.26,2.15,0,13.11-.18,17.06-1.26,5.75-1.44,10.59-4.86,14.9-13.33,1.98-3.96,3.05-5.04,4.13-5.04,1.26,0,1.79,2.88,1.44,4.86-.18,1.44-5.21,17.65-6.46,19.27-.54,.72-2.16,2.16-3.05,2.16-1.98,0-29.09-1.44-58.36-1.44-9.52,0-13.47,.9-20.29,.9-3.41,0-5.39-.36-5.39-2.34,0-1.26,2.15-2.16,5.03-2.88,8.98-2.16,12.39-3.42,13.11-13.15,.54-7.57,1.44-28.82,1.44-51.16s.18-25.22-.18-30.44c-.36-7.93-2.15-10.09-10.06-11.89-3.77-.9-5.21-1.62-5.21-3.06,0-1.62,2.51-2.52,5.03-2.52,8.44,0,15.44,.72,27.47,.72h26.4Z"/><path class="cls-6" d="M1468.54,396.15c-.9,.54-4.31,2.16-5.57,3.06-.54,.36-1.08,1.98-.72,2.7,1.8,4.32,16.88,28.64,27.83,40.89,4.85,5.76,9.7,9.01,17.6,10.63,1.44,.36,2.87,1.8,2.87,2.52,0,1.08-1.44,1.8-2.51,2.34-2.15,.9-6.1,1.26-9.88,1.26-8.44,0-18.67-5.04-23.88-11.71-6.29-8.65-15.44-22.52-22.62-33.87-2.51-3.78-6.11-8.29-7.18-9.01-.72-.72-7.36-2.34-12.75-2.34-1.26,0-2.15,1.62-2.15,2.16-.18,3.06,.18,25.94,.72,36.39,.36,7.57,2.33,10.09,10.77,12.07,3.05,.9,4.31,2.16,4.31,3.06,0,1.8-3.41,2.34-4.31,2.34-7.54,0-10.95-1.08-23.16-1.08-3.23,0-12.57,.72-14.54,.72-2.33,0-4.67-.72-4.67-2.52,0-1.44,1.62-1.8,3.95-2.7,7.9-2.52,11.13-3.6,11.67-10.45,.36-5.58,1.08-24.68,1.08-35.49,0-27.74-.36-44.13-1.08-51.16-.72-6.66-2.33-7.02-10.42-9.01-2.69-.72-4.31-1.62-4.31-3.06,0-1.26,.9-2.16,4.85-2.16h10.05c6.64,0,19.39-.9,29.09-.9,12.39,0,22.09,1.62,29.27,7.57,5.93,4.86,10.24,13.87,10.24,22.52,0,9.73-5.75,19.81-14.54,25.22Zm-9.52-42.87c-4.31-4.14-12.03-6.85-17.78-6.85-.9,0-6.64,.36-8.62,1.26-.9,.36-2.16,3.06-2.16,3.78-.54,6.3-1.08,41.07-.54,44.13,.36,1.44,1.79,2.7,2.87,2.7,10.41,0,19.93-3.06,22.45-4.68,4.85-3.06,11.85-10.99,11.85-22.34,0-4.32-2.87-12.79-8.08-18.01Z"/></g></g><path id="Path_1214" class="cls-3" d="M-12.87,588.59c18.84-26.92,9.6-4.19,61.68-16.6l334.68-79.72c50.13-11.94,100.52-23.93,153.83-31.89,62.58-9.34,128.09-12.96,193.36-15.04,83.1-2.65,168.35-2.75,247.38,10.17,58.6,9.58,111.46,25.94,164.01,41.89,161.94,49.15,335.65,97.1,525.76,100.73"/><path id="Path_1215" class="cls-3" d="M-27.01,615.98c89.1-.95,151.54-28.72,226.06-52.77,157.99-51,339.05-88.79,527.92-91.29,61.29-.81,122.54,2.08,183.37,5.85,49.05,3.04,98.4,6.7,144.68,15.25,36.76,6.8,70.91,16.56,104.53,26.54,85.35,25.35,168.95,52.54,260.01,72.51,91.06,19.97,191.4,32.55,290.4,26.78"/><path id="Path_1216" class="cls-3" d="M-13.26,648.17c70.2,7.39,111.73-.6,175.51-16.82,63.79-16.22,118-40.3,166.7-66.26,21.68-11.56,42.64-23.64,68.41-32.95,51.71-18.69,117.53-24.48,180.79-29.75,106.59-8.89,215.39-17.79,322.25-9.7,153.12,11.59,285.76,56.56,415.57,98.18,129.81,41.62,270.97,82.29,425.88,83.4"/><path id="Path_1217" class="cls-3" d="M-2.04,662.28c50.37,2.68,102.01,5.33,151.15-.76,106.9-13.23,175.33-63.26,265.61-94.39,95.5-32.93,220.52-44.24,333.57-30.19,45.94,5.71,89.48,15.32,131.82,25.79,155.07,38.36,297.49,88.94,457.58,121.92,117.24,24.15,242.79,38.5,369.66,42.24"/><path id="Path_1218" class="cls-3" d="M1674.17,742.59c-161.32,11.81-333.48,17.87-480.63-16.74-130.55-30.7-223.82-89.34-340.43-131.51-25.02-9.05-51.33-17.4-80.04-23.22-54.93-11.15-115.69-12.56-175.05-13.82-46.37-.99-94.8-1.79-136.93,7.8-26.51,6.03-48.65,15.78-70.52,25.3-41.03,17.85-82.63,35.38-124.8,52.59-34.77,14.19-70.53,28.33-112.13,36.98-49.16,10.22-103.53,12.17-156.76,13.99"/></g></g></svg>