<?xml version="1.0" encoding="utf-8"?>
<!-- Generator: Adobe Illustrator 26.3.1, SVG Export Plug-In . SVG Version: 6.00 Build 0)  -->
<svg version="1.1" id="Layer_1" xmlns="http://www.w3.org/2000/svg" xmlns:xlink="http://www.w3.org/1999/xlink" x="0px" y="0px"
	 viewBox="0 0 595.3 595.3" style="enable-background:new 0 0 595.3 595.3;" xml:space="preserve">
<style type="text/css">
	.st0{fill:none;stroke:#020203;stroke-miterlimit:10;}
	.st1{fill:#82A4C0;}
	.st2{fill:#82A4C0;stroke:#020203;stroke-miterlimit:10;}
	.st3{enable-background:new    ;}
	.st4{fill:#020203;}
</style>
<g>
	<g id="Group_391" transform="translate(0.502 1.131)">
		<g id="Bull_boat_00000137831925508667210050000003320286023436550309_" transform="translate(0)">
			<path id="Path_3003" class="st0" d="M379.4,126c16.1,0.7,29.5,12.9,38.7,26.1c4.4,6.3,8.3,12.9,12.3,19.4
				c3.3,5.4,7.5,7.5,11,12.2c4.4,5.8-2.2,5.4-4.9,8.8c-4.3,5.5-3.3,14.3-0.5,20.1c3,6.3,7.8,11.6,10.5,18c0.8,1.9,1.3,4.4-0.1,5.8
				c-0.9,0.9-2.3,1.2-3.6,1.3c-10.5,1.4-11.2-1.6-17.4-9.3c-4-4.9-11.2-5.4-17.5-5.5c-3.7-0.1-7.6,0.3-9.5,3.5
				c7.4,2.3,14.6,0.8,22.2,5.3c7.4,4.3,13.6,10.8,18.8,17.6c7,9.1,13.4,19.6,13.3,31.2c-0.1,11.5-9.4,23.5-20.9,22.6l7.4,2.9
				c-2,4.6,0.1,10,4.7,12.1c4.6,2,10-0.1,12.1-4.7c0.2-0.5,0.4-1,0.5-1.5c0.6-2.3,0.3-5.1,2-6.8c1.5-1.5,3.8-1.6,5.9-1.6
				c12.9,0.1,26,1.3,37.9,6.3c15.7,6.6,22.7,18.5,30.2,32.7c4.4,8.4,4.5,18.4,0.3,26.8c-4,7.9-11.5,13.8-14.3,22.2
				c-1.1,3.3-1.5,6.9-3.1,10c-1.8,3.3-24.9,13.4-26,7.6c1.3,7,1.3,14.2-0.1,21.1c0.7-3.7-19.6-2.5-21.3-2.5
				c-1.6,0-1.1,15.6-1.9,17.6c-2.2,5.3-9.4,10.1-15.1,10.1c0.5,0-2.5-4.1-3.1-4.4c-1.7-1.1-5.4-0.2-7.4-0.2c-0.2,13.2,4,13,16.4,16
				c11.3,2.8,22.8,4.7,34.4,5.7c2.7,6.5,3.8,13.5,3.1,20.5l-28.2,7.2c2.5,4.3-1.2,9.9-5.8,11.7c-4.6,1.8-9.7,1.2-14.6,1.5
				c-7,0.5-13.8,2.9-19.5,7.1c-2.7,1.9-5.4,4.3-8.7,4.5c-2.9,0.1-5.6-1.6-8.1-3.1c-18-10.7-39.4-14.1-59.8-9.4
				c1.8-2.5,0-6.3-2.8-7.8c-7.8-3.9-15.9,2.8-23.4-1.3c-3.5-1.9-6.1-4.9-8.7-7.8c-1-1.2-2.6-2.4-4-1.7c-1.4,4.7,1.7,10.8-1.9,14.1
				c-6.1,5.6-29.7,0.5-38,1.3c0,2.3,0.4,4.6,1,6.8c-11.6-0.4-23-3.2-33.5-8.3c-5.6-2.7-11-6.1-16.9-8c-12.9-4.1-26.9-0.7-40,2.6
				c-9.1,9.1-2.9,28.3-14.1,34.5c-10.5,5.8-25.3-5.8-30.1-14.5c-1.4-2.6-2.8-5.7-5.6-6.5c-8-2.2-14.1,9.8-23.9,3
				c-1.9-1.3-3.6-3.3-5.9-3.6c-7.5-1.2-7.9,13.3-15.3,15.1c-2.6,0.6-5.4-0.6-7.9,0.2c-7.6,2.2-4.5,16.9-12.1,18.8
				c-8.2,2-10.5-13.9-18.9-14.5c-5-0.3-8.5,6.6-13.4,5.3c-6.8-1.8,0.1-8.7,3.9-10.6c5.4-2.8,11.8-3,17.5-5.1
				c16.9-6.3,24.1-27.1,39.9-35.7c15.1-8.2,23.2-18.3,25.9-36.3c2.9,5.7,10.9,8,16.5,4.9c7.3-4.2,2.9-11.4,6.9-16.2
				c3.4-4.1,16.9-6.7,21.7-6.4c7.4,0.4,13.9,4.8,20.8,7.7c6.1,2.6,12.7,4,19.3,4.2c1.8,0.1,3.6-0.1,5.2-0.7c3.3-1.4,5-5,6.9-8
				c3.7-5.9,8.6-9.9,14.4-13.6c6.8-4.4,8.9-7.7,13-15.3c4.8-8.8,8.4-20.9,1.3-28c-3.8-3.9-9.9-5.1-13.4-9.2
				c-10.9-12.7,10.5-23.9,5.8-34.8c-0.8-1.9-3.2-2.4-4.8-3.7c-5.5-4.5,2.9-11.2,4.6-15.4s1.4-6.1,4.4-10c2.3-3,6.7-4.8,6-9.5
				c-1-6.2-7.3-8.3-4.2-14.2c1.1-2.1,15.4-9.4,16.1-6.2c-1.8-7.4,0.2-19.6-2.6-26c-2-4.4-8.3-5-10.2-10.9c-1.4-4.5,0-9.5,3.5-12.7
				c2.4-2.1,5.9-3.7,6.3-6.9c0.3-2-0.8-3.9-1.1-5.8c-0.7-5.6,5.3-9.7,6.9-15.2c0.8-2.6,0.5-5.3,1-7.9c0.5-2.6,2.1-5.4,4.8-5.8
				c1.1-0.2,2.2,0.1,3.2-0.4c0.7-0.5,1.3-1.2,1.6-2l9.2-18c1.3-2.5,2.2-6.1-0.2-7.5c-1.7-1-3.9,0.1-5.1,1.6c-1.2,1.5-2,3.4-3.3,4.8
				c-2.8,2.9-7.4,2.9-10.2,0.2c-2.2-2.1-2.8-5.3-1.6-8c0.7-1.6,2-3.3,1.4-5c-1-2.6-4.8-1.6-7.5-1.7c-3.7-0.3-6.6-3.3-6.8-7
				c0-1.6,0.5-3.3,0.4-4.9c-0.4-5.9-8.6-8.8-9.3-14.7c-0.1-1.9,0.2-3.7,0.9-5.4c2.1-6.7,4.5-13.8,10-18.1c1.4-1.1,3-2,4.2-3.4
				c2-2.3,2.4-5.5,4-8.1c2.9-4.7,8.9-6.2,14.1-7.8c13.3-4.1,25.4-11.2,35.4-20.8c3.7-3.5,7.1-7.5,11.5-10c3.5-2,7.5-3,11.6-2.9
				c2,0,4.2,0.4,6.1-0.4c3.1-1.3,4.5-5.1,4.1-8.5c-0.4-3.4-2-6.4-3.2-9.6c-0.5-0.9-0.6-2-0.5-3c0.3-1,0.9-1.8,1.6-2.5l14.6-15.2
				c0.6,6.8,4.5,13.6,10.9,16.1c1.5,0.6,3.3,1,4.4,2.3c0.9,1.2,1.5,2.7,1.7,4.2c1.9,9.4,3.1,19.1,2.5,28.7
				c-0.4,5.6-1.4,11.2-1.2,16.8C375.3,91.4,382.6,110.9,379.4,126z"/>
			<path id="Path_3004" class="st0" d="M141.1,276.8c1.9,1.8,10.5-0.2,12.7-0.4c6.7-0.6,13.8-12.7,19.8-10.9
				c1.6,0.5,4.8,6.3,2.7,6.3c-9.6,0.2-3.3,12.6-5.8,12.9c2.3-0.3,4.6,0.7,6.1,2.6c2.5,1.4-0.2,5.3-2.9,6.1s-6.5,1.9-6.3,4.8
				c0.2,3.8,6.8,3.4,8.6,6.8c2,3.8-3.4,6.9-6.7,9.7c-3.9,3.2-4.9,8.5-8.4,11.9c-3.9,3.8-11.2,6.4-16.2,8.2c-5.4,1.9-11,3.2-16.1,5.8
				c-4.5,2.2-8.6,5.4-13.1,7.8c-8.7,4.6-20.8,5.8-30.3,9c-1.3,0.4-2.1,0.8-2.6,2c2.9,1.8,6.8,2.2,9.8,4.3c2.9,2,4.9,5.7,3.9,9.1
				c-0.6,2.1-2.2,3.7-2.8,5.8c-0.8,2.9,0.8,5.9,2.6,8.3c1.5,2,3.4,4,5.8,4.8c4.3,1.4,16-3.7,20.3-5.4c7.4-2.7,15.6-7.8,23.6-3.9
				l-3.7,7.8l15,3.6c1,2.2-0.7,4.8-2.9,5.8s-4.7,0.8-7.1,0.5c0,4.3,5.3,6.6,9.6,6.4c4.3-0.2,8.8-1.8,12.9-0.4
				c7.4,2.5,8.8,12.5,14.4,17.9c5.3,5,13.6,5.3,20.6,3.5c7.1-1.9,13.5-5.6,20.5-7.6c4.4-1.3,9.2-1.9,13-4.5c7.1-4.8,8.5-14.7,8-23.2
				c0-2.1-0.4-4.2-1.3-6.1c-1.5-2.8-4.4-4.4-6.8-6.3c-9.7-7.7-12.3-22.9-5.7-33.4c1.1-1.7,2.3-3.3,2.7-5.3c1-6.1-6.2-8.8-5.3-15.5
				c0.9-6.1,3.5-11.7,7.6-16.3c2.8-3.2,6.8-4.5,6.9-9.5c0.1-5.3-6.8-9-3.6-15c0.7-1.1,1.6-2.2,2.6-3c8.3-7.2,17.5-7.6,15-20.5
				c-1.8-9.4-9.2-17.5-15.6-24.1c-1.9-2-4-4.1-6.7-4.9c-3.7-1.2-7.6,0.1-11.3,1c-9.8,2.4-19.3,1.8-27.9-4
				c-7.4-4.9-13.6-13.2-22.5-13.5c-3.8-0.1-7.9,1.6-9.7,5c-0.8,1.6-1.2,3.4-1,5.2c0.3,3.7,2.4,6.9,5.5,8.8
				c6.7,3.9,11.5,6.1,6.1,12.7c-4.2,5.2-13.3,9.8-19.7,11.2c-3.7,0.8-7.5,1.7-10.5,4C142.3,264.8,137.9,273.7,141.1,276.8z"/>
		</g>
		<g id="skog_00000003072996256260768550000005001968854912203139_" transform="translate(263.964 256.89)">
			<g id="Group_13_00000015329078696107377090000005922327459691506618_">
				<path id="Path_62_00000132806377734303786760000009537601370079506850_" class="st1" d="M163.1,195.7c0.5-0.5,0.1-0.8-0.4-1
					c1.4-0.3-0.5-0.8-1.2-0.5c-0.6,0.1-1.5-0.1-1.5-0.7c-0.8,1.2-0.8-0.6-1.7-0.9c-1.4-0.8-1.5,1.2-2.7,0.8
					c-0.9,0.9-2.1-0.3-3.2,0.8c-1.3,0.5,0.1,1.5-0.2,2.1c-1.2-1.4-1.5,0-1.2,1.3c0.3,2.3-1.4,1.8-0.5-0.2c-1.7,0.4-0.4-1.2-0.7-2.1
					c-0.1-0.5-0.5-0.8-1-0.8c0.5-0.6,1.3-0.6,1.9-0.1c0.2,0.1,0.3,0.3,0.4,0.5c0.6-0.2-0.6-2.9,1.6-1.8c-1.4-1.5,2.1,0.2,3.3-2.2
					c-1.7-1.8-2.8,0.8-3.8-0.7c0.3-0.2,1.7-0.5,0.6-0.9c-1.6,0.4-1.1-5.5-0.2-3.3c1.5-1,0.2-2.9-0.5-4.1c-1-2-0.7-5-2.8-6.3
					c-1.1-0.7-1.7,0.4-1.7,1.4c-0.1,0.5-0.6,1.2-1.1,0.9c0.8-1.2,0.6-2.8-0.5-3.8c-3.3,2.2-1.2-2-2.7-1.6c0.6-1.1,0.3-2.5-0.8-3.2
					c-0.1-0.1-0.3-0.1-0.4-0.2c-1.2,0-1.6-0.9-1.8-1.9c-1.6-1.2-2-3.4-3.4-4.7c-0.9-0.6-1.6-1.5-1.9-2.6c-1-0.5-2.7-0.8-2.6-2.1
					c0.4-2.8-3-5.9-2.7-8.6c1-0.9,0.9-1.8,0.3-2.9c-0.4-2.4,2.9-6.5-1.2-7c-1.6-0.7-1.9-3.2-3.6-3.4c-0.7,0.2-1.5-0.2-1.9-0.9
					c-4.3-5.6-4.5-11.4-12-13.7c-4.7-2.3,2-1,2.8,0.8c1.4,0.4,3,0.6,3.9,1.9c2.9,3.9,2.9,9.5,8.2,11.4c3,4.4,7.6,3,4.9,9.5
					c0.2,1.7,0.7,3.2-0.1,4.7c6,2.4,0,6.7,5.3,9.3c1,0.3,0.6-1.1,1.2-1.1c0.6,0.6,0.1,0.7-0.1,1.3c0.9,0,1.4,1,1.7,1.8
					c0.7-0.9,1.3,0.7,0.3,1.1l0.2,0.5c-1.1-0.1,0.8,1.8,0.3,2.8c0,1.7,2.7,2.1,3.6,3.4c1.7,1.5,1.3,3.6,1.3,5.4
					c0.9-0.1,1.8-1.2,2.3,0.2c1.4,1.4,0.1-0.8-0.1-1.6c-0.5-1.1-1.6-2-1.9-3.2c1.2-0.2,3.3-0.7,4,0.5c-1.4,1.8,0.9,1.6-0.2,3.8
					c3.1,2.7,4.1,7.1,5.6,10.8c0,1-0.7,1.6-1.3,2.2c0.5,3.3,4.7,3.3,6.9,5c1-0.1,1.4,1.1,2.5,0.8
					C166.2,192.5,167.9,195.6,163.1,195.7z"/>
				<path id="Path_63_00000168102270896978676390000005372282668897094017_" class="st1" d="M113.8,122.5c-17-7.2-0.9-8.6-6.5-16.2
					c-5.3,0.3-7.4-6.7-9.5-10.6c0.4-2.4,1-5.6-1.4-7c-1.1-0.3-1.9-1.2-2.1-2.3c-2.2-2.8-4.7,1.6-6.6,2.7c-5.1,0.7-12.3,6.7-16,0.4
					c-1-1.1-2.5-1.5-4-1.2c-8.8,4.1-5.4-2.2-11.6-4c0.1,1.7-1.4,0.6-2.3,0.5c1.3,2.5,0.3,0.9-0.5,2.6c-1-1.1-2.8,2-3.7,0.5
					c0.2-1-1.5-0.8-2-0.4c-0.5,0.3-0.6,0.9-0.4,1.3c0,0,0,0.1,0.1,0.1c-0.6,0.5-0.8,1.5-0.4,2.2c-0.4,0.5-1.9,0.2-2.4,0.2
					c1.9,2.1-3.1-0.7-5.5,1.2c-2.5,0.8-0.9-2.2,0.9-1.4c2,0.2,4-0.9,5.7-1.7c0.6-1.5-1.3-1.1-2-0.3l-0.6-0.6
					c-1.7,1.4-0.6-1.3-2.2-1.4c-1.6,0.1-2.2,2.3-3.7,2.8c-0.2-0.3-0.3-0.7-0.2-1.1c-1,0.8-1.8-1.1-2.9-0.1c-2.7-0.5-0.9-1,0.7-1.5
					c0.7,0.8,2.5,0.8,1.2-0.4c0.8,0.9,2.7,0.7,2.5-0.6c0.8,0.7,1.3-0.8,0.8-1.4c3.1,3.8,4.1-0.4,3.3,2.6c1.3,0,2,0.9,1.8-0.9
					c0.3,0.3,0.9,0.4,1.2,0c0,0,0,0,0,0c-0.3-0.7-1.1-0.8-0.3-1.5c0.2-1-1.4-0.3-1.8-0.8l0.6-0.6c-0.7-0.4-1.4-1.3-1.9,0
					c-1-1,1-0.9-0.8-1.6l-0.6,0.5c-0.2-0.7-0.8-1.1-1.5-1c-0.7,0.2-1.1,0.8-1,1.5c0,0,0,0,0,0.1c-0.3-0.4-0.3-1,0.1-1.4
					c0.1,0,0.1-0.1,0.2-0.1c-1-0.1-2.1-1.5-3.1-0.4c-0.7-1-1.7-1.7-2.9-2c1.2-1.5,2.3,0.4,3.6,0.7c-0.5-1,0.9-2.9-0.6-2.6
					c0.9-1.3-1.1-1.8-2.1-1.6c-0.5-0.2,0-1.2-0.5-1.6c-1,1.9-0.7-0.6-0.8-1.1l-1.4,0.2c0.1,1.9-1,1.2-1-0.2
					c-2.1,1.2-2.8-1.3-4.5,0.4c-0.2,0.4-0.7,0.9-0.9,0.5c0.6-1.1,3.1-3.6,3.3-1.2c1.5-3.5,1.4,1.2,4.9-0.5c0.7,0.9,2,1.1,3,0.4
					c-2.5-0.8-0.3-1-2.6-1.6c2.2-0.1,2.6,0,0.9-2c0.6,0.1,1.6,0.2,0.6-0.5c0.9,0.3,1.5-2.3,1.8-2.7c-0.9,0.4-2.5,0.8-0.8-0.4
					l-1.2-1.4L32.9,65c1-1.2-1.3-1.4-1.9-1.8L30.2,64c-0.9-1.4-0.9,1.3-0.6,1.9c-0.8,0.3-1.4,1-1.5,1.9c-0.3-0.4-1-0.5-1.4-0.2
					c-0.2,0.2-0.3,0.4-0.4,0.6c-2.7,0.3,1.3-1.6,2-2.6c0.8-1,1.1-3.9-0.8-2.3c0.1-0.6-0.2-1.3-0.7-1.6c0.6-0.2,1.9,0.3,1.5-0.7
					c-1.9-0.7-3-3-5.2-2c0.1-0.3,0.1-0.7-0.1-1c0.3-0.4,1.3-0.5,1,0.2c0.9-2.9,1.9,2.1,3.9,0.7c0.5-0.3,0.6-0.9,0.3-1.4
					c-0.1-0.1-0.1-0.2-0.2-0.2c1.6-1,3.7-2,0.8-2.9c2-2.1,2,2.2,3,1.2c1.6,0,1-2.6,2.2-3.1c-0.4-0.2,0.1-1.1-0.3-1.3
					c0.3-0.1,0.7-0.6,1-0.6c1,0.3-0.2,1.8,0.5,2.3c0.8,0.5,1.3-0.7,1.1-1.4c0.5,0.2,0.7,0.7,0.5,1.1c-0.1,0.2-0.2,0.3-0.3,0.4
					c1.1,0.3,2.2,0.9,3.1,1.6c-1.8-0.7-3.7-1-5.6-0.9c0.5,1.4-1.6,1.9,1,2.7c-2,0-3.8,0.8-5.2,2.1l0.7,0.3c-1.4,0-0.4,2.1-0.9,2.8
					l4.7,0.8l1.1,0.2c-0.2,1.8,3.7,2.9,4.8,3.9c-1.1-0.6-2.3,1.3-0.8,1.4c-2,0-0.7,1.5-2.4,1.5c0.3,0.4,0.3,0.9-0.1,1.2
					c-0.1,0.1-0.1,0.1-0.2,0.1c1,3.2,1,1.2,3.6,0.8c-0.7,1.3-5,2.1-2.2,2.9c-0.4,0-0.7,0.3-0.7,0.7c0,0.4,0.3,0.7,0.7,0.7
					c0.3,0,0.6-0.2,0.7-0.5l-0.7,1c0.5,0.8,0.8,2.7,1.8,3.1c1.4,0.3,0.5-1.2,1.7-0.5c-0.9,1.4,0.8,2.2,1.4,0.5
					c-1.4-1.8,0.2-1.7,0.8,0.1c-0.5,0.3-0.7,0.9-0.4,1.4l0,0c0.4,0.7,1.3,0.8,1.4-0.1c0.3,0.3,0.9,0.3,1.2,0
					c0.3,2.8,2.9,0.6,0.8-0.7c1.5-0.3,0.5-0.9,1.5-1.8c-0.2,1.9,1,4.2-1.6,4.5c1,0.7,0.9,0.8,1.9,0.1c-1,1.8,0.5,3.4,2.3,3.7
					c0.9-0.7,0.3-2.2,1.7-1.2c0.7-1.2,0.3-2.7-0.8-3.5c1.7-1.6,0.4-4.5,2.1-1c-1.9,0,0.2,2.8,1.3,2.8c1.9-0.7,4.1,0.2,5,2
					c2.5,6.2,9.5-1.1,13,3.3c-0.1,2.4,3.6,2.4,5.3,2.2c1.5-0.8,3.2-1.4,5-1.5c1.1-0.9,2.8-1,3.7-2c1.3-0.7,3-0.6,4.1-1.9
					c1.9-1.5,4,0,5.1,1.7c2.6,1.5,3.2,4.3,2.7,7.2c0.1,3.8,2.7,7.3,5.5,9.8c1,1.4,2.9,0.4,3.9,1.7c3.1,3.6-2.2,7.3-1.8,10.9
					C108.1,119.6,111.8,120.1,113.8,122.5z"/>
				<path id="Path_64_00000115500478537572262350000001551778836012439457_" class="st1" d="M26.6,61.9c0.5-0.6,0.3-1-0.3-0.9
					c0.6-2-2.2-2.4-3.6-1.7l0.2-1c-0.9,0-1.7-0.7-1.8-1.6c1.1,0.4,2.3,0.9,3.3,1.4c1.1-2.2,2.1,2.5,3.6,0.7c0.5-2.4-0.3-1.3,2.2-3.2
					c-1.4-2.4-4.9-1-5.6-3.6c0-0.8,0.9-1.4,0.9-2.2c-0.4,0-0.7-0.3-0.7-0.7c0-0.1,0-0.2,0.1-0.3c-2.1,0.5-4.1-1.2-6.2-1.3
					c-1.8,0.3-2.7-1-3.6-2.3c-0.8-0.9-2.4-1.4-3.2-0.5c0.2-1.7-0.8-1.4-1.5-2.6c2.4-1.2-1.4-2.3-2.2-3.1c1.4,0.8,6.8,1.9,3.8,3.4
					c0.6,1.3,2.7,0.9,3.8,1.8c0.7,1.1,4.1,3.9,3.1,1.1c0.5,1.7,5.4,3.7,5,1.2c1,0.3,1.7,2.3,2.6,1.2c0.7,0.9-0.2,2.1-0.1,3.2
					c0.3,2.4,4.7,2.5,5,4.9c1.2-0.9,4-4.6,1.3-5.1l0.7-0.2c-1.4-6.3-6.6-10.8-11.1-13.8c0.5-2.3-2.1-4.3-1.6-6.2
					c-2.5-0.9-4.6-3.9-5.2-6.4c0.3-1.7-1.2-3-1.1-4.5c0.1-3.3,0.8-15.6-3.9-11.3c0-0.5-0.6-2.7-0.3-3.2c2.4-1,1.1-4.3,2.8-5.7
					c1,1.9,3.5,1.1,1-0.4c2.8-0.6,5.3-2.3,5.7-5.4c-1,0.5-1.9,1.2-2.7,2.1c-0.9-1.4-1.8,0.1-3.3-0.9c0.3,1.4-2.1,0.1-2.5,0.9
					c0.8,2.2-1.4,5.3-3.6,3.6c-0.8-1.3-3.5-2.6-2-3.9l-0.5-1c2.5,0.3,2.1-3.7,4-4.5C9.3-12,7.1-13,6-14c-1.8-1.7-2.7-4.4-4.1-6.4
					c-0.7-1-1.5-2.3-2.7-2.8c-0.7-0.3-3-0.3-1.6-1.6c0.4-0.3,0.9-0.5,1.5-0.5c0.3-0.1,0.7-0.1,1,0c0.4,0.1,0.7,0.3,1,0.5
					c0.7,0.5,3,1.7,3.1,2.6c0.1,0.6-1.6,2.1-1.7,1.7c0.6,1.3,2.4,1.6,3,2.9c-0.2,3.3,2.4,3.7,4,5.9c0.9,2.6-2.4,4.5-3,6.8
					c-1.2,4.3,4.3,6.1,3.8-0.2c0.7-1.6,7.1,0,3.2-1.9c-1-3.3,1.8,1.5,4,0l-0.8-1.6c0.9,0.5,2.3,1.4,2.3-0.2
					c-1.2,3.7,2.1-1.2,2.9,2.2c-0.1,1.3-2.8,1.5-2.4,2.8c1.8-0.2,3.7-0.4,5.5-0.7c0.6,1.9-2.3,0.9-3.2,1L21-2.3
					c-1.5-1.4-2.7,1.8-4.4,1.7c-2.2,1.6,1.9,0.2,1.7,2.3c-0.8-0.8-2.9-1.1-2.9,0.5c-1.9-1.6-3,1.6-2,3.2L12.2,5
					c-0.6-0.3-0.9,0.9-0.3,1.3c1.9,0.5,3.1,1.4,2.7,3.6c0,6.1-0.2,14.3,4.7,18.7c2.1,0.7,3.5,2.6,3.6,4.7c1.4,0.3-1.2,3.2,4.5,4.9
					c0.1-2.2-0.1-4.9,1.1-6.8c1,1.2-1.1,4.6-0.2,6.8l1.6-0.2c-0.3,0.7-1.4,0.7-1.6,1.4c-0.3,1.2,2.1,1.1,2.5,2.3
					c-2.6,0.2,1.1,0.9,1.9,3.5c3,2.5,0.3,2.5,1.7,4.8c0.5-0.7,0.2-3.5,1.8-2.5L35,48.6c0.5,0.5,0.4,1.3-0.1,1.8
					c-0.2,0.1-0.4,0.3-0.6,0.3c0.6,0.7,1.2,0.9,0.4,2.1c3.5,1.3-1.6-3.6,4.5,1.7c-1.2-0.2-4.1-0.8-5.4-0.9c1,1.5-1.5,1.6,0.9,2.9
					c-1.2-0.3-5.2,0.6-4.1,2.1c-0.7,0.4-1.5,0.8-0.9,1.8c-0.8,2,1.4,1.3,2.7,1.7c0.5,0.2,1.5,0,1.2-0.7c3.3,1.3,0.5,2.5-1.5,2.3
					c-0.6-0.3-0.7-0.6-1.3-0.5c-0.3,0.1-0.8,1.2-0.8,0.9c-0.9-1.1-0.3,1.2-0.6,1.9c-0.5-1.2-0.5-4.3-2-2.7
					C26.9,63.4,28.7,61.8,26.6,61.9z"/>
			</g>
		</g>
	</g>
	<ellipse id="Ellipse_45" class="st2" cx="262.6" cy="230.2" rx="5.7" ry="5.2"/>
	<circle id="Ellipse_46" class="st2" cx="429.5" cy="450.1" r="5.7"/>
	<g class="st3">
		<path class="st4" d="M235,548.6c0.1,0.5,0.4,1.3,0.8,2.2c0.9,2.5,2.2,6,2.5,6.7c0.6,1.4,0.9,1.6,1.6,1.8c0.3,0.1,0.4,0.2,0.4,0.3
			c0,0.1-0.1,0.2-0.6,0.2c-0.6,0-1.4-0.1-2.2-0.1c-0.6,0-0.8,0-1.2,0c-0.4,0-0.5-0.1-0.5-0.2c0-0.1,0.1-0.2,0.4-0.3
			c0.8-0.2,0.8-0.5,0.7-0.9c-0.1-0.7-0.6-1.9-1-3c0-0.1-0.1-0.2-0.6-0.2c-1,0-2.5,0-2.9,0.1c-0.1,0-0.2,0.1-0.2,0.1
			c-0.5,1.1-0.9,2.6-0.9,3c0,0.2,0.1,0.5,0.9,0.7c0.3,0.1,0.5,0.2,0.5,0.3c0,0.2-0.3,0.2-0.5,0.2c-0.3,0-0.7-0.1-1.4-0.1
			c-0.6,0-1.5,0.1-1.8,0.1c-0.3,0-0.4-0.1-0.4-0.2c0-0.1,0.1-0.3,0.4-0.3c0.9-0.3,1.1-0.3,1.6-1.5c0.4-0.9,2.4-6.1,3.1-7.9
			c0.1-0.2,0.1-0.3,0.2-0.5c0-0.1,0.1-0.2,0.1-0.3c0.1-0.2,0.3-0.5,0.4-0.7c0.1-0.1,0.2-0.2,0.3-0.2
			C234.8,548.1,234.9,548.2,235,548.6z M235.6,554.2c-0.3-0.9-1.2-3.5-1.4-3.7c-0.1-0.1-0.1-0.1-0.1,0c-0.3,0.8-1.2,3.3-1.4,3.8
			c0,0.1,0,0.1,0.1,0.1c0.7,0,2.1,0,2.7-0.1C235.6,554.4,235.6,554.3,235.6,554.2z"/>
		<path class="st4" d="M245.1,553.2c0.3-0.1,1.1-0.6,1.3-0.7c0.1-0.1,0.1-0.1,0.1-0.1c0.1,0,0.2,0.1,0.2,0.2c0,0.2-0.1,0.7-0.1,0.9
			c0,0.1,0,0.2,0.1,0.1c0.4-0.3,1.5-1,2.3-1c0.6,0,1,0.1,1.4,0.3c0.3,0.2,0.5,0.5,0.6,0.6c0,0.1,0.1,0.1,0.1,0.1
			c0.3-0.2,0.8-0.5,1.2-0.7c0.4-0.2,0.8-0.3,1.1-0.3c0.6,0,1.1,0.2,1.5,0.6c0.4,0.4,0.5,1,0.6,1.7c0.1,0.9,0,2.1,0,3.6
			c0,0.3,0.1,0.6,0.7,0.8c0.2,0.1,0.3,0.1,0.3,0.2c0,0.1-0.2,0.2-0.5,0.2c-0.3,0-0.8-0.1-1.3-0.1c-0.5,0-0.8,0-1.2,0
			c-0.3,0-0.4-0.1-0.4-0.2c0-0.1,0.2-0.2,0.4-0.2c0.6-0.2,0.6-0.4,0.6-1c0-0.4,0-2.4,0-2.9c0-0.6-0.1-0.9-0.3-1.2
			c-0.2-0.3-0.6-0.6-1.3-0.6c-0.8,0-1.1,0.3-1.3,0.5c-0.1,0.1-0.2,0.4-0.2,0.5c0,0.1,0,3.4,0,3.8c0.1,0.6,0.1,0.7,0.7,0.9
			c0.2,0.1,0.4,0.2,0.4,0.2c0,0.1-0.1,0.2-0.4,0.2c-0.4,0-0.9,0-1.3,0c-0.4,0-0.9,0-1.2,0c-0.4,0-0.5-0.1-0.5-0.2
			c0-0.1,0.1-0.2,0.3-0.2c0.6-0.1,0.7-0.3,0.7-0.9v-3.4c0-0.5-0.1-0.7-0.2-0.9c-0.2-0.3-0.7-0.5-1.3-0.5c-0.6,0-1,0.2-1.4,0.5
			c-0.1,0.1-0.2,0.2-0.2,0.4c0,0.5,0,2.6,0,4c0,0.3,0.1,0.6,0.6,0.8c0.3,0.1,0.5,0.2,0.5,0.3c0,0.1-0.2,0.2-0.5,0.2
			c-0.1,0-0.7,0-1.4,0c-0.6,0-0.9,0.1-1.3,0.1c-0.3,0-0.4-0.1-0.4-0.2c0-0.1,0.1-0.2,0.4-0.3c0.6-0.1,0.7-0.4,0.7-1.1
			c0-0.5,0.1-2.2,0.1-3.4c0-0.1,0-0.3-0.1-0.5c-0.5-0.5-0.6-0.5-0.6-0.6C244.7,553.4,244.9,553.3,245.1,553.2z"/>
		<path class="st4" d="M262.1,553.4c0.3,0.4,0.3,0.7,0.3,1.4c0,0.7-0.1,2.9-0.1,3.1c0,0.8,0.6,0.9,0.7,0.9c0.1,0,0.5-0.1,0.7-0.3
			c0.1,0,0.1,0,0.1,0.1c0.1,0.1,0.1,0.2,0.1,0.2c0,0.3-0.8,1.1-1.6,1.1c-0.4,0-0.9-0.2-1.1-0.9c0,0-0.1-0.1-0.1-0.1
			c-0.6,0.5-1.4,0.7-1.6,0.8c-0.2,0.1-0.6,0.1-0.7,0.1c-0.6,0-1.2-0.7-1.2-1.6c0-0.3,0.1-0.6,0.3-0.9c0.2-0.2,0.4-0.3,0.7-0.4
			c0.3-0.1,1.7-0.5,2-0.6c0.4-0.1,0.5-0.2,0.5-0.3c0-0.2,0-1.2,0-1.4c0-0.4-0.5-1.2-1.4-1.2c-0.4,0-0.6,0.1-0.7,0.2
			c-0.1,0.1-0.2,0.4-0.1,0.7c0,0.1-0.1,0.2-0.1,0.2c-0.2,0.1-1,0.6-1.1,0.6c-0.1,0-0.2-0.1-0.2-0.2c0-0.5,0.5-1,1.3-1.5
			c0.5-0.4,1.3-0.7,1.6-0.7C261.4,552.6,261.8,553,262.1,553.4z M260.9,558.6c0.1-0.1,0.2-0.4,0.2-0.4c0-0.4,0-1,0-1.4
			c0-0.1-0.1-0.1-0.1-0.1c-0.5,0-1.3,0.3-1.8,0.5c-0.2,0.1-0.3,0.2-0.3,0.7c0,0.8,0.7,1,1.1,1C260.3,558.9,260.6,558.8,260.9,558.6z
			"/>
		<path class="st4" d="M270.9,553.6c0.4,0.5,0.8,1.3,0.8,2.3c0,0.9-0.4,2.2-1.5,3c-1,0.7-2,0.9-2.8,0.9c-0.4,0-0.7,0-1-0.1
			c-0.1,0-0.1,0.1-0.1,0.2c0,1.7,0,2.4,0.1,2.9c0.1,0.5,0.2,0.7,0.8,0.9c0.3,0.1,0.5,0.2,0.5,0.3c0,0.1-0.2,0.2-0.5,0.2
			c-0.4,0-1.4-0.1-2.1-0.1c-0.4,0-0.6,0.1-1.1,0.1c-0.3,0-0.5-0.1-0.5-0.2c0-0.1,0.1-0.2,0.4-0.3c0.9-0.2,1-0.3,1.1-1.6
			c0-0.6,0.1-2,0.1-3.8c0-1.2,0-2.5,0-3.5c0-0.7-0.1-0.9-0.1-0.9c-0.4-0.3-0.6-0.5-0.6-0.6c0-0.1,0.2-0.3,0.2-0.3
			c0.3-0.1,1-0.4,1.3-0.6c0.2-0.1,0.3-0.2,0.3-0.2c0.1,0,0.2,0.1,0.2,0.2c0,0.3,0,0.6-0.1,0.9c0,0.1,0.1,0.1,0.1,0.1
			c0.4-0.3,0.9-0.5,1.1-0.6c0.3-0.1,0.8-0.2,1.3-0.2C269.6,552.6,270.4,553,270.9,553.6z M266.7,553.8c-0.1,0.1-0.2,0.2-0.2,0.5
			c-0.1,0.5-0.1,2.4,0,3.1c0,0.3,0.1,0.6,0.2,0.8c0.5,0.7,1.3,1,1.7,1c0.2,0,0.6-0.1,0.8-0.3c0.9-0.7,1.2-2,1.2-2.6
			c0-0.4,0-1.3-0.7-2.1c-0.5-0.5-1.2-0.7-1.6-0.7C267.3,553.5,266.9,553.7,266.7,553.8z"/>
		<path class="st4" d="M283.6,556.2c0,1.4-0.9,2.6-1.5,3c-0.7,0.5-1.4,0.7-2.2,0.7c-0.8,0-1.7-0.4-2.3-0.9c-0.7-0.6-1.3-1.8-1.3-2.7
			c0-1.3,0.6-2.2,1.2-2.7c0.5-0.5,1.4-1,2.6-1C281.8,552.6,283.6,554,283.6,556.2z M278.6,553.6c-0.5,0.4-0.9,1.3-0.9,2.2
			c0,0.6,0.1,1.1,0.2,1.5c0.4,1.3,1.4,1.9,2.3,1.9c0.2,0,0.6-0.1,1.1-0.6c0.4-0.5,0.8-1.5,0.8-2.3c0-0.9-0.2-1.9-0.9-2.7
			c-0.4-0.4-1-0.7-1.5-0.7C279.4,553.1,279,553.3,278.6,553.6z"/>
		<path class="st4" d="M289.2,552.8c0.1,0,0.2,0.4,0.2,0.7c0,0.1-0.2,0.2-0.3,0.2c-0.1,0-1.8-0.1-2-0.1c0,0-0.1,0.1-0.1,0.1
			c0,0.3,0,4.2,0.1,4.5c0.1,0.6,0.2,0.8,1.2,0.9c0.3,0.1,0.4,0.2,0.4,0.3c0,0.2-0.2,0.2-0.5,0.2c-0.2,0-1,0-1.4,0
			c-0.6,0-1.6,0.1-1.7,0.1c-0.2,0-0.4-0.1-0.4-0.2c0-0.1,0.2-0.2,0.4-0.3c0.7-0.2,0.8-0.4,0.8-1.2c0-0.7,0-2.8,0-3.7
			c0-0.6-0.1-0.6-0.2-0.6c-0.2,0-0.5,0-0.7,0c-0.1,0-0.2-0.2-0.2-0.3c0-0.1,0.5-0.3,0.9-0.6c0.1-0.1,0.2-0.2,0.2-0.3
			c0-1,0.1-1.8,0.4-2.6c0.4-0.9,0.8-1.5,1.6-2.1c0.7-0.5,1.3-0.7,2-0.7c0.4,0,0.8,0.1,1.1,0.3c0.2,0.1,0.3,0.4,0.3,0.6
			c0,0.2-0.2,0.6-0.5,0.7c-0.1,0-0.2,0.1-0.3,0.1c-0.1,0-0.2-0.1-0.5-0.3c-0.3-0.3-0.8-0.5-1.2-0.5c-0.4,0-0.8,0.2-1.1,0.7
			c-0.4,0.7-0.6,1.7-0.6,4c0,0.1,0.1,0.2,0.1,0.2C288.2,552.9,289.2,552.8,289.2,552.8z"/>
		<path class="st4" d="M299.2,548.5c0.6,0,1.3,0,1.6-0.1c0.1,0,0.1,0.1,0.2,0.2c0,0.8,0,1.3,0,1.7c0,0.2-0.1,0.5-0.3,0.5
			c-0.2,0-0.2-0.2-0.3-0.4c-0.2-0.9-0.6-1.1-1.2-1.2c-0.5-0.1-1.7-0.1-2.5-0.1c0,0-0.2,0.1-0.3,0.5c0,0.4-0.1,3.7-0.1,4
			c0,0.1,0,0.2,0.1,0.2h1.1c1.6,0,1.7-0.1,2-0.9c0.1-0.3,0.2-0.4,0.3-0.4c0.1,0,0.2,0.2,0.1,0.4c0,0.5-0.1,0.8-0.1,1.3
			c0,0.5,0,0.7,0.1,1.1c0,0.3-0.1,0.5-0.2,0.5c-0.1,0-0.2-0.2-0.3-0.4c-0.2-0.8-0.3-0.9-1.4-0.9c-0.6,0-1.3,0-1.7,0
			c-0.1,0-0.2,0.1-0.2,0.2c-0.1,0.4-0.1,2-0.1,2.7c0,0.5,0.1,1.2,0.2,1.4c0.1,0.2,0.2,0.3,0.3,0.4c0.3,0.1,0.9,0.1,1.6,0.1
			c0.2,0,1.3,0,1.7-0.1c0.6-0.1,1-0.5,1.4-1.3c0.2-0.4,0.3-0.5,0.4-0.5c0.1,0,0.2,0.3,0.1,0.5c0,0.1-0.5,1.7-0.6,1.9
			c-0.1,0.1-0.2,0.2-0.3,0.2c-0.2,0-2.8-0.1-5.7-0.1c-0.9,0-1.3,0.1-2,0.1c-0.3,0-0.5,0-0.5-0.2c0-0.1,0.2-0.2,0.5-0.3
			c0.9-0.2,1.2-0.3,1.3-1.3c0.1-0.7,0.1-2.8,0.1-4.9c0-2.1,0-2.4,0-2.9c0-0.8-0.2-1-1-1.1c-0.4-0.1-0.5-0.2-0.5-0.3
			c0-0.2,0.2-0.2,0.5-0.2c0.8,0,1.5,0.1,2.7,0.1H299.2z"/>
		<path class="st4" d="M303.6,553.1c0.3-0.1,0.9-0.3,1.2-0.5c0.2-0.1,0.3-0.2,0.4-0.2c0.1,0,0.2,0.2,0.2,0.3c0,0.3-0.1,0.7-0.1,0.9
			c0,0.1,0.1,0.1,0.1,0.1c0.7-0.5,1.6-1,2.3-1c0.9,0,1.3,0.4,1.6,0.7c0.4,0.5,0.6,1.3,0.6,2.1c0,0.3,0,2.9,0.1,3.2
			c0,0.3,0.2,0.5,0.6,0.6c0.3,0.1,0.4,0.2,0.4,0.3c0,0.1-0.2,0.2-0.5,0.2c-0.4,0-0.8,0-1.3,0c-0.4,0-1,0-1.2,0
			c-0.2,0-0.4-0.1-0.4-0.2c0-0.1,0.2-0.2,0.4-0.3c0.4-0.2,0.5-0.3,0.5-0.9c0-0.6,0.1-2.7,0.1-3.2c0-0.6-0.3-1.1-0.5-1.3
			c-0.2-0.1-0.7-0.3-1.1-0.3c-0.8,0-1.2,0.3-1.5,0.6c-0.1,0.1-0.2,0.3-0.2,0.4c0,0.2,0,4,0,4.2c0,0.2,0.1,0.4,0.6,0.5
			c0.2,0.1,0.3,0.2,0.3,0.3c0,0.1-0.2,0.2-0.4,0.2c-0.2,0-0.7,0-1.1,0c-0.6,0-1.1,0.1-1.4,0.1c-0.3,0-0.5-0.1-0.5-0.2
			c0-0.1,0.2-0.2,0.4-0.3c0.6-0.2,0.7-0.3,0.7-1c0.1-0.5,0.1-2,0.1-3.8c0-0.2,0-0.4-0.4-0.7c-0.2-0.2-0.3-0.2-0.3-0.3
			C303.3,553.3,303.5,553.2,303.6,553.1z"/>
		<path class="st4" d="M316.4,552.8c0.2,0,0.4,0.1,0.5,0.1c0.4,0,1.7,0.1,2,0.1c0.1,0,0.2,0.1,0.2,0.2c0,0.2-0.2,0.6-0.3,0.6
			c-0.1,0-0.7,0-1.2,0c-0.1,0-0.1,0.1-0.1,0.1c0.1,0.3,0.1,0.6,0.1,0.9c0,1-0.3,1.7-1,2.2c-0.8,0.6-1.5,0.7-1.9,0.7
			c-0.1,0-0.5,0-0.6,0c-0.1,0-0.2,0-0.3,0c-0.2,0.1-0.6,0.5-0.6,0.6c0,0.5,0.5,0.8,0.7,0.8c0.8,0,2.6,0.1,3.2,0.1
			c0.1,0,0.5,0.2,0.8,0.4c0.5,0.4,0.7,1.1,0.7,1.5c0,1.3-0.9,2.2-1.6,2.7c-1,0.6-1.9,0.7-2.5,0.7c-0.6,0-1.4-0.1-2.2-0.6
			c-0.5-0.4-0.8-1-0.8-1.5c0-0.8,0.3-1,0.5-1.1c0.4-0.4,1-0.7,1.2-0.9c0,0,0-0.1-0.1-0.1c-0.1-0.1-0.5-0.2-0.7-0.3
			c-0.3-0.2-0.6-0.7-0.6-1.3c0,0,0.1-0.1,0.1-0.2c0.3-0.2,1-0.6,1.3-0.9c0,0,0-0.1-0.1-0.2c-0.5-0.3-1.3-0.9-1.3-2.2
			c0-0.9,0.4-1.5,1.1-2c0.5-0.4,1.1-0.6,1.8-0.6C315.6,552.5,315.9,552.6,316.4,552.8z M316.7,563.4c0.7-0.5,1-1.1,1-1.6
			c0-0.2,0-0.6-0.2-0.9c-0.2-0.2-0.5-0.5-0.9-0.5c-0.5-0.1-1-0.1-1.8-0.1c-0.6,0-0.8,0.1-0.9,0.2c-0.6,0.4-0.8,1-0.8,1.4
			c0,0.6,0.2,1,0.6,1.3c0.5,0.4,1.1,0.5,1.7,0.5C316,563.7,316.5,563.5,316.7,563.4z M313.9,553.4c-0.3,0.3-0.5,0.7-0.5,1.5
			c0,0.9,0.6,2.2,1.7,2.2c0.1,0,0.3-0.1,0.6-0.2c0.4-0.3,0.7-1.1,0.7-1.8c0-0.3-0.1-0.9-0.4-1.3c-0.3-0.5-0.7-0.8-1.3-0.8
			C314.5,553,314.1,553.2,313.9,553.4z"/>
		<path class="st4" d="M320,547.9c0.8-0.3,1.3-0.4,1.8-0.7c0.1,0,0.2,0.1,0.2,0.2c-0.1,0.4-0.2,2.4-0.2,4.7c0,2.5,0,5.9,0.1,6.3
			c0.1,0.3,0.1,0.6,0.9,0.8c0.3,0.1,0.4,0.2,0.4,0.3c0,0.1-0.2,0.2-0.5,0.2c-0.4,0-1.2-0.1-1.5-0.1c-0.4,0-1.2,0.1-1.5,0.1
			c-0.3,0-0.5-0.1-0.5-0.2c0-0.1,0.2-0.2,0.4-0.2c0.8-0.2,0.8-0.5,0.9-1.4c0.1-0.7,0.1-2.5,0.1-5.3c0-1.3,0-3.2-0.1-3.6
			c0-0.1,0-0.2-0.4-0.5c-0.3-0.2-0.3-0.3-0.3-0.3C319.7,548.1,319.8,548,320,547.9z"/>
		<path class="st4" d="M328.4,553.4c0.3,0.4,0.3,0.7,0.3,1.4c0,0.7-0.1,2.9-0.1,3.1c0,0.8,0.6,0.9,0.7,0.9c0.1,0,0.5-0.1,0.7-0.3
			c0.1,0,0.1,0,0.1,0.1c0.1,0.1,0.1,0.2,0.1,0.2c0,0.3-0.8,1.1-1.6,1.1c-0.4,0-0.9-0.2-1.1-0.9c0,0-0.1-0.1-0.1-0.1
			c-0.6,0.5-1.4,0.7-1.6,0.8c-0.2,0.1-0.6,0.1-0.7,0.1c-0.6,0-1.2-0.7-1.2-1.6c0-0.3,0.1-0.6,0.3-0.9c0.2-0.2,0.4-0.3,0.7-0.4
			c0.3-0.1,1.7-0.5,2-0.6c0.4-0.1,0.5-0.2,0.5-0.3c0-0.2,0-1.2,0-1.4c0-0.4-0.5-1.2-1.4-1.2c-0.4,0-0.6,0.1-0.7,0.2
			c-0.1,0.1-0.2,0.4-0.1,0.7c0,0.1-0.1,0.2-0.1,0.2c-0.2,0.1-1,0.6-1.1,0.6c-0.1,0-0.2-0.1-0.2-0.2c0-0.5,0.5-1,1.3-1.5
			c0.5-0.4,1.3-0.7,1.6-0.7C327.7,552.6,328.1,553,328.4,553.4z M327.2,558.6c0.1-0.1,0.2-0.4,0.2-0.4c0-0.4,0-1,0-1.4
			c0-0.1-0.1-0.1-0.1-0.1c-0.5,0-1.3,0.3-1.8,0.5c-0.2,0.1-0.3,0.2-0.3,0.7c0,0.8,0.7,1,1.1,1C326.5,558.9,326.9,558.8,327.2,558.6z
			"/>
		<path class="st4" d="M331.3,553.1c0.3-0.1,0.9-0.3,1.2-0.5c0.2-0.1,0.3-0.2,0.4-0.2c0.1,0,0.2,0.2,0.2,0.3c0,0.3-0.1,0.7-0.1,0.9
			c0,0.1,0.1,0.1,0.1,0.1c0.7-0.5,1.6-1,2.3-1c0.9,0,1.3,0.4,1.6,0.7c0.4,0.5,0.6,1.3,0.6,2.1c0,0.3,0,2.9,0.1,3.2
			c0,0.3,0.2,0.5,0.6,0.6c0.3,0.1,0.4,0.2,0.4,0.3c0,0.1-0.2,0.2-0.5,0.2c-0.4,0-0.8,0-1.3,0c-0.4,0-1,0-1.2,0
			c-0.2,0-0.4-0.1-0.4-0.2c0-0.1,0.2-0.2,0.4-0.3c0.4-0.2,0.5-0.3,0.5-0.9c0-0.6,0.1-2.7,0.1-3.2c0-0.6-0.3-1.1-0.5-1.3
			c-0.2-0.1-0.7-0.3-1.1-0.3c-0.8,0-1.2,0.3-1.5,0.6c-0.1,0.1-0.2,0.3-0.2,0.4c0,0.2,0,4,0,4.2c0,0.2,0.1,0.4,0.6,0.5
			c0.2,0.1,0.3,0.2,0.3,0.3c0,0.1-0.2,0.2-0.4,0.2c-0.2,0-0.7,0-1.1,0c-0.6,0-1.1,0.1-1.4,0.1c-0.3,0-0.5-0.1-0.5-0.2
			c0-0.1,0.2-0.2,0.4-0.3c0.6-0.2,0.7-0.3,0.7-1c0.1-0.5,0.1-2,0.1-3.8c0-0.2,0-0.4-0.4-0.7c-0.2-0.2-0.3-0.2-0.3-0.3
			C331,553.3,331.2,553.2,331.3,553.1z"/>
		<path class="st4" d="M345,552.7c0.1,0,0.1-0.1,0.1-0.2c0.1-0.5,0-3.1,0-3.6c0-0.1,0-0.3-0.8-0.7c-0.2-0.1-0.2-0.1-0.2-0.2
			c0-0.1,0.2-0.3,0.3-0.3c0.4-0.1,1.3-0.3,1.8-0.5c0.1,0,0.2-0.1,0.2-0.1c0.1,0,0.2,0.1,0.1,0.3c-0.1,0.9-0.2,1.5-0.2,6.9
			c0,3.4,0,3.6,0,4c0,0.6,0.2,0.7,0.3,0.7c0.2,0,0.8-0.1,0.9-0.1c0.1,0,0.1,0.1,0.1,0.1c0,0.1-0.2,0.4-0.3,0.4
			c-0.3,0.1-1.2,0.2-1.6,0.3c-0.4,0.1-0.5,0.2-0.6,0.2c-0.1,0-0.2-0.1-0.2-0.2c0-0.2,0-0.5,0-0.7c0-0.1-0.1-0.1-0.1-0.1
			c-0.8,0.7-1.7,0.9-2.3,0.9c-0.8,0-1.6-0.4-2.2-1c-0.6-0.6-0.8-1.5-0.8-2.4c0-1.7,1-2.7,1.8-3.2c0.8-0.5,1.8-0.7,2.3-0.7
			C344.5,552.6,344.8,552.6,345,552.7z M341.9,553.8c-0.3,0.3-0.7,1.2-0.7,2.2c0,1.4,1,3,2.5,3c0.6,0,1-0.2,1.3-0.4
			c0,0,0.3-0.6,0.3-1.1c0-1.1,0-2.1-0.1-2.9c0-0.1-0.2-0.5-0.4-0.7c-0.5-0.5-1.1-0.7-1.5-0.7C342.7,553.2,342.2,553.5,341.9,553.8z"
			/>
		<path class="st4" d="M356.3,552.8c0,0,0.2,0.1,0.2,0.1c0-0.1,0.1,0.4,0.1,0.7c0,0.2-0.3,0.2-0.5,0.2c-0.1,0-1.7,0-1.9,0
			c-0.1,0-0.2,0.1-0.2,0.1c0,0.3,0,2.9,0,3.7c0,0.4,0.1,0.7,0.3,0.9c0.3,0.3,0.7,0.3,1.1,0.3c0.2,0,0.6-0.1,0.9-0.3
			c0.2-0.1,0.2-0.1,0.3-0.1c0,0,0.1,0,0.1,0.2c0,0.1-0.1,0.3-0.2,0.4c-0.5,0.5-1.1,0.8-1.9,0.8c-0.7,0-1.3-0.4-1.5-0.8
			c-0.2-0.3-0.2-0.7-0.2-1.1c0-0.6,0.1-3.3,0.1-3.9c0-0.1-0.3-0.2-0.7-0.3c-0.1-0.1-0.2-0.1-0.2-0.2c0-0.1,0.1-0.1,0.1-0.2
			c0.6-0.5,1.1-0.9,1.4-1.2c0.2-0.2,0.3-0.4,0.4-0.4c0.1,0,0.2,0.2,0.2,0.2c0,0.1,0,0.3,0,0.8c0,0.1,0.1,0.1,0.1,0.1
			C354.5,552.9,356.2,552.8,356.3,552.8z"/>
		<path class="st4" d="M364.7,556.2c0,1.4-0.9,2.6-1.5,3c-0.7,0.5-1.4,0.7-2.2,0.7c-0.8,0-1.7-0.4-2.3-0.9c-0.7-0.6-1.3-1.8-1.3-2.7
			c0-1.3,0.6-2.2,1.2-2.7c0.5-0.5,1.4-1,2.6-1C362.9,552.6,364.7,554,364.7,556.2z M359.7,553.6c-0.5,0.4-0.9,1.3-0.9,2.2
			c0,0.6,0.1,1.1,0.2,1.5c0.4,1.3,1.4,1.9,2.3,1.9c0.2,0,0.6-0.1,1.1-0.6c0.4-0.5,0.8-1.5,0.8-2.3c0-0.9-0.2-1.9-0.9-2.7
			c-0.4-0.4-1-0.7-1.5-0.7C360.5,553.1,360.1,553.3,359.7,553.6z"/>
		<path class="st4" d="M369.6,559.7c-0.3,0-0.5-0.1-0.5-0.2c0-0.1,0.1-0.2,0.4-0.3c0.4-0.1,0.7-0.3,0.7-0.5c0.1-0.2,0.1-1.3,0.1-1.8
			c0-0.5,0-2.5,0-2.7c0-0.1-0.2-0.3-0.7-0.6c-0.1-0.1-0.1-0.1-0.1-0.2c0-0.1,0.2-0.3,0.3-0.3c0.6-0.1,1.5-0.5,1.7-0.6
			c0.1,0,0.2,0.2,0.2,0.2c0,0.2-0.1,2.5-0.1,3.4c0,1,0,1.7,0,2.3c0,0.6,0.4,0.6,0.8,0.7c0.3,0.1,0.4,0.2,0.4,0.3
			c0,0.1-0.2,0.2-0.4,0.2c-0.1,0-1-0.1-1.4-0.1C370.5,559.6,369.9,559.7,369.6,559.7z M371.8,549.9c0,0.5-0.5,0.9-0.8,0.9
			c-0.1,0-0.4-0.1-0.6-0.2c-0.1-0.2-0.3-0.3-0.3-0.6c0-0.2,0.1-0.4,0.2-0.6c0.2-0.2,0.4-0.2,0.7-0.2
			C371.5,549.1,371.8,549.6,371.8,549.9z"/>
		<path class="st4" d="M374,547.9c0.8-0.3,1.3-0.4,1.8-0.7c0.1,0,0.2,0.1,0.2,0.2c-0.1,0.4-0.2,2.4-0.2,4.7c0,2.5,0,5.9,0.1,6.3
			c0.1,0.3,0.1,0.6,0.9,0.8c0.3,0.1,0.4,0.2,0.4,0.3c0,0.1-0.2,0.2-0.5,0.2c-0.4,0-1.2-0.1-1.5-0.1c-0.4,0-1.2,0.1-1.5,0.1
			c-0.3,0-0.5-0.1-0.5-0.2c0-0.1,0.2-0.2,0.4-0.2c0.8-0.2,0.8-0.5,0.9-1.4c0.1-0.7,0.1-2.5,0.1-5.3c0-1.3,0-3.2-0.1-3.6
			c0-0.1,0-0.2-0.4-0.5c-0.3-0.2-0.3-0.3-0.3-0.3C373.8,548.1,373.9,548,374,547.9z"/>
		<path class="st4" d="M378.4,547.9c0.8-0.3,1.3-0.4,1.8-0.7c0.1,0,0.2,0.1,0.2,0.2c-0.1,0.4-0.2,2.4-0.2,4.7c0,2.5,0,5.9,0.1,6.3
			c0.1,0.3,0.1,0.6,0.9,0.8c0.3,0.1,0.4,0.2,0.4,0.3c0,0.1-0.2,0.2-0.5,0.2c-0.4,0-1.2-0.1-1.5-0.1c-0.4,0-1.2,0.1-1.5,0.1
			c-0.3,0-0.5-0.1-0.5-0.2c0-0.1,0.2-0.2,0.4-0.2c0.8-0.2,0.8-0.5,0.9-1.4c0.1-0.7,0.1-2.5,0.1-5.3c0-1.3,0-3.2-0.1-3.6
			c0-0.1,0-0.2-0.4-0.5c-0.3-0.2-0.3-0.3-0.3-0.3C378.2,548.1,378.2,548,378.4,547.9z"/>
		<path class="st4" d="M387.2,558.4c0.1-0.1,0.3-0.3,0.3-0.4l0-4c0-0.1-0.2-0.3-0.3-0.4c-0.3-0.1-0.6-0.2-0.8-0.2
			c-0.1,0-0.3-0.1-0.3-0.3c0-0.1,0.2-0.2,0.4-0.2c0.7,0,1.5-0.1,1.9-0.2c0.2-0.1,0.3-0.1,0.4-0.1c0.1,0,0.1,0.2,0.1,0.3
			c0,0.5-0.2,4.4-0.2,5.8c0,0,0.1,0.2,0.2,0.2c0.1,0,0.7-0.1,0.9-0.1c0.1,0,0.2,0.3,0.2,0.3c0,0.1-0.1,0.2-0.2,0.2
			c-0.5,0-1.2,0.2-1.6,0.3c-0.3,0.1-0.6,0.2-0.6,0.2c-0.1,0-0.2-0.1-0.2-0.2c0-0.1,0.1-0.4,0.1-0.7c0-0.1-0.1-0.1-0.1-0.1
			c-0.5,0.3-1.2,0.8-1.4,0.9c-0.3,0.1-0.7,0.2-1.2,0.2c-0.6,0-1.2-0.3-1.5-0.8c-0.1-0.2-0.2-0.5-0.2-0.8c0-1.3,0-3.2,0-4.1
			c0-0.5-0.3-0.6-0.6-0.7c-0.2-0.1-0.3-0.2-0.3-0.3c0-0.1,0.1-0.2,0.3-0.2c0.5,0,1.8-0.2,1.8-0.2s0.1,0.2,0.1,0.3
			c0,0.6-0.1,3.9-0.1,4.7c0,0.4,0.2,0.8,0.4,1c0.5,0.3,0.8,0.3,1.2,0.3C386.3,559,386.8,558.8,387.2,558.4z"/>
		<path class="st4" d="M394.3,552.7c0.2,0,0.5,0.2,0.6,0.2c0,0,0.1,0.1,0.1,0.2c0,0.3,0.1,0.9,0.1,1c0,0.2-0.1,0.3-0.2,0.3
			c-0.1,0-0.2-0.1-0.3-0.3c-0.4-0.8-0.8-1.2-1.4-1.2c-0.7,0-1,0.7-1,1.1c0,0.6,0.6,1,1.7,1.7c1,0.6,1.4,1.2,1.4,1.9
			c0,0.8-0.6,1.4-1,1.7c-0.3,0.2-0.9,0.4-1.5,0.4c-0.5,0-1.4-0.1-1.7-0.4c-0.1-0.1-0.3-0.8-0.3-1.3c0-0.2,0-0.4,0.1-0.4
			c0.1,0,0.3,0.2,0.4,0.4c0.5,0.9,1,1.2,1.6,1.2c0.2,0,0.5-0.1,0.7-0.3c0.3-0.2,0.4-0.6,0.4-1c0-0.5-0.2-0.8-0.8-1.2
			c-0.4-0.3-0.5-0.4-1.1-0.7c-0.5-0.3-1.1-0.9-1.1-1.8c0-0.6,0.3-1.2,1-1.6c0.3-0.2,0.8-0.4,1.4-0.4
			C393.7,552.6,394.1,552.7,394.3,552.7z"/>
		<path class="st4" d="M400.6,552.8c0,0,0.2,0.1,0.2,0.1c0-0.1,0.1,0.4,0.1,0.7c0,0.2-0.3,0.2-0.5,0.2c-0.1,0-1.7,0-1.9,0
			c-0.1,0-0.2,0.1-0.2,0.1c0,0.3,0,2.9,0,3.7c0,0.4,0.1,0.7,0.3,0.9c0.3,0.3,0.7,0.3,1.1,0.3c0.2,0,0.6-0.1,0.9-0.3
			c0.2-0.1,0.2-0.1,0.3-0.1c0,0,0.1,0,0.1,0.2c0,0.1-0.1,0.3-0.2,0.4c-0.5,0.5-1.1,0.8-1.9,0.8c-0.7,0-1.3-0.4-1.5-0.8
			c-0.2-0.3-0.2-0.7-0.2-1.1c0-0.6,0.1-3.3,0.1-3.9c0-0.1-0.3-0.2-0.7-0.3c-0.1-0.1-0.2-0.1-0.2-0.2c0-0.1,0.1-0.1,0.1-0.2
			c0.6-0.5,1.1-0.9,1.4-1.2c0.2-0.2,0.3-0.4,0.4-0.4c0.1,0,0.2,0.2,0.2,0.2c0,0.1,0,0.3,0,0.8c0,0.1,0.1,0.1,0.1,0.1
			C398.9,552.9,400.6,552.8,400.6,552.8z"/>
		<path class="st4" d="M402.1,553.2c0.6-0.2,1.1-0.5,1.3-0.6c0.2-0.1,0.3-0.2,0.3-0.2c0.1,0,0.2,0.2,0.2,0.2c0,0.3,0,0.6,0,1
			c0,0.1,0.1,0.1,0.1,0.1c0.7-0.6,1.4-1.1,2-1.1c0.7,0,0.9,0.4,0.9,0.6c0,0-0.1,0.2-0.1,0.2c-0.2,0.3-0.6,0.7-0.7,0.8
			c0,0-0.2,0-0.2-0.1c-0.2-0.2-0.6-0.4-1-0.4c-0.3,0-0.6,0.1-0.8,0.2c-0.1,0.1-0.2,0.3-0.2,0.4c0,0.3,0.1,3.5,0.1,3.8
			c0,0.5,0.1,0.8,0.5,0.9c0.2,0.1,0.5,0.1,0.8,0.2c0.3,0.1,0.3,0.2,0.3,0.3c0,0.1-0.2,0.2-0.4,0.2c-0.4,0-1-0.1-2.1-0.1
			c-0.5,0-0.7,0.1-1.1,0.1c-0.2,0-0.4-0.1-0.4-0.2c0-0.1,0.2-0.2,0.3-0.2c0.7-0.2,0.7-0.4,0.7-1.4c0-0.4,0-2.2,0-3.3
			c0-0.2,0-0.4-0.2-0.5c-0.4-0.3-0.6-0.4-0.6-0.5C401.8,553.5,401.9,553.3,402.1,553.2z"/>
		<path class="st4" d="M412,553.4c0.3,0.4,0.3,0.7,0.3,1.4c0,0.7-0.1,2.9-0.1,3.1c0,0.8,0.6,0.9,0.7,0.9c0.1,0,0.5-0.1,0.7-0.3
			c0.1,0,0.1,0,0.1,0.1c0.1,0.1,0.1,0.2,0.1,0.2c0,0.3-0.8,1.1-1.6,1.1c-0.4,0-0.9-0.2-1.1-0.9c0,0-0.1-0.1-0.1-0.1
			c-0.6,0.5-1.4,0.7-1.6,0.8c-0.2,0.1-0.6,0.1-0.7,0.1c-0.6,0-1.2-0.7-1.2-1.6c0-0.3,0.1-0.6,0.3-0.9c0.2-0.2,0.4-0.3,0.7-0.4
			c0.3-0.1,1.7-0.5,2-0.6c0.4-0.1,0.5-0.2,0.5-0.3c0-0.2,0-1.2,0-1.4c0-0.4-0.5-1.2-1.4-1.2c-0.4,0-0.6,0.1-0.7,0.2
			c-0.1,0.1-0.2,0.4-0.1,0.7c0,0.1-0.1,0.2-0.1,0.2c-0.2,0.1-1,0.6-1.1,0.6c-0.1,0-0.2-0.1-0.2-0.2c0-0.5,0.5-1,1.3-1.5
			c0.5-0.4,1.3-0.7,1.6-0.7C411.3,552.6,411.7,553,412,553.4z M410.8,558.6c0.1-0.1,0.2-0.4,0.2-0.4c0-0.4,0-1,0-1.4
			c0-0.1-0.1-0.1-0.1-0.1c-0.5,0-1.3,0.3-1.8,0.5c-0.2,0.1-0.3,0.2-0.3,0.7c0,0.8,0.7,1,1.1,1C410.1,558.9,410.5,558.8,410.8,558.6z
			"/>
		<path class="st4" d="M418.5,552.8c0,0,0.2,0.1,0.2,0.1c0-0.1,0.1,0.4,0.1,0.7c0,0.2-0.3,0.2-0.5,0.2c-0.1,0-1.7,0-1.9,0
			c-0.1,0-0.2,0.1-0.2,0.1c0,0.3,0,2.9,0,3.7c0,0.4,0.1,0.7,0.3,0.9c0.3,0.3,0.7,0.3,1.1,0.3c0.2,0,0.6-0.1,0.9-0.3
			c0.2-0.1,0.2-0.1,0.3-0.1c0,0,0.1,0,0.1,0.2c0,0.1-0.1,0.3-0.2,0.4c-0.5,0.5-1.1,0.8-1.9,0.8c-0.7,0-1.3-0.4-1.5-0.8
			c-0.2-0.3-0.2-0.7-0.2-1.1c0-0.6,0.1-3.3,0.1-3.9c0-0.1-0.3-0.2-0.7-0.3c-0.1-0.1-0.2-0.1-0.2-0.2c0-0.1,0.1-0.1,0.1-0.2
			c0.6-0.5,1.1-0.9,1.4-1.2c0.2-0.2,0.3-0.4,0.4-0.4c0.1,0,0.2,0.2,0.2,0.2c0,0.1,0,0.3,0,0.8c0,0.1,0.1,0.1,0.1,0.1
			C416.8,552.9,418.5,552.8,418.5,552.8z"/>
		<path class="st4" d="M424.8,553.3c0.4,0.4,0.6,0.9,0.6,1.5c0,0.1-0.1,0.3-0.3,0.3c-0.2,0-3.2,0-4,0c-0.1,0-0.1,0.1-0.1,0.1
			c-0.1,0.1-0.1,0.4-0.1,0.6c0,0.7,0.3,1.5,0.7,2c0.4,0.5,1.1,1,1.9,1c0.8,0,1.3-0.2,1.6-0.6c0.1-0.1,0.2-0.2,0.2-0.2
			c0.1,0,0.1,0.1,0.1,0.2c0,0.1-0.1,0.3-0.1,0.4c-0.6,0.9-1.5,1.3-2.5,1.3c-1.9,0-3.1-1.4-3.1-3.5c0-1.4,0.7-2.8,2.1-3.4
			c0.5-0.2,1-0.3,1.3-0.3C423.7,552.6,424.3,552.9,424.8,553.3z M421.1,554.4c0,0.1,0,0.2,0.1,0.2c0.5,0,1.4,0,2.2,0
			c0.4,0,0.6-0.1,0.6-0.4c0-0.5-0.5-1-1.1-1C422.1,553.1,421.4,553.6,421.1,554.4z"/>
	</g>
	<g class="st3">
		<path class="st4" d="M233.6,574.5c0,0,0.2,0.1,0.2,0.1c0-0.1,0.1,0.4,0.1,0.7c0,0.2-0.3,0.2-0.5,0.2c-0.1,0-1.7,0-1.9,0
			c-0.1,0-0.2,0.1-0.2,0.1c0,0.3,0,2.9,0,3.7c0,0.4,0.1,0.7,0.3,0.9c0.3,0.3,0.7,0.3,1.1,0.3c0.2,0,0.6-0.1,0.9-0.3
			c0.2-0.1,0.2-0.1,0.3-0.1c0,0,0.1,0,0.1,0.2c0,0.1-0.1,0.3-0.2,0.4c-0.5,0.5-1.1,0.8-1.9,0.8c-0.7,0-1.3-0.4-1.5-0.8
			c-0.2-0.3-0.2-0.7-0.2-1.1c0-0.6,0.1-3.3,0.1-3.9c0-0.1-0.3-0.2-0.7-0.3c-0.1-0.1-0.2-0.1-0.2-0.2c0-0.1,0.1-0.1,0.1-0.2
			c0.6-0.5,1.1-0.9,1.4-1.2c0.2-0.2,0.3-0.4,0.4-0.4c0.1,0,0.2,0.2,0.2,0.2c0,0.1,0,0.3,0,0.8c0,0.1,0.1,0.1,0.1,0.1
			C231.8,574.6,233.5,574.5,233.6,574.5z"/>
		<path class="st4" d="M240.9,575.2c0.3,0.5,0.5,1.1,0.5,1.9c0,1.1,0.1,2.2,0.1,3.2c0,0.4,0.2,0.6,0.7,0.7c0.3,0.1,0.5,0.2,0.5,0.3
			c0,0.2-0.1,0.2-0.5,0.2c-0.6,0-0.8-0.1-1.4-0.1c-0.4,0-0.7,0-1.3,0c-0.3,0-0.3-0.1-0.3-0.2c0-0.1,0.2-0.2,0.4-0.2
			c0.4-0.1,0.5-0.2,0.6-0.9c0-0.3,0-2.2,0-2.5c0-1-0.1-1.5-0.3-1.7c-0.3-0.3-0.7-0.6-1.4-0.6c-0.7,0-1.3,0.3-1.4,0.4
			c0,0-0.3,0.3-0.3,0.9c-0.1,0.7-0.1,3,0,3.6c0,0.6,0.3,0.7,0.7,0.8c0.2,0.1,0.4,0.2,0.4,0.3c0,0.2-0.2,0.2-0.4,0.2
			c-0.1,0-1,0-1.4,0c-0.4,0-1,0.1-1.3,0.1c-0.2,0-0.4-0.1-0.4-0.2c0-0.1,0.1-0.2,0.5-0.3c0.5-0.2,0.6-0.3,0.7-1
			c0.1-0.7,0.2-3.1,0.2-4.8c0-0.7,0-3.6-0.1-4.1c-0.1-0.5-0.1-0.5-0.6-0.8c-0.1,0-0.2-0.2-0.2-0.3c0,0,0-0.1,0.1-0.1
			c0.5-0.2,1.3-0.3,1.7-0.6c0.1,0,0.2-0.1,0.3-0.1c0.1,0,0.1,0.1,0.1,0.2c-0.2,1.3-0.2,5.6-0.2,6.1c0,0.1,0.1,0.1,0.1,0.1
			c0.7-0.6,1.5-1,2.2-1C239.9,574.4,240.5,574.7,240.9,575.2z"/>
		<path class="st4" d="M248.6,575.1c0.4,0.4,0.6,0.9,0.6,1.5c0,0.1-0.1,0.3-0.3,0.3c-0.2,0-3.2,0-4,0c-0.1,0-0.1,0.1-0.1,0.1
			c-0.1,0.1-0.1,0.4-0.1,0.6c0,0.7,0.3,1.5,0.7,2c0.4,0.5,1.1,1,1.9,1c0.8,0,1.3-0.2,1.6-0.6c0.1-0.1,0.2-0.2,0.2-0.2
			c0.1,0,0.1,0.1,0.1,0.2c0,0.1-0.1,0.3-0.1,0.4c-0.6,0.9-1.5,1.3-2.5,1.3c-1.9,0-3.1-1.4-3.1-3.5c0-1.4,0.7-2.8,2.1-3.4
			c0.5-0.2,1-0.3,1.3-0.3C247.5,574.4,248.2,574.6,248.6,575.1z M245,576.1c0,0.1,0,0.2,0.1,0.2c0.5,0,1.4,0,2.2,0
			c0.4,0,0.6-0.1,0.6-0.4c0-0.5-0.5-1-1.1-1C246,574.8,245.3,575.3,245,576.1z"/>
		<path class="st4" d="M254.2,569.7c0.8-0.3,1.3-0.4,1.8-0.7c0.1,0,0.2,0.1,0.2,0.2c-0.1,0.4-0.2,2.4-0.2,4.7c0,2.5,0,5.9,0.1,6.3
			c0.1,0.3,0.1,0.6,0.9,0.8c0.3,0.1,0.4,0.2,0.4,0.3c0,0.1-0.2,0.2-0.5,0.2c-0.4,0-1.2-0.1-1.5-0.1c-0.4,0-1.2,0.1-1.5,0.1
			c-0.3,0-0.5-0.1-0.5-0.2c0-0.1,0.2-0.2,0.4-0.2c0.8-0.2,0.8-0.5,0.9-1.4c0.1-0.7,0.1-2.5,0.1-5.3c0-1.3,0-3.2-0.1-3.6
			c0-0.1,0-0.2-0.4-0.5c-0.3-0.2-0.3-0.3-0.3-0.3S254,569.7,254.2,569.7z"/>
		<path class="st4" d="M263.2,575.1c0.4,0.4,0.6,0.9,0.6,1.5c0,0.1-0.1,0.3-0.3,0.3c-0.2,0-3.2,0-4,0c-0.1,0-0.1,0.1-0.1,0.1
			c-0.1,0.1-0.1,0.4-0.1,0.6c0,0.7,0.3,1.5,0.7,2c0.4,0.5,1.1,1,1.9,1c0.8,0,1.3-0.2,1.6-0.6c0.1-0.1,0.2-0.2,0.2-0.2
			c0.1,0,0.1,0.1,0.1,0.2c0,0.1-0.1,0.3-0.1,0.4c-0.6,0.9-1.5,1.3-2.5,1.3c-1.9,0-3.1-1.4-3.1-3.5c0-1.4,0.7-2.8,2.1-3.4
			c0.5-0.2,1-0.3,1.3-0.3C262.1,574.4,262.7,574.6,263.2,575.1z M259.5,576.1c0,0.1,0,0.2,0.1,0.2c0.5,0,1.4,0,2.2,0
			c0.4,0,0.6-0.1,0.6-0.4c0-0.5-0.5-1-1.1-1C260.5,574.8,259.8,575.3,259.5,576.1z"/>
		<path class="st4" d="M265.4,574.9c0.3-0.1,0.9-0.3,1.2-0.5c0.2-0.1,0.3-0.2,0.4-0.2c0.1,0,0.2,0.2,0.2,0.3c0,0.3-0.1,0.7-0.1,0.9
			c0,0.1,0.1,0.1,0.1,0.1c0.7-0.5,1.6-1,2.3-1c0.9,0,1.3,0.4,1.6,0.7c0.4,0.5,0.6,1.3,0.6,2.1c0,0.3,0,2.9,0.1,3.2
			c0,0.3,0.2,0.5,0.6,0.6c0.3,0.1,0.4,0.2,0.4,0.3c0,0.1-0.2,0.2-0.5,0.2c-0.4,0-0.8,0-1.3,0c-0.4,0-1,0-1.2,0
			c-0.2,0-0.4-0.1-0.4-0.2c0-0.1,0.2-0.2,0.4-0.3c0.4-0.2,0.5-0.3,0.5-0.9c0-0.6,0.1-2.7,0.1-3.2c0-0.6-0.3-1.1-0.5-1.3
			c-0.2-0.1-0.7-0.3-1.1-0.3c-0.8,0-1.2,0.3-1.5,0.6c-0.1,0.1-0.2,0.3-0.2,0.4c0,0.2,0,4,0,4.2c0,0.2,0.1,0.4,0.6,0.5
			c0.2,0.1,0.3,0.2,0.3,0.3c0,0.1-0.2,0.2-0.4,0.2c-0.2,0-0.7,0-1.1,0c-0.6,0-1.1,0.1-1.4,0.1c-0.3,0-0.5-0.1-0.5-0.2
			c0-0.1,0.2-0.2,0.4-0.3c0.6-0.2,0.7-0.3,0.7-1c0.1-0.5,0.1-2,0.1-3.8c0-0.2,0-0.4-0.4-0.7c-0.2-0.2-0.3-0.2-0.3-0.3
			C265,575.1,265.2,574.9,265.4,574.9z"/>
		<path class="st4" d="M278.2,574.5c0.2,0,0.4,0.1,0.5,0.1c0.4,0,1.7,0.1,2,0.1c0.1,0,0.2,0.1,0.2,0.2c0,0.2-0.2,0.6-0.3,0.6
			c-0.1,0-0.7,0-1.2,0c-0.1,0-0.1,0.1-0.1,0.1c0.1,0.3,0.1,0.6,0.1,0.9c0,1-0.3,1.7-1,2.2c-0.8,0.6-1.5,0.7-1.9,0.7
			c-0.1,0-0.5,0-0.6,0c-0.1,0-0.2,0-0.3,0c-0.2,0.1-0.6,0.5-0.6,0.6c0,0.5,0.5,0.8,0.7,0.8c0.8,0,2.6,0.1,3.2,0.1
			c0.1,0,0.5,0.2,0.8,0.4c0.5,0.4,0.7,1.1,0.7,1.5c0,1.3-0.9,2.2-1.6,2.7c-1,0.6-1.9,0.7-2.5,0.7s-1.4-0.1-2.2-0.6
			c-0.5-0.4-0.8-1-0.8-1.5c0-0.8,0.3-1,0.5-1.1c0.4-0.4,1-0.7,1.2-0.9c0,0,0-0.1-0.1-0.1c-0.1-0.1-0.5-0.2-0.7-0.3
			c-0.3-0.2-0.6-0.7-0.6-1.3c0,0,0.1-0.1,0.1-0.2c0.3-0.2,1-0.6,1.3-0.9c0,0,0-0.1-0.1-0.2c-0.5-0.3-1.3-0.9-1.3-2.2
			c0-0.9,0.4-1.5,1.1-2c0.5-0.4,1.1-0.6,1.8-0.6C277.3,574.3,277.7,574.4,278.2,574.5z M278.4,585.2c0.7-0.5,1-1.1,1-1.6
			c0-0.2,0-0.6-0.2-0.9c-0.2-0.2-0.5-0.5-0.9-0.5c-0.5-0.1-1-0.1-1.8-0.1c-0.6,0-0.8,0.1-0.9,0.2c-0.6,0.4-0.8,1-0.8,1.4
			c0,0.6,0.2,1,0.6,1.3c0.5,0.4,1.1,0.5,1.7,0.5C277.8,585.5,278.3,585.3,278.4,585.2z M275.6,575.2c-0.3,0.3-0.5,0.7-0.5,1.5
			c0,0.9,0.6,2.2,1.7,2.2c0.1,0,0.3-0.1,0.6-0.2c0.4-0.3,0.7-1.1,0.7-1.8c0-0.3-0.1-0.9-0.4-1.3c-0.3-0.5-0.7-0.8-1.3-0.8
			C276.2,574.7,275.8,574.9,275.6,575.2z"/>
		<path class="st4" d="M285.9,574.5c0,0,0.2,0.1,0.2,0.1c0-0.1,0.1,0.4,0.1,0.7c0,0.2-0.3,0.2-0.5,0.2c-0.1,0-1.7,0-1.9,0
			c-0.1,0-0.2,0.1-0.2,0.1c0,0.3,0,2.9,0,3.7c0,0.4,0.1,0.7,0.3,0.9c0.3,0.3,0.7,0.3,1.1,0.3c0.2,0,0.6-0.1,0.9-0.3
			c0.2-0.1,0.2-0.1,0.3-0.1c0,0,0.1,0,0.1,0.2c0,0.1-0.1,0.3-0.2,0.4c-0.5,0.5-1.1,0.8-1.9,0.8c-0.7,0-1.3-0.4-1.5-0.8
			c-0.2-0.3-0.2-0.7-0.2-1.1c0-0.6,0.1-3.3,0.1-3.9c0-0.1-0.3-0.2-0.7-0.3c-0.1-0.1-0.2-0.1-0.2-0.2c0-0.1,0.1-0.1,0.1-0.2
			c0.6-0.5,1.1-0.9,1.4-1.2c0.2-0.2,0.3-0.4,0.4-0.4c0.1,0,0.2,0.2,0.2,0.2c0,0.1,0,0.3,0,0.8c0,0.1,0.1,0.1,0.1,0.1
			C284.1,574.6,285.8,574.5,285.9,574.5z"/>
		<path class="st4" d="M293.2,575.2c0.3,0.5,0.5,1.1,0.5,1.9c0,1.1,0.1,2.2,0.1,3.2c0,0.4,0.2,0.6,0.7,0.7c0.3,0.1,0.5,0.2,0.5,0.3
			c0,0.2-0.1,0.2-0.5,0.2c-0.6,0-0.8-0.1-1.4-0.1c-0.4,0-0.7,0-1.3,0c-0.3,0-0.3-0.1-0.3-0.2c0-0.1,0.2-0.2,0.4-0.2
			c0.4-0.1,0.5-0.2,0.6-0.9c0-0.3,0-2.2,0-2.5c0-1-0.1-1.5-0.3-1.7c-0.3-0.3-0.7-0.6-1.4-0.6c-0.7,0-1.3,0.3-1.4,0.4
			c0,0-0.3,0.3-0.3,0.9c-0.1,0.7-0.1,3,0,3.6c0,0.6,0.3,0.7,0.7,0.8c0.2,0.1,0.4,0.2,0.4,0.3c0,0.2-0.2,0.2-0.4,0.2
			c-0.1,0-1,0-1.4,0c-0.4,0-1,0.1-1.3,0.1c-0.2,0-0.4-0.1-0.4-0.2c0-0.1,0.1-0.2,0.5-0.3c0.5-0.2,0.6-0.3,0.7-1
			c0.1-0.7,0.2-3.1,0.2-4.8c0-0.7,0-3.6-0.1-4.1c-0.1-0.5-0.1-0.5-0.6-0.8c-0.1,0-0.2-0.2-0.2-0.3c0,0,0-0.1,0.1-0.1
			c0.5-0.2,1.3-0.3,1.7-0.6c0.1,0,0.2-0.1,0.3-0.1c0.1,0,0.1,0.1,0.1,0.2c-0.2,1.3-0.2,5.6-0.2,6.1c0,0.1,0.1,0.1,0.1,0.1
			c0.7-0.6,1.5-1,2.2-1C292.2,574.4,292.8,574.7,293.2,575.2z"/>
		<path class="st4" d="M306.5,577.9c0,1.4-0.9,2.6-1.5,3c-0.7,0.5-1.4,0.7-2.2,0.7c-0.8,0-1.7-0.4-2.3-0.9c-0.7-0.6-1.3-1.8-1.3-2.7
			c0-1.3,0.6-2.2,1.2-2.7c0.5-0.5,1.4-1,2.6-1C304.8,574.4,306.5,575.7,306.5,577.9z M301.6,575.4c-0.5,0.4-0.9,1.3-0.9,2.2
			c0,0.6,0.1,1.1,0.2,1.5c0.4,1.3,1.4,1.9,2.3,1.9c0.2,0,0.6-0.1,1.1-0.6c0.4-0.5,0.8-1.5,0.8-2.3c0-0.9-0.2-1.9-0.9-2.7
			c-0.4-0.4-1-0.7-1.5-0.7C302.3,574.9,301.9,575.1,301.6,575.4z"/>
		<path class="st4" d="M312.2,574.6c0.1,0,0.2,0.4,0.2,0.7c0,0.1-0.2,0.2-0.3,0.2c-0.1,0-1.8-0.1-2-0.1c0,0-0.1,0.1-0.1,0.1
			c0,0.3,0,4.2,0.1,4.5c0.1,0.6,0.2,0.8,1.2,0.9c0.3,0.1,0.4,0.2,0.4,0.3c0,0.2-0.2,0.2-0.5,0.2c-0.2,0-1,0-1.4,0
			c-0.6,0-1.6,0.1-1.7,0.1c-0.2,0-0.4-0.1-0.4-0.2c0-0.1,0.2-0.2,0.4-0.3c0.7-0.2,0.8-0.4,0.8-1.2c0-0.7,0-2.8,0-3.7
			c0-0.6-0.1-0.6-0.2-0.6c-0.2,0-0.5,0-0.7,0c-0.1,0-0.2-0.2-0.2-0.3c0-0.1,0.5-0.3,0.9-0.6c0.1-0.1,0.2-0.2,0.2-0.3
			c0-1,0.1-1.8,0.4-2.6c0.4-0.9,0.8-1.5,1.6-2.1c0.7-0.5,1.3-0.7,2-0.7c0.4,0,0.8,0.1,1.1,0.3c0.2,0.1,0.3,0.4,0.3,0.6
			c0,0.2-0.2,0.6-0.5,0.7c-0.1,0-0.2,0.1-0.3,0.1c-0.1,0-0.2-0.1-0.5-0.3c-0.3-0.3-0.8-0.5-1.2-0.5c-0.4,0-0.8,0.2-1.1,0.7
			c-0.4,0.7-0.6,1.7-0.6,4c0,0.1,0.1,0.2,0.1,0.2C311.2,574.6,312.1,574.6,312.2,574.6z"/>
		<path class="st4" d="M320.7,574.5c0,0,0.2,0.1,0.2,0.1c0-0.1,0.1,0.4,0.1,0.7c0,0.2-0.3,0.2-0.5,0.2c-0.1,0-1.7,0-1.9,0
			c-0.1,0-0.2,0.1-0.2,0.1c0,0.3,0,2.9,0,3.7c0,0.4,0.1,0.7,0.3,0.9c0.3,0.3,0.7,0.3,1.1,0.3c0.2,0,0.6-0.1,0.9-0.3
			c0.2-0.1,0.2-0.1,0.3-0.1c0,0,0.1,0,0.1,0.2c0,0.1-0.1,0.3-0.2,0.4c-0.5,0.5-1.1,0.8-1.9,0.8c-0.7,0-1.3-0.4-1.5-0.8
			c-0.2-0.3-0.2-0.7-0.2-1.1c0-0.6,0.1-3.3,0.1-3.9c0-0.1-0.3-0.2-0.7-0.3c-0.1-0.1-0.2-0.1-0.2-0.2c0-0.1,0.1-0.1,0.1-0.2
			c0.6-0.5,1.1-0.9,1.4-1.2c0.2-0.2,0.3-0.4,0.4-0.4c0.1,0,0.2,0.2,0.2,0.2c0,0.1,0,0.3,0,0.8c0,0.1,0.1,0.1,0.1,0.1
			C318.9,574.6,320.6,574.5,320.7,574.5z"/>
		<path class="st4" d="M327.9,575.2c0.3,0.5,0.5,1.1,0.5,1.9c0,1.1,0.1,2.2,0.1,3.2c0,0.4,0.2,0.6,0.7,0.7c0.3,0.1,0.5,0.2,0.5,0.3
			c0,0.2-0.1,0.2-0.5,0.2c-0.6,0-0.8-0.1-1.4-0.1c-0.4,0-0.7,0-1.3,0c-0.3,0-0.3-0.1-0.3-0.2c0-0.1,0.2-0.2,0.4-0.2
			c0.4-0.1,0.5-0.2,0.6-0.9c0-0.3,0-2.2,0-2.5c0-1-0.1-1.5-0.3-1.7c-0.3-0.3-0.7-0.6-1.4-0.6c-0.7,0-1.3,0.3-1.4,0.4
			c0,0-0.3,0.3-0.3,0.9c-0.1,0.7-0.1,3,0,3.6c0,0.6,0.3,0.7,0.7,0.8c0.2,0.1,0.4,0.2,0.4,0.3c0,0.2-0.2,0.2-0.4,0.2
			c-0.1,0-1,0-1.4,0c-0.4,0-1,0.1-1.3,0.1c-0.2,0-0.4-0.1-0.4-0.2c0-0.1,0.1-0.2,0.5-0.3c0.5-0.2,0.6-0.3,0.7-1
			c0.1-0.7,0.2-3.1,0.2-4.8c0-0.7,0-3.6-0.1-4.1c-0.1-0.5-0.1-0.5-0.6-0.8c-0.1,0-0.2-0.2-0.2-0.3c0,0,0-0.1,0.1-0.1
			c0.5-0.2,1.3-0.3,1.7-0.6c0.1,0,0.2-0.1,0.3-0.1c0.1,0,0.1,0.1,0.1,0.2c-0.2,1.3-0.2,5.6-0.2,6.1c0,0.1,0.1,0.1,0.1,0.1
			c0.7-0.6,1.5-1,2.2-1C327,574.4,327.6,574.7,327.9,575.2z"/>
		<path class="st4" d="M335.7,575.1c0.4,0.4,0.6,0.9,0.6,1.5c0,0.1-0.1,0.3-0.3,0.3c-0.2,0-3.2,0-4,0c-0.1,0-0.1,0.1-0.1,0.1
			c-0.1,0.1-0.1,0.4-0.1,0.6c0,0.7,0.3,1.5,0.7,2c0.4,0.5,1.1,1,1.9,1c0.8,0,1.3-0.2,1.6-0.6c0.1-0.1,0.2-0.2,0.2-0.2
			c0.1,0,0.1,0.1,0.1,0.2c0,0.1-0.1,0.3-0.1,0.4c-0.6,0.9-1.5,1.3-2.5,1.3c-1.9,0-3.1-1.4-3.1-3.5c0-1.4,0.7-2.8,2.1-3.4
			c0.5-0.2,1-0.3,1.3-0.3C334.6,574.4,335.3,574.6,335.7,575.1z M332,576.1c0,0.1,0,0.2,0.1,0.2c0.5,0,1.4,0,2.2,0
			c0.4,0,0.6-0.1,0.6-0.4c0-0.5-0.5-1-1.1-1C333,574.8,332.4,575.3,332,576.1z"/>
		<path class="st4" d="M349.8,570.2c0.5,0.1,1.1,0.3,1.3,0.3c0.1,0,0.3,0.1,0.3,0.5c0,0.4,0.1,1.1,0.1,1.5c0,0.4-0.1,0.6-0.3,0.6
			c-0.1,0-0.2-0.2-0.3-0.5c-0.2-0.6-0.5-1.1-0.7-1.3c-1-0.7-1.8-0.9-2.8-0.9c-2.8,0-4.6,2.3-4.6,4.9c0,1.2,0.2,2.1,0.6,2.9
			c1,2,3,2.8,4.4,2.8c0.3,0,1.2-0.1,1.9-0.5c0.8-0.4,1.2-1,1.6-1.7c0.2-0.4,0.3-0.5,0.4-0.5c0.2,0,0.2,0.4,0.2,0.6
			c-0.1,0.4-0.5,1.4-0.7,1.8c-0.1,0.2-0.4,0.4-0.5,0.5c-0.3,0.1-1.7,0.5-3.2,0.5c-2.5,0-4.2-1.2-4.9-2c-0.7-0.8-1.5-2-1.5-4
			c0-2,1.2-3.6,1.9-4.2c1.5-1.2,3.1-1.6,4.7-1.6C348.4,569.9,349.2,570,349.8,570.2z"/>
		<path class="st4" d="M357.6,575.2c0.3,0.4,0.3,0.7,0.3,1.4c0,0.7-0.1,2.9-0.1,3.1c0,0.8,0.6,0.9,0.7,0.9c0.1,0,0.5-0.1,0.7-0.3
			c0.1,0,0.1,0,0.1,0.1c0.1,0.1,0.1,0.2,0.1,0.2c0,0.3-0.8,1.1-1.6,1.1c-0.4,0-0.9-0.2-1.1-0.9c0,0-0.1-0.1-0.1-0.1
			c-0.6,0.5-1.4,0.7-1.6,0.8c-0.2,0.1-0.6,0.1-0.7,0.1c-0.6,0-1.2-0.7-1.2-1.6c0-0.3,0.1-0.6,0.3-0.9c0.2-0.2,0.4-0.3,0.7-0.4
			c0.3-0.1,1.7-0.5,2-0.6c0.4-0.1,0.5-0.2,0.5-0.3c0-0.2,0-1.2,0-1.4c0-0.4-0.5-1.2-1.4-1.2c-0.4,0-0.6,0.1-0.7,0.2
			c-0.1,0.1-0.2,0.4-0.1,0.7c0,0.1-0.1,0.2-0.1,0.2c-0.2,0.1-1,0.6-1.1,0.6c-0.1,0-0.2-0.1-0.2-0.2c0-0.5,0.5-1,1.3-1.5
			c0.5-0.4,1.3-0.7,1.6-0.7C356.9,574.4,357.4,574.8,357.6,575.2z M356.5,580.4c0.1-0.1,0.2-0.4,0.2-0.4c0-0.4,0-1,0-1.4
			c0-0.1-0.1-0.1-0.1-0.1c-0.5,0-1.3,0.3-1.8,0.5c-0.2,0.1-0.3,0.2-0.3,0.7c0,0.8,0.7,1,1.1,1C355.8,580.7,356.1,580.6,356.5,580.4z
			"/>
		<path class="st4" d="M364.2,574.5c0,0,0.2,0.1,0.2,0.1c0-0.1,0.1,0.4,0.1,0.7c0,0.2-0.3,0.2-0.5,0.2c-0.1,0-1.7,0-1.9,0
			c-0.1,0-0.2,0.1-0.2,0.1c0,0.3,0,2.9,0,3.7c0,0.4,0.1,0.7,0.3,0.9c0.3,0.3,0.7,0.3,1.1,0.3c0.2,0,0.6-0.1,0.9-0.3
			c0.2-0.1,0.2-0.1,0.3-0.1c0,0,0.1,0,0.1,0.2c0,0.1-0.1,0.3-0.2,0.4c-0.5,0.5-1.1,0.8-1.9,0.8c-0.7,0-1.3-0.4-1.5-0.8
			c-0.2-0.3-0.2-0.7-0.2-1.1c0-0.6,0.1-3.3,0.1-3.9c0-0.1-0.3-0.2-0.7-0.3c-0.1-0.1-0.2-0.1-0.2-0.2c0-0.1,0.1-0.1,0.1-0.2
			c0.6-0.5,1.1-0.9,1.4-1.2c0.2-0.2,0.3-0.4,0.4-0.4c0.1,0,0.2,0.2,0.2,0.2c0,0.1,0,0.3,0,0.8c0,0.1,0.1,0.1,0.1,0.1
			C362.4,574.6,364.1,574.5,364.2,574.5z"/>
		<path class="st4" d="M369.8,575.2c0.3,0.4,0.3,0.7,0.3,1.4c0,0.7-0.1,2.9-0.1,3.1c0,0.8,0.6,0.9,0.7,0.9c0.1,0,0.5-0.1,0.7-0.3
			c0.1,0,0.1,0,0.1,0.1c0.1,0.1,0.1,0.2,0.1,0.2c0,0.3-0.8,1.1-1.6,1.1c-0.4,0-0.9-0.2-1.1-0.9c0,0-0.1-0.1-0.1-0.1
			c-0.6,0.5-1.4,0.7-1.6,0.8c-0.2,0.1-0.6,0.1-0.7,0.1c-0.6,0-1.2-0.7-1.2-1.6c0-0.3,0.1-0.6,0.3-0.9c0.2-0.2,0.4-0.3,0.7-0.4
			c0.3-0.1,1.7-0.5,2-0.6c0.4-0.1,0.5-0.2,0.5-0.3c0-0.2,0-1.2,0-1.4c0-0.4-0.5-1.2-1.4-1.2c-0.4,0-0.6,0.1-0.7,0.2
			c-0.1,0.1-0.2,0.4-0.1,0.7c0,0.1-0.1,0.2-0.1,0.2c-0.2,0.1-1,0.6-1.1,0.6c-0.1,0-0.2-0.1-0.2-0.2c0-0.5,0.5-1,1.3-1.5
			c0.5-0.4,1.3-0.7,1.6-0.7C369.1,574.4,369.5,574.8,369.8,575.2z M368.6,580.4c0.1-0.1,0.2-0.4,0.2-0.4c0-0.4,0-1,0-1.4
			c0-0.1-0.1-0.1-0.1-0.1c-0.5,0-1.3,0.3-1.8,0.5c-0.2,0.1-0.3,0.2-0.3,0.7c0,0.8,0.7,1,1.1,1C368,580.7,368.3,580.6,368.6,580.4z"
			/>
		<path class="st4" d="M374.1,574.6c0.3,0,0.5,0.1,0.5,0.2c0,0.1-0.1,0.2-0.4,0.3c-0.4,0.1-0.5,0.3-0.3,0.7c0.2,0.7,1.4,3.7,1.5,3.9
			c0.1,0.1,0.1,0.1,0.2,0c0.2-0.4,0.9-1.9,1.2-2.6c0.1-0.2,0.1-0.3,0.1-0.3c0-0.1-0.1-0.6-0.3-0.8c-0.2-0.3-0.3-0.6-0.7-0.7
			c-0.2-0.1-0.4-0.1-0.4-0.3c0-0.1,0.1-0.2,0.4-0.2c0.2,0,0.8,0.1,1.2,0.1c0.3,0,0.8-0.1,1.2-0.1c0.3,0,0.4,0.1,0.4,0.2
			c0,0.1-0.1,0.2-0.4,0.3c-0.5,0.1-0.5,0.3-0.5,0.4c0,0.1,0.1,0.3,0.2,0.6c0.1,0.3,1,2.6,1.3,3.5c0,0.1,0.1,0.1,0.2,0
			c0.3-0.6,0.8-2,1.2-2.9c0.2-0.5,0.3-0.9,0.3-1c0-0.2,0-0.4-0.7-0.5c-0.2-0.1-0.4-0.1-0.4-0.3c0-0.1,0.2-0.2,0.4-0.2
			c0.2,0,0.8,0.1,1.1,0.1c0.6,0,1-0.1,1.3-0.1c0.2,0,0.4,0.1,0.4,0.2c0,0.2-0.2,0.2-0.4,0.3c-0.6,0.2-0.6,0.4-0.9,0.8
			c-0.6,1-1.1,2.5-1.7,3.7c-0.3,0.7-0.6,1.3-0.7,1.9c-0.1,0.2-0.1,0.2-0.2,0.2c-0.1,0-0.2-0.1-0.3-0.3c-0.1-0.2-0.3-0.9-0.5-1.3
			c-0.2-0.6-0.8-1.9-1.1-2.7c0,0-0.1,0-0.1,0c-0.4,0.9-1.1,2.2-1.6,3.5c-0.1,0.2-0.3,0.7-0.4,0.7s-0.2-0.1-0.3-0.3
			c0-0.1-0.3-0.7-0.5-1.5c-0.1-0.3-1.1-2.9-1.5-3.7c-0.3-0.6-0.5-1-1-1.2c-0.2-0.1-0.4-0.2-0.4-0.3c0-0.2,0.2-0.2,0.5-0.2
			c0.3,0,0.8,0.1,1.2,0.1C373.3,574.6,373.8,574.6,374.1,574.6z"/>
		<path class="st4" d="M389,580.8c-0.7,0.6-1.8,0.8-2.4,0.8s-1.8-0.2-2.2-0.3c-0.1,0-0.2,0-0.4,0.1c-0.1,0-0.2,0.1-0.2,0.1
			c-0.1,0-0.1-0.1-0.1-0.2c0.1-1.4,0.1-4.4,0.1-5.8c0-1.7-0.1-4.2-0.1-4.5c0-0.1-0.1-0.3-0.4-0.6c-0.3-0.2-0.3-0.2-0.3-0.3
			c0,0,0.2-0.2,0.2-0.2c0.5-0.2,1.1-0.3,1.4-0.5c0.2-0.1,0.4-0.2,0.4-0.2c0.1,0,0.2,0.2,0.2,0.2c-0.1,1.1-0.2,2.8-0.2,4.2
			c0,0.5,0,1.3,0,1.5c0,0,0.1,0.1,0.1,0.1c0.6-0.4,1.4-0.6,2-0.6c0.8,0,1.6,0.3,2.2,0.8c0.8,0.7,1.1,1.6,1.1,2.6
			C390.6,579.2,389.8,580.2,389,580.8z M388.3,575.9c-0.4-0.4-1.1-0.7-1.9-0.7c-0.6,0-0.9,0.2-1,0.3c-0.1,0-0.1,0.1-0.1,0.3
			c0,0.2,0,0.6,0,1c0,0.9,0.1,1.8,0.1,2.8c0,0.4,0.1,0.6,0.3,0.9c0.5,0.5,1.3,0.7,1.6,0.7c0.2,0,0.7-0.2,1.1-0.6
			c0.5-0.5,0.8-1.5,0.8-2.3C389.1,577.5,388.9,576.5,388.3,575.9z"/>
		<path class="st4" d="M396.4,575.2c0.3,0.4,0.3,0.7,0.3,1.4c0,0.7-0.1,2.9-0.1,3.1c0,0.8,0.6,0.9,0.7,0.9c0.1,0,0.5-0.1,0.7-0.3
			c0.1,0,0.1,0,0.1,0.1c0.1,0.1,0.1,0.2,0.1,0.2c0,0.3-0.8,1.1-1.6,1.1c-0.4,0-0.9-0.2-1.1-0.9c0,0-0.1-0.1-0.1-0.1
			c-0.6,0.5-1.4,0.7-1.6,0.8c-0.2,0.1-0.6,0.1-0.7,0.1c-0.6,0-1.2-0.7-1.2-1.6c0-0.3,0.1-0.6,0.3-0.9c0.2-0.2,0.4-0.3,0.7-0.4
			c0.3-0.1,1.7-0.5,2-0.6c0.4-0.1,0.5-0.2,0.5-0.3c0-0.2,0-1.2,0-1.4c0-0.4-0.5-1.2-1.4-1.2c-0.4,0-0.6,0.1-0.7,0.2
			c-0.1,0.1-0.2,0.4-0.1,0.7c0,0.1-0.1,0.2-0.1,0.2c-0.2,0.1-1,0.6-1.1,0.6c-0.1,0-0.2-0.1-0.2-0.2c0-0.5,0.5-1,1.3-1.5
			c0.5-0.4,1.3-0.7,1.6-0.7C395.7,574.4,396.1,574.8,396.4,575.2z M395.2,580.4c0.1-0.1,0.2-0.4,0.2-0.4c0-0.4,0-1,0-1.4
			c0-0.1-0.1-0.1-0.1-0.1c-0.5,0-1.3,0.3-1.8,0.5c-0.2,0.1-0.3,0.2-0.3,0.7c0,0.8,0.7,1,1.1,1C394.5,580.7,394.9,580.6,395.2,580.4z
			"/>
		<path class="st4" d="M409,575.5c-0.1,0.1-0.4,0.2-0.5,0.3c-0.1,0-0.1,0.2-0.1,0.3c0.2,0.4,1.6,2.8,2.7,4c0.5,0.6,0.9,0.9,1.7,1
			c0.1,0,0.3,0.2,0.3,0.2c0,0.1-0.1,0.2-0.2,0.2c-0.2,0.1-0.6,0.1-1,0.1c-0.8,0-1.8-0.5-2.3-1.1c-0.6-0.8-1.5-2.2-2.2-3.3
			c-0.2-0.4-0.6-0.8-0.7-0.9c-0.1-0.1-0.7-0.2-1.2-0.2c-0.1,0-0.2,0.2-0.2,0.2c0,0.3,0,2.5,0.1,3.5c0,0.7,0.2,1,1,1.2
			c0.3,0.1,0.4,0.2,0.4,0.3c0,0.2-0.3,0.2-0.4,0.2c-0.7,0-1.1-0.1-2.2-0.1c-0.3,0-1.2,0.1-1.4,0.1c-0.2,0-0.5-0.1-0.5-0.2
			c0-0.1,0.2-0.2,0.4-0.3c0.8-0.2,1.1-0.3,1.1-1c0-0.5,0.1-2.4,0.1-3.4c0-2.7,0-4.3-0.1-4.9c-0.1-0.6-0.2-0.7-1-0.9
			c-0.3-0.1-0.4-0.2-0.4-0.3c0-0.1,0.1-0.2,0.5-0.2c0.5,0,0.6,0,1,0c0.6,0,1.9-0.1,2.8-0.1c1.2,0,2.1,0.2,2.8,0.7
			c0.6,0.5,1,1.3,1,2.2C410.4,574,409.8,574.9,409,575.5z M408,571.3c-0.4-0.4-1.2-0.7-1.7-0.7c-0.1,0-0.6,0-0.8,0.1
			c-0.1,0-0.2,0.3-0.2,0.4c-0.1,0.6-0.1,4-0.1,4.3c0,0.1,0.2,0.3,0.3,0.3c1,0,1.9-0.3,2.2-0.5c0.5-0.3,1.1-1.1,1.1-2.2
			C408.8,572.6,408.5,571.8,408,571.3z"/>
		<path class="st4" d="M413.5,581.5c-0.3,0-0.5-0.1-0.5-0.2c0-0.1,0.1-0.2,0.4-0.3c0.4-0.1,0.7-0.3,0.7-0.5c0.1-0.2,0.1-1.3,0.1-1.8
			c0-0.5,0-2.5,0-2.7c0-0.1-0.2-0.3-0.7-0.6c-0.1-0.1-0.1-0.1-0.1-0.2c0-0.1,0.2-0.3,0.3-0.3c0.6-0.1,1.5-0.5,1.7-0.6
			c0.1,0,0.2,0.2,0.2,0.2c0,0.2-0.1,2.5-0.1,3.4c0,1,0,1.7,0,2.3c0,0.6,0.4,0.6,0.8,0.7c0.3,0.1,0.4,0.2,0.4,0.3
			c0,0.1-0.2,0.2-0.4,0.2c-0.1,0-1-0.1-1.4-0.1C414.4,581.4,413.8,581.5,413.5,581.5z M415.7,571.7c0,0.5-0.5,0.9-0.8,0.9
			c-0.1,0-0.4-0.1-0.6-0.2c-0.1-0.2-0.3-0.3-0.3-0.6c0-0.2,0.1-0.4,0.2-0.6c0.2-0.2,0.4-0.2,0.7-0.2
			C415.4,570.8,415.7,571.4,415.7,571.7z"/>
		<path class="st4" d="M417.2,574.5c0.3,0,1.3,0.1,1.4,0.1c0.5,0,0.9,0,1.1,0c0.3,0,0.4,0.1,0.4,0.2s-0.2,0.2-0.4,0.3
			c-0.5,0.1-0.5,0.4-0.4,0.6c0.5,1.5,1.4,3.6,1.5,3.7c0,0.1,0.1,0,0.1-0.1c0.2-0.5,1.2-3,1.3-3.5c0.1-0.5,0-0.6-0.5-0.7
			c-0.1-0.1-0.3-0.1-0.3-0.2c0-0.1,0.1-0.2,0.3-0.2c0.3,0,0.5,0.1,0.9,0.1c0.3,0,0.9-0.1,1.2-0.1c0.2,0,0.3,0.1,0.3,0.2
			c0,0.1-0.1,0.2-0.4,0.3c-0.4,0.2-0.6,0.4-0.9,0.7c-0.2,0.4-0.9,2.1-1.4,3.3c-0.5,1.2-0.5,1.4-0.8,2.3c-0.1,0.3-0.3,0.5-0.4,0.5
			c-0.1,0-0.2-0.1-0.2-0.3c-0.2-0.6-0.2-0.8-0.6-1.8c-0.4-1.1-1.3-3.3-1.8-4.1c-0.1-0.2-0.3-0.5-0.7-0.6c-0.3-0.1-0.3-0.2-0.3-0.3
			C416.8,574.6,417.1,574.5,417.2,574.5z"/>
		<path class="st4" d="M429.9,575.1c0.4,0.4,0.6,0.9,0.6,1.5c0,0.1-0.1,0.3-0.3,0.3c-0.2,0-3.2,0-4,0c-0.1,0-0.1,0.1-0.1,0.1
			c-0.1,0.1-0.1,0.4-0.1,0.6c0,0.7,0.3,1.5,0.7,2c0.4,0.5,1.1,1,1.9,1c0.8,0,1.3-0.2,1.6-0.6c0.1-0.1,0.2-0.2,0.2-0.2
			c0.1,0,0.1,0.1,0.1,0.2c0,0.1-0.1,0.3-0.1,0.4c-0.6,0.9-1.5,1.3-2.5,1.3c-1.9,0-3.1-1.4-3.1-3.5c0-1.4,0.7-2.8,2.1-3.4
			c0.5-0.2,1-0.3,1.3-0.3C428.8,574.4,429.4,574.6,429.9,575.1z M426.2,576.1c0,0.1,0,0.2,0.1,0.2c0.5,0,1.4,0,2.2,0
			c0.4,0,0.6-0.1,0.6-0.4c0-0.5-0.5-1-1.1-1C427.2,574.8,426.5,575.3,426.2,576.1z"/>
		<path class="st4" d="M431.9,575c0.6-0.2,1.1-0.5,1.3-0.6c0.2-0.1,0.3-0.2,0.3-0.2c0.1,0,0.2,0.2,0.2,0.2c0,0.3,0,0.6,0,1
			c0,0.1,0.1,0.1,0.1,0.1c0.7-0.6,1.4-1.1,2-1.1c0.7,0,0.9,0.4,0.9,0.6c0,0-0.1,0.2-0.1,0.2c-0.2,0.3-0.6,0.7-0.7,0.8
			c0,0-0.2,0-0.2-0.1c-0.2-0.2-0.6-0.4-1-0.4c-0.3,0-0.6,0.1-0.8,0.2c-0.1,0.1-0.2,0.3-0.2,0.4c0,0.3,0.1,3.5,0.1,3.8
			c0,0.5,0.1,0.8,0.5,0.9c0.2,0.1,0.5,0.1,0.8,0.2c0.3,0.1,0.3,0.2,0.3,0.3c0,0.1-0.2,0.2-0.4,0.2c-0.4,0-1-0.1-2.1-0.1
			c-0.5,0-0.7,0.1-1.1,0.1c-0.2,0-0.4-0.1-0.4-0.2c0-0.1,0.2-0.2,0.3-0.2c0.7-0.2,0.7-0.4,0.7-1.4c0-0.4,0-2.2,0-3.3
			c0-0.2,0-0.4-0.2-0.5c-0.4-0.3-0.6-0.4-0.6-0.5C431.7,575.2,431.7,575.1,431.9,575z"/>
		<path class="st4" d="M438.6,580.6c0,0.6-0.4,1-1,1c-0.4,0-1-0.3-1-1c0-0.7,0.6-1,1-1C438.4,579.6,438.6,580.3,438.6,580.6z"/>
	</g>
	<g class="st3">
		<path class="st4" d="M123.4,194.7h1.9V207h6.5v1.8h-8.4V194.7z"/>
		<path class="st4" d="M136.8,194.7h1.9v14.2h-1.9V194.7z"/>
		<path class="st4" d="M143.4,194.7h2.2l4.2,11.5h0l4.3-11.5h2.1l-5.6,14.2h-1.8L143.4,194.7z"/>
		<path class="st4" d="M160.9,194.7h9.1v1.8h-7.2v4.2h6.7v1.8h-6.7v4.5h7.6v1.8h-9.5V194.7z"/>
		<path class="st4" d="M176.2,194.7h5c0.9,0,1.7,0.1,2.2,0.4c0.6,0.2,1.1,0.6,1.4,0.9c0.3,0.4,0.6,0.8,0.7,1.3
			c0.1,0.5,0.2,0.9,0.2,1.4c0,0.5-0.1,0.9-0.2,1.3c-0.2,0.4-0.4,0.8-0.7,1.1c-0.3,0.3-0.7,0.6-1.1,0.9c-0.4,0.2-0.9,0.4-1.5,0.4
			l4,6.5h-2.4l-3.6-6.2h-2.1v6.2h-1.9V194.7z M178.1,200.9h2.5c0.4,0,0.7,0,1.1-0.1c0.4-0.1,0.7-0.2,1-0.3c0.3-0.2,0.5-0.4,0.7-0.7
			c0.2-0.3,0.3-0.7,0.3-1.2c0-0.5-0.1-0.9-0.3-1.2c-0.2-0.3-0.4-0.5-0.7-0.7c-0.3-0.2-0.6-0.3-1-0.3c-0.4-0.1-0.7-0.1-1.1-0.1h-2.5
			V200.9z"/>
		<path class="st4" d="M191.4,194.7h5c0.9,0,1.7,0.1,2.2,0.4c0.6,0.2,1.1,0.6,1.4,0.9c0.3,0.4,0.6,0.8,0.7,1.3
			c0.1,0.5,0.2,0.9,0.2,1.4c0,0.4-0.1,0.9-0.2,1.4c-0.1,0.5-0.4,0.9-0.7,1.3c-0.3,0.4-0.8,0.7-1.4,0.9c-0.6,0.2-1.3,0.4-2.2,0.4
			h-3.1v6.2h-1.9V194.7z M193.3,200.9h2.5c0.4,0,0.7,0,1.1-0.1c0.4-0.1,0.7-0.2,1-0.3c0.3-0.2,0.5-0.4,0.7-0.7
			c0.2-0.3,0.3-0.7,0.3-1.2c0-0.5-0.1-0.9-0.3-1.2c-0.2-0.3-0.4-0.5-0.7-0.7c-0.3-0.2-0.6-0.3-1-0.3c-0.4-0.1-0.7-0.1-1.1-0.1h-2.5
			V200.9z"/>
		<path class="st4" d="M212.8,209.2c-1.1,0-2.1-0.2-3-0.6s-1.7-0.9-2.3-1.6c-0.6-0.7-1.2-1.5-1.5-2.4c-0.4-0.9-0.6-1.9-0.6-2.9
			c0-1.1,0.2-2,0.6-2.9c0.4-0.9,0.9-1.7,1.5-2.4c0.6-0.7,1.4-1.2,2.3-1.6c0.9-0.4,1.9-0.6,3-0.6c1.1,0,2.1,0.2,3,0.6
			c0.9,0.4,1.7,0.9,2.3,1.6c0.6,0.7,1.2,1.5,1.5,2.4c0.4,0.9,0.6,1.9,0.6,2.9c0,1.1-0.2,2-0.6,2.9c-0.4,0.9-0.9,1.7-1.5,2.4
			c-0.6,0.7-1.4,1.2-2.3,1.6S213.9,209.2,212.8,209.2z M212.8,207.4c0.8,0,1.5-0.2,2.2-0.5c0.7-0.3,1.2-0.7,1.7-1.2
			c0.5-0.5,0.8-1.1,1.1-1.8c0.3-0.7,0.4-1.4,0.4-2.2s-0.1-1.5-0.4-2.2c-0.3-0.7-0.6-1.3-1.1-1.8c-0.5-0.5-1-0.9-1.7-1.2
			c-0.7-0.3-1.4-0.5-2.2-0.5c-0.8,0-1.5,0.2-2.2,0.5c-0.7,0.3-1.2,0.7-1.7,1.2c-0.5,0.5-0.8,1.1-1.1,1.8c-0.3,0.7-0.4,1.4-0.4,2.2
			s0.1,1.5,0.4,2.2c0.3,0.7,0.6,1.3,1.1,1.8c0.5,0.5,1,0.9,1.7,1.2C211.2,207.3,212,207.4,212.8,207.4z"/>
		<path class="st4" d="M232.4,209.2c-1.1,0-2.1-0.2-3-0.6c-0.9-0.4-1.7-0.9-2.3-1.6c-0.6-0.7-1.2-1.5-1.5-2.4
			c-0.4-0.9-0.6-1.9-0.6-2.9c0-1.1,0.2-2,0.6-2.9c0.4-0.9,0.9-1.7,1.5-2.4c0.6-0.7,1.4-1.2,2.3-1.6c0.9-0.4,1.9-0.6,3-0.6
			c1.1,0,2.1,0.2,3,0.6c0.9,0.4,1.7,0.9,2.3,1.6c0.6,0.7,1.2,1.5,1.5,2.4c0.4,0.9,0.6,1.9,0.6,2.9c0,1.1-0.2,2-0.6,2.9
			c-0.4,0.9-0.9,1.7-1.5,2.4c-0.6,0.7-1.4,1.2-2.3,1.6S233.5,209.2,232.4,209.2z M232.4,207.4c0.8,0,1.5-0.2,2.2-0.5
			c0.7-0.3,1.2-0.7,1.7-1.2c0.5-0.5,0.8-1.1,1.1-1.8c0.3-0.7,0.4-1.4,0.4-2.2s-0.1-1.5-0.4-2.2c-0.3-0.7-0.6-1.3-1.1-1.8
			c-0.5-0.5-1-0.9-1.7-1.2c-0.7-0.3-1.4-0.5-2.2-0.5c-0.8,0-1.5,0.2-2.2,0.5c-0.7,0.3-1.2,0.7-1.7,1.2c-0.5,0.5-0.8,1.1-1.1,1.8
			s-0.4,1.4-0.4,2.2s0.1,1.5,0.4,2.2c0.3,0.7,0.6,1.3,1.1,1.8c0.5,0.5,1,0.9,1.7,1.2C230.9,207.3,231.6,207.4,232.4,207.4z"/>
		<path class="st4" d="M245.6,194.7h1.9V207h6.5v1.8h-8.4V194.7z"/>
	</g>
	<g class="st3">
		<path class="st4" d="M227.4,473.3h1.9v12.4h6.5v1.8h-8.4V473.3z"/>
		<path class="st4" d="M247.3,487.8c-1.1,0-2.1-0.2-3-0.6c-0.9-0.4-1.7-0.9-2.3-1.6c-0.6-0.7-1.2-1.5-1.5-2.4
			c-0.4-0.9-0.6-1.9-0.6-2.9c0-1.1,0.2-2,0.6-2.9c0.4-0.9,0.9-1.7,1.5-2.4c0.6-0.7,1.4-1.2,2.3-1.6c0.9-0.4,1.9-0.6,3-0.6
			c1.1,0,2.1,0.2,3,0.6c0.9,0.4,1.7,0.9,2.3,1.6c0.6,0.7,1.2,1.5,1.5,2.4c0.4,0.9,0.6,1.9,0.6,2.9c0,1.1-0.2,2-0.6,2.9
			c-0.4,0.9-0.9,1.7-1.5,2.4c-0.6,0.7-1.4,1.2-2.3,1.6C249.4,487.6,248.4,487.8,247.3,487.8z M247.3,486c0.8,0,1.5-0.2,2.2-0.5
			s1.2-0.7,1.7-1.2c0.5-0.5,0.8-1.1,1.1-1.8c0.3-0.7,0.4-1.4,0.4-2.2c0-0.8-0.1-1.5-0.4-2.2c-0.3-0.7-0.6-1.3-1.1-1.8
			s-1-0.9-1.7-1.2c-0.7-0.3-1.4-0.5-2.2-0.5c-0.8,0-1.5,0.2-2.2,0.5c-0.7,0.3-1.2,0.7-1.7,1.2c-0.5,0.5-0.8,1.1-1.1,1.8
			c-0.3,0.7-0.4,1.4-0.4,2.2c0,0.8,0.1,1.5,0.4,2.2c0.3,0.7,0.6,1.3,1.1,1.8c0.5,0.5,1,0.9,1.7,1.2C245.8,485.9,246.5,486,247.3,486
			z"/>
		<path class="st4" d="M260.5,473.3h2.5l7.8,11.7h0v-11.7h1.9v14.2h-2.4l-7.9-11.7h0v11.7h-1.9V473.3z"/>
		<path class="st4" d="M279.1,473.3h4.9c1,0,1.9,0.1,2.6,0.3c0.8,0.2,1.4,0.5,2,0.9c0.6,0.4,1,0.8,1.4,1.3c0.4,0.5,0.7,1,0.9,1.5
			c0.2,0.5,0.4,1,0.5,1.6c0.1,0.5,0.1,1,0.1,1.4c0,0.9-0.2,1.8-0.5,2.6c-0.3,0.8-0.8,1.6-1.5,2.3c-0.7,0.7-1.5,1.2-2.4,1.6
			c-1,0.4-2.1,0.6-3.4,0.6h-4.6V473.3z M281,485.7h2.4c0.8,0,1.6-0.1,2.3-0.3c0.7-0.2,1.4-0.6,1.9-1c0.5-0.4,1-1,1.3-1.7
			c0.3-0.7,0.5-1.4,0.5-2.3c0-0.5-0.1-1-0.2-1.6c-0.1-0.6-0.4-1.2-0.8-1.7c-0.4-0.5-1-1-1.7-1.4c-0.7-0.4-1.7-0.6-2.8-0.6H281V485.7
			z"/>
		<path class="st4" d="M303.8,487.8c-1.1,0-2.1-0.2-3-0.6c-0.9-0.4-1.7-0.9-2.3-1.6c-0.6-0.7-1.2-1.5-1.5-2.4
			c-0.4-0.9-0.6-1.9-0.6-2.9c0-1.1,0.2-2,0.6-2.9c0.4-0.9,0.9-1.7,1.5-2.4c0.6-0.7,1.4-1.2,2.3-1.6c0.9-0.4,1.9-0.6,3-0.6
			c1.1,0,2.1,0.2,3,0.6c0.9,0.4,1.7,0.9,2.3,1.6c0.6,0.7,1.2,1.5,1.5,2.4c0.4,0.9,0.6,1.9,0.6,2.9c0,1.1-0.2,2-0.6,2.9
			c-0.4,0.9-0.9,1.7-1.5,2.4c-0.6,0.7-1.4,1.2-2.3,1.6C305.8,487.6,304.8,487.8,303.8,487.8z M303.8,486c0.8,0,1.5-0.2,2.2-0.5
			s1.2-0.7,1.7-1.2c0.5-0.5,0.8-1.1,1.1-1.8c0.3-0.7,0.4-1.4,0.4-2.2c0-0.8-0.1-1.5-0.4-2.2c-0.3-0.7-0.6-1.3-1.1-1.8
			s-1-0.9-1.7-1.2c-0.7-0.3-1.4-0.5-2.2-0.5c-0.8,0-1.5,0.2-2.2,0.5c-0.7,0.3-1.2,0.7-1.7,1.2c-0.5,0.5-0.8,1.1-1.1,1.8
			c-0.3,0.7-0.4,1.4-0.4,2.2c0,0.8,0.1,1.5,0.4,2.2c0.3,0.7,0.6,1.3,1.1,1.8c0.5,0.5,1,0.9,1.7,1.2C302.2,485.9,302.9,486,303.8,486
			z"/>
		<path class="st4" d="M316.9,473.3h2.5l7.8,11.7h0v-11.7h1.9v14.2h-2.4l-7.9-11.7h0v11.7h-1.9V473.3z"/>
		<path class="st4" d="M342.5,473.3h2.2l4.2,11.5h0l4.3-11.5h2.1l-5.6,14.2h-1.8L342.5,473.3z"/>
		<path class="st4" d="M360,473.3h1.9v14.2H360V473.3z"/>
		<path class="st4" d="M378.5,476.3c-0.4-0.5-0.9-0.9-1.5-1.2c-0.6-0.3-1.2-0.4-1.9-0.4c-0.8,0-1.5,0.2-2.2,0.5
			c-0.6,0.3-1.2,0.7-1.7,1.2c-0.5,0.5-0.8,1.1-1.1,1.8c-0.3,0.7-0.4,1.5-0.4,2.3c0,0.7,0.1,1.5,0.4,2.1c0.2,0.7,0.6,1.3,1,1.8
			c0.5,0.5,1,0.9,1.7,1.2c0.7,0.3,1.4,0.4,2.2,0.4c0.8,0,1.5-0.2,2.1-0.5c0.6-0.3,1.1-0.8,1.6-1.4l1.6,1.2c-0.1,0.1-0.3,0.4-0.6,0.6
			c-0.3,0.3-0.6,0.5-1.1,0.8s-1,0.5-1.6,0.7c-0.6,0.2-1.3,0.3-2.2,0.3c-1.1,0-2.1-0.2-3-0.6c-0.9-0.4-1.7-1-2.3-1.7
			c-0.6-0.7-1.1-1.5-1.5-2.4c-0.3-0.9-0.5-1.8-0.5-2.7c0-1.1,0.2-2.1,0.5-3c0.4-0.9,0.9-1.7,1.5-2.4c0.6-0.7,1.4-1.2,2.3-1.6
			c0.9-0.4,1.9-0.6,3-0.6c0.9,0,1.9,0.2,2.8,0.5c0.9,0.4,1.6,0.9,2.2,1.7L378.5,476.3z"/>
		<path class="st4" d="M388.7,475.1h-4.6v-1.8h11.1v1.8h-4.6v12.4h-1.9V475.1z"/>
		<path class="st4" d="M406.7,487.8c-1.1,0-2.1-0.2-3-0.6c-0.9-0.4-1.7-0.9-2.3-1.6c-0.6-0.7-1.2-1.5-1.5-2.4
			c-0.4-0.9-0.6-1.9-0.6-2.9c0-1.1,0.2-2,0.6-2.9c0.4-0.9,0.9-1.7,1.5-2.4c0.6-0.7,1.4-1.2,2.3-1.6c0.9-0.4,1.9-0.6,3-0.6
			c1.1,0,2.1,0.2,3,0.6c0.9,0.4,1.7,0.9,2.3,1.6c0.6,0.7,1.2,1.5,1.5,2.4c0.4,0.9,0.6,1.9,0.6,2.9c0,1.1-0.2,2-0.6,2.9
			c-0.4,0.9-0.9,1.7-1.5,2.4c-0.6,0.7-1.4,1.2-2.3,1.6C408.8,487.6,407.8,487.8,406.7,487.8z M406.7,486c0.8,0,1.5-0.2,2.2-0.5
			s1.2-0.7,1.7-1.2c0.5-0.5,0.8-1.1,1.1-1.8c0.3-0.7,0.4-1.4,0.4-2.2c0-0.8-0.1-1.5-0.4-2.2c-0.3-0.7-0.6-1.3-1.1-1.8
			s-1-0.9-1.7-1.2c-0.7-0.3-1.4-0.5-2.2-0.5c-0.8,0-1.5,0.2-2.2,0.5c-0.7,0.3-1.2,0.7-1.7,1.2c-0.5,0.5-0.8,1.1-1.1,1.8
			c-0.3,0.7-0.4,1.4-0.4,2.2c0,0.8,0.1,1.5,0.4,2.2c0.3,0.7,0.6,1.3,1.1,1.8c0.5,0.5,1,0.9,1.7,1.2C405.1,485.9,405.9,486,406.7,486
			z"/>
		<path class="st4" d="M419.8,473.3h5c0.9,0,1.7,0.1,2.2,0.4c0.6,0.2,1.1,0.6,1.4,0.9c0.3,0.4,0.6,0.8,0.7,1.3
			c0.1,0.5,0.2,0.9,0.2,1.4c0,0.5-0.1,0.9-0.2,1.3c-0.2,0.4-0.4,0.8-0.7,1.1c-0.3,0.3-0.7,0.6-1.1,0.9c-0.4,0.2-0.9,0.4-1.5,0.4
			l4,6.5h-2.4l-3.6-6.2h-2.1v6.2h-1.9V473.3z M421.8,479.5h2.5c0.4,0,0.7,0,1.1-0.1c0.4-0.1,0.7-0.2,1-0.3c0.3-0.2,0.5-0.4,0.7-0.7
			c0.2-0.3,0.3-0.7,0.3-1.2c0-0.5-0.1-0.9-0.3-1.2c-0.2-0.3-0.4-0.5-0.7-0.7c-0.3-0.2-0.6-0.3-1-0.3c-0.4-0.1-0.7-0.1-1.1-0.1h-2.5
			V479.5z"/>
		<path class="st4" d="M435.1,473.3h1.9v14.2h-1.9V473.3z"/>
		<path class="st4" d="M448.1,473.3h1.7l6.1,14.2h-2.2l-1.4-3.5h-6.7l-1.4,3.5h-2.2L448.1,473.3z M451.5,482.3l-2.6-6.5h0l-2.7,6.5
			H451.5z"/>
	</g>
</g>
</svg>
