<svg xmlns="http://www.w3.org/2000/svg" viewBox="0 0 454.44 416.56"><defs><style>.cls-1,.cls-2{fill:none;stroke:#000;stroke-miterlimit:10;}.cls-2{stroke-width:0.5px;}</style></defs><g id="Lager_2" data-name="Lager 2"><g id="båt"><path class="cls-1" d="M136.63,233.93c-4.44,3.36-8,7.58-12.13,11.25-3.59,3.19-7.62,6-11,9.33a2.78,2.78,0,0,0-1,1.64,2.17,2.17,0,0,0,.86,1.55c2,2,4.28,4,4.75,6.79.73,4.24-3,8.58-3,12.93,6.15-1.3,12.51-2.89,17.56-6.57,4.79-3.5,7.86-8.49,10.8-13.32,4.15-6.84,8.49-14.13,9.49-21.76.48-3.63,1.09-6.68-3.23-7.09S140,231.39,136.63,233.93Z"/><path class="cls-1" d="M147,78.15c-1.48,4.62-4,8.79-5.9,13.27-1.61,3.88-2.7,8-4.55,11.77a2.49,2.49,0,0,1-1.13,1.31,2.42,2.42,0,0,1-1.72-.2c-2.53-1-5.17-2.17-7.83-1.69-4.1.75-6.71,5.13-10.67,6.45-1-5.35-1.82-11-.27-16.17,1.47-5,4.9-9,8.24-12.86,4.73-5.49,9.79-11.26,16.35-14.47,3.12-1.52,5.66-3,7.57.37S148.13,74.66,147,78.15Z"/><path class="cls-1" d="M140.08,18.24c-1.4,5.47-3.82,10.41-5.57,15.71-1.53,4.6-2.56,9.47-4.31,13.93a2.87,2.87,0,0,1-1.06,1.56,1.89,1.89,0,0,1-1.63-.24c-2.38-1.17-4.88-2.57-7.39-2-3.88.88-6.34,6.07-10.08,7.63-1-6.33-1.72-13-.26-19.14,1.39-5.86,4.63-10.64,7.78-15.22C122,14,126.82,7.14,133,3.34c3-1.8,5.35-3.51,7.16.44S141.13,14.11,140.08,18.24Z"/><path class="cls-1" d="M48.5,34.92c1.54,5.22,4.2,9.93,6.13,15,1.68,4.39,2.81,9,4.73,13.29a2.73,2.73,0,0,0,1.17,1.49,2.3,2.3,0,0,0,1.78-.24c2.63-1.11,5.37-2.44,8.14-1.9,4.26.84,7,5.79,11.08,7.28,1-6,1.89-12.38.28-18.26C80.28,46,76.72,41.42,73.25,37.05c-4.91-6.2-10.17-12.72-17-16.34-3.24-1.73-5.88-3.36-7.86.41S47.34,31,48.5,34.92Z"/><path class="cls-1" d="M52.05,142.24c1.52,4.63,4.14,8.8,6.05,13.28,1.66,3.88,2.77,8,4.67,11.76a1.9,1.9,0,0,0,2.92,1.11c2.59-1,5.3-2.16,8-1.68,4.2.74,6.87,5.12,10.93,6.44,1-5.34,1.87-11,.28-16.17-1.5-4.94-5-9-8.44-12.85-4.85-5.49-10-11.26-16.76-14.47-3.2-1.52-5.81-3-7.77.37S50.91,138.76,52.05,142.24Z"/><path class="cls-2" d="M47.13,31.64A90.72,90.72,0,0,0,73.47,62.7"/><path class="cls-2" d="M47.8,26.4Q63.4,45.91,79.73,64.84"/><path class="cls-2" d="M52.6,20.88c3.54,2.47,6.12,6.05,8.72,9.51a255.9,255.9,0,0,0,21,24.48"/><path class="cls-2" d="M141,8.11c.06,3.47-1.34,6.78-2.63,10a210.61,210.61,0,0,0-8.12,24.47"/><path class="cls-2" d="M138.68,2.05A57.93,57.93,0,0,1,133.27,16,79.31,79.31,0,0,0,129,24c-2.72,6.71-2.28,14.5-5.67,20.9"/><path class="cls-2" d="M131.15,5.8c-4.59,5.53-6.88,12.6-8.45,19.61s-2.55,14.2-5,21"/><path class="cls-2" d="M46.64,33.6a108.45,108.45,0,0,0,14.5-10.43"/><path class="cls-2" d="M50.1,40.84A124.35,124.35,0,0,0,67.05,28.72"/><path class="cls-2" d="M53,49.89A196,196,0,0,0,72.13,34.81"/><path class="cls-2" d="M57.1,55.05a21.71,21.71,0,0,1,3.63-3.34L74.8,40.62"/><path class="cls-2" d="M63.09,60.36q8.11-4.29,16-9"/><path class="cls-2" d="M72.18,62.29a31.08,31.08,0,0,0,9.13-5.76"/><path class="cls-2" d="M132.43,63.33a27.27,27.27,0,0,1,14.27,3.93"/><path class="cls-2" d="M129.73,69.34a65,65,0,0,1,14.52,5.51"/><path class="cls-2" d="M126.74,75.62q8.55,3.19,16.86,7"/><path class="cls-2" d="M120.91,81c7,.89,13.4,4.47,19.55,8"/><path class="cls-2" d="M118.56,87l19.57,7.61"/><path class="cls-2" d="M117.87,94.67a19,19,0,0,1,6.14,2l11.33,5.15"/><path class="cls-2" d="M118.9,101.81a24,24,0,0,1,7.41,2.49"/><path class="cls-2" d="M125.66,7.77a13.67,13.67,0,0,1,6,1.92l9.76,4.9"/><path class="cls-2" d="M123.33,13.46l15.87,8.87"/><path class="cls-2" d="M118.88,20a68.91,68.91,0,0,1,19,7.75"/><path class="cls-2" d="M111.83,36.69A144.24,144.24,0,0,1,129.05,42"/><path class="cls-2" d="M113.16,30.69q10.71,2.89,21.29,6.21"/><path class="cls-2" d="M115.6,23.86a110.74,110.74,0,0,0,18.86,8.29"/><path class="cls-2" d="M145.78,66.25A295.67,295.67,0,0,0,131,102.3"/><path class="cls-2" d="M141.3,60.63a119.22,119.22,0,0,0-18.82,45"/><path class="cls-2" d="M117.81,93.77c.11-3,1.68-5.77,3.2-8.38l8.87-15.22"/><path class="cls-2" d="M51.2,140.73l10.45-7.4"/><path class="cls-2" d="M55.2,148.51a118.16,118.16,0,0,1,12.6-11.06"/><path class="cls-2" d="M58.24,156.51l13.87-13.59"/><path class="cls-2" d="M61.9,162.75l6.86-7.5c2.52-2.75,5.11-5.56,8.4-7.31"/><path class="cls-2" d="M69.72,166.82A90.16,90.16,0,0,0,80.79,153.4"/><path class="cls-2" d="M77.41,168.67a22,22,0,0,1,5.86-6.12"/><path class="cls-2" d="M147.32,231q-14.82,15.41-28.89,31.53"/><path class="cls-2" d="M140.86,257.21a50.14,50.14,0,0,1,9.31-10.51"/><path class="cls-2" d="M122.07,263.58c3.66-5,8.4-9.13,13.1-13.2L151.73,236"/><path class="cls-2" d="M50.8,134.25A207.59,207.59,0,0,0,68.42,166.9"/><path class="cls-2" d="M52.61,129.92q15.14,20.67,29.89,41.61"/><path class="cls-2" d="M59.39,130.91c4.92,3.76,8.18,9.23,11.67,14.35A139.13,139.13,0,0,0,85.42,163"/><path class="cls-2" d="M142.76,232.9a20.83,20.83,0,0,1,10.67,6.26"/><path class="cls-2" d="M137.71,235.84c2.5-.16,4.78,1.32,6.83,2.76q3.81,2.67,7.52,5.46"/><path class="cls-2" d="M133.88,240.89a111.15,111.15,0,0,1,15.1,9.85"/><path class="cls-2" d="M130.91,244.57c2.45,0,4.54,1.65,6.41,3.23l8.06,6.86"/><path class="cls-2" d="M129.47,248.85a77.15,77.15,0,0,1,10,7.58"/><path class="cls-2" d="M124.32,252.27c2.72,1.94,5.53,3.77,8.4,5.49"/><path class="cls-2" d="M118.35,256.85l6,4.76"/><path class="cls-2" d="M129.76,258.89a35.21,35.21,0,0,0,8.25-6.57q3.83-3.76,7.62-7.55a18.5,18.5,0,0,1,5.57-4.33"/><path class="cls-1" d="M93.24,395.41c-.06,1.29-1.59,3-2.14,1.81L91,405.57c3.69,1.46,7.68,2.95,11.52,1.95s6.86-5.73,4.67-9c-.69-1.06-1.79-1.79-2.52-2.82-1.3-1.83-1.26-4.27-1.18-6.52q.8-20.52,1.24-41.06c.28-11.92,0-24,1.62-35.82-2.19.26-7.34,3.34-7.35-.15,0-4.6,3.37-8.55,4.06-13.11.44-2.91-.25-5.87-.67-8.79-1.72-11.92,2.83-21.74,3.11-33.35.73-29.23.54-58.54.66-87.82,0-7,.29-14.08.56-21.11.12-3.28,1-7.52.24-10.72-.56-2.37-2.14-4.66-2.94-7a15.63,15.63,0,0,1-1.14-6.49,6,6,0,0,1,3.59-5.16L105,106.25a6.21,6.21,0,0,0-.65-2.49c-2.52-4.31-6.15,1.09-6.61,3.57-.65,3.42-.17,7-.12,10.44q.24,14.94.37,29.88.27,29.88.13,59.76-.27,60.2-2.17,120.38Q94.82,361.61,93.24,395.41Z"/><path class="cls-1" d="M128.11,103.47c3.53-.35,7.57,2,7.7,5.52-3.15,2.47-4.75,6.36-6.82,9.79-4.86,8.07-13.89,15.32-23.41,16.71-2.45-5.71-3.41-12.65.92-17.64C111,112.61,121.07,104.17,128.11,103.47Z"/><path class="cls-1" d="M117.62,108.05l.51-15.55a31.12,31.12,0,0,1,.62-6.17c1.24-5.22,5-9.37,8.21-13.69s5.94-9.65,4.66-14.86c-3.06,10.54-14.72,16-20.69,25.18a52.39,52.39,0,0,0-4.37,9.16,29.79,29.79,0,0,0-2.07,6.69c-1,7.42,3.61,15.36.52,22.19"/><path class="cls-1" d="M129.36,102.91c2.91,0,4.62,3.33,7.27,4.54.69.32,1.43.49,2.1.82a8.67,8.67,0,0,1,2.62,2.32A51.7,51.7,0,0,1,152.11,132c.75-8.76.64-18.21-4.27-25.5a13.27,13.27,0,0,0-4.92-4.61c-4.1-2-10.08.28-14.29,1.1"/><path class="cls-1" d="M131.66,63.17a15,15,0,0,1,11-3.36,18.53,18.53,0,0,1,4.29,13.36,33.87,33.87,0,0,1-2.5,9.2c-2.44,6.38-5.18,12.66-8.21,18.79"/><path class="cls-1" d="M118.28,148.05a7.71,7.71,0,0,1,3.17-1.64c2.09-.41,4.2.72,5.78,2.15s2.84,3.2,4.5,4.53c5,4,12.08,3.18,18.28,4.62,10.63,2.48,18.39,11.56,24.14,20.85,2.22,3.57,4.29,7.29,7.21,10.32a27.15,27.15,0,0,1-3-10.41c-.26-3.1,0-6.24-.28-9.34a25.84,25.84,0,0,0-11.72-19c-2.16-1.36-4.51-2.4-6.62-3.83-2.46-1.66-4.53-3.82-6.89-5.61-5.91-4.52-14.14-6.58-21-3.65a13.41,13.41,0,0,1-2.83,1,17,17,0,0,1-3.34-.06c-4.38-.13-8.44,2.5-11.32,5.8s-4.88,7.26-7.28,10.93c-2,3-4.45,5.6-6.64,8.44C104.06,165.22,115.3,150.34,118.28,148.05Z"/><path class="cls-1" d="M67.85,33.44c3.9,3.44,8.39,6.45,10.94,11a25.58,25.58,0,0,1,2.63,8.26,56.17,56.17,0,0,1,.67,12.82.93.93,0,0,1-.34.82.94.94,0,0,1-.75,0l-7.25-2.37a10.65,10.65,0,0,0-3.84-.74c-3.47.21-5.73,3.61-7.44,6.64A69.16,69.16,0,0,1,73.93,81.11a5.62,5.62,0,0,0,1.85,1.72c1.21.56,2.61.17,3.93,0,4.39-.7,8.91.81,12.63,3.25s6.78,5.75,9.79,9c.56-9.39.76-18.87-.84-28.14a41.93,41.93,0,0,0-2.8-9.9c-2.94-6.65-8.2-12-13.51-16.93-4.48-4.19-9.08-8.26-13.93-12a74.54,74.54,0,0,1-6.09-5c-1.36-1.3-2.62-3.81-4.14-4.65C58.39,23.58,64.45,30.44,67.85,33.44Z"/><path class="cls-1" d="M100.66,163c2,1.62,4.87,1.69,7.31.92a33.76,33.76,0,0,0,6.78-3.56c6.12-3.61,13.18-5.89,20.27-5.43a7.59,7.59,0,0,1-5.89-2.24c-1.53-1.49-2.72-3.3-4.25-4.8a4.73,4.73,0,0,0-2.35-1.43c-1.92-.34-3.56,1.33-4.86,2.79A70.17,70.17,0,0,1,100.66,163Z"/><path class="cls-1" d="M66.71,64.24c-2.88-.44-4.75-3.19-6.26-5.68L51.29,43.44a32.12,32.12,0,0,1-3.91-8.06c-1.25-4.6-.41-9.47.44-14.16,4.79-.33,9.67-.69,13.65,2"/><path class="cls-1" d="M146.13,66a17,17,0,0,0-21.39-21.9,117.09,117.09,0,0,0-12,5.06c-1.35-7.19-2.61-15,.67-21.52A36.08,36.08,0,0,1,117,22.17C121.75,16,126.4,8.73,125.48,1c-2.32,2-3.19,5.1-4.68,7.76-3.37,6-9.92,9.47-14.31,14.78-4.23,5.1-6.27,11.73-6.91,18.33s0,13.23.73,19.83c1.29,12.48,2.88,22.62.44,34.94A87.16,87.16,0,0,1,108.1,81.9L123.7,55c1.51-2.59,3.91-5.59,6.81-4.81a6.83,6.83,0,0,1,2.6,1.67A82.62,82.62,0,0,1,146.13,66Z"/><path class="cls-1" d="M120.27,70.54a10.22,10.22,0,0,0,1.45-1.49c2.06-2.68,2.58-6.37,4.84-9.18,1.59-2,3.5-3.9,6-4.46,3.63-.82,5.75,2.28,7.41,4.84a8.82,8.82,0,0,0-1.49-9.47,13.34,13.34,0,0,0-9.27-4.05,9.48,9.48,0,0,0-4.62.82c-2.43,1.19-3.91,3.69-5.18,6.08-6.81,12.8-11.74,26.49-16.64,40.13,3.88-6,6.25-13.25,11.28-18.45C115.86,73.4,118.33,72.22,120.27,70.54Z"/><path class="cls-1" d="M124.94,8.14l8.38-5.33c2-1.29,4.93-2.5,6.58-.75a4.32,4.32,0,0,1,.9,1.69c1.78,5.27.64,11-.78,16.42A168.82,168.82,0,0,1,131.79,44"/><path class="cls-1" d="M79.58,55.76a6.55,6.55,0,0,0-1.93-2.12A5.83,5.83,0,0,0,75,53,33.47,33.47,0,0,0,51.12,61.4,27.18,27.18,0,0,1,65.8,45.75a24.32,24.32,0,0,1,21.26,1.19c4.53,2.62,8,6.71,11.21,10.84a21,21,0,0,1,3.14,5,21.66,21.66,0,0,1,1.13,7.17c.32,8.14,1,16.82,0,24.91a76.75,76.75,0,0,1-7.05-7.9c-1.85-2.52-2.38-5.59-3.4-8.49C89.22,70.24,84.36,62.93,79.58,55.76Z"/><path class="cls-1" d="M70.76,62.34l-9.35.4a10.09,10.09,0,0,0-3.94.71,8.44,8.44,0,0,0-2.63,2.24c-3.87,4.56-6,10.94-4.29,16.66a4.89,4.89,0,0,1,5.25-.72,26.26,26.26,0,0,1,6.11-11.85"/><path class="cls-1" d="M102.15,105.26c-2.35-3.38-4.75-6.8-7.94-9.4s-7.33-4.33-11.41-3.71c-5.24.78-9.13,5.07-13.66,7.81-11.11,6.7-25.8,3.9-37.45,9.6-10,4.86-16,15-21.51,24.63C15,117.88,20.57,100.34,34.42,90.51c7.8-5.54,17.49-8,27.06-8.32S80.56,83.42,90,85.29"/><path class="cls-1" d="M79.23,134.86c-1.73.76-3.53,1.67-5.41,1.44-2.38-.28-4.15-2.26-5.76-4-5.14-5.67-11.85-10.87-19.5-10.72-5.92.11-11.33,3.43-15.7,7.41s-8,8.71-12.48,12.6C24,130.62,32.51,122,41.88,115.31a47.39,47.39,0,0,1,10.29-5.84c6.46-2.48,13.55-2.68,20.47-2.85,3.72-.08,7.69-.11,10.85,1.86a16.82,16.82,0,0,1,4.69,5c2.11,3.1,4.08,6.66,7.14,8.94,1.9,1.41,9.19,2.53,8.71,5.55-.51,3.23-7.41,3-9.58,3.18A46.24,46.24,0,0,0,79.23,134.86Z"/><path class="cls-1" d="M114.65,203.19c3.8-4.46,8.37-9.29,14.23-9.3,5.08,0,9.3,3.65,13.81,6,6.55,3.38,14.25,4.09,20.69,7.65,5.94,3.28,10.33,8.7,14.57,14,4.06,5.07,8.29,10.54,8.9,17,.38,4.07-.73,8.22.1,12.22.94,4.57,4.34,9.14,2.53,13.44-1.7-5.29-7.52-8.08-10.45-12.81-2.45-4-2.68-9-5.09-13-2.9-4.82-8.39-7.31-13.56-9.52-4.38-1.87-8.88-3.78-13.64-3.94-3.7-.13-7.44.8-11.09.17-6.41-1.1-11.7-6.88-18.19-6.46-4.62.29-8.06,3.54-11.75,5.92-2.66,1.71-4.82,3.34-5.62-.43C98.65,217.36,110.87,207.63,114.65,203.19Z"/><path class="cls-1" d="M104.5,201.41a182.6,182.6,0,0,0-20.8-27.23c-3-3.28-6.51-6.62-10.93-7.28-5.13-.75-10,2.32-14,5.58-6.34,5.13-12.39,11.92-12.57,20.08-.15,6.95,4,13.22,5.45,20,1.21,5.73.47,11.67-.29,17.47-.39-6.57,3.09-12.67,6.45-18.33l6.64-11.17c3-5,6.06-10.17,10.53-14s10.66-6,16.27-4.35"/><path class="cls-1" d="M119.1,256.47c1.82-3.05,5.15-4.79,7.84-7.1,4.08-3.51,6.72-8.38,10.24-12.46s8.63-7.56,13.94-6.65c2.28,4.42,2.17,9.77.66,14.5s-4.29,9-7.25,12.94c-4.57-2.85-10.68-1.18-15.14,1.83-2.12,1.43-7.93,8.22-10.4,7.25C115.81,265.52,118,258.36,119.1,256.47Z"/><path class="cls-1" d="M81.58,236.4c-1.33-2.72-2.26-6-4.91-7.47-3.49-2-7.7.29-11.48,1.64a24.94,24.94,0,0,1-11.07,1.28c-4.85-.55-10.41-2.32-14.12.84A19.86,19.86,0,0,0,36.81,237a19.79,19.79,0,0,1-8,6.89c-3.64,1.71-8,2.48-10.46,5.68-1.81,2.37-2.07,5.52-2.53,8.46A51.12,51.12,0,0,1,3.36,284.17c7.46-1.62,12.07-8.91,15.85-15.54s8.42-13.92,15.89-15.5c3-.62,6-.24,9-.36,11-.44,21.62-7.48,32.47-5.37,6.22,1.22,11.56,5.38,15.44,10.4s6.5,10.86,9.08,16.65c-2-6.36-2.38-14.05-5.6-19.93C91.84,247.79,85,243.35,81.58,236.4Z"/><path class="cls-1" d="M83.06,141.72c-3.3-3.36-7.71-6.69-12.28-5.56,4.88,5.34,9.83,10.78,12.88,17.34s4,14.5.62,20.92a211.52,211.52,0,0,1,18.18,23c-2.53-10.75-3.18-21.35-4.32-32.25C97.24,156.53,88.86,147.66,83.06,141.72Z"/><path class="cls-1" d="M98.66,339.37c-8.63-8.23-10.4-21.57-18.21-30.6-3.63-4.2-8.4-7.25-13.21-10a34.4,34.4,0,0,0-9.59-4.2c-4.63-1-9.45-.25-14.11.59-6.22,1.13-12.74,2.55-17.44,6.77-4.08,3.67-6.47,9.19-11.25,11.87-2.11,1.17-4.53,1.7-6.62,2.9A11.89,11.89,0,0,0,2.93,330c2.14-6.63,10.2-9.19,17.17-9.4s14.36.86,20.55-2.34c5.05-2.61,8.68-7.82,14.18-9.31,3.82-1,8,0,11.41,1.94a41.24,41.24,0,0,1,9,7.66c7.18,7.51,14,15.59,18.2,25.1,1.63,3.68,4.81,13.75,10.59,9.6C110.22,348.82,101.73,342.3,98.66,339.37Z"/><path class="cls-1" d="M118.51,299.76c5.27-8.8,6.52-20.19,14.13-27.08,7.39-6.69,18.41-7,28.37-6.48a27.71,27.71,0,0,1,8.35,1.31c8,3,11.61,12.05,14.32,20.15-.29-12.23-9-23.43-20.24-28.23s-24.51-3.67-35.61,1.48a37.53,37.53,0,0,0-11.18,7.6c-6.53,6.7-9.36,16.06-12,25-1.5,5.15-6.79,15.75-4.92,20.52C107,312.84,115.22,306.33,118.51,299.76Z"/><path class="cls-1" d="M101.57,301.9c-.38-3.49.86-6.3.9-9.81.11-7.31.22-14.68,1.8-21.82s4.77-14.12,10.17-19c2.74-2.51,6-4.41,9-6.6a56.44,56.44,0,0,0,12.75-12.92l.19,5c.15,3.89-4.15,6.54-7.09,9.08-4.42,3.79-9.19,7.95-10.3,13.67-.31,1.59-.32,3.23-.74,4.79a19.54,19.54,0,0,1-2.14,4.5C110,279.31,105.48,290.4,101.57,301.9Z"/><path class="cls-1" d="M119,296.46a72,72,0,0,1,5.36-8.22c2.31-3.07,5.73-6.25,9.46-5.31s5.26,5.49,6.08,9.34c1.18,5.55,2.37,11.23,1.68,16.87.17-7.78,5.87-15,4.63-22.69a13,13,0,0,0-17.06-10.17"/><path class="cls-1" d="M100.94,129.65a86.34,86.34,0,0,1-23.18-7.59c-5.86-2.89-11.65-6.51-18.17-6.88-6.76-.39-13.2,2.83-18.86,6.55a96.73,96.73,0,0,0-19.42,16.92"/><path class="cls-1" d="M98.28,99C90.92,98.56,85,92.91,78,90.58c-9.57-3.19-20.06.15-29.16,4.52a130.55,130.55,0,0,0-34.49,24.12"/><path class="cls-1" d="M105.07,159.87a37.77,37.77,0,0,1,15-14.73c6.33-3.23,14-4.17,20.66-1.82a42,42,0,0,1,8.17,4.24c6.44,4,12.79,8.32,17.84,14s8.76,12.8,9.05,20.37"/><path class="cls-1" d="M100.65,222.8c11.81-7.13,24.62-14.51,38.38-13.52,9,.65,17.32,4.85,25.36,9,3.67,1.88,7.45,3.85,10.08,7,2.43,2.93,3.66,6.65,4.85,10.27l7,21.33"/><path class="cls-1" d="M81.21,174.08a35.26,35.26,0,0,0-9.38-.6,11.89,11.89,0,0,0-8.17,4.18,14.78,14.78,0,0,0-2,4c-2.42,6.65-3.35,13.74-4.89,20.66s-3.82,13.9-8.44,19.27"/><path class="cls-1" d="M96.09,260.44c-6.33-8.9-13.47-18.4-24-21.31-10.8-3-22.07,1.81-32.18,6.63-11.18,5.33-23.44,12.2-26.54,24.18"/><path class="cls-1" d="M102.5,307.49a144.84,144.84,0,0,1,10.75-21.28,55.08,55.08,0,0,1,6.37-8.78c8.88-9.6,22.41-13.24,35.33-15.27"/><path class="cls-1" d="M96.85,342.85a370.45,370.45,0,0,0-27.69-35.48A13.29,13.29,0,0,0,66,304.52a12.18,12.18,0,0,0-5.83-1.21A73.6,73.6,0,0,0,6.47,324.93"/><path class="cls-1" d="M104.61,131.49c10.78-6.54,15.89-20.2,27-26.14"/><path class="cls-1" d="M60.07,53.43l20.08-2.09c2.42-.25,5.06-.45,7.09.89a10.12,10.12,0,0,1,2.93,3.66,73.42,73.42,0,0,1,7.1,18.32c1.06,4.46,1.72,9.06,3.5,13.28"/><path class="cls-1" d="M72.43,189.27a24.37,24.37,0,0,1,9.88,11,6.25,6.25,0,0,0,1.55,2.48,5.48,5.48,0,0,0,3.12.86c3.2.19,6.42.23,9.64.11.14-2.71.95-5.91,1.1-8.63a5.87,5.87,0,0,0,0-1.51,6.1,6.1,0,0,0-1.24-2.29l-7.61-10.17a1.76,1.76,0,0,0-.94-.77,1.74,1.74,0,0,0-1.27.41C82.33,183.54,77.43,188.22,72.43,189.27Z"/><path class="cls-1" d="M79.9,248.46a44.3,44.3,0,0,1,6.25,22.17c0,1.68,0,3.53,1.06,4.83a6.87,6.87,0,0,0,1.91,1.47l7.44,4.43c.36-3.72.16-7.14.52-10.86a8.66,8.66,0,0,0-.09-3.25,8.88,8.88,0,0,0-1.57-2.75l-5.55-7.43C87.48,253.86,83.73,249.62,79.9,248.46Z"/><path class="cls-1" d="M.09,400.37A645.8,645.8,0,0,0,76.69,409c7.45.39,15,.64,22.28-1,5.07-1.15,9.88-3.21,14.85-4.72,30.3-9.16,62.35,2.91,93.54,8.37,32.25,5.65,65.39,4.13,97.86-.07,14.48-1.88,29-4.29,43.58-3.74,18.15.67,35.82,5.89,53.9,7.67S440.53,415,454.11,403"/><path class="cls-1" d="M281.3,244.85c5,3.2,9,7.2,13.69,10.68,4.06,3,8.61,5.66,12.43,8.86.54.45,1.09,1,1.12,1.55s-.48,1.06-1,1.48c-2.28,1.89-4.83,3.82-5.37,6.43-.83,4,3.41,8.14,3.34,12.27-6.94-1.23-14.13-2.74-19.83-6.24-5.41-3.31-8.88-8-12.19-12.63-4.7-6.49-9.6-13.41-10.73-20.65-.54-3.44-1.22-6.33,3.65-6.73S277.52,242.44,281.3,244.85Z"/><path class="cls-1" d="M269.57,97c1.67,4.39,4.56,8.35,6.66,12.6,1.83,3.69,3.06,7.59,5.15,11.17a2.48,2.48,0,0,0,1.27,1.24,3.18,3.18,0,0,0,1.94-.19c2.85-.94,5.84-2.06,8.85-1.6,4.63.71,7.57,4.86,12.05,6.11,1.14-5.07,2.05-10.39.31-15.34-1.66-4.69-5.54-8.52-9.31-12.2-5.34-5.2-11.06-10.68-18.47-13.72-3.52-1.45-6.4-2.82-8.56.35S268.31,93.74,269.57,97Z"/><path class="cls-1" d="M277.4,40.2c1.57,5.2,4.31,9.88,6.29,14.91,1.73,4.37,2.89,9,4.87,13.22a2.67,2.67,0,0,0,1.2,1.48,2.47,2.47,0,0,0,1.83-.23c2.7-1.11,5.52-2.44,8.36-1.89,4.37.83,7.15,5.75,11.38,7.23,1.08-6,1.94-12.31.29-18.16-1.57-5.55-5.23-10.09-8.79-14.44-5.05-6.16-10.45-12.65-17.45-16.25-3.33-1.71-6-3.34-8.08.41S276.21,36.29,277.4,40.2Z"/><path class="cls-1" d="M380.84,56c-1.74,4.95-4.74,9.43-6.93,14.22-1.89,4.17-3.17,8.57-5.34,12.62a2.7,2.7,0,0,1-1.32,1.4,3,3,0,0,1-2-.22c-3-1-6.06-2.32-9.18-1.8-4.81.8-7.87,5.49-12.52,6.91-1.18-5.74-2.13-11.75-.32-17.33,1.73-5.3,5.75-9.63,9.67-13.78,5.55-5.88,11.49-12.07,19.18-15.51,3.66-1.63,6.64-3.18,8.88.4S382.14,52.29,380.84,56Z"/><path class="cls-1" d="M376.82,157.86c-1.71,4.39-4.67,8.35-6.83,12.6-1.87,3.68-3.13,7.58-5.28,11.16a2.48,2.48,0,0,1-1.3,1.25,3.27,3.27,0,0,1-2-.2c-2.92-.93-6-2-9.07-1.59-4.74.7-7.76,4.86-12.35,6.11-1.17-5.07-2.11-10.4-.31-15.34,1.7-4.69,5.67-8.52,9.53-12.2,5.48-5.21,11.34-10.69,18.94-13.73,3.61-1.44,6.56-2.81,8.77.35S378.11,154.55,376.82,157.86Z"/><path class="cls-2" d="M382.39,52.92a92.18,92.18,0,0,1-29.75,29.47"/><path class="cls-2" d="M381.63,48Q364,66.47,345.56,84.42"/><path class="cls-2" d="M376.21,42.71c-4,2.34-6.92,5.74-9.85,9A260.15,260.15,0,0,1,342.67,75"/><path class="cls-2" d="M276.35,30.59c-.07,3.3,1.51,6.43,3,9.49a178,178,0,0,1,9.17,23.22"/><path class="cls-2" d="M279,24.84a50.26,50.26,0,0,0,6.13,13.21,72.27,72.27,0,0,1,4.78,7.58c3.07,6.37,2.57,13.76,6.4,19.84"/><path class="cls-2" d="M287.48,28.4c5.19,5.25,7.78,12,9.55,18.61s2.88,13.47,5.64,19.89"/><path class="cls-2" d="M382.94,54.78a125.68,125.68,0,0,1-16.38-9.9"/><path class="cls-2" d="M379,61.65a143.67,143.67,0,0,1-19.15-11.5"/><path class="cls-2" d="M375.78,70.24a221.79,221.79,0,0,1-21.63-14.31"/><path class="cls-2" d="M371.12,75.13A23,23,0,0,0,367,72L351.13,61.44"/><path class="cls-2" d="M364.35,80.17q-9.17-4.07-18-8.58"/><path class="cls-2" d="M354.1,82a36.71,36.71,0,0,1-10.33-5.47"/><path class="cls-2" d="M286,83a35.48,35.48,0,0,0-16.12,3.74"/><path class="cls-2" d="M289.09,88.69a82.51,82.51,0,0,0-16.4,5.22"/><path class="cls-2" d="M292.46,94.65q-9.65,3-19,6.61"/><path class="cls-2" d="M299.05,99.73c-7.94.85-15.13,4.24-22.09,7.57"/><path class="cls-2" d="M301.7,105.4l-22.1,7.23"/><path class="cls-2" d="M302.48,112.72a24.3,24.3,0,0,0-6.93,1.88l-12.8,4.89"/><path class="cls-2" d="M301.32,119.5a30.35,30.35,0,0,0-8.37,2.36"/><path class="cls-2" d="M293.68,30.27A17.47,17.47,0,0,0,287,32.09l-11,4.65"/><path class="cls-2" d="M296.32,35.67l-17.93,8.41"/><path class="cls-2" d="M301.35,41.88a87,87,0,0,0-21.43,7.35"/><path class="cls-2" d="M309.31,57.71a186.6,186.6,0,0,0-19.45,5"/><path class="cls-2" d="M307.8,52q-12.09,2.74-24.05,5.89"/><path class="cls-2" d="M305.05,45.54a139.64,139.64,0,0,1-21.3,7.87"/><path class="cls-2" d="M271,85.76A257.36,257.36,0,0,1,287.68,120"/><path class="cls-2" d="M276,80.43a104.14,104.14,0,0,1,21.25,42.71"/><path class="cls-2" d="M302.55,111.87c-.13-2.87-1.89-5.48-3.61-8l-10-14.44"/><path class="cls-2" d="M377.79,156.42l-11.8-7"/><path class="cls-2" d="M373.27,163.8A130.23,130.23,0,0,0,359,153.31"/><path class="cls-2" d="M369.84,171.4l-15.67-12.89"/><path class="cls-2" d="M365.71,177.32,358,170.21c-2.84-2.62-5.76-5.28-9.48-6.94"/><path class="cls-2" d="M356.87,181.18a90.46,90.46,0,0,1-12.5-12.73"/><path class="cls-2" d="M348.18,182.94a23,23,0,0,0-6.61-5.81"/><path class="cls-2" d="M269.22,242.07Q286,256.7,301.85,272"/><path class="cls-2" d="M276.52,267A51.56,51.56,0,0,0,266,257"/><path class="cls-2" d="M297.74,273c-4.14-4.76-9.49-8.67-14.8-12.53l-18.7-13.62"/><path class="cls-2" d="M378.24,150.28a189.47,189.47,0,0,1-19.91,31"/><path class="cls-2" d="M376.19,146.17q-17.08,19.62-33.75,39.48"/><path class="cls-2" d="M368.54,147.11c-5.56,3.57-9.24,8.76-13.18,13.62a139.76,139.76,0,0,1-16.22,16.83"/><path class="cls-2" d="M274.37,243.88a24.67,24.67,0,0,0-12.05,5.94"/><path class="cls-2" d="M280.08,246.67c-2.83-.15-5.4,1.25-7.72,2.62-2.86,1.69-5.7,3.41-8.49,5.18"/><path class="cls-2" d="M284.4,251.47a128.58,128.58,0,0,0-17,9.34"/><path class="cls-2" d="M287.76,255c-2.77,0-5.14,1.57-7.25,3.07l-9.1,6.51"/><path class="cls-2" d="M289.38,259a87.9,87.9,0,0,0-11.25,7.2"/><path class="cls-2" d="M295.2,262.26q-4.62,2.76-9.49,5.2"/><path class="cls-2" d="M301.94,266.6l-6.72,4.52"/><path class="cls-2" d="M289.05,268.54a39.36,39.36,0,0,1-9.32-6.24q-4.32-3.56-8.6-7.16a20.91,20.91,0,0,0-6.29-4.1"/><path class="cls-1" d="M330.3,398.07c.07,1.23,1.8,2.83,2.42,1.72l.15,7.93c-4.16,1.38-8.68,2.79-13,1.84s-7.75-5.43-5.28-8.57c.78-1,2-1.69,2.84-2.67,1.48-1.74,1.44-4.05,1.34-6.18q-.9-19.47-1.41-39c-.3-11.32,0-22.76-1.82-34,2.48.25,8.29,3.17,8.3-.14,0-4.37-3.81-8.12-4.59-12.44-.5-2.77.29-5.57.77-8.34,1.94-11.32-3.2-20.63-3.53-31.65-.81-27.73-.6-55.54-.73-83.32,0-6.68-.34-13.36-.63-20-.14-3.11-1.14-7.14-.28-10.18.63-2.24,2.41-4.41,3.32-6.64a12.61,12.61,0,0,0,1.29-6.15,5.8,5.8,0,0,0-4.06-4.89l1.68-11.7a5.36,5.36,0,0,1,.74-2.36c2.85-4.09,6.94,1,7.47,3.38.73,3.26.19,6.64.13,9.91q-.27,14.18-.42,28.35-.3,28.35-.15,56.71.32,57.12,2.46,114.21Q328.52,366,330.3,398.07Z"/><path class="cls-1" d="M290.91,121.08c-4-.33-8.54,1.88-8.69,5.24,3.56,2.33,5.37,6,7.7,9.28,5.49,7.66,15.69,14.54,26.44,15.86,2.78-5.42,3.86-12-1-16.74C310.2,129.75,298.87,121.74,290.91,121.08Z"/><path class="cls-1" d="M302.77,125.41l-.58-14.75a25.09,25.09,0,0,0-.7-5.85c-1.4-5-5.69-8.89-9.28-13s-6.71-9.16-5.26-14.1c3.46,10,16.63,15.15,23.37,23.89a46.85,46.85,0,0,1,4.93,8.69,24.34,24.34,0,0,1,2.34,6.35c1.18,7-4.07,14.58-.58,21"/><path class="cls-1" d="M289.51,120.54c-3.29,0-5.23,3.16-8.22,4.31-.77.3-1.61.46-2.37.78a9.46,9.46,0,0,0-3,2.2,46.61,46.61,0,0,0-12.15,20.26c-.85-8.31-.73-17.27,4.83-24.19a14.19,14.19,0,0,1,5.55-4.37c4.64-1.93,11.39.27,16.14,1"/><path class="cls-1" d="M286.91,82.84a19.11,19.11,0,0,0-12.42-3.19,15.78,15.78,0,0,0-4.84,12.67,28.14,28.14,0,0,0,2.82,8.73,193.56,193.56,0,0,0,9.28,17.83"/><path class="cls-1" d="M302,163.38a9.53,9.53,0,0,0-3.58-1.57,8.83,8.83,0,0,0-6.52,2.05c-1.79,1.35-3.21,3-5.09,4.29-5.62,3.77-13.64,3-20.64,4.39-12,2.35-20.78,11-27.28,19.78-2.5,3.39-4.84,6.92-8.13,9.79a22.87,22.87,0,0,0,3.42-9.88c.3-2.94,0-5.91.32-8.85.84-7.3,5.87-14.17,13.24-18.08,2.44-1.3,5.1-2.28,7.48-3.63,2.77-1.58,5.12-3.63,7.78-5.33,6.68-4.29,16-6.24,23.7-3.47a16.18,16.18,0,0,0,3.19,1,22.74,22.74,0,0,0,3.78-.05c4.94-.13,9.52,2.37,12.78,5.5s5.52,6.89,8.23,10.37c2.24,2.87,5,5.32,7.5,8C318.09,179.66,305.39,165.55,302,163.38Z"/><path class="cls-1" d="M359,54.63c-4.4,3.26-9.48,6.12-12.35,10.42a21.24,21.24,0,0,0-3,7.84,44.75,44.75,0,0,0-.77,12.16.85.85,0,0,0,.39.78,1.25,1.25,0,0,0,.85,0l8.19-2.25a13.65,13.65,0,0,1,4.34-.7c3.91.2,6.47,3.42,8.4,6.29a73.93,73.93,0,0,0-12.95,10.72,6,6,0,0,1-2.09,1.63c-1.36.54-2.95.16-4.43,0a23.63,23.63,0,0,0-14.27,3.09c-4.2,2.31-7.65,5.45-11.06,8.56-.63-8.91-.86-17.91.95-26.71A35.28,35.28,0,0,1,324.38,77c3.31-6.31,9.25-11.35,15.25-16.07,5.06-4,10.26-7.83,15.74-11.39,2.34-1.52,4.74-3,6.88-4.71,1.53-1.24,2.95-3.61,4.67-4.41C369.67,45.27,362.82,51.78,359,54.63Z"/><path class="cls-1" d="M321.92,177.55c-2.24,1.54-5.5,1.6-8.25.87A40.7,40.7,0,0,1,306,175a46.58,46.58,0,0,0-22.9-5.15,9.57,9.57,0,0,0,6.65-2.12c1.74-1.42,3.08-3.14,4.8-4.56a5.49,5.49,0,0,1,2.66-1.35c2.17-.33,4,1.25,5.49,2.64A78.48,78.48,0,0,0,321.92,177.55Z"/><path class="cls-1" d="M360.27,83.85c3.25-.42,5.36-3,7.07-5.39l10.35-14.34a29.08,29.08,0,0,0,4.42-7.65c1.41-4.36.45-9-.51-13.43-5.4-.32-10.92-.66-15.41,1.89"/><path class="cls-1" d="M270.56,85.51c-2.42-5.66-.66-12.43,4.34-16.74s13-5.94,19.82-4c4.86,1.36,8.93,3,13.58,4.81,1.52-6.83,2.95-14.23-.75-20.43a34.68,34.68,0,0,0-4.13-5.17c-5.32-5.91-10.57-12.76-9.53-20.11,2.62,1.86,3.6,4.84,5.28,7.36,3.81,5.7,11.21,9,16.17,14a29.14,29.14,0,0,1,7.8,17.39c.71,6.26-.06,12.56-.83,18.82-1.45,11.84-3.24,21.47-.49,33.15-2.06-4.92-5.19-9.46-8.3-14L295.9,75.09c-1.7-2.47-4.42-5.31-7.69-4.57a8,8,0,0,0-2.94,1.59C279.85,76.24,274.72,80.45,270.56,85.51Z"/><path class="cls-1" d="M299.77,89.83a10.65,10.65,0,0,1-1.63-1.42c-2.33-2.53-2.92-6-5.47-8.7-1.8-1.88-4-3.7-6.75-4.24-4.1-.78-6.49,2.16-8.37,4.59a7.36,7.36,0,0,1,1.69-9,16.58,16.58,0,0,1,10.47-3.85,12.71,12.71,0,0,1,5.22.78c2.74,1.14,4.41,3.5,5.85,5.77,7.69,12.14,13.26,25.14,18.79,38.08-4.38-5.69-7.06-12.57-12.73-17.51C304.76,92.54,302,91.43,299.77,89.83Z"/><path class="cls-1" d="M294.5,30.62,285,25.57c-2.29-1.23-5.57-2.38-7.43-.72a4.12,4.12,0,0,0-1,1.61c-2,5-.72,10.47.88,15.58a145.41,145.41,0,0,0,9.3,22.63"/><path class="cls-1" d="M345.73,75.8a6.65,6.65,0,0,1,2.18-2,7.45,7.45,0,0,1,3-.58,42.36,42.36,0,0,1,27,7.94A28.21,28.21,0,0,0,361.3,66.31a32.18,32.18,0,0,0-24,1.12c-5.11,2.49-9,6.38-12.66,10.29a19.53,19.53,0,0,0-3.54,4.71,17.45,17.45,0,0,0-1.28,6.8c-.36,7.72-1.09,16,0,23.64a77.76,77.76,0,0,0,8-7.5c2.09-2.39,2.69-5.3,3.84-8.05C334.85,89.55,340.33,82.61,345.73,75.8Z"/><path class="cls-1" d="M355.7,82.05l10.55.38a13.12,13.12,0,0,1,4.45.68,9,9,0,0,1,3,2.12c4.37,4.33,6.82,10.38,4.84,15.8a6.41,6.41,0,0,0-5.93-.68,23.73,23.73,0,0,0-6.9-11.24"/><path class="cls-1" d="M320.23,122.77c2.66-3.2,5.37-6.45,9-8.92a19.14,19.14,0,0,1,12.88-3.52c5.92.75,10.32,4.82,15.44,7.41,12.54,6.36,29.14,3.71,42.3,9.11,11.23,4.62,18.08,14.25,24.29,23.37-5.39-15.47-11.73-32.11-27.38-41.45-8.81-5.25-19.76-7.55-30.56-7.89s-21.56,1.17-32.16,3"/><path class="cls-1" d="M346.13,150.85c1.95.73,4,1.59,6.11,1.38,2.69-.27,4.68-2.15,6.5-3.84,5.81-5.38,13.39-10.31,22-10.18,6.68.11,12.79,3.26,17.73,7s9.06,8.27,14.1,11.95c-4.05-10.36-13.7-18.56-24.28-24.89a56.7,56.7,0,0,0-11.62-5.54c-7.31-2.36-15.31-2.55-23.13-2.7-4.21-.09-8.69-.11-12.25,1.76a17.3,17.3,0,0,0-5.3,4.74c-2.39,2.94-4.61,6.31-8.07,8.47-2.14,1.35-10.37,2.41-9.84,5.27.58,3.06,8.38,2.86,10.83,3A60.93,60.93,0,0,1,346.13,150.85Z"/><path class="cls-1" d="M306.12,215.69c-4.29-4.23-9.45-8.82-16.07-8.82-5.74,0-10.5,3.46-15.6,5.67-7.4,3.21-16.09,3.88-23.37,7.26-6.7,3.11-11.67,8.26-16.46,13.28-4.58,4.8-9.37,10-10.05,16.13-.43,3.86.82,7.81-.11,11.6-1.07,4.33-4.9,8.67-2.86,12.75,1.92-5,8.5-7.67,11.8-12.15,2.77-3.77,3-8.54,5.75-12.33,3.27-4.57,9.48-6.93,15.32-9,4.94-1.78,10-3.59,15.4-3.74,4.18-.13,8.4.76,12.53.16,7.24-1.05,13.22-6.53,20.55-6.13,5.22.28,9.1,3.36,13.27,5.62,3,1.62,5.44,3.17,6.35-.41C324.19,229.14,310.39,219.9,306.12,215.69Z"/><path class="cls-1" d="M317.59,214a180.61,180.61,0,0,1,23.48-25.84c3.43-3.11,7.36-6.28,12.35-6.9,5.79-.72,11.3,2.2,15.85,5.3,7.17,4.86,14,11.3,14.2,19,.17,6.6-4.53,12.55-6.16,19-1.37,5.44-.52,11.07.33,16.58.44-6.24-3.49-12-7.29-17.4l-7.49-10.6C359.48,208.41,356,203.54,351,200s-12.05-5.73-18.38-4.13"/><path class="cls-1" d="M301.09,266.24c-2-2.89-5.81-4.54-8.85-6.74-4.61-3.33-7.6-7.95-11.57-11.82s-9.75-7.17-15.74-6.3c-2.57,4.18-2.45,9.27-.75,13.76s4.85,8.49,8.2,12.27c5.15-2.71,12.05-1.11,17.1,1.74,2.39,1.35,8.95,7.8,11.74,6.87C304.81,274.83,302.37,268,301.09,266.24Z"/><path class="cls-1" d="M343.47,247.21c1.51-2.59,2.55-5.69,5.55-7.1,3.94-1.85,8.7.28,13,1.56a33.13,33.13,0,0,0,12.51,1.21c5.47-.52,11.76-2.2,15.95.8a19.51,19.51,0,0,1,3.6,4.11,21.88,21.88,0,0,0,9,6.54c4.11,1.62,9.07,2.35,11.82,5.38,2,2.25,2.33,5.24,2.85,8a45.71,45.71,0,0,0,14.07,24.79c-8.43-1.54-13.64-8.45-17.91-14.75s-9.51-13.21-17.95-14.7c-3.34-.59-6.79-.24-10.2-.35-12.48-.41-24.41-7.1-36.67-5.09a31,31,0,0,0-17.44,9.86c-4.39,4.76-7.34,10.31-10.26,15.81,2.22-6,2.7-13.33,6.33-18.91C331.89,258,339.64,253.8,343.47,247.21Z"/><path class="cls-1" d="M341.81,157.37c3.71-3.2,8.69-6.35,13.86-5.28-5.51,5.07-11.1,10.23-14.54,16.45s-4.47,13.76-.71,19.85a210.26,210.26,0,0,0-20.53,21.78c2.86-10.2,3.59-20.26,4.88-30.6C325.79,171.42,335.25,163,341.81,157.37Z"/><path class="cls-1" d="M324.18,344.9c9.75-7.81,11.75-20.47,20.57-29,4.1-4,9.49-6.88,14.92-9.52a42.79,42.79,0,0,1,10.84-4c5.23-1,10.67-.24,15.93.56,7,1.07,14.39,2.41,19.7,6.42,4.6,3.48,7.3,8.72,12.71,11.26,2.38,1.11,5.11,1.61,7.47,2.75,5.05,2.44,7.66,7.95,6,12.63-2.42-6.29-11.53-8.72-19.39-8.92s-16.22.82-23.21-2.22c-5.71-2.48-9.81-7.42-16-8.83a20.21,20.21,0,0,0-12.89,1.84,45.34,45.34,0,0,0-10.2,7.27c-8.11,7.12-15.83,14.79-20.56,23.81-1.83,3.5-5.43,13.05-12,9.12C311.12,353.87,320.71,347.68,324.18,344.9Z"/><path class="cls-1" d="M301.77,307.32c-6-8.35-7.37-19.16-16-25.7-8.34-6.34-20.79-6.61-32-6.14a36.58,36.58,0,0,0-9.43,1.24c-9,2.82-13.12,11.44-16.18,19.12.33-11.6,10.15-22.23,22.86-26.78s27.69-3.49,40.23,1.4a43.18,43.18,0,0,1,12.62,7.21c7.37,6.35,10.57,15.24,13.53,23.76,1.69,4.88,7.67,14.94,5.55,19.47C314.79,319.73,305.47,313.55,301.77,307.32Z"/><path class="cls-1" d="M320.89,309.35c.43-3.31-1-6-1-9.31-.11-6.94-.24-13.93-2-20.7a33,33,0,0,0-11.49-18.07c-3.09-2.37-6.73-4.18-10.12-6.26a60,60,0,0,1-14.41-12.25l-.21,4.78c-.16,3.69,4.68,6.21,8,8.62,5,3.6,10.38,7.55,11.64,13,.35,1.5.35,3.06.83,4.55a17.66,17.66,0,0,0,2.42,4.27A158.92,158.92,0,0,1,320.89,309.35Z"/><path class="cls-1" d="M301.17,304.19a67.65,67.65,0,0,0-6.05-7.8c-2.61-2.91-6.48-5.93-10.68-5s-5.95,5.21-6.87,8.86c-1.34,5.27-2.68,10.66-1.9,16-.19-7.38-6.63-14.24-5.23-21.53a12.69,12.69,0,0,1,7-8.6,17.41,17.41,0,0,1,12.31-1"/><path class="cls-1" d="M321.61,145.92a111.59,111.59,0,0,0,26.18-7.21c6.61-2.74,13.16-6.18,20.52-6.53,7.64-.36,14.91,2.69,21.3,6.22a106,106,0,0,1,21.94,16"/><path class="cls-1" d="M324.61,116.82c8.31-.4,15-5.77,22.92-8,10.81-3,22.66.15,32.93,4.29a151.29,151.29,0,0,1,39,22.88"/><path class="cls-1" d="M316.94,174.58a40.29,40.29,0,0,0-16.95-14,35.27,35.27,0,0,0-23.34-1.72,52.07,52.07,0,0,0-9.23,4c-7.27,3.79-14.44,7.9-20.15,13.26s-9.89,12.13-10.22,19.32"/><path class="cls-1" d="M321.94,234.3c-13.34-6.77-27.82-13.77-43.36-12.83-10.17.61-19.56,4.6-28.64,8.51-4.15,1.79-8.41,3.65-11.38,6.67-2.74,2.78-4.14,6.31-5.48,9.74l-7.9,20.25"/><path class="cls-1" d="M343.89,188.07a47.7,47.7,0,0,1,10.6-.57c3.52.34,7.07,1.59,9.22,4a13.6,13.6,0,0,1,2.26,3.79c2.74,6.32,3.78,13,5.53,19.61S375.81,228,381,233.14"/><path class="cls-1" d="M327.09,270c7.14-8.45,15.21-17.46,27.1-20.22,12.2-2.83,24.93,1.72,36.35,6.3,12.62,5.05,26.47,11.56,30,22.93"/><path class="cls-1" d="M319.85,314.66a130.72,130.72,0,0,0-12.15-20.2,53.18,53.18,0,0,0-7.19-8.32c-10-9.11-25.32-12.57-39.91-14.5"/><path class="cls-1" d="M326.22,348.21a368,368,0,0,1,31.28-33.67,14.18,14.18,0,0,1,3.55-2.7,16.2,16.2,0,0,1,6.58-1.16c22.42-.51,44.94,7.11,60.68,20.52"/><path class="cls-1" d="M317.46,147.66c-12.18-6.2-17.95-19.16-30.51-24.8"/><path class="cls-1" d="M367.76,73.59l-22.67-2c-2.73-.24-5.72-.43-8,.85a10.06,10.06,0,0,0-3.31,3.47,63.27,63.27,0,0,0-8,17.38c-1.21,4.23-1.95,8.59-4,12.6"/><path class="cls-1" d="M353.81,202.48a25.2,25.2,0,0,0-11.16,10.43,5.84,5.84,0,0,1-1.75,2.35,7.09,7.09,0,0,1-3.52.82q-5.44.27-10.89.1c-.17-2.57-1.08-5.61-1.25-8.18a5,5,0,0,1,.05-1.44,5.58,5.58,0,0,1,1.4-2.17l8.6-9.65a2,2,0,0,1,1.06-.73,2.24,2.24,0,0,1,1.43.39C342.62,197.05,348.16,201.48,353.81,202.48Z"/><path class="cls-1" d="M345.37,258.64a37.23,37.23,0,0,0-7.06,21c0,1.59,0,3.35-1.19,4.59a8.25,8.25,0,0,1-2.16,1.39l-8.41,4.2c-.4-3.53-.18-6.77-.59-10.3a7.15,7.15,0,0,1,.11-3.09,8.12,8.12,0,0,1,1.77-2.6l6.27-7.06C336.81,263.77,341,259.75,345.37,258.64Z"/></g></g></svg>