<svg xmlns="http://www.w3.org/2000/svg" viewBox="0 0 580.38 648.62"><defs><style>.cls-1{fill:none;stroke:#000;stroke-miterlimit:10;}.cls-2{fill:#81a4bf;}.cls-27,.cls-3,.cls-4{isolation:isolate;}.cls-4{font-size:15px;font-family:GaramondPremrPro, Garamond Premier Pro;}.cls-5{letter-spacing:-0.01em;}.cls-6{letter-spacing:-0.01em;}.cls-7{letter-spacing:-0.01em;}.cls-8{letter-spacing:-0.01em;}.cls-9{letter-spacing:0.02em;}.cls-10{letter-spacing:0em;}.cls-11{letter-spacing:0em;}.cls-12{letter-spacing:-0.01em;}.cls-13{letter-spacing:0.01em;}.cls-14{letter-spacing:0em;}.cls-15{letter-spacing:-0.01em;}.cls-16{letter-spacing:-0.02em;}.cls-17{letter-spacing:0em;}.cls-18{letter-spacing:-0.01em;}.cls-19{letter-spacing:-0.01em;}.cls-20{letter-spacing:-0.01em;}.cls-21{letter-spacing:0.03em;}.cls-22{letter-spacing:-0.02em;}.cls-23{letter-spacing:-0.01em;}.cls-24{letter-spacing:-0.01em;}.cls-25{letter-spacing:0em;}.cls-26{letter-spacing:-0.05em;}.cls-27{font-size:23px;font-family:Avenir-Medium, Avenir;font-weight:500;letter-spacing:0.15em;}</style></defs><g id="Lager_2" data-name="Lager 2"><g id="båt"><g id="Group_391" data-name="Group 391"><g id="Bull_boat" data-name="Bull boat"><path id="Path_3003" data-name="Path 3003" class="cls-1" d="M400.36,136.82c18.53.78,33.87,14.79,44.53,30C450,174,454.41,181.62,459,189.12c3.85,6.22,8.6,8.65,12.62,14,5,6.62-2.56,6.16-5.68,10.09-5,6.26-3.8,16.42-.61,23.06,3.45,7.19,9,13.29,12,20.65.92,2.19,1.49,5-.16,6.71-1.05,1.08-2.66,1.32-4.14,1.52-12.06,1.55-12.89-1.87-20-10.67-4.55-5.66-12.81-6.22-20.07-6.31-4.25-.06-8.71.35-10.91,4.06,8.56,2.62,16.73,1,25.47,6.09,8.5,5,15.6,12.45,21.55,20.2,8.06,10.5,15.44,22.58,15.3,35.8s-10.83,27-24,26l8.48,3.34a10.51,10.51,0,1,0,19.24,8.49,10,10,0,0,0,.59-1.75c.66-2.68.36-5.83,2.27-7.82,1.67-1.74,4.36-1.86,6.77-1.84,14.79.15,29.86,1.49,43.5,7.19,18,7.54,26.07,21.26,34.74,37.55a34.07,34.07,0,0,1,.32,30.84c-4.58,9.05-13.17,15.86-16.42,25.47-1.29,3.82-1.69,8-3.61,11.51-2,3.74-28.63,15.44-29.88,8.73a65.53,65.53,0,0,1-.07,24.3c.82-4.23-22.51-2.84-24.42-2.83s-1.24,17.94-2.21,20.24c-2.58,6-10.77,11.58-17.32,11.58.54,0-2.89-4.7-3.57-5.11-2-1.21-6.25-.27-8.46-.23-.17,15.16,4.61,14.89,18.86,18.36a265.64,265.64,0,0,0,39.53,6.53,48.87,48.87,0,0,1,3.61,23.53L500,566.64c2.84,4.9-1.35,11.32-6.61,13.41s-11.15,1.38-16.8,1.75a43.33,43.33,0,0,0-22.44,8.11c-3.08,2.23-6.17,5-10,5.13-3.36.14-6.38-1.83-9.26-3.56a93.34,93.34,0,0,0-68.74-10.79c2.1-2.92,0-7.29-3.18-9-9-4.49-18.25,3.21-26.9-1.45-4-2.14-7.05-5.6-10.05-9-1.19-1.34-3-2.8-4.55-1.94-1.63,5.37,2,12.4-2.15,16.18-7,6.39-34.15.53-43.62,1.5a31.53,31.53,0,0,0,1.15,7.77,95.55,95.55,0,0,1-38.44-9.57c-6.46-3.14-12.6-7-19.44-9.21-14.84-4.73-30.89-.86-46,3-10.42,10.44-3.34,32.53-16.25,39.65-12.08,6.66-29.12-6.65-34.57-16.71-1.61-3-3.17-6.52-6.42-7.42-9.2-2.55-16.18,11.29-27.45,3.45-2.2-1.53-4.13-3.75-6.78-4.17-8.65-1.38-9.12,15.29-17.63,17.36-3,.72-6.16-.64-9.09.19-8.7,2.5-5.14,19.44-13.93,21.64-9.38,2.35-12.08-16-21.73-16.63-5.72-.39-9.8,7.63-15.43,6.11-7.77-2.1.14-10,4.51-12.22,6.26-3.17,13.59-3.41,20.16-5.84,19.44-7.2,27.69-31.12,45.89-41,17.37-9.46,26.67-21,29.75-41.73,3.36,6.53,12.53,9.24,18.91,5.6,8.43-4.81,3.31-13.1,7.93-18.67,3.87-4.67,19.47-7.69,25-7.41,8.54.44,16,5.5,23.88,8.84A61.15,61.15,0,0,0,202,504.87a14.5,14.5,0,0,0,6-.79c3.81-1.6,5.79-5.71,8-9.23,4.21-6.82,9.92-11.35,16.53-15.63,7.85-5.08,10.21-8.82,14.9-17.55,5.47-10.17,9.62-24,1.53-32.2-4.4-4.48-11.34-5.84-15.44-10.6-12.52-14.54,12.09-27.46,6.66-40-.94-2.17-3.67-2.79-5.49-4.3-6.27-5.15,3.33-12.91,5.23-17.68s1.63-7.06,5-11.46c2.69-3.5,7.75-5.56,6.9-10.91-1.13-7.09-8.35-9.55-4.86-16.29,1.23-2.38,17.64-10.82,18.53-7.14-2-8.49.24-22.56-3-29.92-2.26-5.08-9.51-5.79-11.66-12.57a14.18,14.18,0,0,1,4-14.55c2.74-2.44,6.74-4.26,7.22-7.89.3-2.27-1-4.44-1.26-6.71-.81-6.45,6.08-11.2,7.92-17.44.87-2.94.57-6.09,1.13-9.1s2.45-6.19,5.48-6.63c1.22-.18,2.55.1,3.64-.48a5.07,5.07,0,0,0,1.87-2.35l10.54-20.64c1.45-2.85,2.56-7.05-.21-8.64-1.94-1.12-4.46.12-5.89,1.83s-2.29,3.88-3.84,5.48a8.33,8.33,0,0,1-13.65-9c.8-1.9,2.33-3.84,1.61-5.77-1.13-3-5.48-1.86-8.65-2a8.48,8.48,0,0,1-7.83-8c0-1.88.59-3.74.47-5.63-.46-6.78-9.85-10.09-10.7-16.83a15,15,0,0,1,1-6.26c2.43-7.69,5.19-15.85,11.53-20.83,1.64-1.29,3.5-2.33,4.86-3.92,2.25-2.65,2.75-6.37,4.6-9.32,3.35-5.37,10.2-7.08,16.25-8.93a101.22,101.22,0,0,0,40.63-24c4.21-4.08,8.15-8.58,13.25-11.47a26,26,0,0,1,13.31-3.34c2.35,0,4.79.41,7-.46,3.61-1.46,5.18-5.91,4.77-9.78s-2.3-7.4-3.74-11a6.1,6.1,0,0,1-.58-3.47,6.36,6.36,0,0,1,1.89-2.84L374.25,1.13c.73,7.85,5.16,15.58,12.5,18.44,1.78.7,3.74,1.2,5,2.6a9.67,9.67,0,0,1,2,4.81c2.2,10.85,3.55,22,2.82,33-.42,6.44-1.56,12.85-1.4,19.3C395.59,97,404,119.47,400.36,136.82Z"/><path id="Path_3004" data-name="Path 3004" class="cls-1" d="M126.59,310.07c2.13,2.07,12.1-.24,14.55-.46,7.7-.72,15.88-14.65,22.75-12.54,1.85.57,5.47,7.24,3.1,7.29-11.05.2-3.84,14.48-6.63,14.83a7.66,7.66,0,0,1,7,3c2.87,1.64-.17,6-3.33,7s-7.44,2.22-7.27,5.52c.23,4.39,7.79,4,9.83,7.85,2.3,4.37-3.86,7.95-7.65,11.12-4.44,3.72-5.66,9.71-9.67,13.61-4.46,4.33-12.86,7.32-18.62,9.41-6.15,2.22-12.6,3.7-18.46,6.61-5.23,2.58-9.86,6.23-15,9-10,5.3-23.9,6.63-34.85,10.34-1.44.49-2.45.87-3,2.32,3.37,2.1,7.77,2.5,11.23,4.92s5.66,6.56,4.5,10.45c-.7,2.37-2.57,4.28-3.18,6.67-.87,3.34.88,6.78,2.93,9.55,1.73,2.34,3.85,4.57,6.61,5.5,4.92,1.65,18.34-4.3,23.36-6.17,8.51-3.15,18-8.95,27.12-4.44l-4.23,8.92,17.18,4.14c1.1,2.54-.79,5.57-3.31,6.7s-5.42.88-8.17.6c-.06,5,6.09,7.64,11.07,7.36s10.08-2.08,14.8-.49c8.52,2.89,10.1,14.39,16.6,20.6,6.05,5.8,15.62,6.14,23.72,4s15.52-6.4,23.59-8.7c5.09-1.44,10.56-2.17,14.93-5.16,8.13-5.56,9.73-16.84,9.16-26.67a16.66,16.66,0,0,0-1.51-6.95c-1.69-3.18-5-5-7.86-7.27-11.13-8.84-14.14-26.36-6.59-38.42,1.21-1.92,2.67-3.79,3.05-6,1.16-7-7.15-10.1-6.09-17.84A36.12,36.12,0,0,1,237,347.43c3.17-3.65,7.81-5.16,7.91-10.9.11-6.14-7.85-10.37-4.14-17.21a13.08,13.08,0,0,1,3-3.43c9.52-8.31,20.13-8.73,17.27-23.6-2.07-10.79-10.52-20.08-17.92-27.68-2.24-2.3-4.6-4.67-7.66-5.66-4.2-1.38-8.72.14-13,1.2-11.22,2.74-22.15,2.09-32.07-4.55-8.5-5.69-15.64-15.16-25.86-15.47-4.38-.13-9,1.85-11.09,5.72a10.87,10.87,0,0,0-1.18,5.93,13,13,0,0,0,6.35,10.11c7.74,4.45,13.16,7,7,14.59-4.88,6-15.32,11.25-22.6,12.9-4.21.95-8.56,2-12,4.55C127.89,296.25,122.91,306.48,126.59,310.07Z"/></g><g id="skog"><g id="Group_13" data-name="Group 13"><path id="Path_62" data-name="Path 62" class="cls-2" d="M455.13,512.05c.56-.52.08-.87-.47-1.15,1.61-.34-.6-.92-1.38-.6-.75.11-1.77-.11-1.78-.86-.9,1.36-.9-.75-1.93-1-1.6-.9-1.71,1.44-3.12.95-1.06,1-2.47-.3-3.65.89-1.44.52.11,1.73-.2,2.47-1.36-1.6-1.76,0-1.38,1.47.34,2.66-1.66,2.07-.57-.2-1.93.49-.43-1.38-.78-2.39a1.13,1.13,0,0,0-1.11-.94,1.54,1.54,0,0,1,2.17-.14,1.56,1.56,0,0,1,.4.55c.68-.22-.63-3.35,1.86-2.09-1.62-1.78,2.41.25,3.82-2.56-2-2.11-3.22.95-4.38-.85.32-.28,2-.54.74-1-1.88.45-1.32-6.27-.18-3.74,1.69-1.18.24-3.33-.52-4.67-1.13-2.34-.77-5.77-3.26-7.25-1.3-.83-2,.42-1.93,1.65-.08.63-.71,1.35-1.23,1a3.38,3.38,0,0,0-.61-4.36c-3.82,2.5-1.42-2.31-3.09-1.87a2.69,2.69,0,0,0-1-3.67,3.06,3.06,0,0,0-.49-.22c-1.41,0-1.84-1-2.12-2.21-1.8-1.41-2.34-3.93-3.9-5.37a5.24,5.24,0,0,1-2.15-2.95c-1.13-.55-3.06-.89-3-2.38.45-3.2-3.4-6.74-3.1-9.89,1.12-1,1-2,.37-3.35-.48-2.74,3.39-7.46-1.41-8.07-1.8-.77-2.21-3.73-4.17-3.92a2,2,0,0,1-2.13-1c-4.91-6.4-5.18-13.05-13.77-15.7-5.4-2.66,2.26-1.11,3.23.91,1.6.45,3.39.65,4.46,2.2,3.32,4.48,3.28,10.89,9.38,13.11,3.5,5.08,8.76,3.4,5.61,10.95.23,2,.8,3.64-.16,5.35,6.86,2.73,0,7.73,6,10.72,1.12.36.65-1.24,1.37-1.23.67.65.1.8-.14,1.46,1,.05,1.56,1.11,1.93,2,.79-1,1.5.81.38,1.21l.21.54c-1.29-.16.89,2.1.33,3.24,0,2,3.08,2.39,4.1,3.92,1.93,1.7,1.47,4.17,1.54,6.18,1-.08,2-1.39,2.6.23,1.56,1.58.08-.9-.11-1.8-.55-1.31-1.82-2.26-2.19-3.63,1.35-.24,3.85-.75,4.6.63-1.59,2.05,1,1.86-.18,4.38,3.58,3.08,4.7,8.15,6.46,12.37,0,1.14-.86,1.78-1.47,2.55.61,3.83,5.4,3.83,8,5.7,1.17-.1,1.58,1.23,2.88.87C458.72,508.39,460.62,512,455.13,512.05Z"/><path id="Path_63" data-name="Path 63" class="cls-2" d="M398.48,428c-19.5-8.25-1.05-9.89-7.46-18.56-6.06.38-8.51-7.73-10.91-12.2.47-2.73,1.15-6.39-1.58-8.05a3.5,3.5,0,0,1-2.43-2.68c-2.54-3.19-5.39,1.89-7.57,3.05-5.82.76-14.17,7.67-18.42.47a4.73,4.73,0,0,0-4.54-1.4c-10.07,4.66-6.24-2.58-13.39-4.57.1,2-1.61.65-2.68.56,1.53,2.87.29,1.06-.62,3-1.14-1.23-3.27,2.35-4.25.63.27-1.2-1.69-.88-2.29-.48a1.14,1.14,0,0,0-.41,1.55.44.44,0,0,0,.08.11,1.94,1.94,0,0,0-.41,2.49c-.44.54-2.16.25-2.73.24,2.18,2.4-3.58-.85-6.28,1.4-2.86.87-1.09-2.56,1-1.63,2.29.25,4.54-1,6.56-1.91.69-1.75-1.48-1.23-2.26-.4l-.65-.66c-1.91,1.65-.71-1.53-2.53-1.61-1.79.15-2.57,2.62-4.3,3.2a1.58,1.58,0,0,1-.26-1.21c-1.11,1-2.08-1.27-3.33-.11-3.06-.61-1-1.09.82-1.68.83.92,2.92,1,1.41-.5.91,1.09,3.14.86,2.89-.68,1,.81,1.46-.88.89-1.6,3.52,4.34,4.67-.44,3.82,3,1.49,0,2.26,1.08,2.08-1a1,1,0,0,0,1.38,0h0c-.36-.81-1.25-.94-.33-1.72.19-1.1-1.58-.4-2-.94l.71-.72c-.82-.44-1.6-1.5-2.15,0-1.14-1.1,1.15-1-.93-1.84l-.73.58a1.49,1.49,0,1,0-2.91.64s0,0,0,.06a1.1,1.1,0,0,1,.14-1.57.9.9,0,0,1,.2-.14c-1.14-.14-2.39-1.75-3.61-.44a5.13,5.13,0,0,0-3.35-2.27c1.34-1.68,2.64.4,4.19.82-.61-1.1,1-3.29-.74-2.93,1-1.53-1.27-2.07-2.39-1.84-.6-.28,0-1.43-.56-1.8-1.17,2.22-.78-.66-1-1.3l-1.65.2c.17,2.21-1.16,1.4-1.14-.24-2.4,1.4-3.27-1.48-5.16.41-.27.42-.84,1-1.08.57.65-1.23,3.52-4.14,3.81-1.33,1.76-4,1.57,1.34,5.68-.58a2.51,2.51,0,0,0,3.42.5c-2.88-.92-.32-1.13-3-1.8,2.48-.16,3,0,1.06-2.34.73.16,1.87.24.69-.6,1.09.39,1.74-2.59,2.1-3.14-1.08.51-2.9.95-1-.41L307.1,361l-1.55.9c1.1-1.34-1.5-1.63-2.22-2.13l-.94,1c-1.07-1.57-1,1.54-.67,2.24a2.49,2.49,0,0,0-1.72,2.14,1.16,1.16,0,0,0-1.63-.21,1.19,1.19,0,0,0-.44.73c-3.05.31,1.48-1.88,2.34-3s1.3-4.52-1-2.64a1.78,1.78,0,0,0-.83-1.86c.66-.25,2.22.4,1.76-.82-2.17-.75-3.4-3.47-6-2.24a1.21,1.21,0,0,0-.15-1.15c.35-.47,1.45-.54,1.19.24,1-3.37,2.2,2.37,4.42.76a1.17,1.17,0,0,0,.14-1.88c1.79-1.19,4.31-2.31.95-3.37,2.24-2.37,2.34,2.56,3.4,1.38,1.81,0,1.11-3,2.54-3.55-.5-.23.17-1.3-.33-1.54.36-.12.76-.73,1.19-.66,1.17.3-.19,2,.56,2.6,1,.55,1.44-.85,1.26-1.62a1,1,0,0,1,.61,1.28,1,1,0,0,1-.4.5,10.47,10.47,0,0,1,3.61,1.88,16.69,16.69,0,0,0-6.45-1.05c.57,1.62-1.78,2.19,1.19,3.1a8.44,8.44,0,0,0-6,2.44l.76.36c-1.67,0-.41,2.37-1,3.2l5.43.86,1.28.2c-.19,2,4.24,3.39,5.48,4.54-1.32-.71-2.61,1.44-.94,1.65-2.27-.05-.83,1.69-2.75,1.74a1,1,0,0,1-.1,1.43,1.07,1.07,0,0,1-.25.16c1.11,3.64,1.2,1.33,4.09.91-.76,1.54-5.74,2.4-2.57,3.35a.83.83,0,0,0-.84.81.82.82,0,0,0,1.59.3l-.79,1.15c.58,1,1,3.06,2.09,3.52,1.57.3.6-1.41,1.93-.62-1,1.61.88,2.57,1.65.6-1.63-2.09.28-1.94.95.07a1.16,1.16,0,0,0-.46,1.58h0c.45.78,1.51.86,1.6-.17a1,1,0,0,0,1.38,0c.38,3.25,3.36.74.91-.77,1.67-.35.53-1,1.67-2-.2,2.2,1.12,4.85-1.83,5.15,1.18.78,1.07,1,2.2.09-1.1,2,.63,3.85,2.6,4.2,1.09-.82.38-2.55,2-1.35a3,3,0,0,0-1-4c1.94-1.8.48-5.14,2.38-1.16-2.21,0,.26,3.19,1.46,3.19a4.73,4.73,0,0,1,5.75,2.31c2.92,7.14,11-1.3,14.93,3.83-.07,2.72,4.16,2.78,6.12,2.57a15.69,15.69,0,0,1,5.73-1.78c1.31-1,3.17-1.15,4.26-2.32,1.53-.77,3.47-.64,4.71-2.18,2.18-1.73,4.62,0,5.83,2,2.93,1.77,3.72,4.89,3.07,8.25.11,4.31,3.09,8.36,6.28,11.26,1.12,1.58,3.34.5,4.51,1.94,3.62,4.15-2.53,8.36-2.1,12.5C391.93,424.65,396.16,425.14,398.48,428Z"/><path id="Path_64" data-name="Path 64" class="cls-2" d="M298.22,358.26c.59-.67.33-1.14-.31-1.07.64-2.35-2.52-2.71-4.13-2l.27-1.14a2.23,2.23,0,0,1-2.12-1.85,23.93,23.93,0,0,1,3.82,1.65c1.25-2.56,2.4,2.86,4.17.85.62-2.71-.37-1.5,2.51-3.73-1.56-2.7-5.64-1.16-6.46-4.15,0-.93,1-1.59,1.09-2.52a.79.79,0,0,1-.77-.8.88.88,0,0,1,.07-.32c-2.41.54-4.7-1.4-7.16-1.51-2,.33-3.09-1.18-4.17-2.69-.92-1.06-2.72-1.66-3.68-.63.22-1.93-1-1.58-1.76-3,2.81-1.42-1.57-2.62-2.48-3.54,1.6.9,7.84,2.2,4.32,3.9.65,1.53,3.07,1,4.33,2.1.8,1.23,4.76,4.49,3.58,1.24.52,2,6.17,4.22,5.74,1.38,1.12.35,2,2.69,2.95,1.42.75,1-.24,2.43-.11,3.69.29,2.78,5.39,2.85,5.7,5.63,1.39-1,4.61-5.31,1.46-5.86l.85-.26c-1.56-7.24-7.6-12.41-12.78-15.87.53-2.59-2.43-4.89-1.85-7.13-2.91-1-5.31-4.45-6-7.4.37-1.9-1.43-3.4-1.31-5.13.12-3.77.87-18-4.5-13,0-.55-.66-3.16-.34-3.67,2.79-1.11,1.29-4.92,3.23-6.5,1.1,2.22,4,1.21,1.18-.51,3.27-.7,6.09-2.69,6.57-6.2a9.54,9.54,0,0,0-3.08,2.42c-1.07-1.6-2.1.11-3.8-1,.3,1.65-2.41.13-2.9,1,1,2.53-1.64,6.05-4.17,4.13-.92-1.45-4-2.95-2.31-4.44l-.61-1.1c2.87.37,2.45-4.3,4.6-5.16.5-2.12-2-3.24-3.26-4.46-2-1.92-3.11-5.06-4.73-7.31-.8-1.11-1.77-2.59-3.05-3.2-.81-.39-3.47-.36-1.86-1.84a3,3,0,0,1,1.67-.61,3.3,3.3,0,0,1,1.13,0,3.39,3.39,0,0,1,1.12.57c.84.57,3.42,1.92,3.61,3,.12.71-1.8,2.45-2,2,.65,1.48,2.81,1.81,3.44,3.29-.27,3.81,2.81,4.25,4.63,6.78,1,3-2.74,5.14-3.48,7.82-1.34,4.9,5,7.06,4.39-.22.79-1.81,8.2,0,3.73-2.17-1.14-3.82,2.1,1.73,4.54,0l-.94-1.85c1,.63,2.68,1.59,2.65-.26-1.43,4.21,2.41-1.42,3.35,2.47-.16,1.52-3.18,1.77-2.81,3.26,2.1-.19,4.19-.47,6.27-.86.68,2.24-2.65,1-3.62,1.14l-.75,1.5c-1.76-1.59-3.14,2.07-5.11,1.9-2.57,1.83,2.16.24,1.94,2.65-1-.91-3.37-1.27-3.31.55-2.16-1.87-3.47,1.88-2.31,3.64l-1.32-.34c-.7-.34-1,1.05-.38,1.5,2.14.54,3.56,1.62,3.07,4.14,0,7-.24,16.45,5.4,21.43a5.88,5.88,0,0,1,4.11,5.46c1.64.39-1.39,3.62,5.23,5.6.17-2.55-.12-5.6,1.29-7.8,1.2,1.32-1.23,5.22-.25,7.76l1.8-.27c-.32.79-1.62.83-1.85,1.65-.38,1.36,2.4,1.3,2.92,2.62-3,.27,1.21,1,2.21,4,3.46,2.86.3,2.92,1.95,5.49.61-.75.26-4.06,2-2.92L308,343a1.48,1.48,0,0,1-.11,2.09,1.54,1.54,0,0,1-.67.35c.71.83,1.33,1.05.5,2.4,4,1.47-1.89-4.17,5.15,2-1.4-.27-4.75-.95-6.17-1,1.1,1.67-1.78,1.87,1.06,3.34-1.43-.35-5.92.74-4.75,2.37-.86.48-1.7.95-1,2-.87,2.25,1.62,1.48,3.13,1.91.59.21,1.69,0,1.44-.81,3.76,1.45.55,2.88-1.69,2.67-.67-.32-.75-.74-1.47-.55-.4.11-.89,1.42-.94,1-1-1.24-.29,1.42-.67,2.23-.63-1.34-.57-4.94-2.26-3.11C298.64,360,300.75,358.18,298.22,358.26Z"/></g></g></g><ellipse id="Ellipse_45" data-name="Ellipse 45" cx="265.57" cy="255.21" rx="6.5" ry="6"/><circle id="Ellipse_46" data-name="Ellipse 46" cx="457.57" cy="511.71" r="6.5"/><g id="_A_map_of_England_to_illustrate_the_length_of_the_Catawba_River._" data-name=" A map of England to illustrate the length of the Catawba River. " class="cls-3"><text class="cls-4" transform="translate(179.7 618.58)">A <tspan class="cls-5" x="13.13" y="0">m</tspan><tspan class="cls-6" x="24.38" y="0">a</tspan><tspan x="30.19" y="0">p of </tspan><tspan class="cls-7" x="55.24" y="0">E</tspan><tspan class="cls-8" x="63.57" y="0">n</tspan><tspan class="cls-9" x="71.29" y="0">g</tspan><tspan class="cls-10" x="77.89" y="0">l</tspan><tspan class="cls-11" x="81.49" y="0">and </tspan><tspan class="cls-12" x="105.73" y="0">t</tspan><tspan x="110.49" y="0">o i</tspan><tspan class="cls-13" x="124.5" y="0">l</tspan><tspan class="cls-14" x="128.25" y="0">l</tspan><tspan class="cls-15" x="131.85" y="0">u</tspan><tspan class="cls-8" x="139.21" y="0">s</tspan><tspan class="cls-16" x="143.94" y="0">t</tspan><tspan class="cls-10" x="148.5" y="0">r</tspan><tspan class="cls-6" x="153.54" y="0">a</tspan><tspan class="cls-17" x="159.36" y="0">t</tspan><tspan x="164.11" y="0">e </tspan></text><text class="cls-4" transform="translate(179.7 643.58)"><tspan class="cls-18">t</tspan><tspan x="4.65" y="0">he l</tspan><tspan class="cls-19" x="24.87" y="0">e</tspan><tspan class="cls-20" x="30.6" y="0">n</tspan><tspan class="cls-21" x="38.32" y="0">g</tspan><tspan class="cls-18" x="45.06" y="0">t</tspan><tspan x="49.71" y="0">h of </tspan><tspan class="cls-18" x="75.01" y="0">t</tspan><tspan x="79.66" y="0">he </tspan><tspan class="cls-22" x="96.22" y="0">C</tspan><tspan class="cls-6" x="106.69" y="0">a</tspan><tspan class="cls-23" x="112.51" y="0">t</tspan><tspan class="cls-24" x="117.19" y="0">a</tspan><tspan x="122.94" y="0">w</tspan><tspan class="cls-25" x="132.75" y="0">b</tspan><tspan x="140.1" y="0">a Ri</tspan><tspan class="cls-6" x="162.3" y="0">v</tspan><tspan class="cls-23" x="168.51" y="0">e</tspan><tspan class="cls-26" x="174.24" y="0">r</tspan><tspan x="178.6" y="0">.</tspan></text></g><g id="LIVERPOOL" class="cls-3"><text class="cls-27" transform="translate(103.51 230.69)">LIVERPOOL</text></g><g id="LONDON_VICTORIA" data-name="LONDON VICTORIA" class="cls-3"><text class="cls-27" transform="translate(223.07 550.8)">LONDON VICTORIA</text></g></g></g></svg>