<svg xmlns="http://www.w3.org/2000/svg" xmlns:xlink="http://www.w3.org/1999/xlink" viewBox="0 0 1160.39 1136.84"><defs><style>.cls-1,.cls-36,.cls-37,.cls-38{fill:none;}.cls-2,.cls-3,.cls-31{isolation:isolate;}.cls-3,.cls-31{font-size:30px;}.cls-3{font-family:GaramondPremrPro-It, Garamond Premier Pro;font-style:italic;}.cls-4{letter-spacing:-0.01em;}.cls-5{letter-spacing:-0.01em;}.cls-6{letter-spacing:-0.01em;}.cls-7{letter-spacing:-0.01em;}.cls-8{letter-spacing:0em;}.cls-9{letter-spacing:-0.01em;}.cls-10{letter-spacing:0em;}.cls-11{letter-spacing:-0.01em;}.cls-12{letter-spacing:0em;}.cls-13{letter-spacing:0em;}.cls-14{letter-spacing:-0.01em;}.cls-15{letter-spacing:0em;}.cls-16{letter-spacing:-0.01em;}.cls-17{letter-spacing:-0.04em;}.cls-18{letter-spacing:-0.01em;}.cls-19{letter-spacing:-0.01em;}.cls-20{letter-spacing:0em;}.cls-21{letter-spacing:-0.01em;}.cls-22{letter-spacing:0.01em;}.cls-23{letter-spacing:0em;}.cls-24{letter-spacing:0em;}.cls-25{letter-spacing:-0.01em;}.cls-26{letter-spacing:0.01em;}.cls-27{letter-spacing:0.03em;}.cls-28{letter-spacing:-0.01em;}.cls-29{letter-spacing:-0.01em;}.cls-30{letter-spacing:0em;}.cls-31{font-family:GaramondPremrPro, Garamond Premier Pro;}.cls-32{letter-spacing:0.01em;}.cls-33{letter-spacing:-0.02em;}.cls-34{letter-spacing:0.01em;}.cls-35{clip-path:url(#clip-path);}.cls-36,.cls-37,.cls-38{stroke:#000;stroke-miterlimit:10;}.cls-36{stroke-width:2px;}.cls-38{stroke-linecap:round;}</style><clipPath id="clip-path" transform="translate(-2.56 -24.01)"><rect class="cls-1" width="1162.95" height="1160.86"/></clipPath></defs><g id="Lager_2" data-name="Lager 2"><g id="båt"><g id="_Having_the_knowledge_of_these_trail_trees_could_mean_the_difference_between_life_and_death_between_eating_and_starving_between_crossing_the_river_correctly_or_incorrectly_-_Dennis_Downes_" data-name=" Having the knowledge of these trail trees could mean the difference between life and death between eating and starving between crossing the river correctly or incorrectly - Dennis Downes " class="cls-2"><text class="cls-3" transform="translate(293.29 180.45)"> <tspan class="cls-4" x="5.97" y="0">H</tspan><tspan class="cls-5" x="29.04" y="0">a</tspan><tspan x="42.24" y="0">vi</tspan><tspan class="cls-6" x="62.88" y="0">n</tspan><tspan x="77.79" y="0">g </tspan><tspan class="cls-7" x="95.37" y="0">t</tspan><tspan class="cls-8" x="103.98" y="0">h</tspan><tspan x="118.56" y="0">e </tspan><tspan class="cls-9" x="134.88" y="0">k</tspan><tspan class="cls-10" x="147.72" y="0">n</tspan><tspan x="162.78" y="0">o</tspan><tspan class="cls-11" x="174.81" y="0">w</tspan><tspan class="cls-12" x="193.59" y="0">l</tspan><tspan class="cls-4" x="201.45" y="0">e</tspan><tspan class="cls-5" x="211.62" y="0">d</tspan><tspan class="cls-13" x="225.81" y="0">g</tspan><tspan x="237.57" y="0">e of </tspan><tspan class="cls-14" x="279.5" y="0">t</tspan><tspan class="cls-15" x="288.12" y="0">he</tspan><tspan x="312.92" y="0">se </tspan></text><text class="cls-3" transform="translate(323.3 225.45)"><tspan class="cls-16">t</tspan><tspan class="cls-17" x="8.79" y="0">r</tspan><tspan x="18.24" y="0">a</tspan><tspan class="cls-18" x="31.71" y="0">i</tspan><tspan x="39.42" y="0">l </tspan><tspan class="cls-16" x="53.13" y="0">t</tspan><tspan class="cls-10" x="61.92" y="0">r</tspan><tspan x="72.39" y="0">e</tspan><tspan class="cls-8" x="82.74" y="0">e</tspan><tspan x="92.97" y="0">s </tspan><tspan class="cls-10" x="107.34" y="0">c</tspan><tspan x="116.58" y="0">o</tspan><tspan class="cls-19" x="128.61" y="0">u</tspan><tspan x="143.04" y="0">ld </tspan><tspan class="cls-20" x="171.21" y="0">me</tspan><tspan x="203.46" y="0">an </tspan><tspan class="cls-7" x="238.11" y="0">t</tspan><tspan class="cls-15" x="246.72" y="0">h</tspan><tspan x="261.3" y="0">e </tspan></text><text class="cls-3" transform="translate(279.56 270.45)"><tspan class="cls-21">d</tspan><tspan class="cls-20" x="14.25" y="0">i</tspan><tspan class="cls-7" x="22.14" y="0">ff</tspan><tspan class="cls-22" x="36.57" y="0">e</tspan><tspan class="cls-20" x="47.16" y="0">r</tspan><tspan class="cls-22" x="57.63" y="0">e</tspan><tspan class="cls-20" x="68.22" y="0">nc</tspan><tspan x="92.52" y="0">e b</tspan><tspan class="cls-10" x="122.58" y="0">e</tspan><tspan class="cls-11" x="132.78" y="0">t</tspan><tspan class="cls-23" x="141.54" y="0">we</tspan><tspan class="cls-22" x="170.88" y="0">e</tspan><tspan x="181.47" y="0">n l</tspan><tspan class="cls-20" x="210.39" y="0">i</tspan><tspan class="cls-7" x="218.28" y="0">f</tspan><tspan x="225.54" y="0">e and </tspan><tspan class="cls-24" x="290.96" y="0">d</tspan><tspan class="cls-10" x="305.54" y="0">e</tspan><tspan class="cls-16" x="315.74" y="0">a</tspan><tspan class="cls-7" x="329.03" y="0">t</tspan><tspan x="337.64" y="0">h, </tspan></text><text class="cls-3" transform="translate(303.25 315.45)">b<tspan class="cls-10" x="13.74" y="0">e</tspan><tspan class="cls-11" x="23.94" y="0">t</tspan><tspan class="cls-23" x="32.7" y="0">we</tspan><tspan class="cls-22" x="62.04" y="0">e</tspan><tspan x="72.63" y="0">n </tspan><tspan class="cls-10" x="93.81" y="0">e</tspan><tspan class="cls-16" x="104.01" y="0">a</tspan><tspan class="cls-5" x="117.3" y="0">t</tspan><tspan x="126" y="0">i</tspan><tspan class="cls-25" x="134.04" y="0">n</tspan><tspan x="148.95" y="0">g and </tspan><tspan class="cls-20" x="215.64" y="0">s</tspan><tspan class="cls-7" x="223.89" y="0">t</tspan><tspan x="232.5" y="0">a</tspan><tspan class="cls-26" x="245.97" y="0">r</tspan><tspan x="256.8" y="0">vi</tspan><tspan class="cls-6" x="277.44" y="0">n</tspan><tspan class="cls-27" x="292.34" y="0">g</tspan><tspan x="304.97" y="0">, </tspan></text><text class="cls-3" transform="translate(274.33 360.45)">b<tspan class="cls-10" x="13.74" y="0">e</tspan><tspan class="cls-11" x="23.94" y="0">t</tspan><tspan class="cls-23" x="32.7" y="0">we</tspan><tspan class="cls-22" x="62.04" y="0">e</tspan><tspan x="72.63" y="0">n c</tspan><tspan class="cls-20" x="103.2" y="0">r</tspan><tspan class="cls-28" x="113.67" y="0">o</tspan><tspan x="125.31" y="0">s</tspan><tspan class="cls-20" x="133.71" y="0">s</tspan><tspan x="141.96" y="0">i</tspan><tspan class="cls-25" x="150" y="0">n</tspan><tspan x="164.91" y="0">g </tspan><tspan class="cls-14" x="182.49" y="0">t</tspan><tspan class="cls-15" x="191.1" y="0">h</tspan><tspan x="205.68" y="0">e r</tspan><tspan class="cls-29" x="232.62" y="0">i</tspan><tspan x="240.42" y="0">v</tspan><tspan class="cls-22" x="253.02" y="0">e</tspan><tspan x="263.6" y="0">r </tspan><tspan class="cls-20" x="280.19" y="0">c</tspan><tspan class="cls-30" x="289.43" y="0">o</tspan><tspan class="cls-23" x="301.34" y="0">r</tspan><tspan class="cls-10" x="311.96" y="0">r</tspan><tspan x="322.43" y="0">ec</tspan><tspan class="cls-7" x="342.17" y="0">t</tspan><tspan class="cls-9" x="350.78" y="0">l</tspan><tspan x="358.07" y="0">y </tspan></text><text class="cls-3" transform="translate(388.63 405.45)"><tspan class="cls-15">o</tspan><tspan x="11.91" y="0">r i</tspan><tspan class="cls-20" x="36.54" y="0">nc</tspan><tspan class="cls-30" x="60.84" y="0">o</tspan><tspan class="cls-23" x="72.75" y="0">r</tspan><tspan class="cls-10" x="83.37" y="0">r</tspan><tspan x="93.84" y="0">ec</tspan><tspan class="cls-7" x="113.58" y="0">t</tspan><tspan class="cls-9" x="122.19" y="0">l</tspan><tspan x="129.48" y="0">y</tspan></text><text class="cls-31" transform="translate(360.85 450.45)">- <tspan class="cls-32" x="14.73" y="0">D</tspan><tspan class="cls-6" x="37.59" y="0">e</tspan><tspan class="cls-33" x="49.05" y="0">n</tspan><tspan class="cls-34" x="64.17" y="0">n</tspan><tspan x="79.98" y="0">is </tspan><tspan class="cls-32" x="103.17" y="0">D</tspan><tspan class="cls-29" x="126.03" y="0">o</tspan><tspan class="cls-18" x="140.25" y="0">w</tspan><tspan x="159.54" y="0">nes</tspan></text></g><g id="Group_297" data-name="Group 297"><g class="cls-35"><g id="Group_296" data-name="Group 296"><path id="Path_2083" data-name="Path 2083" class="cls-36" d="M252.83,85.05c-13.4,166,6.09,247.6,0,414.09-1.66,45.32-2.83,92.08,13,134.46s53.21,79.74,97.74,80.91c19.09.5,37.7-5.52,55.86-11.55,68.51-22.77,139.37-48.49,189.4-101.33,17.78-18.78,32.55-40.82,41.33-65.33,8.92-24.88,11.49-51.57,14-77.94,12.49-131.59,30-302.67,42.54-434.26" transform="translate(-2.56 -24.01)"/><path id="Path_2084" data-name="Path 2084" class="cls-36" d="M122.75,114.6c3.21,74.32-1.54,59.61,1.68,133.94,2.21,51.08,4.41,102.41-1.68,153.2-4.58,38.2-13.8,75.77-18.59,114-12.36,98.56,5.13,198.9-7.36,297.45-.92,7.28-2.12,14.83-6.41,20.9-13,18.38-43,12.05-64,21.51-23,10.37-30.43,43.15-14,61.73C27.91,934.86,61,944.72,56.62,967.35l155.64-42.94c38.31-10.58,76.9-21.25,112.44-38.55,36.57-17.78,69.18-42.23,105.25-60.92C483.69,797.1,543.71,782.7,603,768.58L802.63,721c47.94-11.42,107-19.82,139.49,15.79C972.9,770.53,960,822,948.92,865.49A804.15,804.15,0,0,0,925.75,1115" transform="translate(-2.56 -24.01)"/><path id="Path_2085" data-name="Path 2085" class="cls-36" d="M1145.73,1102.37a1068.73,1068.73,0,0,1-21.67-407.24c3.46-24.65,5.83-54.33-14.6-69.69-5.7-4.28-12.67-6.88-18.15-11.43-17.77-14.73-8.11-48.26,15-52.17,11.59-12.67,5.48-33.46-7-45.34s-29.51-18-44.3-27.16c-12.07-7.45-23.53-17.27-37.79-18.95-15.38-1.82-29.88,6.3-43.33,13.68a696.62,696.62,0,0,1-221,76.23c-1.82-181.87,7.74-306,29.5-486.69" transform="translate(-2.56 -24.01)"/><path id="Path_2086" data-name="Path 2086" d="M882.67,618.75c33.28-.27,72.15,3.44,94.76,29.7,1.35,1.78,2.63,3.59,3.89,5.39-24.15-27.46-63.9-30.51-98.65-35.09" transform="translate(-2.56 -24.01)"/><path id="Path_2087" data-name="Path 2087" d="M1026.25,642c26.6,16.73,43.73,46.39,45.43,76.72q.09,3,.07,6.06c-.58-3.43-1.45-8.4-2.28-11.83-6.24-27.25-21.62-52.21-43.22-70.95" transform="translate(-2.56 -24.01)"/><path id="Path_2088" data-name="Path 2088" d="M936.46,659.48c22.57,15.62,37.2,40.72,40.93,67,3.71,25.87,10.55,52.17,7.45,78.47a121.54,121.54,0,0,0-1.07-19.63c-1.3-13-7.62-45-9.9-58.33-3.34-25.92-17.14-50.14-37.41-67.53" transform="translate(-2.56 -24.01)"/><path id="Path_2089" data-name="Path 2089" d="M1004.55,822.69a124.56,124.56,0,0,1,10.1,41.34,124.68,124.68,0,0,1-10.1-41.35" transform="translate(-2.56 -24.01)"/><path id="Path_2090" data-name="Path 2090" d="M991.3,896.82a79.79,79.79,0,0,1-7.66,45.67c2.28-15.5,4.78-30.26,7.66-45.67" transform="translate(-2.56 -24.01)"/><path id="Path_2091" data-name="Path 2091" d="M956.66,895.33a66.55,66.55,0,0,1-3.15,42.95c1-14.58,2-28.38,3.15-42.95" transform="translate(-2.56 -24.01)"/><path id="Path_2092" data-name="Path 2092" d="M982.45,942.92c6.23,15.93,1.61,35.88-11.13,47.76a83.78,83.78,0,0,0,11.13-47.76" transform="translate(-2.56 -24.01)"/><path id="Path_2093" data-name="Path 2093" d="M1007.71,1014a91.3,91.3,0,0,1-.48,41.59,171.23,171.23,0,0,1,.48-41.59" transform="translate(-2.56 -24.01)"/><path id="Path_2094" data-name="Path 2094" d="M1093.37,1012.81a415.57,415.57,0,0,0,25.63,45.8,79.59,79.59,0,0,1-25.63-45.8" transform="translate(-2.56 -24.01)"/><path id="Path_2095" data-name="Path 2095" d="M1033.7,982.92a108.35,108.35,0,0,1,5.12,54.79c-1.89-18.45-3.53-36.31-5.12-54.79" transform="translate(-2.56 -24.01)"/><path id="Path_2096" data-name="Path 2096" d="M1003.21,824.15c.66,9.57,5.37,18,10,26.26,14.93,24.83,19.42,55.74,10.6,83.27a129.65,129.65,0,0,0-2.66-55.87c-3.73-18.44-18.82-34.34-18-53.66" transform="translate(-2.56 -24.01)"/><path id="Path_2097" data-name="Path 2097" d="M1012.94,598.7c-2.91,13.4,12.81,18.91,20,27.87,2.72,3.35,4,7.35,5.56,11.2,4.1,11,6.66,23.53,9.29,34.93.82,3.91,1.8,7.78,2.76,11.68-8.5-18-10.5-38.56-20.3-55.9-6.76-8.59-22.72-16.92-17.31-29.78" transform="translate(-2.56 -24.01)"/><path id="Path_2098" data-name="Path 2098" d="M1106,676.42c-16.33,20.15-28,43.62-33.26,68.62-.71,3.14-1.5,7.68-2.06,10.82-.62-29.54,12.6-59.43,35.32-79.44" transform="translate(-2.56 -24.01)"/><path id="Path_2099" data-name="Path 2099" d="M980.08,524c22.92-.08,45.3,17.45,49.77,39-9.65-19.68-27.7-33.86-49.77-39" transform="translate(-2.56 -24.01)"/><path id="Path_2100" data-name="Path 2100" d="M1037.32,540.62c9.77,1.79,17.7,11.38,17.22,20.9a72.92,72.92,0,0,0-17.22-20.9" transform="translate(-2.56 -24.01)"/><path id="Path_2101" data-name="Path 2101" d="M1003.29,505.78c12.6-6.64,25.93,5.35,30.55,16.1-9.13-7.66-17.38-17.45-30.55-16.1" transform="translate(-2.56 -24.01)"/><path id="Path_2102" data-name="Path 2102" d="M881.18,622.78c21.91-1.37,44.6-2.54,65.65,4.72C990.6,643,1007,692.45,1005,733.62c-1.67,42.32-14.06,83.3-13.08,125.74-.66,31.56,3.73,63.5-1.09,95-1.73,10.56-5.9,20.55-9.87,30.32a111.22,111.22,0,0,0-7.93,61.81c-4.19-20.74-1.65-42.63,6.3-62.39,3.82-9.91,7.75-19.73,9.29-30.09,4.18-31.35-.52-63.05.06-94.63a371.24,371.24,0,0,1,5.18-63.24c6.72-40.91,15.25-84.57-3.12-123.75-21.17-46.51-61.61-52.18-109.55-49.58" transform="translate(-2.56 -24.01)"/><path id="Path_2103" data-name="Path 2103" d="M834.59,646.88c-50.92-5.4-92.6,8.9-136.49,32l-42.54,21-1-3.2c60.92-6.31,121.32-27.08,183.29-21.69-64.53-2.78-128.9,20.57-192.7,26.14,28.9-13.46,65.23-33.16,95-44.37a195.57,195.57,0,0,1,94.48-9.83" transform="translate(-2.56 -24.01)"/><path id="Path_2104" data-name="Path 2104" d="M340.19,796.55a158.84,158.84,0,0,1,83.21-12.81,408.64,408.64,0,0,0-83.21,12.81" transform="translate(-2.56 -24.01)"/><path id="Path_2105" data-name="Path 2105" d="M468.38,765.44a381.46,381.46,0,0,0,98-34.26c2-1.09,4.1-2.15,6.18-3.18a208,208,0,0,1-104.22,37.44" transform="translate(-2.56 -24.01)"/><path id="Path_2106" data-name="Path 2106" d="M251.81,842.11c13.19-1,25.3-7.17,33-16.76,4.08-4.79,6.29-12.29,13.22-14.53,6.82-2.49,13.74-1.07,20.06.47-6.54-.29-13.42-.57-18.94,2-6.1,2.72-7.37,9.39-11.52,14.18-8.3,10.3-22.39,16.46-35.85,14.68" transform="translate(-2.56 -24.01)"/><path id="Path_2107" data-name="Path 2107" d="M254.85,866.77c28.18,3.11,49.43-24.7,77.77-20.63-27.45.73-49.44,28.63-77.77,20.63" transform="translate(-2.56 -24.01)"/><path id="Path_2108" data-name="Path 2108" d="M366.35,817.24c20.84-7.51,36.15-24.43,58.12-29.87,21.29-5.65,44.23-2.94,63.76-13.86A53.69,53.69,0,0,1,473.67,781c-15.55,5.27-32.65,5.51-48.26,9.63-21.15,5.07-37.68,21.74-59.06,26.58" transform="translate(-2.56 -24.01)"/><path id="Path_2109" data-name="Path 2109" d="M652.14,721.28c33.59,1.08,64.09-15.31,97.18-18.08q3.33-.21,6.65-.3c-2.18.42-4.35.83-6.52,1.19L743,705.52c-29.15,6.66-60.28,21.09-90.87,15.76" transform="translate(-2.56 -24.01)"/><path id="Path_2110" data-name="Path 2110" d="M740.42,683c21.27,1.93,41.14-11.71,59.07-20.81q9.46-5,19.29-9.32C797,666.48,767.83,690,740.42,683" transform="translate(-2.56 -24.01)"/><path id="Path_2111" data-name="Path 2111" d="M862.64,639.62c9.57,1.14,19.19,2.7,28.33,6.25,9.26,3.24,16.78,10.1,23.47,16.69,9.7,10.46,25.32,14.06,33.47,26.07,2.6,4,4.17,8.9,3.14,13.48a18.43,18.43,0,0,0-4.58-12.53c-9-11-24.9-14.06-34.53-24.6-6.66-6.65-13.24-12.89-22.07-16.73-8.61-4-18-6.12-27.23-8.63" transform="translate(-2.56 -24.01)"/><path id="Path_2112" data-name="Path 2112" d="M998.82,710c-2.79,27.55-4,55.16-2.55,82.82l.55,11.89a202.1,202.1,0,0,1,2-94.72" transform="translate(-2.56 -24.01)"/><path id="Path_2113" data-name="Path 2113" d="M1034.69,733.85c4.76,15.59,7,32.2,4.74,48.36-1.75,16-5,32-.68,47.89a53.57,53.57,0,0,1-3.69-11.7c-2-12.11-.48-24.54.82-36.54,2.35-16.12.83-31.93-1.19-48" transform="translate(-2.56 -24.01)"/><path id="Path_2114" data-name="Path 2114" d="M1090.23,687.68c-16.51,32.27-13.38,70.45-12.64,105.4-.82-4.45-1.38-8.91-2-13.37-3.79-30.93-3.94-65.1,14.67-92" transform="translate(-2.56 -24.01)"/><path id="Path_2115" data-name="Path 2115" d="M1023.29,638.66c.33,15.17,17.89,27.44,12,43.08.7-15.4-16.76-27.34-12-43.08" transform="translate(-2.56 -24.01)"/><path id="Path_2116" data-name="Path 2116" d="M1036.13,541.92c9.62,11.27-3.73,30.07-5.79,42.37l-1.76,9.09c-2-14.75-7.11-29.16-18.39-39.88a64.17,64.17,0,0,0-9.41-7.84,53.08,53.08,0,0,1,29.56,38h-3.47c1.4-6.58,5.38-14.78,7.87-21,2.37-6.56,5.7-14.3,1.39-20.75" transform="translate(-2.56 -24.01)"/><path id="Path_2117" data-name="Path 2117" d="M1055.94,603c11.87,7.55,20.08,20.73,21.32,34.33A208.32,208.32,0,0,0,1055.94,603" transform="translate(-2.56 -24.01)"/><path id="Path_2118" data-name="Path 2118" d="M799.64,575.46c28.05-28.68,66.66-47.79,107.15-53.94,2.7-.37,5.41-.7,8.11-1-4.54,1.08-11.21,2.67-15.78,4a272.74,272.74,0,0,0-99.48,51" transform="translate(-2.56 -24.01)"/><path id="Path_2119" data-name="Path 2119" d="M584.38,657c13.67-6.59,26.53-12.9,40.14-19.62A71.32,71.32,0,0,1,584.38,657" transform="translate(-2.56 -24.01)"/><path id="Path_2120" data-name="Path 2120" d="M748.52,624.78c16.44-7.86,35,4.76,51.71,2.77l15.4-1.75c-20.29,7.18-41.44,14.27-62.77,17.78l23.57-7.86c7.82-2.69,15.64-5.3,23.41-8.08l.83,3.28c-18,2.22-34.37-11.29-52.15-6.14" transform="translate(-2.56 -24.01)"/><path id="Path_2121" data-name="Path 2121" d="M1024.59,769.27a119.09,119.09,0,0,1,3.9,41.46,119.09,119.09,0,0,1-3.9-41.46" transform="translate(-2.56 -24.01)"/><path id="Path_2122" data-name="Path 2122" d="M1043.4,847.86a87.13,87.13,0,0,1,0,35.6,87.13,87.13,0,0,1,0-35.6" transform="translate(-2.56 -24.01)"/><path id="Path_2123" data-name="Path 2123" d="M1058.23,777.12c6.73,27.68,12.21,55.71,13.62,84.19.8,14.11-1,28.44-.27,42.47,1,14.09,7.14,27.27,12.77,40.2a199.68,199.68,0,0,1-9.78-19.17c-9.53-20-4.86-42.22-6.27-63.36-1-27.86-6.2-56.65-10.07-84.33" transform="translate(-2.56 -24.01)"/><path id="Path_2124" data-name="Path 2124" d="M1089.77,702.49c-1.15,21-2,41.32-2.76,62.28a128.92,128.92,0,0,1,2.76-62.28" transform="translate(-2.56 -24.01)"/><path id="Path_2125" data-name="Path 2125" d="M946.25,686.83a154.41,154.41,0,0,1,25.55,79.32,417.87,417.87,0,0,0-25.55-79.32" transform="translate(-2.56 -24.01)"/><path id="Path_2126" data-name="Path 2126" d="M853.26,687.45c22.63-.56,45.87,10.49,59.06,28.11a130,130,0,0,0-59.06-28.11" transform="translate(-2.56 -24.01)"/><path id="Path_2127" data-name="Path 2127" d="M214.74,834.38a183.18,183.18,0,0,1,41.8-.48,95.41,95.41,0,0,1-41.8.48" transform="translate(-2.56 -24.01)"/><path id="Path_2128" data-name="Path 2128" d="M253.38,813.82A292.36,292.36,0,0,0,295,806a54.63,54.63,0,0,1-41.58,7.83" transform="translate(-2.56 -24.01)"/><path id="Path_2129" data-name="Path 2129" d="M182.26,683.21a34.6,34.6,0,0,1,0,22.25,34.73,34.73,0,0,1,0-22.25" transform="translate(-2.56 -24.01)"/><path id="Path_2130" data-name="Path 2130" d="M176.08,729.2a44.15,44.15,0,0,1,0,25.21,44.15,44.15,0,0,1,0-25.21" transform="translate(-2.56 -24.01)"/><path id="Path_2131" data-name="Path 2131" d="M211.53,606.07c-3.37,35-5.63,73.08-6.5,108.25a322.52,322.52,0,0,1,6.5-108.25" transform="translate(-2.56 -24.01)"/><path id="Path_2132" data-name="Path 2132" d="M232.62,725a97.63,97.63,0,0,1,9.29,72.32A196.1,196.1,0,0,0,232.62,725" transform="translate(-2.56 -24.01)"/><path id="Path_2133" data-name="Path 2133" d="M180.59,359.87a897.35,897.35,0,0,1,1.94,114.2,897.38,897.38,0,0,1-1.94-114.2" transform="translate(-2.56 -24.01)"/><path id="Path_2134" data-name="Path 2134" d="M160.63,508.19c-.37,36.05-8.75,71.79-17.16,106.79,3.54-35.26,12-71.72,17.16-106.79" transform="translate(-2.56 -24.01)"/><path id="Path_2135" data-name="Path 2135" d="M230.36,170a737.47,737.47,0,0,1,.88,75.67,266.46,266.46,0,0,1-.88-75.67" transform="translate(-2.56 -24.01)"/><path id="Path_2136" data-name="Path 2136" d="M190,291.63A217.08,217.08,0,0,1,190,348a218,218,0,0,1,0-56.37" transform="translate(-2.56 -24.01)"/><path id="Path_2137" data-name="Path 2137" d="M695.55,291.63a206.64,206.64,0,0,1,0,54.88,205.8,205.8,0,0,1,0-54.88" transform="translate(-2.56 -24.01)"/><path id="Path_2138" data-name="Path 2138" d="M694,389.53a163.92,163.92,0,0,1,0,49,163.92,163.92,0,0,1,0-49" transform="translate(-2.56 -24.01)"/><path id="Path_2139" data-name="Path 2139" d="M681.59,474.08a252.5,252.5,0,0,1-1.78,60.8,253.53,253.53,0,0,1,1.78-60.8" transform="translate(-2.56 -24.01)"/><path id="Path_2140" data-name="Path 2140" d="M711.38,500.79c.65,35.48.26,72.86-1.35,108.28a528.14,528.14,0,0,1,1.35-108.28" transform="translate(-2.56 -24.01)"/><path id="Path_2141" data-name="Path 2141" d="M635.71,624.37a85.61,85.61,0,0,0,21.87-38.17l2.93-11.34.45,11.77c1.86,11.59,12.16,21.11,13.24,33.17-.05,4.35-2.38,8.06-4.4,11.77a29,29,0,0,1-12.1,11.08c7.5-5.23,13-13.93,13.7-22.71-1.67-8.9-8-16.57-11.56-25a22.26,22.26,0,0,1-2.32-8.34l3.39.43a71.52,71.52,0,0,1-25.2,37.33" transform="translate(-2.56 -24.01)"/><path id="Path_2142" data-name="Path 2142" d="M525.47,690.59c11.42-4.09,22.09-7.5,33.8-10.75a51,51,0,0,1-33.8,10.75" transform="translate(-2.56 -24.01)"/><path id="Path_2143" data-name="Path 2143" d="M589,670.24a265.09,265.09,0,0,0,26.08-16.76c-4.75,9.37-15.23,16.1-26.08,16.76" transform="translate(-2.56 -24.01)"/><path id="Path_2144" data-name="Path 2144" d="M398.72,738c12.28-1.07,23.34-2.49,35.48-4.49A43.43,43.43,0,0,1,398.72,738" transform="translate(-2.56 -24.01)"/><path id="Path_2145" data-name="Path 2145" d="M338.28,804.21a659.12,659.12,0,0,1,94.65-15.86,661.91,661.91,0,0,1-94.65,15.86" transform="translate(-2.56 -24.01)"/><path id="Path_2146" data-name="Path 2146" d="M746.57,643.17a90,90,0,0,1,44.83-7.34,432.54,432.54,0,0,1-44.83,7.34" transform="translate(-2.56 -24.01)"/><path id="Path_2147" data-name="Path 2147" d="M760.57,609.62c18.36-4,36.72-9.34,53.43-17.42,11.06-6.05,17-17.3,26.72-25.2,10-8.25,24-8.22,35.46-13.56,5.71-2.37,11-5.94,14.45-11.07-2.78,5.54-8.06,9.64-13.67,12.56-11,5.94-24.48,6.48-34.07,14.54-9.36,7.94-15.7,19.55-27.23,25.53a178.5,178.5,0,0,1-55.09,14.61" transform="translate(-2.56 -24.01)"/><path id="Path_2148" data-name="Path 2148" d="M853.35,619c23.31,4.17,44.93-17.83,68.06-7.92,7,2.89,13.37,8,21.36,6.63-3.64,1.48-7.88.89-11.6-.19-7.18-2.43-13.84-6-21.55-5.81-18.81.24-37.24,14-56.27,7.29" transform="translate(-2.56 -24.01)"/><path id="Path_2149" data-name="Path 2149" d="M976.92,591.27c8.54-3.47,19.47-1.31,25.83,5.16a262.81,262.81,0,0,0-25.83-5.16" transform="translate(-2.56 -24.01)"/><path id="Path_2150" data-name="Path 2150" d="M1062.24,527.83c.7-1.26,2.65-1.41,3.9-.78,3.94,1.74,5.12,6.3,6.1,9.65a33.11,33.11,0,0,1,.79,14.48,142.77,142.77,0,0,1-5.11-17c-.6-2.56-2.12-7.53-5.68-6.3" transform="translate(-2.56 -24.01)"/><path id="Path_2151" data-name="Path 2151" d="M1037,551.22a39.43,39.43,0,0,1,1.87,23.71,39.43,39.43,0,0,1-1.87-23.71" transform="translate(-2.56 -24.01)"/><path id="Path_2152" data-name="Path 2152" d="M1066.42,612.14c8.92,7.32,17.18,13.59,26.62,20.29a38.27,38.27,0,0,1-26.62-20.29" transform="translate(-2.56 -24.01)"/><path id="Path_2153" data-name="Path 2153" d="M1065.59,647.81c8.39,11.3,15.57,29,5.46,41.35,5.07-14.3-1.67-27.54-5.46-41.35" transform="translate(-2.56 -24.01)"/><path id="Path_2154" data-name="Path 2154" d="M1093.2,733.88a118.43,118.43,0,0,0-16.86,62c-5.32-21.4,1.33-45.8,16.86-62" transform="translate(-2.56 -24.01)"/><path id="Path_2155" data-name="Path 2155" d="M1059.88,990.27c3.35,20.75,5.86,41.18,7.59,62.11a161.85,161.85,0,0,1-7.59-62.11" transform="translate(-2.56 -24.01)"/><path id="Path_2156" data-name="Path 2156" d="M1095.1,1054a460.07,460.07,0,0,0-15.43-47,73.1,73.1,0,0,1,15.44,47" transform="translate(-2.56 -24.01)"/><path id="Path_2157" data-name="Path 2157" d="M958.76,1061.39c-4-16.36-3.18-34.69,7.35-48.67,2.86-4.73,5.64-9.48,6.3-15.07,1.45,11.37-7.75,20.92-10.53,31.23-3.12,10.29-2.63,21.4-3.12,32.51" transform="translate(-2.56 -24.01)"/><path id="Path_2158" data-name="Path 2158" d="M901,1061.51c-1.37-13,13.34-20.61,19.22-30.74a94.09,94.09,0,0,0,14.55-33.06c0,15.52-6.83,30.8-17.61,42.32-6.08,6.69-15.35,11.9-16.15,21.48" transform="translate(-2.56 -24.01)"/><path id="Path_2159" data-name="Path 2159" d="M1062.27,1050.94a75.16,75.16,0,0,1-11.33-42.87c4.25,14.42,7.89,28.26,11.33,42.87" transform="translate(-2.56 -24.01)"/><path id="Path_2160" data-name="Path 2160" d="M1022.82,905.76a106.9,106.9,0,0,1-3.2,61,588.28,588.28,0,0,0,3.2-61" transform="translate(-2.56 -24.01)"/><path id="Path_2161" data-name="Path 2161" d="M1060.25,887.91a204.74,204.74,0,0,1-.55,63.81,435.62,435.62,0,0,1,.55-63.81" transform="translate(-2.56 -24.01)"/><path id="Path_2162" data-name="Path 2162" d="M154.63,299.6c1.68,23.93,1.9,48.42,1.68,72.43,0,4.13-.35,10.35-.09,14.33,0,7.18,6.22,12.94,7.63,20a27.43,27.43,0,0,1,.41,7.29,34,34,0,0,0-1.33-7.06c-2.43-6.92-8.82-12.27-9.43-19.91-.65-4.37-.39-10.26-.56-14.63-.22-24,0-48.49,1.69-72.43" transform="translate(-2.56 -24.01)"/><path id="Path_2163" data-name="Path 2163" d="M161.05,472.19a1205.41,1205.41,0,0,1,0,132.52,1205.41,1205.41,0,0,1,0-132.52" transform="translate(-2.56 -24.01)"/><path id="Path_2164" data-name="Path 2164" d="M147.51,654.25a33.55,33.55,0,0,1-3.84,31.89l.23-.68c.55,39.94-2.92,79.73-5.34,119.58-1.65-34.56,1.62-84.54,2.89-119.58,6.41-9.16,9.31-20.2,6.06-31.21" transform="translate(-2.56 -24.01)"/><path id="Path_2165" data-name="Path 2165" class="cls-37" d="M112.85,854.18a73.69,73.69,0,0,0-32.18,9.3" transform="translate(-2.56 -24.01)"/><path id="Path_2166" data-name="Path 2166" d="M142.21,874.29c11.55-4.32,19.23-13.12,21.72-24.75,3.25,12.1-8.72,25.73-21.72,24.75" transform="translate(-2.56 -24.01)"/><path id="Path_2167" data-name="Path 2167" d="M203.67,830.42a294.91,294.91,0,0,1,4.48,45.74c.47,14.32.66,34.6-15.79,41.17a21.81,21.81,0,0,0,8-8.11c6-10,4.33-21.73,4.27-33-.26-13.49-.89-32.49-.93-45.82" transform="translate(-2.56 -24.01)"/><path id="Path_2168" data-name="Path 2168" d="M142.4,901.06c.38,11.71-4.22,23.65-10.87,33.39-4.86,5.72-12.49,8.28-19.62,9.85,8.34-4.37,16.78-8.66,20.32-17.54,3.77-8.42,8.13-16.63,10.17-25.7" transform="translate(-2.56 -24.01)"/><path id="Path_2169" data-name="Path 2169" class="cls-37" d="M58.36,883.68A104.87,104.87,0,0,1,85,912.73" transform="translate(-2.56 -24.01)"/><path id="Path_2170" data-name="Path 2170" class="cls-37" d="M84.28,932.25a13.12,13.12,0,0,0,12.59-4" transform="translate(-2.56 -24.01)"/><path id="Path_2171" data-name="Path 2171" class="cls-37" d="M99,900.8a61.35,61.35,0,0,0,23.3-1" transform="translate(-2.56 -24.01)"/><path id="Path_2172" data-name="Path 2172" d="M163.18,878.24a80.44,80.44,0,0,0,46.1-21.76c-8.48,15.24-28.32,24.59-46.1,21.76" transform="translate(-2.56 -24.01)"/><path id="Path_2173" data-name="Path 2173" d="M231.13,860.7c22.72-2.72,48.95,3,67.94-12-9.73,22.27-20.08,30.86-46,27.9a114.52,114.52,0,0,0-17.27-.73c25.74-3.36,44.31,5.78,57.33-23l2.61,2.11c-19.42,11.49-43.16,5.57-64.61,5.72" transform="translate(-2.56 -24.01)"/><path id="Path_2174" data-name="Path 2174" d="M225.29,835.26a102.93,102.93,0,0,0,40-7.34c9.44-3.63,18.07-10.23,28.26-12.66a25.38,25.38,0,0,1,10.52-.22c-14.51.15-24.42,11.13-37.38,16a72.69,72.69,0,0,1-41.4,4.21" transform="translate(-2.56 -24.01)"/><path id="Path_2175" data-name="Path 2175" d="M247.35,801.68c21.54-1.23,43.41.18,62.85-10.25-16.67,14.65-42,13.87-62.85,10.25" transform="translate(-2.56 -24.01)"/><path id="Path_2176" data-name="Path 2176" d="M316.66,840.22c11.67-7.74,25.56-11.65,39-15.43,13.34-3.54,29-6.21,41.8.35-13.69-3.87-27.52-.61-40.85,2.94-11.9,3.25-28.77,7.33-40,12.14" transform="translate(-2.56 -24.01)"/><path id="Path_2177" data-name="Path 2177" d="M443.29,819.59a78.44,78.44,0,0,1,33.06-11.23c11.52-1.87,23.52,2.15,34.27-3.06-9.25,7.68-22.8,4.61-33.86,6.44a152.7,152.7,0,0,0-33.47,7.85" transform="translate(-2.56 -24.01)"/><path id="Path_2178" data-name="Path 2178" d="M468.36,791.93a185.45,185.45,0,0,0,66.81-28.77c-16.82,17.57-41.92,28.37-66.81,28.77" transform="translate(-2.56 -24.01)"/><path id="Path_2179" data-name="Path 2179" d="M581.22,764.57a169.67,169.67,0,0,1,47-13.37,170,170,0,0,1-47,13.37" transform="translate(-2.56 -24.01)"/><path id="Path_2180" data-name="Path 2180" d="M582,707.27c5.56-3.26,11.92-4.78,17.39-8,4.85-3.92,8.45-9.15,12.71-13.79,2.89-3.14,5.84-6.55,9.85-8.56-7.31,8-11.49,18.32-20.57,24.94-5.84,3.18-12.84,4-19.38,5.44" transform="translate(-2.56 -24.01)"/><path id="Path_2181" data-name="Path 2181" d="M541,698.12c2.33-2.31,5-2.33,7.37,0-2.33,2.33-5,2.32-7.37,0" transform="translate(-2.56 -24.01)"/><path id="Path_2182" data-name="Path 2182" d="M658.84,663.8c2.34-2.32,5-2.33,7.37,0-2.33,2.33-5,2.31-7.37,0" transform="translate(-2.56 -24.01)"/><path id="Path_2183" data-name="Path 2183" d="M649.37,695.09c1.63-2.3,3.64-2.32,5.26,0-1.62,2.32-3.63,2.31-5.26,0" transform="translate(-2.56 -24.01)"/><path id="Path_2184" data-name="Path 2184" d="M702.9,646.85c17.45.54,21.79-21.06,37.75-24.75,9.12-2.68,18.93-1.39,27.45-5.78-9.48,8-24.66,5.26-34.08,12.82-8.71,6.79-17.5,21.38-31.12,17.7" transform="translate(-2.56 -24.01)"/><path id="Path_2185" data-name="Path 2185" d="M1018.44,751.69c5.34,13.65,1.16,30.8-10,40.74a82,82,0,0,0,10-40.74" transform="translate(-2.56 -24.01)"/><path id="Path_2186" data-name="Path 2186" d="M1057.61,738.51a168.81,168.81,0,0,1-.64,56.55,311.44,311.44,0,0,1,.64-56.55" transform="translate(-2.56 -24.01)"/><path id="Path_2187" data-name="Path 2187" d="M1035.59,838.46a117.51,117.51,0,0,1,0,41.4,117.51,117.51,0,0,1,0-41.4" transform="translate(-2.56 -24.01)"/><path id="Path_2188" data-name="Path 2188" d="M1015.59,854.62a85.83,85.83,0,0,1,0,35.33,86.18,86.18,0,0,1,0-35.33" transform="translate(-2.56 -24.01)"/><path id="Path_2189" data-name="Path 2189" d="M1011.38,928.32a111.84,111.84,0,0,1,0,40.38,111.84,111.84,0,0,1,0-40.38" transform="translate(-2.56 -24.01)"/><path id="Path_2190" data-name="Path 2190" d="M1038.75,931.35a76.7,76.7,0,0,1,0,33.31,76.4,76.4,0,0,1,0-33.31" transform="translate(-2.56 -24.01)"/><path id="Path_2191" data-name="Path 2191" d="M1057.69,907.12a63.54,63.54,0,0,1,0,30.28,63.29,63.29,0,0,1,0-30.28" transform="translate(-2.56 -24.01)"/><path id="Path_2192" data-name="Path 2192" d="M997.68,929.33a65,65,0,0,1-2,37.36,191.43,191.43,0,0,1,2-37.36" transform="translate(-2.56 -24.01)"/><path id="Path_2193" data-name="Path 2193" d="M979.81,876.83a181.27,181.27,0,0,1,0,51.49,182,182,0,0,1,0-51.49" transform="translate(-2.56 -24.01)"/><path id="Path_2194" data-name="Path 2194" d="M1017.7,723.36a189.18,189.18,0,0,1,0,52.5,188.42,188.42,0,0,1,0-52.5" transform="translate(-2.56 -24.01)"/><path id="Path_2195" data-name="Path 2195" d="M979.81,670.86a31.49,31.49,0,0,1,0,21.2,31.61,31.61,0,0,1,0-21.2" transform="translate(-2.56 -24.01)"/><path id="Path_2196" data-name="Path 2196" d="M873.35,592.45a46.32,46.32,0,0,1,24.73,14.33,79.67,79.67,0,0,1-24.73-14.33" transform="translate(-2.56 -24.01)"/><path id="Path_2197" data-name="Path 2197" d="M798.93,573.13a47.76,47.76,0,0,1,30.23-11.92,194,194,0,0,1-30.23,11.92" transform="translate(-2.56 -24.01)"/><path id="Path_2198" data-name="Path 2198" d="M831.44,548.82a62.8,62.8,0,0,1,29.44-2.28,62.8,62.8,0,0,1-29.44,2.28" transform="translate(-2.56 -24.01)"/><path id="Path_2199" data-name="Path 2199" d="M908.25,522.43a178.46,178.46,0,0,0-27,3.58l-.53-3c19.65-1.75,37.35,8.15,56,12.15-18.84-.46-36.74-9.91-55.58-9.16l-.53-3a94.56,94.56,0,0,1,27.65-.62" transform="translate(-2.56 -24.01)"/><path id="Path_2200" data-name="Path 2200" d="M944,513.25a75.43,75.43,0,0,1,38.85,2.63A199.79,199.79,0,0,1,944,513.25" transform="translate(-2.56 -24.01)"/><path id="Path_2201" data-name="Path 2201" d="M963,529.59a86,86,0,0,1,53.65,6,431.48,431.48,0,0,0-53.65-6" transform="translate(-2.56 -24.01)"/><path id="Path_2202" data-name="Path 2202" d="M1015.73,517.78a46.6,46.6,0,0,1,33.13,14.29c-11.31-5-21.7-9.52-33.13-14.29" transform="translate(-2.56 -24.01)"/><path id="Path_2203" data-name="Path 2203" d="M932.36,711.74c13.21,7.45,21.14,21.69,23.16,36.11,2.06,15-3.4,29.41,1.48,41.4,2.2,6.2,6.12,12.44,8.2,20.15,6,22.31-8.55,42.5-10,64-1.41,13.48-.13,28.34-4.48,43.16-4.29,14-11.42,26.21-15.44,40-8.08,26.71-8.8,55.37-10.41,83.77-2.79-28.26-4.57-57.21,2.35-85.79,3.15-14.44,10.38-27.57,13.73-40.51,3.56-12.81,2.37-26.83,3.62-41.59,1.12-20.82,15.63-40.27,11.55-61-1.42-6.16-4.85-12.51-7.06-19.88-4.77-14.2,2-29.26,1.25-43.33-.56-13.54-6.39-27.42-18-36.55" transform="translate(-2.56 -24.01)"/><path id="Path_2204" data-name="Path 2204" d="M1025,973.67a49.11,49.11,0,0,1-3.68,34.61,319,319,0,0,1,3.68-34.61" transform="translate(-2.56 -24.01)"/><path id="Path_2205" data-name="Path 2205" d="M963.33,607.38c9.71-5.6,24.44-2,30.17,7.35a51.89,51.89,0,0,0-30.17-7.35" transform="translate(-2.56 -24.01)"/><path id="Path_2206" data-name="Path 2206" d="M952.55,534.07c15.07-.72,30.77,6.28,39.86,17.82a149.14,149.14,0,0,0-39.86-17.82" transform="translate(-2.56 -24.01)"/><path id="Path_2207" data-name="Path 2207" d="M408.76,776.43a31.53,31.53,0,0,1,20.5-3.29,31.53,31.53,0,0,1-20.5,3.29" transform="translate(-2.56 -24.01)"/><path id="Path_2208" data-name="Path 2208" d="M484.09,765.45a77.46,77.46,0,0,1,36.34-4,126.46,126.46,0,0,1-36.34,4" transform="translate(-2.56 -24.01)"/><path id="Path_2209" data-name="Path 2209" d="M290.59,727.94a132.49,132.49,0,0,0,68.21,23.49c-24.64,3.49-51.52-5.8-68.21-23.49" transform="translate(-2.56 -24.01)"/><path id="Path_2210" data-name="Path 2210" d="M262.77,779a759.35,759.35,0,0,1,102.86,1.11A757.73,757.73,0,0,1,262.77,779" transform="translate(-2.56 -24.01)"/><path id="Path_2211" data-name="Path 2211" class="cls-37" d="M170.52,786.62a141.56,141.56,0,0,1-7.86,35.06" transform="translate(-2.56 -24.01)"/><path id="Path_2212" data-name="Path 2212" d="M192.49,759.39a20.5,20.5,0,0,1-.87,16.92,20.5,20.5,0,0,1,.87-16.92" transform="translate(-2.56 -24.01)"/><path id="Path_2213" data-name="Path 2213" d="M208.73,734.94a78.86,78.86,0,0,1,1.08,33.84,79,79,0,0,1-1.08-33.84" transform="translate(-2.56 -24.01)"/><line id="Line_279" data-name="Line 279" class="cls-37" x1="157.34" y1="673.33" x2="157.34" y2="695.89"/><path id="Path_2214" data-name="Path 2214" d="M170.78,584.55c1.61,26.09,2.23,51.89,1.8,78a263.67,263.67,0,0,1-1.8-78" transform="translate(-2.56 -24.01)"/><path id="Path_2215" data-name="Path 2215" d="M196.15,520.64a62.47,62.47,0,0,1,0,30.08,62.47,62.47,0,0,1,0-30.08" transform="translate(-2.56 -24.01)"/><path id="Path_2216" data-name="Path 2216" d="M219.74,537.56a220.26,220.26,0,0,1,.59,48,123,123,0,0,1-.59-48" transform="translate(-2.56 -24.01)"/><path id="Path_2217" data-name="Path 2217" d="M238.61,650.44c0,10,4.59,18.15,13.28,23.7-11.19-.49-19-14.5-13.28-23.7" transform="translate(-2.56 -24.01)"/><path id="Path_2218" data-name="Path 2218" d="M232.34,694.53c3.73,15.65,15.34,27.79,31.3,32.71-17.34.35-33.15-16.22-31.3-32.71" transform="translate(-2.56 -24.01)"/><path id="Path_2219" data-name="Path 2219" class="cls-37" d="M89.43,883.67a103.36,103.36,0,0,1,31.29-3" transform="translate(-2.56 -24.01)"/><line id="Line_280" data-name="Line 280" class="cls-37" x1="118.15" y1="810.56" x2="147.54" y2="810.56"/><path id="Path_2220" data-name="Path 2220" d="M201.19,790.39c5.3,10,4.94,27.84-9.06,30.52,10.62-7.09,8.83-19.41,9.06-30.52" transform="translate(-2.56 -24.01)"/><path id="Path_2221" data-name="Path 2221" d="M443.22,710.22a179.87,179.87,0,0,1,48.57-12.75,179.33,179.33,0,0,1-48.57,12.75" transform="translate(-2.56 -24.01)"/><path id="Path_2222" data-name="Path 2222" d="M740.94,271.57a87.38,87.38,0,0,1-1.07,31,53.9,53.9,0,0,1,1.07-31" transform="translate(-2.56 -24.01)"/><path id="Path_2223" data-name="Path 2223" d="M734,354.28a92.67,92.67,0,0,1,0,36.65,92.29,92.29,0,0,1,0-36.65" transform="translate(-2.56 -24.01)"/><path id="Path_2224" data-name="Path 2224" d="M733,435.11a123.13,123.13,0,0,1,0,42.3,122.64,122.64,0,0,1,0-42.3" transform="translate(-2.56 -24.01)"/><path id="Path_2225" data-name="Path 2225" d="M664.34,484.93a53.8,53.8,0,0,1-.4,31,87.73,87.73,0,0,1,.4-31" transform="translate(-2.56 -24.01)"/><path id="Path_2226" data-name="Path 2226" d="M708.52,427.59a44.74,44.74,0,0,1,0,25.38,44.91,44.91,0,0,1,0-25.38" transform="translate(-2.56 -24.01)"/><path id="Path_2227" data-name="Path 2227" d="M755.68,580.41c10.55.41,19.32-3.28,26.2-10.95-2,10.54-16.8,16.74-26.2,10.95" transform="translate(-2.56 -24.01)"/><path id="Path_2228" data-name="Path 2228" d="M779.18,556.23c14.56,1.13,24.27-10.76,34.22-19.12a140.15,140.15,0,0,1,34.78-21.87,146.82,146.82,0,0,1,40-10.9c13.65-2,27.8.68,40.89-4.17-6.11,3.19-13.23,4.1-20.07,4.73-34.13,1.31-67.7,13-93.84,34.18-10.13,7.88-21.55,19.89-36,17.15" transform="translate(-2.56 -24.01)"/><path id="Path_2229" data-name="Path 2229" d="M1088.64,651.29a22.68,22.68,0,0,1,0,17.85,22.68,22.68,0,0,1,0-17.85" transform="translate(-2.56 -24.01)"/><path id="Path_2230" data-name="Path 2230" d="M808.45,691.76a266,266,0,0,0,38.6-10.7,49.26,49.26,0,0,1-38.6,10.7" transform="translate(-2.56 -24.01)"/><path id="Path_2231" data-name="Path 2231" d="M239.83,289.51a211.39,211.39,0,0,1,0,55.51,210.54,210.54,0,0,1,0-55.51" transform="translate(-2.56 -24.01)"/><path id="Path_2232" data-name="Path 2232" class="cls-37" d="M161.21,279.74a286.91,286.91,0,0,1-1.64,62.2" transform="translate(-2.56 -24.01)"/><line id="Line_281" data-name="Line 281" class="cls-37" x1="152.18" y1="425.51" x2="152.18" y2="500.61"/><line id="Line_282" data-name="Line 282" class="cls-37" x1="700.16" y1="147.94" x2="700.16" y2="196.92"/><path id="Path_2233" data-name="Path 2233" d="M706.13,305.83c1.23,19.86,1.79,39.82,1.69,59.7-2.29,17.57-11.71,32.83-17.64,49.2-1.95,4.93-3.82,9.91-4.47,15.19-.17-5.35,1.41-10.59,2.81-15.72,4.32-14.56,11.9-30.36,15.27-45.11,1-4.26.48-11.07.66-15.55.24-15.92.62-31.8,1.68-47.7" transform="translate(-2.56 -24.01)"/><line id="Line_283" data-name="Line 283" class="cls-37" x1="723.99" y1="154.47" x2="723.99" y2="187.13"/><path id="Path_2234" data-name="Path 2234" class="cls-37" d="M97,906.57a154.79,154.79,0,0,0-40.91-39.21c6.85-.5,43.88-26.92,47.1-32.75" transform="translate(-2.56 -24.01)"/><path id="Path_2235" data-name="Path 2235" d="M1053.3,903.41a164.19,164.19,0,0,1,0,49,164.19,164.19,0,0,1,0-49" transform="translate(-2.56 -24.01)"/><path id="Path_2236" data-name="Path 2236" class="cls-37" d="M978.08,1027.53a258.83,258.83,0,0,1-1.6,58.94" transform="translate(-2.56 -24.01)"/><path id="Path_2237" data-name="Path 2237" d="M1070.48,981.81a116.9,116.9,0,0,0,13.4,55.52c-13.39-14.76-18.64-36.63-13.4-55.52" transform="translate(-2.56 -24.01)"/><path id="Path_2238" data-name="Path 2238" d="M1095.81,919.71c-1.59,51.16-5.72,108,28.25,151.15-2.22-2.5-4.45-5-6.62-7.58-31.15-41.16-27.86-95.57-21.63-143.56" transform="translate(-2.56 -24.01)"/><path id="Path_2239" data-name="Path 2239" class="cls-38" d="M993.69,505.25c-1.07,9.43,4.46,18.43,11.07,25.49,18.75,20,48.36,30.15,76.12,26,6.3-.93,13.22-3.09,16-8.57,4.16-8.12-3.27-17.18-10.51-23C1073,514.43,998.43,463.36,993.69,505.25Z" transform="translate(-2.56 -24.01)"/><path id="Path_2240" data-name="Path 2240" d="M946.23,1050.49c4.91,17.43.2,35.51-8.61,50.92a134.87,134.87,0,0,1-32.25,41.31l-.78-.7a160.36,160.36,0,0,0,25.17-43.81c5.16-16.28,8.72-31.63,15.41-47.78l1.06.06" transform="translate(-2.56 -24.01)"/><path id="Path_2241" data-name="Path 2241" class="cls-36" d="M1112.86,1032.26c-6.88,29.88,8.14,63.19,35.56,78.89" transform="translate(-2.56 -24.01)"/><path id="Path_2242" data-name="Path 2242" d="M982.6,1044.2c18.43,38.32-18.61,75.94-44,102.1l-.84-.64c11.07-15.47,22.56-31,30.44-48.12a203.92,203.92,0,0,0,13.32-53.14l1.05-.2" transform="translate(-2.56 -24.01)"/><path id="Path_2243" data-name="Path 2243" d="M1093.39,979.29c5,13.75,5.43,28.56,5.28,42.63-.67,24.07-5.17,48.71,8,70.26,9.1,15.18,23.69,26.93,31,43.58l-1,.44c-10.82-18.55-31.67-30.65-40.89-50.57-12.19-26.51-9-57.26-5.35-85.16.75-6.94,1.33-13.86,1.88-21Z" transform="translate(-2.56 -24.01)"/><path id="Path_2244" data-name="Path 2244" d="M1069.46,1135.83c-16.63-31.28-20.31-67.8-13.94-102.12l8.77.47c-.34,9.91-2.75,19.17-5.65,28-5.66,17.56-13.88,34.22-17.74,52.13-2,8.83-.74,19.64-8.82,26l-.7-.78c3.4-3.07,4.72-7.56,5.21-12a144.83,144.83,0,0,1,7.31-40.9c5-17.07,12-34.78,11.59-52.41l8.76.47c-2.08,25.14-.46,50.33,2.41,75.37,1.07,8.4,2.45,16.8,3.82,25.36Z" transform="translate(-2.56 -24.01)"/><path id="Path_2245" data-name="Path 2245" d="M1019.64,1052c.88,6.7.2,15.39-.61,22.17a171.28,171.28,0,0,1-20.12,62,274.94,274.94,0,0,1-15.8,24.7l-7.17-4.41c21.23-31.66,31.85-68.86,43.7-104.42m-.18,1c-.11,3.93-1.33,9.63-2.22,13.54-7.75,32.49-16.8,65-34.12,94.29l-7.18-4.42c17.17-28.23,29.26-59,39-90.26l2-6.83c.66-2.11,2.09-3.9,2.47-6.32" transform="translate(-2.56 -24.01)"/><path id="Path_2246" data-name="Path 2246" class="cls-38" d="M1023.79,500c.56,20.69,21.56,38.75,43.11,37.06-7-15.7-22.45-27.68-39.94-31" transform="translate(-2.56 -24.01)"/><path id="Path_2247" data-name="Path 2247" d="M1038.16,1046.36c5.27,18.05,3.13,36.41-1.77,54.12a305,305,0,0,1-16.63,51.75l-1-.3a516.14,516.14,0,0,0,9.23-52.79c1.29-18.07,2.8-35.36,9.13-52.81l1.07,0" transform="translate(-2.56 -24.01)"/><path id="Path_2248" data-name="Path 2248" d="M1085.15,1044.37c3.77,17.56,5.53,33.65,9.56,50.83a128.1,128.1,0,0,0,24.61,46l-.76.71c-20.69-17.79-36.24-43.82-39.2-70.56-.37-9.19.76-18.53,4.73-27Z" transform="translate(-2.56 -24.01)"/><path id="Path_2249" data-name="Path 2249" d="M1128.71,1028.34c3.68,18.92,1.55,37.24,4.91,55.75a69.32,69.32,0,0,0,11.89,24.7c5.46,7.81,12.07,15.14,17.44,23.3l-.85.61c-13.56-14.17-30.61-27.1-36.7-46.37-7.35-19-5.73-39.6,2.25-58.1l1.06.11" transform="translate(-2.56 -24.01)"/><path id="Path_2250" data-name="Path 2250" d="M933.26,1032.16c5.45,19.56,1.26,40-7.26,58a166.84,166.84,0,0,1-32.11,49.7l-.85-.62a198.22,198.22,0,0,0,24.89-51.79c4.88-18.74,8.06-36.64,14.27-55.34l1.06,0" transform="translate(-2.56 -24.01)"/><path id="Path_2251" data-name="Path 2251" class="cls-38" d="M1042.51,520.68a16.59,16.59,0,0,0,5.45,3.58,23.83,23.83,0,0,0-5.9-4.25" transform="translate(-2.56 -24.01)"/><path id="Path_2252" data-name="Path 2252" class="cls-38" d="M1030.74,534.7c5.17,3.72,11,6.46,16.82,9.18,5.51,2.58,11.18,5.21,17.3,5.78a16.15,16.15,0,0,0,9.44-1.61c2.8-1.58,4.85-4.6,4.55-7.7-.24-2.38-1.76-4.44-3.26-6.35a179.54,179.54,0,0,0-14.2-16c-5-5-10.5-9.87-17.21-12.5a63.41,63.41,0,0,0-10.67-2.78,52.43,52.43,0,0,0-12.54-1.4c-2.56.12-10.3,1-10.35,4.58,0,1.07,1.43,2.48,1.86,3.47.78,1.8,1.27,3.71,2.07,5.5a49.53,49.53,0,0,0,16.19,19.82Z" transform="translate(-2.56 -24.01)"/><path id="Path_2253" data-name="Path 2253" d="M944.59,947.4a238.73,238.73,0,0,0,3.08,47.08c1.91,11.61,5.49,23.24,6.28,35.13a54.34,54.34,0,0,1-.6,12,71.52,71.52,0,0,0-1.13-11.77c-1.94-11.76-6.13-22.9-8.06-34.77a131.64,131.64,0,0,1,.44-47.62" transform="translate(-2.56 -24.01)"/><path id="Path_2254" data-name="Path 2254" class="cls-37" d="M972.57,957.94a1159.74,1159.74,0,0,0,2.66,121.26" transform="translate(-2.56 -24.01)"/><path id="Path_2255" data-name="Path 2255" class="cls-37" d="M1008,987.25c-1.57,23.64,5,47,8,70.5s1.82,49.2-13,68.19" transform="translate(-2.56 -24.01)"/><path id="Path_2256" data-name="Path 2256" class="cls-37" d="M1077.59,988.54c-1.73,19.85-1.63,40,2.64,59.5s12.85,38.38,26.65,53.29" transform="translate(-2.56 -24.01)"/><path id="Path_2257" data-name="Path 2257" d="M1093.61,963c7.36,22.63,13.7,45.52,19.8,68.48s11.54,46.16,24.89,66.24c-15.73-18.67-22.28-42.63-28.34-65.41-6-23-11.66-46-16.34-69.31" transform="translate(-2.56 -24.01)"/><line id="Line_284" data-name="Line 284" class="cls-37" x1="1033.8" y1="895.06" x2="1033.8" y2="1021.07"/><path id="Path_2258" data-name="Path 2258" d="M1090.44,788.29c.66,49.27-.93,100.27,18.92,146.68a165.17,165.17,0,0,0,9.54,19.22c-33.91-48.41-32.77-110-28.46-165.9" transform="translate(-2.56 -24.01)"/><path id="Path_2259" data-name="Path 2259" d="M973.34,876.91c-3.81,34.86-7.62,69.67-10.09,104.62-1.47,17.46-2.44,34.92-3.44,52.43-1.2,17.12-3.12,36.55-16.49,49.31,12.1-13.68,13.12-32.31,13.75-49.43.44-17.52,1.44-35,2.63-52.55,2.86-35,7-69.88,13.63-104.38" transform="translate(-2.56 -24.01)"/><path id="Path_2260" data-name="Path 2260" d="M134,428.26c11.19,32.7-5.84,66.07-12.67,97.86-8.4,31.82-7.94,65.49-1.55,97.76,8.89,49,18.62,100,5.53,149.19a136,136,0,0,1-21.41,45.82l-.93-.51c21.06-45.87,18.75-95.74,15-144.41-3.32-32.84-5.05-66.17-6.54-99.21-.56-16.57-1.34-33.41,1.21-50.19,2-14.73,9.12-33.92,13.54-48.17,4.87-15.59,8.55-31.4,6.82-47.92Z" transform="translate(-2.56 -24.01)"/><path id="Path_2261" data-name="Path 2261" d="M664.76,528.79a87.54,87.54,0,0,1-26.1,53.14,286.29,286.29,0,0,0,26.1-53.14" transform="translate(-2.56 -24.01)"/><path id="Path_2262" data-name="Path 2262" d="M509.09,673.54a162.49,162.49,0,0,0,60.43-29.61c-14.27,17.44-37.32,28.71-60.43,29.61" transform="translate(-2.56 -24.01)"/><path id="Path_2263" data-name="Path 2263" class="cls-37" d="M736.93,485.46a261.06,261.06,0,0,0,3.18,81.83" transform="translate(-2.56 -24.01)"/><path id="Path_2264" data-name="Path 2264" d="M744.75,322.21a146.9,146.9,0,0,1,0,46.23,146.31,146.31,0,0,1,0-46.23" transform="translate(-2.56 -24.01)"/><path id="Path_2265" data-name="Path 2265" d="M701.41,243.39a130.48,130.48,0,0,1,3.07,43.5,130.52,130.52,0,0,1-3.07-43.5" transform="translate(-2.56 -24.01)"/></g></g></g></g></g></svg>