<svg xmlns="http://www.w3.org/2000/svg" xmlns:xlink="http://www.w3.org/1999/xlink" viewBox="0 0 1930.43 3343.4"><defs><style>.cls-1,.cls-12,.cls-14,.cls-4,.cls-7,.cls-9{fill:none;}.cls-2{clip-path:url(#clip-path);}.cls-3{clip-path:url(#clip-path-2);}.cls-12,.cls-14,.cls-4{stroke:#e3dcc9;}.cls-4{stroke-miterlimit:10;stroke-width:35px;}.cls-5{fill:#e3dcc9;}.cls-6{clip-path:url(#clip-path-3);}.cls-7,.cls-9{stroke:#dce3c9;}.cls-7{stroke-miterlimit:10;stroke-width:60px;}.cls-8{clip-path:url(#clip-path-4);}.cls-14,.cls-9{stroke-miterlimit:10;stroke-width:50px;}.cls-10{fill:#dce3c9;}.cls-11{clip-path:url(#clip-path-5);}.cls-12{stroke-miterlimit:10;stroke-width:50px;}.cls-13{clip-path:url(#clip-path-6);}</style><clipPath id="clip-path" transform="translate(231.18 -43.88)"><rect class="cls-1" width="1275" height="3335"/></clipPath><clipPath id="clip-path-2" transform="translate(231.18 -43.88)"><rect class="cls-1" x="-49.05" y="19.26" width="1377.86" height="125.71"/></clipPath><clipPath id="clip-path-3" transform="translate(231.18 -43.88)"><rect class="cls-1" x="-328.32" y="2941.18" width="1438.58" height="119.42" transform="translate(-1531.04 663.35) rotate(-32.01)"/></clipPath><clipPath id="clip-path-4" transform="translate(231.18 -43.88)"><rect class="cls-1" x="237.33" y="2704.21" width="1444.21" height="109.18" transform="translate(-48 17.16) rotate(-1)"/></clipPath><clipPath id="clip-path-5" transform="translate(231.18 -43.88)"><rect class="cls-1" x="625.29" y="775.49" width="109.18" height="1438.57" transform="translate(-957.09 1364.73) rotate(-61)"/></clipPath><clipPath id="clip-path-6" transform="translate(231.18 -43.88)"><rect class="cls-1" x="-17.62" y="1362.18" width="1444.21" height="109.18" transform="translate(-24.62 12.51) rotate(-1)"/></clipPath></defs><g id="Lager_2" data-name="Lager 2"><g id="skog"><g class="cls-2"><g id="Group_302" data-name="Group 302"><g class="cls-3"><g id="Group_299" data-name="Group 299"><path id="Path_2266" data-name="Path 2266" class="cls-4" d="M-31.06,79.61C.24,70,50.51,65.58,95.8,68.45c42.15,2.67,79.86,11.1,123,10.59,53.18-.63,95.51-14.69,148.72-15,48.58-.32,87.63,10.7,133.13,15.48,40.67,4.27,88,3.28,125.92-2.64,34.24-5.34,63.2-14.62,102.28-15.42,47.34-1,84.17,10.83,127.54,16.24a486.67,486.67,0,0,0,109.31.5c42.43-4.84,77.3-15.55,123-16.36,52.14-.93,95.39,11.38,146.63,14.24,34.87,2,72.72-.86,99.58-7.38" transform="translate(231.18 -43.88)"/></g></g></g><rect id="Rectangle_1532" data-name="Rectangle 1532" class="cls-5" x="231.06" y="34.9" width="1280" height="1338"/><g id="Group_308" data-name="Group 308"><g class="cls-6"><g id="Group_299-2" data-name="Group 299-2"><path id="Path_2266-2" data-name="Path 2266-2" class="cls-7" d="M-203.28,3376.26c14.92-37.78,53.55-75,97.48-94,40.87-17.63,85.47-20.56,123-45.54,46.24-30.77,65-84.11,111.67-114.29,42.58-27.56,91.83-25.71,138.46-40.72,41.69-13.42,82.25-41.69,108-75.29,23.21-30.31,36.49-66.1,70.05-89.41,40.64-28.24,88.92-23.54,134.51-36,36-9.85,72-31.82,97.45-59.43,31.14-33.76,47.76-75.84,87.14-102.87,44.94-30.83,99.6-28.57,148.77-50.83,33.46-15.15,63.24-42.07,78.34-70.82" transform="translate(231.18 -43.88)"/></g></g></g><g id="Group_309" data-name="Group 309"><g class="cls-8"><g id="Group_299-3" data-name="Group 299-3"><path id="Path_2266-3" data-name="Path 2266-3" class="cls-9" d="M255.88,2747.25c33.18,21.48,86.05,30.7,133.41,23.29,44.06-6.91,83.24-26.93,128.51-26.55,55.76.48,100.69,32,156.47,31.78,50.91-.17,91.4-26.17,138.89-38,42.45-10.54,92.06-9.14,132.07,3.75,36.1,11.62,66.81,32.4,107.8,33.5,49.66,1.33,87.78-26.38,133-39.58,35.68-10.41,78-11.58,114.54-3.15,44.66,10.31,81.63,34.24,129.56,35.27,54.69,1.18,99.52-27.85,153.1-35.35,36.47-5.11,76.25.64,104.65,15.12" transform="translate(231.18 -43.88)"/></g></g></g><path id="Path_2269" data-name="Path 2269" class="cls-10" d="M729,2760.14l-722.82,490-53.8-503.72" transform="translate(231.18 -43.88)"/><rect id="Rectangle_1533" data-name="Rectangle 1533" class="cls-10" x="226.47" y="1371.93" width="1280" height="1338"/><g id="Group_300" data-name="Group 300"><g class="cls-11"><g id="Group_299-4" data-name="Group 299-4"><path id="Path_2266-4" data-name="Path 2266-4" class="cls-12" d="M78.76,1134.33c17.88,35.13,58.87,69.45,103.43,86.61,41.46,16,85.27,18.14,124.13,41,47.86,28.18,70.88,77.82,119.08,105.45,44,25.22,91.93,22.87,138.79,36.31,41.89,12,84,38,112,69,25.33,28,41.44,61.34,76.25,82.71,42.16,25.89,88.91,20.89,134.52,32,36,8.75,73.1,28.84,100.38,54.32,33.37,31.18,53.29,70.32,94.12,95.09,46.59,28.25,99.78,25.45,149.75,45.64,34,13.74,65.44,38.53,82.71,65.22" transform="translate(231.18 -43.88)"/></g></g></g><g id="Group_305" data-name="Group 305"><g class="cls-13"><g id="Group_299-5" data-name="Group 299-5"><path id="Path_2266-5" data-name="Path 2266-5" class="cls-14" d="M.93,1405.23c33.18,21.48,86.05,30.7,133.41,23.28,44.06-6.9,83.24-26.93,128.51-26.54,55.76.47,100.69,31.94,156.47,31.77,50.91-.16,91.4-26.16,138.89-38,42.45-10.54,92.06-9.13,132.07,3.75,36.1,11.62,66.81,32.4,107.8,33.5,49.66,1.33,87.78-26.37,133-39.58,35.68-10.41,78-11.58,114.54-3.15,44.66,10.31,81.63,34.25,129.56,35.28,54.69,1.17,99.52-27.85,153.1-35.36,36.47-5.1,76.25.65,104.65,15.13" transform="translate(231.18 -43.88)"/></g></g></g><path id="Path_2267" data-name="Path 2267" class="cls-5" d="M552.63,1415.38l746.69,413V1321.85" transform="translate(231.18 -43.88)"/></g></g></g></svg>