<svg xmlns="http://www.w3.org/2000/svg" viewBox="0 0 997 1295"><defs><style>.cls-1{fill:#f4f4f4;stroke:#003937;stroke-miterlimit:10;stroke-width:3px;}.cls-2{fill:#003937;}.cls-3,.cls-4,.cls-5{isolation:isolate;}.cls-4{font-size:26px;font-family:Avenir-Medium, Avenir;font-weight:500;letter-spacing:0.15em;}.cls-5{font-size:20px;font-family:GaramondPremrPro, Garamond Premier Pro;}.cls-6{letter-spacing:0.01em;}.cls-7{letter-spacing:0.01em;}.cls-8{letter-spacing:0em;}.cls-9{letter-spacing:0.01em;}.cls-10{letter-spacing:0em;}.cls-11{letter-spacing:-0.01em;}.cls-12{letter-spacing:-0.01em;}.cls-13{letter-spacing:-0.01em;}.cls-14{letter-spacing:-0.01em;}.cls-15{letter-spacing:-0.01em;}.cls-16{letter-spacing:0.01em;}.cls-17{letter-spacing:0.01em;}.cls-18{letter-spacing:0em;}.cls-19{letter-spacing:0em;}.cls-20{letter-spacing:0.01em;}.cls-21{letter-spacing:0em;}.cls-22{letter-spacing:-0.01em;}.cls-23{letter-spacing:0.02em;}.cls-24{letter-spacing:0.01em;}.cls-25{letter-spacing:-0.01em;}.cls-26{letter-spacing:-0.01em;}.cls-27{letter-spacing:-0.02em;}.cls-28{letter-spacing:-0.01em;}.cls-29{letter-spacing:-0.01em;}.cls-30{letter-spacing:-0.02em;}</style></defs><g id="Lager_2" data-name="Lager 2"><g id="skog"><rect id="Rectangle_1580" data-name="Rectangle 1580" class="cls-1" x="1.5" y="1.5" width="994" height="1292"/><g id="Group_394" data-name="Group 394"><g id="Group_392" data-name="Group 392"><path id="Path_3006" data-name="Path 3006" class="cls-2" d="M169.05,113.4v2.79l-8.44,0v24.23h3.53l.69,25h-2.37l-.45,1.41h18.61l-.32-1.41h-1.4V140.13h2.81V116.31l-7-.09-.1-2.82h1.78v-5.63h-1.45l-.09-1.4h-5.33l-.44,1.4h-1.41v5.63Z"/><path id="Path_3007" data-name="Path 3007" class="cls-2" d="M207.45,113.39v2.78l-8.44,0v24.23h3.53l.69,25h-2.36l-.45,1.41H219l-.31-1.41H217.3V140.12h2.81V116.29l-7-.09-.09-2.81h1.77v-5.63h-1.45l-.1-1.41h-5.32l-.44,1.41H206v5.63Z"/><path id="Path_3008" data-name="Path 3008" class="cls-2" d="M245.85,113.27v2.78l-8.44,0v24.24h3.53l.69,25h-2.36l-.45,1.4h18.6l-.31-1.4h-1.4V140h2.81V116.17l-7-.09-.09-2.81h1.77v-5.63h-1.45l-.1-1.41H246.3l-.45,1.41h-1.4v5.63Z"/><path id="Path_3009" data-name="Path 3009" class="cls-2" d="M284.26,113.28v2.79l-8.44,0v24.23h3.53l.69,25h-2.37l-.45,1.41h18.61l-.32-1.41h-1.4V140h2.81V116.19l-7-.09-.09-2.81h1.77v-5.63h-1.45l-.1-1.41h-5.31l-.45,1.41h-1.41v5.63Z"/><path id="Path_3010" data-name="Path 3010" class="cls-2" d="M322.66,113.3v2.79l-8.44,0v24.23h3.53l.69,25h-2.37l-.45,1.41h18.61l-.32-1.41h-1.4V140h2.81V116.21l-7-.09-.09-2.82H330v-5.62h-1.45l-.1-1.41h-5.31l-.45,1.41h-1.41v5.62Z"/><path id="Path_3011" data-name="Path 3011" class="cls-2" d="M361.06,113.32v2.78l-8.44,0v24.24h3.53l.69,25h-2.36l-.45,1.4h18.6l-.31-1.4h-1.41V140.05h2.81V116.23l-7-.09-.09-2.82h1.77v-5.63h-1.45l-.1-1.4h-5.31l-.45,1.4h-1.41v5.63Z"/><path id="Path_3012" data-name="Path 3012" class="cls-2" d="M399.47,113.34v2.78l-8.45,0v24.23h3.54l.68,25h-2.36l-.45,1.41H411l-.32-1.41h-1.41V140.07h2.82V116.24l-7-.09-.09-2.81h1.78v-5.63h-1.46l-.09-1.41h-5.32l-.45,1.41h-1.41v5.63Z"/><path id="Path_3013" data-name="Path 3013" class="cls-2" d="M437.87,113.35v2.79l-8.44,0V140.4H433l.69,25h-2.37l-.45,1.41h18.61l-.32-1.41h-1.41V140.08h2.82V116.26l-7-.09-.09-2.82h1.78v-5.63h-1.46l-.09-1.4h-5.32l-.45,1.4h-1.4v5.63Z"/><path id="Path_3014" data-name="Path 3014" class="cls-2" d="M476.27,113.37v2.78l-8.44,0v24.24h3.53l.69,25h-2.36l-.46,1.4h18.61l-.32-1.4h-1.4V140.1h2.81V116.27l-7-.09-.09-2.81h1.77v-5.63h-1.45l-.1-1.41h-5.32l-.44,1.41h-1.41v5.63Z"/><path id="Path_3015" data-name="Path 3015" class="cls-2" d="M514.67,113.25V116l-8.44,0V140.3h3.53l.69,25h-2.36l-.45,1.41h18.6l-.31-1.41h-1.41V140h2.81V116.16l-7-.09-.09-2.82H522v-5.63h-1.46l-.09-1.4h-5.32l-.45,1.4h-1.41v5.63Z"/><path id="Path_3016" data-name="Path 3016" class="cls-2" d="M554.28,113v2.78l-8.44,0v24.24h3.53l.69,25h-2.37l-.45,1.4h18.61l-.32-1.4h-1.4V139.73h2.81V115.9l-7-.09-.1-2.81h1.78v-5.63h-1.45L560,106h-5.32l-.45,1.41h-1.4V113Z"/><path id="Path_3017" data-name="Path 3017" class="cls-2" d="M592.68,113v2.79l-8.44,0V140h3.53l.69,25H586.1l-.45,1.41h18.6l-.31-1.41h-1.41V139.71h2.81V115.89l-7-.1-.09-2.81H600v-5.63h-1.45l-.09-1.4h-5.32l-.45,1.4h-1.41V113Z"/><path id="Path_3018" data-name="Path 3018" class="cls-2" d="M631.09,112.86v2.79l-8.45,0v24.23h3.54l.68,25H624.5l-.45,1.41h18.61l-.32-1.41h-1.41V139.6h2.82V115.77l-7-.09-.09-2.82h1.78v-5.63h-1.46l-.09-1.4h-5.32l-.45,1.4h-1.41v5.63Z"/><path id="Path_3019" data-name="Path 3019" class="cls-2" d="M669.49,112.88v2.79l-8.44,0v24.24h3.53l.69,25h-2.36l-.45,1.4h18.6l-.31-1.4h-1.41V139.61h2.81V115.79l-7-.1-.09-2.81h1.77v-5.63h-1.45l-.09-1.4h-5.33l-.44,1.4h-1.41v5.63Z"/><path id="Path_3020" data-name="Path 3020" class="cls-2" d="M707.89,112.9v2.78l-8.44,0v24.23H703l.69,25h-2.36l-.45,1.41h18.6l-.31-1.41h-1.41V139.63h2.81V115.8l-7-.09-.09-2.81h1.77v-5.63h-1.45l-.09-1.41h-5.32l-.45,1.41h-1.41v5.63Z"/><path id="Path_3021" data-name="Path 3021" class="cls-2" d="M746.29,112.91v2.79l-8.44,0V140h3.53l.69,25h-2.36l-.45,1.41h18.6l-.31-1.41h-1.41V139.65H759V115.82l-7-.09-.09-2.82h1.77v-5.62h-1.45l-.09-1.41h-5.32l-.45,1.41h-1.41v5.62Z"/><path id="Path_3022" data-name="Path 3022" class="cls-2" d="M784.69,112.93v2.79l-8.44,0V140h3.54l.68,25h-2.36l-.45,1.4h18.6L796,165h-1.41V139.66h2.81V115.84l-7-.1-.09-2.81H792V107.3h-1.46l-.09-1.4h-5.32l-.45,1.4h-1.41v5.63Z"/><path id="Path_3023" data-name="Path 3023" class="cls-2" d="M823.1,113v2.78l-8.44,0V140h3.53l.69,25h-2.37l-.45,1.41h18.61l-.32-1.41H833V139.68h2.81V115.85l-7-.09-.1-2.81h1.78v-5.63H829l-.1-1.41h-5.32l-.45,1.41h-1.4V113Z"/><path id="Path_3024" data-name="Path 3024" class="cls-2" d="M861.5,113v2.78l-8.44,0V140h3.53l.69,25h-2.36l-.45,1.4h18.6l-.31-1.4h-1.41V139.7h2.81V115.87l-7-.09L867,113h1.77v-5.62h-1.45l-.09-1.41H862l-.45,1.41h-1.41V113Z"/><path id="Path_3025" data-name="Path 3025" class="cls-2" d="M899.91,112.85v2.78l-8.44,0v24.23H895l.69,25h-2.37l-.45,1.41h18.61l-.32-1.41h-1.4V139.58h2.81V115.75l-7-.09-.1-2.81h1.78v-5.63h-1.45l-.1-1.41h-5.32l-.45,1.41h-1.4v5.63Z"/><path id="Path_3026" data-name="Path 3026" class="cls-2" d="M169.05,196v2.79l-8.44,0v24.24h3.53l.69,25h-2.37l-.45,1.4h18.61l-.32-1.4h-1.4V222.77h2.81V198.94l-7-.09-.1-2.81h1.78v-5.63h-1.45l-.09-1.41h-5.33l-.44,1.41h-1.41V196Z"/><path id="Path_3027" data-name="Path 3027" class="cls-2" d="M208.28,196v2.79l-8.44,0v24.23h3.53l.69,25h-2.37l-.45,1.4h18.61l-.32-1.4h-1.41V222.75h2.82V198.93l-7-.1-.09-2.81h1.78v-5.63h-1.46L214,189h-5.32l-.45,1.4h-1.4V196Z"/><path id="Path_3028" data-name="Path 3028" class="cls-2" d="M246.68,195.9v2.79l-8.44,0V223h3.53l.69,25H240.1l-.46,1.41h18.61l-.32-1.41h-1.4V222.63h2.81V198.81l-7-.09-.09-2.82H254v-5.63h-1.45l-.1-1.4h-5.32l-.44,1.4h-1.41v5.63Z"/><path id="Path_3029" data-name="Path 3029" class="cls-2" d="M285.08,195.92v2.79l-8.44,0V223h3.53l.69,25H278.5l-.45,1.41h18.6l-.31-1.41h-1.41V222.65h2.81V198.83l-7-.1-.09-2.81h1.77v-5.63h-1.45l-.09-1.4h-5.32l-.45,1.4h-1.41v5.63Z"/><path id="Path_3030" data-name="Path 3030" class="cls-2" d="M323.49,195.94v2.78l-8.45,0V223h3.54l.68,25H316.9l-.45,1.41h18.61l-.32-1.41h-1.41V222.67h2.82V198.84l-7-.09-.09-2.81h1.78v-5.63h-1.46l-.09-1.41h-5.32l-.45,1.41h-1.41v5.63Z"/><path id="Path_3031" data-name="Path 3031" class="cls-2" d="M361.89,196v2.79l-8.44,0V223H357l.69,25h-2.36l-.45,1.41h18.6l-.31-1.41h-1.41V222.69h2.81V198.86l-7-.09-.09-2.82h1.77v-5.62h-1.45l-.09-1.41h-5.33l-.44,1.41h-1.41V196Z"/><path id="Path_3032" data-name="Path 3032" class="cls-2" d="M400.29,196v2.78l-8.44,0V223h3.53l.69,25h-2.36l-.45,1.4h18.6l-.31-1.4h-1.41V222.7H413V198.87l-7-.09-.09-2.81h1.77v-5.63h-1.45l-.09-1.41h-5.33l-.44,1.41h-1.41V196Z"/><path id="Path_3033" data-name="Path 3033" class="cls-2" d="M438.69,196v2.78l-8.44,0V223h3.53l.69,25h-2.36l-.45,1.4h18.6l-.31-1.4h-1.41V222.72h2.81V198.89l-7-.09-.09-2.81H446v-5.63h-1.45l-.09-1.41h-5.33l-.44,1.41h-1.41V196Z"/><path id="Path_3034" data-name="Path 3034" class="cls-2" d="M477.1,196v2.79l-8.45,0v24.23h3.54l.69,25h-2.37l-.45,1.41h18.6l-.31-1.41h-1.41V222.73h2.81V198.91l-7-.09-.09-2.82h1.77v-5.63H483l-.09-1.4h-5.33l-.44,1.4h-1.41V196Z"/><path id="Path_3035" data-name="Path 3035" class="cls-2" d="M515.5,195.89v2.78l-8.44,0v24.23h3.53l.69,25h-2.37l-.45,1.41h18.61l-.32-1.41h-1.4V222.62h2.81V198.79l-7-.09-.09-2.81h1.78v-5.63h-1.46l-.09-1.41h-5.32l-.45,1.41h-1.4v5.63Z"/><path id="Path_3036" data-name="Path 3036" class="cls-2" d="M555.11,195.63v2.79l-8.44,0v24.23h3.53l.69,25h-2.37l-.45,1.41h18.61l-.32-1.41H565V222.37h2.82V198.54l-7-.09-.09-2.82h1.78V190H561l-.09-1.4h-5.32l-.45,1.4h-1.4v5.63Z"/><path id="Path_3037" data-name="Path 3037" class="cls-2" d="M593.51,195.62v2.78l-8.44,0v24.24h3.53l.69,25h-2.37l-.45,1.41h18.61l-.32-1.41h-1.41V222.35h2.82V198.52l-7-.09-.09-2.81h1.78V190h-1.46l-.09-1.41H594L593.5,190h-1.4v5.63Z"/><path id="Path_3038" data-name="Path 3038" class="cls-2" d="M631.91,195.5v2.78l-8.44,0v24.24H627l.69,25h-2.37l-.45,1.4h18.61l-.32-1.4h-1.41V222.23h2.82V198.4l-7-.09-.09-2.81h1.78v-5.63h-1.46l-.09-1.41h-5.32l-.44,1.41h-1.4v5.63Z"/><path id="Path_3039" data-name="Path 3039" class="cls-2" d="M670.31,195.51v2.79l-8.44,0v24.23h3.53l.69,25h-2.36l-.45,1.41h18.6l-.31-1.41h-1.41V222.25H683V198.42l-7-.09-.09-2.82h1.78v-5.62h-1.46l-.09-1.41h-5.32l-.45,1.41h-1.4v5.62Z"/><path id="Path_3040" data-name="Path 3040" class="cls-2" d="M708.71,195.53v2.79l-8.44,0v24.23h3.54l.68,25h-2.36l-.45,1.41h18.61l-.32-1.41h-1.41V222.27h2.82V198.44l-7-.09-.09-2.81H716v-5.63h-1.46l-.09-1.41h-5.32l-.45,1.41h-1.4v5.63Z"/><path id="Path_3041" data-name="Path 3041" class="cls-2" d="M747.12,195.55v2.78l-8.44,0V222.6h3.53l.69,25h-2.37l-.45,1.4h18.61l-.32-1.4H757V222.28h2.81V198.45l-7-.09-.1-2.81h1.78v-5.63H753l-.1-1.41h-5.32l-.45,1.41h-1.4v5.63Z"/><path id="Path_3042" data-name="Path 3042" class="cls-2" d="M785.52,195.57v2.79l-8.44,0v24.24h3.53l.69,25h-2.36l-.45,1.4h18.6l-.31-1.4h-1.41V222.3h2.81V198.47l-7-.09-.09-2.82h1.78v-5.62h-1.46l-.09-1.41H786l-.45,1.41h-1.41v5.62Z"/><path id="Path_3043" data-name="Path 3043" class="cls-2" d="M823.92,195.58v2.79l-8.44,0v24.23H819l.69,25h-2.36l-.45,1.41h18.6l-.31-1.41h-1.41V222.31h2.82V198.49l-7-.09-.09-2.82h1.78V190h-1.46l-.09-1.4h-5.32l-.45,1.4h-1.41v5.63Z"/><path id="Path_3044" data-name="Path 3044" class="cls-2" d="M862.33,195.6v2.78l-8.45,0v24.24h3.54l.69,25h-2.37l-.45,1.4H873.9l-.32-1.4h-1.41V222.33H875V198.5l-7-.09-.09-2.81h1.78V190h-1.46l-.09-1.41h-5.32l-.45,1.41h-1.4v5.63Z"/><path id="Path_3045" data-name="Path 3045" class="cls-2" d="M900.73,195.48v2.79l-8.44,0v24.24h3.53l.69,25h-2.36l-.46,1.41H912.3l-.32-1.41h-1.4V222.21h2.81V198.39l-7-.1-.09-2.81H908v-5.63h-1.45l-.1-1.4h-5.32l-.44,1.4h-1.41v5.63Z"/><path id="Path_3046" data-name="Path 3046" class="cls-2" d="M169.05,274v2.79l-8.44,0v24.24h3.53l.69,25h-2.37l-.45,1.4h18.61l-.32-1.4h-1.4V300.77h2.81V276.94l-7-.09-.1-2.81h1.78v-5.63h-1.45l-.09-1.41h-5.33l-.44,1.41h-1.41V274Z"/><path id="Path_3047" data-name="Path 3047" class="cls-2" d="M208.28,274v2.79l-8.44,0v24.23h3.53l.69,25h-2.37l-.45,1.4h18.61l-.32-1.4h-1.41V300.75h2.82V276.93l-7-.1-.09-2.81h1.78v-5.63h-1.46L214,267h-5.32l-.45,1.4h-1.4V274Z"/><path id="Path_3048" data-name="Path 3048" class="cls-2" d="M246.68,273.9v2.79l-8.44,0V301h3.53l.69,25H240.1l-.46,1.41h18.61l-.32-1.41h-1.4V300.63h2.81V276.81l-7-.09-.09-2.82H254v-5.63h-1.45l-.1-1.4h-5.32l-.44,1.4h-1.41v5.63Z"/><path id="Path_3049" data-name="Path 3049" class="cls-2" d="M285.08,273.92v2.79l-8.44,0V301h3.53l.69,25H278.5l-.45,1.41h18.6l-.31-1.41h-1.41V300.65h2.81V276.83l-7-.1-.09-2.81h1.77v-5.63h-1.45l-.09-1.4h-5.32l-.45,1.4h-1.41v5.63Z"/><path id="Path_3050" data-name="Path 3050" class="cls-2" d="M323.49,273.94v2.78l-8.45,0V301h3.54l.68,25H316.9l-.45,1.41h18.61l-.32-1.41h-1.41V300.67h2.82V276.84l-7-.09-.09-2.81h1.78v-5.63h-1.46l-.09-1.41h-5.32l-.45,1.41h-1.41v5.63Z"/><path id="Path_3051" data-name="Path 3051" class="cls-2" d="M361.89,274v2.79l-8.44,0V301H357l.69,25h-2.36l-.45,1.41h18.6l-.31-1.41h-1.41V300.69h2.81V276.86l-7-.09-.09-2.82h1.77v-5.62h-1.45l-.09-1.41h-5.33l-.44,1.41h-1.41V274Z"/><path id="Path_3052" data-name="Path 3052" class="cls-2" d="M400.29,274v2.78l-8.44,0V301h3.53l.69,25h-2.36l-.45,1.4h18.6l-.31-1.4h-1.41V300.7H413V276.87l-7-.09-.09-2.81h1.77v-5.63h-1.45l-.09-1.41h-5.33l-.44,1.41h-1.41V274Z"/><path id="Path_3053" data-name="Path 3053" class="cls-2" d="M438.69,274v2.78l-8.44,0V301h3.53l.69,25h-2.36l-.45,1.4h18.6l-.31-1.4h-1.41V300.72h2.81V276.89l-7-.09-.09-2.81H446v-5.63h-1.45l-.09-1.41h-5.33l-.44,1.41h-1.41V274Z"/><path id="Path_3054" data-name="Path 3054" class="cls-2" d="M477.1,274v2.79l-8.45,0v24.23h3.54l.69,25h-2.37l-.45,1.41h18.6l-.31-1.41h-1.41V300.73h2.81V276.91l-7-.09-.09-2.82h1.77v-5.63H483l-.09-1.4h-5.33l-.44,1.4h-1.41V274Z"/><path id="Path_3055" data-name="Path 3055" class="cls-2" d="M515.5,273.89v2.78l-8.44,0v24.23h3.53l.69,25h-2.37l-.45,1.41h18.61l-.32-1.41h-1.4V300.62h2.81V276.79l-7-.09-.09-2.81h1.78v-5.63h-1.46l-.09-1.41h-5.32l-.45,1.41h-1.4v5.63Z"/><path id="Path_3056" data-name="Path 3056" class="cls-2" d="M555.11,273.63v2.79l-8.44,0v24.23h3.53l.69,25h-2.37l-.45,1.41h18.61l-.32-1.41H565V300.37h2.82V276.54l-7-.09-.09-2.82h1.78V268H561l-.09-1.4h-5.32l-.45,1.4h-1.4v5.63Z"/><path id="Path_3057" data-name="Path 3057" class="cls-2" d="M593.51,273.62v2.78l-8.44,0v24.24h3.53l.69,25h-2.37l-.45,1.41h18.61l-.32-1.41h-1.41V300.35h2.82V276.52l-7-.09-.09-2.81h1.78V268h-1.46l-.09-1.41H594L593.5,268h-1.4v5.63Z"/><path id="Path_3058" data-name="Path 3058" class="cls-2" d="M631.91,273.5v2.78l-8.44,0v24.24H627l.69,25h-2.37l-.45,1.4h18.61l-.32-1.4h-1.41V300.23h2.82V276.4l-7-.09-.09-2.81h1.78v-5.63h-1.46l-.09-1.41h-5.32l-.44,1.41h-1.4v5.63Z"/><path id="Path_3059" data-name="Path 3059" class="cls-2" d="M670.31,273.51v2.79l-8.44,0v24.23h3.53l.69,25h-2.36l-.45,1.41h18.6l-.31-1.41h-1.41V300.25H683V276.42l-7-.09-.09-2.82h1.78v-5.62h-1.46l-.09-1.41h-5.32l-.45,1.41h-1.4v5.62Z"/><path id="Path_3060" data-name="Path 3060" class="cls-2" d="M708.71,273.53v2.79l-8.44,0v24.23h3.54l.68,25h-2.36l-.45,1.41h18.61l-.32-1.41h-1.41V300.27h2.82V276.44l-7-.09-.09-2.81H716v-5.63h-1.46l-.09-1.41h-5.32l-.45,1.41h-1.4v5.63Z"/><path id="Path_3061" data-name="Path 3061" class="cls-2" d="M747.12,273.55v2.78l-8.44,0V300.6h3.53l.69,25h-2.37l-.45,1.4h18.61l-.32-1.4H757V300.28h2.81V276.45l-7-.09-.1-2.81h1.78v-5.63H753l-.1-1.41h-5.32l-.45,1.41h-1.4v5.63Z"/><path id="Path_3062" data-name="Path 3062" class="cls-2" d="M785.52,273.57v2.79l-8.44,0v24.24h3.53l.69,25h-2.36l-.45,1.4h18.6l-.31-1.4h-1.41V300.3h2.81V276.47l-7-.09-.09-2.82h1.78v-5.62h-1.46l-.09-1.41H786l-.45,1.41h-1.41v5.62Z"/><path id="Path_3063" data-name="Path 3063" class="cls-2" d="M823.92,273.58v2.79l-8.44,0v24.23H819l.69,25h-2.36l-.45,1.41h18.6l-.31-1.41h-1.41V300.31h2.82V276.49l-7-.09-.09-2.82h1.78V268h-1.46l-.09-1.4h-5.32l-.45,1.4h-1.41v5.63Z"/><path id="Path_3064" data-name="Path 3064" class="cls-2" d="M862.33,273.6v2.78l-8.45,0v24.24h3.54l.69,25h-2.37l-.45,1.4H873.9l-.32-1.4h-1.41V300.33H875V276.5l-7-.09-.09-2.81h1.78V268h-1.46l-.09-1.41h-5.32l-.45,1.41h-1.4v5.63Z"/><path id="Path_3065" data-name="Path 3065" class="cls-2" d="M900.73,273.48v2.79l-8.44,0v24.24h3.53l.69,25h-2.36l-.46,1.41H912.3l-.32-1.41h-1.4V300.21h2.81V276.39l-7-.1-.09-2.81H908v-5.63h-1.45l-.1-1.4h-5.32l-.44,1.4h-1.41v5.63Z"/><path id="Path_3066" data-name="Path 3066" class="cls-2" d="M169.05,354.53v2.79l-8.44,0v24.23h3.53l.69,25h-2.37L162,408h18.61l-.32-1.41h-1.4V381.26h2.81V357.44l-7-.09-.1-2.82h1.78v-5.62h-1.45l-.09-1.41h-5.33l-.44,1.41h-1.41v5.62Z"/><path id="Path_3067" data-name="Path 3067" class="cls-2" d="M208.28,353v2.79l-8.44,0v24.23h3.53l.69,25h-2.37l-.45,1.4h18.61l-.32-1.4h-1.41V379.75h2.82V355.93l-7-.1-.09-2.81h1.78v-5.63h-1.46L214,346h-5.32l-.45,1.4h-1.4V353Z"/><path id="Path_3068" data-name="Path 3068" class="cls-2" d="M246.68,352.9v2.79l-8.44,0V380h3.53l.69,25H240.1l-.46,1.41h18.61l-.32-1.41h-1.4V379.63h2.81V355.81l-7-.09-.09-2.82H254v-5.63h-1.45l-.1-1.4h-5.32l-.44,1.4h-1.41v5.63Z"/><path id="Path_3069" data-name="Path 3069" class="cls-2" d="M285.08,352.92v2.79l-8.44,0V380h3.53l.69,25H278.5l-.45,1.41h18.6l-.31-1.41h-1.41V379.65h2.81V355.83l-7-.1-.09-2.81h1.77v-5.63h-1.45l-.09-1.4h-5.32l-.45,1.4h-1.41v5.63Z"/><path id="Path_3070" data-name="Path 3070" class="cls-2" d="M323.49,352.94v2.78l-8.45,0V380h3.54l.68,25H316.9l-.45,1.41h18.61l-.32-1.41h-1.41V379.67h2.82V355.84l-7-.09-.09-2.81h1.78v-5.63h-1.46l-.09-1.41h-5.32l-.45,1.41h-1.41v5.63Z"/><path id="Path_3071" data-name="Path 3071" class="cls-2" d="M361.89,353v2.79l-8.44,0V380H357l.69,25h-2.36l-.45,1.41h18.6l-.31-1.41h-1.41V379.69h2.81V355.86l-7-.09-.09-2.82h1.77v-5.62h-1.45l-.09-1.41h-5.33l-.44,1.41h-1.41V353Z"/><path id="Path_3072" data-name="Path 3072" class="cls-2" d="M400.29,353v2.78l-8.44,0V380h3.53l.69,25h-2.36l-.45,1.4h18.6l-.31-1.4h-1.41V379.7H413V355.87l-7-.09-.09-2.81h1.77v-5.63h-1.45l-.09-1.41h-5.33l-.44,1.41h-1.41V353Z"/><path id="Path_3073" data-name="Path 3073" class="cls-2" d="M438.69,353v2.78l-8.44,0V380h3.53l.69,25h-2.36l-.45,1.4h18.6l-.31-1.4h-1.41V379.72h2.81V355.89l-7-.09-.09-2.81H446v-5.63h-1.45l-.09-1.41h-5.33l-.44,1.41h-1.41V353Z"/><path id="Path_3074" data-name="Path 3074" class="cls-2" d="M477.1,353v2.79l-8.45,0v24.23h3.54l.69,25h-2.37l-.45,1.41h18.6l-.31-1.41h-1.41V379.73h2.81V355.91l-7-.09-.09-2.82h1.77v-5.63H483l-.09-1.4h-5.33l-.44,1.4h-1.41V353Z"/><path id="Path_3075" data-name="Path 3075" class="cls-2" d="M515.5,352.89v2.78l-8.44,0v24.23h3.53l.69,25h-2.37l-.45,1.41h18.61l-.32-1.41h-1.4V379.62h2.81V355.79l-7-.09-.09-2.81h1.78v-5.63h-1.46l-.09-1.41h-5.32l-.45,1.41h-1.4v5.63Z"/><path id="Path_3076" data-name="Path 3076" class="cls-2" d="M555.11,352.63v2.79l-8.44,0v24.23h3.53l.69,25h-2.37l-.45,1.41h18.61l-.32-1.41H565V379.37h2.82V355.54l-7-.09-.09-2.82h1.78V347H561l-.09-1.4h-5.32l-.45,1.4h-1.4v5.63Z"/><path id="Path_3077" data-name="Path 3077" class="cls-2" d="M593.51,352.62v2.78l-8.44,0v24.24h3.53l.69,25h-2.37l-.45,1.41h18.61l-.32-1.41h-1.41V379.35h2.82V355.52l-7-.09-.09-2.81h1.78V347h-1.46l-.09-1.41H594L593.5,347h-1.4v5.63Z"/><path id="Path_3078" data-name="Path 3078" class="cls-2" d="M631.91,352.5v2.78l-8.44,0v24.24H627l.69,25h-2.37l-.45,1.4h18.61l-.32-1.4h-1.41V379.23h2.82V355.4l-7-.09-.09-2.81h1.78v-5.63h-1.46l-.09-1.41h-5.32l-.44,1.41h-1.4v5.63Z"/><path id="Path_3079" data-name="Path 3079" class="cls-2" d="M670.31,352.51v2.79l-8.44,0v24.23h3.53l.69,25h-2.36l-.45,1.41h18.6l-.31-1.41h-1.41V379.25H683V355.42l-7-.09-.09-2.82h1.78v-5.62h-1.46l-.09-1.41h-5.32l-.45,1.41h-1.4v5.62Z"/><path id="Path_3080" data-name="Path 3080" class="cls-2" d="M708.71,352.53v2.79l-8.44,0v24.23h3.54l.68,25h-2.36l-.45,1.41h18.61l-.32-1.41h-1.41V379.27h2.82V355.44l-7-.09-.09-2.81H716v-5.63h-1.46l-.09-1.41h-5.32l-.45,1.41h-1.4v5.63Z"/><path id="Path_3081" data-name="Path 3081" class="cls-2" d="M747.12,352.55v2.78l-8.44,0V379.6h3.53l.69,25h-2.37l-.45,1.4h18.61l-.32-1.4H757V379.28h2.81V355.45l-7-.09-.1-2.81h1.78v-5.63H753l-.1-1.41h-5.32l-.45,1.41h-1.4v5.63Z"/><path id="Path_3082" data-name="Path 3082" class="cls-2" d="M785.52,352.57v2.79l-8.44,0v24.24h3.53l.69,25h-2.36l-.45,1.4h18.6l-.31-1.4h-1.41V379.3h2.81V355.47l-7-.09-.09-2.82h1.78v-5.62h-1.46l-.09-1.41H786l-.45,1.41h-1.41v5.62Z"/><path id="Path_3083" data-name="Path 3083" class="cls-2" d="M823.92,352.58v2.79l-8.44,0v24.23H819l.69,25h-2.36l-.45,1.41h18.6l-.31-1.41h-1.41V379.31h2.82V355.49l-7-.09-.09-2.82h1.78V347h-1.46l-.09-1.4h-5.32l-.45,1.4h-1.41v5.63Z"/><path id="Path_3084" data-name="Path 3084" class="cls-2" d="M862.33,352.6v2.78l-8.45,0v24.24h3.54l.69,25h-2.37l-.45,1.4H873.9l-.32-1.4h-1.41V379.33H875V355.5l-7-.09-.09-2.81h1.78V347h-1.46l-.09-1.41h-5.32l-.45,1.41h-1.4v5.63Z"/><path id="Path_3085" data-name="Path 3085" class="cls-2" d="M900.73,352.48v2.79l-8.44,0v24.24h3.53l.69,25h-2.36l-.46,1.41H912.3l-.32-1.41h-1.4V379.21h2.81V355.39l-7-.1-.09-2.81H908v-5.63h-1.45l-.1-1.4h-5.32l-.44,1.4h-1.41v5.63Z"/><path id="Path_3086" data-name="Path 3086" class="cls-2" d="M169.05,571.53v2.79l-8.44,0v24.23h3.53l.69,25h-2.37L162,625h18.61l-.32-1.41h-1.4V598.27h2.81V574.44l-7-.09-.1-2.81h1.78v-5.63h-1.45l-.09-1.41h-5.33l-.44,1.41h-1.41v5.63Z"/><path id="Path_3087" data-name="Path 3087" class="cls-2" d="M207.8,570.86v2.79l-8.44,0v24.24h3.53l.69,25h-2.36l-.46,1.41h18.61l-.32-1.41h-1.4V597.59h2.81V573.77l-7-.09-.09-2.82h1.77v-5.63h-1.45l-.1-1.4h-5.32l-.44,1.4h-1.41v5.63Z"/><path id="Path_3088" data-name="Path 3088" class="cls-2" d="M246.21,570.74v2.79l-8.44,0v24.23h3.53l.69,25h-2.37l-.45,1.41h18.61l-.32-1.41h-1.41V597.48h2.82V573.65l-7-.09-.09-2.82h1.78v-5.62h-1.46l-.09-1.41h-5.32l-.45,1.41h-1.4v5.62Z"/><path id="Path_3089" data-name="Path 3089" class="cls-2" d="M284.61,570.76v2.79l-8.44,0v24.24h3.53l.69,25H278l-.45,1.41h18.61l-.32-1.41h-1.41V597.49h2.82V573.67l-7-.09-.09-2.82h1.78v-5.62h-1.46l-.09-1.41h-5.32l-.45,1.41h-1.4v5.62Z"/><path id="Path_3090" data-name="Path 3090" class="cls-2" d="M323,570.78v2.78l-8.44,0v24.23h3.53l.69,25h-2.37l-.45,1.41h18.61l-.32-1.41h-1.41V597.51h2.82V573.68l-7-.09-.09-2.81h1.78v-5.63h-1.46l-.09-1.41h-5.32l-.45,1.41h-1.4v5.63Z"/><path id="Path_3091" data-name="Path 3091" class="cls-2" d="M169.5,696.5l-.45,1.41h-1.41v5.62h1.41v2.79l-8.44,0v24.23h3.53l.69,25h-2.37L162,757h11.14V696.5Z"/><path id="Path_3092" data-name="Path 3092" class="cls-2" d="M169.5,827.5l-.45,1.41h-1.41v5.62h1.41v2.79l-8.44,0v24.23h3.53l.69,25h-2.37L162,888h11.14V827.5Z"/><path id="Path_3093" data-name="Path 3093" class="cls-2" d="M210,960.05l-.44,1.41h-1.41v5.63h1.41v2.78l-8.45,0v24.23h3.54l.68,25H203l-.45,1.41h11.14v-60.5Z"/><path id="Path_3094" data-name="Path 3094" class="cls-2" d="M169.05,966.53v2.79l-8.44,0v24.23h3.53l.69,25h-2.37L162,1020h18.61l-.32-1.41h-1.4V993.27h2.81V969.44l-7-.09-.1-2.82h1.78v-5.62h-1.45l-.09-1.41h-5.33l-.44,1.41h-1.41v5.62Z"/><path id="Path_3095" data-name="Path 3095" class="cls-2" d="M169.05,1097.53v2.79l-8.44,0v24.23h3.53l.69,25h-2.37L162,1151h18.61l-.32-1.41h-1.4v-25.32h2.81v-23.83l-7-.09-.1-2.82h1.78v-5.62h-1.45l-.09-1.41h-5.33l-.44,1.41h-1.41v5.62Z"/><path id="Path_3096" data-name="Path 3096" class="cls-2" d="M207.77,1097v2.79l-8.44,0v24.24h3.53l.69,25h-2.36l-.45,1.4h18.6l-.31-1.4h-1.41v-25.33h2.81v-23.82l-7-.1-.09-2.81h1.77v-5.63h-1.45l-.09-1.4h-5.33l-.44,1.4h-1.41V1097Z"/><path id="Path_3097" data-name="Path 3097" class="cls-2" d="M246.17,1096.89v2.79l-8.44,0v24.23h3.53l.69,25h-2.36l-.45,1.41h18.6l-.31-1.41H256v-25.33h2.82V1099.8l-7-.09-.09-2.82h1.78v-5.63H252l-.09-1.4h-5.32l-.45,1.4h-1.41v5.63Z"/><path id="Path_3098" data-name="Path 3098" class="cls-2" d="M284.58,1096.91v2.78l-8.45,0V1124h3.54l.68,25H278l-.45,1.4h18.61l-.32-1.4h-1.41v-25.33h2.82v-23.82l-7-.1-.09-2.81h1.78v-5.63h-1.46l-.09-1.4H285l-.45,1.4h-1.41v5.63Z"/><path id="Path_3099" data-name="Path 3099" class="cls-2" d="M323,1096.93v2.78l-8.44,0V1124h3.53l.69,25h-2.37l-.45,1.41h18.61l-.32-1.41h-1.4v-25.32h2.81v-23.83l-7-.09-.1-2.81h1.78v-5.63h-1.45l-.1-1.41h-5.32l-.45,1.41h-1.4v5.63Z"/><path id="Path_3100" data-name="Path 3100" class="cls-2" d="M361.38,1096.94v2.79l-8.44,0V1124h3.53l.69,25H354.8l-.45,1.41H373l-.31-1.41h-1.41v-25.33H374v-23.82l-7-.09-.09-2.82h1.77v-5.62h-1.45l-.09-1.41h-5.32l-.45,1.41H360v5.62Z"/><path id="Path_3101" data-name="Path 3101" class="cls-2" d="M399.78,1097v2.79l-8.44,0V1124h3.53l.69,25H393.2l-.45,1.4h18.6L411,1149h-1.41v-25.33h2.82v-23.82l-7-.09-.09-2.82h1.78v-5.62h-1.46l-.09-1.41h-5.32l-.45,1.41h-1.41V1097Z"/><path id="Path_3102" data-name="Path 3102" class="cls-2" d="M438.19,1097v2.78l-8.45,0V1124h3.54l.69,25h-2.36l-.45,1.41h18.6l-.31-1.41H448v-25.32h2.81v-23.83l-7-.09-.09-2.81h1.77v-5.63h-1.45l-.09-1.41h-5.33l-.44,1.41h-1.41V1097Z"/><path id="Path_3103" data-name="Path 3103" class="cls-2" d="M476.59,1097v2.79l-8.44,0V1124h3.53l.69,25H470l-.45,1.41h18.6l-.31-1.41h-1.41v-25.33h2.81V1099.9l-7-.09-.09-2.82h1.77v-5.62h-1.45l-.09-1.41H477l-.44,1.41h-1.41V1097Z"/><path id="Path_3104" data-name="Path 3104" class="cls-2" d="M515,1096.88v2.78l-8.44,0v24.23h3.53l.69,25h-2.36l-.45,1.41h18.6l-.31-1.41h-1.41v-25.32h2.81v-23.83l-7-.09-.09-2.81h1.77v-5.63h-1.45l-.09-1.41h-5.33l-.44,1.41h-1.41v5.63Z"/><path id="Path_3105" data-name="Path 3105" class="cls-2" d="M554.6,1096.62v2.79l-8.44,0v24.23h3.53l.69,25H548l-.45,1.41h18.61l-.32-1.41h-1.4v-25.33h2.81v-23.82l-7-.1-.1-2.81h1.78V1091h-1.45l-.1-1.4H555l-.45,1.4h-1.4v5.63Z"/><path id="Path_3106" data-name="Path 3106" class="cls-2" d="M593,1096.61v2.78l-8.44,0v24.23h3.53l.69,25h-2.36l-.45,1.41h18.6l-.31-1.41h-1.41v-25.32h2.81v-23.83l-7-.09-.09-2.81h1.77V1091h-1.45l-.09-1.41h-5.32L593,1091h-1.41v5.63Z"/><path id="Path_3107" data-name="Path 3107" class="cls-2" d="M631.41,1096.49v2.78l-8.44,0v24.23h3.53l.69,25h-2.37l-.45,1.41H643l-.32-1.41h-1.41v-25.32h2.82v-23.83l-7-.09-.09-2.81h1.78v-5.63h-1.46l-.09-1.41h-5.32l-.45,1.41H630v5.63Z"/><path id="Path_3108" data-name="Path 3108" class="cls-2" d="M669.81,1096.5v2.79l-8.45,0v24.23h3.54l.69,25h-2.37l-.45,1.41h18.61l-.32-1.41h-1.41v-25.32h2.82v-23.83l-7-.09-.09-2.82h1.78v-5.62h-1.46l-.09-1.41h-5.32l-.45,1.41h-1.4v5.62Z"/><path id="Path_3109" data-name="Path 3109" class="cls-2" d="M708.21,1096.52v2.79l-8.44,0v24.23h3.53l.69,25h-2.37l-.45,1.4h18.61l-.32-1.4h-1.4v-25.33h2.81v-23.82l-7-.1-.1-2.81h1.78v-5.63h-1.45l-.1-1.4h-5.32l-.45,1.4h-1.39v5.63Z"/></g><g id="_1550" data-name=" 1550" class="cls-3"><text class="cls-4" transform="translate(63.61 87.5)">1550</text></g><g id="_1750" data-name=" 1750" class="cls-3"><text class="cls-4" transform="translate(63.61 558.5)">1750</text></g><g id="_1800" data-name=" 1800" class="cls-3"><text class="cls-4" transform="translate(63.61 690.5)">1800</text></g><g id="_1900" data-name=" 1900" class="cls-3"><text class="cls-4" transform="translate(63.61 822.5)">1900</text></g><g id="_1950" data-name=" 1950" class="cls-3"><text class="cls-4" transform="translate(63.61 952.5)">1950</text></g><g id="_2020" data-name=" 2020" class="cls-3"><text class="cls-4" transform="translate(63.61 1084.5)">2020</text></g><g id="Each_symbol_represents_200_people_which_belonged_to_the_Catawba_tribe." data-name="Each symbol represents 200 people which belonged to the Catawba tribe." class="cls-3"><text class="cls-5" transform="translate(63.61 1226.05)"><tspan class="cls-6">E</tspan><tspan x="11.4" y="0">ach </tspan><tspan class="cls-7" x="41.42" y="0">s</tspan><tspan class="cls-8" x="48.02" y="0">y</tspan><tspan x="56.22" y="0">m</tspan><tspan class="cls-9" x="71.46" y="0">b</tspan><tspan class="cls-10" x="81.36" y="0">o</tspan><tspan x="91.08" y="0">l </tspan><tspan class="cls-11" x="99.94" y="0">r</tspan><tspan class="cls-12" x="106.58" y="0">e</tspan><tspan class="cls-8" x="114.24" y="0">p</tspan><tspan class="cls-11" x="124.08" y="0">r</tspan><tspan x="130.72" y="0">es</tspan><tspan class="cls-13" x="144.98" y="0">e</tspan><tspan class="cls-14" x="152.62" y="0">n</tspan><tspan class="cls-15" x="162.78" y="0">t</tspan><tspan x="169.08" y="0">s 200 </tspan><tspan class="cls-16" x="212.62" y="0">p</tspan><tspan class="cls-17" x="222.72" y="0">e</tspan><tspan class="cls-8" x="230.82" y="0">o</tspan><tspan class="cls-10" x="240.38" y="0">p</tspan><tspan class="cls-18" x="250.38" y="0">le </tspan><tspan class="cls-19" x="267.07" y="0">w</tspan><tspan class="cls-20" x="280.05" y="0">h</tspan><tspan x="290.43" y="0">ich </tspan><tspan class="cls-9" x="317.57" y="0">b</tspan><tspan x="327.47" y="0">el</tspan><tspan class="cls-21" x="340.19" y="0">o</tspan><tspan class="cls-22" x="349.75" y="0">n</tspan><tspan class="cls-23" x="360.05" y="0">g</tspan><tspan class="cls-24" x="368.81" y="0">e</tspan><tspan x="376.91" y="0">d </tspan><tspan class="cls-25" x="390.87" y="0">t</tspan><tspan x="397.21" y="0">o </tspan><tspan class="cls-26" x="410.83" y="0">t</tspan><tspan class="cls-18" x="417.03" y="0">he </tspan><tspan class="cls-27" x="439.11" y="0">C</tspan><tspan class="cls-12" x="453.07" y="0">a</tspan><tspan class="cls-28" x="460.83" y="0">t</tspan><tspan class="cls-29" x="467.07" y="0">a</tspan><tspan class="cls-18" x="474.73" y="0">w</tspan><tspan class="cls-10" x="487.81" y="0">b</tspan><tspan x="497.61" y="0">a </tspan><tspan class="cls-30" x="509.53" y="0">t</tspan><tspan class="cls-11" x="515.61" y="0">r</tspan><tspan x="522.25" y="0">i</tspan><tspan class="cls-7" x="527.31" y="0">b</tspan><tspan x="537.21" y="0">e.</tspan></text></g><g id="Group_393" data-name="Group 393"><path id="Path_3110" data-name="Path 3110" class="cls-2" d="M169.05,440.53v2.79l-8.44,0v24.23h3.53l.69,25h-2.37L162,494h18.61l-.32-1.41h-1.4V467.26h2.81V443.44l-7-.09-.1-2.82h1.78V434.9h-1.45l-.09-1.4h-5.33l-.44,1.4h-1.41v5.63Z"/><path id="Path_3111" data-name="Path 3111" class="cls-2" d="M207.8,440.16v2.78l-8.44,0V467.2h3.53l.69,25h-2.36l-.46,1.41h18.61l-.32-1.41h-1.4V466.89h2.81V443.06l-7-.09-.09-2.81h1.77v-5.63h-1.45l-.1-1.41h-5.32l-.44,1.41h-1.41v5.63Z"/><path id="Path_3112" data-name="Path 3112" class="cls-2" d="M246.21,440v2.79l-8.44,0v24.24h3.53l.69,25h-2.37l-.45,1.4h18.61l-.32-1.4h-1.41V466.77h2.82V442.94l-7-.09-.09-2.81h1.78v-5.63h-1.46L252,433h-5.32l-.45,1.41h-1.4V440Z"/><path id="Path_3113" data-name="Path 3113" class="cls-2" d="M284.61,440.06v2.78l-8.44,0V467.1h3.53l.69,25H278l-.45,1.41h18.61l-.32-1.41h-1.41V466.79h2.82V443l-7-.09-.09-2.81h1.78v-5.63h-1.46l-.09-1.41h-5.32l-.45,1.41h-1.4v5.63Z"/><path id="Path_3114" data-name="Path 3114" class="cls-2" d="M323,440.07v2.79l-8.44,0v24.23h3.53l.69,25h-2.37l-.45,1.41h18.61l-.32-1.41h-1.41V466.8h2.82V443l-7-.09-.09-2.82h1.78v-5.63h-1.46l-.09-1.4h-5.32l-.45,1.4h-1.4v5.63Z"/></g></g></g></g></svg>